<svg width="522" height="252" viewBox="0 0 522 252" fill="none" xmlns="http://www.w3.org/2000/svg">
<path fill-rule="evenodd" clip-rule="evenodd" d="M521 1.5H1V0.5H521V1.5Z" fill="#20202E"/>
<path fill-rule="evenodd" clip-rule="evenodd" d="M521 11.5H1V10.5H521V11.5Z" fill="#20202E"/>
<path fill-rule="evenodd" clip-rule="evenodd" d="M521 21.5H1V20.5H521V21.5Z" fill="#20202E"/>
<path fill-rule="evenodd" clip-rule="evenodd" d="M521 31.5H1V30.5H521V31.5Z" fill="#20202E"/>
<path fill-rule="evenodd" clip-rule="evenodd" d="M521 41.5H1V40.5H521V41.5Z" fill="#20202E"/>
<path fill-rule="evenodd" clip-rule="evenodd" d="M521 51.5H1V50.5H521V51.5Z" fill="#20202E"/>
<path fill-rule="evenodd" clip-rule="evenodd" d="M521 61.5H1V60.5H521V61.5Z" fill="#20202E"/>
<path fill-rule="evenodd" clip-rule="evenodd" d="M521 71.5H1V70.5H521V71.5Z" fill="#20202E"/>
<path fill-rule="evenodd" clip-rule="evenodd" d="M521 81.5H1V80.5H521V81.5Z" fill="#20202E"/>
<path fill-rule="evenodd" clip-rule="evenodd" d="M521 91.5H1V90.5H521V91.5Z" fill="#20202E"/>
<path fill-rule="evenodd" clip-rule="evenodd" d="M521 101.5H1V100.5H521V101.5Z" fill="#20202E"/>
<path fill-rule="evenodd" clip-rule="evenodd" d="M521 111.5H1V110.5H521V111.5Z" fill="#20202E"/>
<path fill-rule="evenodd" clip-rule="evenodd" d="M521 121.5H1V120.5H521V121.5Z" fill="#20202E"/>
<path fill-rule="evenodd" clip-rule="evenodd" d="M521 131.5H1V130.5H521V131.5Z" fill="#20202E"/>
<path fill-rule="evenodd" clip-rule="evenodd" d="M521 141.5H1V140.5H521V141.5Z" fill="#20202E"/>
<path fill-rule="evenodd" clip-rule="evenodd" d="M521 151.5H1V150.5H521V151.5Z" fill="#20202E"/>
<path fill-rule="evenodd" clip-rule="evenodd" d="M521 161.5H1V160.5H521V161.5Z" fill="#20202E"/>
<path fill-rule="evenodd" clip-rule="evenodd" d="M521 171.5H1V170.5H521V171.5Z" fill="#20202E"/>
<path fill-rule="evenodd" clip-rule="evenodd" d="M521 181.5H1V180.5H521V181.5Z" fill="#20202E"/>
<path fill-rule="evenodd" clip-rule="evenodd" d="M521 191.5H1V190.5H521V191.5Z" fill="#20202E"/>
<path fill-rule="evenodd" clip-rule="evenodd" d="M521 201.5H1V200.5H521V201.5Z" fill="#20202E"/>
<path fill-rule="evenodd" clip-rule="evenodd" d="M521 211.5H1V210.5H521V211.5Z" fill="#20202E"/>
<path fill-rule="evenodd" clip-rule="evenodd" d="M521 221.5H1V220.5H521V221.5Z" fill="#20202E"/>
<path fill-rule="evenodd" clip-rule="evenodd" d="M521 231.5H1V230.5H521V231.5Z" fill="#20202E"/>
<path fill-rule="evenodd" clip-rule="evenodd" d="M521 241.5H1V240.5H521V241.5Z" fill="#20202E"/>
<path fill-rule="evenodd" clip-rule="evenodd" d="M521 251.5H1V250.5H521V251.5Z" fill="#20202E"/>
<path fill-rule="evenodd" clip-rule="evenodd" d="M0.5 251L0.5 1L1.5 1L1.5 251L0.5 251Z" fill="#20202E"/>
<path fill-rule="evenodd" clip-rule="evenodd" d="M10.5 251L10.5 1L11.5 1L11.5 251L10.5 251Z" fill="#20202E"/>
<path fill-rule="evenodd" clip-rule="evenodd" d="M20.5 251L20.5 1L21.5 1L21.5 251L20.5 251Z" fill="#20202E"/>
<path fill-rule="evenodd" clip-rule="evenodd" d="M30.5 251L30.5 1L31.5 1L31.5 251L30.5 251Z" fill="#20202E"/>
<path fill-rule="evenodd" clip-rule="evenodd" d="M40.5 251L40.5 1L41.5 1L41.5 251L40.5 251Z" fill="#20202E"/>
<path fill-rule="evenodd" clip-rule="evenodd" d="M50.5 251L50.5 1L51.5 1L51.5 251L50.5 251Z" fill="#20202E"/>
<path fill-rule="evenodd" clip-rule="evenodd" d="M60.5 251L60.5 1L61.5 1L61.5 251L60.5 251Z" fill="#20202E"/>
<path fill-rule="evenodd" clip-rule="evenodd" d="M70.5 251L70.5 1L71.5 1L71.5 251L70.5 251Z" fill="#20202E"/>
<path fill-rule="evenodd" clip-rule="evenodd" d="M80.5 251L80.5 1L81.5 1L81.5 251L80.5 251Z" fill="#20202E"/>
<path fill-rule="evenodd" clip-rule="evenodd" d="M90.5 251L90.5 1L91.5 1L91.5 251L90.5 251Z" fill="#20202E"/>
<path fill-rule="evenodd" clip-rule="evenodd" d="M100.5 251L100.5 1L101.5 1L101.5 251L100.5 251Z" fill="#20202E"/>
<path fill-rule="evenodd" clip-rule="evenodd" d="M110.5 251L110.5 1L111.5 1L111.5 251L110.5 251Z" fill="#20202E"/>
<path fill-rule="evenodd" clip-rule="evenodd" d="M120.5 251L120.5 1L121.5 1L121.5 251L120.5 251Z" fill="#20202E"/>
<path fill-rule="evenodd" clip-rule="evenodd" d="M130.5 251L130.5 1L131.5 1L131.5 251L130.5 251Z" fill="#20202E"/>
<path fill-rule="evenodd" clip-rule="evenodd" d="M140.5 251L140.5 1L141.5 1L141.5 251L140.5 251Z" fill="#20202E"/>
<path fill-rule="evenodd" clip-rule="evenodd" d="M150.5 251L150.5 1L151.5 1L151.5 251L150.5 251Z" fill="#20202E"/>
<path fill-rule="evenodd" clip-rule="evenodd" d="M160.5 251L160.5 1L161.5 1L161.5 251L160.5 251Z" fill="#20202E"/>
<path fill-rule="evenodd" clip-rule="evenodd" d="M170.5 251L170.5 1L171.5 1L171.5 251L170.5 251Z" fill="#20202E"/>
<path fill-rule="evenodd" clip-rule="evenodd" d="M180.5 251L180.5 1L181.5 1L181.5 251L180.5 251Z" fill="#20202E"/>
<path fill-rule="evenodd" clip-rule="evenodd" d="M190.5 251L190.5 1L191.5 1L191.5 251L190.5 251Z" fill="#20202E"/>
<path fill-rule="evenodd" clip-rule="evenodd" d="M200.5 251L200.5 1L201.5 1L201.5 251L200.5 251Z" fill="#20202E"/>
<path fill-rule="evenodd" clip-rule="evenodd" d="M210.5 251L210.5 1L211.5 1L211.5 251L210.5 251Z" fill="#20202E"/>
<path fill-rule="evenodd" clip-rule="evenodd" d="M220.5 251L220.5 1L221.5 1L221.5 251L220.5 251Z" fill="#20202E"/>
<path fill-rule="evenodd" clip-rule="evenodd" d="M230.5 251L230.5 1L231.5 1L231.5 251L230.5 251Z" fill="#20202E"/>
<path fill-rule="evenodd" clip-rule="evenodd" d="M240.5 251L240.5 1L241.5 1L241.5 251L240.5 251Z" fill="#20202E"/>
<path fill-rule="evenodd" clip-rule="evenodd" d="M250.5 251L250.5 1L251.5 1L251.5 251L250.5 251Z" fill="#20202E"/>
<path fill-rule="evenodd" clip-rule="evenodd" d="M260.5 251L260.5 1L261.5 1L261.5 251L260.5 251Z" fill="#20202E"/>
<path fill-rule="evenodd" clip-rule="evenodd" d="M270.5 251L270.5 1L271.5 1L271.5 251L270.5 251Z" fill="#20202E"/>
<path fill-rule="evenodd" clip-rule="evenodd" d="M280.5 251L280.5 1L281.5 1L281.5 251L280.5 251Z" fill="#20202E"/>
<path fill-rule="evenodd" clip-rule="evenodd" d="M290.5 251L290.5 1L291.5 1L291.5 251L290.5 251Z" fill="#20202E"/>
<path fill-rule="evenodd" clip-rule="evenodd" d="M300.5 251L300.5 1L301.5 1L301.5 251L300.5 251Z" fill="#20202E"/>
<path fill-rule="evenodd" clip-rule="evenodd" d="M310.5 251L310.5 1L311.5 1L311.5 251L310.5 251Z" fill="#20202E"/>
<path fill-rule="evenodd" clip-rule="evenodd" d="M320.5 251L320.5 1L321.5 1L321.5 251L320.5 251Z" fill="#20202E"/>
<path fill-rule="evenodd" clip-rule="evenodd" d="M330.5 251L330.5 1L331.5 1L331.5 251L330.5 251Z" fill="#20202E"/>
<path fill-rule="evenodd" clip-rule="evenodd" d="M340.5 251L340.5 1L341.5 1L341.5 251L340.5 251Z" fill="#20202E"/>
<path fill-rule="evenodd" clip-rule="evenodd" d="M350.5 251L350.5 1L351.5 1L351.5 251L350.5 251Z" fill="#20202E"/>
<path fill-rule="evenodd" clip-rule="evenodd" d="M360.5 251L360.5 1L361.5 1L361.5 251L360.5 251Z" fill="#20202E"/>
<path fill-rule="evenodd" clip-rule="evenodd" d="M370.5 251L370.5 1L371.5 1L371.5 251L370.5 251Z" fill="#20202E"/>
<path fill-rule="evenodd" clip-rule="evenodd" d="M380.5 251L380.5 1L381.5 1L381.5 251L380.5 251Z" fill="#20202E"/>
<path fill-rule="evenodd" clip-rule="evenodd" d="M390.5 251L390.5 1L391.5 1L391.5 251L390.5 251Z" fill="#20202E"/>
<path fill-rule="evenodd" clip-rule="evenodd" d="M400.5 251L400.5 1L401.5 1L401.5 251L400.5 251Z" fill="#20202E"/>
<path fill-rule="evenodd" clip-rule="evenodd" d="M410.5 251L410.5 1L411.5 1L411.5 251L410.5 251Z" fill="#20202E"/>
<path fill-rule="evenodd" clip-rule="evenodd" d="M420.5 251L420.5 1L421.5 1L421.5 251L420.5 251Z" fill="#20202E"/>
<path fill-rule="evenodd" clip-rule="evenodd" d="M430.5 251L430.5 1L431.5 1L431.5 251L430.5 251Z" fill="#20202E"/>
<path fill-rule="evenodd" clip-rule="evenodd" d="M440.5 251L440.5 1L441.5 1L441.5 251L440.5 251Z" fill="#20202E"/>
<path fill-rule="evenodd" clip-rule="evenodd" d="M450.5 251L450.5 1L451.5 1L451.5 251L450.5 251Z" fill="#20202E"/>
<path fill-rule="evenodd" clip-rule="evenodd" d="M460.5 251L460.5 1L461.5 1L461.5 251L460.5 251Z" fill="#20202E"/>
<path fill-rule="evenodd" clip-rule="evenodd" d="M470.5 251L470.5 1L471.5 1L471.5 251L470.5 251Z" fill="#20202E"/>
<path fill-rule="evenodd" clip-rule="evenodd" d="M480.5 251L480.5 1L481.5 1L481.5 251L480.5 251Z" fill="#20202E"/>
<path fill-rule="evenodd" clip-rule="evenodd" d="M490.5 251L490.5 1L491.5 1L491.5 251L490.5 251Z" fill="#20202E"/>
<path fill-rule="evenodd" clip-rule="evenodd" d="M500.5 251L500.5 1L501.5 1L501.5 251L500.5 251Z" fill="#20202E"/>
<path fill-rule="evenodd" clip-rule="evenodd" d="M510.5 251L510.5 1L511.5 1L511.5 251L510.5 251Z" fill="#20202E"/>
<path fill-rule="evenodd" clip-rule="evenodd" d="M520.5 251L520.5 1L521.5 1L521.5 251L520.5 251Z" fill="#20202E"/>
<path fill-rule="evenodd" clip-rule="evenodd" d="M229.971 37.2591C245.908 36.6389 263.205 36 271 36H402.5C405.039 36 408.657 36.3757 412.079 38.3311C416.151 40.6584 419.5 45.1047 419.5 51C419.5 55.0302 417.95 59.3383 414.452 62.5676C410.945 65.8048 406.547 67 402.5 67H393.728C393.352 68.8311 392.6 70.751 391.262 72.5783C389.978 74.3341 388.512 75.4908 387.7 76.1C385.804 77.5216 382.885 79.103 380.335 80.4632C378.898 81.2295 377.137 82.1526 375.208 83.1633C373.444 84.0883 371.539 85.0868 369.615 86.1055C368.393 86.752 367.095 87.556 365.664 88.4425C359.57 92.2174 351.059 97.4889 335.773 98.4751C332.42 98.6914 329.859 98.8145 327.789 98.9139C324.379 99.0777 322.304 99.1774 320.223 99.5242C318.156 99.8688 316.394 100.428 312.776 102.904C312.562 103.05 311.216 104.388 310.684 109.444C310.243 113.634 310.606 117.876 310.884 121.125C310.91 121.427 310.935 121.72 310.959 122.003C311.085 123.515 311.203 125.198 311.159 126.766C311.114 128.383 310.888 130.813 309.687 133.387C308.433 136.074 306.66 137.746 305.652 138.617C305.216 138.995 304.766 139.35 304.506 139.556L304.458 139.594C304.149 139.838 303.925 140.016 303.682 140.219C301.979 141.638 299.18 143.291 297.033 144.529C294.484 145.998 291.379 147.704 288.226 149.392C281.983 152.734 275.107 156.243 271.527 157.895C269.923 158.635 268.125 159.445 266.41 160.029C264.741 160.598 262.058 161.353 258.901 161.079C251.786 160.462 247.886 155.203 246.558 153.412C246.501 153.335 246.448 153.264 246.4 153.2C245.366 151.821 244.068 149.443 243.096 147.648C241.885 145.414 240.351 142.493 238.616 139.141C235.14 132.424 230.757 123.783 226.345 115.022C219.541 101.511 212.613 87.6016 208.778 79.9033C208.774 79.8955 208.77 79.8877 208.766 79.8799C207.464 81.2094 205.987 82.7947 204.475 84.4722C201.788 87.4526 199.197 90.4903 197.505 92.5715C197.707 92.942 197.925 93.3389 198.158 93.7614C198.929 95.1606 199.801 96.7235 200.752 98.4276C201.401 99.5912 202.087 100.821 202.802 102.109C206.173 108.175 210.207 115.542 212.466 120.625C214.711 125.676 216.247 130.332 216.907 134.383C217.233 136.389 217.419 138.687 217.145 141.028C216.899 143.129 216.094 146.876 212.985 149.984C211.572 151.397 210.05 152.264 209.426 152.611C208.585 153.079 207.721 153.488 206.972 153.823C205.468 154.495 203.729 155.174 202.138 155.779C201.082 156.18 200.089 156.551 199.166 156.896C196.971 157.716 195.175 158.387 193.874 158.965C190.924 160.276 186.477 161.814 181.522 160.713C176.036 159.494 173.068 155.757 171.9 154.199C170.673 152.563 169.513 150.547 168.579 148.865C167.776 149.274 166.876 149.727 165.867 150.232C165.59 150.37 165.358 150.493 165.164 150.599C165.122 150.799 165.074 151.034 165.017 151.312C164.715 152.797 164.273 154.958 163.454 157.578C162.821 159.603 162.238 161.249 161.805 162.471C161.757 162.607 161.711 162.738 161.666 162.864C161.447 163.483 161.303 163.906 161.207 164.199C161.228 164.26 161.251 164.326 161.278 164.398C161.993 166.365 164.617 171.897 168.314 179.357C170.492 183.751 172.85 188.434 175.11 192.924C176.546 195.778 177.944 198.553 179.23 201.126C180.646 203.95 182.398 207.997 182.558 212.375C182.646 214.79 182.27 217.789 180.654 220.752C178.987 223.809 176.495 225.919 173.867 227.233C170.041 229.146 165.334 230.871 159.295 232.884C159.071 232.959 158.828 233.041 158.572 233.127C157.492 233.492 156.178 233.935 155.088 234.235C153.762 234.599 151.04 235.284 147.845 234.805C144.073 234.239 141.332 232.362 139.48 230.537C138.779 229.845 138.149 229.102 137.601 228.393C137.564 228.398 137.526 228.403 137.488 228.407C136.496 228.531 134.715 228.746 132.863 228.621C130.717 228.476 127.352 227.811 124.347 225.107C121.693 222.718 120.664 219.885 120.271 218.722C119.918 217.676 119.615 216.447 119.429 215.694C119.403 215.59 119.379 215.495 119.358 215.41C118.687 212.726 118.624 209.627 118.709 206.84C118.802 203.758 119.128 199.917 119.72 195.241C120.907 185.876 123.238 172.613 127.286 154.397C131.528 135.305 138.633 116.803 145.871 101.74C152.985 86.9356 160.701 74.4697 166.602 67.9486C169.626 64.6069 172.52 62.1984 174.934 60.3758C175.137 60.2233 175.337 60.0738 175.534 59.9281C174.846 58.2846 174.281 56.4504 174.075 54.5116C173.843 52.3338 173.997 49.4219 175.495 46.4665C177.035 43.4276 179.397 41.5231 181.526 40.4159C184.981 38.6194 188.68 38.5201 190.088 38.4823L190.137 38.4809C191.196 38.4523 192.747 38.4711 193.998 38.4863C194.596 38.4936 195.126 38.5 195.5 38.5C198.346 38.5 208.902 38.0855 221.709 37.5825C224.381 37.4776 227.152 37.3688 229.971 37.2591ZM177.944 64.6325C177.941 64.6313 177.918 64.5848 177.884 64.4965C177.93 64.5896 177.947 64.6337 177.944 64.6325ZM179.568 56.9794C179.628 56.9196 179.663 56.8894 179.666 56.8893C179.669 56.8892 179.639 56.9191 179.568 56.9794ZM164.992 142.294C164.975 142.268 164.967 142.254 164.967 142.254C164.967 142.253 164.976 142.266 164.992 142.294ZM194.899 95.9382C194.895 95.9451 194.892 95.949 194.892 95.9497C194.891 95.9506 194.894 95.9468 194.899 95.9382ZM214.184 75.2593C214.183 75.2612 214.153 75.2803 214.095 75.3111C214.155 75.2729 214.185 75.2575 214.184 75.2593ZM402.604 60.0045C402.603 60.006 402.569 60.0059 402.505 60C402.574 60.0001 402.606 60.0031 402.604 60.0045ZM367.696 60H271C263.795 60 247.092 60.6111 230.904 61.2409C229.341 61.3018 227.779 61.3629 226.232 61.4237C226.788 62.325 227.285 63.2365 227.733 64.1325C228.258 65.1821 229.139 66.9511 230.292 69.2666C234.138 76.9859 241.008 90.7779 247.78 104.227C252.181 112.966 256.516 121.513 259.93 128.109C261.343 130.839 262.582 133.202 263.592 135.091C266.915 133.467 271.985 130.864 276.899 128.233C279.933 126.609 282.797 125.033 285.045 123.737C285.82 123.29 286.439 122.923 286.922 122.631C286.634 119.345 286.155 113.207 286.816 106.931C287.534 100.112 289.938 89.4498 299.224 83.0963C305.106 79.0718 310.094 76.8812 316.277 75.8508C319.746 75.2726 323.971 75.0629 328.491 74.8385C330.364 74.7456 332.287 74.6501 334.227 74.5249C343.158 73.9487 346.3 72.0348 351.564 68.828C353.446 67.6814 355.599 66.3696 358.385 64.8945C360.571 63.7373 362.479 62.738 364.194 61.8398C365.454 61.1794 366.61 60.5736 367.696 60ZM258.566 137.344C258.567 137.342 258.595 137.333 258.647 137.319C258.592 137.338 258.566 137.345 258.566 137.344ZM174.086 99.4895C171.984 103.207 169.756 107.446 167.504 112.134C165.489 116.326 163.498 120.788 161.595 125.443C161.78 125.343 161.945 125.253 162.092 125.172C162.588 124.899 162.906 124.717 163.197 124.549L163.281 124.501C163.507 124.371 163.857 124.169 164.278 123.948C164.479 123.827 164.932 123.556 165.472 123.281C166.663 122.673 169.042 121.624 172.188 121.624C179.708 121.624 183.987 127.066 185.99 130.671C186.649 131.858 187.269 133.001 187.834 134.044C187.909 134.182 187.983 134.318 188.055 134.452C188.207 134.733 188.354 135.004 188.496 135.267C189.515 134.878 190.544 134.494 191.504 134.135C191.669 134.074 191.831 134.013 191.992 133.953C191.613 132.916 191.135 131.724 190.534 130.373C188.793 126.456 185.327 120.073 181.823 113.764C181.159 112.569 180.491 111.373 179.846 110.215C178.863 108.453 177.93 106.782 177.139 105.346C176.017 103.311 174.779 101.04 174.086 99.4895ZM191.1 139.799C191.099 139.798 191.094 139.792 191.085 139.779C191.161 139.869 191.166 139.887 191.1 139.799ZM164.08 124.067C164.08 124.066 164.094 124.058 164.118 124.044C164.091 124.06 164.079 124.067 164.08 124.067ZM145.256 186.867C144.497 191.299 143.933 195.075 143.53 198.259C143.234 200.595 143.029 202.57 142.895 204.22C142.996 204.234 143.097 204.249 143.2 204.265C147.309 204.897 150.672 206.82 153.347 209.564C154.358 209.221 155.282 208.9 156.129 208.599C155.364 207.075 154.562 205.482 153.742 203.853C151.446 199.292 149.006 194.445 146.811 190.016C146.289 188.963 145.769 187.909 145.256 186.867Z" fill="white"/>
<path fill-rule="evenodd" clip-rule="evenodd" d="M230.341 46.7519C246.377 46.1279 263.439 45.5 271 45.5H402.5C404.217 45.5 405.96 45.7762 407.366 46.5794C408.907 47.4601 410 48.9801 410 51C410 52.6313 409.381 54.3205 408.009 55.587C406.635 56.8552 404.729 57.5 402.5 57.5H387C385.662 57.5 384.885 57.5823 384.443 57.6845C384.44 57.7577 384.438 57.8465 384.438 57.9531C384.438 58.225 384.449 58.5283 384.464 58.9244L384.467 59.0231C384.483 59.4501 384.5 59.9505 384.5 60.5C384.5 61.2284 384.517 61.8196 384.533 62.3565C384.538 62.5263 384.542 62.6908 384.546 62.8524C384.562 63.466 384.572 64.1616 384.471 64.8176C384.356 65.5659 384.098 66.2827 383.596 66.9685C383.143 67.5878 382.565 68.0762 382 68.5C380.814 69.3899 378.622 70.61 375.864 72.0809C374.415 72.854 372.726 73.7387 370.852 74.7211C369.105 75.6363 367.197 76.6362 365.17 77.7095C363.427 78.6324 361.792 79.6346 360.137 80.6493C354.134 84.3301 347.863 88.1753 335.161 88.9948C332.447 89.1699 330.129 89.2836 328.096 89.3832C324.149 89.5768 321.277 89.7176 318.661 90.1535C314.965 90.7695 311.926 91.9746 307.412 95.0633C303.607 97.6667 301.842 102.695 301.237 108.449C300.695 113.597 301.139 118.713 301.416 121.906C301.443 122.221 301.469 122.517 301.492 122.792C301.617 124.295 301.691 125.511 301.663 126.5C301.635 127.499 301.502 128.462 301.078 129.37C300.644 130.301 300.015 130.933 299.44 131.43C299.165 131.668 298.861 131.909 298.575 132.135L298.563 132.145C298.261 132.384 297.948 132.631 297.601 132.921C296.652 133.711 294.634 134.946 292.288 136.299C289.858 137.699 286.849 139.354 283.743 141.016C277.544 144.335 270.866 147.738 267.548 149.269C265.927 150.017 264.538 150.631 263.346 151.037C262.163 151.44 260.949 151.721 259.722 151.615C257.037 151.382 255.428 149.404 254 147.5C253.488 146.817 252.568 145.19 251.449 143.124C250.281 140.967 248.779 138.107 247.054 134.774C243.602 128.105 239.237 119.501 234.83 110.749C228.039 97.2625 221.133 83.3993 217.294 75.6925C216.151 73.3969 215.279 71.6475 214.764 70.6171C213.719 68.5261 212.826 67.4532 212.164 66.9311C211.589 66.4785 211.202 66.4399 210.864 66.4809C210.398 66.5373 209.767 66.7926 208.872 67.3753C208.23 67.7932 207.623 68.2593 206.935 68.7874C206.641 69.013 206.333 69.2498 206 69.4991C204.229 70.8275 200.89 74.2613 197.42 78.1106C194.007 81.8956 190.674 85.8472 188.974 88.0339C188.079 89.1848 187.48 89.9562 187.066 90.5636C186.647 91.1774 186.567 91.4151 186.551 91.4804C186.551 91.4806 186.55 91.4809 186.55 91.4812C186.541 91.4894 186.461 91.5602 187.298 93.5143C187.613 94.2488 188.509 95.9354 189.838 98.347C190.617 99.7607 191.513 101.366 192.476 103.093C193.124 104.255 193.803 105.472 194.498 106.722C197.922 112.885 201.731 119.862 203.785 124.484C205.836 129.099 207.047 132.938 207.53 135.91C207.772 137.391 207.847 138.748 207.71 139.923C207.578 141.047 207.213 142.322 206.268 143.267C205.825 143.71 205.261 144.057 204.805 144.311C204.303 144.59 203.718 144.872 203.098 145.149C201.857 145.703 200.332 146.302 198.763 146.899C197.896 147.228 197.018 147.556 196.155 147.878C193.819 148.751 191.598 149.58 190.016 150.284C187.62 151.348 185.506 151.867 183.583 151.44C181.549 150.988 180.337 149.615 179.5 148.499C178.631 147.34 177.679 145.694 176.686 143.894C176.219 143.047 175.759 142.196 175.28 141.312C174.671 140.186 174.034 139.007 173.315 137.713C172.784 136.757 172.384 136.343 172.179 136.181C172.167 136.171 172.156 136.163 172.146 136.156C172.124 136.166 172.098 136.179 172.067 136.194C171.971 136.244 171.868 136.304 171.713 136.397C171.702 136.404 171.69 136.411 171.676 136.42C171.55 136.496 171.331 136.629 171.118 136.735C170.893 136.848 170.747 136.933 170.495 137.079C170.224 137.236 169.83 137.465 169.08 137.877C167.791 138.586 165.635 139.727 161.618 141.735C157.903 143.593 157.022 144.835 156.523 146.142C156.206 146.97 156.011 147.93 155.708 149.419C155.416 150.854 155.052 152.616 154.387 154.745C153.809 156.591 153.283 158.079 152.85 159.301C152.802 159.437 152.755 159.569 152.709 159.699C152.241 161.025 151.933 161.935 151.751 162.737C151.447 164.085 151.465 165.21 152.35 167.645C153.291 170.232 156.212 176.332 159.803 183.576C161.987 187.984 164.377 192.731 166.651 197.249C168.085 200.097 169.473 202.855 170.735 205.378C172.023 207.945 172.982 210.471 173.064 212.721C173.107 213.892 172.917 215.098 172.314 216.204C171.7 217.33 170.76 218.165 169.618 218.736C166.446 220.322 162.299 221.869 156.291 223.872C155.978 223.976 155.673 224.079 155.377 224.178C154.317 224.535 153.369 224.855 152.569 225.075C151.551 225.355 150.415 225.584 149.254 225.41C147.974 225.218 146.982 224.592 146.151 223.772C145.387 223.019 144.669 222.01 143.92 220.887C142.727 219.098 141.793 218.719 140.995 218.596C140.491 218.518 139.892 218.527 139.09 218.611C138.587 218.664 138.147 218.727 137.652 218.798C137.259 218.854 136.831 218.916 136.31 218.981C135.312 219.105 134.347 219.2 133.504 219.143C132.599 219.082 131.576 218.832 130.703 218.046C129.902 217.325 129.515 216.401 129.272 215.683C129.058 215.047 128.863 214.263 128.66 213.448C128.632 213.335 128.604 213.221 128.575 213.106C128.237 211.755 128.125 209.749 128.205 207.127C128.286 204.444 128.576 200.923 129.145 196.436C130.283 187.458 132.55 174.503 136.56 156.458C140.61 138.23 147.434 120.422 154.434 105.854C161.409 91.3404 168.657 79.8371 173.647 74.3226C177.24 70.3509 180.88 67.7532 183.389 65.9622C184.285 65.3225 185.038 64.7858 185.592 64.326C186.75 63.3653 186.971 62.8699 187.022 62.5407C187.082 62.1479 187.01 61.2479 185.845 59.2676C184.568 57.096 183.699 55.1734 183.522 53.5067C183.428 52.6169 183.514 51.6593 183.969 50.7614C184.433 49.8461 185.157 49.2359 185.909 48.8445C187.256 48.1442 188.964 48.0161 190.394 47.9775C191.3 47.953 192.374 47.9672 193.469 47.9818C194.15 47.9908 194.839 48 195.5 48C198.553 48 209.391 47.5741 222.181 47.0715C224.835 46.9672 227.572 46.8596 230.341 46.7519ZM222.43 52.0656C209.649 52.5681 198.661 53 195.5 53C194.666 53 193.916 52.9893 193.224 52.9795C192.236 52.9655 191.364 52.9531 190.529 52.9756C189.497 53.0035 188.876 53.0882 188.525 53.1751C188.644 53.7737 189.066 54.8805 190.155 56.7324C191.49 59.0021 192.293 61.1647 191.963 63.3033C191.623 65.5055 190.188 67.0103 188.784 68.1747C187.858 68.9421 186.861 69.652 185.789 70.4146C183.364 72.1396 180.56 74.1348 177.354 77.6774C172.844 82.662 165.842 93.6587 158.941 108.02C152.066 122.327 145.39 139.77 141.441 157.542C137.451 175.497 135.218 188.292 134.105 197.064C133.549 201.452 133.277 204.806 133.202 207.279C133.125 209.813 133.263 211.245 133.426 211.894C133.454 212.008 133.481 212.117 133.508 212.221C133.725 213.094 133.865 213.655 134.01 214.083C134.019 214.111 134.028 214.136 134.036 214.16C134.365 214.161 134.872 214.122 135.69 214.019C136.011 213.979 136.386 213.926 136.777 213.872C137.385 213.786 138.03 213.695 138.567 213.639C139.546 213.536 140.635 213.482 141.755 213.654C144.208 214.031 146.273 215.402 148.08 218.113C148.831 219.24 149.301 219.856 149.662 220.212C149.824 220.372 149.917 220.43 149.951 220.449C149.973 220.461 149.978 220.463 149.996 220.465C150.086 220.479 150.387 220.489 151.244 220.254C151.894 220.075 152.657 219.818 153.68 219.474C153.997 219.367 154.338 219.252 154.71 219.128C160.702 217.131 164.555 215.678 167.382 214.264C167.741 214.085 167.864 213.92 167.924 213.811C167.994 213.682 168.086 213.419 168.068 212.903C168.027 211.776 167.486 210.052 166.266 207.62L166.264 207.617C165.016 205.12 163.633 202.373 162.2 199.527C159.919 194.994 157.511 190.212 155.323 185.797C151.789 178.666 148.71 172.267 147.651 169.353C146.536 166.288 146.304 164.163 146.874 161.636C147.131 160.5 147.541 159.316 147.995 158.033C148.041 157.902 148.088 157.769 148.136 157.633C148.569 156.41 149.066 155.006 149.614 153.253C150.199 151.383 150.522 149.831 150.808 148.423C150.824 148.348 150.839 148.273 150.854 148.198C151.115 146.912 151.384 145.581 151.853 144.356C152.978 141.413 155.097 139.406 159.382 137.263C163.366 135.271 165.459 134.162 166.671 133.496C167.131 133.243 167.51 133.026 167.835 132.84C168.254 132.601 168.583 132.413 168.882 132.263L168.881 132.264C168.881 132.264 168.897 132.255 168.938 132.231C168.989 132.202 169.042 132.169 169.129 132.117C169.285 132.023 169.522 131.88 169.793 131.741C170.332 131.466 171.161 131.124 172.188 131.124C174.497 131.124 176.279 132.753 177.686 135.285C178.38 136.535 179.078 137.823 179.722 139.014C180.207 139.909 180.662 140.75 181.064 141.479C182.071 143.304 182.869 144.658 183.5 145.499C184.163 146.383 184.451 146.51 184.668 146.559C184.995 146.631 185.881 146.65 187.985 145.715C189.718 144.944 192.169 144.029 194.558 143.137C195.386 142.828 196.207 142.521 196.987 142.225C198.544 141.633 199.956 141.076 201.059 140.584C201.611 140.337 202.049 140.123 202.372 139.943C202.507 139.868 202.601 139.81 202.662 139.77C202.685 139.693 202.719 139.557 202.744 139.341C202.809 138.781 202.792 137.919 202.595 136.713C202.204 134.31 201.165 130.9 199.216 126.514C197.27 122.136 193.579 115.363 190.127 109.151C189.443 107.919 188.768 106.709 188.12 105.548C187.15 103.809 186.243 102.182 185.459 100.76C184.179 98.4377 183.138 96.4993 182.702 95.4839C182.656 95.3753 182.608 95.2651 182.559 95.1533C181.953 93.7578 181.239 92.1135 181.7 90.2677C181.934 89.333 182.416 88.5083 182.935 87.747C183.448 86.9942 184.145 86.0987 184.977 85.0278L185.027 84.9642C186.826 82.6509 190.244 78.6025 193.706 74.7625C197.11 70.9868 200.772 67.1706 203 65.4991C203.23 65.3267 203.478 65.1367 203.737 64.9374C204.483 64.3654 205.328 63.7164 206.144 63.1853C207.265 62.4555 208.665 61.7108 210.262 61.5172C211.987 61.3082 213.693 61.7697 215.259 63.0045C216.737 64.1699 218.032 65.9721 219.236 68.381C219.755 69.4182 220.63 71.1746 221.777 73.4774C225.618 81.1887 232.511 95.0269 239.296 108.5C243.701 117.248 248.055 125.832 251.494 132.476C253.214 135.799 254.7 138.627 255.846 140.743C257.042 142.951 257.763 144.183 258 144.5C259.562 146.582 259.958 146.617 260.15 146.633L260.154 146.634C260.365 146.652 260.806 146.62 261.733 146.304C262.65 145.992 263.824 145.481 265.453 144.729C268.634 143.261 275.207 139.915 281.383 136.608C284.464 134.959 287.424 133.332 289.791 131.967C292.241 130.554 293.848 129.539 294.4 129.079C294.793 128.752 295.145 128.473 295.439 128.241L295.459 128.224C295.77 127.979 295.988 127.805 296.17 127.648C296.517 127.348 296.544 127.262 296.547 127.255C296.561 127.225 296.646 127.033 296.665 126.36C296.685 125.676 296.634 124.705 296.509 123.208C296.487 122.942 296.461 122.65 296.434 122.334C296.157 119.165 295.669 113.582 296.264 107.926C296.908 101.805 298.894 94.8333 304.589 90.9367C309.574 87.5254 313.286 85.9805 317.839 85.2215C320.744 84.7374 324.066 84.5735 328.243 84.3674C330.232 84.2693 332.415 84.1616 334.839 84.0052C346.22 83.271 351.368 80.1255 357.203 76.5605C358.955 75.4903 360.768 74.3824 362.831 73.2905C364.912 72.1885 366.821 71.1885 368.556 70.279C370.403 69.3112 372.055 68.4459 373.511 67.6691C376.378 66.14 378.187 65.1101 379 64.5C379.331 64.2521 379.474 64.1136 379.53 64.0521C379.554 63.8949 379.564 63.6206 379.548 62.9758C379.545 62.843 379.54 62.6979 379.536 62.5409C379.52 61.9961 379.5 61.3082 379.5 60.5C379.5 60.0495 379.486 59.6281 379.471 59.2073L379.466 59.091C379.453 58.7206 379.438 58.3231 379.438 57.9531C379.438 57.2032 379.48 56.0591 380.08 55.0097C380.766 53.8093 381.884 53.1953 383.034 52.8838C384.115 52.5912 385.448 52.5 387 52.5H402.5C403.772 52.5 404.366 52.1448 404.617 51.913C404.87 51.6795 405 51.3687 405 51C405 50.9992 405 50.9984 405 50.9976C404.978 50.9793 404.941 50.9529 404.885 50.9206C404.541 50.7238 403.784 50.5 402.5 50.5H271C263.562 50.5 246.624 51.1221 230.535 51.7481C227.792 51.8548 225.073 51.9617 222.43 52.0656Z" fill="black"/>
</svg>
