<svg width="522" height="252" viewBox="0 0 522 252" fill="none" xmlns="http://www.w3.org/2000/svg">
<path fill-rule="evenodd" clip-rule="evenodd" d="M521 1.5H1V0.5H521V1.5Z" fill="#20202E"/>
<path fill-rule="evenodd" clip-rule="evenodd" d="M521 11.5H1V10.5H521V11.5Z" fill="#20202E"/>
<path fill-rule="evenodd" clip-rule="evenodd" d="M521 21.5H1V20.5H521V21.5Z" fill="#20202E"/>
<path fill-rule="evenodd" clip-rule="evenodd" d="M521 31.5H1V30.5H521V31.5Z" fill="#20202E"/>
<path fill-rule="evenodd" clip-rule="evenodd" d="M521 41.5H1V40.5H521V41.5Z" fill="#20202E"/>
<path fill-rule="evenodd" clip-rule="evenodd" d="M521 51.5H1V50.5H521V51.5Z" fill="#20202E"/>
<path fill-rule="evenodd" clip-rule="evenodd" d="M521 61.5H1V60.5H521V61.5Z" fill="#20202E"/>
<path fill-rule="evenodd" clip-rule="evenodd" d="M521 71.5H1V70.5H521V71.5Z" fill="#20202E"/>
<path fill-rule="evenodd" clip-rule="evenodd" d="M521 81.5H1V80.5H521V81.5Z" fill="#20202E"/>
<path fill-rule="evenodd" clip-rule="evenodd" d="M521 91.5H1V90.5H521V91.5Z" fill="#20202E"/>
<path fill-rule="evenodd" clip-rule="evenodd" d="M521 101.5H1V100.5H521V101.5Z" fill="#20202E"/>
<path fill-rule="evenodd" clip-rule="evenodd" d="M521 111.5H1V110.5H521V111.5Z" fill="#20202E"/>
<path fill-rule="evenodd" clip-rule="evenodd" d="M521 121.5H1V120.5H521V121.5Z" fill="#20202E"/>
<path fill-rule="evenodd" clip-rule="evenodd" d="M521 131.5H1V130.5H521V131.5Z" fill="#20202E"/>
<path fill-rule="evenodd" clip-rule="evenodd" d="M521 141.5H1V140.5H521V141.5Z" fill="#20202E"/>
<path fill-rule="evenodd" clip-rule="evenodd" d="M521 151.5H1V150.5H521V151.5Z" fill="#20202E"/>
<path fill-rule="evenodd" clip-rule="evenodd" d="M521 161.5H1V160.5H521V161.5Z" fill="#20202E"/>
<path fill-rule="evenodd" clip-rule="evenodd" d="M521 171.5H1V170.5H521V171.5Z" fill="#20202E"/>
<path fill-rule="evenodd" clip-rule="evenodd" d="M521 181.5H1V180.5H521V181.5Z" fill="#20202E"/>
<path fill-rule="evenodd" clip-rule="evenodd" d="M521 191.5H1V190.5H521V191.5Z" fill="#20202E"/>
<path fill-rule="evenodd" clip-rule="evenodd" d="M521 201.5H1V200.5H521V201.5Z" fill="#20202E"/>
<path fill-rule="evenodd" clip-rule="evenodd" d="M521 211.5H1V210.5H521V211.5Z" fill="#20202E"/>
<path fill-rule="evenodd" clip-rule="evenodd" d="M521 221.5H1V220.5H521V221.5Z" fill="#20202E"/>
<path fill-rule="evenodd" clip-rule="evenodd" d="M521 231.5H1V230.5H521V231.5Z" fill="#20202E"/>
<path fill-rule="evenodd" clip-rule="evenodd" d="M521 241.5H1V240.5H521V241.5Z" fill="#20202E"/>
<path fill-rule="evenodd" clip-rule="evenodd" d="M521 251.5H1V250.5H521V251.5Z" fill="#20202E"/>
<path fill-rule="evenodd" clip-rule="evenodd" d="M0.5 251L0.5 1L1.5 1L1.5 251L0.5 251Z" fill="#20202E"/>
<path fill-rule="evenodd" clip-rule="evenodd" d="M10.5 251L10.5 1L11.5 1L11.5 251L10.5 251Z" fill="#20202E"/>
<path fill-rule="evenodd" clip-rule="evenodd" d="M20.5 251L20.5 1L21.5 1L21.5 251L20.5 251Z" fill="#20202E"/>
<path fill-rule="evenodd" clip-rule="evenodd" d="M30.5 251L30.5 1L31.5 1L31.5 251L30.5 251Z" fill="#20202E"/>
<path fill-rule="evenodd" clip-rule="evenodd" d="M40.5 251L40.5 1L41.5 1L41.5 251L40.5 251Z" fill="#20202E"/>
<path fill-rule="evenodd" clip-rule="evenodd" d="M50.5 251L50.5 1L51.5 1L51.5 251L50.5 251Z" fill="#20202E"/>
<path fill-rule="evenodd" clip-rule="evenodd" d="M60.5 251L60.5 1L61.5 1L61.5 251L60.5 251Z" fill="#20202E"/>
<path fill-rule="evenodd" clip-rule="evenodd" d="M70.5 251L70.5 1L71.5 1L71.5 251L70.5 251Z" fill="#20202E"/>
<path fill-rule="evenodd" clip-rule="evenodd" d="M80.5 251L80.5 1L81.5 1L81.5 251L80.5 251Z" fill="#20202E"/>
<path fill-rule="evenodd" clip-rule="evenodd" d="M90.5 251L90.5 1L91.5 1L91.5 251L90.5 251Z" fill="#20202E"/>
<path fill-rule="evenodd" clip-rule="evenodd" d="M100.5 251L100.5 1L101.5 1L101.5 251L100.5 251Z" fill="#20202E"/>
<path fill-rule="evenodd" clip-rule="evenodd" d="M110.5 251L110.5 1L111.5 1L111.5 251L110.5 251Z" fill="#20202E"/>
<path fill-rule="evenodd" clip-rule="evenodd" d="M120.5 251L120.5 1L121.5 1L121.5 251L120.5 251Z" fill="#20202E"/>
<path fill-rule="evenodd" clip-rule="evenodd" d="M130.5 251L130.5 1L131.5 1L131.5 251L130.5 251Z" fill="#20202E"/>
<path fill-rule="evenodd" clip-rule="evenodd" d="M140.5 251L140.5 1L141.5 1L141.5 251L140.5 251Z" fill="#20202E"/>
<path fill-rule="evenodd" clip-rule="evenodd" d="M150.5 251L150.5 1L151.5 1L151.5 251L150.5 251Z" fill="#20202E"/>
<path fill-rule="evenodd" clip-rule="evenodd" d="M160.5 251L160.5 1L161.5 1L161.5 251L160.5 251Z" fill="#20202E"/>
<path fill-rule="evenodd" clip-rule="evenodd" d="M170.5 251L170.5 1L171.5 1L171.5 251L170.5 251Z" fill="#20202E"/>
<path fill-rule="evenodd" clip-rule="evenodd" d="M180.5 251L180.5 1L181.5 1L181.5 251L180.5 251Z" fill="#20202E"/>
<path fill-rule="evenodd" clip-rule="evenodd" d="M190.5 251L190.5 1L191.5 1L191.5 251L190.5 251Z" fill="#20202E"/>
<path fill-rule="evenodd" clip-rule="evenodd" d="M200.5 251L200.5 1L201.5 1L201.5 251L200.5 251Z" fill="#20202E"/>
<path fill-rule="evenodd" clip-rule="evenodd" d="M210.5 251L210.5 1L211.5 1L211.5 251L210.5 251Z" fill="#20202E"/>
<path fill-rule="evenodd" clip-rule="evenodd" d="M220.5 251L220.5 1L221.5 1L221.5 251L220.5 251Z" fill="#20202E"/>
<path fill-rule="evenodd" clip-rule="evenodd" d="M230.5 251L230.5 1L231.5 1L231.5 251L230.5 251Z" fill="#20202E"/>
<path fill-rule="evenodd" clip-rule="evenodd" d="M240.5 251L240.5 1L241.5 1L241.5 251L240.5 251Z" fill="#20202E"/>
<path fill-rule="evenodd" clip-rule="evenodd" d="M250.5 251L250.5 1L251.5 1L251.5 251L250.5 251Z" fill="#20202E"/>
<path fill-rule="evenodd" clip-rule="evenodd" d="M260.5 251L260.5 1L261.5 1L261.5 251L260.5 251Z" fill="#20202E"/>
<path fill-rule="evenodd" clip-rule="evenodd" d="M270.5 251L270.5 1L271.5 1L271.5 251L270.5 251Z" fill="#20202E"/>
<path fill-rule="evenodd" clip-rule="evenodd" d="M280.5 251L280.5 1L281.5 1L281.5 251L280.5 251Z" fill="#20202E"/>
<path fill-rule="evenodd" clip-rule="evenodd" d="M290.5 251L290.5 1L291.5 1L291.5 251L290.5 251Z" fill="#20202E"/>
<path fill-rule="evenodd" clip-rule="evenodd" d="M300.5 251L300.5 1L301.5 1L301.5 251L300.5 251Z" fill="#20202E"/>
<path fill-rule="evenodd" clip-rule="evenodd" d="M310.5 251L310.5 1L311.5 1L311.5 251L310.5 251Z" fill="#20202E"/>
<path fill-rule="evenodd" clip-rule="evenodd" d="M320.5 251L320.5 1L321.5 1L321.5 251L320.5 251Z" fill="#20202E"/>
<path fill-rule="evenodd" clip-rule="evenodd" d="M330.5 251L330.5 1L331.5 1L331.5 251L330.5 251Z" fill="#20202E"/>
<path fill-rule="evenodd" clip-rule="evenodd" d="M340.5 251L340.5 1L341.5 1L341.5 251L340.5 251Z" fill="#20202E"/>
<path fill-rule="evenodd" clip-rule="evenodd" d="M350.5 251L350.5 1L351.5 1L351.5 251L350.5 251Z" fill="#20202E"/>
<path fill-rule="evenodd" clip-rule="evenodd" d="M360.5 251L360.5 1L361.5 1L361.5 251L360.5 251Z" fill="#20202E"/>
<path fill-rule="evenodd" clip-rule="evenodd" d="M370.5 251L370.5 1L371.5 1L371.5 251L370.5 251Z" fill="#20202E"/>
<path fill-rule="evenodd" clip-rule="evenodd" d="M380.5 251L380.5 1L381.5 1L381.5 251L380.5 251Z" fill="#20202E"/>
<path fill-rule="evenodd" clip-rule="evenodd" d="M390.5 251L390.5 1L391.5 1L391.5 251L390.5 251Z" fill="#20202E"/>
<path fill-rule="evenodd" clip-rule="evenodd" d="M400.5 251L400.5 1L401.5 1L401.5 251L400.5 251Z" fill="#20202E"/>
<path fill-rule="evenodd" clip-rule="evenodd" d="M410.5 251L410.5 1L411.5 1L411.5 251L410.5 251Z" fill="#20202E"/>
<path fill-rule="evenodd" clip-rule="evenodd" d="M420.5 251L420.5 1L421.5 1L421.5 251L420.5 251Z" fill="#20202E"/>
<path fill-rule="evenodd" clip-rule="evenodd" d="M430.5 251L430.5 1L431.5 1L431.5 251L430.5 251Z" fill="#20202E"/>
<path fill-rule="evenodd" clip-rule="evenodd" d="M440.5 251L440.5 1L441.5 1L441.5 251L440.5 251Z" fill="#20202E"/>
<path fill-rule="evenodd" clip-rule="evenodd" d="M450.5 251L450.5 1L451.5 1L451.5 251L450.5 251Z" fill="#20202E"/>
<path fill-rule="evenodd" clip-rule="evenodd" d="M460.5 251L460.5 1L461.5 1L461.5 251L460.5 251Z" fill="#20202E"/>
<path fill-rule="evenodd" clip-rule="evenodd" d="M470.5 251L470.5 1L471.5 1L471.5 251L470.5 251Z" fill="#20202E"/>
<path fill-rule="evenodd" clip-rule="evenodd" d="M480.5 251L480.5 1L481.5 1L481.5 251L480.5 251Z" fill="#20202E"/>
<path fill-rule="evenodd" clip-rule="evenodd" d="M490.5 251L490.5 1L491.5 1L491.5 251L490.5 251Z" fill="#20202E"/>
<path fill-rule="evenodd" clip-rule="evenodd" d="M500.5 251L500.5 1L501.5 1L501.5 251L500.5 251Z" fill="#20202E"/>
<path fill-rule="evenodd" clip-rule="evenodd" d="M510.5 251L510.5 1L511.5 1L511.5 251L510.5 251Z" fill="#20202E"/>
<path fill-rule="evenodd" clip-rule="evenodd" d="M520.5 251L520.5 1L521.5 1L521.5 251L520.5 251Z" fill="#20202E"/>
<path fill-rule="evenodd" clip-rule="evenodd" d="M120.491 57.2482C120.49 57.2479 120.506 57.2443 120.54 57.2383C120.508 57.2455 120.491 57.2485 120.491 57.2482ZM137.417 57H155.85C158.934 57.5997 163.077 58.4276 167.844 59.38C173.913 60.5926 180.992 62.007 188.182 63.4096C200.902 65.8911 214.152 68.3751 219.806 68.9404C227.467 69.7066 259.547 72.8294 277.199 74.0282C270.407 82.2133 263.445 86.1697 253.798 85.5266C249.186 85.2191 243.606 83.9629 236.969 82.4687C234.439 81.8992 231.756 81.2951 228.914 80.6958C224.208 79.7035 219.125 78.7623 214.401 78.4283C210.022 78.1187 204.127 78.1614 198.863 80.6551C192.915 83.4726 187.076 87.5834 183.209 93.4906C179.773 98.741 178.28 104.86 179.133 111.29C175.943 104.933 173.164 99.5512 171.168 95.9895C170.587 94.9517 169.926 94.0439 169.206 93.2312C168.482 92.4137 167.741 91.5768 166.985 90.7236C159.629 82.4209 150.907 72.576 143.472 64.0213C141.311 61.5347 139.273 59.1722 137.417 57ZM199.553 153.013C201.221 156.449 202.812 159.723 204.283 162.734C209.01 172.414 215.194 181.17 220.934 188.602C222.909 191.159 224.731 193.434 226.452 195.582C227.272 196.606 228.069 197.601 228.848 198.583C230.994 201.29 233.351 204.32 234.883 206.983C250.985 202.858 295.124 191.78 312.063 187.862C324.055 184.578 350.157 177.531 356.646 176.233C362.857 174.991 372.008 171.482 377.211 168.28C377.376 168.178 377.538 168.079 377.696 167.983C376.101 161.383 373.417 150.647 371.858 144.41C371.562 143.226 371.311 142.093 371.1 141.13L371.03 140.813C370.841 139.948 370.689 139.256 370.53 138.595C370.522 138.563 370.514 138.531 370.507 138.5H270C261.126 138.5 257.966 141.948 250.566 150.025C249.128 151.594 247.531 153.338 245.7 155.265C238.081 163.285 228.591 165.568 220.654 164.966C216.774 164.671 213.147 163.692 210.058 162.298C207.221 161.018 203.82 158.927 201.4 155.7C200.915 155.054 200.286 154.137 199.553 153.013ZM381.902 165.445C381.901 165.445 381.9 165.446 381.899 165.447C381.913 165.437 381.914 165.436 381.902 165.445ZM238.043 213.263C238.044 213.265 238.045 213.267 238.046 213.268C238.058 213.292 238.064 213.303 238.064 213.303C238.065 213.303 238.058 213.29 238.043 213.263ZM287.315 74.5149C287.314 74.5162 287.282 74.5143 287.223 74.5054C287.287 74.5091 287.317 74.5136 287.315 74.5149ZM116.688 33.5493C119.321 33.1168 122.511 33 126 33H156.622C157.591 33 158.589 33.0849 159.633 33.2867C162.652 33.8696 167.246 34.7869 172.564 35.849C178.765 37.0872 185.952 38.5222 192.777 39.8537C206.056 42.4441 217.937 44.6339 222.194 45.0596C232.657 46.1058 278.278 50.5 287 50.5C290.756 50.5 295.697 51.2446 299.834 54.6528C304.47 58.4727 305.911 63.7788 305.741 68.265C305.587 72.3608 304.15 76.1296 302.602 79.1509C300.983 82.311 298.814 85.4778 296.327 88.5504C286.27 100.973 272.33 110.815 252.202 109.473C245.552 109.03 237.177 107.138 229.989 105.513C227.849 105.03 225.814 104.57 223.961 104.179C219.479 103.234 215.719 102.581 212.708 102.369C209.99 102.176 208.994 102.44 208.988 102.417C208.988 102.417 208.988 102.416 208.989 102.415C205.539 104.073 203.915 105.68 203.29 106.634C203.016 107.054 202.944 107.323 202.917 107.492C202.891 107.658 202.858 108.052 203.062 108.788C203.861 111.663 207.215 118.53 211.54 126.275C215.137 132.718 218.519 138.215 220.017 140.461C220.6 140.71 221.467 140.958 222.471 141.034C224.409 141.182 226.419 140.715 228.3 138.735C229.338 137.643 230.426 136.408 231.588 135.089C239.104 126.561 249.733 114.5 270 114.5H372C375.816 114.5 379.807 115.203 383.477 117.3C387.256 119.459 389.663 122.506 391.197 125.441C392.62 128.164 393.377 130.961 393.861 132.967C394.083 133.89 394.292 134.843 394.473 135.671L394.542 135.987C394.751 136.938 394.938 137.774 395.142 138.59L395.199 138.82C397.188 146.775 401.179 162.741 402.214 167.397C402.541 168.866 403.044 171.466 402.616 174.398C402.091 177.99 400.397 180.824 398.298 182.923C396.639 184.581 394.736 185.746 393.718 186.366C392.871 186.882 392.402 187.157 391.948 187.422C391.411 187.737 390.893 188.04 389.789 188.72C381.992 193.518 370.143 198.009 361.353 199.767C355.885 200.861 330.621 207.663 318.171 211.074L317.936 211.138L317.698 211.193C298.327 215.663 240.982 230.125 235.657 231.577L235.594 231.594C234.345 231.935 231.672 232.665 228.819 232.505C227.042 232.405 224.941 231.967 222.834 230.811C220.758 229.671 219.339 228.198 218.405 226.977C217.112 225.286 216.169 223.18 215.846 222.458C215.813 222.384 215.786 222.325 215.766 222.282C215.299 221.269 214.817 220.242 214.081 218.954C213.611 218.132 212.426 216.501 210.042 213.495C209.394 212.676 208.669 211.772 207.891 210.8C206.11 208.576 204.043 205.995 201.94 203.273C195.806 195.33 188.49 185.086 182.717 173.266C180.383 168.487 177.809 163.181 175.145 157.691C165.998 138.839 155.797 117.814 150.654 108.483C150.117 107.876 149.57 107.259 149.014 106.632C141.672 98.3445 132.872 88.4114 125.357 79.764C121.214 74.997 117.415 70.5662 114.442 66.9864C111.752 63.7468 109.029 60.3732 107.71 58.174C107.672 58.1111 107.595 57.9869 107.489 57.8174C107.006 57.0429 105.931 55.3209 105.353 54.1634C105.343 54.144 105.332 54.1218 105.319 54.0967C104.776 53.0198 101.639 46.8047 105.573 40.3676C107.443 37.3078 110.078 35.7304 111.858 34.9365C113.631 34.1463 115.369 33.7659 116.688 33.5493Z" fill="white"/>
<path fill-rule="evenodd" clip-rule="evenodd" d="M119.289 49.3239C119.536 49.72 119.819 50.1728 120.144 50.7138C120.77 51.7571 122.671 54.1975 125.598 57.7235C128.467 61.1786 132.184 65.514 136.302 70.2528C143.768 78.8443 152.522 88.7244 159.872 97.021C160.629 97.8753 161.371 98.7127 162.095 99.5303C162.392 99.866 162.651 100.223 162.881 100.633C168.104 109.955 178.954 132.319 188.388 151.765C190.999 157.148 193.502 162.306 195.746 166.903C200.888 177.43 207.52 186.775 213.416 194.409C215.441 197.031 217.358 199.424 219.104 201.605C219.909 202.61 220.678 203.57 221.404 204.486C223.655 207.324 225.56 209.816 226.671 211.76C227.726 213.606 228.418 215.091 228.934 216.211C229.41 217.242 229.645 217.739 229.823 218.023C230.136 217.999 230.723 217.893 231.842 217.588C237.374 216.079 294.814 201.595 314.388 197.075C326.517 193.753 352.407 186.769 358.51 185.549C365.741 184.102 375.96 180.205 382.19 176.371C383.129 175.793 384.082 175.228 384.88 174.756C385.39 174.453 385.837 174.189 386.176 173.982C387.22 173.346 387.748 172.966 388.045 172.67C388.244 172.47 388.255 172.398 388.267 172.31L388.268 172.303C388.302 172.073 388.294 171.596 388.06 170.542C387.069 166.084 383.081 150.133 381.075 142.106C380.815 141.068 380.59 140.053 380.379 139.094C380.356 138.987 380.333 138.881 380.31 138.776C380.124 137.927 379.949 137.132 379.765 136.368C379.347 134.633 378.919 133.252 378.347 132.158C377.798 131.108 377.148 130.383 376.283 129.889C375.396 129.382 374.075 129 372 129H270C256.69 129 250.606 135.74 243.026 144.136C241.685 145.622 240.296 147.16 238.813 148.722C233.465 154.351 226.936 155.915 221.373 155.493C218.61 155.283 216.061 154.584 213.964 153.638C211.92 152.716 210.098 151.464 209 150C207.388 147.85 203.066 140.841 198.88 133.344C194.721 125.895 190.435 117.508 189.091 112.669C187.647 107.471 188.517 102.729 191.158 98.6934C193.745 94.7413 197.93 91.6089 202.93 89.2407C205.907 87.8305 209.757 87.6237 213.731 87.9047C217.777 88.1907 222.336 89.0177 226.953 89.9913C229.363 90.4994 231.779 91.044 234.163 91.5812C241.099 93.1442 247.76 94.6451 253.166 95.0055C267.098 95.9343 276.881 89.5264 285.057 79.427C287.106 76.8953 288.656 74.5719 289.697 72.5398C290.753 70.4789 291.209 68.8662 291.252 67.7182C291.292 66.6516 290.988 66.1522 290.613 65.8435C290.135 65.449 289.087 65 287 65C277.338 65 230.655 60.478 220.751 59.4876C215.651 58.9775 202.942 56.61 190.001 54.0854C182.955 52.711 175.833 51.2883 169.712 50.0655C164.481 49.0206 159.981 48.1216 156.884 47.5236C156.801 47.5075 156.726 47.5 156.622 47.5H126C122.649 47.5 120.444 47.6267 119.038 47.8576C118.82 47.8934 118.633 47.9299 118.472 47.9659C118.691 48.3673 118.958 48.795 119.289 49.3239ZM118.117 47.1793C118.118 47.1799 118.122 47.1929 118.126 47.2165C118.118 47.1905 118.116 47.1787 118.117 47.1793ZM118.228 42.9237C120.056 42.6233 122.601 42.5 126 42.5H156.622C157.025 42.5 157.417 42.5342 157.832 42.6143C160.902 43.2072 165.434 44.1124 170.695 45.1633C176.844 46.3914 183.989 47.8183 190.958 49.1779C204.016 51.7252 216.439 54.0315 221.249 54.5124C231.345 55.522 277.662 60 287 60C289.663 60 292.053 60.551 293.793 61.9846C295.637 63.5041 296.333 65.6609 296.248 67.9068C296.167 70.0713 295.372 72.4274 294.147 74.8195C292.907 77.2406 291.144 79.8547 288.943 82.573C280.119 93.4736 268.902 101.066 252.834 99.9945C247.003 99.6057 239.76 97.9723 232.711 96.3826C230.409 95.8633 228.127 95.3487 225.922 94.8837C221.351 93.9198 217.067 93.153 213.378 92.8922C209.618 92.6263 206.843 92.9195 205.07 93.7593C200.57 95.8911 197.255 98.5087 195.342 101.432C193.483 104.271 192.853 107.529 193.909 111.331C195.065 115.492 199.029 123.355 203.245 130.906C207.434 138.409 211.612 145.15 213 147C213.402 147.536 214.393 148.346 216.02 149.08C217.595 149.791 219.577 150.342 221.752 150.507C226.064 150.835 231.035 149.649 235.188 145.278C236.509 143.888 237.792 142.454 239.077 141.019C246.676 132.533 254.318 124 270 124H372C374.675 124 376.917 124.493 378.764 125.548C380.633 126.617 381.889 128.142 382.778 129.842C383.644 131.498 384.185 133.367 384.626 135.195C384.823 136.013 385.009 136.861 385.193 137.702L385.263 138.023C385.473 138.979 385.685 139.932 385.925 140.894L385.937 140.94C387.934 148.93 391.933 164.925 392.941 169.458C393.206 170.654 393.386 171.864 393.216 173.025C393.026 174.324 392.438 175.347 391.58 176.205C390.814 176.971 389.812 177.622 388.777 178.252C388.27 178.561 387.79 178.844 387.279 179.147C386.572 179.564 385.803 180.019 384.81 180.629C378.04 184.795 367.259 188.898 359.49 190.451C353.601 191.629 327.886 198.562 315.661 201.911L315.612 201.925L315.562 201.936C296.089 206.43 238.621 220.922 233.158 222.412C231.815 222.778 230.507 223.084 229.352 223.02C228.707 222.983 228.042 222.832 227.404 222.482C226.773 222.135 226.307 221.671 225.952 221.206C225.386 220.466 224.925 219.462 224.508 218.554C224.47 218.47 224.432 218.387 224.394 218.304C223.894 217.221 223.274 215.894 222.329 214.24C221.44 212.684 219.783 210.488 217.486 207.592C216.787 206.711 216.034 205.77 215.238 204.776C213.478 202.579 211.51 200.122 209.459 197.466C203.48 189.725 196.612 180.07 191.254 169.097C188.978 164.438 186.451 159.23 183.822 153.811C174.397 134.384 163.661 112.255 158.519 103.077C158.474 102.997 158.427 102.93 158.352 102.846C157.628 102.028 156.885 101.189 156.127 100.334C148.78 92.041 140.011 82.143 132.528 73.5325C128.401 68.784 124.656 64.4157 121.751 60.9176C118.906 57.4904 116.721 54.7281 115.856 53.2862C115.661 52.9606 115.444 52.6118 115.222 52.2559C114.721 51.4502 114.196 50.6078 113.85 49.9149C113.408 49.0317 112.569 47.1389 113.679 45.3214C114.205 44.4613 114.992 43.9409 115.727 43.6132C116.46 43.2862 117.313 43.074 118.228 42.9237Z" fill="black"/>
</svg>
