<svg width="522" height="252" viewBox="0 0 522 252" fill="none" xmlns="http://www.w3.org/2000/svg">
<path fill-rule="evenodd" clip-rule="evenodd" d="M521 1.5H1V0.5H521V1.5Z" fill="#20202E"/>
<path fill-rule="evenodd" clip-rule="evenodd" d="M521 11.5H1V10.5H521V11.5Z" fill="#20202E"/>
<path fill-rule="evenodd" clip-rule="evenodd" d="M521 21.5H1V20.5H521V21.5Z" fill="#20202E"/>
<path fill-rule="evenodd" clip-rule="evenodd" d="M521 31.5H1V30.5H521V31.5Z" fill="#20202E"/>
<path fill-rule="evenodd" clip-rule="evenodd" d="M521 41.5H1V40.5H521V41.5Z" fill="#20202E"/>
<path fill-rule="evenodd" clip-rule="evenodd" d="M521 51.5H1V50.5H521V51.5Z" fill="#20202E"/>
<path fill-rule="evenodd" clip-rule="evenodd" d="M521 61.5H1V60.5H521V61.5Z" fill="#20202E"/>
<path fill-rule="evenodd" clip-rule="evenodd" d="M521 71.5H1V70.5H521V71.5Z" fill="#20202E"/>
<path fill-rule="evenodd" clip-rule="evenodd" d="M521 81.5H1V80.5H521V81.5Z" fill="#20202E"/>
<path fill-rule="evenodd" clip-rule="evenodd" d="M521 91.5H1V90.5H521V91.5Z" fill="#20202E"/>
<path fill-rule="evenodd" clip-rule="evenodd" d="M521 101.5H1V100.5H521V101.5Z" fill="#20202E"/>
<path fill-rule="evenodd" clip-rule="evenodd" d="M521 111.5H1V110.5H521V111.5Z" fill="#20202E"/>
<path fill-rule="evenodd" clip-rule="evenodd" d="M521 121.5H1V120.5H521V121.5Z" fill="#20202E"/>
<path fill-rule="evenodd" clip-rule="evenodd" d="M521 131.5H1V130.5H521V131.5Z" fill="#20202E"/>
<path fill-rule="evenodd" clip-rule="evenodd" d="M521 141.5H1V140.5H521V141.5Z" fill="#20202E"/>
<path fill-rule="evenodd" clip-rule="evenodd" d="M521 151.5H1V150.5H521V151.5Z" fill="#20202E"/>
<path fill-rule="evenodd" clip-rule="evenodd" d="M521 161.5H1V160.5H521V161.5Z" fill="#20202E"/>
<path fill-rule="evenodd" clip-rule="evenodd" d="M521 171.5H1V170.5H521V171.5Z" fill="#20202E"/>
<path fill-rule="evenodd" clip-rule="evenodd" d="M521 181.5H1V180.5H521V181.5Z" fill="#20202E"/>
<path fill-rule="evenodd" clip-rule="evenodd" d="M521 191.5H1V190.5H521V191.5Z" fill="#20202E"/>
<path fill-rule="evenodd" clip-rule="evenodd" d="M521 201.5H1V200.5H521V201.5Z" fill="#20202E"/>
<path fill-rule="evenodd" clip-rule="evenodd" d="M521 211.5H1V210.5H521V211.5Z" fill="#20202E"/>
<path fill-rule="evenodd" clip-rule="evenodd" d="M521 221.5H1V220.5H521V221.5Z" fill="#20202E"/>
<path fill-rule="evenodd" clip-rule="evenodd" d="M521 231.5H1V230.5H521V231.5Z" fill="#20202E"/>
<path fill-rule="evenodd" clip-rule="evenodd" d="M521 241.5H1V240.5H521V241.5Z" fill="#20202E"/>
<path fill-rule="evenodd" clip-rule="evenodd" d="M521 251.5H1V250.5H521V251.5Z" fill="#20202E"/>
<path fill-rule="evenodd" clip-rule="evenodd" d="M0.5 251L0.5 1L1.5 1L1.5 251L0.5 251Z" fill="#20202E"/>
<path fill-rule="evenodd" clip-rule="evenodd" d="M10.5 251L10.5 1L11.5 1L11.5 251L10.5 251Z" fill="#20202E"/>
<path fill-rule="evenodd" clip-rule="evenodd" d="M20.5 251L20.5 1L21.5 1L21.5 251L20.5 251Z" fill="#20202E"/>
<path fill-rule="evenodd" clip-rule="evenodd" d="M30.5 251L30.5 1L31.5 1L31.5 251L30.5 251Z" fill="#20202E"/>
<path fill-rule="evenodd" clip-rule="evenodd" d="M40.5 251L40.5 1L41.5 1L41.5 251L40.5 251Z" fill="#20202E"/>
<path fill-rule="evenodd" clip-rule="evenodd" d="M50.5 251L50.5 1L51.5 1L51.5 251L50.5 251Z" fill="#20202E"/>
<path fill-rule="evenodd" clip-rule="evenodd" d="M60.5 251L60.5 1L61.5 1L61.5 251L60.5 251Z" fill="#20202E"/>
<path fill-rule="evenodd" clip-rule="evenodd" d="M70.5 251L70.5 1L71.5 1L71.5 251L70.5 251Z" fill="#20202E"/>
<path fill-rule="evenodd" clip-rule="evenodd" d="M80.5 251L80.5 1L81.5 1L81.5 251L80.5 251Z" fill="#20202E"/>
<path fill-rule="evenodd" clip-rule="evenodd" d="M90.5 251L90.5 1L91.5 1L91.5 251L90.5 251Z" fill="#20202E"/>
<path fill-rule="evenodd" clip-rule="evenodd" d="M100.5 251L100.5 1L101.5 1L101.5 251L100.5 251Z" fill="#20202E"/>
<path fill-rule="evenodd" clip-rule="evenodd" d="M110.5 251L110.5 1L111.5 1L111.5 251L110.5 251Z" fill="#20202E"/>
<path fill-rule="evenodd" clip-rule="evenodd" d="M120.5 251L120.5 1L121.5 1L121.5 251L120.5 251Z" fill="#20202E"/>
<path fill-rule="evenodd" clip-rule="evenodd" d="M130.5 251L130.5 1L131.5 1L131.5 251L130.5 251Z" fill="#20202E"/>
<path fill-rule="evenodd" clip-rule="evenodd" d="M140.5 251L140.5 1L141.5 1L141.5 251L140.5 251Z" fill="#20202E"/>
<path fill-rule="evenodd" clip-rule="evenodd" d="M150.5 251L150.5 1L151.5 1L151.5 251L150.5 251Z" fill="#20202E"/>
<path fill-rule="evenodd" clip-rule="evenodd" d="M160.5 251L160.5 1L161.5 1L161.5 251L160.5 251Z" fill="#20202E"/>
<path fill-rule="evenodd" clip-rule="evenodd" d="M170.5 251L170.5 1L171.5 1L171.5 251L170.5 251Z" fill="#20202E"/>
<path fill-rule="evenodd" clip-rule="evenodd" d="M180.5 251L180.5 1L181.5 1L181.5 251L180.5 251Z" fill="#20202E"/>
<path fill-rule="evenodd" clip-rule="evenodd" d="M190.5 251L190.5 1L191.5 1L191.5 251L190.5 251Z" fill="#20202E"/>
<path fill-rule="evenodd" clip-rule="evenodd" d="M200.5 251L200.5 1L201.5 1L201.5 251L200.5 251Z" fill="#20202E"/>
<path fill-rule="evenodd" clip-rule="evenodd" d="M210.5 251L210.5 1L211.5 1L211.5 251L210.5 251Z" fill="#20202E"/>
<path fill-rule="evenodd" clip-rule="evenodd" d="M220.5 251L220.5 1L221.5 1L221.5 251L220.5 251Z" fill="#20202E"/>
<path fill-rule="evenodd" clip-rule="evenodd" d="M230.5 251L230.5 1L231.5 1L231.5 251L230.5 251Z" fill="#20202E"/>
<path fill-rule="evenodd" clip-rule="evenodd" d="M240.5 251L240.5 1L241.5 1L241.5 251L240.5 251Z" fill="#20202E"/>
<path fill-rule="evenodd" clip-rule="evenodd" d="M250.5 251L250.5 1L251.5 1L251.5 251L250.5 251Z" fill="#20202E"/>
<path fill-rule="evenodd" clip-rule="evenodd" d="M260.5 251L260.5 1L261.5 1L261.5 251L260.5 251Z" fill="#20202E"/>
<path fill-rule="evenodd" clip-rule="evenodd" d="M270.5 251L270.5 1L271.5 1L271.5 251L270.5 251Z" fill="#20202E"/>
<path fill-rule="evenodd" clip-rule="evenodd" d="M280.5 251L280.5 1L281.5 1L281.5 251L280.5 251Z" fill="#20202E"/>
<path fill-rule="evenodd" clip-rule="evenodd" d="M290.5 251L290.5 1L291.5 1L291.5 251L290.5 251Z" fill="#20202E"/>
<path fill-rule="evenodd" clip-rule="evenodd" d="M300.5 251L300.5 1L301.5 1L301.5 251L300.5 251Z" fill="#20202E"/>
<path fill-rule="evenodd" clip-rule="evenodd" d="M310.5 251L310.5 1L311.5 1L311.5 251L310.5 251Z" fill="#20202E"/>
<path fill-rule="evenodd" clip-rule="evenodd" d="M320.5 251L320.5 1L321.5 1L321.5 251L320.5 251Z" fill="#20202E"/>
<path fill-rule="evenodd" clip-rule="evenodd" d="M330.5 251L330.5 1L331.5 1L331.5 251L330.5 251Z" fill="#20202E"/>
<path fill-rule="evenodd" clip-rule="evenodd" d="M340.5 251L340.5 1L341.5 1L341.5 251L340.5 251Z" fill="#20202E"/>
<path fill-rule="evenodd" clip-rule="evenodd" d="M350.5 251L350.5 1L351.5 1L351.5 251L350.5 251Z" fill="#20202E"/>
<path fill-rule="evenodd" clip-rule="evenodd" d="M360.5 251L360.5 1L361.5 1L361.5 251L360.5 251Z" fill="#20202E"/>
<path fill-rule="evenodd" clip-rule="evenodd" d="M370.5 251L370.5 1L371.5 1L371.5 251L370.5 251Z" fill="#20202E"/>
<path fill-rule="evenodd" clip-rule="evenodd" d="M380.5 251L380.5 1L381.5 1L381.5 251L380.5 251Z" fill="#20202E"/>
<path fill-rule="evenodd" clip-rule="evenodd" d="M390.5 251L390.5 1L391.5 1L391.5 251L390.5 251Z" fill="#20202E"/>
<path fill-rule="evenodd" clip-rule="evenodd" d="M400.5 251L400.5 1L401.5 1L401.5 251L400.5 251Z" fill="#20202E"/>
<path fill-rule="evenodd" clip-rule="evenodd" d="M410.5 251L410.5 1L411.5 1L411.5 251L410.5 251Z" fill="#20202E"/>
<path fill-rule="evenodd" clip-rule="evenodd" d="M420.5 251L420.5 1L421.5 1L421.5 251L420.5 251Z" fill="#20202E"/>
<path fill-rule="evenodd" clip-rule="evenodd" d="M430.5 251L430.5 1L431.5 1L431.5 251L430.5 251Z" fill="#20202E"/>
<path fill-rule="evenodd" clip-rule="evenodd" d="M440.5 251L440.5 1L441.5 1L441.5 251L440.5 251Z" fill="#20202E"/>
<path fill-rule="evenodd" clip-rule="evenodd" d="M450.5 251L450.5 1L451.5 1L451.5 251L450.5 251Z" fill="#20202E"/>
<path fill-rule="evenodd" clip-rule="evenodd" d="M460.5 251L460.5 1L461.5 1L461.5 251L460.5 251Z" fill="#20202E"/>
<path fill-rule="evenodd" clip-rule="evenodd" d="M470.5 251L470.5 1L471.5 1L471.5 251L470.5 251Z" fill="#20202E"/>
<path fill-rule="evenodd" clip-rule="evenodd" d="M480.5 251L480.5 1L481.5 1L481.5 251L480.5 251Z" fill="#20202E"/>
<path fill-rule="evenodd" clip-rule="evenodd" d="M490.5 251L490.5 1L491.5 1L491.5 251L490.5 251Z" fill="#20202E"/>
<path fill-rule="evenodd" clip-rule="evenodd" d="M500.5 251L500.5 1L501.5 1L501.5 251L500.5 251Z" fill="#20202E"/>
<path fill-rule="evenodd" clip-rule="evenodd" d="M510.5 251L510.5 1L511.5 1L511.5 251L510.5 251Z" fill="#20202E"/>
<path fill-rule="evenodd" clip-rule="evenodd" d="M520.5 251L520.5 1L521.5 1L521.5 251L520.5 251Z" fill="#20202E"/>
<path fill-rule="evenodd" clip-rule="evenodd" d="M385.183 42.4185C385.211 42.4954 385.229 42.5462 385.236 42.5644C386.804 46.746 393.354 65.3942 395.884 72.9832C396.273 74.151 396.61 75.0735 396.964 76.0434C397.132 76.5049 397.305 76.9773 397.488 77.4919C397.92 78.7001 398.684 80.8407 399.004 83.0809C399.364 85.6003 399.404 89.8776 396.478 93.9288C393.871 97.5383 390.264 99.0055 388.295 99.6621C386.386 100.298 365.315 106.846 340.104 114.681C333.876 116.616 327.395 118.63 320.888 120.653C289.267 130.482 256.905 140.556 248.615 143.231C242.519 147.035 233.687 152.497 225.643 157.371C217.68 162.195 209.529 167.038 206.122 168.63C206.067 168.681 205.474 169.162 204.608 170.895C203.569 172.972 202.865 175.32 202.069 177.976L201.994 178.226C201.236 180.754 199.921 182.759 198.995 184.017C197.975 185.405 196.815 186.697 195.703 187.833C193.479 190.107 190.816 192.398 188.261 194.449C183.157 198.546 177.574 202.407 174.485 204.375C174.491 204.371 174.494 204.369 174.495 204.37C174.499 204.375 174.047 204.73 173.197 205.787C172.279 206.93 171.249 208.448 170.178 210.242C168.031 213.839 166.155 217.806 165.077 220.393C164.362 222.109 163.464 224.059 162.287 225.797C161.154 227.469 158.826 230.36 154.732 231.725C150.437 233.156 146.804 232.047 145.164 231.424C143.967 230.969 142.471 230.187 142.181 230.036C142.155 230.022 142.139 230.014 142.133 230.011C138.503 228.196 111.442 211.83 107.64 209.454C107.501 209.367 107.16 209.158 106.773 208.921C106.176 208.556 105.47 208.124 105.227 207.968L105.188 207.944C104.522 207.518 102.689 206.349 101.13 204.399C99.1264 201.895 98.4157 199.271 98.1612 197.298C97.9928 195.993 97.9974 194.594 97.9996 193.946C97.9998 193.883 98 193.826 98 193.778C98 191.709 98.2563 184.819 98.6149 178.024C98.9569 171.544 99.4638 163.55 100.128 159.956C100.372 158.63 100.763 157.529 101.131 156.677C102.711 153.021 108.414 140.189 113.334 132.639C115.031 130.035 117.432 128.034 120.236 126.823C124.196 125.113 133.202 121.508 141.75 118.195C149.98 115.006 158.972 111.62 162.343 110.701C163.584 110.362 165.611 109.811 167.612 109.631C169.652 109.447 174.403 109.379 178.484 113.12C180.381 114.859 181.466 116.858 182.096 118.517C182.178 118.542 182.26 118.568 182.343 118.595C184.197 119.194 185.96 120.142 187.549 121.448C187.746 121.503 187.975 121.569 188.193 121.638C188.819 121.835 189.84 122.194 190.981 122.831C193.699 124.348 195.557 126.559 196.733 128.912C197.498 130.44 198.092 132.312 198.474 133.593C198.819 134.747 199.175 136.057 199.52 137.453C200.493 136.843 201.619 136.159 202.811 135.447C204.978 134.152 207.59 132.624 210.242 131.073C211.181 130.523 212.125 129.971 213.056 129.426C216.286 127.532 219.374 125.707 221.837 124.189C221.947 123.159 222.169 122.03 222.572 120.849C223.739 117.428 225.967 114.841 228.525 113.013C232.983 109.829 242.326 104.948 248.034 102.354C251.432 100.809 262.647 96.8262 272.94 93.2538C279.445 90.9965 286.089 88.7299 291.055 87.0687C290.762 86.3449 290.453 85.5834 290.132 84.7945L289.904 84.2334C288.46 80.6786 286.787 76.562 286.142 74.6496C286.133 74.6292 286.119 74.5964 286.098 74.5495C286.059 74.4605 286.013 74.3597 285.936 74.1917C285.87 74.0476 285.764 73.816 285.659 73.5813C285.648 73.5571 285.635 73.5278 285.62 73.4937C285.311 72.8097 284.125 70.1853 284.125 66.9655C284.125 62.2415 286.471 58.3546 289.737 55.9045C292.272 54.0037 295.116 53.1296 297.09 52.6363C299.458 52.0441 312.206 48.0234 326.476 43.5225C327.462 43.2115 328.456 42.8982 329.453 42.5835C344.089 37.9683 359.945 32.9753 363.802 32.0852C365.348 31.7284 367.176 31.3188 368.843 31.1286C370.297 30.9628 373.822 30.6475 377.492 32.4823C381.615 34.5438 383.371 37.9843 384.039 39.4561C384.449 40.361 385.007 41.9254 385.183 42.4185ZM181.743 163.253C180.55 161.907 179.785 160.496 179.322 159.393C178.41 157.225 178.136 155.112 178.031 153.633C177.842 150.999 177.236 147.546 176.498 144.367C176.354 143.744 176.209 143.154 176.069 142.605C175.817 142.466 175.566 142.321 175.315 142.169C173.396 142.359 169.47 142.375 165.761 139.831C164.17 138.74 162.989 137.459 162.11 136.137C158.897 137.323 154.823 138.868 150.422 140.574C143.447 143.276 136.404 146.084 132.151 147.845C129.011 153.23 125.345 161.224 123.6 165.194C123.299 167.618 122.91 173.058 122.582 179.289C122.362 183.451 122.195 187.406 122.097 190.172C125.225 192.086 131.266 195.743 137.299 199.363C140.351 201.195 143.371 202.998 145.972 204.539C147.038 202.408 148.254 200.146 149.572 197.939C152.081 193.736 156.183 187.574 161.558 184.154C163.978 182.614 168.866 179.241 173.239 175.732C175.434 173.97 177.271 172.355 178.547 171.051C178.899 170.691 179.161 170.403 179.347 170.186C179.876 168.417 180.653 165.908 181.743 163.253ZM179.719 169.714C179.721 169.713 179.706 169.737 179.67 169.786C179.7 169.739 179.717 169.714 179.719 169.714ZM118.092 187.707C118.092 187.707 118.097 187.711 118.107 187.717C118.097 187.71 118.092 187.707 118.092 187.707ZM122.005 194.662C122.006 194.675 122.006 194.682 122.006 194.683C122.006 194.683 122.006 194.677 122.005 194.662ZM202.776 138.183C202.777 138.183 202.771 138.182 202.754 138.179C202.767 138.181 202.774 138.182 202.776 138.183ZM317.655 96.5249C317.731 96.2292 317.799 95.9257 317.857 95.6144C318.596 91.6711 317.366 88.4559 317.019 87.5493L317.001 87.4999C316.835 87.0654 316.613 86.5378 316.522 86.3221C316.507 86.2844 316.495 86.2562 316.488 86.2397C316.384 85.9892 316.373 85.9491 316.384 85.9832C315.758 84.1062 314.06 79.9258 312.596 76.3225L312.368 75.7615C312.035 74.9419 311.714 74.1518 311.411 73.4029C317.061 71.6599 324.671 69.2586 332.378 66.8269C333.81 66.3751 335.245 65.9223 336.671 65.4724C348.06 61.8809 358.857 58.4936 364.826 56.7093C367.198 63.3857 370.784 73.6492 372.723 79.4008C369.067 80.5415 364.354 82.0089 358.888 83.709C351.454 86.0213 342.637 88.7612 333.209 91.6912C328.16 93.26 322.936 94.8834 317.655 96.5249ZM307.56 63.762C307.559 63.7615 307.563 63.7697 307.57 63.7857C307.563 63.7702 307.56 63.7625 307.56 63.762ZM302.569 76.0132C302.505 76.0377 302.47 76.0486 302.468 76.0478C302.467 76.0471 302.498 76.0348 302.569 76.0132ZM172.8 118.293C172.758 118.299 172.772 118.295 172.832 118.287C172.819 118.29 172.809 118.291 172.8 118.293Z" fill="white"/>
<path fill-rule="evenodd" clip-rule="evenodd" d="M376.049 45.0995C376.148 45.3749 376.246 45.6472 376.341 45.9004C377.855 49.9382 384.366 68.4691 386.872 75.9876C387.304 77.2834 387.712 78.402 388.086 79.4286C388.244 79.8625 388.396 80.2799 388.542 80.6874C389.003 81.9781 389.434 83.2653 389.6 84.4247C389.774 85.6422 389.708 87.0776 388.777 88.3669C387.912 89.5642 386.592 90.2162 385.291 90.6499C383.483 91.2523 362.625 97.7342 337.467 105.552C331.192 107.502 324.649 109.535 318.068 111.581C285.053 121.844 251.041 132.432 244.658 134.528C244.606 134.546 244.587 134.555 244.577 134.56C244.56 134.568 244.523 134.587 244.429 134.645C238.347 138.444 229.097 144.17 220.72 149.246C212.424 154.272 204.781 158.786 202.048 160.048C199.55 161.201 197.63 163.608 196.111 166.646C194.693 169.482 193.777 172.546 193.036 175.024C192.988 175.184 192.941 175.342 192.895 175.497C192.588 176.518 191.993 177.505 191.342 178.389C190.672 179.301 189.837 180.246 188.912 181.19C187.063 183.081 184.727 185.104 182.315 187.04C177.486 190.916 172.161 194.594 169.342 196.387C167.139 197.789 164.52 201.188 162.022 205.372C159.595 209.437 157.522 213.826 156.308 216.74C155.664 218.285 155.056 219.532 154.421 220.469C153.796 221.393 152.952 222.305 151.728 222.712C150.462 223.134 149.322 222.842 148.541 222.545C147.985 222.333 147.349 222.008 146.807 221.73C146.657 221.654 146.514 221.58 146.382 221.514C143.251 219.949 116.634 203.872 112.675 201.398C112.255 201.136 111.818 200.87 111.419 200.627C110.995 200.369 110.614 200.137 110.342 199.963C109.765 199.595 109.077 199.127 108.548 198.465C107.933 197.696 107.686 196.877 107.583 196.083C107.5 195.435 107.5 194.666 107.5 193.9L107.5 193.778C107.5 191.995 107.742 185.342 108.102 178.525C108.458 171.773 108.945 164.521 109.47 161.681C109.556 161.211 109.698 160.803 109.852 160.445C111.474 156.691 116.882 144.594 121.293 137.827C121.959 136.805 122.894 136.024 124.003 135.545C127.783 133.912 136.641 130.363 145.182 127.054C153.658 123.77 162.071 120.622 164.842 119.866C166.189 119.499 167.428 119.186 168.463 119.093C169.507 118.999 170.917 119.071 172.064 120.123C173.09 121.063 173.416 122.372 173.585 123.312C173.759 124.274 173.861 125.497 173.973 126.854L173.991 127.071C174.014 127.345 174.045 127.553 174.075 127.706C174.126 127.7 174.183 127.692 174.245 127.682C174.362 127.664 174.509 127.635 174.682 127.601C176.064 127.326 179.108 126.721 181.627 128.88C183.007 130.063 183.88 130.301 184.582 130.488C184.616 130.497 184.655 130.507 184.699 130.518C185.07 130.614 185.746 130.789 186.351 131.127C187.184 131.591 187.793 132.274 188.236 133.16C188.593 133.875 188.989 135.031 189.372 136.313C189.772 137.651 190.207 139.296 190.623 141.088C191.405 144.456 192.144 148.447 192.445 151.98C192.833 151.579 193.248 151.118 193.687 150.624C193.742 150.562 193.799 150.498 193.857 150.433C194.493 149.716 195.307 148.798 196 148.278C197.872 146.875 199.879 147.287 200.764 147.469C200.837 147.484 200.903 147.498 200.961 147.509C201.42 147.595 201.574 147.599 201.637 147.593C201.654 147.582 201.686 147.557 201.732 147.51C202.215 147.028 203.124 146.422 203.995 145.864C204.974 145.238 206.242 144.464 207.686 143.601C209.81 142.331 212.361 140.839 215 139.296C215.947 138.742 216.906 138.181 217.861 137.621C221.488 135.495 225.053 133.387 227.769 131.689C229.131 130.838 230.245 130.111 231.036 129.549C231.314 129.351 231.534 129.187 231.701 129.055C231.697 129.028 231.694 128.999 231.689 128.968C231.659 128.758 231.612 128.526 231.543 128.19L231.541 128.18C231.477 127.873 231.396 127.48 231.338 127.069C231.218 126.232 231.156 125.112 231.564 123.916C231.986 122.678 232.821 121.619 234.047 120.744C237.746 118.101 246.422 113.522 251.965 111.002C254.85 109.691 265.499 105.892 276.055 102.229C286.672 98.5444 297.465 94.9042 300.765 93.8888C302.25 93.4318 303.069 93.059 303.498 92.7896C303.485 92.7532 303.47 92.7132 303.453 92.6695C303.385 92.49 303.311 92.3145 303.218 92.092C303.18 92.0017 303.139 91.9037 303.094 91.7945C302.949 91.4455 302.782 91.0291 302.628 90.5688C302.161 89.1679 300.583 85.2775 298.934 81.2192L298.866 81.0533C297.286 77.1628 295.654 73.1454 295.128 71.5688C294.983 71.1329 294.812 70.7591 294.598 70.2909C294.518 70.1173 294.433 69.9308 294.34 69.7233C294.07 69.1158 293.625 68.0906 293.625 66.9658C293.625 65.561 294.287 64.3678 295.437 63.5048C296.436 62.7563 297.795 62.2526 299.394 61.8529C302.062 61.1859 314.844 57.1536 328.651 52.7982C329.865 52.4153 331.087 52.0298 332.311 51.644C347.284 46.922 362.561 42.1214 365.938 41.3422C367.546 40.971 368.867 40.6878 369.92 40.5677C370.928 40.4528 372.132 40.4242 373.243 40.9796C374.448 41.5823 375.037 42.6083 375.386 43.3788C375.6 43.85 375.827 44.4828 376.049 45.0995ZM174.185 128.094C174.185 128.094 174.185 128.092 174.183 128.089C174.185 128.092 174.185 128.094 174.185 128.094ZM370.486 45.5355C369.758 45.6186 368.703 45.8354 367.062 46.2142C363.939 46.935 348.966 51.6344 333.814 56.4125C332.506 56.8251 331.197 57.2381 329.894 57.649C316.28 61.944 303.433 65.9969 300.606 66.7036C299.653 66.9419 299.081 67.1609 298.753 67.3213C298.792 67.4204 298.843 67.5429 298.91 67.6926C298.955 67.7941 299.009 67.912 299.069 68.0431C299.304 68.5556 299.632 69.269 299.872 69.9877C300.339 71.3887 301.917 75.279 303.566 79.3373L303.634 79.5032C305.214 83.3937 306.846 87.4111 307.372 88.9877C307.512 89.4092 307.625 89.6747 307.76 89.9897C307.862 90.2298 307.977 90.4986 308.125 90.887C308.37 91.5307 308.751 92.6309 308.52 93.864C308.26 95.2506 307.363 96.2307 306.306 96.9279C305.296 97.5936 303.933 98.1454 302.235 98.6677C299.035 99.6523 288.328 103.262 277.695 106.953C267.001 110.664 256.65 114.366 254.034 115.554C248.578 118.034 240.254 122.455 236.953 124.813C236.429 125.187 236.326 125.441 236.296 125.531C236.251 125.663 236.219 125.887 236.287 126.362C236.322 126.603 236.372 126.854 236.44 127.181L236.449 127.225C236.509 127.517 236.586 127.888 236.639 128.261C236.748 129.022 236.831 130.207 236.236 131.396C236.045 131.778 235.798 132.059 235.656 132.21C235.491 132.388 235.311 132.552 235.142 132.697C234.803 132.988 234.386 133.302 233.933 133.624C233.021 134.273 231.807 135.062 230.419 135.929C227.635 137.669 224.012 139.811 220.389 141.935C219.422 142.502 218.455 143.068 217.503 143.625C214.872 145.163 212.353 146.636 210.252 147.893C208.82 148.748 207.604 149.491 206.692 150.075C206.235 150.368 205.872 150.609 205.604 150.799C205.364 150.969 205.269 151.049 205.259 151.056C205.256 151.058 205.259 151.054 205.268 151.046C204.395 151.919 203.4 152.395 202.348 152.543C201.402 152.676 200.539 152.517 200.039 152.423L199.928 152.402C199.39 152.301 199.211 152.267 199.039 152.27C199.009 152.271 199.004 152.27 199.004 152.27C199.004 152.271 199.007 152.273 199 152.278C198.756 152.461 198.282 152.982 197.422 153.948C196.691 154.77 195.741 155.836 194.796 156.63C194.323 157.027 193.732 157.46 193.063 157.751C192.402 158.039 191.362 158.314 190.234 157.896C189.073 157.467 188.425 156.533 188.079 155.711C187.74 154.905 187.578 153.957 187.506 152.956C187.269 149.637 186.549 145.652 185.752 142.219C185.356 140.511 184.947 138.968 184.581 137.744C184.222 136.542 183.943 135.781 183.792 135.455C183.704 135.43 183.552 135.388 183.293 135.319C182.12 135.006 180.493 134.493 178.373 132.676C177.793 132.179 177.338 132.252 175.767 132.504C175.538 132.541 175.285 132.581 175.005 132.624C174.23 132.743 172.575 132.985 171.133 131.996C169.617 130.957 169.149 129.173 169.009 127.486C168.879 125.929 168.795 124.919 168.665 124.198C168.659 124.165 168.653 124.134 168.647 124.105C168.118 124.182 167.346 124.366 166.158 124.69C163.702 125.36 155.594 128.382 146.989 131.716C138.451 135.024 129.67 138.543 125.986 140.135C125.768 140.229 125.605 140.368 125.482 140.557C121.339 146.913 116.086 158.622 114.442 162.428C114.4 162.526 114.39 162.57 114.387 162.589C113.936 165.031 113.459 171.893 113.095 178.788C112.734 185.618 112.5 192.145 112.5 193.778C112.5 194.687 112.505 195.122 112.538 195.41C112.621 195.474 112.772 195.583 113.034 195.75C113.324 195.935 113.605 196.106 113.949 196.314C114.311 196.533 114.743 196.794 115.325 197.158C119.366 199.684 145.749 215.608 148.618 217.042C148.885 217.176 149.109 217.29 149.303 217.389C149.679 217.581 149.939 217.714 150.176 217.814C150.208 217.772 150.243 217.722 150.282 217.665C150.631 217.149 151.086 216.272 151.692 214.817C152.978 211.731 155.155 207.12 157.728 202.809C160.23 198.618 163.361 194.267 166.658 192.169C169.339 190.463 174.514 186.89 179.185 183.141C181.523 181.265 183.687 179.382 185.338 177.694C186.164 176.85 186.828 176.088 187.314 175.427C187.82 174.739 188.037 174.288 188.105 174.06C188.156 173.892 188.208 173.718 188.261 173.538C188.988 171.104 190.018 167.652 191.639 164.41C193.37 160.949 195.951 157.355 199.952 155.508C202.362 154.396 209.697 150.079 218.129 144.97C226.481 139.909 235.711 134.196 241.78 130.405C242.169 130.162 242.558 129.955 243.098 129.778C249.531 127.665 283.604 117.058 316.584 106.807C323.211 104.746 329.793 102.701 336.098 100.742C361.219 92.9352 381.956 86.491 383.709 85.9065C384.305 85.708 384.573 85.5463 384.677 85.4712C384.678 85.4056 384.674 85.2973 384.65 85.1318C384.566 84.5412 384.31 83.7033 383.833 82.369C383.706 82.0135 383.565 81.6267 383.414 81.2116C383.032 80.1635 382.583 78.9344 382.128 77.5688C379.634 70.0873 373.145 51.6182 371.659 47.656C371.482 47.1822 371.349 46.8112 371.24 46.5051C371.088 46.0802 370.981 45.7804 370.86 45.5043C370.764 45.5087 370.641 45.5179 370.486 45.5355ZM384.668 85.5555C384.668 85.5548 384.669 85.5475 384.673 85.5353C384.671 85.55 384.669 85.5561 384.668 85.5555ZM169.173 124.065C169.173 124.065 169.171 124.065 169.166 124.064C169.171 124.064 169.173 124.065 169.173 124.065Z" fill="black"/>
</svg>
