<svg width="522" height="252" viewBox="0 0 522 252" fill="none" xmlns="http://www.w3.org/2000/svg">
<path fill-rule="evenodd" clip-rule="evenodd" d="M521 1.5H1V0.5H521V1.5Z" fill="#20202E"/>
<path fill-rule="evenodd" clip-rule="evenodd" d="M521 11.5H1V10.5H521V11.5Z" fill="#20202E"/>
<path fill-rule="evenodd" clip-rule="evenodd" d="M521 21.5H1V20.5H521V21.5Z" fill="#20202E"/>
<path fill-rule="evenodd" clip-rule="evenodd" d="M521 31.5H1V30.5H521V31.5Z" fill="#20202E"/>
<path fill-rule="evenodd" clip-rule="evenodd" d="M521 41.5H1V40.5H521V41.5Z" fill="#20202E"/>
<path fill-rule="evenodd" clip-rule="evenodd" d="M521 51.5H1V50.5H521V51.5Z" fill="#20202E"/>
<path fill-rule="evenodd" clip-rule="evenodd" d="M521 61.5H1V60.5H521V61.5Z" fill="#20202E"/>
<path fill-rule="evenodd" clip-rule="evenodd" d="M521 71.5H1V70.5H521V71.5Z" fill="#20202E"/>
<path fill-rule="evenodd" clip-rule="evenodd" d="M521 81.5H1V80.5H521V81.5Z" fill="#20202E"/>
<path fill-rule="evenodd" clip-rule="evenodd" d="M521 91.5H1V90.5H521V91.5Z" fill="#20202E"/>
<path fill-rule="evenodd" clip-rule="evenodd" d="M521 101.5H1V100.5H521V101.5Z" fill="#20202E"/>
<path fill-rule="evenodd" clip-rule="evenodd" d="M521 111.5H1V110.5H521V111.5Z" fill="#20202E"/>
<path fill-rule="evenodd" clip-rule="evenodd" d="M521 121.5H1V120.5H521V121.5Z" fill="#20202E"/>
<path fill-rule="evenodd" clip-rule="evenodd" d="M521 131.5H1V130.5H521V131.5Z" fill="#20202E"/>
<path fill-rule="evenodd" clip-rule="evenodd" d="M521 141.5H1V140.5H521V141.5Z" fill="#20202E"/>
<path fill-rule="evenodd" clip-rule="evenodd" d="M521 151.5H1V150.5H521V151.5Z" fill="#20202E"/>
<path fill-rule="evenodd" clip-rule="evenodd" d="M521 161.5H1V160.5H521V161.5Z" fill="#20202E"/>
<path fill-rule="evenodd" clip-rule="evenodd" d="M521 171.5H1V170.5H521V171.5Z" fill="#20202E"/>
<path fill-rule="evenodd" clip-rule="evenodd" d="M521 181.5H1V180.5H521V181.5Z" fill="#20202E"/>
<path fill-rule="evenodd" clip-rule="evenodd" d="M521 191.5H1V190.5H521V191.5Z" fill="#20202E"/>
<path fill-rule="evenodd" clip-rule="evenodd" d="M521 201.5H1V200.5H521V201.5Z" fill="#20202E"/>
<path fill-rule="evenodd" clip-rule="evenodd" d="M521 211.5H1V210.5H521V211.5Z" fill="#20202E"/>
<path fill-rule="evenodd" clip-rule="evenodd" d="M521 221.5H1V220.5H521V221.5Z" fill="#20202E"/>
<path fill-rule="evenodd" clip-rule="evenodd" d="M521 231.5H1V230.5H521V231.5Z" fill="#20202E"/>
<path fill-rule="evenodd" clip-rule="evenodd" d="M521 241.5H1V240.5H521V241.5Z" fill="#20202E"/>
<path fill-rule="evenodd" clip-rule="evenodd" d="M521 251.5H1V250.5H521V251.5Z" fill="#20202E"/>
<path fill-rule="evenodd" clip-rule="evenodd" d="M0.5 251L0.5 1L1.5 1L1.5 251L0.5 251Z" fill="#20202E"/>
<path fill-rule="evenodd" clip-rule="evenodd" d="M10.5 251L10.5 1L11.5 1L11.5 251L10.5 251Z" fill="#20202E"/>
<path fill-rule="evenodd" clip-rule="evenodd" d="M20.5 251L20.5 1L21.5 1L21.5 251L20.5 251Z" fill="#20202E"/>
<path fill-rule="evenodd" clip-rule="evenodd" d="M30.5 251L30.5 1L31.5 1L31.5 251L30.5 251Z" fill="#20202E"/>
<path fill-rule="evenodd" clip-rule="evenodd" d="M40.5 251L40.5 1L41.5 1L41.5 251L40.5 251Z" fill="#20202E"/>
<path fill-rule="evenodd" clip-rule="evenodd" d="M50.5 251L50.5 1L51.5 1L51.5 251L50.5 251Z" fill="#20202E"/>
<path fill-rule="evenodd" clip-rule="evenodd" d="M60.5 251L60.5 1L61.5 1L61.5 251L60.5 251Z" fill="#20202E"/>
<path fill-rule="evenodd" clip-rule="evenodd" d="M70.5 251L70.5 1L71.5 1L71.5 251L70.5 251Z" fill="#20202E"/>
<path fill-rule="evenodd" clip-rule="evenodd" d="M80.5 251L80.5 1L81.5 1L81.5 251L80.5 251Z" fill="#20202E"/>
<path fill-rule="evenodd" clip-rule="evenodd" d="M90.5 251L90.5 1L91.5 1L91.5 251L90.5 251Z" fill="#20202E"/>
<path fill-rule="evenodd" clip-rule="evenodd" d="M100.5 251L100.5 1L101.5 1L101.5 251L100.5 251Z" fill="#20202E"/>
<path fill-rule="evenodd" clip-rule="evenodd" d="M110.5 251L110.5 1L111.5 1L111.5 251L110.5 251Z" fill="#20202E"/>
<path fill-rule="evenodd" clip-rule="evenodd" d="M120.5 251L120.5 1L121.5 1L121.5 251L120.5 251Z" fill="#20202E"/>
<path fill-rule="evenodd" clip-rule="evenodd" d="M130.5 251L130.5 1L131.5 1L131.5 251L130.5 251Z" fill="#20202E"/>
<path fill-rule="evenodd" clip-rule="evenodd" d="M140.5 251L140.5 1L141.5 1L141.5 251L140.5 251Z" fill="#20202E"/>
<path fill-rule="evenodd" clip-rule="evenodd" d="M150.5 251L150.5 1L151.5 1L151.5 251L150.5 251Z" fill="#20202E"/>
<path fill-rule="evenodd" clip-rule="evenodd" d="M160.5 251L160.5 1L161.5 1L161.5 251L160.5 251Z" fill="#20202E"/>
<path fill-rule="evenodd" clip-rule="evenodd" d="M170.5 251L170.5 1L171.5 1L171.5 251L170.5 251Z" fill="#20202E"/>
<path fill-rule="evenodd" clip-rule="evenodd" d="M180.5 251L180.5 1L181.5 1L181.5 251L180.5 251Z" fill="#20202E"/>
<path fill-rule="evenodd" clip-rule="evenodd" d="M190.5 251L190.5 1L191.5 1L191.5 251L190.5 251Z" fill="#20202E"/>
<path fill-rule="evenodd" clip-rule="evenodd" d="M200.5 251L200.5 1L201.5 1L201.5 251L200.5 251Z" fill="#20202E"/>
<path fill-rule="evenodd" clip-rule="evenodd" d="M210.5 251L210.5 1L211.5 1L211.5 251L210.5 251Z" fill="#20202E"/>
<path fill-rule="evenodd" clip-rule="evenodd" d="M220.5 251L220.5 1L221.5 1L221.5 251L220.5 251Z" fill="#20202E"/>
<path fill-rule="evenodd" clip-rule="evenodd" d="M230.5 251L230.5 1L231.5 1L231.5 251L230.5 251Z" fill="#20202E"/>
<path fill-rule="evenodd" clip-rule="evenodd" d="M240.5 251L240.5 1L241.5 1L241.5 251L240.5 251Z" fill="#20202E"/>
<path fill-rule="evenodd" clip-rule="evenodd" d="M250.5 251L250.5 1L251.5 1L251.5 251L250.5 251Z" fill="#20202E"/>
<path fill-rule="evenodd" clip-rule="evenodd" d="M260.5 251L260.5 1L261.5 1L261.5 251L260.5 251Z" fill="#20202E"/>
<path fill-rule="evenodd" clip-rule="evenodd" d="M270.5 251L270.5 1L271.5 1L271.5 251L270.5 251Z" fill="#20202E"/>
<path fill-rule="evenodd" clip-rule="evenodd" d="M280.5 251L280.5 1L281.5 1L281.5 251L280.5 251Z" fill="#20202E"/>
<path fill-rule="evenodd" clip-rule="evenodd" d="M290.5 251L290.5 1L291.5 1L291.5 251L290.5 251Z" fill="#20202E"/>
<path fill-rule="evenodd" clip-rule="evenodd" d="M300.5 251L300.5 1L301.5 1L301.5 251L300.5 251Z" fill="#20202E"/>
<path fill-rule="evenodd" clip-rule="evenodd" d="M310.5 251L310.5 1L311.5 1L311.5 251L310.5 251Z" fill="#20202E"/>
<path fill-rule="evenodd" clip-rule="evenodd" d="M320.5 251L320.5 1L321.5 1L321.5 251L320.5 251Z" fill="#20202E"/>
<path fill-rule="evenodd" clip-rule="evenodd" d="M330.5 251L330.5 1L331.5 1L331.5 251L330.5 251Z" fill="#20202E"/>
<path fill-rule="evenodd" clip-rule="evenodd" d="M340.5 251L340.5 1L341.5 1L341.5 251L340.5 251Z" fill="#20202E"/>
<path fill-rule="evenodd" clip-rule="evenodd" d="M350.5 251L350.5 1L351.5 1L351.5 251L350.5 251Z" fill="#20202E"/>
<path fill-rule="evenodd" clip-rule="evenodd" d="M360.5 251L360.5 1L361.5 1L361.5 251L360.5 251Z" fill="#20202E"/>
<path fill-rule="evenodd" clip-rule="evenodd" d="M370.5 251L370.5 1L371.5 1L371.5 251L370.5 251Z" fill="#20202E"/>
<path fill-rule="evenodd" clip-rule="evenodd" d="M380.5 251L380.5 1L381.5 1L381.5 251L380.5 251Z" fill="#20202E"/>
<path fill-rule="evenodd" clip-rule="evenodd" d="M390.5 251L390.5 1L391.5 1L391.5 251L390.5 251Z" fill="#20202E"/>
<path fill-rule="evenodd" clip-rule="evenodd" d="M400.5 251L400.5 1L401.5 1L401.5 251L400.5 251Z" fill="#20202E"/>
<path fill-rule="evenodd" clip-rule="evenodd" d="M410.5 251L410.5 1L411.5 1L411.5 251L410.5 251Z" fill="#20202E"/>
<path fill-rule="evenodd" clip-rule="evenodd" d="M420.5 251L420.5 1L421.5 1L421.5 251L420.5 251Z" fill="#20202E"/>
<path fill-rule="evenodd" clip-rule="evenodd" d="M430.5 251L430.5 1L431.5 1L431.5 251L430.5 251Z" fill="#20202E"/>
<path fill-rule="evenodd" clip-rule="evenodd" d="M440.5 251L440.5 1L441.5 1L441.5 251L440.5 251Z" fill="#20202E"/>
<path fill-rule="evenodd" clip-rule="evenodd" d="M450.5 251L450.5 1L451.5 1L451.5 251L450.5 251Z" fill="#20202E"/>
<path fill-rule="evenodd" clip-rule="evenodd" d="M460.5 251L460.5 1L461.5 1L461.5 251L460.5 251Z" fill="#20202E"/>
<path fill-rule="evenodd" clip-rule="evenodd" d="M470.5 251L470.5 1L471.5 1L471.5 251L470.5 251Z" fill="#20202E"/>
<path fill-rule="evenodd" clip-rule="evenodd" d="M480.5 251L480.5 1L481.5 1L481.5 251L480.5 251Z" fill="#20202E"/>
<path fill-rule="evenodd" clip-rule="evenodd" d="M490.5 251L490.5 1L491.5 1L491.5 251L490.5 251Z" fill="#20202E"/>
<path fill-rule="evenodd" clip-rule="evenodd" d="M500.5 251L500.5 1L501.5 1L501.5 251L500.5 251Z" fill="#20202E"/>
<path fill-rule="evenodd" clip-rule="evenodd" d="M510.5 251L510.5 1L511.5 1L511.5 251L510.5 251Z" fill="#20202E"/>
<path fill-rule="evenodd" clip-rule="evenodd" d="M520.5 251L520.5 1L521.5 1L521.5 251L520.5 251Z" fill="#20202E"/>
<path fill-rule="evenodd" clip-rule="evenodd" d="M349.155 30.0521C349.43 30.2001 349.668 30.3281 349.867 30.4271C350.302 30.6451 350.77 30.877 351.262 31.1215C353.916 32.4386 357.302 34.1196 360.474 35.9407C364.073 38.0063 368.618 40.918 371.969 44.6879C376.896 50.2307 386.469 65.2914 393.365 77.1138C396.936 83.2344 399.246 87.7159 400.622 91.4129C402.211 95.6851 402.5 98.7695 402.5 101.66C402.5 103.93 402.302 106.87 402.048 110.647C401.871 113.272 401.667 116.301 401.483 119.791C401.163 125.883 399.684 132.107 396.261 137.182C392.601 142.609 386.629 146.66 379 146.66C375.843 146.66 371.618 145.741 368.243 144.93C364.364 143.998 359.777 142.734 355.11 141.359C345.801 138.617 335.636 135.277 329.286 132.896C321.211 129.868 315.086 125.154 310.852 118.853C306.764 112.768 305.003 106.034 304.121 99.8573C302.733 90.1444 307.071 81.8385 310.564 76.1046C311.599 74.4057 312.746 72.6518 313.873 70.9579C313.732 71.0471 313.594 71.1355 313.458 71.2231C312.468 71.8596 311.632 72.4206 310.975 72.8861C310.649 73.1175 310.39 73.3081 310.195 73.4582C310.173 73.4746 310.153 73.4903 310.134 73.5052C310.046 73.634 309.893 73.8697 309.681 74.2462C309.122 75.2387 308.493 76.5737 307.661 78.4547C307.47 78.8863 307.266 79.3538 307.049 79.8505C305.609 83.1518 303.607 87.7406 301.094 91.6493C292.977 104.275 278.787 106.753 266.614 103.173C260.736 101.444 256.524 97.2793 254.728 91.7903C253.245 87.2588 253.729 82.7854 254.248 79.8688C254.593 77.9343 255.089 76.0063 255.598 74.2491C253.477 75.0882 251.223 76.0023 248.956 76.9389C244.722 78.6876 240.527 80.4791 237.198 81.9461C235.888 82.5232 234.734 83.0408 233.776 83.4794C233.762 83.5423 233.748 83.6074 233.734 83.6746C233.451 84.9923 233.186 86.6448 232.879 88.7948C232.78 89.4906 232.672 90.267 232.558 91.0907C232.347 92.6151 232.113 94.3017 231.867 95.9403C231.761 96.6481 231.724 97.1251 231.713 97.4237C232.244 97.9633 233.33 98.8773 235.556 100.374C237.943 101.98 241.018 103.852 245.22 106.398C252.291 110.684 268.905 117.085 286.669 123.892C295.184 127.155 303.716 130.429 310.721 133.368C314.225 134.838 317.491 136.284 320.266 137.656C322.854 138.936 325.709 140.484 327.936 142.242C336.403 148.927 339.251 159.22 340.433 167.218C341.536 174.674 341.517 182.772 341.503 189.135C341.501 189.832 341.5 190.508 341.5 191.16C341.5 199.926 339.455 207.71 334.198 213.594C329.022 219.385 322.351 221.491 317.211 222.455C315.08 222.854 310.853 223.029 306.719 223.168C301.999 223.327 295.742 223.467 288.482 223.588C273.948 223.832 255.21 224.004 236.31 224.098C198.883 224.283 159.735 224.172 152.145 223.63C131.724 222.171 114.92 204.811 108.962 183.957C105.782 172.827 106.615 163.298 107.973 156.356C108.19 155.246 108.431 154.164 108.668 153.158C105.407 151.708 100.864 149.316 97.1541 145.269C88.9235 136.29 92.6728 125.583 95.7587 120.161C99.0748 114.336 104.271 109.149 108.834 105.428C110.704 103.855 113.611 101.976 116.517 100.18C119.774 98.1665 123.917 95.7235 128.681 92.984C138.222 87.4975 150.523 80.6671 163.769 73.426C190.274 58.9358 220.782 42.6806 241.049 31.9956C243.413 30.7492 245.898 30.1917 248.287 30.1526C252.742 30.0797 264.459 29.5637 277.886 28.9724C280.669 28.8499 283.525 28.7241 286.405 28.5983C302.854 27.8802 320.154 27.1602 327.5 27.1602C330.973 27.1602 333.354 27.1007 335.118 27.0549C335.253 27.0514 335.39 27.0477 335.53 27.0439C336.94 27.0058 338.62 26.9603 340.074 27.068C344.17 27.3714 347.411 29.1145 349.155 30.0521ZM347.064 55.9372C347.556 56.2058 348.043 56.4779 348.526 56.7548C351.677 58.5641 353.382 59.9025 354.031 60.6326C357.104 64.0898 365.531 77.0291 372.635 89.2067C376.064 95.086 377.504 98.1046 378.128 99.7825C378.403 100.52 378.457 100.838 378.468 100.906C378.478 100.97 378.5 101.098 378.5 101.66C378.5 103.304 378.383 104.969 378.192 107.673C378.017 110.154 377.781 113.511 377.517 118.53C377.432 120.135 377.211 121.38 376.956 122.286C376.172 122.128 375.146 121.905 373.85 121.594C370.511 120.792 366.348 119.649 361.89 118.337C352.949 115.703 343.364 112.543 337.713 110.424C333.789 108.953 331.914 107.166 330.773 105.468C329.486 103.552 328.497 100.786 327.879 96.4632C327.767 95.676 327.929 93.7319 331.061 88.5908C332.183 86.7484 333.411 84.9133 334.841 82.7756C335.315 82.0675 335.811 81.3261 336.333 80.5403C338.326 77.5391 340.544 74.1031 342.566 70.3494C344.82 66.1625 346.861 61.0837 347.064 55.9372ZM298.877 52.0858C295.156 52.2414 291.307 52.4072 287.452 52.5755C284.656 52.6976 281.857 52.8209 279.108 52.942C279.067 52.9439 279.025 52.9457 278.984 52.9475C283.59 58.8513 282.887 66.0903 281.642 71.0707C281.135 73.0968 280.392 75.4022 279.783 77.2876C279.646 77.7133 279.516 78.1176 279.396 78.4924C279.18 79.1744 278.983 79.8086 278.806 80.4001C279.589 80.1354 280.27 79.66 280.906 78.6711C282.298 76.5056 283.448 73.8911 284.972 70.4258C285.209 69.8853 285.456 69.3241 285.714 68.7408C286.569 66.8093 287.597 64.5505 288.772 62.4648C289.892 60.4772 291.59 57.8233 294.098 55.6293C295.293 54.5835 296.97 53.3616 298.877 52.0858ZM211.192 75.0588C199.249 81.4632 186.875 88.1462 175.281 94.4846C162.091 101.695 149.965 108.43 140.645 113.789C135.979 116.473 132.083 118.773 129.137 120.594C127.662 121.506 126.485 122.26 125.599 122.858C124.738 123.438 124.374 123.722 124.317 123.766C124.31 123.771 124.307 123.773 124.309 123.771L124.19 123.874L124.067 123.974C121.263 126.252 118.905 128.703 117.44 130.757C118.176 131.117 119.096 131.524 120.256 132.002C120.389 132.056 120.536 132.116 120.694 132.181C121.981 132.706 124.037 133.544 125.766 134.524C127.429 135.466 131.917 138.188 133.538 143.864C134.372 146.781 134.063 149.401 133.901 150.552C133.707 151.938 133.379 153.308 133.126 154.321C132.97 154.943 132.818 155.53 132.67 156.103C132.262 157.682 131.881 159.153 131.527 160.964C130.635 165.523 130.218 170.993 132.038 177.364C136.08 191.509 146.276 199.149 153.855 199.691C160.265 200.149 198.117 200.287 236.19 200.098C255.04 200.004 273.676 199.833 288.08 199.592C295.289 199.471 301.391 199.334 305.913 199.182C309.751 199.053 311.777 198.925 312.492 198.88C312.728 198.865 312.821 198.86 312.788 198.866C315.649 198.329 316.228 197.685 316.302 197.602C316.356 197.541 316.621 197.239 316.898 196.347C317.194 195.393 317.5 193.764 317.5 191.16C317.5 190.521 317.501 189.886 317.501 189.254C317.509 182.574 317.516 176.303 316.691 170.728C315.749 164.35 314.097 161.894 313.064 161.079C313.079 161.09 312.831 160.901 312.165 160.513C311.534 160.146 310.696 159.698 309.629 159.17C307.485 158.11 304.728 156.88 301.436 155.499C294.846 152.735 286.691 149.603 278.081 146.303C277.499 146.08 276.913 145.856 276.324 145.63C260.238 139.469 241.876 132.435 232.78 126.923C228.732 124.469 225.119 122.278 222.163 120.29C219.248 118.329 216.319 116.144 213.919 113.535C211.325 110.716 209.302 107.358 208.333 103.231C207.422 99.3499 207.647 95.6211 208.133 92.3801C208.316 91.1581 208.499 89.837 208.688 88.4804C209.158 85.0926 209.658 81.4839 210.266 78.6459C210.503 77.54 210.8 76.318 211.192 75.0588Z" fill="white"/>
<path fill-rule="evenodd" clip-rule="evenodd" d="M344.3 38.2492C344.702 38.4581 345.137 38.6834 345.618 38.9238C346.094 39.162 346.59 39.4084 347.102 39.6625C349.764 40.9848 352.846 42.5153 355.744 44.1792C359.166 46.1434 362.587 48.4323 364.868 50.9989C369.061 55.7162 378.181 69.9371 385.159 81.9001C388.674 87.9253 390.64 91.8277 391.718 94.7255C392.841 97.7431 393 99.6722 393 101.66C393 103.675 392.836 106.069 392.606 109.441C392.428 112.048 392.21 115.239 391.996 119.291C391.732 124.321 390.533 128.685 388.385 131.87C386.188 135.128 382.964 137.16 379 137.16C377.155 137.16 374.023 136.548 370.463 135.692C366.797 134.812 362.378 133.596 357.793 132.245C348.63 129.547 338.695 126.278 332.622 124.001C326.19 121.589 321.747 118.034 318.737 113.554C315.758 109.12 314.302 103.956 313.525 98.5134C312.642 92.3336 315.327 86.5459 318.677 81.0467C319.975 78.9161 321.439 76.7283 322.916 74.5223C323.362 73.8559 323.809 73.1878 324.253 72.5191C326.188 69.6043 328.105 66.6196 329.799 63.4746C333.238 57.0868 332.726 54.2451 332.133 53.3027C331.631 52.5037 330.232 51.9502 328.218 52.5544C326.04 53.2079 320.913 55.8028 315.615 58.8304C310.338 61.8458 305.429 64.981 303.646 66.5413C302.96 67.1415 302.219 68.1367 301.404 69.5824C300.601 71.0075 299.815 72.7082 298.973 74.6092C298.753 75.1067 298.529 75.6182 298.301 76.1401C296.828 79.5062 295.166 83.3018 293.103 86.5117C287.849 94.6838 278.56 96.7833 269.294 94.0582C266.388 93.2033 264.57 91.3213 263.757 88.8357C263.009 86.5495 263.171 83.9476 263.601 81.534C264.039 79.0753 264.819 76.4841 265.578 74.0974C265.74 73.5875 265.901 73.089 266.058 72.6022C266.655 70.7452 267.198 69.0582 267.574 67.5535C268.518 63.7794 267.918 62.3081 267.51 61.8145C267.135 61.3602 266.235 60.9269 264.276 61.1445C263.995 61.1757 263.25 61.355 261.96 61.7682C260.74 62.1588 259.206 62.7007 257.45 63.3543C253.942 64.6603 249.628 66.3824 245.329 68.158C236.638 71.7477 228.318 75.4289 226.74 76.3304C226.477 76.4807 226.078 76.8552 225.634 77.7925C225.192 78.7254 224.803 80.0093 224.444 81.6836C223.952 83.9812 223.577 86.6864 223.148 89.788C222.942 91.2778 222.723 92.8591 222.472 94.5307C222.12 96.8763 222.129 98.5539 222.449 99.9165C222.757 101.228 223.393 102.416 224.59 103.717C225.827 105.062 227.633 106.494 230.254 108.257C232.867 110.014 236.155 112.012 240.296 114.522C248.252 119.344 265.799 126.068 282.959 132.644L283.269 132.763C291.822 136.04 300.205 139.258 307.045 142.128C310.466 143.563 313.53 144.923 316.055 146.172C318.541 147.401 320.645 148.589 322.049 149.698C327.573 154.059 329.948 161.25 331.035 168.607C332.027 175.313 332.014 182.681 332.002 189.147C332.001 189.829 332 190.5 332 191.16C332 198.528 330.287 203.712 327.114 207.263C323.958 210.795 319.698 212.322 315.461 213.117C314.225 213.349 310.92 213.521 306.4 213.673C301.758 213.829 295.563 213.968 288.323 214.089C273.841 214.332 255.142 214.504 236.262 214.597C198.579 214.784 159.945 214.662 152.822 214.153C137.484 213.058 123.296 199.545 118.096 181.347C115.454 172.101 116.123 164.178 117.296 158.18C117.742 155.901 118.271 153.858 118.703 152.192C118.832 151.694 118.952 151.23 119.059 150.803C119.299 149.844 119.462 149.11 119.542 148.54C119.598 148.135 119.594 147.93 119.591 147.858C119.539 147.789 119.325 147.54 118.619 147.14C117.754 146.65 116.622 146.184 115.154 145.581C115.018 145.525 114.878 145.468 114.735 145.409C111.582 144.111 107.33 142.31 104.157 138.849C100.265 134.604 101.541 129.206 104.015 124.861C106.536 120.431 110.784 116.086 114.899 112.739C116.12 111.699 118.458 110.148 121.512 108.26C124.646 106.323 128.691 103.936 133.417 101.219C142.87 95.7828 155.102 88.9903 168.325 81.7613C194.775 67.3015 225.238 51.0702 245.48 40.3988C246.427 39.8992 247.431 39.6675 248.443 39.6509C253.043 39.5756 264.953 39.051 278.37 38.46C281.139 38.338 283.972 38.2132 286.819 38.0889C303.389 37.3655 320.417 36.6598 327.5 36.6598C331.093 36.6598 333.568 36.5979 335.365 36.5513L335.631 36.5443C337.233 36.5024 338.423 36.4713 339.372 36.5417C341.279 36.6829 342.459 37.2946 344.3 38.2492ZM335.494 41.5496C333.681 41.5967 331.157 41.6598 327.5 41.6598C320.556 41.6598 303.671 42.3579 287.037 43.0841C284.208 43.2076 281.386 43.3319 278.624 43.4536C265.213 44.0445 253.202 44.5737 248.525 44.6503C248.237 44.655 248.013 44.7152 247.811 44.8218C227.584 55.486 197.144 71.7047 170.724 86.1485C157.512 93.3712 145.317 100.144 135.909 105.553C131.204 108.259 127.21 110.616 124.141 112.513C121.015 114.445 118.998 115.811 118.127 116.558L118.102 116.579L118.076 116.6C114.199 119.751 110.458 123.648 108.36 127.334C106.209 131.113 106.234 133.716 107.843 135.471C110.17 138.009 113.418 139.459 116.639 140.786C116.794 140.849 116.95 140.913 117.107 140.978C118.486 141.543 119.926 142.134 121.084 142.789C122.314 143.486 123.868 144.598 124.404 146.473C124.676 147.427 124.606 148.431 124.493 149.233C124.374 150.085 124.154 151.038 123.91 152.016C123.787 152.505 123.656 153.012 123.52 153.538C123.093 155.185 122.617 157.025 122.203 159.14C121.127 164.642 120.545 171.719 122.904 179.973C127.704 196.774 140.516 208.262 153.178 209.166C160.055 209.657 198.42 209.785 236.237 209.597C255.107 209.504 273.784 209.332 288.239 209.09C295.468 208.969 301.632 208.83 306.232 208.676C310.955 208.517 313.775 208.346 314.539 208.203C318.302 207.497 321.292 206.274 323.386 203.931C325.462 201.608 327 197.792 327 191.16C327 190.502 327.001 189.838 327.002 189.169C327.012 182.64 327.023 175.653 326.089 169.338C325.052 162.319 322.926 156.761 318.951 153.622C317.98 152.855 316.271 151.856 313.839 150.654C311.446 149.47 308.487 148.155 305.111 146.739C298.357 143.905 290.053 140.717 281.48 137.432L280.577 137.086C263.844 130.674 246.049 123.855 237.704 118.798C233.595 116.307 230.195 114.243 227.464 112.406C224.742 110.575 222.548 108.883 220.91 107.102C219.232 105.278 218.117 103.342 217.582 101.059C217.058 98.8282 217.129 96.4433 217.527 93.789C217.753 92.2826 217.96 90.7901 218.161 89.3403C218.607 86.1234 219.024 83.1168 219.555 80.636C219.946 78.8103 220.432 77.0942 221.115 75.6521C221.796 74.2144 222.772 72.8389 224.259 71.9892C226.182 70.8908 234.861 67.072 243.42 63.5367C247.747 61.7498 252.12 60.0031 255.706 58.6684C257.497 58.0018 259.111 57.4304 260.435 57.0065C261.687 56.6052 262.88 56.2689 263.724 56.1751C266.265 55.8928 269.365 56.2095 271.365 58.6301C273.332 61.0116 273.482 64.5403 272.425 68.7662C272.004 70.4489 271.393 72.3465 270.789 74.2225C270.639 74.6885 270.489 75.1531 270.343 75.6128C269.587 77.9918 268.898 80.3069 268.524 82.4106C268.141 84.5595 268.147 86.1764 268.509 87.2808C268.805 88.1858 269.362 88.8663 270.705 89.2614C278.44 91.5363 285.15 89.6359 288.897 83.8079C290.727 80.9611 292.211 77.5768 293.7 74.1794C293.933 73.6477 294.166 73.1157 294.401 72.5855C295.247 70.6739 296.117 68.7808 297.048 67.1279C297.968 65.4954 299.039 63.9282 300.354 62.7784C302.57 60.8386 307.911 57.4738 313.134 54.4892C318.336 51.5168 323.96 48.6117 326.781 47.7653C329.767 46.8695 334.119 47.0659 336.366 50.6419C338.524 54.0746 337.761 59.2328 334.201 65.8451C332.394 69.2 330.374 72.3403 328.418 75.2849C327.949 75.9922 327.485 76.6851 327.029 77.3662C325.566 79.5523 324.184 81.6173 322.947 83.648C319.672 89.0237 317.857 93.486 318.475 97.8063C319.197 102.863 320.492 107.2 322.887 110.766C325.253 114.286 328.81 117.231 334.378 119.319C340.305 121.542 350.119 124.773 359.206 127.449C363.747 128.786 368.078 129.977 371.631 130.831C375.289 131.71 377.845 132.16 379 132.16C381.035 132.16 382.812 131.191 384.24 129.074C385.717 126.885 386.768 123.499 387.003 119.028C387.233 114.658 387.458 111.397 387.636 108.82C387.853 105.672 388 103.544 388 101.66C388 100.147 387.909 98.8265 387.032 96.4692C386.11 93.992 384.326 90.3944 380.84 84.4195C373.819 72.3825 364.938 58.6035 361.131 54.3207C359.413 52.3874 356.584 50.4263 353.255 48.5155C350.5 46.9337 347.577 45.4818 344.913 44.1583C344.392 43.8992 343.88 43.6451 343.382 43.3959C342.666 43.038 342.104 42.7512 341.653 42.5207C340.008 41.6816 339.827 41.5891 339.003 41.528C338.316 41.4771 337.366 41.501 335.494 41.5496Z" fill="black"/>
</svg>
