<svg width="522" height="252" viewBox="0 0 522 252" fill="none" xmlns="http://www.w3.org/2000/svg">
<path fill-rule="evenodd" clip-rule="evenodd" d="M521 1.5H1V0.5H521V1.5Z" fill="#20202E"/>
<path fill-rule="evenodd" clip-rule="evenodd" d="M521 11.5H1V10.5H521V11.5Z" fill="#20202E"/>
<path fill-rule="evenodd" clip-rule="evenodd" d="M521 21.5H1V20.5H521V21.5Z" fill="#20202E"/>
<path fill-rule="evenodd" clip-rule="evenodd" d="M521 31.5H1V30.5H521V31.5Z" fill="#20202E"/>
<path fill-rule="evenodd" clip-rule="evenodd" d="M521 41.5H1V40.5H521V41.5Z" fill="#20202E"/>
<path fill-rule="evenodd" clip-rule="evenodd" d="M521 51.5H1V50.5H521V51.5Z" fill="#20202E"/>
<path fill-rule="evenodd" clip-rule="evenodd" d="M521 61.5H1V60.5H521V61.5Z" fill="#20202E"/>
<path fill-rule="evenodd" clip-rule="evenodd" d="M521 71.5H1V70.5H521V71.5Z" fill="#20202E"/>
<path fill-rule="evenodd" clip-rule="evenodd" d="M521 81.5H1V80.5H521V81.5Z" fill="#20202E"/>
<path fill-rule="evenodd" clip-rule="evenodd" d="M521 91.5H1V90.5H521V91.5Z" fill="#20202E"/>
<path fill-rule="evenodd" clip-rule="evenodd" d="M521 101.5H1V100.5H521V101.5Z" fill="#20202E"/>
<path fill-rule="evenodd" clip-rule="evenodd" d="M521 111.5H1V110.5H521V111.5Z" fill="#20202E"/>
<path fill-rule="evenodd" clip-rule="evenodd" d="M521 121.5H1V120.5H521V121.5Z" fill="#20202E"/>
<path fill-rule="evenodd" clip-rule="evenodd" d="M521 131.5H1V130.5H521V131.5Z" fill="#20202E"/>
<path fill-rule="evenodd" clip-rule="evenodd" d="M521 141.5H1V140.5H521V141.5Z" fill="#20202E"/>
<path fill-rule="evenodd" clip-rule="evenodd" d="M521 151.5H1V150.5H521V151.5Z" fill="#20202E"/>
<path fill-rule="evenodd" clip-rule="evenodd" d="M521 161.5H1V160.5H521V161.5Z" fill="#20202E"/>
<path fill-rule="evenodd" clip-rule="evenodd" d="M521 171.5H1V170.5H521V171.5Z" fill="#20202E"/>
<path fill-rule="evenodd" clip-rule="evenodd" d="M521 181.5H1V180.5H521V181.5Z" fill="#20202E"/>
<path fill-rule="evenodd" clip-rule="evenodd" d="M521 191.5H1V190.5H521V191.5Z" fill="#20202E"/>
<path fill-rule="evenodd" clip-rule="evenodd" d="M521 201.5H1V200.5H521V201.5Z" fill="#20202E"/>
<path fill-rule="evenodd" clip-rule="evenodd" d="M521 211.5H1V210.5H521V211.5Z" fill="#20202E"/>
<path fill-rule="evenodd" clip-rule="evenodd" d="M521 221.5H1V220.5H521V221.5Z" fill="#20202E"/>
<path fill-rule="evenodd" clip-rule="evenodd" d="M521 231.5H1V230.5H521V231.5Z" fill="#20202E"/>
<path fill-rule="evenodd" clip-rule="evenodd" d="M521 241.5H1V240.5H521V241.5Z" fill="#20202E"/>
<path fill-rule="evenodd" clip-rule="evenodd" d="M521 251.5H1V250.5H521V251.5Z" fill="#20202E"/>
<path fill-rule="evenodd" clip-rule="evenodd" d="M0.5 251L0.5 1L1.5 1L1.5 251L0.5 251Z" fill="#20202E"/>
<path fill-rule="evenodd" clip-rule="evenodd" d="M10.5 251L10.5 1L11.5 1L11.5 251L10.5 251Z" fill="#20202E"/>
<path fill-rule="evenodd" clip-rule="evenodd" d="M20.5 251L20.5 1L21.5 1L21.5 251L20.5 251Z" fill="#20202E"/>
<path fill-rule="evenodd" clip-rule="evenodd" d="M30.5 251L30.5 1L31.5 1L31.5 251L30.5 251Z" fill="#20202E"/>
<path fill-rule="evenodd" clip-rule="evenodd" d="M40.5 251L40.5 1L41.5 1L41.5 251L40.5 251Z" fill="#20202E"/>
<path fill-rule="evenodd" clip-rule="evenodd" d="M50.5 251L50.5 1L51.5 1L51.5 251L50.5 251Z" fill="#20202E"/>
<path fill-rule="evenodd" clip-rule="evenodd" d="M60.5 251L60.5 1L61.5 1L61.5 251L60.5 251Z" fill="#20202E"/>
<path fill-rule="evenodd" clip-rule="evenodd" d="M70.5 251L70.5 1L71.5 1L71.5 251L70.5 251Z" fill="#20202E"/>
<path fill-rule="evenodd" clip-rule="evenodd" d="M80.5 251L80.5 1L81.5 1L81.5 251L80.5 251Z" fill="#20202E"/>
<path fill-rule="evenodd" clip-rule="evenodd" d="M90.5 251L90.5 1L91.5 1L91.5 251L90.5 251Z" fill="#20202E"/>
<path fill-rule="evenodd" clip-rule="evenodd" d="M100.5 251L100.5 1L101.5 1L101.5 251L100.5 251Z" fill="#20202E"/>
<path fill-rule="evenodd" clip-rule="evenodd" d="M110.5 251L110.5 1L111.5 1L111.5 251L110.5 251Z" fill="#20202E"/>
<path fill-rule="evenodd" clip-rule="evenodd" d="M120.5 251L120.5 1L121.5 1L121.5 251L120.5 251Z" fill="#20202E"/>
<path fill-rule="evenodd" clip-rule="evenodd" d="M130.5 251L130.5 1L131.5 1L131.5 251L130.5 251Z" fill="#20202E"/>
<path fill-rule="evenodd" clip-rule="evenodd" d="M140.5 251L140.5 1L141.5 1L141.5 251L140.5 251Z" fill="#20202E"/>
<path fill-rule="evenodd" clip-rule="evenodd" d="M150.5 251L150.5 1L151.5 1L151.5 251L150.5 251Z" fill="#20202E"/>
<path fill-rule="evenodd" clip-rule="evenodd" d="M160.5 251L160.5 1L161.5 1L161.5 251L160.5 251Z" fill="#20202E"/>
<path fill-rule="evenodd" clip-rule="evenodd" d="M170.5 251L170.5 1L171.5 1L171.5 251L170.5 251Z" fill="#20202E"/>
<path fill-rule="evenodd" clip-rule="evenodd" d="M180.5 251L180.5 1L181.5 1L181.5 251L180.5 251Z" fill="#20202E"/>
<path fill-rule="evenodd" clip-rule="evenodd" d="M190.5 251L190.5 1L191.5 1L191.5 251L190.5 251Z" fill="#20202E"/>
<path fill-rule="evenodd" clip-rule="evenodd" d="M200.5 251L200.5 1L201.5 1L201.5 251L200.5 251Z" fill="#20202E"/>
<path fill-rule="evenodd" clip-rule="evenodd" d="M210.5 251L210.5 1L211.5 1L211.5 251L210.5 251Z" fill="#20202E"/>
<path fill-rule="evenodd" clip-rule="evenodd" d="M220.5 251L220.5 1L221.5 1L221.5 251L220.5 251Z" fill="#20202E"/>
<path fill-rule="evenodd" clip-rule="evenodd" d="M230.5 251L230.5 1L231.5 1L231.5 251L230.5 251Z" fill="#20202E"/>
<path fill-rule="evenodd" clip-rule="evenodd" d="M240.5 251L240.5 1L241.5 1L241.5 251L240.5 251Z" fill="#20202E"/>
<path fill-rule="evenodd" clip-rule="evenodd" d="M250.5 251L250.5 1L251.5 1L251.5 251L250.5 251Z" fill="#20202E"/>
<path fill-rule="evenodd" clip-rule="evenodd" d="M260.5 251L260.5 1L261.5 1L261.5 251L260.5 251Z" fill="#20202E"/>
<path fill-rule="evenodd" clip-rule="evenodd" d="M270.5 251L270.5 1L271.5 1L271.5 251L270.5 251Z" fill="#20202E"/>
<path fill-rule="evenodd" clip-rule="evenodd" d="M280.5 251L280.5 1L281.5 1L281.5 251L280.5 251Z" fill="#20202E"/>
<path fill-rule="evenodd" clip-rule="evenodd" d="M290.5 251L290.5 1L291.5 1L291.5 251L290.5 251Z" fill="#20202E"/>
<path fill-rule="evenodd" clip-rule="evenodd" d="M300.5 251L300.5 1L301.5 1L301.5 251L300.5 251Z" fill="#20202E"/>
<path fill-rule="evenodd" clip-rule="evenodd" d="M310.5 251L310.5 1L311.5 1L311.5 251L310.5 251Z" fill="#20202E"/>
<path fill-rule="evenodd" clip-rule="evenodd" d="M320.5 251L320.5 1L321.5 1L321.5 251L320.5 251Z" fill="#20202E"/>
<path fill-rule="evenodd" clip-rule="evenodd" d="M330.5 251L330.5 1L331.5 1L331.5 251L330.5 251Z" fill="#20202E"/>
<path fill-rule="evenodd" clip-rule="evenodd" d="M340.5 251L340.5 1L341.5 1L341.5 251L340.5 251Z" fill="#20202E"/>
<path fill-rule="evenodd" clip-rule="evenodd" d="M350.5 251L350.5 1L351.5 1L351.5 251L350.5 251Z" fill="#20202E"/>
<path fill-rule="evenodd" clip-rule="evenodd" d="M360.5 251L360.5 1L361.5 1L361.5 251L360.5 251Z" fill="#20202E"/>
<path fill-rule="evenodd" clip-rule="evenodd" d="M370.5 251L370.5 1L371.5 1L371.5 251L370.5 251Z" fill="#20202E"/>
<path fill-rule="evenodd" clip-rule="evenodd" d="M380.5 251L380.5 1L381.5 1L381.5 251L380.5 251Z" fill="#20202E"/>
<path fill-rule="evenodd" clip-rule="evenodd" d="M390.5 251L390.5 1L391.5 1L391.5 251L390.5 251Z" fill="#20202E"/>
<path fill-rule="evenodd" clip-rule="evenodd" d="M400.5 251L400.5 1L401.5 1L401.5 251L400.5 251Z" fill="#20202E"/>
<path fill-rule="evenodd" clip-rule="evenodd" d="M410.5 251L410.5 1L411.5 1L411.5 251L410.5 251Z" fill="#20202E"/>
<path fill-rule="evenodd" clip-rule="evenodd" d="M420.5 251L420.5 1L421.5 1L421.5 251L420.5 251Z" fill="#20202E"/>
<path fill-rule="evenodd" clip-rule="evenodd" d="M430.5 251L430.5 1L431.5 1L431.5 251L430.5 251Z" fill="#20202E"/>
<path fill-rule="evenodd" clip-rule="evenodd" d="M440.5 251L440.5 1L441.5 1L441.5 251L440.5 251Z" fill="#20202E"/>
<path fill-rule="evenodd" clip-rule="evenodd" d="M450.5 251L450.5 1L451.5 1L451.5 251L450.5 251Z" fill="#20202E"/>
<path fill-rule="evenodd" clip-rule="evenodd" d="M460.5 251L460.5 1L461.5 1L461.5 251L460.5 251Z" fill="#20202E"/>
<path fill-rule="evenodd" clip-rule="evenodd" d="M470.5 251L470.5 1L471.5 1L471.5 251L470.5 251Z" fill="#20202E"/>
<path fill-rule="evenodd" clip-rule="evenodd" d="M480.5 251L480.5 1L481.5 1L481.5 251L480.5 251Z" fill="#20202E"/>
<path fill-rule="evenodd" clip-rule="evenodd" d="M490.5 251L490.5 1L491.5 1L491.5 251L490.5 251Z" fill="#20202E"/>
<path fill-rule="evenodd" clip-rule="evenodd" d="M500.5 251L500.5 1L501.5 1L501.5 251L500.5 251Z" fill="#20202E"/>
<path fill-rule="evenodd" clip-rule="evenodd" d="M510.5 251L510.5 1L511.5 1L511.5 251L510.5 251Z" fill="#20202E"/>
<path fill-rule="evenodd" clip-rule="evenodd" d="M520.5 251L520.5 1L521.5 1L521.5 251L520.5 251Z" fill="#20202E"/>
<path fill-rule="evenodd" clip-rule="evenodd" d="M104 81.5C92.6161 81.5 78.1377 90.4055 75.9148 108.93C75.4262 113.002 76.1434 115.527 77.0618 117.252C78.0499 119.108 79.756 120.93 82.4944 122.741C83.4902 123.399 84.5213 124.001 85.5859 124.559C88.966 126.332 92.872 121.794 92.7062 117.98C92.6171 115.931 92.8543 113.83 93.462 111.703C94.5856 107.771 96.9318 103.825 100.802 100.884C104.723 97.9032 109.49 96.5 114.5 96.5H166.5C166.494 96.5 166.496 96.4998 166.506 96.499C166.581 96.4926 167.109 96.4472 168.023 96.1403C168.998 95.8126 170.178 95.2634 171.402 94.4356C173.803 92.811 176.258 90.202 177.8 86.1923C178.256 85.0065 178.137 84.5021 178.12 84.4315L178.119 84.4275C178.089 84.2985 177.979 83.9638 177.493 83.4601C176.977 82.9263 176.196 82.3794 175.264 81.9788C174.292 81.5614 173.621 81.5 173.5 81.5H104ZM124.013 148.608C123.555 148.348 123.009 148.814 123.171 149.316V149.316C124.31 152.847 124.552 156.173 124.593 158.699C124.613 159.968 124.582 161.167 124.554 162.121C124.55 162.259 124.546 162.392 124.542 162.518V162.518C124.51 163.62 125.249 164.588 126.331 164.797C126.916 164.91 127.578 165.025 128.325 165.14C128.321 165.139 128.319 165.139 128.319 165.139C128.319 165.138 128.464 165.158 128.812 165.189C129.173 165.221 129.654 165.256 130.268 165.291C131.499 165.363 133.108 165.431 135.089 165.492C139.046 165.615 144.268 165.706 150.486 165.769V165.769C151.42 165.779 151.737 164.06 150.903 163.641C150.496 163.436 150.086 163.22 149.673 162.99L149.506 162.897C146.688 161.332 134.846 154.753 124.013 148.608ZM217.379 149.162C216.499 153.511 222.235 165.725 226.672 165.696C253.152 165.517 279.642 165.242 298.85 165.001L299.058 164.998L299.265 165.003C314.302 165.335 337.758 165.734 359.228 165.85C381.116 165.969 399.842 165.777 406.175 165.073C411.631 164.467 413.784 162.273 414.854 160.714C416.172 158.791 416.455 156.809 416.495 156.531C416.499 156.504 416.5 156.493 416.5 156.5C416.5 153.399 416.759 148.597 417.078 143.382C417.193 141.493 415.946 139.828 414.235 139.019C412.737 138.31 411.241 137.336 409.89 135.985C405.492 131.588 405.499 126.135 405.5 124.584L405.5 124.5C405.5 123.036 405.766 120.603 405.974 118.757C406.226 116.528 406.562 113.792 406.908 111.057C407.333 107.696 407.744 104.544 408.067 102.074V102.074C408.27 100.521 407.355 99.0399 405.874 98.5308C403.885 97.8471 401.715 97.1079 399.523 96.3648C392.179 93.8753 384.704 91.3836 383.206 90.8842C382.119 90.522 381.134 90.0674 380.582 89.8087C380.262 89.6589 379.936 89.5021 379.66 89.3694L379.647 89.3631C379.359 89.2247 379.103 89.1014 378.839 88.9767C377.765 88.47 376.906 88.1079 376.095 87.8629C374.612 87.4153 373.855 87.507 373.11 87.8578C372.573 88.1106 372.415 88.3059 372.371 88.361C372.302 88.4471 372.134 88.6874 371.969 89.26C371.802 89.8377 371.689 90.57 371.647 91.46C371.584 92.7562 372.315 93.9438 373.461 94.5518C374.084 94.8824 374.804 95.2467 375.634 95.651C376.105 95.8808 376.648 96.1396 377.234 96.4194C379.125 97.3213 381.47 98.44 383.344 99.4993C384.656 100.241 386.266 101.236 387.773 102.506C389.181 103.692 391.351 105.816 392.642 109.043C394.127 112.755 396.921 121.625 399.064 128.43C400.029 131.493 400.862 134.137 401.385 135.705C403.051 140.705 403.94 150.271 395.406 155.732C388.495 160.155 380.772 157.88 376.472 155.896C374.066 154.785 366.838 150.483 358.281 145.323C349.254 139.881 337.647 132.801 325.682 125.49C322.932 123.81 320.167 122.12 317.41 120.436C296.054 107.383 275.259 94.6735 266.988 89.8851C259.134 85.3384 254.982 85.4329 253.395 85.7038C251.799 85.9762 250.707 86.764 249.486 87.9853C249.577 87.8944 249.57 87.9023 249.446 88.0578C249.269 88.2792 248.852 88.7997 248.137 89.76C247.108 91.1397 245.789 92.9787 244.25 95.17C241.18 99.5415 237.4 105.08 233.63 110.658C230.164 115.784 226.637 121.05 223.732 125.386C221.227 129.127 219.184 132.177 218.043 133.85C217.768 134.254 217.628 134.736 217.655 135.224V135.224C217.684 135.77 217.721 136.373 217.766 137.101C217.776 137.263 217.786 137.431 217.796 137.606C217.854 138.547 217.919 139.632 217.984 140.869C218.129 143.626 217.928 146.445 217.379 149.162ZM370.457 92.6423C370.461 92.642 370.504 92.6788 370.573 92.7535C370.487 92.6798 370.453 92.6425 370.457 92.6423ZM52.0858 106.07C55.8629 74.5945 81.3845 57.5 104 57.5H173.5C180.83 57.5 189.049 60.8765 194.758 66.7899C201.149 73.4093 204.549 83.5015 200.2 94.8077C193.369 112.569 177.328 120.5 166.5 120.5H137.943C133.869 120.5 132.447 125.803 135.991 127.812C146.635 133.844 158.514 140.447 161.328 142.01C162.309 142.555 162.958 142.731 163.603 142.831C164.522 142.975 165.572 143 168 143H193.169C193.65 143 194.042 142.611 194.017 142.131V142.131C193.935 140.582 193.878 139.656 193.823 138.778C193.78 138.09 193.739 137.432 193.69 136.526C193.612 135.092 193.534 133.352 193.656 131.645C193.797 129.672 194.203 127.627 195.124 125.493C195.945 123.591 196.997 122.059 197.736 121.025C198.296 120.24 200.309 117.234 203.136 113.01C206.043 108.668 209.811 103.039 213.746 97.2171C217.538 91.6075 221.414 85.9272 224.61 81.3769C226.204 79.1073 227.67 77.0595 228.893 75.4178C229.927 74.031 231.295 72.235 232.515 71.0147C235.294 68.236 240.701 63.5238 249.356 62.0462C258.019 60.5671 267.866 62.6616 279.013 69.1149C287.555 74.0602 308.629 86.9404 329.862 99.9183C332.646 101.62 335.433 103.323 338.194 105.01C350.166 112.324 361.715 119.369 370.673 124.77V124.77C371.554 125.302 372.62 124.457 372.298 123.479C372.002 122.581 371.72 121.736 371.455 120.966C371.285 120.473 370.937 120.06 370.473 119.821C369.661 119.402 368.759 118.971 367.662 118.448C366.915 118.092 366.078 117.692 365.117 117.224C362.588 115.991 359.152 114.247 356.201 111.985C353.471 109.894 348.992 105.737 348.106 99.086C347.518 94.6811 347.172 88.6354 348.907 82.615C350.786 76.0938 355.086 69.8149 362.891 66.1422C370.645 62.493 377.889 63.3347 383.031 64.8871C385.532 65.6421 387.642 66.5925 389.084 67.2733C390.904 68.1325 390.961 68.1701 390.842 68.1314C392.448 68.6666 399.896 71.1498 407.228 73.6352C410.926 74.889 414.626 76.1536 417.54 77.1727C418.992 77.6805 420.291 78.1419 421.313 78.5175L421.366 78.5371C422.076 78.798 423.405 79.2861 424.367 79.7669C431.303 83.2348 432.363 90.3694 432.609 92.4995C432.963 95.5686 432.693 98.7041 432.408 100.988C432.313 101.744 432.12 103.222 431.881 105.058C431.538 107.687 431.1 111.048 430.718 114.068C430.697 114.231 430.677 114.394 430.656 114.556C430.41 116.513 431.669 118.298 433.41 119.224C434.349 119.723 435.316 120.363 436.252 121.189C439.495 124.051 440.726 127.635 441.209 130.321C441.662 132.837 441.621 135.447 441.477 137.749C441.429 138.511 441.382 139.262 441.336 140C440.878 147.287 440.5 153.31 440.5 156.5C440.5 160.575 439.202 167.644 434.647 174.286C429.716 181.477 421.369 187.533 408.826 188.927C400.759 189.823 380.318 189.965 359.098 189.85C337.558 189.733 314.081 189.335 298.943 189.002C272.334 189.335 231.889 189.733 196.753 189.85C179.144 189.908 162.828 189.896 150.242 189.768C143.955 189.704 138.545 189.611 134.346 189.481C130.462 189.361 126.84 189.194 124.676 188.86C118.037 187.839 110.78 186.069 105.871 180.832C100.497 175.1 100.499 167.972 100.5 164.637L100.5 164.5C100.5 163.547 100.53 162.56 100.554 161.768C100.557 161.648 100.561 161.533 100.564 161.422C100.591 160.498 100.607 159.767 100.596 159.083C100.574 157.702 100.441 157.028 100.33 156.684C100.265 156.485 100.213 156.372 99.9886 156.158C99.6896 155.872 98.7603 155.121 96.4643 154.301C95.4506 153.939 94.2171 153.532 92.8212 153.071C86.5225 150.994 76.9153 147.824 69.2562 142.759C64.2446 139.445 59.2632 134.892 55.8764 128.529C52.4197 122.036 51.0745 114.498 52.0858 106.07ZM429.5 124.5V124.5C429.5 124.507 429.51 124.56 429.51 124.566C429.518 124.747 429.5 124.746 429.5 124.5ZM378.629 143.339C378.629 143.338 378.625 143.327 378.619 143.303C378.627 143.327 378.63 143.339 378.629 143.339Z" fill="white"/>
<path fill-rule="evenodd" clip-rule="evenodd" d="M104 72C88.1697 72 69.32 84.147 66.4819 107.798C65.7864 113.594 66.7522 118.103 68.6753 121.716C70.6129 125.356 73.6155 128.259 77.2537 130.665C83.1016 134.532 90.1697 136.887 96.474 138.987C98.1638 139.55 99.7987 140.095 101.341 140.646C108.934 143.358 112.599 147.489 114.129 152.232C114.861 154.502 115.06 156.778 115.093 158.851C115.11 159.888 115.085 160.902 115.057 161.844C115.054 161.973 115.05 162.101 115.046 162.226C115.022 163.037 115 163.783 115 164.5C115 168.047 115.318 169.709 116.449 170.915C117.691 172.241 120.409 173.534 126.88 174.529C128 174.701 130.676 174.86 134.795 174.988C138.847 175.113 144.143 175.205 150.389 175.269C162.878 175.396 179.118 175.408 196.704 175.35C231.873 175.233 272.39 174.833 298.968 174.5L299.012 174.5L299.055 174.501C314.129 174.834 337.639 175.233 359.176 175.35C380.8 175.467 400.204 175.295 407.224 174.515C415.485 173.597 420.09 169.875 422.688 166.086C425.364 162.183 426 158.068 426 156.5C426 152.819 426.409 146.307 426.852 139.271C426.903 138.468 426.954 137.658 427.005 136.844C427.126 134.907 427.079 133.676 426.938 132.888C426.87 132.509 426.79 132.294 426.735 132.182C426.708 132.127 426.688 132.098 426.678 132.084C426.673 132.079 426.67 132.074 426.667 132.071C426.663 132.067 426.66 132.064 426.658 132.062C426.65 132.055 426.503 131.923 425.781 131.801C425.27 131.715 424.727 131.668 424.013 131.605C423.644 131.572 423.23 131.535 422.751 131.488C420.173 131.23 418.016 130.676 416.607 129.268C415.08 127.741 415 125.787 415 124.5C415 123.7 415.179 121.907 415.414 119.822C415.658 117.656 415.988 114.971 416.332 112.249C416.74 109.022 417.162 105.789 417.493 103.256C417.726 101.469 417.914 100.031 418.019 99.1899C418.262 97.2491 418.357 95.4857 418.204 94.1616C418.099 93.2511 417.919 92.8774 417.843 92.7496C417.825 92.7208 417.799 92.6994 417.768 92.6863V92.6863C417.684 92.6508 417.572 92.6055 417.43 92.5496C417.146 92.438 416.771 92.2967 416.311 92.1279C415.394 91.7908 414.178 91.3582 412.753 90.8598C409.905 89.8638 406.257 88.6169 402.572 87.3677C395.204 84.8699 387.709 82.3716 386.209 81.8717C385.474 81.6266 384.528 81.1711 383.626 80.7365C383.377 80.6164 383.131 80.4978 382.893 80.3858C381.674 79.8102 380.32 79.2152 378.84 78.7683C375.908 77.8834 372.584 77.6056 369.064 79.262C365.555 80.9136 363.732 83.5326 362.84 86.6297C361.917 89.8312 361.996 93.556 362.478 97.1696C362.595 98.0495 363.286 99.1472 365.021 100.477C366.709 101.771 368.976 102.975 371.47 104.19C372.107 104.501 372.763 104.814 373.425 105.13C375.251 106.001 377.112 106.889 378.668 107.769C379.745 108.378 380.785 109.042 381.653 109.772C382.5 110.486 383.354 111.404 383.821 112.572C385.176 115.959 387.666 123.872 389.748 130.489C390.789 133.794 391.727 136.776 392.371 138.709C393.51 142.126 393.3 145.801 390.285 147.731C387.608 149.444 383.921 148.871 380.452 147.27C378.664 146.445 372.087 142.555 363.185 137.188C354.186 131.762 342.602 124.695 330.634 117.383C327.879 115.7 325.104 114.004 322.336 112.312C301.03 99.2904 280.125 86.5139 271.747 81.6636C262.59 76.3622 256.183 75.5902 251.796 76.3393C247.406 77.0888 244.605 79.43 242.768 81.2678C242.418 81.6177 241.664 82.5463 240.519 84.0828C239.413 85.5663 238.036 87.4879 236.475 89.7102C233.356 94.1525 229.537 99.7471 225.758 105.338C222.115 110.727 218.493 116.136 215.582 120.483C212.484 125.11 210.191 128.534 209.534 129.453C208.933 130.295 208.623 130.807 208.436 131.241C208.269 131.627 208.165 132.032 208.118 132.678C208.043 133.738 208.126 135.098 208.27 137.456C208.336 138.531 208.414 139.813 208.496 141.369C209.029 151.481 204.137 157.5 198.5 157.5H167.883C163.408 157.5 159.353 157.5 154.286 154.685L154.247 154.664C149.663 152.117 118.216 134.647 111.148 130.103C103.605 125.254 101.184 119.256 102.596 114.313C103.226 112.109 104.506 110 106.55 108.447C108.604 106.886 111.279 106 114.5 106H166.5C171.494 106 182.048 101.611 186.666 89.6026C188.781 84.1039 187.224 79.8626 184.326 76.8615C181.287 73.7132 176.806 72 173.5 72H104ZM61.5176 107.202C64.6794 80.853 85.8298 67 104 67H173.5C178.193 67 183.963 69.2868 187.923 73.3885C192.026 77.6374 194.218 83.8961 191.333 91.3974C185.952 105.389 173.506 111 166.5 111H114.5C112.221 111 110.646 111.614 109.575 112.428C108.493 113.25 107.774 114.391 107.404 115.687C106.816 117.744 107.395 121.746 113.852 125.897C120.763 130.34 152.155 147.782 156.714 150.315C160.603 152.475 163.521 152.5 168 152.5H198.5C199.863 152.5 203.971 150.519 203.503 141.631C203.437 140.366 203.367 139.233 203.305 138.216C203.144 135.591 203.03 133.732 203.131 132.322C203.21 131.218 203.418 130.248 203.845 129.259C204.251 128.318 204.817 127.455 205.465 126.547C206.089 125.675 208.284 122.395 211.291 117.905C214.203 113.556 217.875 108.072 221.616 102.537C225.4 96.9404 229.238 91.3162 232.384 86.8367C233.956 84.598 235.364 82.6329 236.51 81.0949C237.617 79.61 238.582 78.3823 239.232 77.7322C241.394 75.57 245.094 72.4112 250.954 71.4107C256.816 70.4098 264.409 71.6378 274.252 77.3364C282.687 82.2196 303.651 95.0322 324.932 108.039C327.705 109.734 330.484 111.432 333.241 113.117C345.21 120.43 356.782 127.488 365.767 132.906C374.85 138.382 381.085 142.055 382.547 142.73C385.579 144.129 387.141 143.806 387.59 143.519C387.7 143.449 388.489 142.874 387.628 140.291C386.915 138.152 385.923 134.997 384.848 131.579C382.807 125.089 380.468 117.651 379.179 114.428C379.145 114.346 378.984 114.061 378.432 113.597C377.902 113.15 377.161 112.661 376.207 112.122C374.813 111.333 373.195 110.561 371.43 109.719C370.734 109.387 370.016 109.044 369.279 108.685C366.773 107.463 364.103 106.073 361.979 104.445C359.901 102.853 357.904 100.7 357.522 97.8304C357.004 93.944 356.832 89.4188 358.035 85.2453C359.268 80.9674 361.945 77.0864 366.935 74.738C371.915 72.3944 376.591 72.8666 380.285 73.9817C382.117 74.5348 383.732 75.2523 385.028 75.8642C385.419 76.0487 385.761 76.2133 386.064 76.3587C386.861 76.7417 387.383 76.9927 387.79 77.1283C389.293 77.629 396.797 80.1306 404.177 82.6323C407.867 83.8831 411.532 85.1362 414.403 86.1402C415.838 86.6418 417.082 87.0842 418.036 87.4346C418.921 87.76 419.714 88.0623 420.118 88.2639C422.354 89.3823 422.971 91.8582 423.171 93.5884C423.393 95.5143 423.238 97.7509 422.98 99.8101C422.879 100.622 422.689 102.077 422.453 103.883C422.119 106.448 421.691 109.723 421.293 112.876C420.949 115.591 420.623 118.25 420.382 120.382C420.133 122.593 420 124.05 420 124.5C420 125.074 420.033 125.387 420.081 125.581C420.102 125.664 420.12 125.7 420.125 125.71C420.129 125.717 420.131 125.721 420.143 125.732C420.234 125.824 420.827 126.27 423.249 126.512C423.559 126.543 423.884 126.572 424.213 126.601C425.044 126.675 425.9 126.751 426.61 126.871C427.653 127.046 428.912 127.382 429.966 128.313C431.062 129.28 431.603 130.584 431.859 132.003C432.108 133.387 432.124 135.093 431.995 137.156C431.945 137.958 431.895 138.753 431.845 139.538C431.398 146.651 431 152.989 431 156.5C431 158.932 430.135 164.067 426.812 168.914C423.409 173.875 417.514 178.403 407.776 179.485C400.395 180.305 380.633 180.466 359.149 180.35C337.598 180.233 314.082 179.834 298.988 179.5C272.399 179.834 231.891 180.233 196.721 180.35C179.127 180.408 162.861 180.396 150.338 180.269C144.078 180.205 138.743 180.113 134.64 179.986C130.602 179.86 127.6 179.699 126.12 179.471C119.591 178.466 115.308 177.009 112.801 174.335C110.181 171.541 110 167.953 110 164.5C110 163.702 110.024 162.874 110.048 162.07C110.052 161.945 110.056 161.822 110.059 161.699C110.087 160.762 110.108 159.846 110.094 158.931C110.064 157.097 109.888 155.373 109.37 153.768C108.401 150.761 106.065 147.642 99.6589 145.354C98.3139 144.874 96.8214 144.378 95.2294 143.849C88.8842 141.742 80.9589 139.109 74.4958 134.835C70.384 132.116 66.6991 128.644 64.2617 124.065C61.8098 119.459 60.7131 113.906 61.5176 107.202Z" fill="black"/>
</svg>
