<svg width="522" height="252" viewBox="0 0 522 252" fill="none" xmlns="http://www.w3.org/2000/svg">
<path fill-rule="evenodd" clip-rule="evenodd" d="M521 1.5H1V0.5H521V1.5Z" fill="#20202E"/>
<path fill-rule="evenodd" clip-rule="evenodd" d="M521 11.5H1V10.5H521V11.5Z" fill="#20202E"/>
<path fill-rule="evenodd" clip-rule="evenodd" d="M521 21.5H1V20.5H521V21.5Z" fill="#20202E"/>
<path fill-rule="evenodd" clip-rule="evenodd" d="M521 31.5H1V30.5H521V31.5Z" fill="#20202E"/>
<path fill-rule="evenodd" clip-rule="evenodd" d="M521 41.5H1V40.5H521V41.5Z" fill="#20202E"/>
<path fill-rule="evenodd" clip-rule="evenodd" d="M521 51.5H1V50.5H521V51.5Z" fill="#20202E"/>
<path fill-rule="evenodd" clip-rule="evenodd" d="M521 61.5H1V60.5H521V61.5Z" fill="#20202E"/>
<path fill-rule="evenodd" clip-rule="evenodd" d="M521 71.5H1V70.5H521V71.5Z" fill="#20202E"/>
<path fill-rule="evenodd" clip-rule="evenodd" d="M521 81.5H1V80.5H521V81.5Z" fill="#20202E"/>
<path fill-rule="evenodd" clip-rule="evenodd" d="M521 91.5H1V90.5H521V91.5Z" fill="#20202E"/>
<path fill-rule="evenodd" clip-rule="evenodd" d="M521 101.5H1V100.5H521V101.5Z" fill="#20202E"/>
<path fill-rule="evenodd" clip-rule="evenodd" d="M521 111.5H1V110.5H521V111.5Z" fill="#20202E"/>
<path fill-rule="evenodd" clip-rule="evenodd" d="M521 121.5H1V120.5H521V121.5Z" fill="#20202E"/>
<path fill-rule="evenodd" clip-rule="evenodd" d="M521 131.5H1V130.5H521V131.5Z" fill="#20202E"/>
<path fill-rule="evenodd" clip-rule="evenodd" d="M521 141.5H1V140.5H521V141.5Z" fill="#20202E"/>
<path fill-rule="evenodd" clip-rule="evenodd" d="M521 151.5H1V150.5H521V151.5Z" fill="#20202E"/>
<path fill-rule="evenodd" clip-rule="evenodd" d="M521 161.5H1V160.5H521V161.5Z" fill="#20202E"/>
<path fill-rule="evenodd" clip-rule="evenodd" d="M521 171.5H1V170.5H521V171.5Z" fill="#20202E"/>
<path fill-rule="evenodd" clip-rule="evenodd" d="M521 181.5H1V180.5H521V181.5Z" fill="#20202E"/>
<path fill-rule="evenodd" clip-rule="evenodd" d="M521 191.5H1V190.5H521V191.5Z" fill="#20202E"/>
<path fill-rule="evenodd" clip-rule="evenodd" d="M521 201.5H1V200.5H521V201.5Z" fill="#20202E"/>
<path fill-rule="evenodd" clip-rule="evenodd" d="M521 211.5H1V210.5H521V211.5Z" fill="#20202E"/>
<path fill-rule="evenodd" clip-rule="evenodd" d="M521 221.5H1V220.5H521V221.5Z" fill="#20202E"/>
<path fill-rule="evenodd" clip-rule="evenodd" d="M521 231.5H1V230.5H521V231.5Z" fill="#20202E"/>
<path fill-rule="evenodd" clip-rule="evenodd" d="M521 241.5H1V240.5H521V241.5Z" fill="#20202E"/>
<path fill-rule="evenodd" clip-rule="evenodd" d="M521 251.5H1V250.5H521V251.5Z" fill="#20202E"/>
<path fill-rule="evenodd" clip-rule="evenodd" d="M0.5 251L0.5 1L1.5 1L1.5 251L0.5 251Z" fill="#20202E"/>
<path fill-rule="evenodd" clip-rule="evenodd" d="M10.5 251L10.5 1L11.5 1L11.5 251L10.5 251Z" fill="#20202E"/>
<path fill-rule="evenodd" clip-rule="evenodd" d="M20.5 251L20.5 1L21.5 1L21.5 251L20.5 251Z" fill="#20202E"/>
<path fill-rule="evenodd" clip-rule="evenodd" d="M30.5 251L30.5 1L31.5 1L31.5 251L30.5 251Z" fill="#20202E"/>
<path fill-rule="evenodd" clip-rule="evenodd" d="M40.5 251L40.5 1L41.5 1L41.5 251L40.5 251Z" fill="#20202E"/>
<path fill-rule="evenodd" clip-rule="evenodd" d="M50.5 251L50.5 1L51.5 1L51.5 251L50.5 251Z" fill="#20202E"/>
<path fill-rule="evenodd" clip-rule="evenodd" d="M60.5 251L60.5 1L61.5 1L61.5 251L60.5 251Z" fill="#20202E"/>
<path fill-rule="evenodd" clip-rule="evenodd" d="M70.5 251L70.5 1L71.5 1L71.5 251L70.5 251Z" fill="#20202E"/>
<path fill-rule="evenodd" clip-rule="evenodd" d="M80.5 251L80.5 1L81.5 1L81.5 251L80.5 251Z" fill="#20202E"/>
<path fill-rule="evenodd" clip-rule="evenodd" d="M90.5 251L90.5 1L91.5 1L91.5 251L90.5 251Z" fill="#20202E"/>
<path fill-rule="evenodd" clip-rule="evenodd" d="M100.5 251L100.5 1L101.5 1L101.5 251L100.5 251Z" fill="#20202E"/>
<path fill-rule="evenodd" clip-rule="evenodd" d="M110.5 251L110.5 1L111.5 1L111.5 251L110.5 251Z" fill="#20202E"/>
<path fill-rule="evenodd" clip-rule="evenodd" d="M120.5 251L120.5 1L121.5 1L121.5 251L120.5 251Z" fill="#20202E"/>
<path fill-rule="evenodd" clip-rule="evenodd" d="M130.5 251L130.5 1L131.5 1L131.5 251L130.5 251Z" fill="#20202E"/>
<path fill-rule="evenodd" clip-rule="evenodd" d="M140.5 251L140.5 1L141.5 1L141.5 251L140.5 251Z" fill="#20202E"/>
<path fill-rule="evenodd" clip-rule="evenodd" d="M150.5 251L150.5 1L151.5 1L151.5 251L150.5 251Z" fill="#20202E"/>
<path fill-rule="evenodd" clip-rule="evenodd" d="M160.5 251L160.5 1L161.5 1L161.5 251L160.5 251Z" fill="#20202E"/>
<path fill-rule="evenodd" clip-rule="evenodd" d="M170.5 251L170.5 1L171.5 1L171.5 251L170.5 251Z" fill="#20202E"/>
<path fill-rule="evenodd" clip-rule="evenodd" d="M180.5 251L180.5 1L181.5 1L181.5 251L180.5 251Z" fill="#20202E"/>
<path fill-rule="evenodd" clip-rule="evenodd" d="M190.5 251L190.5 1L191.5 1L191.5 251L190.5 251Z" fill="#20202E"/>
<path fill-rule="evenodd" clip-rule="evenodd" d="M200.5 251L200.5 1L201.5 1L201.5 251L200.5 251Z" fill="#20202E"/>
<path fill-rule="evenodd" clip-rule="evenodd" d="M210.5 251L210.5 1L211.5 1L211.5 251L210.5 251Z" fill="#20202E"/>
<path fill-rule="evenodd" clip-rule="evenodd" d="M220.5 251L220.5 1L221.5 1L221.5 251L220.5 251Z" fill="#20202E"/>
<path fill-rule="evenodd" clip-rule="evenodd" d="M230.5 251L230.5 1L231.5 1L231.5 251L230.5 251Z" fill="#20202E"/>
<path fill-rule="evenodd" clip-rule="evenodd" d="M240.5 251L240.5 1L241.5 1L241.5 251L240.5 251Z" fill="#20202E"/>
<path fill-rule="evenodd" clip-rule="evenodd" d="M250.5 251L250.5 1L251.5 1L251.5 251L250.5 251Z" fill="#20202E"/>
<path fill-rule="evenodd" clip-rule="evenodd" d="M260.5 251L260.5 1L261.5 1L261.5 251L260.5 251Z" fill="#20202E"/>
<path fill-rule="evenodd" clip-rule="evenodd" d="M270.5 251L270.5 1L271.5 1L271.5 251L270.5 251Z" fill="#20202E"/>
<path fill-rule="evenodd" clip-rule="evenodd" d="M280.5 251L280.5 1L281.5 1L281.5 251L280.5 251Z" fill="#20202E"/>
<path fill-rule="evenodd" clip-rule="evenodd" d="M290.5 251L290.5 1L291.5 1L291.5 251L290.5 251Z" fill="#20202E"/>
<path fill-rule="evenodd" clip-rule="evenodd" d="M300.5 251L300.5 1L301.5 1L301.5 251L300.5 251Z" fill="#20202E"/>
<path fill-rule="evenodd" clip-rule="evenodd" d="M310.5 251L310.5 1L311.5 1L311.5 251L310.5 251Z" fill="#20202E"/>
<path fill-rule="evenodd" clip-rule="evenodd" d="M320.5 251L320.5 1L321.5 1L321.5 251L320.5 251Z" fill="#20202E"/>
<path fill-rule="evenodd" clip-rule="evenodd" d="M330.5 251L330.5 1L331.5 1L331.5 251L330.5 251Z" fill="#20202E"/>
<path fill-rule="evenodd" clip-rule="evenodd" d="M340.5 251L340.5 1L341.5 1L341.5 251L340.5 251Z" fill="#20202E"/>
<path fill-rule="evenodd" clip-rule="evenodd" d="M350.5 251L350.5 1L351.5 1L351.5 251L350.5 251Z" fill="#20202E"/>
<path fill-rule="evenodd" clip-rule="evenodd" d="M360.5 251L360.5 1L361.5 1L361.5 251L360.5 251Z" fill="#20202E"/>
<path fill-rule="evenodd" clip-rule="evenodd" d="M370.5 251L370.5 1L371.5 1L371.5 251L370.5 251Z" fill="#20202E"/>
<path fill-rule="evenodd" clip-rule="evenodd" d="M380.5 251L380.5 1L381.5 1L381.5 251L380.5 251Z" fill="#20202E"/>
<path fill-rule="evenodd" clip-rule="evenodd" d="M390.5 251L390.5 1L391.5 1L391.5 251L390.5 251Z" fill="#20202E"/>
<path fill-rule="evenodd" clip-rule="evenodd" d="M400.5 251L400.5 1L401.5 1L401.5 251L400.5 251Z" fill="#20202E"/>
<path fill-rule="evenodd" clip-rule="evenodd" d="M410.5 251L410.5 1L411.5 1L411.5 251L410.5 251Z" fill="#20202E"/>
<path fill-rule="evenodd" clip-rule="evenodd" d="M420.5 251L420.5 1L421.5 1L421.5 251L420.5 251Z" fill="#20202E"/>
<path fill-rule="evenodd" clip-rule="evenodd" d="M430.5 251L430.5 1L431.5 1L431.5 251L430.5 251Z" fill="#20202E"/>
<path fill-rule="evenodd" clip-rule="evenodd" d="M440.5 251L440.5 1L441.5 1L441.5 251L440.5 251Z" fill="#20202E"/>
<path fill-rule="evenodd" clip-rule="evenodd" d="M450.5 251L450.5 1L451.5 1L451.5 251L450.5 251Z" fill="#20202E"/>
<path fill-rule="evenodd" clip-rule="evenodd" d="M460.5 251L460.5 1L461.5 1L461.5 251L460.5 251Z" fill="#20202E"/>
<path fill-rule="evenodd" clip-rule="evenodd" d="M470.5 251L470.5 1L471.5 1L471.5 251L470.5 251Z" fill="#20202E"/>
<path fill-rule="evenodd" clip-rule="evenodd" d="M480.5 251L480.5 1L481.5 1L481.5 251L480.5 251Z" fill="#20202E"/>
<path fill-rule="evenodd" clip-rule="evenodd" d="M490.5 251L490.5 1L491.5 1L491.5 251L490.5 251Z" fill="#20202E"/>
<path fill-rule="evenodd" clip-rule="evenodd" d="M500.5 251L500.5 1L501.5 1L501.5 251L500.5 251Z" fill="#20202E"/>
<path fill-rule="evenodd" clip-rule="evenodd" d="M510.5 251L510.5 1L511.5 1L511.5 251L510.5 251Z" fill="#20202E"/>
<path fill-rule="evenodd" clip-rule="evenodd" d="M520.5 251L520.5 1L521.5 1L521.5 251L520.5 251Z" fill="#20202E"/>
<path fill-rule="evenodd" clip-rule="evenodd" d="M172.694 56.7785C168.814 60.7889 164.33 65.4034 159.899 69.962C152.77 77.298 145.781 84.4893 141.68 88.7858C134.909 95.8789 131.031 102.883 127.615 109.053C126.262 111.496 124.982 113.808 123.624 115.943C123.289 116.469 123.001 116.916 122.747 117.313C122.228 118.121 121.845 118.717 121.477 119.33C121.331 119.574 121.217 119.772 121.127 119.935C121.216 120.16 121.394 120.601 121.712 121.315C122.251 122.53 123.004 124.119 123.958 126.061C125.862 129.936 128.401 134.878 131.272 140.403C132.746 143.239 134.306 146.225 135.901 149.278C137.191 151.747 138.505 154.261 139.813 156.774C138.491 148.675 140.387 140.402 146.97 135.169C154.052 129.539 164.304 129.834 170.985 136.515C175.957 141.487 192.934 161.574 200.679 170.77C202.013 172.355 202.91 172.989 203.287 173.21C203.309 173.223 203.328 173.234 203.346 173.244C203.383 173.234 203.426 173.222 203.475 173.207C203.922 173.071 204.54 172.813 205.633 172.267C205.626 172.27 205.687 172.24 205.838 172.158C205.981 172.08 206.169 171.976 206.407 171.841C206.884 171.571 207.497 171.215 208.242 170.775C209.73 169.895 211.645 168.737 213.879 167.367C218.341 164.628 223.968 161.103 229.793 157.385C241.643 149.821 253.667 141.864 258.662 138.005C259.257 137.545 259.708 137.155 260.045 136.837C259.921 136.598 259.78 136.332 259.608 136.01C259.556 135.911 259.5 135.807 259.441 135.696C259.07 134.998 258.556 134.022 258.075 132.966C256.825 130.215 255.166 126.487 253.984 122.704C252.925 119.317 251.567 113.88 252.786 108.397C252.815 108.266 252.838 108.126 252.867 107.559C252.868 107.537 252.869 107.505 252.871 107.465C252.883 107.2 252.913 106.574 252.963 106.024C253.02 105.408 253.151 104.231 253.568 102.863C244.427 100.702 235.673 97.8133 227.859 94.841C207.018 86.9141 190.367 77.3901 186.292 75.0596C186.204 75.0093 186.122 74.9624 186.046 74.9189L185.98 74.8813C184.387 73.9711 182.437 72.8569 180.769 71.6309C178.88 70.243 176.732 68.2846 175.118 65.3596C173.554 62.5243 173.003 59.6998 172.757 57.4227C172.734 57.2102 172.713 56.9954 172.694 56.7785ZM388.248 74.2584C388.247 74.2609 388.201 74.2729 388.115 74.2867C388.206 74.2627 388.249 74.2558 388.248 74.2584ZM152.582 183.207C154.776 188.305 157.506 194.168 159.676 197.64C159.879 197.966 160.058 198.22 160.208 198.416C160.433 198.334 160.707 198.224 161.034 198.076C163.282 197.054 166.026 195.563 168.136 194.04C167.329 192.681 166.234 191.117 164.771 189.027L164.716 188.949C164.675 188.907 164.502 188.734 164.113 188.456C163.516 188.029 162.674 187.541 161.564 187.009C160.467 186.484 159.293 186.001 158.05 185.518C157.794 185.418 157.494 185.303 157.171 185.179C156.234 184.819 155.103 184.386 154.273 184.03C153.71 183.789 153.145 183.516 152.582 183.207ZM170.177 192.285C170.179 192.285 170.16 192.311 170.115 192.363C170.153 192.311 170.175 192.285 170.177 192.285ZM190.545 31.4776C194.382 36.5143 196.5 43.5578 196.5 50.5001C196.5 51.6255 196.507 52.5172 196.528 53.259C196.929 53.4942 197.394 53.7615 197.953 54.081C198.02 54.1192 198.092 54.1601 198.168 54.2036C201.964 56.3743 217.314 65.1524 236.391 72.4089C256.396 80.018 278.028 84.9686 294.366 81.2926C324.163 74.5883 352.192 63.001 368.427 56.2896C373.726 54.0992 377.768 52.4282 380.205 51.6157C382.883 50.7232 386.672 49.853 390.642 50.647C392.771 51.0727 395.569 52.1129 397.955 54.5355C400.496 57.1157 401.679 60.369 401.803 63.4578C402.016 68.7861 399.183 72.7401 397.581 74.6298C395.61 76.953 393.094 78.9672 390.36 80.6759C382.478 85.6023 337.078 115.037 331.156 118.985C330.967 119.111 330.756 119.256 330.524 119.417C328.445 120.855 324.651 123.479 319.461 123.679C317.836 123.741 316.019 123.559 314.904 123.447C314.754 123.432 314.617 123.418 314.494 123.406C313.067 123.269 311.206 123.102 308.5 122.99C301.495 122.698 291.995 121.013 284.391 119.614C283.319 119.417 282.281 119.225 281.278 119.039C280.112 118.822 278.994 118.615 277.927 118.42C278.504 119.868 279.186 121.411 279.924 123.034C280.069 123.353 280.273 123.752 280.638 124.441C280.68 124.519 280.725 124.603 280.772 124.692C281.084 125.278 281.514 126.085 281.913 126.9C282.83 128.777 284.136 131.76 284.503 135.431C285.389 144.296 280.572 151.404 273.337 156.995C267.332 161.636 254.356 170.179 242.706 177.615C231.226 184.943 219.572 192.13 216.366 193.733C213.712 195.06 208.248 197.737 201.454 197.215C198.528 196.99 195.761 196.222 193.149 194.978C193.191 196.455 193.069 198.005 192.714 199.603C191.827 203.594 189.606 206.578 187.939 208.436C186.153 210.427 184.1 212.113 182.221 213.473C178.458 216.195 174.211 218.449 170.965 219.924C167.231 221.622 161.598 223.482 155.209 222.204C148.342 220.831 143.081 216.371 139.324 210.36C134.81 203.138 129.66 190.839 127.52 185.374C123.74 177.83 119.156 169.055 114.724 160.573C113.106 157.476 111.508 154.417 109.977 151.472C107.099 145.934 104.45 140.783 102.417 136.643C100.634 133.013 98.6667 128.886 97.9226 126.158C96.5898 121.271 96.6521 116.668 98.3888 112.037C99.5275 109 101.469 106.004 102.8 103.951C103.009 103.629 103.203 103.33 103.376 103.058C103.815 102.368 104.449 101.214 105.276 99.7112C108.611 93.6459 115.064 81.9111 124.32 72.2144C129.002 67.3093 136.543 59.5528 143.933 51.9528C153.772 41.8334 163.341 31.9915 165.531 29.5278C169.032 25.5885 174.495 23.1987 180.507 24.6181C185.44 25.7828 188.708 29.0661 190.545 31.4776ZM163.383 151.939C163.384 151.856 163.392 151.819 163.395 151.821C163.398 151.824 163.397 151.865 163.383 151.939ZM196.649 55.078C196.649 55.0781 196.648 55.0739 196.647 55.0651C196.649 55.0736 196.649 55.0779 196.649 55.078Z" fill="white"/>
<path fill-rule="evenodd" clip-rule="evenodd" d="M177.162 38.7268C177.05 38.6992 176.828 38.6442 176.368 39.161C174.01 41.8143 163.765 52.3545 153.58 62.8331C146.342 70.2794 139.134 77.6945 134.808 82.2263C127.116 90.2847 122.297 98.9876 118.779 105.34C117.595 107.479 116.558 109.351 115.609 110.842C115.34 111.265 115.086 111.661 114.846 112.036C113.434 114.24 112.506 115.688 111.966 117.128C111.421 118.58 111.283 120.038 111.912 122.342C112.21 123.435 113.424 126.163 115.431 130.249C117.387 134.23 119.969 139.255 122.843 144.785C124.339 147.663 125.915 150.678 127.519 153.749C132.065 162.451 136.847 171.604 140.736 179.382L140.789 179.488L140.831 179.598C142.833 184.767 147.759 196.498 151.62 202.675C153.858 206.256 156.085 207.592 158.053 207.986C160.12 208.399 162.421 207.881 164.965 206.724C167.612 205.521 170.957 203.725 173.722 201.724C175.105 200.724 176.283 199.716 177.147 198.752C178.036 197.761 178.442 196.986 178.559 196.458C178.865 195.084 178.451 193.246 177.212 190.827C176.07 188.598 174.452 186.289 172.778 183.9C172.67 183.745 172.561 183.589 172.452 183.434C171.086 181.482 168.579 179.836 165.67 178.442C163.758 177.526 162.04 176.87 160.503 176.284C159.614 175.944 158.785 175.628 158.015 175.298C156.855 174.801 155.834 174.126 154.958 173.109C154.112 172.128 153.502 170.945 152.979 169.585C152.117 167.344 151.316 164.117 150.186 159.564C149.993 158.784 149.789 157.965 149.575 157.106C147.924 150.503 149.431 145.348 152.882 142.605C156.287 139.899 161.095 140.059 164.268 143.232C168.866 147.831 185.466 167.453 193.412 176.89C197.12 181.293 200.175 182.573 202.567 182.757C205.078 182.951 207.414 181.998 209.882 180.764C212.235 179.587 223.099 172.929 234.905 165.393C246.676 157.879 259.077 149.69 264.471 145.522C269.61 141.551 270.268 138.803 270.075 136.874C269.963 135.751 269.536 134.597 268.887 133.27C268.607 132.698 268.308 132.135 267.988 131.533C267.936 131.437 267.884 131.339 267.832 131.241C267.463 130.546 267.071 129.799 266.724 129.034C265.474 126.284 264.04 123.034 263.051 119.871C262.089 116.79 261.41 113.381 262.059 110.458C262.263 109.54 262.318 108.768 262.355 108.038C262.358 107.973 262.361 107.903 262.364 107.827C262.39 107.227 262.43 106.303 262.691 105.522C262.868 104.989 263.166 104.427 263.665 103.934C264.156 103.449 264.727 103.143 265.29 102.945C266.323 102.583 267.6 102.5 269 102.5C270.626 102.5 273.28 102.887 276.303 103.403C278.59 103.793 281.231 104.282 284.023 104.8C285.004 104.982 286.005 105.168 287.015 105.354C294.871 106.799 303.313 108.261 309.104 108.502C312.165 108.63 314.308 108.821 315.879 108.972C316.008 108.985 316.132 108.997 316.251 109.008C317.653 109.143 318.353 109.21 318.904 109.189C319.665 109.16 319.88 109.075 323.113 106.92C329.13 102.909 374.65 73.3953 382.675 68.38C384.522 67.2255 385.773 66.1347 386.523 65.2499C386.638 65.1144 386.736 64.9899 386.82 64.8764C386.324 64.9394 385.654 65.0837 384.79 65.3717C383.288 65.8724 380.259 67.1279 376.03 68.8803C360.559 75.2915 329.041 88.3533 297.549 95.439C276.786 100.111 251.688 93.741 231.236 85.9616C211.094 78.3001 194.958 69.0715 190.993 66.8042C190.91 66.7565 190.832 66.712 190.76 66.6706C189.04 65.6878 187.563 64.8344 186.395 63.9755C185.185 63.0864 184.168 62.0971 183.436 60.7703C182.714 59.4621 182.377 58.0202 182.202 56.4016C182.029 54.8043 182 52.8647 182 50.5001C182 46.2069 180.629 42.3878 179.011 40.2652C178.186 39.1817 177.507 38.8084 177.175 38.7301C177.171 38.7291 177.167 38.728 177.162 38.7268ZM182.989 37.235C185.371 40.3624 187 45.2934 187 50.5001C187 52.8856 187.033 54.5709 187.173 55.8642C187.31 57.1362 187.536 57.8505 187.814 58.3548C188.082 58.8405 188.503 59.3198 189.355 59.9463C190.249 60.6031 191.46 61.3121 193.24 62.3293C193.311 62.3696 193.387 62.413 193.467 62.4592C197.374 64.6932 213.239 73.7665 233.014 81.2883C253.312 89.0089 277.214 94.8893 296.451 90.5609C327.323 83.6149 357.569 71.0952 373.383 64.5496C378.008 62.6352 381.399 61.2318 383.209 60.6282C385.252 59.9475 387.179 59.6425 388.779 59.9626C389.609 60.1286 390.487 60.4921 391.186 61.2017C391.918 61.9441 392.272 62.8848 392.31 63.8375C392.38 65.5661 391.431 67.1939 390.336 68.4843C389.165 69.8652 387.478 71.2744 385.325 72.6199C377.349 77.6046 331.87 107.091 325.887 111.08C325.668 111.226 325.456 111.368 325.252 111.505C322.871 113.102 321.388 114.097 319.096 114.186C318.185 114.221 317.117 114.116 315.882 113.996C315.725 113.981 315.565 113.965 315.402 113.949C313.88 113.803 311.835 113.62 308.896 113.498C302.686 113.239 293.879 111.701 286.11 110.271C285.078 110.081 284.065 109.893 283.075 109.71C280.297 109.195 277.711 108.715 275.463 108.332C272.344 107.8 270.124 107.5 269 107.5C268.217 107.5 267.708 107.535 267.385 107.576C267.377 107.709 267.37 107.859 267.361 108.043C267.357 108.119 267.353 108.201 267.348 108.29C267.307 109.107 267.236 110.21 266.94 111.542C266.59 113.119 266.911 115.46 267.824 118.379C268.71 121.216 270.026 124.215 271.276 126.965C271.553 127.576 271.88 128.204 272.248 128.896C272.297 128.988 272.347 129.081 272.397 129.176C272.715 129.773 273.059 130.419 273.379 131.074C274.12 132.59 274.85 134.374 275.05 136.376C275.482 140.697 273.39 144.949 267.529 149.478C261.923 153.809 249.324 162.121 237.595 169.607C225.901 177.071 214.765 183.913 212.118 185.236C209.586 186.502 206.171 188.049 202.183 187.743C198.075 187.427 193.88 185.207 189.588 180.11C181.534 170.547 165.134 151.169 160.732 146.768C159.405 145.441 157.463 145.351 155.993 146.52C154.569 147.652 153.076 150.497 154.425 155.894C154.646 156.777 154.852 157.606 155.046 158.384C156.195 163.007 156.905 165.864 157.646 167.79C158.06 168.868 158.419 169.466 158.745 169.844C159.04 170.187 159.395 170.449 159.985 170.702C160.43 170.893 161.083 171.144 161.864 171.445C163.538 172.089 165.796 172.958 167.83 173.933C170.921 175.414 174.414 177.518 176.548 180.566C176.672 180.743 176.797 180.922 176.923 181.102C178.545 183.414 180.355 185.996 181.663 188.548C183.049 191.254 184.135 194.416 183.44 197.542C183.058 199.264 182.026 200.801 180.869 202.091C179.686 203.409 178.207 204.651 176.653 205.776C173.543 208.025 169.888 209.979 167.034 211.276C164.079 212.619 160.63 213.6 157.072 212.889C153.415 212.157 150.142 209.744 147.38 205.325C143.27 198.749 138.239 186.737 136.211 181.513C132.353 173.801 127.627 164.753 123.107 156.102C121.498 153.022 119.915 149.992 118.407 147.091C115.531 141.558 112.926 136.489 110.944 132.454C109.014 128.525 107.54 125.315 107.088 123.658C106.217 120.463 106.329 117.92 107.284 115.372C108.027 113.392 109.295 111.42 110.68 109.267C110.914 108.903 111.152 108.533 111.391 108.158C112.149 106.967 113.05 105.336 114.125 103.393C117.634 97.0483 122.987 87.3695 131.192 78.7739C135.638 74.1154 142.961 66.5824 150.253 59.0811C160.322 48.7237 170.332 38.4266 172.631 35.8392C174.153 34.1279 176.181 33.3579 178.324 33.8639C180.243 34.3168 181.814 35.6936 182.989 37.235Z" fill="black"/>
</svg>
