<svg width="522" height="252" viewBox="0 0 522 252" fill="none" xmlns="http://www.w3.org/2000/svg">
<path fill-rule="evenodd" clip-rule="evenodd" d="M521 1.5H1V0.5H521V1.5Z" fill="#20202E"/>
<path fill-rule="evenodd" clip-rule="evenodd" d="M521 11.5H1V10.5H521V11.5Z" fill="#20202E"/>
<path fill-rule="evenodd" clip-rule="evenodd" d="M521 21.5H1V20.5H521V21.5Z" fill="#20202E"/>
<path fill-rule="evenodd" clip-rule="evenodd" d="M521 31.5H1V30.5H521V31.5Z" fill="#20202E"/>
<path fill-rule="evenodd" clip-rule="evenodd" d="M521 41.5H1V40.5H521V41.5Z" fill="#20202E"/>
<path fill-rule="evenodd" clip-rule="evenodd" d="M521 51.5H1V50.5H521V51.5Z" fill="#20202E"/>
<path fill-rule="evenodd" clip-rule="evenodd" d="M521 61.5H1V60.5H521V61.5Z" fill="#20202E"/>
<path fill-rule="evenodd" clip-rule="evenodd" d="M521 71.5H1V70.5H521V71.5Z" fill="#20202E"/>
<path fill-rule="evenodd" clip-rule="evenodd" d="M521 81.5H1V80.5H521V81.5Z" fill="#20202E"/>
<path fill-rule="evenodd" clip-rule="evenodd" d="M521 91.5H1V90.5H521V91.5Z" fill="#20202E"/>
<path fill-rule="evenodd" clip-rule="evenodd" d="M521 101.5H1V100.5H521V101.5Z" fill="#20202E"/>
<path fill-rule="evenodd" clip-rule="evenodd" d="M521 111.5H1V110.5H521V111.5Z" fill="#20202E"/>
<path fill-rule="evenodd" clip-rule="evenodd" d="M521 121.5H1V120.5H521V121.5Z" fill="#20202E"/>
<path fill-rule="evenodd" clip-rule="evenodd" d="M521 131.5H1V130.5H521V131.5Z" fill="#20202E"/>
<path fill-rule="evenodd" clip-rule="evenodd" d="M521 141.5H1V140.5H521V141.5Z" fill="#20202E"/>
<path fill-rule="evenodd" clip-rule="evenodd" d="M521 151.5H1V150.5H521V151.5Z" fill="#20202E"/>
<path fill-rule="evenodd" clip-rule="evenodd" d="M521 161.5H1V160.5H521V161.5Z" fill="#20202E"/>
<path fill-rule="evenodd" clip-rule="evenodd" d="M521 171.5H1V170.5H521V171.5Z" fill="#20202E"/>
<path fill-rule="evenodd" clip-rule="evenodd" d="M521 181.5H1V180.5H521V181.5Z" fill="#20202E"/>
<path fill-rule="evenodd" clip-rule="evenodd" d="M521 191.5H1V190.5H521V191.5Z" fill="#20202E"/>
<path fill-rule="evenodd" clip-rule="evenodd" d="M521 201.5H1V200.5H521V201.5Z" fill="#20202E"/>
<path fill-rule="evenodd" clip-rule="evenodd" d="M521 211.5H1V210.5H521V211.5Z" fill="#20202E"/>
<path fill-rule="evenodd" clip-rule="evenodd" d="M521 221.5H1V220.5H521V221.5Z" fill="#20202E"/>
<path fill-rule="evenodd" clip-rule="evenodd" d="M521 231.5H1V230.5H521V231.5Z" fill="#20202E"/>
<path fill-rule="evenodd" clip-rule="evenodd" d="M521 241.5H1V240.5H521V241.5Z" fill="#20202E"/>
<path fill-rule="evenodd" clip-rule="evenodd" d="M521 251.5H1V250.5H521V251.5Z" fill="#20202E"/>
<path fill-rule="evenodd" clip-rule="evenodd" d="M0.5 251L0.5 1L1.5 1L1.5 251L0.5 251Z" fill="#20202E"/>
<path fill-rule="evenodd" clip-rule="evenodd" d="M10.5 251L10.5 1L11.5 1L11.5 251L10.5 251Z" fill="#20202E"/>
<path fill-rule="evenodd" clip-rule="evenodd" d="M20.5 251L20.5 1L21.5 1L21.5 251L20.5 251Z" fill="#20202E"/>
<path fill-rule="evenodd" clip-rule="evenodd" d="M30.5 251L30.5 1L31.5 1L31.5 251L30.5 251Z" fill="#20202E"/>
<path fill-rule="evenodd" clip-rule="evenodd" d="M40.5 251L40.5 1L41.5 1L41.5 251L40.5 251Z" fill="#20202E"/>
<path fill-rule="evenodd" clip-rule="evenodd" d="M50.5 251L50.5 1L51.5 1L51.5 251L50.5 251Z" fill="#20202E"/>
<path fill-rule="evenodd" clip-rule="evenodd" d="M60.5 251L60.5 1L61.5 1L61.5 251L60.5 251Z" fill="#20202E"/>
<path fill-rule="evenodd" clip-rule="evenodd" d="M70.5 251L70.5 1L71.5 1L71.5 251L70.5 251Z" fill="#20202E"/>
<path fill-rule="evenodd" clip-rule="evenodd" d="M80.5 251L80.5 1L81.5 1L81.5 251L80.5 251Z" fill="#20202E"/>
<path fill-rule="evenodd" clip-rule="evenodd" d="M90.5 251L90.5 1L91.5 1L91.5 251L90.5 251Z" fill="#20202E"/>
<path fill-rule="evenodd" clip-rule="evenodd" d="M100.5 251L100.5 1L101.5 1L101.5 251L100.5 251Z" fill="#20202E"/>
<path fill-rule="evenodd" clip-rule="evenodd" d="M110.5 251L110.5 1L111.5 1L111.5 251L110.5 251Z" fill="#20202E"/>
<path fill-rule="evenodd" clip-rule="evenodd" d="M120.5 251L120.5 1L121.5 1L121.5 251L120.5 251Z" fill="#20202E"/>
<path fill-rule="evenodd" clip-rule="evenodd" d="M130.5 251L130.5 1L131.5 1L131.5 251L130.5 251Z" fill="#20202E"/>
<path fill-rule="evenodd" clip-rule="evenodd" d="M140.5 251L140.5 1L141.5 1L141.5 251L140.5 251Z" fill="#20202E"/>
<path fill-rule="evenodd" clip-rule="evenodd" d="M150.5 251L150.5 1L151.5 1L151.5 251L150.5 251Z" fill="#20202E"/>
<path fill-rule="evenodd" clip-rule="evenodd" d="M160.5 251L160.5 1L161.5 1L161.5 251L160.5 251Z" fill="#20202E"/>
<path fill-rule="evenodd" clip-rule="evenodd" d="M170.5 251L170.5 1L171.5 1L171.5 251L170.5 251Z" fill="#20202E"/>
<path fill-rule="evenodd" clip-rule="evenodd" d="M180.5 251L180.5 1L181.5 1L181.5 251L180.5 251Z" fill="#20202E"/>
<path fill-rule="evenodd" clip-rule="evenodd" d="M190.5 251L190.5 1L191.5 1L191.5 251L190.5 251Z" fill="#20202E"/>
<path fill-rule="evenodd" clip-rule="evenodd" d="M200.5 251L200.5 1L201.5 1L201.5 251L200.5 251Z" fill="#20202E"/>
<path fill-rule="evenodd" clip-rule="evenodd" d="M210.5 251L210.5 1L211.5 1L211.5 251L210.5 251Z" fill="#20202E"/>
<path fill-rule="evenodd" clip-rule="evenodd" d="M220.5 251L220.5 1L221.5 1L221.5 251L220.5 251Z" fill="#20202E"/>
<path fill-rule="evenodd" clip-rule="evenodd" d="M230.5 251L230.5 1L231.5 1L231.5 251L230.5 251Z" fill="#20202E"/>
<path fill-rule="evenodd" clip-rule="evenodd" d="M240.5 251L240.5 1L241.5 1L241.5 251L240.5 251Z" fill="#20202E"/>
<path fill-rule="evenodd" clip-rule="evenodd" d="M250.5 251L250.5 1L251.5 1L251.5 251L250.5 251Z" fill="#20202E"/>
<path fill-rule="evenodd" clip-rule="evenodd" d="M260.5 251L260.5 1L261.5 1L261.5 251L260.5 251Z" fill="#20202E"/>
<path fill-rule="evenodd" clip-rule="evenodd" d="M270.5 251L270.5 1L271.5 1L271.5 251L270.5 251Z" fill="#20202E"/>
<path fill-rule="evenodd" clip-rule="evenodd" d="M280.5 251L280.5 1L281.5 1L281.5 251L280.5 251Z" fill="#20202E"/>
<path fill-rule="evenodd" clip-rule="evenodd" d="M290.5 251L290.5 1L291.5 1L291.5 251L290.5 251Z" fill="#20202E"/>
<path fill-rule="evenodd" clip-rule="evenodd" d="M300.5 251L300.5 1L301.5 1L301.5 251L300.5 251Z" fill="#20202E"/>
<path fill-rule="evenodd" clip-rule="evenodd" d="M310.5 251L310.5 1L311.5 1L311.5 251L310.5 251Z" fill="#20202E"/>
<path fill-rule="evenodd" clip-rule="evenodd" d="M320.5 251L320.5 1L321.5 1L321.5 251L320.5 251Z" fill="#20202E"/>
<path fill-rule="evenodd" clip-rule="evenodd" d="M330.5 251L330.5 1L331.5 1L331.5 251L330.5 251Z" fill="#20202E"/>
<path fill-rule="evenodd" clip-rule="evenodd" d="M340.5 251L340.5 1L341.5 1L341.5 251L340.5 251Z" fill="#20202E"/>
<path fill-rule="evenodd" clip-rule="evenodd" d="M350.5 251L350.5 1L351.5 1L351.5 251L350.5 251Z" fill="#20202E"/>
<path fill-rule="evenodd" clip-rule="evenodd" d="M360.5 251L360.5 1L361.5 1L361.5 251L360.5 251Z" fill="#20202E"/>
<path fill-rule="evenodd" clip-rule="evenodd" d="M370.5 251L370.5 1L371.5 1L371.5 251L370.5 251Z" fill="#20202E"/>
<path fill-rule="evenodd" clip-rule="evenodd" d="M380.5 251L380.5 1L381.5 1L381.5 251L380.5 251Z" fill="#20202E"/>
<path fill-rule="evenodd" clip-rule="evenodd" d="M390.5 251L390.5 1L391.5 1L391.5 251L390.5 251Z" fill="#20202E"/>
<path fill-rule="evenodd" clip-rule="evenodd" d="M400.5 251L400.5 1L401.5 1L401.5 251L400.5 251Z" fill="#20202E"/>
<path fill-rule="evenodd" clip-rule="evenodd" d="M410.5 251L410.5 1L411.5 1L411.5 251L410.5 251Z" fill="#20202E"/>
<path fill-rule="evenodd" clip-rule="evenodd" d="M420.5 251L420.5 1L421.5 1L421.5 251L420.5 251Z" fill="#20202E"/>
<path fill-rule="evenodd" clip-rule="evenodd" d="M430.5 251L430.5 1L431.5 1L431.5 251L430.5 251Z" fill="#20202E"/>
<path fill-rule="evenodd" clip-rule="evenodd" d="M440.5 251L440.5 1L441.5 1L441.5 251L440.5 251Z" fill="#20202E"/>
<path fill-rule="evenodd" clip-rule="evenodd" d="M450.5 251L450.5 1L451.5 1L451.5 251L450.5 251Z" fill="#20202E"/>
<path fill-rule="evenodd" clip-rule="evenodd" d="M460.5 251L460.5 1L461.5 1L461.5 251L460.5 251Z" fill="#20202E"/>
<path fill-rule="evenodd" clip-rule="evenodd" d="M470.5 251L470.5 1L471.5 1L471.5 251L470.5 251Z" fill="#20202E"/>
<path fill-rule="evenodd" clip-rule="evenodd" d="M480.5 251L480.5 1L481.5 1L481.5 251L480.5 251Z" fill="#20202E"/>
<path fill-rule="evenodd" clip-rule="evenodd" d="M490.5 251L490.5 1L491.5 1L491.5 251L490.5 251Z" fill="#20202E"/>
<path fill-rule="evenodd" clip-rule="evenodd" d="M500.5 251L500.5 1L501.5 1L501.5 251L500.5 251Z" fill="#20202E"/>
<path fill-rule="evenodd" clip-rule="evenodd" d="M510.5 251L510.5 1L511.5 1L511.5 251L510.5 251Z" fill="#20202E"/>
<path fill-rule="evenodd" clip-rule="evenodd" d="M520.5 251L520.5 1L521.5 1L521.5 251L520.5 251Z" fill="#20202E"/>
<path fill-rule="evenodd" clip-rule="evenodd" d="M189.963 57.8832C189.963 57.8833 189.963 57.8817 189.963 57.8785ZM190.749 57.0007C197.779 57.0371 209.972 58.5932 217.367 59.7453C217.585 60.7842 217.951 61.9841 218.579 63.2416C219.633 65.3496 221 66.7604 221.867 67.5695C222.57 68.2255 223.38 68.8725 223.88 69.272C223.924 69.3068 223.965 69.3396 224.004 69.3704C225.765 70.7793 230.265 73.848 234.192 76.4457C238.003 78.967 242.831 82.0818 245.133 83.2331C247.02 84.1764 251.165 86.2119 256.7 85.3605C261.4 84.6373 265.393 82.08 268.7 79.6C268.87 79.4726 269.034 79.3493 269.193 79.2296C269.646 78.8895 270.059 78.5796 270.443 78.294C271.367 79.9693 272.341 81.8905 273.392 83.9916C273.553 84.3132 273.716 84.6411 273.882 84.9732C274.883 86.98 275.962 89.1427 276.984 91.0379C278.053 93.0215 279.607 95.7743 281.469 97.9021C283.298 99.9926 285.7 102.694 289.347 105.091C292.953 107.46 297.121 109.127 302.288 110.562C304.047 111.051 305.972 111.513 307.552 111.891C308.171 112.04 308.737 112.176 309.219 112.295C310.123 112.519 310.856 112.715 311.458 112.891C311.328 118.873 310.915 131.103 310.446 143.224C310.166 150.488 309.87 157.594 309.614 163.091C309.601 163.371 309.588 163.646 309.576 163.918C306.437 163.526 302.72 163.127 299.035 162.847C295.989 162.615 292.802 162.452 289.899 162.461C287.299 162.469 283.849 162.603 280.843 163.423C275.652 164.838 270.681 168.027 268.057 173.495C265.477 178.868 266.104 184.542 268.267 188.867C269.305 190.944 271.178 194.264 274.665 196.92C276.096 198.011 277.626 198.863 279.23 199.5H241.451C247.126 197.943 251.976 194.405 254.73 189.058C257.468 183.743 257.464 177.954 255.994 173.052C253.881 166.011 248.736 162.533 244.984 160.767C243.299 159.974 241.595 159.384 240.494 159.002L240.415 158.974C239.11 158.522 238.442 158.287 237.874 158.034C236.269 157.321 234.474 156.677 233.087 156.182C232.909 156.119 232.735 156.057 232.565 155.996C231.436 155.594 230.473 155.251 229.584 154.907C229.193 153.264 228.711 151.197 228.165 148.816C226.863 143.146 225.218 135.788 223.603 128.334C221.986 120.87 220.412 113.368 219.247 107.392C218.663 104.396 218.197 101.857 217.881 99.9305C217.671 98.6477 217.577 97.915 217.534 97.5865C217.503 97.3439 217.5 97.3217 217.5 97.4611C217.501 96.435 217.562 95.2652 217.644 93.6706C217.651 93.5457 217.657 93.4181 217.664 93.2879C217.748 91.6493 217.851 89.5586 217.81 87.51C217.771 85.5567 217.598 82.8481 216.783 80.13C215.97 77.4191 214.051 73.2084 209.454 70.5811C208.272 69.9058 202.943 66.4589 197.585 62.4862C194.946 60.5288 192.555 58.6309 190.798 57.0448C190.781 57.03 190.765 57.0153 190.749 57.0007ZM309.086 172.5C309.085 172.497 309.093 172.44 309.115 172.339C309.098 172.453 309.087 172.504 309.086 172.5ZM318.038 165.074C318.124 165.074 318.172 165.077 318.175 165.079C318.178 165.081 318.134 165.081 318.038 165.074ZM313.522 113.645C313.522 113.645 313.512 113.64 313.495 113.629C313.514 113.64 313.522 113.645 313.522 113.645ZM222.98 60.7353C222.98 60.7358 222.958 60.7307 222.917 60.7188C222.961 60.7289 222.981 60.7349 222.98 60.7353ZM217.092 52.5329C217.091 52.3901 217.099 52.3633 217.094 52.4878C217.094 52.5036 217.093 52.5185 217.092 52.5329ZM188.935 55.192C188.886 55.1315 188.865 55.1019 188.867 55.1023C188.869 55.1027 188.893 55.133 188.935 55.192ZM169.405 45.1506C173.159 38.6122 180.339 33 190.5 33C202.131 33 223.041 36.1608 228.103 37.2858C229.981 37.7031 232.458 38.4587 234.798 40.0866C237.498 41.9646 239.43 44.5962 240.391 47.6707C240.932 49.4028 241.07 51.0126 241.093 52.1375C241.352 52.318 241.627 52.5091 241.918 52.7096C243.506 53.8056 245.455 55.1204 247.433 56.4293C249.415 57.74 251.38 59.015 253.006 60.0374C253.351 60.2545 253.675 60.4562 253.974 60.6414C254.078 60.5652 254.187 60.4848 254.3 60.4C254.515 60.2388 254.748 60.0622 254.997 59.8729C257.442 58.0192 261.48 54.9581 265.689 53.418C268.386 52.4315 272 51.7001 276.053 52.5744C280.206 53.4701 283.477 55.759 285.919 58.4724C287.955 60.7338 289.663 63.5198 290.958 65.8065C292.331 68.2322 293.675 70.8924 294.858 73.2584C295.038 73.6178 295.213 73.9695 295.385 74.3135C296.401 76.3483 297.284 78.1175 298.11 79.6496C298.913 81.1405 299.367 81.835 299.503 82.0441C299.551 82.1179 299.56 82.1312 299.531 82.0979C301.202 84.0074 301.8 84.5558 302.528 85.034C303.297 85.5398 304.879 86.3731 308.712 87.4378C310.053 87.8103 311.256 88.0983 312.628 88.4266C313.356 88.6007 314.131 88.7862 314.999 89.0017C317.181 89.543 319.946 90.2766 322.577 91.3972C325.216 92.521 328.577 94.3823 331.265 97.6884C334.165 101.256 335.5 105.537 335.5 110C335.5 114.291 334.987 129.704 334.428 144.151C334.147 151.45 333.848 158.624 333.589 164.206C333.351 169.309 333.11 174.086 332.879 175.697C332.729 176.751 332.352 179.308 330.935 181.85C329.881 183.741 328.46 185.293 326.787 186.466C329.246 190.271 330.5 194.902 330.5 200C330.5 205.896 329.126 212.577 323.965 217.565C318.875 222.485 312.419 223.5 307.5 223.5H176C173.309 223.5 170.331 223.2 167.48 222.244C164.807 221.348 160.758 219.351 158.28 214.926C155.481 209.928 156.263 204.763 157.96 201.139C159.506 197.835 161.972 195.266 164.249 193.339C167.636 190.473 171.803 187.123 176.07 184.302C179.999 181.705 185.396 178.602 191.027 177.663C193.596 177.235 197.788 177.121 201.509 177.057C204.781 176.999 208.599 176.978 212.441 176.956C213.436 176.95 214.433 176.944 215.423 176.938C216.953 176.928 218.468 176.917 219.946 176.902C218.37 176.263 216.383 175.378 214.539 174.205C213.009 173.232 209.234 170.649 207.616 165.795C207.128 164.333 205.986 159.47 204.773 154.184C203.449 148.416 201.782 140.962 200.147 133.416C198.514 125.88 196.901 118.195 195.69 111.983C195.087 108.885 194.569 106.08 194.197 103.812C193.888 101.927 193.5 99.4058 193.5 97.5C193.5 95.8039 193.595 93.9899 193.671 92.529C193.679 92.3667 193.688 92.2088 193.695 92.0559C193.755 90.8946 193.799 89.9285 193.814 89.0904C190.9 87.1899 187.011 84.5235 183.29 81.7638C180.366 79.5962 177.288 77.1816 174.718 74.8615C173.438 73.706 172.122 72.4297 170.965 71.1045C169.973 69.9682 168.372 67.9921 167.358 65.4567C164.678 58.7574 166.113 50.8851 169.405 45.1506Z" fill="white"/>
<path fill-rule="evenodd" clip-rule="evenodd" d="M181.981 52.3697C180.325 55.2531 180.171 58.4464 180.821 60.0715C180.912 60.2985 181.211 60.7931 181.888 61.5688C182.531 62.3052 183.392 63.1579 184.433 64.0972C186.512 65.9739 189.175 68.0763 191.927 70.1169C197.446 74.2102 203.109 77.897 204.74 78.8294C206.391 79.7726 207.236 81.3673 207.684 82.8598C208.132 84.3538 208.279 86.0561 208.312 87.7C208.345 89.3638 208.262 91.1353 208.176 92.8002C208.169 92.951 208.161 93.1007 208.153 93.2495C208.074 94.7802 208 96.2059 208 97.5C208 98.0092 208.155 99.3248 208.506 101.467C208.844 103.529 209.331 106.173 209.922 109.209C211.105 115.278 212.695 122.853 214.318 130.346C215.941 137.836 217.595 145.232 218.905 150.941C220.226 156.695 221.153 160.535 221.366 161.192C221.365 161.19 221.365 161.189 221.365 161.188C221.372 161.185 221.535 161.471 222.318 161.968C223.128 162.483 224.253 163.009 225.616 163.554C226.808 164.031 228.084 164.485 229.377 164.945C229.549 165.007 229.722 165.068 229.895 165.13C231.328 165.641 232.79 166.171 234.015 166.715C234.99 167.149 236.031 167.51 237.183 167.909L237.303 167.95C238.459 168.351 239.739 168.798 240.939 169.363C243.403 170.522 245.861 172.336 246.894 175.782C247.795 178.782 247.696 181.967 246.285 184.707C244.852 187.489 242.212 189.524 238.606 190.425C236.795 190.878 233.315 191.095 229.363 191.225C225.295 191.359 220.389 191.406 215.516 191.437C214.498 191.444 213.482 191.45 212.475 191.456C208.644 191.478 204.94 191.499 201.762 191.554C197.666 191.626 194.688 191.753 193.411 191.966C190.959 192.375 187.703 193.994 184.066 196.398C180.499 198.756 176.836 201.683 173.615 204.408C172.126 205.669 171.393 206.644 171.092 207.286C170.95 207.591 170.932 207.761 170.931 207.816C170.931 207.829 170.931 207.837 170.932 207.842C170.949 207.872 171.169 208.188 172.092 208.497C172.99 208.798 174.295 209 176 209H307.5C310.704 209 312.682 208.305 313.887 207.14C315.078 205.989 316 203.907 316 200C316 196.327 314.834 194.283 313.609 193.142C312.324 191.946 310.712 191.5 309.5 191.5H287.5C284.551 191.5 282.243 190.751 280.422 189.364C278.657 188.019 277.574 186.238 276.764 184.618C275.72 182.53 275.49 179.962 276.621 177.606C277.762 175.229 280.084 173.477 283.342 172.588C285.057 172.12 287.433 171.969 289.929 171.961C292.489 171.953 295.404 172.098 298.315 172.32C304.137 172.763 310.076 173.521 313.38 174.029C315.02 174.281 316.216 174.455 317.133 174.532C317.752 174.585 318.13 174.581 318.349 174.563C318.353 174.548 318.358 174.532 318.362 174.515C318.415 174.313 318.47 174.035 318.525 173.646C318.628 172.925 318.842 169.162 319.104 163.532C319.362 158.002 319.658 150.869 319.939 143.591C320.503 129.004 321 113.939 321 110C321 108.513 320.598 107.555 320.013 106.835C319.384 106.06 318.385 105.372 316.895 104.738C315.404 104.103 313.602 103.595 311.507 103.075C310.885 102.92 310.232 102.764 309.558 102.602C308.039 102.238 306.419 101.85 304.831 101.409C300.192 100.12 297.047 98.7834 294.564 97.1518C292.073 95.5144 290.385 93.6651 288.618 91.6463C287.538 90.4113 286.422 88.5266 285.346 86.53C284.402 84.7792 283.401 82.773 282.394 80.755C282.226 80.4176 282.057 80.0799 281.889 79.743C280.7 77.3662 279.508 75.0128 278.34 72.9505C277.156 70.8592 276.077 69.2117 275.142 68.1724C274.291 67.2273 273.575 66.8734 272.996 66.7485C272.396 66.6191 271.658 66.6744 270.671 67.0353C268.613 67.7883 266.303 69.5218 263.315 71.764C263.21 71.842 263.106 71.9207 263 72C259.936 74.2979 257.521 75.6223 255.255 75.9709C252.816 76.3462 250.962 75.5263 249.382 74.7361C247.715 73.9025 243.443 71.1754 239.433 68.5225C235.399 65.8538 231.295 63.0373 229.938 61.9522L229.876 61.9028C229.305 61.4453 228.771 61.0187 228.349 60.6245C227.89 60.1962 227.42 59.6796 227.076 58.993C226.728 58.2957 226.602 57.609 226.548 56.9803C226.5 56.4181 226.5 55.7612 226.5 55.083L226.5 55C226.5 54.4469 226.535 53.8199 226.562 53.3467C226.573 53.1454 226.583 52.9719 226.588 52.8438C226.607 52.3216 226.579 52.1073 226.558 52.0198C226.548 52.0119 226.535 52.0019 226.518 51.9898C226.354 51.8758 225.926 51.6556 224.958 51.4405C220.575 50.4665 200.764 47.5 190.5 47.5C186.273 47.5 183.54 49.6537 181.981 52.3697ZM177.644 49.8803C179.96 45.8463 184.227 42.5 190.5 42.5C201.236 42.5 221.425 45.5335 226.042 46.5595C228.599 47.1276 230.607 48.2117 231.324 50.5043C231.615 51.4353 231.609 52.3597 231.584 53.0312C231.572 53.3551 231.556 53.6191 231.542 53.8637C231.519 54.2392 231.5 54.5692 231.5 55C231.5 55.7925 231.502 56.2298 231.53 56.5509C231.539 56.6584 231.549 56.7244 231.556 56.7607C231.585 56.7952 231.646 56.8621 231.76 56.9692C232.026 57.2172 232.407 57.524 233.062 58.0478C234.205 58.9627 238.101 61.6462 242.192 64.3525C246.307 67.0746 250.285 69.5975 251.618 70.2639C253.037 70.9737 253.684 71.1538 254.495 71.0291C255.479 70.8777 257.064 70.2021 260 68C260.203 67.8479 260.407 67.6944 260.612 67.5401C263.298 65.5194 266.171 63.3577 268.953 62.3397C270.53 61.7631 272.26 61.4746 274.05 61.8609C275.862 62.2516 277.459 63.2727 278.858 64.8276C280.173 66.2883 281.469 68.3283 282.691 70.487C283.93 72.6747 285.174 75.1338 286.361 77.507C286.533 77.8518 286.704 78.1944 286.874 78.5343C287.884 80.5582 288.844 82.4823 289.747 84.1575C290.827 86.1609 291.712 87.5887 292.381 88.3537C294.115 90.3349 295.427 91.7356 297.31 92.9732C299.202 94.2166 301.808 95.3798 306.169 96.5912C307.67 97.0081 309.14 97.3603 310.616 97.7139C311.312 97.8807 312.009 98.0477 312.711 98.222C314.836 98.7492 316.97 99.335 318.855 100.137C320.74 100.941 322.554 102.033 323.893 103.681C325.276 105.383 326 107.487 326 110C326 114.061 325.497 129.246 324.936 143.784C324.654 151.069 324.357 158.217 324.099 163.765C323.845 169.213 323.622 173.325 323.475 174.354C323.344 175.266 323.142 176.318 322.637 177.225C322.035 178.304 321.105 179.017 319.919 179.346C318.907 179.627 317.785 179.605 316.711 179.515C315.596 179.42 314.23 179.219 312.62 178.971C309.424 178.479 303.613 177.737 297.935 177.305C295.096 177.089 292.324 176.953 289.945 176.961C287.504 176.969 285.693 177.13 284.658 177.412C282.416 178.023 281.488 179.021 281.129 179.769C280.76 180.538 280.78 181.47 281.236 182.382C281.926 183.762 282.593 184.731 283.452 185.386C284.257 185.999 285.448 186.5 287.5 186.5H309.5C311.788 186.5 314.676 187.304 317.016 189.483C319.416 191.717 321 195.173 321 200C321 204.593 319.922 208.261 317.362 210.735C314.818 213.195 311.295 214 307.5 214H176C173.955 214 172.073 213.764 170.502 213.237C168.968 212.723 167.431 211.824 166.569 210.284C165.639 208.624 165.802 206.794 166.564 205.167C167.294 203.606 168.624 202.081 170.385 200.592C173.664 197.817 177.5 194.744 181.309 192.227C185.047 189.756 189.041 187.625 192.589 187.034C194.311 186.747 197.708 186.624 201.675 186.555C204.884 186.499 208.625 186.478 212.459 186.456C213.463 186.45 214.474 186.444 215.484 186.438C220.361 186.406 225.205 186.359 229.199 186.228C233.309 186.092 236.205 185.872 237.394 185.575C239.788 184.976 241.148 183.761 241.84 182.418C242.553 181.033 242.705 179.218 242.105 177.218C241.639 175.664 240.597 174.728 238.81 173.887C237.886 173.452 236.853 173.086 235.665 172.675L235.481 172.611C234.383 172.23 233.159 171.807 231.985 171.285C230.959 170.829 229.672 170.359 228.215 169.839C228.046 169.779 227.875 169.718 227.703 169.657C226.421 169.201 225.047 168.711 223.759 168.196C222.309 167.616 220.841 166.954 219.635 166.188C218.519 165.478 217.163 164.396 216.628 162.791C216.329 161.892 215.324 157.688 214.032 152.059C212.717 146.33 211.059 138.914 209.432 131.404C207.805 123.897 206.207 116.284 205.015 110.166C204.419 107.108 203.921 104.409 203.572 102.275C203.235 100.222 203 98.4908 203 97.5C203 96.0683 203.081 94.5101 203.159 93.0084C203.167 92.8528 203.175 92.6977 203.183 92.5435C203.269 90.8647 203.342 89.2612 203.313 87.8C203.283 86.3189 203.149 85.1462 202.894 84.2965C202.639 83.4452 202.359 83.2274 202.26 83.1706C200.391 82.103 194.553 78.2898 188.948 74.1331C186.137 72.0487 183.331 69.8386 181.083 67.809C179.959 66.7952 178.941 65.7964 178.121 64.857C177.336 63.9569 176.588 62.9515 176.179 61.9285C174.829 58.5536 175.425 53.7469 177.644 49.8803Z" fill="black"/>
</svg>
