<svg width="522" height="252" viewBox="0 0 522 252" fill="none" xmlns="http://www.w3.org/2000/svg">
<path fill-rule="evenodd" clip-rule="evenodd" d="M521 1.5H1V0.5H521V1.5Z" fill="#20202E"/>
<path fill-rule="evenodd" clip-rule="evenodd" d="M521 11.5H1V10.5H521V11.5Z" fill="#20202E"/>
<path fill-rule="evenodd" clip-rule="evenodd" d="M521 21.5H1V20.5H521V21.5Z" fill="#20202E"/>
<path fill-rule="evenodd" clip-rule="evenodd" d="M521 31.5H1V30.5H521V31.5Z" fill="#20202E"/>
<path fill-rule="evenodd" clip-rule="evenodd" d="M521 41.5H1V40.5H521V41.5Z" fill="#20202E"/>
<path fill-rule="evenodd" clip-rule="evenodd" d="M521 51.5H1V50.5H521V51.5Z" fill="#20202E"/>
<path fill-rule="evenodd" clip-rule="evenodd" d="M521 61.5H1V60.5H521V61.5Z" fill="#20202E"/>
<path fill-rule="evenodd" clip-rule="evenodd" d="M521 71.5H1V70.5H521V71.5Z" fill="#20202E"/>
<path fill-rule="evenodd" clip-rule="evenodd" d="M521 81.5H1V80.5H521V81.5Z" fill="#20202E"/>
<path fill-rule="evenodd" clip-rule="evenodd" d="M521 91.5H1V90.5H521V91.5Z" fill="#20202E"/>
<path fill-rule="evenodd" clip-rule="evenodd" d="M521 101.5H1V100.5H521V101.5Z" fill="#20202E"/>
<path fill-rule="evenodd" clip-rule="evenodd" d="M521 111.5H1V110.5H521V111.5Z" fill="#20202E"/>
<path fill-rule="evenodd" clip-rule="evenodd" d="M521 121.5H1V120.5H521V121.5Z" fill="#20202E"/>
<path fill-rule="evenodd" clip-rule="evenodd" d="M521 131.5H1V130.5H521V131.5Z" fill="#20202E"/>
<path fill-rule="evenodd" clip-rule="evenodd" d="M521 141.5H1V140.5H521V141.5Z" fill="#20202E"/>
<path fill-rule="evenodd" clip-rule="evenodd" d="M521 151.5H1V150.5H521V151.5Z" fill="#20202E"/>
<path fill-rule="evenodd" clip-rule="evenodd" d="M521 161.5H1V160.5H521V161.5Z" fill="#20202E"/>
<path fill-rule="evenodd" clip-rule="evenodd" d="M521 171.5H1V170.5H521V171.5Z" fill="#20202E"/>
<path fill-rule="evenodd" clip-rule="evenodd" d="M521 181.5H1V180.5H521V181.5Z" fill="#20202E"/>
<path fill-rule="evenodd" clip-rule="evenodd" d="M521 191.5H1V190.5H521V191.5Z" fill="#20202E"/>
<path fill-rule="evenodd" clip-rule="evenodd" d="M521 201.5H1V200.5H521V201.5Z" fill="#20202E"/>
<path fill-rule="evenodd" clip-rule="evenodd" d="M521 211.5H1V210.5H521V211.5Z" fill="#20202E"/>
<path fill-rule="evenodd" clip-rule="evenodd" d="M521 221.5H1V220.5H521V221.5Z" fill="#20202E"/>
<path fill-rule="evenodd" clip-rule="evenodd" d="M521 231.5H1V230.5H521V231.5Z" fill="#20202E"/>
<path fill-rule="evenodd" clip-rule="evenodd" d="M521 241.5H1V240.5H521V241.5Z" fill="#20202E"/>
<path fill-rule="evenodd" clip-rule="evenodd" d="M521 251.5H1V250.5H521V251.5Z" fill="#20202E"/>
<path fill-rule="evenodd" clip-rule="evenodd" d="M0.5 251L0.5 1L1.5 1L1.5 251L0.5 251Z" fill="#20202E"/>
<path fill-rule="evenodd" clip-rule="evenodd" d="M10.5 251L10.5 1L11.5 1L11.5 251L10.5 251Z" fill="#20202E"/>
<path fill-rule="evenodd" clip-rule="evenodd" d="M20.5 251L20.5 1L21.5 1L21.5 251L20.5 251Z" fill="#20202E"/>
<path fill-rule="evenodd" clip-rule="evenodd" d="M30.5 251L30.5 1L31.5 1L31.5 251L30.5 251Z" fill="#20202E"/>
<path fill-rule="evenodd" clip-rule="evenodd" d="M40.5 251L40.5 1L41.5 1L41.5 251L40.5 251Z" fill="#20202E"/>
<path fill-rule="evenodd" clip-rule="evenodd" d="M50.5 251L50.5 1L51.5 1L51.5 251L50.5 251Z" fill="#20202E"/>
<path fill-rule="evenodd" clip-rule="evenodd" d="M60.5 251L60.5 1L61.5 1L61.5 251L60.5 251Z" fill="#20202E"/>
<path fill-rule="evenodd" clip-rule="evenodd" d="M70.5 251L70.5 1L71.5 1L71.5 251L70.5 251Z" fill="#20202E"/>
<path fill-rule="evenodd" clip-rule="evenodd" d="M80.5 251L80.5 1L81.5 1L81.5 251L80.5 251Z" fill="#20202E"/>
<path fill-rule="evenodd" clip-rule="evenodd" d="M90.5 251L90.5 1L91.5 1L91.5 251L90.5 251Z" fill="#20202E"/>
<path fill-rule="evenodd" clip-rule="evenodd" d="M100.5 251L100.5 1L101.5 1L101.5 251L100.5 251Z" fill="#20202E"/>
<path fill-rule="evenodd" clip-rule="evenodd" d="M110.5 251L110.5 1L111.5 1L111.5 251L110.5 251Z" fill="#20202E"/>
<path fill-rule="evenodd" clip-rule="evenodd" d="M120.5 251L120.5 1L121.5 1L121.5 251L120.5 251Z" fill="#20202E"/>
<path fill-rule="evenodd" clip-rule="evenodd" d="M130.5 251L130.5 1L131.5 1L131.5 251L130.5 251Z" fill="#20202E"/>
<path fill-rule="evenodd" clip-rule="evenodd" d="M140.5 251L140.5 1L141.5 1L141.5 251L140.5 251Z" fill="#20202E"/>
<path fill-rule="evenodd" clip-rule="evenodd" d="M150.5 251L150.5 1L151.5 1L151.5 251L150.5 251Z" fill="#20202E"/>
<path fill-rule="evenodd" clip-rule="evenodd" d="M160.5 251L160.5 1L161.5 1L161.5 251L160.5 251Z" fill="#20202E"/>
<path fill-rule="evenodd" clip-rule="evenodd" d="M170.5 251L170.5 1L171.5 1L171.5 251L170.5 251Z" fill="#20202E"/>
<path fill-rule="evenodd" clip-rule="evenodd" d="M180.5 251L180.5 1L181.5 1L181.5 251L180.5 251Z" fill="#20202E"/>
<path fill-rule="evenodd" clip-rule="evenodd" d="M190.5 251L190.5 1L191.5 1L191.5 251L190.5 251Z" fill="#20202E"/>
<path fill-rule="evenodd" clip-rule="evenodd" d="M200.5 251L200.5 1L201.5 1L201.5 251L200.5 251Z" fill="#20202E"/>
<path fill-rule="evenodd" clip-rule="evenodd" d="M210.5 251L210.5 1L211.5 1L211.5 251L210.5 251Z" fill="#20202E"/>
<path fill-rule="evenodd" clip-rule="evenodd" d="M220.5 251L220.5 1L221.5 1L221.5 251L220.5 251Z" fill="#20202E"/>
<path fill-rule="evenodd" clip-rule="evenodd" d="M230.5 251L230.5 1L231.5 1L231.5 251L230.5 251Z" fill="#20202E"/>
<path fill-rule="evenodd" clip-rule="evenodd" d="M240.5 251L240.5 1L241.5 1L241.5 251L240.5 251Z" fill="#20202E"/>
<path fill-rule="evenodd" clip-rule="evenodd" d="M250.5 251L250.5 1L251.5 1L251.5 251L250.5 251Z" fill="#20202E"/>
<path fill-rule="evenodd" clip-rule="evenodd" d="M260.5 251L260.5 1L261.5 1L261.5 251L260.5 251Z" fill="#20202E"/>
<path fill-rule="evenodd" clip-rule="evenodd" d="M270.5 251L270.5 1L271.5 1L271.5 251L270.5 251Z" fill="#20202E"/>
<path fill-rule="evenodd" clip-rule="evenodd" d="M280.5 251L280.5 1L281.5 1L281.5 251L280.5 251Z" fill="#20202E"/>
<path fill-rule="evenodd" clip-rule="evenodd" d="M290.5 251L290.5 1L291.5 1L291.5 251L290.5 251Z" fill="#20202E"/>
<path fill-rule="evenodd" clip-rule="evenodd" d="M300.5 251L300.5 1L301.5 1L301.5 251L300.5 251Z" fill="#20202E"/>
<path fill-rule="evenodd" clip-rule="evenodd" d="M310.5 251L310.5 1L311.5 1L311.5 251L310.5 251Z" fill="#20202E"/>
<path fill-rule="evenodd" clip-rule="evenodd" d="M320.5 251L320.5 1L321.5 1L321.5 251L320.5 251Z" fill="#20202E"/>
<path fill-rule="evenodd" clip-rule="evenodd" d="M330.5 251L330.5 1L331.5 1L331.5 251L330.5 251Z" fill="#20202E"/>
<path fill-rule="evenodd" clip-rule="evenodd" d="M340.5 251L340.5 1L341.5 1L341.5 251L340.5 251Z" fill="#20202E"/>
<path fill-rule="evenodd" clip-rule="evenodd" d="M350.5 251L350.5 1L351.5 1L351.5 251L350.5 251Z" fill="#20202E"/>
<path fill-rule="evenodd" clip-rule="evenodd" d="M360.5 251L360.5 1L361.5 1L361.5 251L360.5 251Z" fill="#20202E"/>
<path fill-rule="evenodd" clip-rule="evenodd" d="M370.5 251L370.5 1L371.5 1L371.5 251L370.5 251Z" fill="#20202E"/>
<path fill-rule="evenodd" clip-rule="evenodd" d="M380.5 251L380.5 1L381.5 1L381.5 251L380.5 251Z" fill="#20202E"/>
<path fill-rule="evenodd" clip-rule="evenodd" d="M390.5 251L390.5 1L391.5 1L391.5 251L390.5 251Z" fill="#20202E"/>
<path fill-rule="evenodd" clip-rule="evenodd" d="M400.5 251L400.5 1L401.5 1L401.5 251L400.5 251Z" fill="#20202E"/>
<path fill-rule="evenodd" clip-rule="evenodd" d="M410.5 251L410.5 1L411.5 1L411.5 251L410.5 251Z" fill="#20202E"/>
<path fill-rule="evenodd" clip-rule="evenodd" d="M420.5 251L420.5 1L421.5 1L421.5 251L420.5 251Z" fill="#20202E"/>
<path fill-rule="evenodd" clip-rule="evenodd" d="M430.5 251L430.5 1L431.5 1L431.5 251L430.5 251Z" fill="#20202E"/>
<path fill-rule="evenodd" clip-rule="evenodd" d="M440.5 251L440.5 1L441.5 1L441.5 251L440.5 251Z" fill="#20202E"/>
<path fill-rule="evenodd" clip-rule="evenodd" d="M450.5 251L450.5 1L451.5 1L451.5 251L450.5 251Z" fill="#20202E"/>
<path fill-rule="evenodd" clip-rule="evenodd" d="M460.5 251L460.5 1L461.5 1L461.5 251L460.5 251Z" fill="#20202E"/>
<path fill-rule="evenodd" clip-rule="evenodd" d="M470.5 251L470.5 1L471.5 1L471.5 251L470.5 251Z" fill="#20202E"/>
<path fill-rule="evenodd" clip-rule="evenodd" d="M480.5 251L480.5 1L481.5 1L481.5 251L480.5 251Z" fill="#20202E"/>
<path fill-rule="evenodd" clip-rule="evenodd" d="M490.5 251L490.5 1L491.5 1L491.5 251L490.5 251Z" fill="#20202E"/>
<path fill-rule="evenodd" clip-rule="evenodd" d="M500.5 251L500.5 1L501.5 1L501.5 251L500.5 251Z" fill="#20202E"/>
<path fill-rule="evenodd" clip-rule="evenodd" d="M510.5 251L510.5 1L511.5 1L511.5 251L510.5 251Z" fill="#20202E"/>
<path fill-rule="evenodd" clip-rule="evenodd" d="M520.5 251L520.5 1L521.5 1L521.5 251L520.5 251Z" fill="#20202E"/>
<path fill-rule="evenodd" clip-rule="evenodd" d="M353.399 56.8533C353.399 56.8546 353.37 56.8639 353.315 56.8775C353.373 56.8588 353.4 56.852 353.399 56.8533ZM344.458 52.5918C344.458 52.5913 344.461 52.5976 344.467 52.6114C344.461 52.599 344.458 52.5923 344.458 52.5918ZM347.46 59.1787C347.637 59.527 347.817 59.8986 348.034 60.3446C348.119 60.5203 348.21 60.7076 348.309 60.9096L348.313 60.9186C348.763 61.8421 349.559 63.4738 350.649 65.0403C351.838 66.7492 353.667 68.8282 356.463 70.3781C357.849 71.1459 359.264 71.6697 360.668 72.0048C360.673 72.0315 360.678 72.0583 360.683 72.0853C362.027 79.7056 363.978 95.8504 363.009 121.039C362.514 133.914 361.645 149.686 360.895 162.815C360.855 163.511 360.815 164.201 360.776 164.885C360.653 164.545 360.558 164.266 360.494 164.052C360.472 163.978 360.447 163.896 360.421 163.806C360.133 162.836 359.582 160.978 358.781 159.339C357.607 156.939 355.56 154.176 351.992 152.392C349.113 150.953 346.247 150.701 344.705 150.603C343.094 150.499 341.16 150.5 339.288 150.5L339 150.5C335.104 150.5 333.21 150.249 331.86 149.855C330.689 149.513 329.263 148.87 326.817 146.988C323.603 144.516 319.051 141.142 313.147 140.068C306.801 138.915 301.064 140.708 295.89 143.142C294.231 143.923 292.685 144.673 291.213 145.388C288.402 146.753 285.86 147.987 283.31 149.053C282.08 149.567 281.071 149.943 280.262 150.203C279.889 149.862 279.484 149.479 278.993 149.013C278.588 148.629 278.123 148.189 277.57 147.671C276.097 146.294 273.902 144.293 271.354 142.697C268.841 141.123 264.688 139.109 259.503 139.541C257.54 139.705 253.23 139.811 247.915 139.941C246.332 139.98 244.66 140.021 242.934 140.067C236.263 140.242 228.068 140.49 224.027 141.163C222.039 141.495 219.603 142.337 217.863 142.959C215.749 143.715 213.174 144.704 210.354 145.823C204.699 148.068 197.727 150.968 190.828 153.884C182.062 157.59 173.641 161.222 167.774 163.753C165.83 164.591 164.166 165.309 162.863 165.868C161.085 163.108 158.696 159.502 156.276 156.103C153.809 152.638 150.365 148.008 147.309 145.389C146.282 144.508 144.357 142.99 141.683 142.091C143.12 141.482 144.648 140.856 146.274 140.214C158.997 135.527 209.466 115.111 257.199 95.7447C266.407 92.0087 275.527 88.3064 284.276 84.7544C298.371 79.0323 311.504 73.7004 322.498 69.2471C331.406 65.6385 338.892 62.6136 344.335 60.43C345.47 59.9744 346.514 59.5566 347.46 59.1787ZM124.257 151.342C122.761 152.446 121.702 153.404 120.953 154.209C121.81 154.019 122.704 153.856 123.631 153.731C123.656 153.612 123.681 153.492 123.708 153.373C123.811 152.908 123.978 152.194 124.257 151.342ZM130.195 153.541C130.196 153.542 130.169 153.544 130.11 153.543C130.165 153.54 130.194 153.54 130.195 153.541ZM109.126 159.034C109.069 159.06 109.076 159.052 109.142 159.027C109.137 159.03 109.131 159.032 109.126 159.034ZM119.165 164.044C119.181 164.103 119.179 164.111 119.167 164.056C119.166 164.052 119.165 164.049 119.165 164.044ZM164.921 168.927C164.921 168.928 164.921 168.927 164.921 168.927ZM278.578 150.63C278.578 150.63 278.595 150.627 278.628 150.625C278.594 150.63 278.578 150.631 278.578 150.63ZM281.653 151.369C281.716 151.406 281.749 151.429 281.75 151.431C281.75 151.434 281.718 151.415 281.653 151.369ZM359.859 68.4828C359.859 68.4823 359.866 68.4979 359.878 68.5316C359.865 68.5003 359.858 68.4834 359.859 68.4828ZM367.222 44.8731C367.65 45.9744 367.818 46.3634 367.99 46.6723C368.401 47.4128 368.778 48.1458 369.1 48.7913C372.102 49.2879 375.88 50.6296 378.986 54.2529C380.981 56.5798 382.063 59.1512 382.733 61.1971C383.415 63.2805 383.906 65.5806 384.317 67.9144C385.973 77.2941 388.022 95.1493 386.991 121.961C386.486 135.086 385.605 151.063 384.855 164.184C384.712 166.697 384.573 169.101 384.443 171.362C384.232 175.03 384.042 178.321 383.888 181.09C383.846 181.829 383.808 182.527 383.772 183.181C383.833 183.188 383.894 183.195 383.955 183.201C385.608 183.389 389.79 183.97 393.287 187.261C397.461 191.19 397.944 196.185 397.707 199.289C397.488 202.157 396.585 204.95 395.736 207.213C395.502 207.837 395.256 208.503 394.999 209.197C393.775 212.503 392.31 216.461 390.791 219.682C389.865 221.644 388.612 224.02 386.958 226.115C385.559 227.887 382.232 231.588 376.697 232.379C374.983 232.624 371.85 232.895 368.356 231.552C364.808 230.187 362.46 227.781 360.925 225.713C358.326 222.209 356.153 216.925 353.8 210.808C351.486 204.79 348.137 196.912 345.018 189.575L344.413 188.151C342.314 183.212 340.164 178.155 338.761 174.5C334.237 174.491 329.709 174.228 325.14 172.895C320.311 171.486 316.237 169.13 312.183 166.011C310.669 164.846 309.764 164.228 309.134 163.871C309.06 163.829 308.995 163.793 308.94 163.764C308.513 163.866 307.633 164.141 306.11 164.858C305.029 165.366 303.8 165.962 302.489 166.597C299.346 168.121 295.734 169.873 292.565 171.197C290.212 172.18 287.587 173.159 284.96 173.807C282.535 174.405 278.948 175.027 275.147 174.267C270.817 173.401 267.566 170.88 265.959 169.56C264.571 168.419 263.055 166.98 261.954 165.935C261.664 165.66 261.403 165.412 261.18 165.204C260.384 164.459 259.8 163.946 259.367 163.594C256.4 163.744 252.123 163.848 247.816 163.952C246.387 163.987 244.955 164.022 243.566 164.058C236.21 164.252 230.291 164.495 228.157 164.808C228.158 164.808 228.158 164.808 228.158 164.809C228.161 164.821 227.539 164.987 225.942 165.558C224.204 166.18 221.919 167.054 219.208 168.13C213.801 170.276 207.023 173.094 200.172 175.99C191.878 179.497 183.238 183.221 177.178 185.833C173.464 187.434 170.719 188.617 169.615 189.077C165.895 190.627 159.851 192.565 153.439 189.716C148.076 187.332 144.999 182.494 143.447 180.053L143.376 179.942C142.457 178.497 141.291 176.703 140.021 174.807C139.243 175.324 138.398 175.78 137.486 176.165C134.144 177.576 130.757 177.656 128.145 177.469C126.734 177.369 125.943 177.58 125.071 177.933C124.478 178.174 123.832 178.491 122.779 179.037C122.674 179.091 122.563 179.149 122.445 179.21C121.525 179.689 120.234 180.361 118.874 180.966C116.871 181.856 113.923 182.854 110.468 182.699C106.54 182.522 102.748 180.871 99.9141 177.738C97.4094 174.97 96.3036 171.769 95.7547 169.334C95.1851 166.807 95 164.127 95 161.5C95 161.258 94.9983 161 94.9964 160.728C94.9669 156.358 94.9121 148.246 101.646 139.866C107.937 132.036 119.165 125.101 137.6 117.836L137.731 117.784L137.862 117.736C149.866 113.326 199.956 93.0693 248.176 73.5054C257.137 69.8696 266.057 66.2481 274.657 62.7566C311.743 47.6991 342.878 35.0584 345.705 34.1158C348.186 33.2891 351.842 32.4665 355.866 33.4819C360.447 34.638 363.275 37.5709 364.864 40.0073C366.053 41.831 366.831 43.8568 367.151 44.6907C367.178 44.76 367.201 44.8211 367.222 44.8731ZM147.128 158.618C147.131 158.605 147.133 158.592 147.136 158.58C147.17 158.427 147.174 158.456 147.128 158.618ZM258.516 162.98C258.516 162.979 258.536 162.989 258.578 163.014C258.537 162.994 258.516 162.981 258.516 162.98ZM309.262 163.707C309.261 163.709 309.238 163.712 309.196 163.713C309.242 163.706 309.263 163.706 309.262 163.707Z" fill="white"/>
<path fill-rule="evenodd" clip-rule="evenodd" d="M352.318 47.5414C352.146 47.4981 351.586 47.44 350.29 47.8719C347.948 48.6526 317.741 60.9159 280.832 75.8997C272.048 79.4657 262.885 83.1858 253.627 86.9418C205.633 106.414 155.238 126.798 142.889 131.337C124.999 138.39 116.771 144.191 112.949 148.949C109.482 153.263 109.49 156.858 109.499 160.877C109.499 161.083 109.5 161.291 109.5 161.5C109.5 163.521 109.65 165.039 109.9 166.146C110.153 167.271 110.471 167.794 110.666 168.01C110.793 168.151 110.891 168.203 111.12 168.214C111.448 168.228 112.042 168.134 112.984 167.716C113.791 167.357 114.619 166.924 115.492 166.467C118.88 164.696 122.959 162.562 129.178 163.006C130.748 163.119 131.515 162.947 131.848 162.806C132.055 162.719 132.077 162.666 132.123 162.553C132.227 162.302 132.3 161.874 132.338 161.027C132.345 160.875 132.351 160.703 132.357 160.516C132.38 159.836 132.409 158.958 132.525 158.147L132.532 158.097C132.652 157.257 132.788 156.302 132.981 155.434C133.168 154.594 133.465 153.545 134.045 152.676C134.707 151.682 135.886 150.753 137.569 150.874C138.936 150.971 140.137 151.754 141.127 152.602C143.149 154.335 145.944 157.972 148.537 161.613C151.195 165.347 153.845 169.386 155.609 172.158C157.405 174.98 158.423 176.063 159.328 176.466C160.031 176.778 161.188 176.88 164.038 175.692C165.185 175.215 167.861 174.061 171.497 172.493C177.441 169.93 185.948 166.261 194.526 162.635C201.407 159.726 208.302 156.859 213.859 154.653C216.636 153.551 219.096 152.607 221.061 151.905C222.948 151.23 224.581 150.702 225.589 150.534C228.806 149.998 236.154 149.748 243.184 149.563C244.765 149.522 246.335 149.483 247.854 149.446C253.263 149.314 258.024 149.198 260.292 149.009C262.56 148.82 264.613 149.685 266.311 150.749C268.017 151.817 269.637 153.261 271.082 154.611C271.476 154.98 271.856 155.34 272.224 155.688C273.268 156.679 274.221 157.581 275.165 158.358C276.473 159.432 277.382 159.927 277.99 160.049C278.709 160.192 279.849 160.133 281.487 159.729C283.083 159.335 284.934 158.671 286.973 157.818C289.762 156.653 292.708 155.224 295.674 153.785C297.095 153.096 298.52 152.404 299.935 151.738C304.378 149.648 307.948 148.779 311.447 149.415C314.854 150.035 317.782 152.024 321.024 154.519C324.107 156.89 326.581 158.211 329.2 158.975C331.856 159.75 334.824 160 339 160H339.088C341.138 160 342.798 160 344.097 160.083C345.383 160.166 346.648 160.342 347.743 160.889C348.981 161.508 349.729 162.455 350.246 163.511C350.681 164.402 351.014 165.512 351.35 166.633L351.394 166.782C352.093 169.11 354.759 175.425 357.988 183.022L358.412 184.019C361.488 191.256 364.925 199.342 367.333 205.603C369.864 212.182 371.375 215.462 372.57 217.073C373.119 217.813 373.441 217.972 373.561 218.018C373.693 218.069 373.946 218.125 374.646 218.025C374.635 218.027 374.63 218.028 374.63 218.027C374.629 218.023 374.956 217.917 375.577 217.131C376.223 216.312 376.925 215.088 377.676 213.496C378.9 210.901 380.085 207.706 381.309 204.407C381.59 203.649 381.873 202.885 382.159 202.122C382.888 200.177 383.191 198.946 383.249 198.185C383.263 198.004 383.262 197.878 383.256 197.794C383.117 197.745 382.835 197.668 382.32 197.609C381.39 197.504 380.177 197.5 378.5 197.5C375.217 197.5 372.462 197.049 370.738 195.21C369.026 193.384 369 190.841 369 189C369 187.301 369.417 180.073 369.971 170.448C370.101 168.202 370.238 165.825 370.379 163.357C371.129 150.232 372.003 134.378 372.502 121.404C373.495 95.5731 371.506 78.7513 370.038 70.4345C369.671 68.353 369.32 66.8309 368.952 65.7074C368.582 64.576 368.241 63.9977 367.977 63.6895C367.632 63.2869 367.178 63.0001 365 63.0001C363.539 63.0001 362.229 62.7125 361.069 62.0694C359.918 61.4311 359.091 60.5403 358.448 59.6153C357.824 58.7189 357.311 57.6975 356.847 56.7447C356.767 56.582 356.689 56.4197 356.61 56.2576C356.206 55.4245 355.803 54.5937 355.314 53.7143C354.608 52.4426 354.119 51.1868 353.73 50.1882L353.709 50.1338C353.283 49.0384 353.016 48.3854 352.718 47.9284C352.493 47.5837 352.384 47.5573 352.326 47.5434L352.318 47.5414ZM383.231 197.65C383.232 197.649 383.236 197.657 383.24 197.677C383.233 197.66 383.23 197.65 383.231 197.65ZM358.369 48.3198C358.773 49.3595 359.155 50.3311 359.685 51.2861C360.247 52.2979 360.718 53.27 361.122 54.1036C361.197 54.2582 361.27 54.4081 361.341 54.5526C361.813 55.5216 362.176 56.2189 362.552 56.76C362.909 57.2724 363.207 57.5378 363.493 57.6964C363.771 57.8502 364.21 58.0001 365 58.0001C367.322 58.0001 369.868 58.2132 371.773 60.4356C372.634 61.4399 373.23 62.7054 373.704 64.1522C374.18 65.6067 374.579 67.3971 374.962 69.5656C376.494 78.2489 378.505 95.427 377.498 121.596C376.997 134.622 376.121 150.518 375.371 163.643C375.226 166.174 375.087 168.596 374.955 170.872C374.402 180.472 374 187.46 374 189C374 191.159 374.223 191.617 374.386 191.79C374.537 191.951 375.283 192.5 378.5 192.5H378.611C380.145 192.5 381.64 192.5 382.883 192.641C384.1 192.779 385.627 193.098 386.776 194.18C388.066 195.394 388.352 197.028 388.235 198.565C388.121 200.054 387.611 201.823 386.841 203.878C386.573 204.59 386.303 205.319 386.031 206.055C384.805 209.363 383.524 212.82 382.198 215.629C381.387 217.349 380.495 218.97 379.501 220.229C378.56 221.421 377.199 222.711 375.353 222.975C374.303 223.125 373.057 223.181 371.766 222.685C370.465 222.184 369.443 221.25 368.555 220.052C366.875 217.788 365.136 213.818 362.667 207.398C360.291 201.221 356.885 193.208 353.795 185.938L353.387 184.978C350.24 177.575 347.407 170.89 346.605 168.218C346.207 166.889 345.987 166.184 345.754 165.707C345.597 165.387 345.53 165.368 345.511 165.363C345.509 165.362 345.508 165.362 345.507 165.361C345.351 165.283 344.929 165.147 343.777 165.073C342.658 165.001 341.159 165 339 165C334.676 165 331.144 164.75 327.8 163.775C324.419 162.789 321.393 161.11 317.976 158.482C314.718 155.976 312.645 154.715 310.553 154.335C308.552 153.971 306.122 154.353 302.064 156.262C300.769 156.872 299.41 157.531 298.023 158.203C294.987 159.676 291.819 161.212 288.901 162.432C286.754 163.329 284.636 164.102 282.685 164.584C280.775 165.055 278.791 165.308 277.01 164.952C275.118 164.573 273.402 163.38 271.991 162.221C270.896 161.321 269.757 160.24 268.676 159.215C268.333 158.89 267.995 158.57 267.668 158.264C266.238 156.927 264.92 155.777 263.657 154.986C262.387 154.19 261.44 153.93 260.707 153.991C258.277 154.194 253.279 154.316 247.834 154.449C246.347 154.485 244.826 154.522 243.316 154.562C236.096 154.752 229.194 155.002 226.411 155.466C225.919 155.548 224.708 155.911 222.744 156.613C220.857 157.287 218.458 158.207 215.703 159.3C210.198 161.485 203.343 164.336 196.473 167.24C187.992 170.825 179.439 174.513 173.456 177.093C169.793 178.672 167.093 179.836 165.961 180.308C162.811 181.62 159.969 182.222 157.297 181.035C154.827 179.937 153.095 177.52 151.391 174.842C149.655 172.114 147.055 168.153 144.463 164.512C141.814 160.79 139.366 157.685 137.887 156.41C137.879 156.446 137.87 156.482 137.862 156.519C137.715 157.181 137.603 157.955 137.475 158.854C137.401 159.371 137.384 159.865 137.363 160.482C137.355 160.719 137.346 160.973 137.333 161.254C137.294 162.126 137.211 163.324 136.751 164.447C136.235 165.709 135.289 166.781 133.792 167.413C132.422 167.991 130.751 168.132 128.822 167.994C124.135 167.659 121.528 169.006 118.33 170.66C117.313 171.185 116.237 171.742 115.015 172.285C113.707 172.866 112.302 173.272 110.895 173.208C109.39 173.141 108.019 172.537 106.959 171.365C105.967 170.269 105.378 168.822 105.022 167.245C104.662 165.649 104.5 163.73 104.5 161.5C104.5 161.269 104.499 161.034 104.498 160.795C104.482 156.679 104.462 151.528 109.051 145.817C113.726 139.999 122.993 133.804 141.083 126.674L141.11 126.664L141.138 126.654C153.337 122.172 203.652 101.822 251.747 82.3086C260.895 78.5973 269.967 74.9142 278.681 71.3763C315.663 56.3625 346.2 43.965 348.709 43.1285C350.413 42.5605 352.041 42.3149 353.541 42.6934C355.157 43.1012 356.204 44.1205 356.906 45.1971C357.52 46.1386 357.962 47.2739 358.324 48.2051L358.369 48.3198Z" fill="black"/>
</svg>
