<svg width="522" height="252" viewBox="0 0 522 252" fill="none" xmlns="http://www.w3.org/2000/svg">
<path fill-rule="evenodd" clip-rule="evenodd" d="M521 1.5H1V0.5H521V1.5Z" fill="#20202E"/>
<path fill-rule="evenodd" clip-rule="evenodd" d="M521 11.5H1V10.5H521V11.5Z" fill="#20202E"/>
<path fill-rule="evenodd" clip-rule="evenodd" d="M521 21.5H1V20.5H521V21.5Z" fill="#20202E"/>
<path fill-rule="evenodd" clip-rule="evenodd" d="M521 31.5H1V30.5H521V31.5Z" fill="#20202E"/>
<path fill-rule="evenodd" clip-rule="evenodd" d="M521 41.5H1V40.5H521V41.5Z" fill="#20202E"/>
<path fill-rule="evenodd" clip-rule="evenodd" d="M521 51.5H1V50.5H521V51.5Z" fill="#20202E"/>
<path fill-rule="evenodd" clip-rule="evenodd" d="M521 61.5H1V60.5H521V61.5Z" fill="#20202E"/>
<path fill-rule="evenodd" clip-rule="evenodd" d="M521 71.5H1V70.5H521V71.5Z" fill="#20202E"/>
<path fill-rule="evenodd" clip-rule="evenodd" d="M521 81.5H1V80.5H521V81.5Z" fill="#20202E"/>
<path fill-rule="evenodd" clip-rule="evenodd" d="M521 91.5H1V90.5H521V91.5Z" fill="#20202E"/>
<path fill-rule="evenodd" clip-rule="evenodd" d="M521 101.5H1V100.5H521V101.5Z" fill="#20202E"/>
<path fill-rule="evenodd" clip-rule="evenodd" d="M521 111.5H1V110.5H521V111.5Z" fill="#20202E"/>
<path fill-rule="evenodd" clip-rule="evenodd" d="M521 121.5H1V120.5H521V121.5Z" fill="#20202E"/>
<path fill-rule="evenodd" clip-rule="evenodd" d="M521 131.5H1V130.5H521V131.5Z" fill="#20202E"/>
<path fill-rule="evenodd" clip-rule="evenodd" d="M521 141.5H1V140.5H521V141.5Z" fill="#20202E"/>
<path fill-rule="evenodd" clip-rule="evenodd" d="M521 151.5H1V150.5H521V151.5Z" fill="#20202E"/>
<path fill-rule="evenodd" clip-rule="evenodd" d="M521 161.5H1V160.5H521V161.5Z" fill="#20202E"/>
<path fill-rule="evenodd" clip-rule="evenodd" d="M521 171.5H1V170.5H521V171.5Z" fill="#20202E"/>
<path fill-rule="evenodd" clip-rule="evenodd" d="M521 181.5H1V180.5H521V181.5Z" fill="#20202E"/>
<path fill-rule="evenodd" clip-rule="evenodd" d="M521 191.5H1V190.5H521V191.5Z" fill="#20202E"/>
<path fill-rule="evenodd" clip-rule="evenodd" d="M521 201.5H1V200.5H521V201.5Z" fill="#20202E"/>
<path fill-rule="evenodd" clip-rule="evenodd" d="M521 211.5H1V210.5H521V211.5Z" fill="#20202E"/>
<path fill-rule="evenodd" clip-rule="evenodd" d="M521 221.5H1V220.5H521V221.5Z" fill="#20202E"/>
<path fill-rule="evenodd" clip-rule="evenodd" d="M521 231.5H1V230.5H521V231.5Z" fill="#20202E"/>
<path fill-rule="evenodd" clip-rule="evenodd" d="M521 241.5H1V240.5H521V241.5Z" fill="#20202E"/>
<path fill-rule="evenodd" clip-rule="evenodd" d="M521 251.5H1V250.5H521V251.5Z" fill="#20202E"/>
<path fill-rule="evenodd" clip-rule="evenodd" d="M0.5 251L0.5 1L1.5 1L1.5 251L0.5 251Z" fill="#20202E"/>
<path fill-rule="evenodd" clip-rule="evenodd" d="M10.5 251L10.5 1L11.5 1L11.5 251L10.5 251Z" fill="#20202E"/>
<path fill-rule="evenodd" clip-rule="evenodd" d="M20.5 251L20.5 1L21.5 1L21.5 251L20.5 251Z" fill="#20202E"/>
<path fill-rule="evenodd" clip-rule="evenodd" d="M30.5 251L30.5 1L31.5 1L31.5 251L30.5 251Z" fill="#20202E"/>
<path fill-rule="evenodd" clip-rule="evenodd" d="M40.5 251L40.5 1L41.5 1L41.5 251L40.5 251Z" fill="#20202E"/>
<path fill-rule="evenodd" clip-rule="evenodd" d="M50.5 251L50.5 1L51.5 1L51.5 251L50.5 251Z" fill="#20202E"/>
<path fill-rule="evenodd" clip-rule="evenodd" d="M60.5 251L60.5 1L61.5 1L61.5 251L60.5 251Z" fill="#20202E"/>
<path fill-rule="evenodd" clip-rule="evenodd" d="M70.5 251L70.5 1L71.5 1L71.5 251L70.5 251Z" fill="#20202E"/>
<path fill-rule="evenodd" clip-rule="evenodd" d="M80.5 251L80.5 1L81.5 1L81.5 251L80.5 251Z" fill="#20202E"/>
<path fill-rule="evenodd" clip-rule="evenodd" d="M90.5 251L90.5 1L91.5 1L91.5 251L90.5 251Z" fill="#20202E"/>
<path fill-rule="evenodd" clip-rule="evenodd" d="M100.5 251L100.5 1L101.5 1L101.5 251L100.5 251Z" fill="#20202E"/>
<path fill-rule="evenodd" clip-rule="evenodd" d="M110.5 251L110.5 1L111.5 1L111.5 251L110.5 251Z" fill="#20202E"/>
<path fill-rule="evenodd" clip-rule="evenodd" d="M120.5 251L120.5 1L121.5 1L121.5 251L120.5 251Z" fill="#20202E"/>
<path fill-rule="evenodd" clip-rule="evenodd" d="M130.5 251L130.5 1L131.5 1L131.5 251L130.5 251Z" fill="#20202E"/>
<path fill-rule="evenodd" clip-rule="evenodd" d="M140.5 251L140.5 1L141.5 1L141.5 251L140.5 251Z" fill="#20202E"/>
<path fill-rule="evenodd" clip-rule="evenodd" d="M150.5 251L150.5 1L151.5 1L151.5 251L150.5 251Z" fill="#20202E"/>
<path fill-rule="evenodd" clip-rule="evenodd" d="M160.5 251L160.5 1L161.5 1L161.5 251L160.5 251Z" fill="#20202E"/>
<path fill-rule="evenodd" clip-rule="evenodd" d="M170.5 251L170.5 1L171.5 1L171.5 251L170.5 251Z" fill="#20202E"/>
<path fill-rule="evenodd" clip-rule="evenodd" d="M180.5 251L180.5 1L181.5 1L181.5 251L180.5 251Z" fill="#20202E"/>
<path fill-rule="evenodd" clip-rule="evenodd" d="M190.5 251L190.5 1L191.5 1L191.5 251L190.5 251Z" fill="#20202E"/>
<path fill-rule="evenodd" clip-rule="evenodd" d="M200.5 251L200.5 1L201.5 1L201.5 251L200.5 251Z" fill="#20202E"/>
<path fill-rule="evenodd" clip-rule="evenodd" d="M210.5 251L210.5 1L211.5 1L211.5 251L210.5 251Z" fill="#20202E"/>
<path fill-rule="evenodd" clip-rule="evenodd" d="M220.5 251L220.5 1L221.5 1L221.5 251L220.5 251Z" fill="#20202E"/>
<path fill-rule="evenodd" clip-rule="evenodd" d="M230.5 251L230.5 1L231.5 1L231.5 251L230.5 251Z" fill="#20202E"/>
<path fill-rule="evenodd" clip-rule="evenodd" d="M240.5 251L240.5 1L241.5 1L241.5 251L240.5 251Z" fill="#20202E"/>
<path fill-rule="evenodd" clip-rule="evenodd" d="M250.5 251L250.5 1L251.5 1L251.5 251L250.5 251Z" fill="#20202E"/>
<path fill-rule="evenodd" clip-rule="evenodd" d="M260.5 251L260.5 1L261.5 1L261.5 251L260.5 251Z" fill="#20202E"/>
<path fill-rule="evenodd" clip-rule="evenodd" d="M270.5 251L270.5 1L271.5 1L271.5 251L270.5 251Z" fill="#20202E"/>
<path fill-rule="evenodd" clip-rule="evenodd" d="M280.5 251L280.5 1L281.5 1L281.5 251L280.5 251Z" fill="#20202E"/>
<path fill-rule="evenodd" clip-rule="evenodd" d="M290.5 251L290.5 1L291.5 1L291.5 251L290.5 251Z" fill="#20202E"/>
<path fill-rule="evenodd" clip-rule="evenodd" d="M300.5 251L300.5 1L301.5 1L301.5 251L300.5 251Z" fill="#20202E"/>
<path fill-rule="evenodd" clip-rule="evenodd" d="M310.5 251L310.5 1L311.5 1L311.5 251L310.5 251Z" fill="#20202E"/>
<path fill-rule="evenodd" clip-rule="evenodd" d="M320.5 251L320.5 1L321.5 1L321.5 251L320.5 251Z" fill="#20202E"/>
<path fill-rule="evenodd" clip-rule="evenodd" d="M330.5 251L330.5 1L331.5 1L331.5 251L330.5 251Z" fill="#20202E"/>
<path fill-rule="evenodd" clip-rule="evenodd" d="M340.5 251L340.5 1L341.5 1L341.5 251L340.5 251Z" fill="#20202E"/>
<path fill-rule="evenodd" clip-rule="evenodd" d="M350.5 251L350.5 1L351.5 1L351.5 251L350.5 251Z" fill="#20202E"/>
<path fill-rule="evenodd" clip-rule="evenodd" d="M360.5 251L360.5 1L361.5 1L361.5 251L360.5 251Z" fill="#20202E"/>
<path fill-rule="evenodd" clip-rule="evenodd" d="M370.5 251L370.5 1L371.5 1L371.5 251L370.5 251Z" fill="#20202E"/>
<path fill-rule="evenodd" clip-rule="evenodd" d="M380.5 251L380.5 1L381.5 1L381.5 251L380.5 251Z" fill="#20202E"/>
<path fill-rule="evenodd" clip-rule="evenodd" d="M390.5 251L390.5 1L391.5 1L391.5 251L390.5 251Z" fill="#20202E"/>
<path fill-rule="evenodd" clip-rule="evenodd" d="M400.5 251L400.5 1L401.5 1L401.5 251L400.5 251Z" fill="#20202E"/>
<path fill-rule="evenodd" clip-rule="evenodd" d="M410.5 251L410.5 1L411.5 1L411.5 251L410.5 251Z" fill="#20202E"/>
<path fill-rule="evenodd" clip-rule="evenodd" d="M420.5 251L420.5 1L421.5 1L421.5 251L420.5 251Z" fill="#20202E"/>
<path fill-rule="evenodd" clip-rule="evenodd" d="M430.5 251L430.5 1L431.5 1L431.5 251L430.5 251Z" fill="#20202E"/>
<path fill-rule="evenodd" clip-rule="evenodd" d="M440.5 251L440.5 1L441.5 1L441.5 251L440.5 251Z" fill="#20202E"/>
<path fill-rule="evenodd" clip-rule="evenodd" d="M450.5 251L450.5 1L451.5 1L451.5 251L450.5 251Z" fill="#20202E"/>
<path fill-rule="evenodd" clip-rule="evenodd" d="M460.5 251L460.5 1L461.5 1L461.5 251L460.5 251Z" fill="#20202E"/>
<path fill-rule="evenodd" clip-rule="evenodd" d="M470.5 251L470.5 1L471.5 1L471.5 251L470.5 251Z" fill="#20202E"/>
<path fill-rule="evenodd" clip-rule="evenodd" d="M480.5 251L480.5 1L481.5 1L481.5 251L480.5 251Z" fill="#20202E"/>
<path fill-rule="evenodd" clip-rule="evenodd" d="M490.5 251L490.5 1L491.5 1L491.5 251L490.5 251Z" fill="#20202E"/>
<path fill-rule="evenodd" clip-rule="evenodd" d="M500.5 251L500.5 1L501.5 1L501.5 251L500.5 251Z" fill="#20202E"/>
<path fill-rule="evenodd" clip-rule="evenodd" d="M510.5 251L510.5 1L511.5 1L511.5 251L510.5 251Z" fill="#20202E"/>
<path fill-rule="evenodd" clip-rule="evenodd" d="M520.5 251L520.5 1L521.5 1L521.5 251L520.5 251Z" fill="#20202E"/>
<path fill-rule="evenodd" clip-rule="evenodd" d="M358.151 37.5791C358.035 37.5609 357.65 37.5513 356.878 37.8409C353.026 39.2855 324.652 52.7193 315.618 57.2362C311.443 59.3236 309.53 61.3756 308.526 63.2872C307.479 65.2822 307.246 67.4151 306.99 70.2264C306.842 71.8511 307.156 72.5148 307.87 74.0225C308.011 74.3202 308.167 74.6507 308.339 75.0281C309.429 77.4271 310.5 80.6562 310.5 87.0001C310.5 93.3908 309.028 97.4138 306.648 100.19C304.904 102.224 302.648 103.502 300.994 104.439C300.555 104.687 300.159 104.912 299.825 105.12C298.304 106.071 296.085 106.513 293.93 106.737C291.66 106.972 289.028 107.001 286.378 106.872C281.163 106.618 275.442 105.726 272.039 104.308C270.843 103.81 269.723 103.328 268.661 102.87C266.955 102.136 265.398 101.466 263.915 100.896C261.501 99.9673 259.751 99.5001 258.5 99.5001C256.739 99.5001 252.324 99.2644 247.88 99.0272L247.305 98.9965C242.572 98.7441 237.914 98.5001 236 98.5001C235.666 98.5001 235.344 98.5059 235.028 98.5116C233.729 98.5351 232.539 98.5566 231.092 98.162C229.424 97.707 227.297 96.6937 223.382 94.7362C215.954 91.0223 212.695 90.4808 207.164 89.5617C206.975 89.5303 206.784 89.4985 206.589 89.4661C200.48 88.4479 169.894 81.4254 165.894 80.4254C163.344 79.7881 162.032 78.4569 161.173 77.5849C161.107 77.518 161.043 77.4538 160.982 77.3929C160.572 76.9821 160.365 76.8159 160.155 76.7084C159.983 76.6201 159.667 76.5001 159 76.5001C158.941 76.5001 158.891 76.5017 158.849 76.5043C158.831 76.5832 158.81 76.6919 158.79 76.8379C158.755 77.0929 158.732 77.3775 158.706 77.7465C158.704 77.7706 158.702 77.7952 158.7 77.8202C158.676 78.1493 158.647 78.5491 158.599 78.944C158.501 79.7475 158.284 80.9545 157.5 82.0001C156.604 83.1954 154.422 85.3616 151.995 87.7276C151.267 88.4374 150.502 89.1794 149.716 89.9416C147.778 91.8203 145.714 93.8219 143.768 95.7679C142.654 96.8818 141.417 98.7188 140.119 101.147C138.84 103.54 137.58 106.359 136.379 109.316C134.466 114.026 132.751 118.958 131.365 122.946C131.007 123.978 130.67 124.947 130.358 125.832L130.338 125.887L130.316 125.941C128.157 131.257 123.302 143.078 121.276 147.535C120.181 149.945 119.469 153.151 118.914 157.155C118.512 160.063 118.209 163.247 117.878 166.716C117.754 168.02 117.626 169.364 117.488 170.749C116.498 180.652 116.518 186.402 117.466 192.089C117.961 195.056 118.268 197.214 118.119 199.303C117.965 201.452 117.344 203.371 116.321 205.929C116.18 206.283 116.184 206.453 116.187 206.487C116.187 206.489 116.187 206.49 116.187 206.492C116.187 206.5 116.187 206.504 116.206 206.531C116.311 206.678 116.699 207.021 117.739 207.404C118.721 207.766 119.956 208.048 121.35 208.308C121.88 208.407 122.486 208.512 123.1 208.617C123.936 208.761 124.789 208.908 125.491 209.049C126.825 209.316 128.051 209.677 129.098 209.986L129.2 210.016C130.316 210.346 131.177 210.593 131.961 210.719C132.715 210.841 133.256 210.824 133.701 210.703C134.123 210.59 134.625 210.34 135.232 209.732C135.449 209.516 135.551 209.372 135.597 209.292C135.549 209.178 135.394 208.878 134.91 208.309C134.497 207.824 134.039 207.354 133.48 206.78C133.13 206.42 132.74 206.02 132.298 205.551C131.229 204.416 130.03 203.052 128.92 201.387C127.594 199.397 126.848 196.422 126.388 193.4C125.912 190.275 125.689 186.702 125.626 183.233C125.5 176.374 125.993 169.507 126.56 166.958C126.812 165.824 127.056 164.83 127.34 164.005C127.621 163.19 128.007 162.338 128.65 161.631C130.097 160.039 132.077 160 133.5 160C134.911 160 135.548 159.869 136.007 159.639C136.449 159.418 137.029 158.951 137.92 157.613C137.919 157.616 137.939 157.584 137.981 157.505C138.021 157.428 138.071 157.324 138.13 157.19C138.251 156.92 138.392 156.567 138.553 156.129C138.874 155.253 139.243 154.12 139.647 152.79C140.454 150.132 141.366 146.793 142.27 143.363C142.987 140.643 143.704 137.845 144.355 135.305C145.325 131.519 146.148 128.308 146.606 126.782C146.931 125.696 147.24 124.819 147.476 124.148C147.526 124.006 147.572 123.874 147.615 123.75C147.742 123.384 147.826 123.129 147.881 122.927C147.891 122.893 147.899 122.863 147.905 122.836C147.754 122.669 147.463 122.39 146.9 121.921C145.349 120.628 143.771 119.054 143.256 116.892C142.715 114.623 143.487 112.405 144.88 110.175C147.479 106.017 158.074 92.4061 161.102 88.8731C162.702 87.0061 164.318 85.5585 166.714 85.1591C168.824 84.8074 171.235 85.3568 174.107 86.0747C177.237 86.8574 186.256 89.909 195.368 93.0083C196.096 93.2559 196.825 93.5042 197.553 93.7519C206.05 96.6433 214.351 99.468 218.206 100.602C226.679 103.094 230.998 106.577 233.607 108.682C233.765 108.809 233.916 108.931 234.062 109.048C234.446 109.355 234.83 109.437 235.548 109.164C236.38 108.847 237.335 108.13 238.232 107.232C240.324 105.141 243.03 105.584 245.27 106.309C246.972 106.86 249.126 107.821 251.708 108.972C252.59 109.365 253.522 109.781 254.502 110.21C256.229 110.965 259.684 111.925 264.498 112.824C269.254 113.712 275.179 114.514 281.75 115.007C294.917 115.996 310.522 115.738 324.444 112.563C337.88 109.498 350.685 98.4033 360.934 86.726C369.84 76.5788 376.518 66.3468 379.751 61.395C380.212 60.6884 380.603 60.0893 380.92 59.6133C383.34 55.9842 383.854 54.1512 383.875 53.4206C383.193 53.2478 382.198 52.8723 381.203 52.4893C380.896 52.3708 380.576 52.2466 380.245 52.1183C379.414 51.7956 378.515 51.4462 377.566 51.0931C374.857 50.0852 372.127 49.1962 370.224 48.9848C368.273 48.768 366.892 49.0303 365.974 49.5813C365.138 50.0829 364.344 51.0272 363.952 52.9904C363.783 53.835 363.804 54.9791 364.006 56.3965C364.206 57.7907 364.553 59.2776 364.926 60.7687C364.996 61.0508 365.068 61.3363 365.141 61.6226C365.437 62.7895 365.735 63.9689 365.925 64.9729C366.045 65.6064 366.143 66.2709 366.159 66.8974C366.175 67.4674 366.138 68.3154 365.736 69.1181C364.723 71.1449 362.429 72.2154 360.269 71.6754C357.814 71.0616 356.5 68.7518 356.5 66.0001C356.5 64.5076 356.569 63.2915 356.629 62.2361C356.652 61.8287 356.674 61.4452 356.69 61.079C356.748 59.7506 356.749 58.3806 356.516 56.2762C356.217 53.5882 356.677 51.1187 357.185 48.8328C357.278 48.4132 357.373 48.0001 357.467 47.5901C357.901 45.6947 358.32 43.8655 358.51 41.7737C358.625 40.5125 358.614 39.5252 358.515 38.7875C358.413 38.0308 358.239 37.6962 358.161 37.5888C358.158 37.5849 358.156 37.5818 358.155 37.5794C358.154 37.5795 358.152 37.5794 358.151 37.5791ZM135.63 209.214C135.632 209.214 135.63 209.226 135.618 209.252C135.622 209.228 135.628 209.215 135.63 209.214ZM158.658 76.5316C158.658 76.5314 158.662 76.5299 158.67 76.5275C158.663 76.5306 158.658 76.5318 158.658 76.5316ZM363.47 38.1189C363.636 39.3499 363.625 40.7377 363.49 42.2264C363.384 43.3873 363.215 44.4925 363.02 45.5363C363.145 45.4525 363.272 45.3717 363.401 45.2939C365.608 43.9699 368.227 43.7321 370.776 44.0154C373.373 44.3039 376.643 45.415 379.31 46.407C380.294 46.7733 381.247 47.1435 382.088 47.4701C382.41 47.5951 382.716 47.7138 383 47.8234C384.106 48.2492 384.789 48.4952 385.107 48.5747C385.89 48.7705 386.868 49.1705 387.656 50.0295C388.487 50.9366 388.875 52.1032 388.875 53.3751C388.875 55.6767 387.609 58.5938 385.08 62.3868C384.778 62.8403 384.4 63.4201 383.949 64.1105C380.737 69.0348 373.855 79.5831 364.692 90.0242C354.315 101.847 340.62 114.002 325.556 117.437C310.978 120.762 294.833 121.004 281.375 119.993C274.634 119.487 268.527 118.663 263.58 117.739C258.691 116.826 254.771 115.785 252.498 114.79C251.361 114.293 250.336 113.836 249.408 113.422C246.947 112.326 245.159 111.528 243.731 111.066C242.772 110.756 242.241 110.693 241.961 110.707C241.814 110.715 241.799 110.733 241.778 110.757C241.775 110.76 241.772 110.764 241.768 110.768C240.666 111.87 239.12 113.153 237.328 113.836C235.42 114.563 233.054 114.645 230.938 112.952C230.79 112.833 230.636 112.709 230.477 112.581C228.03 110.606 224.32 107.612 216.795 105.398C212.832 104.233 204.436 101.376 196.008 98.5075C195.257 98.252 194.506 97.9964 193.758 97.7419C184.494 94.5912 175.763 91.6428 172.894 90.9254C169.766 90.1434 168.426 89.9428 167.536 90.0911C166.933 90.1917 166.298 90.4941 164.898 92.1271C161.927 95.5941 151.521 108.983 149.12 112.825C148.014 114.596 148.035 115.378 148.12 115.734C148.23 116.196 148.652 116.872 150.101 118.08C150.847 118.702 151.581 119.353 152.094 120.077C152.711 120.947 153.004 121.902 152.932 122.979C152.875 123.84 152.576 124.706 152.338 125.391C152.288 125.535 152.236 125.683 152.183 125.834C151.949 126.501 151.684 127.254 151.395 128.218C150.962 129.66 150.19 132.674 149.254 136.333C148.598 138.892 147.862 141.766 147.105 144.637C146.197 148.082 145.266 151.493 144.432 154.242C144.015 155.614 143.615 156.848 143.247 157.852C142.906 158.781 142.514 159.736 142.08 160.387C140.972 162.05 139.802 163.332 138.243 164.111C136.703 164.881 135.09 165 133.5 165C132.795 165 132.451 165.042 132.304 165.07C132.255 165.157 132.173 165.328 132.067 165.635C131.882 166.17 131.689 166.926 131.441 168.042C131.007 169.993 130.501 176.376 130.625 183.142C130.686 186.485 130.901 189.819 131.331 192.647C131.777 195.579 132.407 197.603 133.08 198.613C133.971 199.949 134.959 201.084 135.937 202.121C136.238 202.441 136.564 202.777 136.892 203.115C137.544 203.786 138.207 204.469 138.716 205.066C139.481 205.965 140.412 207.224 140.586 208.794C140.785 210.584 139.961 212.075 138.768 213.268C137.626 214.41 136.377 215.16 135.002 215.531C133.651 215.895 132.348 215.847 131.165 215.656C130.019 215.471 128.855 215.128 127.806 214.818L127.785 214.812L127.755 214.803C126.663 214.481 125.622 214.174 124.51 213.952C123.807 213.811 123.128 213.695 122.397 213.57C121.792 213.467 121.152 213.358 120.432 213.223C118.982 212.952 117.405 212.609 116.011 212.096C114.676 211.604 113.127 210.823 112.138 209.438C111.001 207.846 110.929 205.948 111.679 204.072C112.656 201.629 113.035 200.298 113.132 198.947C113.232 197.536 113.04 195.944 112.534 192.911C111.482 186.598 111.503 180.348 112.513 170.251C112.645 168.932 112.769 167.627 112.891 166.345C113.225 162.835 113.543 159.491 113.961 156.47C114.532 152.349 115.32 148.555 116.724 145.466C118.692 141.137 123.478 129.488 125.662 124.113C125.956 123.279 126.277 122.356 126.621 121.366C128.008 117.374 129.779 112.277 131.747 107.434C132.983 104.392 134.316 101.397 135.709 98.7906C137.084 96.2189 138.596 93.8684 140.232 92.2323C142.207 90.2575 144.318 88.2113 146.265 86.3228C147.044 85.5676 147.797 84.8377 148.505 84.1476C151.078 81.6386 152.897 79.8048 153.5 79.0001C153.496 79.0062 153.493 79.0096 153.493 79.0094C153.491 79.0085 153.572 78.8594 153.636 78.3374C153.669 78.0685 153.69 77.7829 153.716 77.4204L153.719 77.3826C153.745 77.0289 153.777 76.5948 153.836 76.1623C153.946 75.353 154.197 74.1095 155.099 73.0836C156.105 71.9403 157.51 71.5001 159 71.5001C160.333 71.5001 161.455 71.7551 162.439 72.2605C163.386 72.7467 164.054 73.393 164.518 73.8573C164.578 73.9169 164.635 73.9748 164.691 74.0311C165.474 74.8187 165.935 75.2819 167.107 75.5747C171.107 76.5748 201.52 83.5522 207.411 84.5341C207.574 84.5613 207.736 84.5882 207.896 84.6148C213.728 85.5847 217.522 86.2158 225.618 90.264C229.703 92.3065 231.326 93.0432 232.408 93.3382C233.118 93.5318 233.493 93.5266 234.589 93.5115C234.962 93.5064 235.418 93.5001 236 93.5001C238.086 93.5001 242.929 93.756 247.571 94.0036L247.914 94.0219C252.529 94.2681 256.877 94.5001 258.5 94.5001C260.75 94.5001 263.25 95.2829 265.71 96.2292C267.267 96.8282 268.996 97.5713 270.783 98.3399C271.83 98.7899 272.897 99.2487 273.962 99.6924C276.558 100.774 281.587 101.632 286.622 101.878C289.098 101.999 291.465 101.966 293.414 101.763C295.478 101.549 296.696 101.18 297.175 100.88C297.835 100.468 298.443 100.121 299.01 99.7971C300.515 98.9377 301.731 98.2435 302.852 96.9356C304.223 95.3363 305.5 92.6093 305.5 87.0001C305.5 81.344 304.571 78.8231 303.787 77.0971C303.671 76.8415 303.546 76.5841 303.419 76.3207C302.631 74.6914 301.732 72.8336 302.01 69.7737L302.02 69.6732C302.262 67.0075 302.541 63.9306 304.099 60.963C305.721 57.8746 308.557 55.1765 313.382 52.764C322.348 48.2809 350.975 34.7147 355.122 33.1593C356.35 32.6989 357.653 32.4392 358.928 32.6398C360.295 32.8549 361.426 33.5697 362.214 34.6614C362.949 35.679 363.306 36.9069 363.47 38.1189ZM132.21 165.092C132.21 165.092 132.213 165.091 132.221 165.088C132.214 165.091 132.21 165.092 132.21 165.092ZM361.157 67.1953C361.157 67.1952 361.158 67.1904 361.159 67.1815C361.158 67.191 361.158 67.1955 361.157 67.1953Z" fill="black"/>
</svg>
