<svg width="522" height="252" viewBox="0 0 522 252" fill="none" xmlns="http://www.w3.org/2000/svg">
<path fill-rule="evenodd" clip-rule="evenodd" d="M521 1.5H1V0.5H521V1.5Z" fill="#20202E"/>
<path fill-rule="evenodd" clip-rule="evenodd" d="M521 11.5H1V10.5H521V11.5Z" fill="#20202E"/>
<path fill-rule="evenodd" clip-rule="evenodd" d="M521 21.5H1V20.5H521V21.5Z" fill="#20202E"/>
<path fill-rule="evenodd" clip-rule="evenodd" d="M521 31.5H1V30.5H521V31.5Z" fill="#20202E"/>
<path fill-rule="evenodd" clip-rule="evenodd" d="M521 41.5H1V40.5H521V41.5Z" fill="#20202E"/>
<path fill-rule="evenodd" clip-rule="evenodd" d="M521 51.5H1V50.5H521V51.5Z" fill="#20202E"/>
<path fill-rule="evenodd" clip-rule="evenodd" d="M521 61.5H1V60.5H521V61.5Z" fill="#20202E"/>
<path fill-rule="evenodd" clip-rule="evenodd" d="M521 71.5H1V70.5H521V71.5Z" fill="#20202E"/>
<path fill-rule="evenodd" clip-rule="evenodd" d="M521 81.5H1V80.5H521V81.5Z" fill="#20202E"/>
<path fill-rule="evenodd" clip-rule="evenodd" d="M521 91.5H1V90.5H521V91.5Z" fill="#20202E"/>
<path fill-rule="evenodd" clip-rule="evenodd" d="M521 101.5H1V100.5H521V101.5Z" fill="#20202E"/>
<path fill-rule="evenodd" clip-rule="evenodd" d="M521 111.5H1V110.5H521V111.5Z" fill="#20202E"/>
<path fill-rule="evenodd" clip-rule="evenodd" d="M521 121.5H1V120.5H521V121.5Z" fill="#20202E"/>
<path fill-rule="evenodd" clip-rule="evenodd" d="M521 131.5H1V130.5H521V131.5Z" fill="#20202E"/>
<path fill-rule="evenodd" clip-rule="evenodd" d="M521 141.5H1V140.5H521V141.5Z" fill="#20202E"/>
<path fill-rule="evenodd" clip-rule="evenodd" d="M521 151.5H1V150.5H521V151.5Z" fill="#20202E"/>
<path fill-rule="evenodd" clip-rule="evenodd" d="M521 161.5H1V160.5H521V161.5Z" fill="#20202E"/>
<path fill-rule="evenodd" clip-rule="evenodd" d="M521 171.5H1V170.5H521V171.5Z" fill="#20202E"/>
<path fill-rule="evenodd" clip-rule="evenodd" d="M521 181.5H1V180.5H521V181.5Z" fill="#20202E"/>
<path fill-rule="evenodd" clip-rule="evenodd" d="M521 191.5H1V190.5H521V191.5Z" fill="#20202E"/>
<path fill-rule="evenodd" clip-rule="evenodd" d="M521 201.5H1V200.5H521V201.5Z" fill="#20202E"/>
<path fill-rule="evenodd" clip-rule="evenodd" d="M521 211.5H1V210.5H521V211.5Z" fill="#20202E"/>
<path fill-rule="evenodd" clip-rule="evenodd" d="M521 221.5H1V220.5H521V221.5Z" fill="#20202E"/>
<path fill-rule="evenodd" clip-rule="evenodd" d="M521 231.5H1V230.5H521V231.5Z" fill="#20202E"/>
<path fill-rule="evenodd" clip-rule="evenodd" d="M521 241.5H1V240.5H521V241.5Z" fill="#20202E"/>
<path fill-rule="evenodd" clip-rule="evenodd" d="M521 251.5H1V250.5H521V251.5Z" fill="#20202E"/>
<path fill-rule="evenodd" clip-rule="evenodd" d="M0.5 251L0.5 1L1.5 1L1.5 251L0.5 251Z" fill="#20202E"/>
<path fill-rule="evenodd" clip-rule="evenodd" d="M10.5 251L10.5 1L11.5 1L11.5 251L10.5 251Z" fill="#20202E"/>
<path fill-rule="evenodd" clip-rule="evenodd" d="M20.5 251L20.5 1L21.5 1L21.5 251L20.5 251Z" fill="#20202E"/>
<path fill-rule="evenodd" clip-rule="evenodd" d="M30.5 251L30.5 1L31.5 1L31.5 251L30.5 251Z" fill="#20202E"/>
<path fill-rule="evenodd" clip-rule="evenodd" d="M40.5 251L40.5 1L41.5 1L41.5 251L40.5 251Z" fill="#20202E"/>
<path fill-rule="evenodd" clip-rule="evenodd" d="M50.5 251L50.5 1L51.5 1L51.5 251L50.5 251Z" fill="#20202E"/>
<path fill-rule="evenodd" clip-rule="evenodd" d="M60.5 251L60.5 1L61.5 1L61.5 251L60.5 251Z" fill="#20202E"/>
<path fill-rule="evenodd" clip-rule="evenodd" d="M70.5 251L70.5 1L71.5 1L71.5 251L70.5 251Z" fill="#20202E"/>
<path fill-rule="evenodd" clip-rule="evenodd" d="M80.5 251L80.5 1L81.5 1L81.5 251L80.5 251Z" fill="#20202E"/>
<path fill-rule="evenodd" clip-rule="evenodd" d="M90.5 251L90.5 1L91.5 1L91.5 251L90.5 251Z" fill="#20202E"/>
<path fill-rule="evenodd" clip-rule="evenodd" d="M100.5 251L100.5 1L101.5 1L101.5 251L100.5 251Z" fill="#20202E"/>
<path fill-rule="evenodd" clip-rule="evenodd" d="M110.5 251L110.5 1L111.5 1L111.5 251L110.5 251Z" fill="#20202E"/>
<path fill-rule="evenodd" clip-rule="evenodd" d="M120.5 251L120.5 1L121.5 1L121.5 251L120.5 251Z" fill="#20202E"/>
<path fill-rule="evenodd" clip-rule="evenodd" d="M130.5 251L130.5 1L131.5 1L131.5 251L130.5 251Z" fill="#20202E"/>
<path fill-rule="evenodd" clip-rule="evenodd" d="M140.5 251L140.5 1L141.5 1L141.5 251L140.5 251Z" fill="#20202E"/>
<path fill-rule="evenodd" clip-rule="evenodd" d="M150.5 251L150.5 1L151.5 1L151.5 251L150.5 251Z" fill="#20202E"/>
<path fill-rule="evenodd" clip-rule="evenodd" d="M160.5 251L160.5 1L161.5 1L161.5 251L160.5 251Z" fill="#20202E"/>
<path fill-rule="evenodd" clip-rule="evenodd" d="M170.5 251L170.5 1L171.5 1L171.5 251L170.5 251Z" fill="#20202E"/>
<path fill-rule="evenodd" clip-rule="evenodd" d="M180.5 251L180.5 1L181.5 1L181.5 251L180.5 251Z" fill="#20202E"/>
<path fill-rule="evenodd" clip-rule="evenodd" d="M190.5 251L190.5 1L191.5 1L191.5 251L190.5 251Z" fill="#20202E"/>
<path fill-rule="evenodd" clip-rule="evenodd" d="M200.5 251L200.5 1L201.5 1L201.5 251L200.5 251Z" fill="#20202E"/>
<path fill-rule="evenodd" clip-rule="evenodd" d="M210.5 251L210.5 1L211.5 1L211.5 251L210.5 251Z" fill="#20202E"/>
<path fill-rule="evenodd" clip-rule="evenodd" d="M220.5 251L220.5 1L221.5 1L221.5 251L220.5 251Z" fill="#20202E"/>
<path fill-rule="evenodd" clip-rule="evenodd" d="M230.5 251L230.5 1L231.5 1L231.5 251L230.5 251Z" fill="#20202E"/>
<path fill-rule="evenodd" clip-rule="evenodd" d="M240.5 251L240.5 1L241.5 1L241.5 251L240.5 251Z" fill="#20202E"/>
<path fill-rule="evenodd" clip-rule="evenodd" d="M250.5 251L250.5 1L251.5 1L251.5 251L250.5 251Z" fill="#20202E"/>
<path fill-rule="evenodd" clip-rule="evenodd" d="M260.5 251L260.5 1L261.5 1L261.5 251L260.5 251Z" fill="#20202E"/>
<path fill-rule="evenodd" clip-rule="evenodd" d="M270.5 251L270.5 1L271.5 1L271.5 251L270.5 251Z" fill="#20202E"/>
<path fill-rule="evenodd" clip-rule="evenodd" d="M280.5 251L280.5 1L281.5 1L281.5 251L280.5 251Z" fill="#20202E"/>
<path fill-rule="evenodd" clip-rule="evenodd" d="M290.5 251L290.5 1L291.5 1L291.5 251L290.5 251Z" fill="#20202E"/>
<path fill-rule="evenodd" clip-rule="evenodd" d="M300.5 251L300.5 1L301.5 1L301.5 251L300.5 251Z" fill="#20202E"/>
<path fill-rule="evenodd" clip-rule="evenodd" d="M310.5 251L310.5 1L311.5 1L311.5 251L310.5 251Z" fill="#20202E"/>
<path fill-rule="evenodd" clip-rule="evenodd" d="M320.5 251L320.5 1L321.5 1L321.5 251L320.5 251Z" fill="#20202E"/>
<path fill-rule="evenodd" clip-rule="evenodd" d="M330.5 251L330.5 1L331.5 1L331.5 251L330.5 251Z" fill="#20202E"/>
<path fill-rule="evenodd" clip-rule="evenodd" d="M340.5 251L340.5 1L341.5 1L341.5 251L340.5 251Z" fill="#20202E"/>
<path fill-rule="evenodd" clip-rule="evenodd" d="M350.5 251L350.5 1L351.5 1L351.5 251L350.5 251Z" fill="#20202E"/>
<path fill-rule="evenodd" clip-rule="evenodd" d="M360.5 251L360.5 1L361.5 1L361.5 251L360.5 251Z" fill="#20202E"/>
<path fill-rule="evenodd" clip-rule="evenodd" d="M370.5 251L370.5 1L371.5 1L371.5 251L370.5 251Z" fill="#20202E"/>
<path fill-rule="evenodd" clip-rule="evenodd" d="M380.5 251L380.5 1L381.5 1L381.5 251L380.5 251Z" fill="#20202E"/>
<path fill-rule="evenodd" clip-rule="evenodd" d="M390.5 251L390.5 1L391.5 1L391.5 251L390.5 251Z" fill="#20202E"/>
<path fill-rule="evenodd" clip-rule="evenodd" d="M400.5 251L400.5 1L401.5 1L401.5 251L400.5 251Z" fill="#20202E"/>
<path fill-rule="evenodd" clip-rule="evenodd" d="M410.5 251L410.5 1L411.5 1L411.5 251L410.5 251Z" fill="#20202E"/>
<path fill-rule="evenodd" clip-rule="evenodd" d="M420.5 251L420.5 1L421.5 1L421.5 251L420.5 251Z" fill="#20202E"/>
<path fill-rule="evenodd" clip-rule="evenodd" d="M430.5 251L430.5 1L431.5 1L431.5 251L430.5 251Z" fill="#20202E"/>
<path fill-rule="evenodd" clip-rule="evenodd" d="M440.5 251L440.5 1L441.5 1L441.5 251L440.5 251Z" fill="#20202E"/>
<path fill-rule="evenodd" clip-rule="evenodd" d="M450.5 251L450.5 1L451.5 1L451.5 251L450.5 251Z" fill="#20202E"/>
<path fill-rule="evenodd" clip-rule="evenodd" d="M460.5 251L460.5 1L461.5 1L461.5 251L460.5 251Z" fill="#20202E"/>
<path fill-rule="evenodd" clip-rule="evenodd" d="M470.5 251L470.5 1L471.5 1L471.5 251L470.5 251Z" fill="#20202E"/>
<path fill-rule="evenodd" clip-rule="evenodd" d="M480.5 251L480.5 1L481.5 1L481.5 251L480.5 251Z" fill="#20202E"/>
<path fill-rule="evenodd" clip-rule="evenodd" d="M490.5 251L490.5 1L491.5 1L491.5 251L490.5 251Z" fill="#20202E"/>
<path fill-rule="evenodd" clip-rule="evenodd" d="M500.5 251L500.5 1L501.5 1L501.5 251L500.5 251Z" fill="#20202E"/>
<path fill-rule="evenodd" clip-rule="evenodd" d="M510.5 251L510.5 1L511.5 1L511.5 251L510.5 251Z" fill="#20202E"/>
<path fill-rule="evenodd" clip-rule="evenodd" d="M520.5 251L520.5 1L521.5 1L521.5 251L520.5 251Z" fill="#20202E"/>
<path fill-rule="evenodd" clip-rule="evenodd" d="M141.749 56.9997C141.667 57 141.583 57.0002 141.5 57.0002C141.547 57.0002 141.487 57.0109 141.31 57.0429C140.755 57.143 139.045 57.4512 135.827 58.291C132.171 59.245 127.689 60.5719 123.088 62.0137C122.005 62.3531 120.924 62.6961 119.854 63.039C123.741 66.1797 128.285 70.38 131.6 74.8002C131.563 74.751 131.577 74.7633 131.657 74.8367C131.91 75.067 132.821 75.8982 134.904 77.3169C137.334 78.9723 140.549 80.8932 144.355 82.9908C151.919 87.1599 161.098 91.6358 169.513 95.597C177.734 99.2886 196.822 107.902 208.053 113.116C211.881 114.893 215.341 116.842 217.928 119.321C219.336 120.67 220.718 122.393 221.692 124.576C222.199 125.712 222.526 126.815 222.726 127.853C223.101 128.062 223.524 128.296 223.999 128.555C226.543 129.945 229.936 131.733 233.952 133.811C241.971 137.96 252.255 143.149 262.741 148.392C273.218 153.631 283.857 158.903 292.57 163.213C295.359 164.592 297.957 165.876 300.291 167.03C305.224 169.468 308.979 171.323 310.866 172.267C315.676 174.672 329.963 180.468 345.196 185.962C345.533 186.083 345.869 186.204 346.206 186.325C345.054 184.998 343.903 183.65 342.763 182.298C334.53 172.532 326.413 161.983 322.149 155.853C317.341 148.942 315.3 141.865 317.067 134.879C317.376 133.657 317.775 132.557 318.206 131.582C312.284 122.361 303.391 113.032 294.426 104.971C284.13 95.7145 274.631 88.9168 271.669 86.8665C270.167 85.8262 268.431 84.551 266.733 83.3032C266.397 83.0563 266.063 82.8104 265.732 82.5677C263.638 81.0324 261.515 79.4926 259.407 78.0683C254.667 74.866 251.743 73.4866 250.646 73.2672C250.048 73.1476 249.691 73.1721 249.523 73.1957C249.351 73.22 249.241 73.263 249.163 73.303C249.073 73.3493 248.99 73.4109 248.923 73.4759C248.904 73.4941 248.89 73.5089 248.881 73.5193C247.569 75.8058 245.277 79.2849 241.325 81.5728C236.659 84.2743 231.765 84.1991 227.703 83.0385C224.828 82.2171 222.226 80.5316 220.805 79.5764C219.027 78.3809 217.158 76.9612 215.445 75.6109C213.711 74.2438 211.964 72.8097 210.446 71.562C208.864 70.2633 207.602 69.2264 206.633 68.4724C205.588 67.6601 204.716 66.9649 203.955 66.3584C200.948 63.961 199.681 62.9506 196.384 61.5771C195.138 61.058 193.579 60.7766 191.932 60.8102C190.243 60.8447 188.974 61.1992 188.374 61.4659C184.549 63.1657 180.815 63.86 177.297 64.2425C174.833 64.5102 171.967 64.6645 169.059 64.8211C168.108 64.8723 167.152 64.9238 166.205 64.9795C162.073 65.2225 157.153 65.4029 152.696 64.2301C148.157 63.0357 144.478 60.5886 141.749 56.9997ZM321.46 126.21C321.459 126.211 321.456 126.216 321.448 126.226C321.456 126.215 321.46 126.209 321.46 126.21ZM222.806 133.362C222.808 133.347 222.809 133.333 222.812 133.314C222.805 133.38 222.801 133.399 222.806 133.362ZM139.462 53.3794C139.455 53.3693 139.451 53.364 139.451 53.3638C139.451 53.3636 139.455 53.3686 139.462 53.3794ZM158.139 38.3334C158.918 39.2598 159.581 40.2641 160.11 41.1406C160.162 41.1425 160.216 41.1443 160.271 41.1459C161.357 41.1775 162.792 41.1388 164.795 41.0209C166.141 40.9417 167.33 40.8775 168.4 40.8198C171.029 40.6778 172.94 40.5747 174.703 40.383C176.935 40.1405 177.951 39.8348 178.626 39.5345C186 36.2572 196.433 35.5974 205.615 39.4233C212.235 42.1815 216.156 45.3429 219.512 48.0491C220.146 48.5603 220.759 49.0551 221.367 49.528C222.597 50.4849 224.076 51.6997 225.504 52.8727L225.679 53.0166C227.223 54.2845 228.789 55.5691 230.305 56.7645C230.583 56.9837 230.854 57.1955 231.117 57.3996C236.126 51.8983 244.544 47.5714 255.353 49.7332C261.756 51.0139 268.332 55.1344 272.843 58.1821C275.36 59.8828 277.799 61.6555 279.924 63.214C280.309 63.4959 280.679 63.7679 281.036 64.03C282.735 65.2781 284.132 66.3043 285.33 67.1339C288.797 69.5338 299.173 76.9656 310.472 87.124C321.581 97.112 334.511 110.55 342.17 125.047C342.999 126.616 345.521 132.081 342.291 138.09C341.72 139.152 341.075 140.046 340.807 140.416L340.797 140.431C341.013 140.851 341.345 141.42 341.851 142.147C345.586 147.517 353.22 157.468 361.112 166.828C365.043 171.49 368.93 175.877 372.337 179.401C375.973 183.161 378.36 185.193 379.408 185.854C382.996 188.12 389.439 191.172 396.437 194.488C397.168 194.834 397.905 195.183 398.645 195.534C402.299 197.268 406.007 199.05 408.927 200.624C410.369 201.401 411.891 202.272 413.22 203.179C413.881 203.63 414.704 204.232 415.518 204.968C416.165 205.554 417.646 206.959 418.733 209.134C421.106 213.88 421.742 221.478 416.11 227.11C410.374 232.847 402.724 232.032 397.899 230.278C394.873 229.178 392.505 227.53 390.993 226.429C390.282 225.912 389.746 225.508 389.279 225.156C388.511 224.578 387.932 224.142 387.075 223.576C385.144 222.301 382.572 220.952 377.721 220.432C372.969 219.923 366.33 218.162 359.669 216.139C352.72 214.028 344.794 211.33 337.054 208.538C321.787 203.033 306.324 196.829 300.133 193.733C298.297 192.815 294.631 191.003 289.747 188.59C287.4 187.43 284.772 186.131 281.93 184.725C273.206 180.41 262.531 175.12 252.008 169.858C241.494 164.601 231.092 159.353 222.923 155.127C218.845 153.017 215.269 151.134 212.493 149.617C210.071 148.294 207.386 146.789 205.8 145.6C202.934 143.45 199.976 140.199 199.094 135.435C198.757 135.267 198.376 135.084 197.947 134.884C186.823 129.72 167.752 121.114 159.585 117.447L159.487 117.404L159.39 117.358C150.832 113.33 141.052 108.575 132.77 104.01C128.638 101.732 124.697 99.4031 121.392 97.1521C118.405 95.117 114.803 92.4036 112.4 89.2002C110.919 87.2251 108.554 84.8895 105.99 82.7157C105.512 82.3109 105.052 81.9319 104.616 81.581C104.455 81.6595 104.185 81.8087 103.391 82.2506C103.36 82.268 103.325 82.2876 103.287 82.3092C102.607 82.69 100.813 83.6944 98.7341 84.2884C96.1155 85.0366 91.8961 85.4727 87.6171 83.0109C83.8581 80.8481 81.983 77.5086 81.0342 75.3738C79.0428 70.8933 78.2079 65.1508 80.2758 59.4244C82.4482 53.4085 87.2137 49.0994 93.1922 46.8C96.7736 45.4225 106.415 42.0873 115.912 39.1116C120.685 37.6159 125.579 36.1615 129.767 35.0687C133.364 34.1301 138.056 33.0002 141.5 33.0002C142.46 33.0002 143.105 32.9782 143.819 32.9539C144.179 32.9416 144.557 32.9288 145.002 32.9179C145.034 32.917 145.069 32.9161 145.107 32.9152C146.013 32.8914 148.303 32.8315 150.712 33.5004C154.025 34.4208 156.432 36.3025 158.139 38.3334Z" fill="white"/>
<path fill-rule="evenodd" clip-rule="evenodd" d="M144.545 47.4385C143.738 47.4656 142.709 47.5001 141.5 47.5001C140.254 47.5001 137.418 48.0576 133.428 49.0987C129.562 50.1077 124.917 51.4851 120.248 52.9482C110.898 55.8777 101.579 59.11 98.3976 60.3334C95.716 61.3648 94.4432 62.8837 93.914 64.3492C93.363 65.8749 93.4912 67.6994 94.2846 69.4847C94.4959 69.96 94.6652 70.2146 94.7659 70.3419C95.0999 70.2436 95.5563 70.017 96.3388 69.5814C96.4191 69.5367 96.5025 69.49 96.5887 69.4417C97.2619 69.0649 98.1089 68.5907 99.0153 68.2022C99.7427 67.8905 100.353 67.5481 100.933 67.2001C101.049 67.1302 101.175 67.0534 101.307 66.9728C101.758 66.6969 102.282 66.3768 102.757 66.139C103.432 65.8014 104.301 65.4688 105.344 65.4688C106.408 65.4688 107.381 65.813 108.286 66.3563C110.967 67.965 119.249 74.1646 124 80.5001C124.859 81.6452 126.714 83.2322 129.556 85.1683C132.332 87.0594 135.835 89.1418 139.769 91.3106C147.629 95.6426 157.062 100.237 165.545 104.229C173.723 107.9 192.846 116.53 204.053 121.733C207.621 123.389 209.925 124.81 211.355 126.18C212.928 127.687 213.5 129.198 213.5 130.75C213.5 131.256 213.432 131.777 213.392 132.085C213.385 132.144 213.378 132.194 213.373 132.236C213.332 132.581 213.337 132.7 213.347 132.768C213.351 132.794 213.36 132.867 213.473 133.029C213.605 133.219 213.892 133.544 214.5 134C215.076 134.432 216.735 135.412 219.445 136.892C222.081 138.332 225.546 140.158 229.586 142.248C237.665 146.428 247.996 151.641 258.493 156.889C268.988 162.137 279.641 167.416 288.358 171.728C291.168 173.118 293.777 174.407 296.116 175.563C301.031 177.992 304.751 179.83 306.618 180.764C311.974 183.442 326.727 189.4 341.973 194.898C349.574 197.64 357.25 200.25 363.883 202.264C370.576 204.297 376.027 205.667 379.266 206.014C386.714 206.812 391.465 209.099 395.065 211.476C396.276 212.276 397.401 213.119 398.381 213.855C398.789 214.161 399.172 214.448 399.526 214.705C400.806 215.637 401.823 216.276 402.854 216.651C405.172 217.493 405.844 216.871 405.857 216.857C405.89 216.824 406.144 216.485 405.829 215.756C405.817 215.745 405.803 215.732 405.786 215.717C405.641 215.586 405.402 215.398 405.046 215.155C404.334 214.669 403.325 214.076 402.048 213.388C399.504 212.017 396.123 210.387 392.428 208.634C391.656 208.267 390.869 207.895 390.073 207.518C383.371 204.348 376.058 200.888 371.665 198.114C369.014 196.439 365.584 193.275 361.914 189.48C358.196 185.636 354.078 180.98 350.026 176.174C341.928 166.569 334.003 156.257 329.948 150.428C326.142 144.957 325.396 140.693 326.277 137.208C326.7 135.537 327.456 134.224 328.129 133.226C328.386 132.844 328.651 132.479 328.868 132.181C328.926 132.101 328.981 132.026 329.031 131.957C329.118 131.836 329.192 131.732 329.255 131.641C322.792 119.502 311.458 107.509 300.778 97.9067C290.084 88.293 280.238 81.2442 277.077 79.0556C275.696 78.0992 274.095 76.9231 272.395 75.674C272.05 75.4208 271.702 75.1647 271.35 74.9068C269.244 73.3623 266.995 71.7303 264.725 70.1966C260.077 67.0555 255.707 64.591 252.51 63.9516C246.247 62.699 242.235 66.0027 240.671 68.7405C239.607 70.602 238.336 72.3257 236.565 73.3512C234.653 74.4583 232.545 74.5415 230.313 73.9039C229.022 73.5349 227.515 72.6395 226.105 71.6921C224.622 70.6947 222.97 69.4464 221.327 68.1508C219.68 66.8517 218.004 65.4767 216.476 64.221L216.396 64.1558C214.887 62.9159 213.539 61.8087 212.465 60.9735C211.624 60.3192 210.864 59.7105 210.149 59.1386C206.923 56.5559 204.632 54.7217 200.039 52.8078C194.701 50.584 188.417 51.0507 184.515 52.7846C181.937 53.9305 179.279 54.4709 176.27 54.798C174.087 55.0352 171.609 55.1689 168.785 55.3212C167.783 55.3753 166.738 55.4316 165.647 55.4958C161.422 55.7443 157.923 55.7819 155.114 55.0428C152.069 54.2416 149.89 52.55 148.315 49.7142C147.678 48.568 147.316 47.992 147.039 47.6634C146.922 47.5238 146.864 47.484 146.859 47.4807M146.859 47.4803C146.855 47.4789 146.847 47.4757 146.831 47.4714C146.674 47.4277 146.339 47.3893 145.358 47.4134C145.12 47.4192 144.848 47.4284 144.545 47.4385M152.676 47.2694L152.685 47.286C153.61 48.9501 154.681 49.7586 156.386 50.2074C158.328 50.7183 161.079 50.7559 165.353 50.5044C166.526 50.4354 167.62 50.3764 168.647 50.321C171.413 50.1717 173.693 50.0487 175.73 49.8273C178.471 49.5294 180.563 49.0698 182.485 48.2156C187.583 45.9494 195.299 45.4162 201.962 48.1924C207.247 50.3947 210.093 52.6782 213.386 55.3209C214.074 55.873 214.782 56.4408 215.535 57.0267C216.662 57.9034 218.054 59.0465 219.53 60.2596L219.649 60.3574C221.183 61.6173 222.821 62.9611 224.423 64.2244C226.03 65.4913 227.566 66.6493 228.895 67.5425C230.298 68.4858 231.229 68.9654 231.687 69.0963C232.955 69.4587 233.597 69.292 234.06 69.0241C234.664 68.6745 235.393 67.8983 236.329 66.2598C238.765 61.9975 244.753 57.3012 253.49 59.0487C257.793 59.9092 262.924 62.9447 267.525 66.0536C269.88 67.6449 272.194 69.3254 274.307 70.8747C274.669 71.1407 275.025 71.4021 275.374 71.6583C277.074 72.9077 278.605 74.032 279.923 74.9446C283.19 77.2061 293.218 84.387 304.121 94.1885C314.983 103.955 326.906 116.492 333.77 129.484C334.177 130.253 334.834 131.899 333.924 133.591C333.669 134.066 333.347 134.52 333.085 134.883C333.015 134.98 332.947 135.073 332.881 135.165C332.672 135.452 332.478 135.719 332.277 136.018C331.768 136.773 331.35 137.542 331.124 138.434C330.709 140.076 330.773 142.859 334.052 147.572C337.997 153.243 345.822 163.431 353.849 172.951C357.859 177.708 361.898 182.271 365.508 186.004C369.166 189.787 372.237 192.561 374.335 193.886C378.449 196.485 385.456 199.801 392.247 203.015C393.026 203.384 393.803 203.752 394.572 204.117C398.253 205.863 401.746 207.546 404.421 208.987C405.754 209.705 406.94 210.394 407.865 211.025C408.326 211.34 408.766 211.67 409.142 212.011C409.483 212.319 409.935 212.781 410.236 213.382C411.324 215.558 411.358 218.428 409.393 220.393C407.406 222.38 404.328 222.507 401.146 221.35C399.427 220.725 397.944 219.738 396.584 218.748C396.12 218.411 395.678 218.079 395.237 217.748C394.311 217.053 393.393 216.364 392.31 215.649C389.285 213.651 385.286 211.688 378.734 210.986C374.973 210.583 369.112 209.078 362.43 207.048C355.688 205.001 347.926 202.361 340.277 199.602C325.023 194.101 310.026 188.058 304.382 185.236C302.526 184.308 298.828 182.48 293.927 180.059C291.584 178.9 288.965 177.606 286.142 176.21C277.422 171.897 266.762 166.614 256.257 161.361C245.754 156.11 235.398 150.885 227.289 146.689C223.235 144.592 219.732 142.746 217.048 141.28C214.437 139.854 212.424 138.693 211.5 138C209.695 136.646 208.661 135.219 208.403 133.514C208.288 132.754 208.356 132.084 208.408 131.643C208.425 131.507 208.439 131.396 208.45 131.302C208.484 131.034 208.5 130.906 208.5 130.75C208.5 130.745 208.5 130.739 208.501 130.731C208.507 130.64 208.522 130.39 207.895 129.789C207.075 129.003 205.379 127.861 201.947 126.268C190.763 121.075 171.643 112.447 163.476 108.781L163.456 108.772L163.436 108.762C154.923 104.756 145.365 100.104 137.356 95.6895C133.353 93.4833 129.699 91.3158 126.741 89.3006C123.849 87.3304 121.391 85.355 120 83.5001C115.752 77.8355 108.033 72.0351 105.714 70.6438C105.5 70.5157 105.385 70.4791 105.343 70.4699C105.309 70.4765 105.206 70.5045 104.993 70.6111C104.723 70.7461 104.462 70.9057 104.077 71.1407C103.912 71.2412 103.725 71.3555 103.505 71.4875C102.835 71.8895 102.008 72.3597 100.985 72.7979C100.337 73.0758 99.7276 73.4159 99.0303 73.8053C98.9452 73.8528 98.8588 73.9011 98.7708 73.95C98.0495 74.3516 97.1016 74.8747 96.1244 75.1539C95.0593 75.4582 93.6979 75.549 92.3549 74.7764C91.1203 74.0661 90.3091 72.8508 89.7156 71.5154C88.509 68.8007 88.1372 65.6252 89.2112 62.651C90.307 59.6164 92.7842 57.1353 96.6027 55.6667C99.9217 54.3901 109.352 51.1224 118.753 48.1769C123.458 46.7026 128.188 45.2987 132.166 44.2608C136.02 43.255 139.496 42.5001 141.5 42.5001C142.62 42.5001 143.506 42.4703 144.292 42.4438C144.621 42.4328 144.932 42.4223 145.236 42.4149C146.161 42.3921 147.201 42.385 148.169 42.6538C150.467 43.2919 151.548 45.2388 152.676 47.2694ZM105.355 70.4681C105.355 70.4682 105.353 70.4685 105.35 70.4687C105.354 70.4681 105.355 70.468 105.355 70.4681ZM105.337 70.4687C105.329 70.4684 105.325 70.4675 105.325 70.4672C105.324 70.4669 105.328 70.467 105.337 70.4687Z" fill="black"/>
</svg>
