<svg width="522" height="252" viewBox="0 0 522 252" fill="none" xmlns="http://www.w3.org/2000/svg">
<path fill-rule="evenodd" clip-rule="evenodd" d="M521 1.5H1V0.5H521V1.5Z" fill="#20202E"/>
<path fill-rule="evenodd" clip-rule="evenodd" d="M521 11.5H1V10.5H521V11.5Z" fill="#20202E"/>
<path fill-rule="evenodd" clip-rule="evenodd" d="M521 21.5H1V20.5H521V21.5Z" fill="#20202E"/>
<path fill-rule="evenodd" clip-rule="evenodd" d="M521 31.5H1V30.5H521V31.5Z" fill="#20202E"/>
<path fill-rule="evenodd" clip-rule="evenodd" d="M521 41.5H1V40.5H521V41.5Z" fill="#20202E"/>
<path fill-rule="evenodd" clip-rule="evenodd" d="M521 51.5H1V50.5H521V51.5Z" fill="#20202E"/>
<path fill-rule="evenodd" clip-rule="evenodd" d="M521 61.5H1V60.5H521V61.5Z" fill="#20202E"/>
<path fill-rule="evenodd" clip-rule="evenodd" d="M521 71.5H1V70.5H521V71.5Z" fill="#20202E"/>
<path fill-rule="evenodd" clip-rule="evenodd" d="M521 81.5H1V80.5H521V81.5Z" fill="#20202E"/>
<path fill-rule="evenodd" clip-rule="evenodd" d="M521 91.5H1V90.5H521V91.5Z" fill="#20202E"/>
<path fill-rule="evenodd" clip-rule="evenodd" d="M521 101.5H1V100.5H521V101.5Z" fill="#20202E"/>
<path fill-rule="evenodd" clip-rule="evenodd" d="M521 111.5H1V110.5H521V111.5Z" fill="#20202E"/>
<path fill-rule="evenodd" clip-rule="evenodd" d="M521 121.5H1V120.5H521V121.5Z" fill="#20202E"/>
<path fill-rule="evenodd" clip-rule="evenodd" d="M521 131.5H1V130.5H521V131.5Z" fill="#20202E"/>
<path fill-rule="evenodd" clip-rule="evenodd" d="M521 141.5H1V140.5H521V141.5Z" fill="#20202E"/>
<path fill-rule="evenodd" clip-rule="evenodd" d="M521 151.5H1V150.5H521V151.5Z" fill="#20202E"/>
<path fill-rule="evenodd" clip-rule="evenodd" d="M521 161.5H1V160.5H521V161.5Z" fill="#20202E"/>
<path fill-rule="evenodd" clip-rule="evenodd" d="M521 171.5H1V170.5H521V171.5Z" fill="#20202E"/>
<path fill-rule="evenodd" clip-rule="evenodd" d="M521 181.5H1V180.5H521V181.5Z" fill="#20202E"/>
<path fill-rule="evenodd" clip-rule="evenodd" d="M521 191.5H1V190.5H521V191.5Z" fill="#20202E"/>
<path fill-rule="evenodd" clip-rule="evenodd" d="M521 201.5H1V200.5H521V201.5Z" fill="#20202E"/>
<path fill-rule="evenodd" clip-rule="evenodd" d="M521 211.5H1V210.5H521V211.5Z" fill="#20202E"/>
<path fill-rule="evenodd" clip-rule="evenodd" d="M521 221.5H1V220.5H521V221.5Z" fill="#20202E"/>
<path fill-rule="evenodd" clip-rule="evenodd" d="M521 231.5H1V230.5H521V231.5Z" fill="#20202E"/>
<path fill-rule="evenodd" clip-rule="evenodd" d="M521 241.5H1V240.5H521V241.5Z" fill="#20202E"/>
<path fill-rule="evenodd" clip-rule="evenodd" d="M521 251.5H1V250.5H521V251.5Z" fill="#20202E"/>
<path fill-rule="evenodd" clip-rule="evenodd" d="M0.5 251L0.5 1L1.5 1L1.5 251L0.5 251Z" fill="#20202E"/>
<path fill-rule="evenodd" clip-rule="evenodd" d="M10.5 251L10.5 1L11.5 1L11.5 251L10.5 251Z" fill="#20202E"/>
<path fill-rule="evenodd" clip-rule="evenodd" d="M20.5 251L20.5 1L21.5 1L21.5 251L20.5 251Z" fill="#20202E"/>
<path fill-rule="evenodd" clip-rule="evenodd" d="M30.5 251L30.5 1L31.5 1L31.5 251L30.5 251Z" fill="#20202E"/>
<path fill-rule="evenodd" clip-rule="evenodd" d="M40.5 251L40.5 1L41.5 1L41.5 251L40.5 251Z" fill="#20202E"/>
<path fill-rule="evenodd" clip-rule="evenodd" d="M50.5 251L50.5 1L51.5 1L51.5 251L50.5 251Z" fill="#20202E"/>
<path fill-rule="evenodd" clip-rule="evenodd" d="M60.5 251L60.5 1L61.5 1L61.5 251L60.5 251Z" fill="#20202E"/>
<path fill-rule="evenodd" clip-rule="evenodd" d="M70.5 251L70.5 1L71.5 1L71.5 251L70.5 251Z" fill="#20202E"/>
<path fill-rule="evenodd" clip-rule="evenodd" d="M80.5 251L80.5 1L81.5 1L81.5 251L80.5 251Z" fill="#20202E"/>
<path fill-rule="evenodd" clip-rule="evenodd" d="M90.5 251L90.5 1L91.5 1L91.5 251L90.5 251Z" fill="#20202E"/>
<path fill-rule="evenodd" clip-rule="evenodd" d="M100.5 251L100.5 1L101.5 1L101.5 251L100.5 251Z" fill="#20202E"/>
<path fill-rule="evenodd" clip-rule="evenodd" d="M110.5 251L110.5 1L111.5 1L111.5 251L110.5 251Z" fill="#20202E"/>
<path fill-rule="evenodd" clip-rule="evenodd" d="M120.5 251L120.5 1L121.5 1L121.5 251L120.5 251Z" fill="#20202E"/>
<path fill-rule="evenodd" clip-rule="evenodd" d="M130.5 251L130.5 1L131.5 1L131.5 251L130.5 251Z" fill="#20202E"/>
<path fill-rule="evenodd" clip-rule="evenodd" d="M140.5 251L140.5 1L141.5 1L141.5 251L140.5 251Z" fill="#20202E"/>
<path fill-rule="evenodd" clip-rule="evenodd" d="M150.5 251L150.5 1L151.5 1L151.5 251L150.5 251Z" fill="#20202E"/>
<path fill-rule="evenodd" clip-rule="evenodd" d="M160.5 251L160.5 1L161.5 1L161.5 251L160.5 251Z" fill="#20202E"/>
<path fill-rule="evenodd" clip-rule="evenodd" d="M170.5 251L170.5 1L171.5 1L171.5 251L170.5 251Z" fill="#20202E"/>
<path fill-rule="evenodd" clip-rule="evenodd" d="M180.5 251L180.5 1L181.5 1L181.5 251L180.5 251Z" fill="#20202E"/>
<path fill-rule="evenodd" clip-rule="evenodd" d="M190.5 251L190.5 1L191.5 1L191.5 251L190.5 251Z" fill="#20202E"/>
<path fill-rule="evenodd" clip-rule="evenodd" d="M200.5 251L200.5 1L201.5 1L201.5 251L200.5 251Z" fill="#20202E"/>
<path fill-rule="evenodd" clip-rule="evenodd" d="M210.5 251L210.5 1L211.5 1L211.5 251L210.5 251Z" fill="#20202E"/>
<path fill-rule="evenodd" clip-rule="evenodd" d="M220.5 251L220.5 1L221.5 1L221.5 251L220.5 251Z" fill="#20202E"/>
<path fill-rule="evenodd" clip-rule="evenodd" d="M230.5 251L230.5 1L231.5 1L231.5 251L230.5 251Z" fill="#20202E"/>
<path fill-rule="evenodd" clip-rule="evenodd" d="M240.5 251L240.5 1L241.5 1L241.5 251L240.5 251Z" fill="#20202E"/>
<path fill-rule="evenodd" clip-rule="evenodd" d="M250.5 251L250.5 1L251.5 1L251.5 251L250.5 251Z" fill="#20202E"/>
<path fill-rule="evenodd" clip-rule="evenodd" d="M260.5 251L260.5 1L261.5 1L261.5 251L260.5 251Z" fill="#20202E"/>
<path fill-rule="evenodd" clip-rule="evenodd" d="M270.5 251L270.5 1L271.5 1L271.5 251L270.5 251Z" fill="#20202E"/>
<path fill-rule="evenodd" clip-rule="evenodd" d="M280.5 251L280.5 1L281.5 1L281.5 251L280.5 251Z" fill="#20202E"/>
<path fill-rule="evenodd" clip-rule="evenodd" d="M290.5 251L290.5 1L291.5 1L291.5 251L290.5 251Z" fill="#20202E"/>
<path fill-rule="evenodd" clip-rule="evenodd" d="M300.5 251L300.5 1L301.5 1L301.5 251L300.5 251Z" fill="#20202E"/>
<path fill-rule="evenodd" clip-rule="evenodd" d="M310.5 251L310.5 1L311.5 1L311.5 251L310.5 251Z" fill="#20202E"/>
<path fill-rule="evenodd" clip-rule="evenodd" d="M320.5 251L320.5 1L321.5 1L321.5 251L320.5 251Z" fill="#20202E"/>
<path fill-rule="evenodd" clip-rule="evenodd" d="M330.5 251L330.5 1L331.5 1L331.5 251L330.5 251Z" fill="#20202E"/>
<path fill-rule="evenodd" clip-rule="evenodd" d="M340.5 251L340.5 1L341.5 1L341.5 251L340.5 251Z" fill="#20202E"/>
<path fill-rule="evenodd" clip-rule="evenodd" d="M350.5 251L350.5 1L351.5 1L351.5 251L350.5 251Z" fill="#20202E"/>
<path fill-rule="evenodd" clip-rule="evenodd" d="M360.5 251L360.5 1L361.5 1L361.5 251L360.5 251Z" fill="#20202E"/>
<path fill-rule="evenodd" clip-rule="evenodd" d="M370.5 251L370.5 1L371.5 1L371.5 251L370.5 251Z" fill="#20202E"/>
<path fill-rule="evenodd" clip-rule="evenodd" d="M380.5 251L380.5 1L381.5 1L381.5 251L380.5 251Z" fill="#20202E"/>
<path fill-rule="evenodd" clip-rule="evenodd" d="M390.5 251L390.5 1L391.5 1L391.5 251L390.5 251Z" fill="#20202E"/>
<path fill-rule="evenodd" clip-rule="evenodd" d="M400.5 251L400.5 1L401.5 1L401.5 251L400.5 251Z" fill="#20202E"/>
<path fill-rule="evenodd" clip-rule="evenodd" d="M410.5 251L410.5 1L411.5 1L411.5 251L410.5 251Z" fill="#20202E"/>
<path fill-rule="evenodd" clip-rule="evenodd" d="M420.5 251L420.5 1L421.5 1L421.5 251L420.5 251Z" fill="#20202E"/>
<path fill-rule="evenodd" clip-rule="evenodd" d="M430.5 251L430.5 1L431.5 1L431.5 251L430.5 251Z" fill="#20202E"/>
<path fill-rule="evenodd" clip-rule="evenodd" d="M440.5 251L440.5 1L441.5 1L441.5 251L440.5 251Z" fill="#20202E"/>
<path fill-rule="evenodd" clip-rule="evenodd" d="M450.5 251L450.5 1L451.5 1L451.5 251L450.5 251Z" fill="#20202E"/>
<path fill-rule="evenodd" clip-rule="evenodd" d="M460.5 251L460.5 1L461.5 1L461.5 251L460.5 251Z" fill="#20202E"/>
<path fill-rule="evenodd" clip-rule="evenodd" d="M470.5 251L470.5 1L471.5 1L471.5 251L470.5 251Z" fill="#20202E"/>
<path fill-rule="evenodd" clip-rule="evenodd" d="M480.5 251L480.5 1L481.5 1L481.5 251L480.5 251Z" fill="#20202E"/>
<path fill-rule="evenodd" clip-rule="evenodd" d="M490.5 251L490.5 1L491.5 1L491.5 251L490.5 251Z" fill="#20202E"/>
<path fill-rule="evenodd" clip-rule="evenodd" d="M500.5 251L500.5 1L501.5 1L501.5 251L500.5 251Z" fill="#20202E"/>
<path fill-rule="evenodd" clip-rule="evenodd" d="M510.5 251L510.5 1L511.5 1L511.5 251L510.5 251Z" fill="#20202E"/>
<path fill-rule="evenodd" clip-rule="evenodd" d="M520.5 251L520.5 1L521.5 1L521.5 251L520.5 251Z" fill="#20202E"/>
<path fill-rule="evenodd" clip-rule="evenodd" d="M145.105 43.3963C145.104 43.3972 145.074 43.4007 145.018 43.404C145.078 43.397 145.106 43.3954 145.105 43.3963ZM140.662 44.1047C138.903 44.4156 136.792 44.8038 134.413 45.2412C129.495 46.1456 123.433 47.2604 116.973 48.337C115.759 48.5393 114.914 48.7504 114.35 48.9235C114.312 49.1476 114.271 49.4083 114.226 49.7161C114.176 50.0585 114.126 50.421 114.068 50.8429C114.061 50.8903 114.054 50.9386 114.048 50.9877C114.034 51.0855 114.02 51.1865 114.006 51.2899C114.085 51.5664 114.234 52.0357 114.51 52.7305C115.281 54.6695 116.52 57.1227 118.208 60.2798C118.616 61.0432 119.055 61.854 119.516 62.7043C122.48 68.1759 126.329 75.2787 128.429 81.8429C128.487 82.0244 128.543 82.1948 128.598 82.3547C130.304 82.9668 132.176 84.0262 133.829 85.8169C135.911 88.072 136.755 90.5433 137.142 92.0898C138.264 96.5793 142.33 115.476 146.863 145.191C150.29 167.659 167.41 174.859 175.411 176.859C178.775 177.7 185.165 178.228 192.546 177.717C199.909 177.207 206.804 175.759 211.471 173.605C213.282 172.769 215.025 172.038 216.644 171.52C217.978 171.093 220.578 170.346 223.581 170.659C225.299 170.838 227.422 171.39 229.494 172.76C231.122 173.837 232.316 175.153 233.17 176.457C240.689 176.322 259.256 175.882 280.569 175.378C311.468 174.647 348.14 173.779 365.297 173.502C365.3 173.502 365.303 173.502 365.307 173.502L365.5 185.5L365.288 173.502C365.291 173.502 365.294 173.502 365.297 173.502C368.252 173.449 380.744 172.97 392.801 170.723C398.892 169.587 404.211 168.117 407.99 166.368C410.434 165.236 411.353 164.407 411.62 164.143C411.575 164.309 411.527 164.479 411.476 164.654C411.595 164.245 411.719 164.058 411.712 164.053C411.709 164.051 411.682 164.082 411.62 164.143C412.111 162.353 412.3 161.082 412.358 160.24C412.709 160.301 412.99 160.369 413.209 160.435C413.836 160.624 413.441 160.641 412.889 159.997C412.445 159.478 412.347 159.06 412.343 159.061C412.341 159.061 412.353 159.125 412.365 159.27C412.382 159.49 412.387 159.809 412.358 160.24C411.594 160.106 410.499 160 409 160H280.815C280.932 159.994 281.049 159.988 281.166 159.981L280.5 148V160H280.815C275.495 160.265 270.492 159.8 265.794 156.842C264.023 155.727 262.573 154.4 261.83 153.721C261.771 153.666 261.716 153.616 261.666 153.571C261.288 153.227 260.96 152.93 260.638 152.654C260.829 152.597 261.003 152.544 261.153 152.498C261.236 152.472 261.312 152.449 261.379 152.429C261.894 152.273 262.115 152.212 262.249 152.181C262.27 152.176 262.28 152.174 262.28 152.174C262.28 152.174 261.68 152.295 260.819 152.154C260.031 152.024 259.554 151.765 259.444 151.702C259.429 151.693 259.42 151.688 259.419 151.688C259.418 151.688 259.426 151.693 259.442 151.705C259.88 152.024 260.255 152.324 260.638 152.654C260.267 152.766 259.835 152.893 259.405 153.011C257.729 153.47 255.363 154 252.5 154C249.759 154 246.358 153.606 242.694 151.253C240.468 149.823 238.318 147.7 236.595 145.998C236.483 145.888 236.373 145.779 236.264 145.672C236.07 145.481 235.869 145.282 235.659 145.075C231.336 140.809 223.641 133.215 207.713 119.63C172.532 89.6231 144.791 50.5953 140.876 44.4428C140.804 44.33 140.733 44.2172 140.662 44.1047ZM229.223 176.459C229.225 176.456 229.281 176.461 229.38 176.48C229.269 176.47 229.22 176.461 229.223 176.459ZM235.373 183.008C235.426 183.254 235.443 183.401 235.437 183.413C235.432 183.425 235.406 183.303 235.373 183.008ZM123.607 81.5338C123.542 81.5329 123.552 81.5313 123.619 81.534L123.607 81.5338ZM159.828 29.4516C160.223 30.1082 160.594 30.725 161.124 31.5577C164.209 36.4052 190.468 73.3768 223.287 101.37C239.855 115.501 247.985 123.522 252.529 128.004C252.73 128.202 252.923 128.393 253.111 128.578C253.493 128.955 253.824 129.278 254.109 129.555C254.202 129.526 254.303 129.495 254.414 129.462C254.981 129.29 255.823 129.037 256.752 128.819C258.693 128.362 261.458 127.936 264.712 128.471C268.011 129.014 270.947 130.396 273.558 132.295C275.485 133.697 276.889 134.974 277.795 135.798L277.818 135.82C277.916 135.909 278.005 135.989 278.084 136.06C278.499 136.069 279.068 136.061 279.834 136.018L280.167 136H409C415.459 136 424.864 137.09 431.111 144.378C437.765 152.141 437.134 162.356 434.524 171.346C431.884 180.439 423.938 185.431 418.073 188.147C411.664 191.114 404.108 193.028 397.199 194.316C383.269 196.913 369.275 197.435 365.712 197.499L365.703 197.499L365.694 197.499C349.211 197.765 313.124 198.616 282.25 199.345C255.849 199.967 233.261 200.5 230 200.5C226.378 200.5 221.636 199.95 217.665 196.993C210.189 199.756 201.756 201.136 194.204 201.659C185.335 202.273 176.226 201.801 169.589 200.142C157.59 197.142 128.71 185.341 123.137 148.81C119.792 126.882 116.747 111.224 115.059 103.266C114.927 103.186 114.795 103.104 114.664 103.019C112.937 101.901 111.54 100.523 110.406 99.0673C108.259 96.3092 106.765 92.888 105.571 89.1576C104.215 84.9186 101.619 80.0988 98.547 74.3959C98.0567 73.4854 97.5542 72.5524 97.0426 71.5957C95.3556 68.4403 93.5314 64.9248 92.2086 61.5982C91.0586 58.706 89.3947 53.8852 90.1207 48.8032C90.1539 48.5705 90.1907 48.3001 90.2314 48.001C90.4135 46.6612 90.6741 44.7448 91.0486 43.0508C91.5574 40.7489 92.4704 37.7736 94.4714 34.849C98.8111 28.5064 105.732 25.8794 113.027 24.6635C118.099 23.8183 123.712 22.7956 128.715 21.8842C134.646 20.8037 139.719 19.8795 142.012 19.5929C143.543 19.4015 146.043 19.1973 148.812 19.8985C152.037 20.7149 154.449 22.4332 156.192 24.293C157.594 25.7881 158.612 27.451 159.139 28.3128L159.149 28.3295C159.401 28.7406 159.618 29.1018 159.828 29.4516ZM123.575 105.54C123.572 105.54 123.525 105.539 123.445 105.535C123.539 105.537 123.579 105.539 123.575 105.54ZM211.497 185.452C211.498 185.456 211.499 185.467 211.501 185.484C211.497 185.457 211.496 185.445 211.497 185.452Z" fill="white"/>
<path fill-rule="evenodd" clip-rule="evenodd" d="M145.253 33.9552C145.085 33.9124 144.699 33.8699 143.81 33.9811C141.767 34.2364 137.506 35.0167 132.183 35.9916C127.207 36.9031 121.301 37.9846 115.411 38.9663C109.681 39.9214 107.498 41.4887 106.438 43.0371C105.873 43.8627 105.497 44.8665 105.207 46.1806C104.975 47.2284 104.823 48.3358 104.645 49.6329C104.591 50.0217 104.536 50.4275 104.475 50.8539C104.324 51.9098 104.657 53.6619 105.682 56.2407C106.672 58.729 108.142 61.6027 109.829 64.7591C110.281 65.6045 110.749 66.4702 111.226 67.3518C114.232 72.9144 117.578 79.1034 119.381 84.7384C121.301 90.7393 122.764 90.9712 122.879 90.9895C122.882 90.9899 122.883 90.9902 122.885 90.9904C123.012 91.0169 123.162 91.0283 123.463 91.0329C123.486 91.0332 123.514 91.0334 123.545 91.0337C123.798 91.0357 124.305 91.0397 124.782 91.1308C125.436 91.2558 126.202 91.5603 126.849 92.2607C127.44 92.9014 127.746 93.676 127.925 94.394C128.951 98.496 132.964 117.079 137.471 146.623C141.748 174.658 163.523 183.679 173.106 186.075C177.765 187.24 185.232 187.746 193.202 187.194C201.168 186.643 209.334 185.054 215.452 182.231C217.116 181.463 218.456 180.915 219.538 180.569C220.56 180.242 221.614 180.005 222.595 180.108C223.131 180.164 223.712 180.327 224.253 180.684C224.803 181.048 225.171 181.521 225.409 181.982C225.792 182.722 225.878 183.55 225.917 183.924C225.919 183.946 225.921 183.966 225.923 183.984C226.035 185.026 226.101 185.151 226.221 185.272C226.345 185.397 227.093 186.001 230 186.001C233.191 186.001 255.248 185.479 281.232 184.865C312.127 184.135 348.573 183.273 365.46 183.001C368.651 182.944 381.741 182.448 394.542 180.062C400.956 178.866 407.161 177.22 411.981 174.989C416.914 172.705 419.79 170.091 420.599 167.303C422.774 159.811 421.887 155.898 420.102 153.815C418.231 151.632 414.602 150.5 409 150.5H280.568C275.913 150.752 273.18 150.267 270.855 148.803C269.833 148.16 268.962 147.367 268.163 146.639L268.059 146.544C267.2 145.763 266.286 144.936 265.029 144.022C263.912 143.209 263.051 142.893 262.36 142.779C261.66 142.664 260.952 142.727 260.072 142.934C259.478 143.073 259.006 143.219 258.457 143.389C258.019 143.524 257.532 143.674 256.895 143.849C255.643 144.192 254.185 144.5 252.5 144.5C250.84 144.5 249.439 144.294 247.828 143.26C246.487 142.398 245.009 140.952 242.932 138.906C242.741 138.717 242.542 138.521 242.336 138.317C237.926 133.966 230.058 126.204 213.877 112.402C179.632 83.1924 152.477 44.9785 148.891 39.3426C148.266 38.3615 147.734 37.4775 147.293 36.7441C147.106 36.4342 146.936 36.1513 146.782 35.8992C146.221 34.9827 145.886 34.5009 145.613 34.2102C145.412 33.9953 145.329 33.9742 145.255 33.9556L145.253 33.9552ZM151.617 34.2321C152.046 34.9447 152.518 35.7302 153.109 36.6582C156.522 42.0222 183.368 79.8077 217.122 108.598C233.437 122.513 241.394 130.364 245.851 134.761C246.055 134.963 246.252 135.157 246.442 135.344C248.678 137.548 249.731 138.539 250.531 139.053C251.061 139.393 251.409 139.5 252.5 139.5C253.565 139.5 254.544 139.308 255.574 139.026C255.884 138.941 256.276 138.823 256.7 138.695C257.431 138.474 258.259 138.224 258.927 138.066C260.173 137.773 261.59 137.586 263.171 137.846C264.761 138.107 266.338 138.791 267.97 139.978C269.464 141.064 270.549 142.05 271.425 142.846C272.331 143.671 272.898 144.181 273.519 144.572C274.558 145.226 276.059 145.743 280.361 145.504L280.43 145.5H409C414.898 145.5 420.518 146.618 423.898 150.561C427.362 154.602 427.726 160.689 425.401 168.697C423.96 173.659 419.336 177.093 414.081 179.526C408.714 182.011 402.043 183.75 395.458 184.977C382.264 187.437 368.859 187.941 365.544 188L365.54 188C348.793 188.27 312.469 189.128 281.58 189.858C255.453 190.475 233.214 191.001 230 191.001C226.657 191.001 224.217 190.354 222.669 188.791C221.536 187.647 221.182 186.271 221.044 185.336C220.246 185.593 219.123 186.043 217.547 186.77C210.666 189.947 201.831 191.609 193.547 192.182C185.268 192.755 177.234 192.261 171.893 190.926C161.477 188.322 137.252 178.342 132.528 147.377C128.18 118.87 124.306 100.702 123.178 96.0281C122.837 96.0188 122.374 95.9914 121.865 95.8853C118.922 95.2721 116.656 92.6292 114.619 86.2623C112.971 81.1116 109.886 75.3983 106.858 69.7893C106.376 68.8949 105.894 68.003 105.42 67.1166C103.733 63.9605 102.14 60.8655 101.036 58.0881C99.9677 55.4013 99.1758 52.591 99.5249 50.1468C99.575 49.7966 99.6238 49.4403 99.673 49.0808C99.8558 47.7456 100.045 46.3674 100.324 45.1014C100.69 43.4467 101.251 41.763 102.312 40.2136C104.502 37.0121 108.319 35.0793 114.589 34.0344C120.19 33.1008 126.002 32.0385 130.996 31.1256C136.531 30.1139 141.062 29.2856 143.19 29.0197C144.3 28.8808 145.415 28.8383 146.481 29.1081C147.641 29.4018 148.527 30.0072 149.261 30.7905C149.926 31.4999 150.498 32.393 151.046 33.289C151.232 33.5925 151.42 33.9046 151.617 34.2321Z" fill="black"/>
</svg>
