<svg width="522" height="252" viewBox="0 0 522 252" fill="none" xmlns="http://www.w3.org/2000/svg">
<path fill-rule="evenodd" clip-rule="evenodd" d="M521 1.5H1V0.5H521V1.5Z" fill="#20202E"/>
<path fill-rule="evenodd" clip-rule="evenodd" d="M521 11.5H1V10.5H521V11.5Z" fill="#20202E"/>
<path fill-rule="evenodd" clip-rule="evenodd" d="M521 21.5H1V20.5H521V21.5Z" fill="#20202E"/>
<path fill-rule="evenodd" clip-rule="evenodd" d="M521 31.5H1V30.5H521V31.5Z" fill="#20202E"/>
<path fill-rule="evenodd" clip-rule="evenodd" d="M521 41.5H1V40.5H521V41.5Z" fill="#20202E"/>
<path fill-rule="evenodd" clip-rule="evenodd" d="M521 51.5H1V50.5H521V51.5Z" fill="#20202E"/>
<path fill-rule="evenodd" clip-rule="evenodd" d="M521 61.5H1V60.5H521V61.5Z" fill="#20202E"/>
<path fill-rule="evenodd" clip-rule="evenodd" d="M521 71.5H1V70.5H521V71.5Z" fill="#20202E"/>
<path fill-rule="evenodd" clip-rule="evenodd" d="M521 81.5H1V80.5H521V81.5Z" fill="#20202E"/>
<path fill-rule="evenodd" clip-rule="evenodd" d="M521 91.5H1V90.5H521V91.5Z" fill="#20202E"/>
<path fill-rule="evenodd" clip-rule="evenodd" d="M521 101.5H1V100.5H521V101.5Z" fill="#20202E"/>
<path fill-rule="evenodd" clip-rule="evenodd" d="M521 111.5H1V110.5H521V111.5Z" fill="#20202E"/>
<path fill-rule="evenodd" clip-rule="evenodd" d="M521 121.5H1V120.5H521V121.5Z" fill="#20202E"/>
<path fill-rule="evenodd" clip-rule="evenodd" d="M521 131.5H1V130.5H521V131.5Z" fill="#20202E"/>
<path fill-rule="evenodd" clip-rule="evenodd" d="M521 141.5H1V140.5H521V141.5Z" fill="#20202E"/>
<path fill-rule="evenodd" clip-rule="evenodd" d="M521 151.5H1V150.5H521V151.5Z" fill="#20202E"/>
<path fill-rule="evenodd" clip-rule="evenodd" d="M521 161.5H1V160.5H521V161.5Z" fill="#20202E"/>
<path fill-rule="evenodd" clip-rule="evenodd" d="M521 171.5H1V170.5H521V171.5Z" fill="#20202E"/>
<path fill-rule="evenodd" clip-rule="evenodd" d="M521 181.5H1V180.5H521V181.5Z" fill="#20202E"/>
<path fill-rule="evenodd" clip-rule="evenodd" d="M521 191.5H1V190.5H521V191.5Z" fill="#20202E"/>
<path fill-rule="evenodd" clip-rule="evenodd" d="M521 201.5H1V200.5H521V201.5Z" fill="#20202E"/>
<path fill-rule="evenodd" clip-rule="evenodd" d="M521 211.5H1V210.5H521V211.5Z" fill="#20202E"/>
<path fill-rule="evenodd" clip-rule="evenodd" d="M521 221.5H1V220.5H521V221.5Z" fill="#20202E"/>
<path fill-rule="evenodd" clip-rule="evenodd" d="M521 231.5H1V230.5H521V231.5Z" fill="#20202E"/>
<path fill-rule="evenodd" clip-rule="evenodd" d="M521 241.5H1V240.5H521V241.5Z" fill="#20202E"/>
<path fill-rule="evenodd" clip-rule="evenodd" d="M521 251.5H1V250.5H521V251.5Z" fill="#20202E"/>
<path fill-rule="evenodd" clip-rule="evenodd" d="M0.5 251L0.5 1L1.5 1L1.5 251L0.5 251Z" fill="#20202E"/>
<path fill-rule="evenodd" clip-rule="evenodd" d="M10.5 251L10.5 1L11.5 1L11.5 251L10.5 251Z" fill="#20202E"/>
<path fill-rule="evenodd" clip-rule="evenodd" d="M20.5 251L20.5 1L21.5 1L21.5 251L20.5 251Z" fill="#20202E"/>
<path fill-rule="evenodd" clip-rule="evenodd" d="M30.5 251L30.5 1L31.5 1L31.5 251L30.5 251Z" fill="#20202E"/>
<path fill-rule="evenodd" clip-rule="evenodd" d="M40.5 251L40.5 1L41.5 1L41.5 251L40.5 251Z" fill="#20202E"/>
<path fill-rule="evenodd" clip-rule="evenodd" d="M50.5 251L50.5 1L51.5 1L51.5 251L50.5 251Z" fill="#20202E"/>
<path fill-rule="evenodd" clip-rule="evenodd" d="M60.5 251L60.5 1L61.5 1L61.5 251L60.5 251Z" fill="#20202E"/>
<path fill-rule="evenodd" clip-rule="evenodd" d="M70.5 251L70.5 1L71.5 1L71.5 251L70.5 251Z" fill="#20202E"/>
<path fill-rule="evenodd" clip-rule="evenodd" d="M80.5 251L80.5 1L81.5 1L81.5 251L80.5 251Z" fill="#20202E"/>
<path fill-rule="evenodd" clip-rule="evenodd" d="M90.5 251L90.5 1L91.5 1L91.5 251L90.5 251Z" fill="#20202E"/>
<path fill-rule="evenodd" clip-rule="evenodd" d="M100.5 251L100.5 1L101.5 1L101.5 251L100.5 251Z" fill="#20202E"/>
<path fill-rule="evenodd" clip-rule="evenodd" d="M110.5 251L110.5 1L111.5 1L111.5 251L110.5 251Z" fill="#20202E"/>
<path fill-rule="evenodd" clip-rule="evenodd" d="M120.5 251L120.5 1L121.5 1L121.5 251L120.5 251Z" fill="#20202E"/>
<path fill-rule="evenodd" clip-rule="evenodd" d="M130.5 251L130.5 1L131.5 1L131.5 251L130.5 251Z" fill="#20202E"/>
<path fill-rule="evenodd" clip-rule="evenodd" d="M140.5 251L140.5 1L141.5 1L141.5 251L140.5 251Z" fill="#20202E"/>
<path fill-rule="evenodd" clip-rule="evenodd" d="M150.5 251L150.5 1L151.5 1L151.5 251L150.5 251Z" fill="#20202E"/>
<path fill-rule="evenodd" clip-rule="evenodd" d="M160.5 251L160.5 1L161.5 1L161.5 251L160.5 251Z" fill="#20202E"/>
<path fill-rule="evenodd" clip-rule="evenodd" d="M170.5 251L170.5 1L171.5 1L171.5 251L170.5 251Z" fill="#20202E"/>
<path fill-rule="evenodd" clip-rule="evenodd" d="M180.5 251L180.5 1L181.5 1L181.5 251L180.5 251Z" fill="#20202E"/>
<path fill-rule="evenodd" clip-rule="evenodd" d="M190.5 251L190.5 1L191.5 1L191.5 251L190.5 251Z" fill="#20202E"/>
<path fill-rule="evenodd" clip-rule="evenodd" d="M200.5 251L200.5 1L201.5 1L201.5 251L200.5 251Z" fill="#20202E"/>
<path fill-rule="evenodd" clip-rule="evenodd" d="M210.5 251L210.5 1L211.5 1L211.5 251L210.5 251Z" fill="#20202E"/>
<path fill-rule="evenodd" clip-rule="evenodd" d="M220.5 251L220.5 1L221.5 1L221.5 251L220.5 251Z" fill="#20202E"/>
<path fill-rule="evenodd" clip-rule="evenodd" d="M230.5 251L230.5 1L231.5 1L231.5 251L230.5 251Z" fill="#20202E"/>
<path fill-rule="evenodd" clip-rule="evenodd" d="M240.5 251L240.5 1L241.5 1L241.5 251L240.5 251Z" fill="#20202E"/>
<path fill-rule="evenodd" clip-rule="evenodd" d="M250.5 251L250.5 1L251.5 1L251.5 251L250.5 251Z" fill="#20202E"/>
<path fill-rule="evenodd" clip-rule="evenodd" d="M260.5 251L260.5 1L261.5 1L261.5 251L260.5 251Z" fill="#20202E"/>
<path fill-rule="evenodd" clip-rule="evenodd" d="M270.5 251L270.5 1L271.5 1L271.5 251L270.5 251Z" fill="#20202E"/>
<path fill-rule="evenodd" clip-rule="evenodd" d="M280.5 251L280.5 1L281.5 1L281.5 251L280.5 251Z" fill="#20202E"/>
<path fill-rule="evenodd" clip-rule="evenodd" d="M290.5 251L290.5 1L291.5 1L291.5 251L290.5 251Z" fill="#20202E"/>
<path fill-rule="evenodd" clip-rule="evenodd" d="M300.5 251L300.5 1L301.5 1L301.5 251L300.5 251Z" fill="#20202E"/>
<path fill-rule="evenodd" clip-rule="evenodd" d="M310.5 251L310.5 1L311.5 1L311.5 251L310.5 251Z" fill="#20202E"/>
<path fill-rule="evenodd" clip-rule="evenodd" d="M320.5 251L320.5 1L321.5 1L321.5 251L320.5 251Z" fill="#20202E"/>
<path fill-rule="evenodd" clip-rule="evenodd" d="M330.5 251L330.5 1L331.5 1L331.5 251L330.5 251Z" fill="#20202E"/>
<path fill-rule="evenodd" clip-rule="evenodd" d="M340.5 251L340.5 1L341.5 1L341.5 251L340.5 251Z" fill="#20202E"/>
<path fill-rule="evenodd" clip-rule="evenodd" d="M350.5 251L350.5 1L351.5 1L351.5 251L350.5 251Z" fill="#20202E"/>
<path fill-rule="evenodd" clip-rule="evenodd" d="M360.5 251L360.5 1L361.5 1L361.5 251L360.5 251Z" fill="#20202E"/>
<path fill-rule="evenodd" clip-rule="evenodd" d="M370.5 251L370.5 1L371.5 1L371.5 251L370.5 251Z" fill="#20202E"/>
<path fill-rule="evenodd" clip-rule="evenodd" d="M380.5 251L380.5 1L381.5 1L381.5 251L380.5 251Z" fill="#20202E"/>
<path fill-rule="evenodd" clip-rule="evenodd" d="M390.5 251L390.5 1L391.5 1L391.5 251L390.5 251Z" fill="#20202E"/>
<path fill-rule="evenodd" clip-rule="evenodd" d="M400.5 251L400.5 1L401.5 1L401.5 251L400.5 251Z" fill="#20202E"/>
<path fill-rule="evenodd" clip-rule="evenodd" d="M410.5 251L410.5 1L411.5 1L411.5 251L410.5 251Z" fill="#20202E"/>
<path fill-rule="evenodd" clip-rule="evenodd" d="M420.5 251L420.5 1L421.5 1L421.5 251L420.5 251Z" fill="#20202E"/>
<path fill-rule="evenodd" clip-rule="evenodd" d="M430.5 251L430.5 1L431.5 1L431.5 251L430.5 251Z" fill="#20202E"/>
<path fill-rule="evenodd" clip-rule="evenodd" d="M440.5 251L440.5 1L441.5 1L441.5 251L440.5 251Z" fill="#20202E"/>
<path fill-rule="evenodd" clip-rule="evenodd" d="M450.5 251L450.5 1L451.5 1L451.5 251L450.5 251Z" fill="#20202E"/>
<path fill-rule="evenodd" clip-rule="evenodd" d="M460.5 251L460.5 1L461.5 1L461.5 251L460.5 251Z" fill="#20202E"/>
<path fill-rule="evenodd" clip-rule="evenodd" d="M470.5 251L470.5 1L471.5 1L471.5 251L470.5 251Z" fill="#20202E"/>
<path fill-rule="evenodd" clip-rule="evenodd" d="M480.5 251L480.5 1L481.5 1L481.5 251L480.5 251Z" fill="#20202E"/>
<path fill-rule="evenodd" clip-rule="evenodd" d="M490.5 251L490.5 1L491.5 1L491.5 251L490.5 251Z" fill="#20202E"/>
<path fill-rule="evenodd" clip-rule="evenodd" d="M500.5 251L500.5 1L501.5 1L501.5 251L500.5 251Z" fill="#20202E"/>
<path fill-rule="evenodd" clip-rule="evenodd" d="M510.5 251L510.5 1L511.5 1L511.5 251L510.5 251Z" fill="#20202E"/>
<path fill-rule="evenodd" clip-rule="evenodd" d="M520.5 251L520.5 1L521.5 1L521.5 251L520.5 251Z" fill="#20202E"/>
<path fill-rule="evenodd" clip-rule="evenodd" d="M179.969 55.9016C171.719 46.4723 162.605 45.4996 156.969 49.1068C148.692 54.4039 141.381 55.8741 135.749 56.2262C135.246 56.2576 134.698 56.2801 134.148 56.2964C133.638 57.3083 133.08 58.4408 132.458 59.7031C132.176 60.2764 131.881 60.8764 131.57 61.5041C129.033 66.6376 125.34 74.0336 121.371 78.9959C119.685 81.1022 117.472 85.6321 115.497 91.1999C114.577 93.7914 113.818 96.2959 113.272 98.3783C113.13 98.9189 113.006 99.4187 112.899 99.8732C113.341 100.423 113.934 101.129 114.736 102.065C114.906 102.263 115.084 102.47 115.269 102.685C118.078 105.947 122.546 111.137 125.443 117.575C129.844 127.355 126.99 135.915 123.911 141.42C123.785 141.645 123.657 141.868 123.528 142.088C125.306 142.825 127.266 143.605 129.468 144.48C132.88 145.838 136.871 147.425 141.657 149.44C149.782 152.861 159.121 154.81 168.143 156.202C171.341 156.696 174.322 157.096 177.198 157.482C178.401 157.643 179.585 157.802 180.759 157.964C184.466 158.476 188.378 159.059 191.554 159.895C199.309 161.936 204.596 166.307 207.64 171.841C209.113 174.519 209.902 177.275 210.338 179.38C220.704 181.396 243.429 185.457 256.057 187.677C266.646 189.497 282.824 192.122 296.954 194.089C304.043 195.076 310.484 195.878 315.402 196.335C316.023 196.393 316.61 196.445 317.162 196.489C317.283 192.853 316.885 188.914 316.617 186.262C316.597 186.065 316.578 185.876 316.56 185.694C316.125 181.343 318.09 177.1 321.691 174.619C325.291 172.137 329.956 171.811 333.867 173.766C334.804 174.235 336.517 175.195 338.302 176.196C338.574 176.348 338.847 176.501 339.119 176.653C341.397 177.928 344.177 179.478 347.107 181.048C352.983 184.198 358.327 186.805 361.324 187.809C361.342 187.785 361.36 187.759 361.379 187.733C362.097 186.746 362.831 185.638 363.831 184.127C364.188 183.588 364.579 182.998 365.016 182.343C365.781 181.195 366.499 180.124 367.174 179.118C370.013 174.888 372.084 171.801 373.645 168.923C373.495 168.79 373.346 168.656 373.196 168.522C372.724 168.101 372.247 167.675 371.769 167.25C368.289 164.15 364.313 160.643 360.133 157.21C351.22 149.888 343.225 144.496 338.154 143.024C331.452 141.078 322.331 139.677 314.426 139.092C310.5 138.801 307.19 138.735 304.874 138.845C304.77 138.85 304.669 138.856 304.573 138.861C304.556 138.879 304.539 138.897 304.522 138.916C304.291 139.162 304.032 139.441 303.751 139.743C302.931 140.624 301.935 141.696 300.97 142.686C299.657 144.034 298.022 145.631 296.255 147.033C294.72 148.251 291.957 150.255 288.411 151.141C287.711 151.316 286.998 151.427 286.279 151.474C251.979 153.705 229.288 141.721 215.092 126.233C201.386 111.281 196.395 93.9819 195.14 85.8242C194.518 81.7859 194.385 77.8286 195.275 74.1567C195.481 73.3073 195.738 72.492 196.042 71.7126C195.947 71.6268 195.851 71.5403 195.754 71.453C191.448 67.5756 185.485 62.2049 179.969 55.9016ZM302.835 139.033C302.856 139.028 302.882 139.024 302.912 139.019C302.594 139.109 302.525 139.092 302.835 139.033ZM316.658 200.511C316.658 200.51 316.661 200.502 316.668 200.485C316.662 200.503 316.658 200.511 316.658 200.511ZM111.833 98.3862C111.837 98.3875 111.87 98.44 111.918 98.5401C111.853 98.435 111.829 98.385 111.833 98.3862ZM136.122 52.6824C136.122 52.6868 136.084 52.7448 136.011 52.8432C136.085 52.7273 136.122 52.6781 136.122 52.6824ZM129.994 56.3496C129.985 56.3504 129.98 56.3507 129.98 56.3507C129.98 56.3506 129.984 56.3503 129.994 56.3496ZM144.031 28.8923C163.395 16.4995 185.282 25.5268 198.031 40.0975C202.583 45.2998 207.608 49.828 212.037 53.8194C212.183 53.9506 212.328 54.0812 212.472 54.2113C214.592 56.1224 216.862 58.1728 218.583 59.9845C219.439 60.8853 220.506 62.0833 221.424 63.4601C222.093 64.463 224 67.4254 224 71.4995C224 74.5168 223.004 77.642 220.78 80.2146C220.142 80.9523 219.473 81.5575 218.841 82.0481C218.848 82.0898 218.854 82.132 218.861 82.1748C219.606 87.0171 223.114 99.4677 232.783 110.016C241.651 119.69 256.477 128.666 282.002 127.667C282.487 127.23 283.077 126.659 283.78 125.938C284.536 125.162 285.233 124.412 285.991 123.597C286.316 123.248 286.652 122.886 287.009 122.505C287.982 121.467 289.409 119.955 290.818 118.781C293.749 116.338 297.19 115.678 298.312 115.463L298.312 115.463C300.073 115.125 301.958 114.957 303.735 114.872C307.342 114.701 311.687 114.823 316.199 115.157C325.169 115.822 336.048 117.421 344.846 119.975C355.275 123.003 366.78 131.611 375.367 138.664C379.937 142.418 384.211 146.192 387.731 149.327C388.258 149.797 388.761 150.246 389.241 150.673C392.127 153.246 394.167 155.065 395.496 156.129C399.3 159.172 400.887 164.212 399.512 168.886C396.761 178.24 391.917 185.398 387.062 192.571C386.368 193.597 385.673 194.623 384.985 195.656C384.689 196.1 384.385 196.559 384.077 197.025C382.99 198.667 381.848 200.392 380.793 201.844C379.421 203.732 377.565 206.067 375.09 208.007C372.359 210.148 369.057 211.671 365.146 212.106C361.512 212.51 358.092 211.888 355.114 211.012C350.848 209.757 345.327 207.161 340.355 204.611C340.076 205.988 339.702 207.388 339.199 208.753C337.922 212.223 334.868 217.865 328.029 219.969C325.223 220.832 322.033 220.756 320.552 220.719C318.422 220.665 315.891 220.485 313.18 220.232C307.724 219.725 300.866 218.865 293.646 217.86C279.171 215.845 262.712 213.173 251.967 211.326L251.922 211.318C237.127 208.717 204.932 202.977 199.59 201.641C198.071 201.261 195.783 200.65 193.726 199.523C192.576 198.893 190.855 197.765 189.37 195.831C187.716 193.677 186.918 191.263 186.729 188.996C186.577 187.171 186.848 185.679 186.966 185.089C186.901 184.618 186.856 184.33 186.774 183.963C186.731 183.772 186.693 183.638 186.663 183.549C186.626 183.529 186.58 183.505 186.522 183.478C186.323 183.383 185.979 183.245 185.446 183.104C183.872 182.69 181.347 182.273 177.475 181.738C176.474 181.6 175.393 181.455 174.251 181.302C171.294 180.905 167.929 180.454 164.482 179.922C154.879 178.439 143.218 176.138 132.343 171.559C128.764 170.052 125.09 168.582 121.633 167.198C116.831 165.277 112.448 163.523 109.322 162.071C106.623 160.818 103.161 159.066 100.496 156.628C99.0905 155.343 97.1558 153.202 96.0736 150.074C94.8522 146.543 95.0996 142.854 96.5344 139.626C97.2037 138.12 98.0202 136.838 98.614 135.958C99.2007 135.089 99.8491 134.211 100.354 133.527L100.416 133.443C101.576 131.872 102.359 130.786 102.964 129.704C103.541 128.674 103.665 128.133 103.69 127.945C103.691 127.943 103.691 127.94 103.692 127.936C103.7 127.898 103.723 127.794 103.557 127.424C102.146 124.287 99.7685 121.481 96.514 117.684L96.4703 117.633C95.0856 116.018 93.1862 113.802 91.7288 111.518C90.3771 109.401 88.0229 105.173 88.5596 99.8055C88.955 95.8519 90.7159 89.2687 92.8785 83.1741C95.0277 77.117 98.3147 69.3969 102.63 64.0032C104.66 61.4655 107.217 56.6114 110.055 50.87C110.31 50.3535 110.569 49.8277 110.829 49.2992C111.862 47.2008 112.915 45.0621 113.84 43.3146C114.425 42.2097 115.084 41.02 115.772 39.9433C116.238 39.2142 117.511 37.223 119.504 35.6291C121.879 33.729 124.355 33.0252 125.897 32.7216C127.426 32.4207 128.839 32.3663 129.69 32.3465C130.715 32.3227 131.364 32.3267 131.914 32.3302C132.648 32.3347 133.206 32.3382 134.252 32.2729C136.619 32.125 139.808 31.5951 144.031 28.8923ZM280.959 128.507C280.959 128.505 280.992 128.482 281.055 128.445C280.99 128.491 280.959 128.509 280.959 128.507Z" fill="white"/>
<path fill-rule="evenodd" clip-rule="evenodd" d="M187.119 49.6461C177.087 38.1817 162.918 34.0207 151.848 41.1056C145.176 45.3758 139.496 46.4738 135.156 46.745C133.752 46.8328 132.38 46.8336 131.294 46.8343C130.806 46.8346 130.376 46.8348 130.027 46.843C129.392 46.8577 128.979 46.8936 128.698 46.9489C128.622 46.9639 128.568 46.9779 128.533 46.9885C128.463 47.0711 128.283 47.2931 127.991 47.7513C127.616 48.3377 127.17 49.1259 126.655 50.0993C125.84 51.6384 124.916 53.515 123.895 55.5886C123.622 56.1442 123.341 56.7139 123.054 57.2951C120.398 62.6693 117.154 69.0591 113.952 73.0616C111.226 76.4692 108.588 82.2619 106.544 88.0234C104.502 93.7771 103.207 99.0515 102.988 101.249C102.949 101.641 103.1 102.384 103.951 103.717C104.777 105.011 106 106.471 107.523 108.248C107.66 108.407 107.799 108.569 107.939 108.733C110.828 112.096 114.468 116.336 116.78 121.474C119.478 127.47 117.894 132.717 115.62 136.783C114.512 138.764 113.2 140.541 112.117 142.007L112.082 142.055C110.958 143.578 110.205 144.619 109.827 145.424C109.838 145.442 109.853 145.463 109.87 145.487C109.949 145.595 110.078 145.743 110.281 145.928C111.161 146.733 112.818 147.708 115.428 148.92C118.339 150.271 121.995 151.729 126.34 153.462C129.791 154.839 133.677 156.388 137.97 158.196C147.184 162.075 157.442 164.163 166.694 165.592C169.99 166.1 173.12 166.52 176.032 166.911C177.212 167.069 178.355 167.222 179.459 167.375C183.231 167.896 186.595 168.413 189.136 169.082C194.513 170.497 197.593 173.288 199.316 176.42C200.799 179.116 201.177 181.937 201.406 183.643C201.43 183.824 201.453 183.992 201.475 184.146C201.651 185.376 201.52 186.357 201.372 187.083C201.759 187.214 202.316 187.377 203.107 187.575C207.793 188.746 239.186 194.357 254.431 197.037C265.081 198.868 281.374 201.512 295.645 203.499C302.785 204.493 309.392 205.318 314.522 205.795C317.091 206.034 319.255 206.182 320.915 206.224C321.747 206.245 322.42 206.238 322.938 206.207C323.196 206.192 323.397 206.172 323.548 206.15C323.694 206.13 323.758 206.112 323.765 206.111C323.765 206.11 323.765 206.11 323.765 206.11C324.304 205.945 324.989 205.383 325.591 203.746C326.182 202.141 326.508 199.965 326.628 197.503C326.849 192.967 326.352 188.089 326.075 185.364C326.052 185.144 326.032 184.939 326.013 184.749C325.922 183.842 326.331 182.958 327.081 182.441C327.832 181.924 328.803 181.856 329.618 182.264C330.336 182.623 331.809 183.448 333.672 184.491C333.934 184.638 334.203 184.789 334.479 184.943C336.766 186.223 339.609 187.808 342.619 189.422C348.723 192.694 355.246 195.937 359.206 197.101C361.153 197.674 362.517 197.809 363.544 197.695C364.514 197.587 365.317 197.244 366.145 196.595C367.027 195.904 367.943 194.861 369.064 193.319C369.913 192.15 370.805 190.803 371.852 189.222C372.19 188.711 372.545 188.175 372.92 187.613C373.672 186.485 374.396 185.41 375.091 184.378C379.663 177.587 382.995 172.638 385.11 166.354C383.594 165.068 381.697 163.376 379.556 161.465C379.078 161.039 378.588 160.602 378.087 160.156C374.592 157.042 370.498 153.43 366.163 149.869C357.379 142.654 347.995 135.989 340.803 133.901C333.271 131.714 323.454 130.235 315.128 129.618C310.97 129.31 307.25 129.222 304.423 129.356C303.005 129.424 301.871 129.545 301.044 129.703C300.304 129.845 300.05 129.976 300.046 129.967C300.046 129.967 300.046 129.967 300.046 129.967C299.438 130.482 298.621 131.32 297.59 132.42C297.313 132.716 297.023 133.028 296.723 133.351C295.92 134.214 295.046 135.153 294.166 136.057C292.952 137.303 291.647 138.563 290.351 139.591C289.103 140.581 287.637 141.543 286.106 141.925C285.961 141.962 285.812 141.985 285.662 141.995C254.173 144.043 234.305 133.134 222.095 119.814C209.987 106.605 205.582 91.2254 204.529 84.38C203.488 77.6118 204.607 73.9823 207.25 71.9999C207.802 71.5861 208.466 71.247 208.99 71.0079C208.755 70.717 208.452 70.3731 208.07 69.9718C206.815 68.65 205.003 67.0003 202.764 64.9818C202.573 64.8098 202.379 64.6355 202.183 64.4588C197.841 60.5468 192.251 55.5119 187.119 49.6461ZM200.655 186.785C200.656 186.785 200.657 186.786 200.661 186.788C200.656 186.786 200.655 186.784 200.655 186.785ZM149.152 36.8942C163.082 27.979 179.913 33.8181 190.882 46.3536C195.813 51.99 201.207 56.8495 205.575 60.7846C205.756 60.9473 205.934 61.1084 206.111 61.268C208.31 63.2494 210.279 65.0373 211.695 66.528C212.403 67.2723 213.044 68.0167 213.522 68.7334C213.948 69.3722 214.5 70.3542 214.5 71.4999C214.5 72.4254 214.206 73.2929 213.594 74.0005C213.059 74.6189 212.409 74.9591 212.01 75.1487C211.607 75.3401 211.326 75.4561 211.103 75.5477C210.751 75.6926 210.548 75.7762 210.25 75.9999C209.893 76.2675 208.512 77.388 209.471 83.6197C210.418 89.7744 214.514 104.144 225.781 116.436C236.912 128.579 255.217 138.895 285.067 137.022C285.546 136.857 286.272 136.444 287.243 135.674C288.291 134.843 289.423 133.76 290.585 132.568C291.421 131.709 292.233 130.836 293.022 129.987C293.332 129.654 293.638 129.325 293.941 129.001C294.973 127.901 296.012 126.819 296.9 126.079C297.807 125.323 299.087 124.988 300.102 124.793C301.251 124.572 302.644 124.435 304.186 124.362C307.282 124.215 311.217 124.315 315.497 124.632C324.046 125.265 334.229 126.786 342.197 129.099C350.505 131.511 360.621 138.846 369.337 146.006C373.753 149.633 377.909 153.301 381.413 156.422C381.924 156.877 382.419 157.319 382.898 157.746C385.741 160.282 388.015 162.31 389.562 163.548C390.354 164.182 390.685 165.232 390.399 166.205C388.092 174.047 384.136 179.913 379.229 187.187C378.532 188.222 377.815 189.285 377.08 190.387C376.734 190.905 376.398 191.414 376.069 191.91C375.005 193.517 374.028 194.993 373.108 196.259C371.901 197.92 370.661 199.408 369.23 200.53C367.745 201.693 366.08 202.444 364.097 202.664C362.171 202.878 360.097 202.576 357.795 201.898C353.254 200.563 346.277 197.056 340.256 193.828C337.204 192.192 334.328 190.589 332.037 189.306C331.828 189.189 331.624 189.076 331.427 188.965C331.625 191.567 331.77 194.713 331.622 197.747C331.492 200.41 331.131 203.171 330.284 205.473C329.449 207.742 327.947 210.055 325.235 210.889C324.136 211.228 322.477 211.264 320.79 211.222C318.968 211.176 316.677 211.017 314.059 210.774C308.817 210.286 302.123 209.449 294.955 208.451C280.612 206.454 264.26 203.8 253.577 201.964L253.567 201.962C238.478 199.309 206.807 193.653 201.894 192.425C200.39 192.049 199.171 191.675 198.291 191.192C197.826 190.937 197.314 190.579 196.905 190.046C196.461 189.467 196.248 188.828 196.196 188.208C196.15 187.658 196.237 187.173 196.295 186.886C196.325 186.739 196.359 186.591 196.386 186.474L196.389 186.46C196.419 186.331 196.444 186.224 196.467 186.115C196.549 185.721 196.595 185.344 196.525 184.853C196.501 184.683 196.477 184.511 196.453 184.337C196.21 182.583 195.944 180.666 194.935 178.83C193.907 176.962 191.988 175.003 187.864 173.918C185.656 173.336 182.581 172.854 178.775 172.328C177.707 172.18 176.585 172.03 175.418 171.873C172.49 171.481 169.279 171.05 165.931 170.533C156.558 169.086 145.816 166.925 136.03 162.804C131.988 161.102 128.169 159.577 124.708 158.195C120.203 156.396 116.306 154.84 113.322 153.455C110.682 152.229 108.402 150.986 106.907 149.618C106.144 148.921 105.425 148.049 105.052 146.969C104.649 145.804 104.719 144.602 105.216 143.485C105.829 142.105 106.937 140.605 107.943 139.242C107.982 139.19 108.021 139.137 108.059 139.085C109.173 137.577 110.313 136.027 111.256 134.342C113.106 131.033 114.022 127.53 112.22 123.526C110.212 119.062 106.995 115.312 104.023 111.847C103.924 111.731 103.825 111.617 103.727 111.502C102.25 109.779 100.786 108.051 99.7366 106.407C98.7128 104.804 97.8017 102.859 98.0125 100.751C98.2928 97.9483 99.7482 92.2226 101.832 86.3514C103.912 80.4879 106.774 74.0306 110.048 69.9382C112.846 66.4407 115.853 60.5805 118.571 55.0797C118.847 54.5216 119.12 53.9673 119.389 53.421C120.415 51.3371 121.383 49.3706 122.236 47.7599C122.775 46.7411 123.295 45.8145 123.777 45.059C124.214 44.376 124.776 43.5777 125.438 43.0477C126.181 42.4539 127.018 42.1836 127.732 42.0431C128.443 41.9031 129.202 41.8608 129.911 41.8443C130.465 41.8314 131 41.8319 131.547 41.8323C132.542 41.8331 133.577 41.834 134.844 41.7548C138.504 41.526 143.325 40.624 149.152 36.8942Z" fill="black"/>
</svg>
