<svg width="522" height="252" viewBox="0 0 522 252" fill="none" xmlns="http://www.w3.org/2000/svg">
<path fill-rule="evenodd" clip-rule="evenodd" d="M521 1.5H1V0.5H521V1.5Z" fill="#20202E"/>
<path fill-rule="evenodd" clip-rule="evenodd" d="M521 11.5H1V10.5H521V11.5Z" fill="#20202E"/>
<path fill-rule="evenodd" clip-rule="evenodd" d="M521 21.5H1V20.5H521V21.5Z" fill="#20202E"/>
<path fill-rule="evenodd" clip-rule="evenodd" d="M521 31.5H1V30.5H521V31.5Z" fill="#20202E"/>
<path fill-rule="evenodd" clip-rule="evenodd" d="M521 41.5H1V40.5H521V41.5Z" fill="#20202E"/>
<path fill-rule="evenodd" clip-rule="evenodd" d="M521 51.5H1V50.5H521V51.5Z" fill="#20202E"/>
<path fill-rule="evenodd" clip-rule="evenodd" d="M521 61.5H1V60.5H521V61.5Z" fill="#20202E"/>
<path fill-rule="evenodd" clip-rule="evenodd" d="M521 71.5H1V70.5H521V71.5Z" fill="#20202E"/>
<path fill-rule="evenodd" clip-rule="evenodd" d="M521 81.5H1V80.5H521V81.5Z" fill="#20202E"/>
<path fill-rule="evenodd" clip-rule="evenodd" d="M521 91.5H1V90.5H521V91.5Z" fill="#20202E"/>
<path fill-rule="evenodd" clip-rule="evenodd" d="M521 101.5H1V100.5H521V101.5Z" fill="#20202E"/>
<path fill-rule="evenodd" clip-rule="evenodd" d="M521 111.5H1V110.5H521V111.5Z" fill="#20202E"/>
<path fill-rule="evenodd" clip-rule="evenodd" d="M521 121.5H1V120.5H521V121.5Z" fill="#20202E"/>
<path fill-rule="evenodd" clip-rule="evenodd" d="M521 131.5H1V130.5H521V131.5Z" fill="#20202E"/>
<path fill-rule="evenodd" clip-rule="evenodd" d="M521 141.5H1V140.5H521V141.5Z" fill="#20202E"/>
<path fill-rule="evenodd" clip-rule="evenodd" d="M521 151.5H1V150.5H521V151.5Z" fill="#20202E"/>
<path fill-rule="evenodd" clip-rule="evenodd" d="M521 161.5H1V160.5H521V161.5Z" fill="#20202E"/>
<path fill-rule="evenodd" clip-rule="evenodd" d="M521 171.5H1V170.5H521V171.5Z" fill="#20202E"/>
<path fill-rule="evenodd" clip-rule="evenodd" d="M521 181.5H1V180.5H521V181.5Z" fill="#20202E"/>
<path fill-rule="evenodd" clip-rule="evenodd" d="M521 191.5H1V190.5H521V191.5Z" fill="#20202E"/>
<path fill-rule="evenodd" clip-rule="evenodd" d="M521 201.5H1V200.5H521V201.5Z" fill="#20202E"/>
<path fill-rule="evenodd" clip-rule="evenodd" d="M521 211.5H1V210.5H521V211.5Z" fill="#20202E"/>
<path fill-rule="evenodd" clip-rule="evenodd" d="M521 221.5H1V220.5H521V221.5Z" fill="#20202E"/>
<path fill-rule="evenodd" clip-rule="evenodd" d="M521 231.5H1V230.5H521V231.5Z" fill="#20202E"/>
<path fill-rule="evenodd" clip-rule="evenodd" d="M521 241.5H1V240.5H521V241.5Z" fill="#20202E"/>
<path fill-rule="evenodd" clip-rule="evenodd" d="M521 251.5H1V250.5H521V251.5Z" fill="#20202E"/>
<path fill-rule="evenodd" clip-rule="evenodd" d="M0.5 251L0.5 1L1.5 1L1.5 251L0.5 251Z" fill="#20202E"/>
<path fill-rule="evenodd" clip-rule="evenodd" d="M10.5 251L10.5 1L11.5 1L11.5 251L10.5 251Z" fill="#20202E"/>
<path fill-rule="evenodd" clip-rule="evenodd" d="M20.5 251L20.5 1L21.5 1L21.5 251L20.5 251Z" fill="#20202E"/>
<path fill-rule="evenodd" clip-rule="evenodd" d="M30.5 251L30.5 1L31.5 1L31.5 251L30.5 251Z" fill="#20202E"/>
<path fill-rule="evenodd" clip-rule="evenodd" d="M40.5 251L40.5 1L41.5 1L41.5 251L40.5 251Z" fill="#20202E"/>
<path fill-rule="evenodd" clip-rule="evenodd" d="M50.5 251L50.5 1L51.5 1L51.5 251L50.5 251Z" fill="#20202E"/>
<path fill-rule="evenodd" clip-rule="evenodd" d="M60.5 251L60.5 1L61.5 1L61.5 251L60.5 251Z" fill="#20202E"/>
<path fill-rule="evenodd" clip-rule="evenodd" d="M70.5 251L70.5 1L71.5 1L71.5 251L70.5 251Z" fill="#20202E"/>
<path fill-rule="evenodd" clip-rule="evenodd" d="M80.5 251L80.5 1L81.5 1L81.5 251L80.5 251Z" fill="#20202E"/>
<path fill-rule="evenodd" clip-rule="evenodd" d="M90.5 251L90.5 1L91.5 1L91.5 251L90.5 251Z" fill="#20202E"/>
<path fill-rule="evenodd" clip-rule="evenodd" d="M100.5 251L100.5 1L101.5 1L101.5 251L100.5 251Z" fill="#20202E"/>
<path fill-rule="evenodd" clip-rule="evenodd" d="M110.5 251L110.5 1L111.5 1L111.5 251L110.5 251Z" fill="#20202E"/>
<path fill-rule="evenodd" clip-rule="evenodd" d="M120.5 251L120.5 1L121.5 1L121.5 251L120.5 251Z" fill="#20202E"/>
<path fill-rule="evenodd" clip-rule="evenodd" d="M130.5 251L130.5 1L131.5 1L131.5 251L130.5 251Z" fill="#20202E"/>
<path fill-rule="evenodd" clip-rule="evenodd" d="M140.5 251L140.5 1L141.5 1L141.5 251L140.5 251Z" fill="#20202E"/>
<path fill-rule="evenodd" clip-rule="evenodd" d="M150.5 251L150.5 1L151.5 1L151.5 251L150.5 251Z" fill="#20202E"/>
<path fill-rule="evenodd" clip-rule="evenodd" d="M160.5 251L160.5 1L161.5 1L161.5 251L160.5 251Z" fill="#20202E"/>
<path fill-rule="evenodd" clip-rule="evenodd" d="M170.5 251L170.5 1L171.5 1L171.5 251L170.5 251Z" fill="#20202E"/>
<path fill-rule="evenodd" clip-rule="evenodd" d="M180.5 251L180.5 1L181.5 1L181.5 251L180.5 251Z" fill="#20202E"/>
<path fill-rule="evenodd" clip-rule="evenodd" d="M190.5 251L190.5 1L191.5 1L191.5 251L190.5 251Z" fill="#20202E"/>
<path fill-rule="evenodd" clip-rule="evenodd" d="M200.5 251L200.5 1L201.5 1L201.5 251L200.5 251Z" fill="#20202E"/>
<path fill-rule="evenodd" clip-rule="evenodd" d="M210.5 251L210.5 1L211.5 1L211.5 251L210.5 251Z" fill="#20202E"/>
<path fill-rule="evenodd" clip-rule="evenodd" d="M220.5 251L220.5 1L221.5 1L221.5 251L220.5 251Z" fill="#20202E"/>
<path fill-rule="evenodd" clip-rule="evenodd" d="M230.5 251L230.5 1L231.5 1L231.5 251L230.5 251Z" fill="#20202E"/>
<path fill-rule="evenodd" clip-rule="evenodd" d="M240.5 251L240.5 1L241.5 1L241.5 251L240.5 251Z" fill="#20202E"/>
<path fill-rule="evenodd" clip-rule="evenodd" d="M250.5 251L250.5 1L251.5 1L251.5 251L250.5 251Z" fill="#20202E"/>
<path fill-rule="evenodd" clip-rule="evenodd" d="M260.5 251L260.5 1L261.5 1L261.5 251L260.5 251Z" fill="#20202E"/>
<path fill-rule="evenodd" clip-rule="evenodd" d="M270.5 251L270.5 1L271.5 1L271.5 251L270.5 251Z" fill="#20202E"/>
<path fill-rule="evenodd" clip-rule="evenodd" d="M280.5 251L280.5 1L281.5 1L281.5 251L280.5 251Z" fill="#20202E"/>
<path fill-rule="evenodd" clip-rule="evenodd" d="M290.5 251L290.5 1L291.5 1L291.5 251L290.5 251Z" fill="#20202E"/>
<path fill-rule="evenodd" clip-rule="evenodd" d="M300.5 251L300.5 1L301.5 1L301.5 251L300.5 251Z" fill="#20202E"/>
<path fill-rule="evenodd" clip-rule="evenodd" d="M310.5 251L310.5 1L311.5 1L311.5 251L310.5 251Z" fill="#20202E"/>
<path fill-rule="evenodd" clip-rule="evenodd" d="M320.5 251L320.5 1L321.5 1L321.5 251L320.5 251Z" fill="#20202E"/>
<path fill-rule="evenodd" clip-rule="evenodd" d="M330.5 251L330.5 1L331.5 1L331.5 251L330.5 251Z" fill="#20202E"/>
<path fill-rule="evenodd" clip-rule="evenodd" d="M340.5 251L340.5 1L341.5 1L341.5 251L340.5 251Z" fill="#20202E"/>
<path fill-rule="evenodd" clip-rule="evenodd" d="M350.5 251L350.5 1L351.5 1L351.5 251L350.5 251Z" fill="#20202E"/>
<path fill-rule="evenodd" clip-rule="evenodd" d="M360.5 251L360.5 1L361.5 1L361.5 251L360.5 251Z" fill="#20202E"/>
<path fill-rule="evenodd" clip-rule="evenodd" d="M370.5 251L370.5 1L371.5 1L371.5 251L370.5 251Z" fill="#20202E"/>
<path fill-rule="evenodd" clip-rule="evenodd" d="M380.5 251L380.5 1L381.5 1L381.5 251L380.5 251Z" fill="#20202E"/>
<path fill-rule="evenodd" clip-rule="evenodd" d="M390.5 251L390.5 1L391.5 1L391.5 251L390.5 251Z" fill="#20202E"/>
<path fill-rule="evenodd" clip-rule="evenodd" d="M400.5 251L400.5 1L401.5 1L401.5 251L400.5 251Z" fill="#20202E"/>
<path fill-rule="evenodd" clip-rule="evenodd" d="M410.5 251L410.5 1L411.5 1L411.5 251L410.5 251Z" fill="#20202E"/>
<path fill-rule="evenodd" clip-rule="evenodd" d="M420.5 251L420.5 1L421.5 1L421.5 251L420.5 251Z" fill="#20202E"/>
<path fill-rule="evenodd" clip-rule="evenodd" d="M430.5 251L430.5 1L431.5 1L431.5 251L430.5 251Z" fill="#20202E"/>
<path fill-rule="evenodd" clip-rule="evenodd" d="M440.5 251L440.5 1L441.5 1L441.5 251L440.5 251Z" fill="#20202E"/>
<path fill-rule="evenodd" clip-rule="evenodd" d="M450.5 251L450.5 1L451.5 1L451.5 251L450.5 251Z" fill="#20202E"/>
<path fill-rule="evenodd" clip-rule="evenodd" d="M460.5 251L460.5 1L461.5 1L461.5 251L460.5 251Z" fill="#20202E"/>
<path fill-rule="evenodd" clip-rule="evenodd" d="M470.5 251L470.5 1L471.5 1L471.5 251L470.5 251Z" fill="#20202E"/>
<path fill-rule="evenodd" clip-rule="evenodd" d="M480.5 251L480.5 1L481.5 1L481.5 251L480.5 251Z" fill="#20202E"/>
<path fill-rule="evenodd" clip-rule="evenodd" d="M490.5 251L490.5 1L491.5 1L491.5 251L490.5 251Z" fill="#20202E"/>
<path fill-rule="evenodd" clip-rule="evenodd" d="M500.5 251L500.5 1L501.5 1L501.5 251L500.5 251Z" fill="#20202E"/>
<path fill-rule="evenodd" clip-rule="evenodd" d="M510.5 251L510.5 1L511.5 1L511.5 251L510.5 251Z" fill="#20202E"/>
<path fill-rule="evenodd" clip-rule="evenodd" d="M520.5 251L520.5 1L521.5 1L521.5 251L520.5 251Z" fill="#20202E"/>
<path fill-rule="evenodd" clip-rule="evenodd" d="M237.414 113.86C239.541 115.462 241.7 117.086 243.845 118.701C254.726 126.887 265.285 134.831 269.873 138.53C276.336 143.378 289.094 152.995 297.852 159.74C298.498 158.493 299.284 157.279 300.237 156.122C304.844 150.527 311.266 148.748 316.512 148.093C320.436 147.602 324.72 148.008 328.757 150.561C331.45 152.264 333.555 154.815 334.293 155.708C334.374 155.807 334.439 155.886 334.486 155.941L334.559 156.026C335.87 157.557 337.815 159.829 344.069 162.404C349.764 164.749 353.89 164.291 356.803 163.4C359.364 162.617 360.82 161.696 362.604 160.568C362.751 160.475 362.901 160.381 363.054 160.285C362.483 160.08 361.885 159.865 361.26 159.641C354.32 157.149 344.098 153.479 333.064 149.371C324.454 146.166 315.572 142.773 308.013 139.689C300.742 136.722 293.864 133.713 289.826 131.29C285.976 128.98 283.028 126.663 280.698 124.309C280.082 123.687 279.527 123.08 279.026 122.495C277.535 123.889 275.18 125.852 271.957 127.142C266.713 129.239 260.711 129.369 255.496 126.141C252.102 124.039 249.959 121.068 248.745 118.154C246.649 117.361 242.671 115.853 237.414 113.86ZM378.482 203.225C377.984 203.84 377.527 204.428 377.115 204.988C377.2 205.016 377.288 205.043 377.378 205.071C377.451 205.008 377.53 204.937 377.613 204.855C377.829 204.644 378.041 204.401 378.232 204.145C378.332 204.009 378.418 203.882 378.49 203.767C378.487 203.596 378.485 203.415 378.482 203.225ZM294.928 175.733C294.928 175.733 294.929 175.722 294.932 175.701C294.93 175.722 294.928 175.733 294.928 175.733ZM108.606 42.8958C108.58 42.8926 108.568 42.8906 108.569 42.8904C108.569 42.8902 108.582 42.8918 108.606 42.8958ZM111.488 50.1666C111.488 50.1657 111.507 50.1732 111.548 50.1918C111.509 50.1768 111.489 50.1675 111.488 50.1666ZM112.522 26.5218C116.494 26.2828 119.9 27.5334 122.367 28.767C130.03 32.5986 139.543 40.4146 142.182 52.2506C148.897 54.635 215.35 79.828 244.838 91.0068C252.722 93.9959 257.964 95.983 258.714 96.2642C260.787 97.0416 263.971 98.3412 266.621 100.958C269.509 98.3249 275.044 94.342 282.973 95.6634C286.57 96.2628 289.93 97.7592 292.694 100.584C294.444 102.373 295.871 104.822 296.193 105.373C296.224 105.426 296.244 105.462 296.254 105.477C296.274 105.51 296.295 105.544 296.317 105.578C296.875 106.484 297.901 108.146 302.174 110.71C304.387 112.038 309.57 114.403 317.081 117.468C324.304 120.415 332.921 123.709 341.437 126.879C351.683 130.694 362.155 134.46 369.4 137.066C373.862 138.671 377.1 139.835 378.308 140.3C383.423 142.267 389.321 146.186 393.986 151.628C398.753 157.19 402.899 165.174 402.49 175C402.133 183.554 402.303 192.816 402.42 199.232C402.464 201.603 402.5 203.586 402.5 205C402.5 208.826 401.156 212.245 399.912 214.621C398.55 217.222 396.67 219.789 394.387 222.02C390.085 226.225 382.248 231.056 372.59 228.642C367.469 227.362 361.685 224.968 357.393 220.549C352.489 215.501 350.13 208.274 352.531 200.471C353.592 197.021 355.525 193.942 357.112 191.696C358.206 190.146 359.404 188.624 360.587 187.197C353.422 188.761 344.712 188.624 334.931 184.596C326.93 181.302 322.203 177.687 318.996 174.515C318.974 176.533 318.849 179.23 318.152 181.66C317.719 183.172 316.657 186.11 313.86 188.522C310.565 191.362 306.678 191.968 303.633 191.602C301.064 191.294 299.054 190.318 297.984 189.744C296.779 189.098 295.665 188.347 294.752 187.695C293.214 186.596 291.366 185.134 289.466 183.631C289.166 183.394 288.865 183.156 288.564 182.919C281.104 177.029 263.332 163.624 255.3 157.6L255.122 157.467L254.95 157.327C250.83 153.992 240.65 146.332 229.625 138.037C227.178 136.195 224.69 134.323 222.216 132.459C215.499 127.397 208.96 122.451 203.903 118.541C201.38 116.591 199.167 114.853 197.461 113.465C196.468 112.658 194.992 111.458 193.803 110.282C193.401 110.268 192.872 110.26 192.185 110.265C190.535 110.279 188.438 110.362 185.521 110.489C173.082 111.03 162.189 109.66 153.515 100.986C153.518 100.989 153.516 100.987 153.51 100.981C153.463 100.939 153.155 100.664 152.436 100.146C151.676 99.5982 150.682 98.9389 149.458 98.1785C147.006 96.6553 143.974 94.9394 140.719 93.175C136.514 90.8958 132.726 88.946 129.39 87.229C127.175 86.089 125.159 85.0516 123.353 84.0885C123.169 83.99 122.977 83.8884 122.781 83.784C121.291 82.9928 119.496 82.0399 118.029 81.0791C116.198 79.8803 113.642 77.9152 111.823 74.6404C110.301 71.9016 109.81 69.1787 109.668 66.9743C108.339 66.9431 106.999 66.8749 105.768 66.7276L105.753 66.7257C104.272 66.5484 99.4541 65.9715 95.8081 62.0823C91.1184 57.0798 92.0321 51.114 92.6319 48.7147C93.2461 46.2579 94.4106 43.8464 95.267 42.1335C95.4262 41.8153 95.5954 41.4735 95.772 41.117C96.4155 39.8176 97.1555 38.3234 97.853 37.0633C98.7293 35.4802 100.134 33.127 102.252 31.0935C104.673 28.7696 108.112 26.787 112.522 26.5218ZM139.618 51.3901C139.615 51.3889 139.614 51.3883 139.614 51.3883C139.614 51.3883 139.614 51.3887 139.616 51.3894C139.617 51.3896 139.617 51.3898 139.618 51.3901Z" fill="white"/>
<path fill-rule="evenodd" clip-rule="evenodd" d="M108.876 47.3315C108.673 47.7409 108.461 48.1692 108.236 48.618C107.37 50.3509 106.896 51.4652 106.707 52.2C106.89 52.2418 107.145 52.2887 107.493 52.3303C108.627 52.4661 110.231 52.5001 112.5 52.5001C113.201 52.5001 113.87 52.4969 114.503 52.4938C115.84 52.4873 117.018 52.4815 117.992 52.5089C119.369 52.5476 120.791 52.6509 121.947 53.1237C122.585 53.3847 123.221 53.7868 123.736 54.4107C124.251 55.0359 124.525 55.7401 124.658 56.4235C124.891 57.6315 124.717 59.0159 124.477 60.3534C124.231 62.6984 124.097 64.3058 124.117 65.5129C124.137 66.7091 124.31 67.26 124.498 67.5985C124.685 67.9358 125.04 68.3382 125.971 68.9475C126.844 69.5189 127.992 70.1305 129.633 71.0046C129.809 71.0981 129.99 71.1945 130.177 71.2942C131.525 72.0134 133.389 72.9749 135.543 74.0854C139.12 75.9301 143.495 78.1863 147.629 80.4272C150.991 82.2498 154.306 84.1201 157.108 85.8608C159.856 87.5676 162.295 89.2597 163.768 90.7323C168.002 94.9669 173.587 96.4938 184.892 96.0023C190.528 95.7573 194.327 95.6074 197.068 96.029C198.514 96.2516 199.781 96.6448 200.949 97.3212C202.109 97.9932 203.037 98.8683 203.898 99.873C203.898 99.8725 203.902 99.878 203.914 99.89C203.925 99.9018 203.94 99.918 203.96 99.9388C204.002 99.981 204.057 100.036 204.129 100.104C204.273 100.241 204.464 100.413 204.704 100.623C205.184 101.042 205.822 101.576 206.607 102.214C208.177 103.49 210.281 105.144 212.771 107.069C217.75 110.918 224.223 115.816 230.942 120.878C233.352 122.695 235.796 124.533 238.214 126.353C249.21 134.625 259.673 142.498 264.037 146.028C272.049 152.037 289.932 165.524 297.549 171.538C297.873 171.793 298.185 172.04 298.488 172.279C300.437 173.82 301.956 175.021 303.18 175.895C303.648 176.23 304.045 176.496 304.38 176.702C304.457 175.981 304.5 174.948 304.5 173.5C304.5 168.81 305.263 164.963 307.57 162.161C309.916 159.313 313.43 158.052 317.69 157.519C320.091 157.219 321.998 157.526 323.68 158.59C324.972 159.407 326.012 160.636 326.919 161.706C327.039 161.848 327.157 161.988 327.273 162.123C329.328 164.52 332.395 167.871 340.452 171.188C348.367 174.448 354.769 173.956 359.581 172.484C363.45 171.301 366.228 169.54 368.238 168.266C368.804 167.907 369.308 167.587 369.76 167.329C373.875 164.978 379.151 165.059 381.644 169.214C382.672 170.928 383.359 173.619 383.497 176.309C383.636 179.019 383.246 182.224 381.62 184.825C380.867 186.03 379.568 187.558 378.179 189.131C377.6 189.787 377 190.456 376.383 191.144C375.438 192.198 374.455 193.295 373.45 194.452C371.813 196.336 370.236 198.247 368.956 200.059C367.654 201.904 366.772 203.491 366.389 204.735C365.681 207.037 366.247 208.854 367.793 210.446C369.467 212.168 372.34 213.633 376.106 214.575C378.927 215.28 381.826 214.021 384.253 211.65C385.439 210.491 386.406 209.156 387.066 207.895C387.751 206.587 388 205.562 388 205C388 203.917 387.969 202.223 387.93 200.103C387.813 193.712 387.625 183.451 388.002 174.396C388.219 169.193 386.062 164.664 382.977 161.065C379.871 157.441 375.964 154.934 373.103 153.833C371.867 153.358 368.779 152.249 364.484 150.706C357.423 148.169 347.099 144.459 336.378 140.468C327.806 137.277 319.028 133.923 311.602 130.893C304.237 127.887 298.029 125.133 294.714 123.144C288.086 119.167 285.562 115.743 283.939 113.132C283.752 112.831 283.591 112.568 283.449 112.336C282.952 111.522 282.688 111.091 282.33 110.725C282.047 110.436 281.652 110.143 280.589 109.966C278.893 109.683 277.575 110.461 275.643 112.393C275.341 112.695 274.984 113.069 274.601 113.469C273.953 114.148 273.233 114.902 272.587 115.51C271.46 116.568 270.099 117.653 268.429 118.321C265.357 119.55 262.622 119.379 260.497 118.063C258.477 116.813 257.404 114.769 257.049 112.99C256.805 111.772 256.652 111.513 256.47 111.314C256.211 111.032 255.577 110.574 253.622 109.841C252.714 109.5 246.659 107.205 237.744 103.825C206.624 92.028 140.663 67.0228 137.209 65.8717C136.946 65.784 136.678 65.6967 136.409 65.6093C135.64 65.3591 134.868 65.1083 134.208 64.8431C133.253 64.4592 132.283 63.9563 131.408 63.1301C129.676 61.4943 128.811 59.0497 128.056 55.5239C126.777 49.559 121.525 44.5575 115.882 41.7361C114.584 41.0868 113.82 40.9697 113.392 40.9955C113.056 41.0157 112.734 41.1314 112.294 41.5535C111.791 42.0361 111.234 42.8297 110.539 44.0858C110.018 45.0263 109.49 46.0927 108.876 47.3315ZM304.161 177.815C304.161 177.815 304.163 177.811 304.166 177.804C304.163 177.812 304.161 177.815 304.161 177.815ZM106.627 52.657C106.626 52.6573 106.626 52.6512 106.626 52.6377C106.627 52.6499 106.627 52.6566 106.627 52.657ZM113.092 36.0045C114.742 35.9053 116.417 36.4132 118.118 37.2639C124.475 40.4425 131.223 46.4414 132.945 54.4763C133.689 57.9505 134.324 59.0058 134.842 59.495C135.092 59.7313 135.434 59.9472 136.073 60.2038C136.565 60.4014 137.094 60.5737 137.789 60.7997C138.089 60.8971 138.419 61.0045 138.791 61.1283C142.358 62.3176 209.379 87.7248 240.206 99.4111C248.759 102.654 254.526 104.84 255.378 105.159C257.423 105.926 259.039 106.718 260.155 107.936C261.348 109.237 261.695 110.728 261.951 112.01C262.096 112.731 262.523 113.437 263.128 113.812C263.628 114.121 264.643 114.45 266.572 113.679C267.401 113.347 268.227 112.745 269.163 111.865C269.759 111.306 270.252 110.786 270.789 110.22C271.185 109.803 271.605 109.36 272.107 108.857C274.175 106.789 277.107 104.317 281.411 105.034C283.348 105.357 284.765 106.064 285.904 107.228C286.701 108.042 287.336 109.092 287.867 109.97C287.978 110.153 288.084 110.328 288.186 110.493C289.438 112.507 291.414 115.333 297.286 118.856C300.221 120.617 306.076 123.238 313.491 126.263C320.847 129.265 329.57 132.598 338.122 135.782C348.68 139.712 359.056 143.442 366.181 146.003C370.533 147.567 373.671 148.695 374.897 149.167C378.536 150.566 383.129 153.56 386.773 157.811C390.438 162.086 393.281 167.807 392.998 174.604C392.628 183.482 392.809 193.389 392.927 199.8C392.967 202.011 393 203.806 393 205C393 206.688 392.374 208.538 391.496 210.214C390.594 211.938 389.312 213.697 387.747 215.225C384.674 218.229 380.073 220.72 374.894 219.425C370.66 218.367 366.783 216.582 364.207 213.929C361.503 211.146 360.319 207.463 361.611 203.265C362.228 201.259 363.471 199.159 364.872 197.175C366.295 195.16 368 193.102 369.675 191.173C370.691 190.004 371.741 188.832 372.715 187.745C373.326 187.064 373.906 186.416 374.431 185.822C375.87 184.192 376.883 182.97 377.38 182.175C378.254 180.776 378.614 178.731 378.503 176.566C378.391 174.381 377.828 172.572 377.356 171.786C376.849 170.941 375.125 170.022 372.24 171.671C371.974 171.823 371.617 172.051 371.176 172.332C369.233 173.573 365.664 175.852 361.044 177.266C355.231 179.044 347.633 179.552 338.548 175.812C329.605 172.129 325.922 168.23 323.477 165.377C323.373 165.256 323.274 165.14 323.179 165.029C322.125 163.797 321.614 163.199 321.008 162.816C320.565 162.536 319.909 162.281 318.31 162.481C314.57 162.948 312.585 163.937 311.43 165.339C310.237 166.787 309.5 169.19 309.5 173.5C309.5 175.71 309.42 177.646 309.02 179.041C308.816 179.755 308.441 180.65 307.657 181.326C306.769 182.092 305.708 182.283 304.765 182.17C303.92 182.068 303.133 181.726 302.474 181.372C301.786 181.003 301.048 180.517 300.274 179.964C298.942 179.013 297.31 177.723 295.379 176.196C295.077 175.957 294.768 175.712 294.451 175.462C286.88 169.485 269.007 156.005 261 150L260.963 149.972L260.927 149.943C256.661 146.49 246.278 138.678 235.253 130.382C232.825 128.555 230.365 126.704 227.933 124.872C221.215 119.809 214.719 114.895 209.713 111.025C207.212 109.091 205.07 107.408 203.453 106.094C201.928 104.854 200.657 103.774 200.102 103.127C199.463 102.382 198.954 101.944 198.442 101.647C197.938 101.355 197.298 101.123 196.307 100.971C194.173 100.643 190.973 100.743 185.109 100.998C173.413 101.506 165.998 100.033 160.232 94.2679C159.205 93.2405 157.206 91.8076 154.47 90.1082C151.788 88.4426 148.572 86.6255 145.246 84.823C141.09 82.57 136.931 80.4266 133.435 78.6249C131.252 77.4998 129.327 76.508 127.824 75.706C127.627 75.6013 127.434 75.4983 127.243 75.3969C125.674 74.5617 124.308 73.8348 123.232 73.1308C121.991 72.3182 120.877 71.3769 120.127 70.0267C119.378 68.6777 119.144 67.1973 119.118 65.5967C119.091 64.0226 119.266 62.0936 119.514 59.7384L119.524 59.6451L119.54 59.5529C119.718 58.5774 119.769 58.0019 119.77 57.6713C119.44 57.6025 118.858 57.5352 117.852 57.5069C116.96 57.4819 115.918 57.4871 114.641 57.4934C113.992 57.4966 113.282 57.5001 112.5 57.5001C110.269 57.5001 108.374 57.4716 106.898 57.2949C105.56 57.1346 103.872 56.7937 102.739 55.5849C101.391 54.1468 101.519 52.3349 101.848 51.0187C102.18 49.6904 102.893 48.1242 103.764 46.382C103.964 45.9822 104.161 45.5848 104.355 45.1929C104.983 43.9246 105.584 42.7135 106.164 41.6642C106.922 40.2953 107.771 38.9639 108.831 37.9465C109.954 36.8686 111.351 36.1092 113.092 36.0045Z" fill="black"/>
</svg>
