<svg width="522" height="252" viewBox="0 0 522 252" fill="none" xmlns="http://www.w3.org/2000/svg">
<path fill-rule="evenodd" clip-rule="evenodd" d="M521 1.5H1V0.5H521V1.5Z" fill="#20202E"/>
<path fill-rule="evenodd" clip-rule="evenodd" d="M521 11.5H1V10.5H521V11.5Z" fill="#20202E"/>
<path fill-rule="evenodd" clip-rule="evenodd" d="M521 21.5H1V20.5H521V21.5Z" fill="#20202E"/>
<path fill-rule="evenodd" clip-rule="evenodd" d="M521 31.5H1V30.5H521V31.5Z" fill="#20202E"/>
<path fill-rule="evenodd" clip-rule="evenodd" d="M521 41.5H1V40.5H521V41.5Z" fill="#20202E"/>
<path fill-rule="evenodd" clip-rule="evenodd" d="M521 51.5H1V50.5H521V51.5Z" fill="#20202E"/>
<path fill-rule="evenodd" clip-rule="evenodd" d="M521 61.5H1V60.5H521V61.5Z" fill="#20202E"/>
<path fill-rule="evenodd" clip-rule="evenodd" d="M521 71.5H1V70.5H521V71.5Z" fill="#20202E"/>
<path fill-rule="evenodd" clip-rule="evenodd" d="M521 81.5H1V80.5H521V81.5Z" fill="#20202E"/>
<path fill-rule="evenodd" clip-rule="evenodd" d="M521 91.5H1V90.5H521V91.5Z" fill="#20202E"/>
<path fill-rule="evenodd" clip-rule="evenodd" d="M521 101.5H1V100.5H521V101.5Z" fill="#20202E"/>
<path fill-rule="evenodd" clip-rule="evenodd" d="M521 111.5H1V110.5H521V111.5Z" fill="#20202E"/>
<path fill-rule="evenodd" clip-rule="evenodd" d="M521 121.5H1V120.5H521V121.5Z" fill="#20202E"/>
<path fill-rule="evenodd" clip-rule="evenodd" d="M521 131.5H1V130.5H521V131.5Z" fill="#20202E"/>
<path fill-rule="evenodd" clip-rule="evenodd" d="M521 141.5H1V140.5H521V141.5Z" fill="#20202E"/>
<path fill-rule="evenodd" clip-rule="evenodd" d="M521 151.5H1V150.5H521V151.5Z" fill="#20202E"/>
<path fill-rule="evenodd" clip-rule="evenodd" d="M521 161.5H1V160.5H521V161.5Z" fill="#20202E"/>
<path fill-rule="evenodd" clip-rule="evenodd" d="M521 171.5H1V170.5H521V171.5Z" fill="#20202E"/>
<path fill-rule="evenodd" clip-rule="evenodd" d="M521 181.5H1V180.5H521V181.5Z" fill="#20202E"/>
<path fill-rule="evenodd" clip-rule="evenodd" d="M521 191.5H1V190.5H521V191.5Z" fill="#20202E"/>
<path fill-rule="evenodd" clip-rule="evenodd" d="M521 201.5H1V200.5H521V201.5Z" fill="#20202E"/>
<path fill-rule="evenodd" clip-rule="evenodd" d="M521 211.5H1V210.5H521V211.5Z" fill="#20202E"/>
<path fill-rule="evenodd" clip-rule="evenodd" d="M521 221.5H1V220.5H521V221.5Z" fill="#20202E"/>
<path fill-rule="evenodd" clip-rule="evenodd" d="M521 231.5H1V230.5H521V231.5Z" fill="#20202E"/>
<path fill-rule="evenodd" clip-rule="evenodd" d="M521 241.5H1V240.5H521V241.5Z" fill="#20202E"/>
<path fill-rule="evenodd" clip-rule="evenodd" d="M521 251.5H1V250.5H521V251.5Z" fill="#20202E"/>
<path fill-rule="evenodd" clip-rule="evenodd" d="M0.5 251L0.5 1L1.5 1L1.5 251L0.5 251Z" fill="#20202E"/>
<path fill-rule="evenodd" clip-rule="evenodd" d="M10.5 251L10.5 1L11.5 1L11.5 251L10.5 251Z" fill="#20202E"/>
<path fill-rule="evenodd" clip-rule="evenodd" d="M20.5 251L20.5 1L21.5 1L21.5 251L20.5 251Z" fill="#20202E"/>
<path fill-rule="evenodd" clip-rule="evenodd" d="M30.5 251L30.5 1L31.5 1L31.5 251L30.5 251Z" fill="#20202E"/>
<path fill-rule="evenodd" clip-rule="evenodd" d="M40.5 251L40.5 1L41.5 1L41.5 251L40.5 251Z" fill="#20202E"/>
<path fill-rule="evenodd" clip-rule="evenodd" d="M50.5 251L50.5 1L51.5 1L51.5 251L50.5 251Z" fill="#20202E"/>
<path fill-rule="evenodd" clip-rule="evenodd" d="M60.5 251L60.5 1L61.5 1L61.5 251L60.5 251Z" fill="#20202E"/>
<path fill-rule="evenodd" clip-rule="evenodd" d="M70.5 251L70.5 1L71.5 1L71.5 251L70.5 251Z" fill="#20202E"/>
<path fill-rule="evenodd" clip-rule="evenodd" d="M80.5 251L80.5 1L81.5 1L81.5 251L80.5 251Z" fill="#20202E"/>
<path fill-rule="evenodd" clip-rule="evenodd" d="M90.5 251L90.5 1L91.5 1L91.5 251L90.5 251Z" fill="#20202E"/>
<path fill-rule="evenodd" clip-rule="evenodd" d="M100.5 251L100.5 1L101.5 1L101.5 251L100.5 251Z" fill="#20202E"/>
<path fill-rule="evenodd" clip-rule="evenodd" d="M110.5 251L110.5 1L111.5 1L111.5 251L110.5 251Z" fill="#20202E"/>
<path fill-rule="evenodd" clip-rule="evenodd" d="M120.5 251L120.5 1L121.5 1L121.5 251L120.5 251Z" fill="#20202E"/>
<path fill-rule="evenodd" clip-rule="evenodd" d="M130.5 251L130.5 1L131.5 1L131.5 251L130.5 251Z" fill="#20202E"/>
<path fill-rule="evenodd" clip-rule="evenodd" d="M140.5 251L140.5 1L141.5 1L141.5 251L140.5 251Z" fill="#20202E"/>
<path fill-rule="evenodd" clip-rule="evenodd" d="M150.5 251L150.5 1L151.5 1L151.5 251L150.5 251Z" fill="#20202E"/>
<path fill-rule="evenodd" clip-rule="evenodd" d="M160.5 251L160.5 1L161.5 1L161.5 251L160.5 251Z" fill="#20202E"/>
<path fill-rule="evenodd" clip-rule="evenodd" d="M170.5 251L170.5 1L171.5 1L171.5 251L170.5 251Z" fill="#20202E"/>
<path fill-rule="evenodd" clip-rule="evenodd" d="M180.5 251L180.5 1L181.5 1L181.5 251L180.5 251Z" fill="#20202E"/>
<path fill-rule="evenodd" clip-rule="evenodd" d="M190.5 251L190.5 1L191.5 1L191.5 251L190.5 251Z" fill="#20202E"/>
<path fill-rule="evenodd" clip-rule="evenodd" d="M200.5 251L200.5 1L201.5 1L201.5 251L200.5 251Z" fill="#20202E"/>
<path fill-rule="evenodd" clip-rule="evenodd" d="M210.5 251L210.5 1L211.5 1L211.5 251L210.5 251Z" fill="#20202E"/>
<path fill-rule="evenodd" clip-rule="evenodd" d="M220.5 251L220.5 1L221.5 1L221.5 251L220.5 251Z" fill="#20202E"/>
<path fill-rule="evenodd" clip-rule="evenodd" d="M230.5 251L230.5 1L231.5 1L231.5 251L230.5 251Z" fill="#20202E"/>
<path fill-rule="evenodd" clip-rule="evenodd" d="M240.5 251L240.5 1L241.5 1L241.5 251L240.5 251Z" fill="#20202E"/>
<path fill-rule="evenodd" clip-rule="evenodd" d="M250.5 251L250.5 1L251.5 1L251.5 251L250.5 251Z" fill="#20202E"/>
<path fill-rule="evenodd" clip-rule="evenodd" d="M260.5 251L260.5 1L261.5 1L261.5 251L260.5 251Z" fill="#20202E"/>
<path fill-rule="evenodd" clip-rule="evenodd" d="M270.5 251L270.5 1L271.5 1L271.5 251L270.5 251Z" fill="#20202E"/>
<path fill-rule="evenodd" clip-rule="evenodd" d="M280.5 251L280.5 1L281.5 1L281.5 251L280.5 251Z" fill="#20202E"/>
<path fill-rule="evenodd" clip-rule="evenodd" d="M290.5 251L290.5 1L291.5 1L291.5 251L290.5 251Z" fill="#20202E"/>
<path fill-rule="evenodd" clip-rule="evenodd" d="M300.5 251L300.5 1L301.5 1L301.5 251L300.5 251Z" fill="#20202E"/>
<path fill-rule="evenodd" clip-rule="evenodd" d="M310.5 251L310.5 1L311.5 1L311.5 251L310.5 251Z" fill="#20202E"/>
<path fill-rule="evenodd" clip-rule="evenodd" d="M320.5 251L320.5 1L321.5 1L321.5 251L320.5 251Z" fill="#20202E"/>
<path fill-rule="evenodd" clip-rule="evenodd" d="M330.5 251L330.5 1L331.5 1L331.5 251L330.5 251Z" fill="#20202E"/>
<path fill-rule="evenodd" clip-rule="evenodd" d="M340.5 251L340.5 1L341.5 1L341.5 251L340.5 251Z" fill="#20202E"/>
<path fill-rule="evenodd" clip-rule="evenodd" d="M350.5 251L350.5 1L351.5 1L351.5 251L350.5 251Z" fill="#20202E"/>
<path fill-rule="evenodd" clip-rule="evenodd" d="M360.5 251L360.5 1L361.5 1L361.5 251L360.5 251Z" fill="#20202E"/>
<path fill-rule="evenodd" clip-rule="evenodd" d="M370.5 251L370.5 1L371.5 1L371.5 251L370.5 251Z" fill="#20202E"/>
<path fill-rule="evenodd" clip-rule="evenodd" d="M380.5 251L380.5 1L381.5 1L381.5 251L380.5 251Z" fill="#20202E"/>
<path fill-rule="evenodd" clip-rule="evenodd" d="M390.5 251L390.5 1L391.5 1L391.5 251L390.5 251Z" fill="#20202E"/>
<path fill-rule="evenodd" clip-rule="evenodd" d="M400.5 251L400.5 1L401.5 1L401.5 251L400.5 251Z" fill="#20202E"/>
<path fill-rule="evenodd" clip-rule="evenodd" d="M410.5 251L410.5 1L411.5 1L411.5 251L410.5 251Z" fill="#20202E"/>
<path fill-rule="evenodd" clip-rule="evenodd" d="M420.5 251L420.5 1L421.5 1L421.5 251L420.5 251Z" fill="#20202E"/>
<path fill-rule="evenodd" clip-rule="evenodd" d="M430.5 251L430.5 1L431.5 1L431.5 251L430.5 251Z" fill="#20202E"/>
<path fill-rule="evenodd" clip-rule="evenodd" d="M440.5 251L440.5 1L441.5 1L441.5 251L440.5 251Z" fill="#20202E"/>
<path fill-rule="evenodd" clip-rule="evenodd" d="M450.5 251L450.5 1L451.5 1L451.5 251L450.5 251Z" fill="#20202E"/>
<path fill-rule="evenodd" clip-rule="evenodd" d="M460.5 251L460.5 1L461.5 1L461.5 251L460.5 251Z" fill="#20202E"/>
<path fill-rule="evenodd" clip-rule="evenodd" d="M470.5 251L470.5 1L471.5 1L471.5 251L470.5 251Z" fill="#20202E"/>
<path fill-rule="evenodd" clip-rule="evenodd" d="M480.5 251L480.5 1L481.5 1L481.5 251L480.5 251Z" fill="#20202E"/>
<path fill-rule="evenodd" clip-rule="evenodd" d="M490.5 251L490.5 1L491.5 1L491.5 251L490.5 251Z" fill="#20202E"/>
<path fill-rule="evenodd" clip-rule="evenodd" d="M500.5 251L500.5 1L501.5 1L501.5 251L500.5 251Z" fill="#20202E"/>
<path fill-rule="evenodd" clip-rule="evenodd" d="M510.5 251L510.5 1L511.5 1L511.5 251L510.5 251Z" fill="#20202E"/>
<path fill-rule="evenodd" clip-rule="evenodd" d="M520.5 251L520.5 1L521.5 1L521.5 251L520.5 251Z" fill="#20202E"/>
<path fill-rule="evenodd" clip-rule="evenodd" d="M154.418 56.1316C151.094 79.909 144.587 128.472 143.448 140.621C142.726 148.317 142.848 152.193 143.269 154.686C143.634 156.841 144.294 158.488 146.088 161.853C148.349 166.093 150.473 171.37 149.413 176.933C149.168 178.218 148.728 179.421 148.203 180.5H201.5C235.665 180.5 287.581 180.036 320.674 179.74C334.191 179.62 344.568 179.527 349.312 179.505C349.893 179.325 350.431 179.14 350.925 178.952C350.634 178.468 350.321 177.95 349.987 177.399C348.014 174.142 345.366 169.81 342.249 164.73C336.016 154.574 327.946 141.493 319.727 128.179C317.973 125.339 316.212 122.486 314.459 119.647C299.837 95.9673 285.814 73.2563 282.177 67.1181C281.306 65.6487 280.549 64.4618 279.895 63.5082C279.562 63.9093 279.203 64.3629 278.823 64.8692C277.308 66.8873 275.636 69.5026 274.075 72.492C270.855 78.6596 268.667 85.3385 268.494 90.8753C268.389 94.2587 269.46 95.9947 272.044 97.8935C275.485 100.422 280.481 102.257 287.425 104.661C304.385 110.531 313.692 123.791 316.142 133.59C317.109 137.461 318.075 143.927 316.517 150.161C315.695 153.448 313.968 157.453 310.363 160.657C306.573 164.026 301.844 165.5 297 165.5H296.827C286.789 165.501 197.57 165.501 176.624 163.968C171.493 163.593 167.327 163.224 164.135 162.756C162.533 162.522 160.904 162.224 159.378 161.805C157.974 161.419 155.898 160.732 153.887 159.368C151.645 157.846 149.041 155.142 148.136 150.977C147.314 147.185 148.335 144.072 149.01 142.476C150.029 140.066 151.858 137.668 152.672 136.601C152.761 136.484 152.838 136.384 152.9 136.3C155.54 132.781 159.087 128.719 164.324 125.986C169.785 123.138 175.781 122.385 182.256 123.066C185.567 123.415 190.484 124.007 196.09 124.682C201.062 125.28 206.574 125.944 211.986 126.561C208.043 123.784 204.725 121.456 203.119 120.331C198.421 117.043 195.224 112.706 194.136 106.799C193.454 103.098 193.732 98.8007 193.942 95.555C193.97 95.1145 193.997 94.6934 194.021 94.2958C194.144 92.2002 194.219 90.5614 194.219 89.1723C194.219 88.1044 194.173 87.3592 194.111 86.8414C193.735 86.7393 193.146 86.59 192.239 86.3806L192.134 86.3565C189.518 85.7531 184.725 84.6481 180.004 80.8709C177.02 78.4839 171.173 73.1416 165.486 67.5805C161.787 63.9638 157.765 59.877 154.418 56.1316ZM194.73 87.0277C194.73 87.0277 194.725 87.026 194.718 87.0228C194.727 87.0262 194.73 87.0278 194.73 87.0277ZM165.739 138.663C165.64 138.636 165.648 138.632 165.742 138.664C165.741 138.663 165.74 138.663 165.739 138.663ZM170.752 152.548C170.752 152.548 170.759 152.537 170.774 152.513C170.76 152.536 170.752 152.548 170.752 152.548ZM256.35 141.402C257.149 138.964 257.221 136.463 256.734 134.156C255.693 129.225 252.387 126.099 250.367 124.528C245.787 120.966 223.93 105.608 217.7 101.243C217.701 101.112 217.704 100.969 217.707 100.813C217.732 99.7995 217.8 98.6869 217.892 97.1565C217.919 96.7107 217.949 96.2296 217.979 95.7051C218.217 91.6663 218.474 86.7851 217.698 82.3194C216.809 77.2097 214.483 72.0069 209.367 68.0282C205.022 64.6488 200.364 63.6065 198.1 63.1001C197.932 63.0625 197.777 63.0277 197.636 62.9953C195.439 62.4883 195.225 62.3149 195.021 62.1495C195.013 62.143 195.005 62.1365 194.996 62.13C192.98 60.517 187.827 55.8593 182.265 50.4204C176.629 44.9101 171.487 39.4828 169.1 36.3005C164.724 30.4661 158.501 26.0277 151.422 25.2582C147.823 24.867 143.603 25.433 139.821 27.9246C135.874 30.5246 133.48 34.5277 132.694 38.8538C131.622 44.7475 121.079 122.095 119.553 138.38C118.774 146.684 118.653 153.058 119.606 158.69C120.514 164.059 122.297 168.12 124.25 171.89C123.053 173.162 121.434 174.905 119.154 177.392C117.362 179.347 115.16 182.144 114.1 185.677C113.52 187.61 113.185 190.093 113.763 192.831C114.361 195.663 115.776 197.996 117.515 199.736C120.59 202.811 124.313 203.705 126.001 204.032C128.05 204.428 130.039 204.5 131.5 204.5H201.5C235.652 204.5 289.028 204.025 322.158 203.73C336.452 203.602 346.977 203.508 350.563 203.501C352.078 203.498 353.43 203.281 354.684 202.936C360.1 201.446 366.376 198.882 370.904 194.446C373.296 192.103 375.654 188.779 376.551 184.424C377.485 179.888 376.566 175.527 374.566 171.811C372.592 168.146 356.381 141.865 340.148 115.572C338.423 112.777 336.693 109.975 334.974 107.191C320.258 83.357 306.339 60.8157 302.824 54.8828C300.647 51.2098 298.473 47.9858 296.202 45.3805C293.977 42.8287 291.081 40.1933 287.294 38.6439C278.112 34.8879 270.688 39.8595 267.3 42.4005C262.181 46.2396 256.799 53.7252 252.8 61.3839C248.646 69.3413 244.833 79.6624 244.506 90.1256C244.112 102.742 250.04 111.506 257.831 117.232C264.498 122.132 272.846 125.016 278.862 127.094C279.103 127.177 279.341 127.259 279.575 127.34C288.615 130.47 292.308 137.21 292.858 139.411C293.013 140.03 293.151 140.755 293.238 141.5C286.303 141.496 272.343 141.48 256.35 141.402ZM128.496 167.61L128.486 167.619C128.503 167.603 128.508 167.6 128.496 167.61ZM238.396 128.404C238.449 128.386 238.478 128.379 238.479 128.38C238.481 128.381 238.454 128.39 238.396 128.404ZM136.37 194.178C136.369 194.178 136.383 194.157 136.416 194.113C136.388 194.156 136.371 194.178 136.37 194.178Z" fill="white"/>
<path fill-rule="evenodd" clip-rule="evenodd" d="M147.797 40.0335C147.43 40.2754 147.098 40.6875 146.96 41.4476C145.974 46.8656 135.483 123.793 133.989 139.734C133.245 147.671 133.27 152.535 133.902 156.271C134.523 159.936 135.748 162.654 137.706 166.324C139.76 170.176 140.499 172.958 140.081 175.156C139.671 177.309 138.036 178.562 137.796 178.746C137.78 178.758 137.77 178.766 137.768 178.768L137.756 178.779C136.79 179.746 135.307 181.229 129.843 187.19C128.761 188.369 128.272 189.159 128.073 189.617C128.227 189.672 128.448 189.736 128.756 189.796C129.5 189.94 130.445 190 131.5 190H201.5C235.656 190 288.136 189.532 321.25 189.236C335.86 189.106 346.7 189.009 350.532 189.001C350.632 189.001 350.699 188.993 350.838 188.955C355.294 187.73 358.801 186.004 360.756 184.088C361.707 183.156 362.187 182.284 362.349 181.499C362.502 180.751 362.42 179.84 361.799 178.686C360.095 175.522 344.29 149.883 327.81 123.189C326.066 120.364 324.316 117.529 322.575 114.71C307.918 90.9717 293.938 68.3314 290.349 62.2749C288.386 58.962 286.724 56.5751 285.272 54.9089C283.809 53.2315 282.676 52.4212 281.803 52.0643C280.393 51.4874 278.919 51.811 276 54.0004C273.441 55.9194 269.276 61.1567 265.653 68.095C262.063 74.9711 259.233 83.0917 258.999 90.5785C258.779 97.6167 261.773 102.135 266.418 105.548C271.241 109.093 277.725 111.356 284.318 113.638C298.143 118.424 305.227 129.103 306.925 135.894C307.721 139.075 308.318 143.787 307.3 147.857C306.783 149.927 305.804 151.998 304.051 153.556C302.26 155.149 299.889 156 297 156H296.961C287.336 156 197.909 156 177.317 154.494C172.191 154.119 168.33 153.77 165.512 153.357C164.102 153.15 162.897 152.92 161.896 152.644C160.92 152.376 159.986 152.026 159.221 151.507C158.408 150.955 157.673 150.128 157.42 148.961C157.184 147.872 157.458 146.888 157.76 146.175C158.273 144.96 159.3 143.596 160.258 142.322C160.339 142.214 160.42 142.107 160.5 142C162.831 138.892 165.351 136.166 168.718 134.409C172.132 132.628 176.152 131.976 181.262 132.514C184.308 132.835 189.015 133.401 194.469 134.057C206.291 135.48 221.626 137.324 231.178 138.007C234.568 138.249 237.168 138.18 239.078 137.922C240.986 137.663 241.992 137.242 242.433 136.94C242.411 136.909 242.387 136.873 242.357 136.835C242.184 136.606 241.899 136.312 241.465 135.974C237.03 132.524 213.607 116.077 208.566 112.549C205.608 110.478 204.052 108.189 203.479 105.078C203.028 102.629 203.21 99.663 203.424 96.1852C203.45 95.7494 203.478 95.3055 203.504 94.8536C203.757 90.5596 203.854 87.3474 203.412 84.8038C202.993 82.3943 202.118 80.7595 200.465 79.4738C198.738 78.1305 196.937 77.7149 194.458 77.1429L194.375 77.1239C191.905 76.554 188.914 75.8335 185.938 73.4526C183.337 71.372 177.765 66.3007 172.127 60.7879C166.504 55.2901 160.628 49.1708 157.5 45.0004C154.786 41.3826 151.854 39.8906 149.855 39.6733C148.868 39.566 148.198 39.7691 147.797 40.0335ZM150.395 34.7026C154.146 35.1103 158.213 37.6183 161.5 42.0004C164.372 45.8301 169.995 51.7108 175.623 57.2129C181.235 62.7002 186.662 67.6289 189.062 69.5483C191.085 71.1674 193.094 71.6969 195.499 72.2519C195.618 72.2793 195.738 72.3068 195.86 72.3346C198.147 72.8584 200.92 73.4932 203.535 75.527C206.382 77.7413 207.757 80.6065 208.338 83.9471C208.895 87.1535 208.743 90.9412 208.496 95.1472C208.471 95.5628 208.447 95.9622 208.424 96.3464C208.201 100.069 208.063 102.365 208.396 104.173C208.698 105.812 209.391 107.023 211.433 108.452C216.392 111.924 239.97 128.477 244.535 132.027C245.846 133.047 247.079 134.416 247.438 136.117C247.629 137.024 247.557 137.976 247.155 138.877C246.764 139.754 246.126 140.44 245.404 140.963C244.011 141.972 242.05 142.564 239.75 142.876C237.395 143.195 234.431 143.252 230.822 142.994C221.153 142.303 205.485 140.419 193.612 138.991C188.242 138.346 183.649 137.793 180.738 137.487C176.348 137.025 173.368 137.623 171.031 138.842C168.648 140.085 166.669 142.109 164.5 145C163.565 146.246 162.964 147.055 162.618 147.636C162.78 147.693 162.979 147.757 163.221 147.823C163.946 148.023 164.928 148.218 166.237 148.41C168.858 148.794 172.559 149.132 177.682 149.507C198.063 150.998 287.424 151 297 151C298.861 151 299.99 150.477 300.73 149.819C301.508 149.128 302.092 148.074 302.449 146.644C303.182 143.714 302.779 139.925 302.074 137.107C300.772 131.898 294.857 122.577 282.682 118.363L282.441 118.28C276.093 116.083 268.939 113.606 263.457 109.577C257.727 105.366 253.721 99.3841 254.001 90.4223C254.267 81.9092 257.436 73.0298 261.221 65.7808C264.974 58.5941 269.558 52.5815 273 50.0004C276.081 47.6898 279.607 45.7634 283.696 47.4366C285.574 48.2047 287.315 49.6443 289.041 51.6232C290.775 53.6133 292.614 56.2888 294.651 59.7259C298.215 65.7404 312.175 88.3504 326.855 112.124C328.587 114.929 330.329 117.75 332.065 120.562C348.459 147.118 364.404 172.979 366.201 176.315C367.298 178.353 367.669 180.454 367.246 182.507C366.83 184.524 365.703 186.241 364.255 187.66C361.413 190.445 356.951 192.459 352.164 193.776C351.64 193.92 351.13 194 350.543 194.001C346.796 194.009 336.063 194.105 321.56 194.234C288.439 194.529 235.654 195 201.5 195H131.5C130.305 195 129 194.936 127.806 194.705C126.687 194.488 125.269 194.055 124.232 193.018C123.672 192.458 123.241 191.737 123.058 190.868C122.879 190.02 122.967 189.181 123.199 188.407C123.643 186.929 124.695 185.406 126.157 183.811C131.672 177.795 133.198 176.267 134.232 175.233C134.929 174.536 135.075 174.488 135.127 174.39C135.146 174.353 135.152 174.309 135.169 174.22C135.25 173.793 135.24 172.325 133.294 168.677C131.251 164.847 129.727 161.565 128.972 157.105C128.23 152.716 128.255 147.33 129.011 139.267C130.516 123.208 141.025 46.1352 142.04 40.5532C142.402 38.5634 143.445 36.913 145.046 35.858C146.614 34.8256 148.507 34.4974 150.395 34.7026Z" fill="black"/>
</svg>
