<svg width="522" height="252" viewBox="0 0 522 252" fill="none" xmlns="http://www.w3.org/2000/svg">
<path fill-rule="evenodd" clip-rule="evenodd" d="M521 1.5H1V0.5H521V1.5Z" fill="#20202E"/>
<path fill-rule="evenodd" clip-rule="evenodd" d="M521 11.5H1V10.5H521V11.5Z" fill="#20202E"/>
<path fill-rule="evenodd" clip-rule="evenodd" d="M521 21.5H1V20.5H521V21.5Z" fill="#20202E"/>
<path fill-rule="evenodd" clip-rule="evenodd" d="M521 31.5H1V30.5H521V31.5Z" fill="#20202E"/>
<path fill-rule="evenodd" clip-rule="evenodd" d="M521 41.5H1V40.5H521V41.5Z" fill="#20202E"/>
<path fill-rule="evenodd" clip-rule="evenodd" d="M521 51.5H1V50.5H521V51.5Z" fill="#20202E"/>
<path fill-rule="evenodd" clip-rule="evenodd" d="M521 61.5H1V60.5H521V61.5Z" fill="#20202E"/>
<path fill-rule="evenodd" clip-rule="evenodd" d="M521 71.5H1V70.5H521V71.5Z" fill="#20202E"/>
<path fill-rule="evenodd" clip-rule="evenodd" d="M521 81.5H1V80.5H521V81.5Z" fill="#20202E"/>
<path fill-rule="evenodd" clip-rule="evenodd" d="M521 91.5H1V90.5H521V91.5Z" fill="#20202E"/>
<path fill-rule="evenodd" clip-rule="evenodd" d="M521 101.5H1V100.5H521V101.5Z" fill="#20202E"/>
<path fill-rule="evenodd" clip-rule="evenodd" d="M521 111.5H1V110.5H521V111.5Z" fill="#20202E"/>
<path fill-rule="evenodd" clip-rule="evenodd" d="M521 121.5H1V120.5H521V121.5Z" fill="#20202E"/>
<path fill-rule="evenodd" clip-rule="evenodd" d="M521 131.5H1V130.5H521V131.5Z" fill="#20202E"/>
<path fill-rule="evenodd" clip-rule="evenodd" d="M521 141.5H1V140.5H521V141.5Z" fill="#20202E"/>
<path fill-rule="evenodd" clip-rule="evenodd" d="M521 151.5H1V150.5H521V151.5Z" fill="#20202E"/>
<path fill-rule="evenodd" clip-rule="evenodd" d="M521 161.5H1V160.5H521V161.5Z" fill="#20202E"/>
<path fill-rule="evenodd" clip-rule="evenodd" d="M521 171.5H1V170.5H521V171.5Z" fill="#20202E"/>
<path fill-rule="evenodd" clip-rule="evenodd" d="M521 181.5H1V180.5H521V181.5Z" fill="#20202E"/>
<path fill-rule="evenodd" clip-rule="evenodd" d="M521 191.5H1V190.5H521V191.5Z" fill="#20202E"/>
<path fill-rule="evenodd" clip-rule="evenodd" d="M521 201.5H1V200.5H521V201.5Z" fill="#20202E"/>
<path fill-rule="evenodd" clip-rule="evenodd" d="M521 211.5H1V210.5H521V211.5Z" fill="#20202E"/>
<path fill-rule="evenodd" clip-rule="evenodd" d="M521 221.5H1V220.5H521V221.5Z" fill="#20202E"/>
<path fill-rule="evenodd" clip-rule="evenodd" d="M521 231.5H1V230.5H521V231.5Z" fill="#20202E"/>
<path fill-rule="evenodd" clip-rule="evenodd" d="M521 241.5H1V240.5H521V241.5Z" fill="#20202E"/>
<path fill-rule="evenodd" clip-rule="evenodd" d="M521 251.5H1V250.5H521V251.5Z" fill="#20202E"/>
<path fill-rule="evenodd" clip-rule="evenodd" d="M0.5 251L0.5 1L1.5 1L1.5 251L0.5 251Z" fill="#20202E"/>
<path fill-rule="evenodd" clip-rule="evenodd" d="M10.5 251L10.5 1L11.5 1L11.5 251L10.5 251Z" fill="#20202E"/>
<path fill-rule="evenodd" clip-rule="evenodd" d="M20.5 251L20.5 1L21.5 1L21.5 251L20.5 251Z" fill="#20202E"/>
<path fill-rule="evenodd" clip-rule="evenodd" d="M30.5 251L30.5 1L31.5 1L31.5 251L30.5 251Z" fill="#20202E"/>
<path fill-rule="evenodd" clip-rule="evenodd" d="M40.5 251L40.5 1L41.5 1L41.5 251L40.5 251Z" fill="#20202E"/>
<path fill-rule="evenodd" clip-rule="evenodd" d="M50.5 251L50.5 1L51.5 1L51.5 251L50.5 251Z" fill="#20202E"/>
<path fill-rule="evenodd" clip-rule="evenodd" d="M60.5 251L60.5 1L61.5 1L61.5 251L60.5 251Z" fill="#20202E"/>
<path fill-rule="evenodd" clip-rule="evenodd" d="M70.5 251L70.5 1L71.5 1L71.5 251L70.5 251Z" fill="#20202E"/>
<path fill-rule="evenodd" clip-rule="evenodd" d="M80.5 251L80.5 1L81.5 1L81.5 251L80.5 251Z" fill="#20202E"/>
<path fill-rule="evenodd" clip-rule="evenodd" d="M90.5 251L90.5 1L91.5 1L91.5 251L90.5 251Z" fill="#20202E"/>
<path fill-rule="evenodd" clip-rule="evenodd" d="M100.5 251L100.5 1L101.5 1L101.5 251L100.5 251Z" fill="#20202E"/>
<path fill-rule="evenodd" clip-rule="evenodd" d="M110.5 251L110.5 1L111.5 1L111.5 251L110.5 251Z" fill="#20202E"/>
<path fill-rule="evenodd" clip-rule="evenodd" d="M120.5 251L120.5 1L121.5 1L121.5 251L120.5 251Z" fill="#20202E"/>
<path fill-rule="evenodd" clip-rule="evenodd" d="M130.5 251L130.5 1L131.5 1L131.5 251L130.5 251Z" fill="#20202E"/>
<path fill-rule="evenodd" clip-rule="evenodd" d="M140.5 251L140.5 1L141.5 1L141.5 251L140.5 251Z" fill="#20202E"/>
<path fill-rule="evenodd" clip-rule="evenodd" d="M150.5 251L150.5 1L151.5 1L151.5 251L150.5 251Z" fill="#20202E"/>
<path fill-rule="evenodd" clip-rule="evenodd" d="M160.5 251L160.5 1L161.5 1L161.5 251L160.5 251Z" fill="#20202E"/>
<path fill-rule="evenodd" clip-rule="evenodd" d="M170.5 251L170.5 1L171.5 1L171.5 251L170.5 251Z" fill="#20202E"/>
<path fill-rule="evenodd" clip-rule="evenodd" d="M180.5 251L180.5 1L181.5 1L181.5 251L180.5 251Z" fill="#20202E"/>
<path fill-rule="evenodd" clip-rule="evenodd" d="M190.5 251L190.5 1L191.5 1L191.5 251L190.5 251Z" fill="#20202E"/>
<path fill-rule="evenodd" clip-rule="evenodd" d="M200.5 251L200.5 1L201.5 1L201.5 251L200.5 251Z" fill="#20202E"/>
<path fill-rule="evenodd" clip-rule="evenodd" d="M210.5 251L210.5 1L211.5 1L211.5 251L210.5 251Z" fill="#20202E"/>
<path fill-rule="evenodd" clip-rule="evenodd" d="M220.5 251L220.5 1L221.5 1L221.5 251L220.5 251Z" fill="#20202E"/>
<path fill-rule="evenodd" clip-rule="evenodd" d="M230.5 251L230.5 1L231.5 1L231.5 251L230.5 251Z" fill="#20202E"/>
<path fill-rule="evenodd" clip-rule="evenodd" d="M240.5 251L240.5 1L241.5 1L241.5 251L240.5 251Z" fill="#20202E"/>
<path fill-rule="evenodd" clip-rule="evenodd" d="M250.5 251L250.5 1L251.5 1L251.5 251L250.5 251Z" fill="#20202E"/>
<path fill-rule="evenodd" clip-rule="evenodd" d="M260.5 251L260.5 1L261.5 1L261.5 251L260.5 251Z" fill="#20202E"/>
<path fill-rule="evenodd" clip-rule="evenodd" d="M270.5 251L270.5 1L271.5 1L271.5 251L270.5 251Z" fill="#20202E"/>
<path fill-rule="evenodd" clip-rule="evenodd" d="M280.5 251L280.5 1L281.5 1L281.5 251L280.5 251Z" fill="#20202E"/>
<path fill-rule="evenodd" clip-rule="evenodd" d="M290.5 251L290.5 1L291.5 1L291.5 251L290.5 251Z" fill="#20202E"/>
<path fill-rule="evenodd" clip-rule="evenodd" d="M300.5 251L300.5 1L301.5 1L301.5 251L300.5 251Z" fill="#20202E"/>
<path fill-rule="evenodd" clip-rule="evenodd" d="M310.5 251L310.5 1L311.5 1L311.5 251L310.5 251Z" fill="#20202E"/>
<path fill-rule="evenodd" clip-rule="evenodd" d="M320.5 251L320.5 1L321.5 1L321.5 251L320.5 251Z" fill="#20202E"/>
<path fill-rule="evenodd" clip-rule="evenodd" d="M330.5 251L330.5 1L331.5 1L331.5 251L330.5 251Z" fill="#20202E"/>
<path fill-rule="evenodd" clip-rule="evenodd" d="M340.5 251L340.5 1L341.5 1L341.5 251L340.5 251Z" fill="#20202E"/>
<path fill-rule="evenodd" clip-rule="evenodd" d="M350.5 251L350.5 1L351.5 1L351.5 251L350.5 251Z" fill="#20202E"/>
<path fill-rule="evenodd" clip-rule="evenodd" d="M360.5 251L360.5 1L361.5 1L361.5 251L360.5 251Z" fill="#20202E"/>
<path fill-rule="evenodd" clip-rule="evenodd" d="M370.5 251L370.5 1L371.5 1L371.5 251L370.5 251Z" fill="#20202E"/>
<path fill-rule="evenodd" clip-rule="evenodd" d="M380.5 251L380.5 1L381.5 1L381.5 251L380.5 251Z" fill="#20202E"/>
<path fill-rule="evenodd" clip-rule="evenodd" d="M390.5 251L390.5 1L391.5 1L391.5 251L390.5 251Z" fill="#20202E"/>
<path fill-rule="evenodd" clip-rule="evenodd" d="M400.5 251L400.5 1L401.5 1L401.5 251L400.5 251Z" fill="#20202E"/>
<path fill-rule="evenodd" clip-rule="evenodd" d="M410.5 251L410.5 1L411.5 1L411.5 251L410.5 251Z" fill="#20202E"/>
<path fill-rule="evenodd" clip-rule="evenodd" d="M420.5 251L420.5 1L421.5 1L421.5 251L420.5 251Z" fill="#20202E"/>
<path fill-rule="evenodd" clip-rule="evenodd" d="M430.5 251L430.5 1L431.5 1L431.5 251L430.5 251Z" fill="#20202E"/>
<path fill-rule="evenodd" clip-rule="evenodd" d="M440.5 251L440.5 1L441.5 1L441.5 251L440.5 251Z" fill="#20202E"/>
<path fill-rule="evenodd" clip-rule="evenodd" d="M450.5 251L450.5 1L451.5 1L451.5 251L450.5 251Z" fill="#20202E"/>
<path fill-rule="evenodd" clip-rule="evenodd" d="M460.5 251L460.5 1L461.5 1L461.5 251L460.5 251Z" fill="#20202E"/>
<path fill-rule="evenodd" clip-rule="evenodd" d="M470.5 251L470.5 1L471.5 1L471.5 251L470.5 251Z" fill="#20202E"/>
<path fill-rule="evenodd" clip-rule="evenodd" d="M480.5 251L480.5 1L481.5 1L481.5 251L480.5 251Z" fill="#20202E"/>
<path fill-rule="evenodd" clip-rule="evenodd" d="M490.5 251L490.5 1L491.5 1L491.5 251L490.5 251Z" fill="#20202E"/>
<path fill-rule="evenodd" clip-rule="evenodd" d="M500.5 251L500.5 1L501.5 1L501.5 251L500.5 251Z" fill="#20202E"/>
<path fill-rule="evenodd" clip-rule="evenodd" d="M510.5 251L510.5 1L511.5 1L511.5 251L510.5 251Z" fill="#20202E"/>
<path fill-rule="evenodd" clip-rule="evenodd" d="M520.5 251L520.5 1L521.5 1L521.5 251L520.5 251Z" fill="#20202E"/>
<path opacity="0.2" fill-rule="evenodd" clip-rule="evenodd" d="M159.489 56.9871C156.164 80.7645 149.657 129.328 148.518 141.476C147.797 149.173 147.918 153.048 148.34 155.541C148.704 157.696 149.364 159.344 151.159 162.709C153.42 166.948 155.543 172.226 154.484 177.789C153.33 183.842 147.845 188.052 149.556 186.341L132.662 169.447C132.374 169.815 132.061 170.276 131.77 170.831C131.353 171.631 131.065 172.469 130.907 173.298C130.892 173.377 130.879 173.455 130.866 173.532C130.627 175.011 130.881 175.951 130.887 175.975C130.887 175.976 130.719 175.384 129.982 174.003C127.777 169.868 125.687 165.516 124.676 159.546C123.723 153.914 123.844 147.539 124.623 139.236C126.15 122.951 136.692 45.603 137.764 39.7093C138.551 35.3831 140.944 31.38 144.891 28.7801C148.674 26.2884 152.893 25.7225 156.492 26.1137C163.571 26.8831 169.795 31.3216 174.17 37.1559C176.557 40.3383 181.699 45.7656 187.335 51.2758C192.897 56.7148 198.05 61.3724 200.067 62.9855C200.075 62.992 200.083 62.9985 200.091 63.0049C200.295 63.1703 200.51 63.3438 202.706 63.8507C202.847 63.8832 203.002 63.9179 203.171 63.9556C205.434 64.462 210.093 65.5043 214.438 68.8837C219.553 72.8624 221.879 78.0652 222.768 83.1748C223.545 87.6405 223.287 92.5218 223.05 96.5606C223.019 97.0851 222.99 97.5662 222.963 98.0119C222.87 99.5424 222.803 100.655 222.778 101.668C222.774 101.825 222.771 101.968 222.77 102.098C229 106.464 250.858 121.821 255.438 125.384C257.457 126.954 260.764 130.08 261.804 135.011C262.381 137.745 262.173 140.751 260.903 143.601C259.681 146.34 257.789 148.25 256.046 149.513C252.803 151.861 249.033 152.748 246.096 153.146C242.897 153.579 239.242 153.613 235.216 153.325C225.322 152.619 208.999 150.657 197.045 149.22C191.846 148.595 187.473 148.07 184.814 147.79C181.789 147.472 180.786 147.969 180.496 148.12C179.983 148.388 179.031 149.075 177.17 151.556L157.97 137.156C160.61 133.637 164.158 129.574 169.395 126.842C174.855 123.993 180.852 123.24 187.327 123.922C190.637 124.27 195.555 124.862 201.161 125.537C206.132 126.136 211.644 126.8 217.057 127.416C213.114 124.639 209.795 122.311 208.189 121.187C203.491 117.898 200.295 113.562 199.207 107.655C198.525 103.954 198.802 99.6562 199.012 96.4104C199.041 95.97 199.068 95.5489 199.091 95.1513C199.214 93.0557 199.289 91.4169 199.289 90.0278C199.289 88.9599 199.243 88.2147 199.182 87.6968C198.806 87.5948 198.217 87.4454 197.31 87.2361L197.205 87.2119C194.588 86.6086 189.796 85.5035 185.074 81.7263C182.09 79.3394 176.244 73.9971 170.556 68.436C166.857 64.8193 162.835 60.7324 159.489 56.9871ZM199.8 87.8832C199.8 87.8831 199.795 87.8815 199.788 87.8783C199.797 87.8817 199.801 87.8833 199.8 87.8832ZM243.55 129.236C243.551 129.237 243.524 129.245 243.467 129.259C243.52 129.242 243.549 129.235 243.55 129.236ZM133.566 168.465L133.556 168.474C133.574 168.458 133.578 168.455 133.566 168.465Z" fill="white"/>
<path fill-rule="evenodd" clip-rule="evenodd" d="M152.868 40.889C152.5 41.1308 152.168 41.5429 152.03 42.3031C151.045 47.7211 140.554 124.649 139.06 140.589C138.316 148.526 138.341 153.391 138.973 157.126C139.593 160.791 140.819 163.51 142.776 167.179C144.831 171.031 145.57 173.813 145.151 176.011C144.741 178.164 143.107 179.417 142.867 179.601C142.851 179.614 142.841 179.621 142.838 179.624L139.303 176.088C140 175.391 140.146 175.344 140.197 175.246C140.217 175.209 140.223 175.165 140.24 175.076C140.321 174.649 140.31 173.18 138.365 169.532C136.322 165.702 134.798 162.42 134.043 157.961C133.3 153.571 133.326 148.186 134.081 140.123C135.587 124.063 146.096 46.9907 147.111 41.4087C147.473 39.4189 148.516 37.7685 150.117 36.7135C151.684 35.681 153.578 35.3528 155.466 35.558C159.216 35.9657 163.284 38.4737 166.571 42.8559C169.443 46.6856 175.066 52.5662 180.693 58.0684C186.305 63.5557 191.733 68.4843 194.132 70.4037C196.156 72.0228 198.165 72.5523 200.57 73.1074C200.689 73.1348 200.809 73.1623 200.93 73.1901C203.218 73.7139 205.99 74.3486 208.605 76.3825C211.452 78.5968 212.828 81.462 213.409 84.8025C213.966 88.0089 213.814 91.7967 213.566 96.0027C213.542 96.4183 213.518 96.8177 213.495 97.2018C213.271 100.924 213.134 103.22 213.467 105.028C213.769 106.667 214.462 107.878 216.504 109.308C221.463 112.779 245.041 129.332 249.605 132.883C250.917 133.902 252.15 135.271 252.509 136.973C252.7 137.879 252.627 138.832 252.226 139.732C251.835 140.61 251.196 141.295 250.474 141.818C249.081 142.827 247.121 143.42 244.82 143.732C242.465 144.051 239.502 144.107 235.892 143.85C226.224 143.159 210.556 141.275 198.682 139.847C193.313 139.201 188.72 138.649 185.809 138.342C181.418 137.88 178.438 138.478 176.102 139.697C173.719 140.941 171.739 142.964 169.571 145.856L165.571 142.856C167.902 139.748 170.422 137.021 173.789 135.264C177.203 133.483 181.223 132.832 186.332 133.37C189.379 133.69 194.086 134.257 199.54 134.913C211.362 136.335 226.696 138.18 236.249 138.862C239.639 139.104 242.238 139.036 244.149 138.777C246.056 138.518 247.062 138.098 247.503 137.796C247.482 137.764 247.457 137.729 247.428 137.69C247.255 137.462 246.97 137.167 246.536 136.829C242.1 133.38 218.678 116.933 213.637 113.404C210.679 111.333 209.122 109.045 208.549 105.934C208.098 103.485 208.281 100.518 208.494 97.0407C208.521 96.6048 208.548 96.161 208.575 95.7091C208.827 91.4151 208.925 88.2028 208.482 85.6592C208.063 83.2498 207.189 81.615 205.536 80.3293C203.809 78.9859 202.007 78.5704 199.528 77.9984L199.446 77.9794C196.976 77.4094 193.985 76.6889 191.009 74.3081C188.408 72.2275 182.836 67.1561 177.198 61.6434C171.575 56.1456 165.698 50.0262 162.571 45.8559C159.857 42.2381 156.925 40.7461 154.925 40.5288C153.938 40.4215 153.269 40.6245 152.868 40.889Z" fill="black"/>
<path fill-rule="evenodd" clip-rule="evenodd" d="M281.763 66.5624C281.333 67.2835 280.862 68.1352 280.357 69.1162C278.455 72.8106 276.638 77.2149 275.142 80.9562C272.276 88.1213 271.837 91.5639 272.884 94.7048L272.948 94.8966L273.005 95.0904C274.156 98.9737 275.461 99.8761 276.743 100.595C277.792 101.183 279.204 101.757 281.477 102.517C282.065 102.714 282.789 102.947 283.594 103.206C285.395 103.785 287.602 104.495 289.601 105.222C302.307 109.842 314.998 118.617 318.242 134.027C319.439 139.713 319.842 145.854 318.035 151.402C315.969 157.748 311.064 162.824 303.853 164.266C302.441 164.549 300.707 164.612 299.877 164.642L299.795 164.645C298.548 164.691 296.965 164.722 295.141 164.744C291.478 164.787 286.57 164.792 280.865 164.773C269.442 164.734 254.621 164.593 239.749 164.436C235.408 164.391 231.062 164.344 226.794 164.298C216.417 164.186 206.492 164.079 198.177 164.007C192.31 163.956 187.275 163.923 183.469 163.918C181.564 163.916 179.995 163.921 178.797 163.933C178.197 163.939 177.714 163.947 177.342 163.956C177.157 163.961 177.012 163.965 176.903 163.969C176.838 163.972 176.795 163.974 176.771 163.975C176.753 163.976 176.746 163.976 176.748 163.976C173.298 164.192 169.575 163.705 166.477 163.165C163.21 162.595 159.76 161.8 156.61 161.036C155.236 160.703 153.969 160.389 152.769 160.091C152.59 160.047 152.411 160.003 152.234 159.959C153.431 163.008 154.994 167 155.642 169.589C156.506 173.047 156.011 176.123 155.188 178.499H206.459C230.532 178.333 266.887 178.033 297.773 177.676C313.229 177.497 327.291 177.304 337.752 177.106C342.51 177.016 346.49 176.925 349.505 176.835C347.676 173.907 345.502 170.397 343.076 166.464C336.319 155.51 327.54 141.161 318.698 126.696C317.346 124.483 315.994 122.271 314.65 120.072C299.958 96.033 286.166 73.466 281.763 66.5624ZM139.296 178.39C139.23 178.376 139.244 178.375 139.324 178.396C139.313 178.394 139.303 178.392 139.296 178.39ZM143.627 192.79C143.621 192.797 143.616 192.802 143.614 192.805L143.611 192.809C143.616 192.802 143.622 192.796 143.627 192.79ZM284.121 40.3534C291.664 40.982 296.821 46.0117 300.388 51.2012C303.101 55.1471 318.394 80.1715 334.262 106.138C335.898 108.816 337.541 111.504 339.176 114.179C348.022 128.651 356.775 142.959 363.502 153.864C366.868 159.321 369.709 163.897 371.794 167.206C372.84 168.865 373.67 170.166 374.27 171.084C374.704 171.748 374.899 172.027 374.925 172.07C378.07 175.976 379.02 180.954 377.645 185.629C376.466 189.637 373.904 192.389 372.069 193.987C368.315 197.256 363.263 199.468 358.646 200.307C357.483 200.518 356.037 200.594 355.291 200.632L355.243 200.635C354.158 200.691 352.769 200.745 351.147 200.796C347.891 200.9 343.476 201.002 338.207 201.101C327.656 201.301 313.524 201.495 298.051 201.674C267.097 202.032 230.677 202.332 206.583 202.499L206.541 202.499H141C138.82 202.499 136.54 202.337 134.344 201.874C132.326 201.448 129.399 200.571 126.752 198.48C123.669 196.047 121.052 191.923 121.356 186.647C121.61 182.212 123.851 178.983 125.389 177.19C126.668 175.698 128.219 174.266 129.241 173.323L129.254 173.312C129.388 173.188 129.518 173.068 129.644 172.952C130.165 172.472 130.62 172.053 131.032 171.663C130.674 170.728 130.285 169.731 129.87 168.671C129.711 168.263 129.548 167.846 129.382 167.42C128.664 165.58 127.891 163.573 127.259 161.766C126.725 160.239 125.932 157.875 125.62 155.696C125.264 153.201 124.824 147.889 127.559 142.81C129.098 139.951 131.561 137.353 135.019 135.708C138.338 134.131 141.802 133.795 144.92 134.034C147.574 134.239 150.715 134.919 153.343 135.532C155.013 135.921 156.94 136.399 158.838 136.869C160.015 137.16 161.18 137.449 162.265 137.712C165.302 138.449 168.133 139.091 170.601 139.522C173.237 139.981 174.702 140.057 175.251 140.023C179.155 139.779 202.193 140.029 227.001 140.298C231.311 140.345 235.675 140.392 240.001 140.438C254.878 140.594 269.62 140.734 280.947 140.773C286.618 140.792 291.381 140.786 294.859 140.745C294.932 140.745 295.004 140.744 295.075 140.743C294.998 140.213 294.894 139.624 294.757 138.972C294.001 135.382 290.693 131.157 281.399 127.777C279.782 127.189 278.428 126.755 276.917 126.272C275.991 125.975 275.007 125.66 273.866 125.279C271.233 124.398 268.083 123.254 265.007 121.529C258.084 117.648 252.912 111.605 250.05 102.096C246.202 90.3177 249.742 79.8341 252.858 72.0428C254.362 68.2841 256.544 62.9384 259.018 58.1328C260.252 55.7342 261.702 53.1877 263.334 50.9216C264.785 48.9079 267.197 45.9403 270.672 44.0096C270.77 43.9552 270.882 43.8918 271.007 43.8209C272.935 42.7285 278.023 39.8453 284.121 40.3534Z" fill="white"/>
<path fill-rule="evenodd" clip-rule="evenodd" d="M282.918 54.8034C281.552 54.6896 280.098 55.3604 277.714 56.6849C277.079 57.0379 276.184 57.8923 275.099 59.3986C274.051 60.8522 272.975 62.7006 271.91 64.7686C269.783 68.9029 267.821 73.6798 266.321 77.428C263.349 84.8582 261.675 91.1171 263.872 97.709L263.885 97.7489L263.897 97.7893C265.72 103.942 268.565 106.901 272.098 108.881C273.949 109.919 276.049 110.719 278.465 111.527C279.255 111.791 280.095 112.061 280.968 112.342C282.678 112.891 284.515 113.481 286.355 114.15C297.71 118.279 306.687 125.253 308.947 135.984C309.988 140.929 310.071 145.178 309.002 148.461C307.879 151.911 305.472 154.255 301.99 154.951C301.439 155.061 300.483 155.113 299.446 155.152C298.315 155.193 296.823 155.223 295.03 155.244C291.44 155.287 286.589 155.292 280.898 155.273C269.513 155.234 254.723 155.093 239.849 154.937C235.522 154.891 231.194 154.845 226.943 154.799C201.856 154.529 179.473 154.287 176.156 154.495C173.854 154.639 171.025 154.314 168.11 153.806C165.159 153.291 161.954 152.557 158.849 151.804C157.591 151.499 156.361 151.194 155.167 150.898C153.371 150.453 151.656 150.027 150.049 149.653C147.359 149.025 145.219 148.6 143.808 148.492C142.495 148.391 141.706 148.585 141.245 148.804C140.814 149.009 140.534 149.298 140.326 149.684C139.839 150.59 139.747 152.051 139.975 153.646C140.061 154.249 140.387 155.38 140.946 156.978C141.484 158.518 142.173 160.309 142.892 162.154C143.048 162.553 143.206 162.958 143.365 163.364C144.627 166.59 145.937 169.939 146.426 171.893C146.894 173.768 146.302 175.513 145.54 176.871C144.772 178.24 143.656 179.533 142.543 180.679C141.552 181.699 140.461 182.703 139.474 183.612C139.342 183.733 139.213 183.852 139.086 183.969C137.958 185.01 137.037 185.881 136.398 186.626C136.172 186.89 136.036 187.092 135.953 187.235C136.205 187.368 136.642 187.539 137.336 187.686C138.267 187.882 139.491 187.999 141 187.999H206.492C230.573 187.833 266.964 187.533 297.884 187.175C313.346 186.996 327.436 186.803 337.933 186.604C343.182 186.505 347.525 186.404 350.688 186.304C352.271 186.253 353.547 186.204 354.49 186.154C354.962 186.13 355.338 186.106 355.621 186.084C355.762 186.072 355.871 186.062 355.952 186.053C356.04 186.043 356.066 186.038 356.053 186.041C358.414 185.611 360.987 184.411 362.546 183.053C363.334 182.366 363.65 181.825 363.735 181.537L363.74 181.52C363.772 181.413 363.791 181.348 363.602 181.127C363.283 180.755 362.745 179.954 362.131 179.014C361.467 177.997 360.587 176.619 359.527 174.936C357.404 171.567 354.534 166.944 351.161 161.477C344.416 150.542 335.648 136.21 326.805 121.741C325.321 119.315 323.837 116.886 322.36 114.469C306.182 87.9976 290.914 63.0138 288.44 59.4158C285.86 55.6636 284.065 54.899 282.918 54.8034ZM283.333 49.8207C286.685 50.1 289.64 52.3354 292.56 56.5832C295.116 60.3007 310.382 85.2812 326.444 111.563C327.983 114.081 329.528 116.61 331.071 119.134C339.915 133.603 348.678 147.927 355.417 158.852C358.787 164.315 361.647 168.922 363.757 172.27C364.812 173.945 365.675 175.297 366.317 176.28C366.638 176.772 366.898 177.162 367.096 177.45C367.317 177.77 367.403 177.879 367.398 177.873C368.699 179.391 369.044 181.207 368.531 182.948C368.069 184.519 366.979 185.822 365.83 186.823C363.514 188.84 360.086 190.389 356.947 190.96C356.482 191.045 355.667 191.1 354.75 191.148C353.758 191.199 352.443 191.25 350.846 191.301C347.651 191.403 343.283 191.503 338.027 191.603C327.512 191.802 313.408 191.996 297.942 192.175C267.007 192.533 230.603 192.833 206.517 192.999L206.509 192.999H141C139.26 192.999 137.671 192.866 136.305 192.578C134.975 192.298 133.66 191.83 132.639 191.024C131.526 190.146 130.746 188.829 130.84 187.192C130.924 185.73 131.688 184.438 132.602 183.372C133.463 182.367 134.605 181.301 135.696 180.294C135.827 180.173 135.958 180.053 136.089 179.932C137.089 179.011 138.07 178.107 138.957 177.195C139.969 176.153 140.729 175.227 141.179 174.424C141.636 173.611 141.606 173.23 141.575 173.105C141.171 171.489 139.993 168.474 138.682 165.119C138.534 164.74 138.384 164.356 138.233 163.97C137.515 162.127 136.797 160.261 136.226 158.629C135.676 157.056 135.189 155.499 135.025 154.353C134.753 152.447 134.662 149.658 135.924 147.314C136.591 146.075 137.623 144.989 139.099 144.288C140.545 143.601 142.256 143.358 144.192 143.507C146.031 143.648 148.516 144.161 151.185 144.783C152.813 145.163 154.599 145.606 156.431 146.06C157.621 146.355 158.83 146.655 160.027 146.945C163.109 147.692 166.185 148.395 168.969 148.88C171.788 149.372 174.146 149.61 175.844 149.504C179.363 149.284 201.963 149.529 226.944 149.798C231.222 149.845 235.568 149.892 239.901 149.937C254.777 150.093 269.55 150.234 280.915 150.273C286.599 150.292 291.42 150.287 294.971 150.245C296.748 150.224 298.193 150.194 299.263 150.155C299.799 150.135 300.226 150.114 300.546 150.091C300.902 150.066 301.023 150.045 301.01 150.048C302.528 149.744 303.621 148.838 304.248 146.913C304.929 144.821 305.013 141.57 304.054 137.015C302.313 128.746 295.29 122.72 284.646 118.849C282.885 118.209 281.225 117.676 279.578 117.147C278.679 116.859 277.785 116.572 276.879 116.269C274.389 115.436 271.926 114.517 269.653 113.243C264.944 110.603 261.293 106.572 259.115 99.2499C256.333 90.8573 258.656 83.1287 261.679 75.571C263.18 71.8192 265.218 66.8462 267.465 62.4804C268.588 60.2984 269.793 58.2093 271.042 56.4755C272.254 54.7942 273.671 53.2111 275.286 52.3141L275.365 52.2703C277.471 51.0999 280.237 49.5627 283.333 49.8207Z" fill="black"/>
</svg>
