<svg width="185" height="112" viewBox="0 0 185 112" fill="none" xmlns="http://www.w3.org/2000/svg">
<path opacity="0.1" fill-rule="evenodd" clip-rule="evenodd" d="M40.1532 7.50276C39.8324 7.72149 39.3102 8.34713 38.9606 10.0076C37.7418 15.7969 32.039 59.1191 29.3292 80.1526L26.2659 79.7579C28.9611 58.8378 34.6862 15.3187 35.9382 9.37129C36.3608 7.36402 37.1415 5.81799 38.4133 4.95087C39.7463 4.04201 41.2423 4.12534 42.496 4.56411C43.7284 4.99548 44.8939 5.81534 45.8696 6.69872C46.8578 7.59341 47.7373 8.63149 48.3862 9.60496C48.9236 10.411 49.373 11.1038 49.7715 11.7182C51.143 13.8326 51.9129 15.0196 53.5984 16.705C55.8877 18.9944 63.1549 25.4908 65.7584 27.3505C66.828 28.1145 68.0869 28.4499 69.5926 28.7899C69.7019 28.8146 69.8136 28.8394 69.9274 28.8647C71.2608 29.1613 72.8756 29.5205 74.2111 30.4108C75.4085 31.2091 76.6684 32.1678 77.4383 33.7077C78.217 35.2652 78.3823 37.1758 77.9664 39.6712C77.864 40.2855 77.7372 40.8992 77.6138 41.4886C77.6025 41.5422 77.5913 41.5957 77.5801 41.649C77.4667 42.1897 77.3576 42.7103 77.263 43.2332C77.0553 44.3811 76.9361 45.4495 77.0175 46.4872C77.1702 48.4351 78.048 50.554 81.208 52.8362C84.6649 55.3329 88.0284 57.6394 90.9235 59.6177C91.1269 59.7567 91.3281 59.8941 91.527 60.03C94.1437 61.8175 96.3642 63.3344 97.8317 64.435C99.6411 65.7921 100.707 67.4246 101.235 69.2454C101.752 71.023 101.731 72.8962 101.529 74.7207L98.4589 74.3797C98.6422 72.7295 98.622 71.3211 98.2693 70.1066C97.9293 68.9353 97.2577 67.8653 95.9785 66.9059C94.5686 65.8485 92.4036 64.3694 89.7505 62.5569C89.5631 62.4289 89.3732 62.2992 89.181 62.1678C86.285 60.1889 82.8922 57.8625 79.3997 55.3401C75.6103 52.6033 74.1716 49.7032 73.9383 46.7287C73.8267 45.3052 73.997 43.9365 74.2237 42.6834C74.3264 42.1155 74.4445 41.5527 74.5566 41.0184C74.568 40.9637 74.5794 40.9094 74.5907 40.8554C74.7146 40.2639 74.8291 39.7073 74.9198 39.1634C75.276 37.0259 75.0552 35.8479 74.6757 35.0889C74.2874 34.3123 73.6169 33.7267 72.4978 32.9807C71.6603 32.4224 70.5893 32.1808 69.0738 31.8391C69.0205 31.8271 68.9667 31.8149 68.9123 31.8026C67.4258 31.467 65.5962 31.0302 63.9632 29.8638C61.1617 27.8627 53.758 21.2326 51.4144 18.889C49.4819 16.9565 48.5162 15.4656 47.0997 13.2785C46.7147 12.6841 46.2964 12.0383 45.8164 11.3182C45.3071 10.5544 44.594 9.7103 43.7966 8.9883C42.9867 8.25499 42.1735 7.72358 41.4756 7.47932C40.7989 7.24246 40.4128 7.32579 40.1532 7.50276Z" fill="#20202E"/>
<path d="M0.81 91.5502H10.566V89.7502H6.966V80.4262C6.966 79.6342 6.786 79.0402 6.426 78.6442C6.066 78.2482 5.472 78.0502 4.68 78.0502H1.224V79.8502H4.356C4.536 79.8502 4.662 79.9042 4.752 80.0122C4.842 80.1202 4.896 80.2642 4.896 80.4442V89.7502H0.81V91.5502Z" fill="white"/>
<path d="M171.407 47.429C171.155 47.627 170.975 47.825 170.903 48.041C170.813 48.257 170.795 48.455 170.867 48.671C170.903 48.851 171.029 49.013 171.245 49.139C171.443 49.265 171.695 49.319 172.001 49.319H175.745C176.609 49.319 177.185 49.481 177.509 49.805C177.833 50.129 177.995 50.525 177.995 51.011V51.965C177.995 52.469 177.833 52.829 177.509 53.081C177.185 53.333 176.609 53.459 175.781 53.459H169.229V55.259H175.187C176.753 55.259 177.941 55.043 178.769 54.611C179.597 54.179 180.011 53.333 180.011 52.073V50.579C180.011 49.643 179.651 48.905 178.967 48.383C178.283 47.861 177.239 47.591 175.853 47.591H174.269L179.957 43.199V41.759H169.049V43.559H176.447L171.407 47.429Z" fill="white"/>
<path opacity="0.1" fill-rule="evenodd" clip-rule="evenodd" d="M33.541 80.6953C35.9643 61.8859 40.7061 25.8497 42.5612 14.0944C42.8667 14.5583 43.1553 15.0048 43.4359 15.4391L43.436 15.4392C44.8928 17.6936 46.1347 19.6154 48.4113 21.892C50.8294 24.3102 58.421 31.1242 61.4946 33.3196C63.8741 35.0193 66.4553 35.6018 67.9248 35.9335L67.9767 35.9452L68.2722 36.0118C68.9518 36.1647 69.3601 36.2566 69.7438 36.3734C70.0213 36.4579 70.1365 36.5141 70.1578 36.5248C70.5184 36.7659 70.73 36.9288 70.8466 37.0255C70.8621 37.2486 70.8589 37.6956 70.7306 38.4653C70.6561 38.9124 70.5585 39.3905 70.434 39.9848L70.3994 40.1497C70.2888 40.6766 70.1585 41.2977 70.0445 41.9275C69.7917 43.3253 69.5511 45.1069 69.7044 47.0608C70.0484 51.4469 72.2582 55.4211 76.9131 58.783C80.4545 61.3407 83.8876 63.6944 86.7848 65.6742L87.2979 66.0248C90.0086 67.8768 92.0992 69.3051 93.4303 70.3034C93.9804 70.716 94.11 71.0125 94.1908 71.2907C94.3186 71.731 94.3946 72.5005 94.2379 73.9107L98.4586 74.3797C98.642 72.7295 98.6217 71.3211 98.2691 70.1066C97.9291 68.9353 97.2575 67.8653 95.9783 66.9059C94.5684 65.8485 92.4035 64.3695 89.7505 62.5571L89.7503 62.5569L89.1807 62.1678C86.2847 60.1889 82.8919 57.8625 79.3994 55.3401C75.61 52.6033 74.1714 49.7032 73.9381 46.7287C73.8264 45.3052 73.9967 43.9365 74.2234 42.6834C74.3262 42.1155 74.4442 41.5527 74.5563 41.0184L74.5905 40.8554C74.7144 40.2639 74.8289 39.7073 74.9195 39.1634C75.2758 37.0259 75.055 35.8479 74.6755 35.0889C74.2872 34.3123 73.6167 33.7267 72.4976 32.9807C71.6601 32.4224 70.5891 32.1809 69.0737 31.8391L69.0736 31.8391L68.912 31.8026C67.4256 31.467 65.5959 31.0302 63.963 29.8638C61.1614 27.8627 53.7577 21.2326 51.4141 18.889C49.4816 16.9565 48.516 15.4656 47.0995 13.2785L47.0993 13.2783C46.7144 12.6839 46.2961 12.0382 45.8161 11.3182C45.3069 10.5544 44.5938 9.7103 43.7964 8.9883C42.9864 8.25499 42.1733 7.72359 41.4754 7.47932C40.7986 7.24246 40.4125 7.32579 40.153 7.50276C39.8322 7.72149 39.3099 8.34713 38.9603 10.0076C37.7415 15.7969 32.0387 59.1191 29.3289 80.1526L33.541 80.6953ZM26.2656 79.7579L22.0537 79.2153C24.7289 58.4511 30.4845 14.6611 31.7824 8.49644C32.3053 6.01229 33.4414 3.20071 36.0208 1.44206C38.8298 -0.473165 41.8519 -0.160652 43.8988 0.555738C45.8663 1.24437 47.5163 2.46086 48.7199 3.55059C49.9703 4.68273 51.0786 5.98758 51.9197 7.24928C52.5502 8.19506 53.0455 8.95727 53.46 9.59524C54.7412 11.5671 55.2512 12.3521 56.6012 13.7021C58.816 15.9169 65.8953 22.2295 68.2267 23.8948C68.5215 24.1053 68.9958 24.3014 70.5278 24.6474C70.6278 24.6699 70.7408 24.6944 70.8654 24.7214C72.1131 24.9917 74.5206 25.5132 76.5667 26.8773C77.8718 27.7474 79.942 29.2193 81.2366 31.8085C82.5644 34.464 82.6532 37.382 82.1553 40.3694C82.0368 41.0805 81.8931 41.7727 81.7703 42.3592L81.7386 42.5103C81.6226 43.0636 81.5255 43.527 81.4418 43.9893C81.2604 44.9923 81.2114 45.6478 81.2512 46.1552C81.2853 46.5899 81.387 46.9515 81.6281 47.354C81.8903 47.7917 82.4502 48.4949 83.6944 49.3935C87.1022 51.8547 90.4255 54.1339 93.3194 56.1114L93.9612 56.5498C96.534 58.3072 98.8325 59.8772 100.38 61.0376C102.918 62.9415 104.526 65.3475 105.314 68.0614C106.055 70.6131 105.979 73.1253 105.749 75.1898L101.528 74.7207C101.731 72.8962 101.751 71.023 101.235 69.2454C100.707 67.4246 99.6409 65.7921 97.8314 64.435C96.3639 63.3344 94.1434 61.8175 91.5268 60.03L90.9233 59.6177C88.0282 57.6394 84.6646 55.3329 81.2078 52.8362C78.0478 50.554 77.17 48.4351 77.0172 46.4872C76.9358 45.4495 77.0551 44.3811 77.2627 43.2332C77.3573 42.7106 77.4664 42.1903 77.5797 41.6499L77.5799 41.649L77.6135 41.4886C77.737 40.8992 77.8637 40.2855 77.9661 39.6712C78.382 37.1758 78.2168 35.2652 77.438 33.7077C76.6681 32.1678 75.4083 31.2091 74.2109 30.4108C72.8753 29.5205 71.2606 29.1613 69.9272 28.8647C69.8134 28.8394 69.7017 28.8146 69.5923 28.7899C68.0867 28.4499 66.8277 28.1145 65.7582 27.3505C63.1546 25.4908 55.8875 18.9944 53.5981 16.705C51.9127 15.0196 51.1428 13.8326 49.7713 11.7182L49.7713 11.7182L49.7712 11.7182C49.3727 11.1037 48.9234 10.411 48.386 9.60496C47.737 8.63148 46.8575 7.59341 45.8694 6.69872C44.8937 5.81534 43.7282 4.99548 42.4957 4.56411C41.2421 4.12534 39.7461 4.04201 38.4131 4.95087C37.1413 5.81799 36.3606 7.36402 35.938 9.37129C34.6859 15.3187 28.9609 58.8378 26.2656 79.7579ZM70.8213 36.844C70.8218 36.8436 70.8247 36.8525 70.8285 36.8722C70.8228 36.8543 70.8209 36.8444 70.8213 36.844Z" fill="white"/>
<path fill-rule="evenodd" clip-rule="evenodd" d="M123.413 24.5553C122.976 23.8754 122.615 23.3321 122.31 22.894C122.13 23.1914 121.927 23.5436 121.689 23.9676C121.581 24.1611 121.459 24.3807 121.328 24.6181C120.926 25.3448 120.431 26.2385 119.937 27.0608C118.001 30.2887 116.037 35.2794 115.456 38.1856C115.245 39.2372 115.3 39.6797 115.402 40.1125C115.569 40.8219 115.977 41.873 117.126 44.1708C117.346 44.6118 117.519 44.9386 118.875 45.5894C120.15 46.2014 121.578 46.6978 123.739 47.4487C124.921 47.8595 126.323 48.3465 128.038 48.9701C139.547 53.1553 143.382 61.4065 145.264 66.5821C146.553 70.1286 146.821 74.5869 145.341 78.5652C144.568 80.642 143.221 82.8239 141.032 84.4966C138.777 86.2198 136.06 87.0692 133.196 87.0692H87.253C58.4796 87.0692 44.7186 85.1355 40.4552 84.1881C39.3265 83.9373 38.1949 83.5363 37.3083 83.1961C37.5912 83.807 37.8892 84.4633 38.1657 85.1084C38.7966 86.5805 39.3303 87.9671 39.6899 89.2539C40.0401 90.5072 40.3621 92.1306 40.1827 93.9248C40.0763 94.9889 39.7971 95.9439 39.4383 96.7781H165.24C166.411 96.7781 167.123 96.7335 167.538 96.6903C164.027 91.1748 154.847 76.1188 145.9 61.4131C143.787 57.9409 141.681 54.477 139.65 51.1376C131.603 37.9058 124.746 26.6302 123.413 24.5553ZM23.2663 92.7976L24.5769 91.487C24.5158 91.34 24.4498 91.1836 24.3785 91.0174C24.0281 90.1997 23.7047 89.5121 23.3449 88.7473L23.3449 88.7472L23.3447 88.7469C23.1597 88.3535 22.965 87.9396 22.752 87.477C22.2099 86.2992 21.5271 84.7554 21.0844 83.1053C20.6238 81.3887 20.3121 79.1736 20.8548 76.7229C21.4144 74.1963 22.7294 72.1003 24.4244 70.4052C29.1275 65.7021 34.9394 66.6284 37.9446 67.4777C39.3909 67.8864 40.784 68.4403 41.7358 68.8187L41.9392 68.8995C42.4736 69.1114 42.8627 69.2634 43.2021 69.3837C43.3631 69.4408 43.4854 69.4808 43.577 69.5085C43.6652 69.5351 43.7066 69.5447 43.7091 69.5453L43.7091 69.5453C46.3951 70.1422 58.8872 72.0692 87.253 72.0692H131.268C131.24 71.9352 131.205 71.8129 131.167 71.7082C130.497 69.8661 129.78 68.2853 128.641 66.8903C127.57 65.5785 125.895 64.152 122.911 63.067C121.901 62.6995 120.86 62.3369 119.823 61.9756L119.823 61.9754C117.122 61.0345 114.446 60.102 112.384 59.1123C108.914 57.4467 105.805 55.0709 103.709 50.879C102.542 48.5439 101.406 46.1203 100.801 43.5481C100.13 40.6992 100.185 38.0531 100.747 35.2439C101.71 30.4286 104.379 23.837 107.075 19.3434C107.424 18.7614 107.726 18.2167 108.085 17.5679L108.085 17.567C108.244 17.2802 108.414 16.9731 108.605 16.6334C109.157 15.6478 109.867 14.4167 110.722 13.241C112.458 10.8545 115.496 7.74423 120.481 7.24566C122.9 7.00378 126.389 6.88629 129.837 9.23038C132.515 11.0517 134.437 13.9652 136.03 16.4439C137.476 18.6931 144.517 30.2722 152.592 43.5507C154.592 46.8402 156.656 50.234 158.714 53.6162C169.255 70.9398 179.488 87.702 181.059 89.971C182.888 92.6136 185.408 96.9959 183.713 101.868C182.884 104.253 181.34 105.78 180.22 106.673C179.235 107.459 178.148 108.078 177.552 108.418L177.455 108.473C177.199 108.62 176.96 108.763 176.691 108.925L176.591 108.986L176.59 108.986C176.358 109.126 176.067 109.303 175.782 109.468C175.07 109.879 174.143 110.373 172.965 110.783C170.636 111.593 168.163 111.778 165.24 111.778H27.4113C25.9747 111.778 23.6605 111.507 21.5354 109.923C19.0083 108.039 17.907 105.17 18.0377 102.425C18.1485 100.098 19.0988 98.1765 19.9195 96.8694C20.8015 95.4648 21.9557 94.1081 23.2663 92.7976ZM121.427 16.6985C123.227 16.5185 123.886 16.6721 124.495 17.0862C125.309 17.6397 126.263 18.8189 128.039 21.5811C129.414 23.7198 136.338 35.1068 144.396 48.3565L144.415 48.3881C146.428 51.6993 148.513 55.1264 150.598 58.5542C160.991 75.6353 171.466 92.8049 173.248 95.3785C174.961 97.8525 174.778 98.6401 174.741 98.7468C174.717 98.8138 174.64 98.9721 174.297 99.2459C173.933 99.5363 173.446 99.8227 172.742 100.225C172.22 100.523 171.824 100.763 171.495 100.962L171.494 100.962C170.821 101.37 170.433 101.605 169.844 101.81C169.059 102.083 167.884 102.278 165.24 102.278H27.758C27.814 102.172 27.8823 102.053 27.9649 101.921C28.3487 101.31 28.9884 100.51 29.9837 99.5151L32.1227 97.3762L32.21 97.2888L32.2109 97.288L32.2116 97.2872L32.2126 97.2862L32.2134 97.2854L32.2144 97.2844L32.2151 97.2837L32.2158 97.283L32.2171 97.2817L32.2178 97.281L32.2185 97.2803L32.2193 97.2795L32.2201 97.2787L32.2209 97.2779L32.2219 97.277L32.2227 97.2762L32.2245 97.2743L32.2254 97.2734L32.2264 97.2724L32.2274 97.2714L32.2287 97.2701L32.2305 97.2683L32.2316 97.2672L32.2331 97.2657L32.234 97.2649L32.235 97.2639L32.2363 97.2625L32.2373 97.2615L32.2385 97.2604L32.2398 97.259L32.2409 97.2579L32.2421 97.2567L32.2435 97.2553L32.2447 97.2542L32.2459 97.2529L32.2474 97.2514L32.2491 97.2498L32.2499 97.2489L32.2516 97.2472L32.2526 97.2462L32.2539 97.2449L32.2553 97.2435L32.2567 97.2422L32.2583 97.2405L32.2596 97.2392L32.2608 97.238L32.2637 97.2352L32.2656 97.2332L32.2665 97.2323L32.2682 97.2306L32.2695 97.2294L32.2726 97.2262L32.2737 97.2251L32.2757 97.2231L32.2766 97.2222L32.2787 97.2201L32.2796 97.2193L32.2817 97.2172L32.2825 97.2164L32.2845 97.2143L32.2854 97.2134L32.2883 97.2105L32.2901 97.2087L32.2912 97.2076L32.2928 97.2061L32.2944 97.2045L32.2955 97.2033L32.2976 97.2012L32.2984 97.2004L32.3004 97.1984L32.3012 97.1976L32.3028 97.196L32.3043 97.1945L32.3054 97.1934L32.3074 97.1914L32.3081 97.1907L32.3097 97.1892L32.3113 97.1875L32.3122 97.1866L32.3139 97.1849L32.3149 97.1839L32.3161 97.1827L32.3179 97.1809L32.3187 97.1801L32.32 97.1789L32.3217 97.1771L32.3224 97.1764L32.3236 97.1752L32.3252 97.1736L32.3262 97.1726L32.3272 97.1716L32.3285 97.1703L32.3295 97.1694L32.3306 97.1683L32.3317 97.1672L32.333 97.1658L32.3348 97.164L32.3358 97.163L32.3368 97.1621L32.3377 97.1611L32.3387 97.1602L32.3396 97.1592L32.3406 97.1582L32.3413 97.1575L32.3422 97.1567L32.343 97.1559L32.3437 97.1551L32.3446 97.1542L32.3455 97.1534L32.3463 97.1525L32.3472 97.1516L32.3484 97.1504L32.3497 97.1492L32.3504 97.1484L32.3513 97.1476L32.3522 97.1467L32.3531 97.1457L32.6863 96.8126C32.7461 96.7527 32.813 96.6883 32.885 96.6189C33.5176 96.0094 34.5458 95.0188 34.7099 93.3774C34.7932 92.5451 34.6542 91.6698 34.3927 90.734C34.1287 89.7892 33.7033 88.6585 33.1103 87.2751C32.6953 86.3068 32.2572 85.3745 31.8609 84.5312L31.8609 84.5311C31.6918 84.1714 31.5304 83.8278 31.3816 83.5046C30.8614 82.3745 30.478 81.4567 30.2598 80.6435C30.0464 79.8482 30.0226 79.2621 30.13 78.7771C30.2329 78.3124 30.4936 77.771 31.1419 77.1227C32.0884 76.1762 33.3504 76.0515 35.361 76.6197C36.32 76.8907 37.2944 77.2772 38.3309 77.6883L38.4372 77.7305C39.4512 78.1326 40.5947 78.585 41.6482 78.8191C45.3332 79.638 58.629 81.5692 87.253 81.5692H133.196C134.951 81.5692 136.472 81.0596 137.692 80.1267C138.895 79.2073 139.697 77.9619 140.186 76.6472C141.147 74.0645 141.005 70.9646 140.095 68.4617C138.46 63.9672 135.456 57.52 126.158 54.139C124.738 53.6227 123.469 53.1807 122.323 52.782L122.323 52.7819C119.912 51.9427 118.051 51.2947 116.495 50.5478C114.364 49.5249 113.115 48.4468 112.206 46.6305C111.051 44.319 110.376 42.7646 110.048 41.3722C109.738 40.0535 109.723 38.803 110.062 37.107C110.783 33.5008 113.006 27.9231 115.221 24.2311C115.66 23.4993 116.081 22.7399 116.473 22.0306L116.473 22.0306C116.617 21.7719 116.756 21.52 116.892 21.2784C117.417 20.3416 117.9 19.5237 118.405 18.8286C119.41 17.4478 120.311 16.8101 121.427 16.6985ZM27.1553 96.6867L29.3811 94.4609L29.3824 94.4595L29.3832 94.4588L29.3842 94.4578L29.385 94.457L29.386 94.456L29.3867 94.4553L29.3874 94.4546L29.3887 94.4533L29.3894 94.4526L29.3901 94.4519L29.3909 94.4511L29.3917 94.4503L29.3925 94.4495L29.3934 94.4485L29.3942 94.4477L29.3961 94.4459L29.397 94.445L29.398 94.444L29.399 94.443L29.4002 94.4417L29.401 94.4409L29.4021 94.4399L29.4032 94.4388L29.4047 94.4373L29.4055 94.4364L29.4065 94.4354L29.4079 94.4341L29.4089 94.4331L29.41 94.4319L29.4114 94.4306L29.4125 94.4295L29.4137 94.4283L29.4151 94.4269L29.4162 94.4257L29.4175 94.4244L29.419 94.423L29.4206 94.4213L29.4214 94.4205L29.4232 94.4188L29.4242 94.4178L29.4255 94.4165L29.4269 94.4151L29.4282 94.4137L29.4299 94.4121L29.4312 94.4108L29.4324 94.4096L29.4345 94.4074L29.4352 94.4067L29.4372 94.4047L29.4381 94.4039L29.4398 94.4022L29.441 94.4009L29.4442 94.3978L29.4453 94.3967L29.4473 94.3947L29.4482 94.3938L29.4503 94.3917L29.4511 94.3908L29.4532 94.3887L29.454 94.3879L29.4561 94.3859L29.457 94.385L29.4599 94.3821L29.4617 94.3803L29.4628 94.3792L29.4643 94.3776L29.4659 94.376L29.4671 94.3749L29.4692 94.3728L29.4699 94.372L29.472 94.37L29.4728 94.3692L29.4744 94.3676L29.4759 94.3661L29.477 94.365L29.479 94.363L29.4797 94.3623L29.4812 94.3607L29.4829 94.3591L29.4838 94.3582L29.4855 94.3565L29.4865 94.3555L29.4877 94.3543L29.4895 94.3525L29.4903 94.3517L29.4915 94.3504L29.4933 94.3487L29.494 94.348L29.4952 94.3467L29.4968 94.3452L29.4978 94.3442L29.4988 94.3432L29.5001 94.3419L29.501 94.3409L29.5021 94.3398L29.5032 94.3387L29.5046 94.3373L29.5064 94.3356L29.5074 94.3346L29.5083 94.3336L29.5093 94.3327L29.5102 94.3317L29.5111 94.3308L29.5122 94.3298L29.5129 94.3291L29.5137 94.3282L29.5145 94.3274L29.5153 94.3267L29.5162 94.3258L29.517 94.3249L29.5179 94.3241L29.5188 94.3232L29.52 94.322L29.5212 94.3207L29.522 94.32L29.5228 94.3191L29.5238 94.3182L29.5247 94.3173L29.8578 93.9841C30.7282 93.1138 30.7284 93.0799 30.7288 93.0044C30.7288 92.9968 30.7288 92.9888 30.7298 92.9794C30.7431 92.8465 30.7372 92.5153 30.5403 91.8104C30.3458 91.1143 29.9991 90.1698 29.4338 88.8508C29.0465 87.9472 28.6587 87.1222 28.2756 86.3072L28.2755 86.3071C28.0985 85.9306 27.9225 85.5562 27.7481 85.1772C27.2186 84.027 26.7092 82.8456 26.3965 81.6801C26.079 80.4968 25.9339 79.2249 26.2246 77.9122C26.5199 76.5793 27.2244 75.3833 28.3135 74.2943C30.8417 71.7661 34.0195 72.0839 36.4488 72.7704C37.611 73.0989 38.7587 73.5545 39.7455 73.9462L39.9117 74.0122C40.997 74.4426 41.8321 74.7624 42.516 74.9143C45.7803 75.6398 58.7377 77.5692 87.253 77.5692H133.196C134.144 77.5692 134.795 77.3067 135.263 76.9486C135.749 76.5771 136.154 76.0127 136.437 75.2523C137.02 73.6846 136.97 71.5726 136.335 69.8286C134.881 65.8295 132.481 60.6944 124.791 57.8982C123.557 57.4493 122.384 57.0407 121.278 56.6556C118.725 55.766 116.53 55.0016 114.764 54.1539C112.069 52.8604 110.037 51.2359 108.629 48.4193C107.468 46.0979 106.599 44.1776 106.154 42.2884C105.692 40.3254 105.707 38.4873 106.14 36.3225C106.963 32.2072 109.373 26.2026 111.791 22.1731C112.192 21.5053 112.561 20.839 112.942 20.1505C113.093 19.8785 113.245 19.603 113.402 19.3226C113.939 18.3653 114.518 17.3734 115.17 16.4759C116.483 14.6717 118.284 12.9929 121.029 12.7184C123.089 12.5123 124.94 12.5518 126.744 13.7785C128.343 14.8658 129.705 16.7752 131.404 19.4181C132.809 21.6034 139.783 33.0725 147.848 46.3356L147.849 46.3361C149.86 49.6429 151.938 53.0613 154.015 56.475C164.47 73.6582 174.844 90.6563 176.537 93.1017C178.299 95.6467 179.254 97.9478 178.519 100.061C178.156 101.104 177.461 101.838 176.791 102.373C176.148 102.886 175.388 103.32 174.745 103.687L174.726 103.698C174.451 103.855 174.176 104.022 173.897 104.191C173.048 104.704 172.168 105.237 171.158 105.588C169.723 106.087 168.002 106.278 165.24 106.278H27.4113C26.6035 106.278 25.6325 106.117 24.8225 105.514C23.9053 104.83 23.4789 103.79 23.5314 102.687C23.5787 101.695 24.0002 100.713 24.5774 99.7942C25.1709 98.8489 26.0272 97.8148 27.1553 96.6867Z" fill="white"/>
<path d="M93.9621 60.4085H84.9261V59.6165C84.9261 59.2925 85.0341 58.9865 85.2501 58.6985C85.4661 58.4285 85.7721 58.1945 86.1681 57.9785L91.6761 54.9545C92.3781 54.5765 92.9541 54.1625 93.4221 53.6945C93.8721 53.2265 94.1061 52.5605 94.1061 51.6785C94.1061 50.8145 93.8181 50.1125 93.2421 49.5545C92.6661 48.9965 91.7661 48.7085 90.5421 48.7085H83.0181V50.5085H90.4701C91.0101 50.5085 91.4061 50.6345 91.6221 50.8685C91.8381 51.1205 91.9461 51.3905 91.9461 51.7145C91.9461 52.0925 91.8201 52.3985 91.5861 52.6325C91.3521 52.8845 90.9921 53.1365 90.5241 53.3885L85.1961 56.4125C84.3681 56.8985 83.7561 57.4205 83.3961 57.9965C83.0361 58.5725 82.8561 59.2385 82.8561 59.9945V62.2085H93.9621V60.4085Z" fill="white"/>
</svg>
