<svg width="522" height="252" viewBox="0 0 522 252" fill="none" xmlns="http://www.w3.org/2000/svg">
<path fill-rule="evenodd" clip-rule="evenodd" d="M521 1.5H1V0.5H521V1.5Z" fill="#20202E"/>
<path fill-rule="evenodd" clip-rule="evenodd" d="M521 11.5H1V10.5H521V11.5Z" fill="#20202E"/>
<path fill-rule="evenodd" clip-rule="evenodd" d="M521 21.5H1V20.5H521V21.5Z" fill="#20202E"/>
<path fill-rule="evenodd" clip-rule="evenodd" d="M521 31.5H1V30.5H521V31.5Z" fill="#20202E"/>
<path fill-rule="evenodd" clip-rule="evenodd" d="M521 41.5H1V40.5H521V41.5Z" fill="#20202E"/>
<path fill-rule="evenodd" clip-rule="evenodd" d="M521 51.5H1V50.5H521V51.5Z" fill="#20202E"/>
<path fill-rule="evenodd" clip-rule="evenodd" d="M521 61.5H1V60.5H521V61.5Z" fill="#20202E"/>
<path fill-rule="evenodd" clip-rule="evenodd" d="M521 71.5H1V70.5H521V71.5Z" fill="#20202E"/>
<path fill-rule="evenodd" clip-rule="evenodd" d="M521 81.5H1V80.5H521V81.5Z" fill="#20202E"/>
<path fill-rule="evenodd" clip-rule="evenodd" d="M521 91.5H1V90.5H521V91.5Z" fill="#20202E"/>
<path fill-rule="evenodd" clip-rule="evenodd" d="M521 101.5H1V100.5H521V101.5Z" fill="#20202E"/>
<path fill-rule="evenodd" clip-rule="evenodd" d="M521 111.5H1V110.5H521V111.5Z" fill="#20202E"/>
<path fill-rule="evenodd" clip-rule="evenodd" d="M521 121.5H1V120.5H521V121.5Z" fill="#20202E"/>
<path fill-rule="evenodd" clip-rule="evenodd" d="M521 131.5H1V130.5H521V131.5Z" fill="#20202E"/>
<path fill-rule="evenodd" clip-rule="evenodd" d="M521 141.5H1V140.5H521V141.5Z" fill="#20202E"/>
<path fill-rule="evenodd" clip-rule="evenodd" d="M521 151.5H1V150.5H521V151.5Z" fill="#20202E"/>
<path fill-rule="evenodd" clip-rule="evenodd" d="M521 161.5H1V160.5H521V161.5Z" fill="#20202E"/>
<path fill-rule="evenodd" clip-rule="evenodd" d="M521 171.5H1V170.5H521V171.5Z" fill="#20202E"/>
<path fill-rule="evenodd" clip-rule="evenodd" d="M521 181.5H1V180.5H521V181.5Z" fill="#20202E"/>
<path fill-rule="evenodd" clip-rule="evenodd" d="M521 191.5H1V190.5H521V191.5Z" fill="#20202E"/>
<path fill-rule="evenodd" clip-rule="evenodd" d="M521 201.5H1V200.5H521V201.5Z" fill="#20202E"/>
<path fill-rule="evenodd" clip-rule="evenodd" d="M521 211.5H1V210.5H521V211.5Z" fill="#20202E"/>
<path fill-rule="evenodd" clip-rule="evenodd" d="M521 221.5H1V220.5H521V221.5Z" fill="#20202E"/>
<path fill-rule="evenodd" clip-rule="evenodd" d="M521 231.5H1V230.5H521V231.5Z" fill="#20202E"/>
<path fill-rule="evenodd" clip-rule="evenodd" d="M521 241.5H1V240.5H521V241.5Z" fill="#20202E"/>
<path fill-rule="evenodd" clip-rule="evenodd" d="M521 251.5H1V250.5H521V251.5Z" fill="#20202E"/>
<path fill-rule="evenodd" clip-rule="evenodd" d="M0.5 251L0.5 1L1.5 1L1.5 251L0.5 251Z" fill="#20202E"/>
<path fill-rule="evenodd" clip-rule="evenodd" d="M10.5 251L10.5 1L11.5 1L11.5 251L10.5 251Z" fill="#20202E"/>
<path fill-rule="evenodd" clip-rule="evenodd" d="M20.5 251L20.5 1L21.5 1L21.5 251L20.5 251Z" fill="#20202E"/>
<path fill-rule="evenodd" clip-rule="evenodd" d="M30.5 251L30.5 1L31.5 1L31.5 251L30.5 251Z" fill="#20202E"/>
<path fill-rule="evenodd" clip-rule="evenodd" d="M40.5 251L40.5 1L41.5 1L41.5 251L40.5 251Z" fill="#20202E"/>
<path fill-rule="evenodd" clip-rule="evenodd" d="M50.5 251L50.5 1L51.5 1L51.5 251L50.5 251Z" fill="#20202E"/>
<path fill-rule="evenodd" clip-rule="evenodd" d="M60.5 251L60.5 1L61.5 1L61.5 251L60.5 251Z" fill="#20202E"/>
<path fill-rule="evenodd" clip-rule="evenodd" d="M70.5 251L70.5 1L71.5 1L71.5 251L70.5 251Z" fill="#20202E"/>
<path fill-rule="evenodd" clip-rule="evenodd" d="M80.5 251L80.5 1L81.5 1L81.5 251L80.5 251Z" fill="#20202E"/>
<path fill-rule="evenodd" clip-rule="evenodd" d="M90.5 251L90.5 1L91.5 1L91.5 251L90.5 251Z" fill="#20202E"/>
<path fill-rule="evenodd" clip-rule="evenodd" d="M100.5 251L100.5 1L101.5 1L101.5 251L100.5 251Z" fill="#20202E"/>
<path fill-rule="evenodd" clip-rule="evenodd" d="M110.5 251L110.5 1L111.5 1L111.5 251L110.5 251Z" fill="#20202E"/>
<path fill-rule="evenodd" clip-rule="evenodd" d="M120.5 251L120.5 1L121.5 1L121.5 251L120.5 251Z" fill="#20202E"/>
<path fill-rule="evenodd" clip-rule="evenodd" d="M130.5 251L130.5 1L131.5 1L131.5 251L130.5 251Z" fill="#20202E"/>
<path fill-rule="evenodd" clip-rule="evenodd" d="M140.5 251L140.5 1L141.5 1L141.5 251L140.5 251Z" fill="#20202E"/>
<path fill-rule="evenodd" clip-rule="evenodd" d="M150.5 251L150.5 1L151.5 1L151.5 251L150.5 251Z" fill="#20202E"/>
<path fill-rule="evenodd" clip-rule="evenodd" d="M160.5 251L160.5 1L161.5 1L161.5 251L160.5 251Z" fill="#20202E"/>
<path fill-rule="evenodd" clip-rule="evenodd" d="M170.5 251L170.5 1L171.5 1L171.5 251L170.5 251Z" fill="#20202E"/>
<path fill-rule="evenodd" clip-rule="evenodd" d="M180.5 251L180.5 1L181.5 1L181.5 251L180.5 251Z" fill="#20202E"/>
<path fill-rule="evenodd" clip-rule="evenodd" d="M190.5 251L190.5 1L191.5 1L191.5 251L190.5 251Z" fill="#20202E"/>
<path fill-rule="evenodd" clip-rule="evenodd" d="M200.5 251L200.5 1L201.5 1L201.5 251L200.5 251Z" fill="#20202E"/>
<path fill-rule="evenodd" clip-rule="evenodd" d="M210.5 251L210.5 1L211.5 1L211.5 251L210.5 251Z" fill="#20202E"/>
<path fill-rule="evenodd" clip-rule="evenodd" d="M220.5 251L220.5 1L221.5 1L221.5 251L220.5 251Z" fill="#20202E"/>
<path fill-rule="evenodd" clip-rule="evenodd" d="M230.5 251L230.5 1L231.5 1L231.5 251L230.5 251Z" fill="#20202E"/>
<path fill-rule="evenodd" clip-rule="evenodd" d="M240.5 251L240.5 1L241.5 1L241.5 251L240.5 251Z" fill="#20202E"/>
<path fill-rule="evenodd" clip-rule="evenodd" d="M250.5 251L250.5 1L251.5 1L251.5 251L250.5 251Z" fill="#20202E"/>
<path fill-rule="evenodd" clip-rule="evenodd" d="M260.5 251L260.5 1L261.5 1L261.5 251L260.5 251Z" fill="#20202E"/>
<path fill-rule="evenodd" clip-rule="evenodd" d="M270.5 251L270.5 1L271.5 1L271.5 251L270.5 251Z" fill="#20202E"/>
<path fill-rule="evenodd" clip-rule="evenodd" d="M280.5 251L280.5 1L281.5 1L281.5 251L280.5 251Z" fill="#20202E"/>
<path fill-rule="evenodd" clip-rule="evenodd" d="M290.5 251L290.5 1L291.5 1L291.5 251L290.5 251Z" fill="#20202E"/>
<path fill-rule="evenodd" clip-rule="evenodd" d="M300.5 251L300.5 1L301.5 1L301.5 251L300.5 251Z" fill="#20202E"/>
<path fill-rule="evenodd" clip-rule="evenodd" d="M310.5 251L310.5 1L311.5 1L311.5 251L310.5 251Z" fill="#20202E"/>
<path fill-rule="evenodd" clip-rule="evenodd" d="M320.5 251L320.5 1L321.5 1L321.5 251L320.5 251Z" fill="#20202E"/>
<path fill-rule="evenodd" clip-rule="evenodd" d="M330.5 251L330.5 1L331.5 1L331.5 251L330.5 251Z" fill="#20202E"/>
<path fill-rule="evenodd" clip-rule="evenodd" d="M340.5 251L340.5 1L341.5 1L341.5 251L340.5 251Z" fill="#20202E"/>
<path fill-rule="evenodd" clip-rule="evenodd" d="M350.5 251L350.5 1L351.5 1L351.5 251L350.5 251Z" fill="#20202E"/>
<path fill-rule="evenodd" clip-rule="evenodd" d="M360.5 251L360.5 1L361.5 1L361.5 251L360.5 251Z" fill="#20202E"/>
<path fill-rule="evenodd" clip-rule="evenodd" d="M370.5 251L370.5 1L371.5 1L371.5 251L370.5 251Z" fill="#20202E"/>
<path fill-rule="evenodd" clip-rule="evenodd" d="M380.5 251L380.5 1L381.5 1L381.5 251L380.5 251Z" fill="#20202E"/>
<path fill-rule="evenodd" clip-rule="evenodd" d="M390.5 251L390.5 1L391.5 1L391.5 251L390.5 251Z" fill="#20202E"/>
<path fill-rule="evenodd" clip-rule="evenodd" d="M400.5 251L400.5 1L401.5 1L401.5 251L400.5 251Z" fill="#20202E"/>
<path fill-rule="evenodd" clip-rule="evenodd" d="M410.5 251L410.5 1L411.5 1L411.5 251L410.5 251Z" fill="#20202E"/>
<path fill-rule="evenodd" clip-rule="evenodd" d="M420.5 251L420.5 1L421.5 1L421.5 251L420.5 251Z" fill="#20202E"/>
<path fill-rule="evenodd" clip-rule="evenodd" d="M430.5 251L430.5 1L431.5 1L431.5 251L430.5 251Z" fill="#20202E"/>
<path fill-rule="evenodd" clip-rule="evenodd" d="M440.5 251L440.5 1L441.5 1L441.5 251L440.5 251Z" fill="#20202E"/>
<path fill-rule="evenodd" clip-rule="evenodd" d="M450.5 251L450.5 1L451.5 1L451.5 251L450.5 251Z" fill="#20202E"/>
<path fill-rule="evenodd" clip-rule="evenodd" d="M460.5 251L460.5 1L461.5 1L461.5 251L460.5 251Z" fill="#20202E"/>
<path fill-rule="evenodd" clip-rule="evenodd" d="M470.5 251L470.5 1L471.5 1L471.5 251L470.5 251Z" fill="#20202E"/>
<path fill-rule="evenodd" clip-rule="evenodd" d="M480.5 251L480.5 1L481.5 1L481.5 251L480.5 251Z" fill="#20202E"/>
<path fill-rule="evenodd" clip-rule="evenodd" d="M490.5 251L490.5 1L491.5 1L491.5 251L490.5 251Z" fill="#20202E"/>
<path fill-rule="evenodd" clip-rule="evenodd" d="M500.5 251L500.5 1L501.5 1L501.5 251L500.5 251Z" fill="#20202E"/>
<path fill-rule="evenodd" clip-rule="evenodd" d="M510.5 251L510.5 1L511.5 1L511.5 251L510.5 251Z" fill="#20202E"/>
<path fill-rule="evenodd" clip-rule="evenodd" d="M520.5 251L520.5 1L521.5 1L521.5 251L520.5 251Z" fill="#20202E"/>
<path fill-rule="evenodd" clip-rule="evenodd" d="M230.534 42.1261C228.587 46.501 215.41 81.1383 202.251 115.867C193.858 138.016 185.328 160.591 179.335 176.451C177.111 182.338 175.236 187.301 173.847 190.972C169.342 191.251 162.818 191.503 155.557 191.722C151.208 191.853 146.699 191.971 142.513 192.08C136.565 192.236 131.266 192.374 128 192.51C118.183 192.919 110.131 196.312 104.19 200.198C98.1572 204.145 95.758 211.409 98.1188 217.932C100.345 224.082 106.196 228.008 112.707 228.059C128.298 228.18 162.395 228.472 199.968 228.793C265.264 229.351 341.063 229.999 348.5 229.999C348.707 229.999 348.917 230 349.13 230C355.216 230.003 363.697 230.007 371.561 227.703C380.459 225.097 389.004 219.442 393.95 208.408C398.906 197.351 397.346 187.135 391.465 179.455C386.321 172.736 378.842 169.19 373.579 167.546C367.612 165.681 359.712 165.279 353.11 168.947C349.509 170.947 346.122 174.327 344.566 179.25C343.889 181.391 343.653 183.525 343.738 185.589C342.547 185.539 341.28 185.485 339.947 185.428C332.315 185.102 322.563 184.671 312.474 184.226L310.187 184.126C302.34 183.78 294.339 183.427 287.048 183.111C291.962 181.082 296.501 177.644 300.643 172.771C304.266 168.509 306.371 163.625 306.737 158.354C307.087 153.3 305.774 148.843 304.227 145.34C302.697 141.874 300.675 138.767 298.989 136.321C298.163 135.123 297.483 134.169 296.878 133.321C296.031 132.131 295.329 131.147 294.575 129.98C290.251 123.298 288.908 114.521 292.851 108.852C294.134 107.007 296.233 105.702 300.777 105.167C304.567 104.721 308.3 104.951 312.694 105.221C314.195 105.314 315.772 105.411 317.455 105.487C318.761 105.547 320.34 105.635 322.116 105.735C327.156 106.017 333.785 106.389 340.287 106.437C348.848 106.5 359.24 106.069 367.295 103.384C370.953 102.164 374.545 100.532 377.399 98.0965C380.445 95.4972 383.512 91.1173 383.094 85.2695C382.72 80.0246 379.703 76.5658 377.8 74.8743C375.772 73.0714 373.44 71.8303 371.295 71.1153C367.797 69.9496 332.921 60.7564 324.059 58.8781C322.36 58.5181 320.678 58.4557 319.051 58.6406C314.853 59.1174 299.019 61.2216 285.186 63.0817C285.935 59.5291 285.846 55.8477 285.397 52.434C284.392 44.7966 280.872 38.5601 275.517 34.2642C270.381 30.1442 264.324 28.4061 258.895 28.0285C253.474 27.6514 247.961 28.5671 243.21 30.5521C238.755 32.4132 233.271 35.9672 230.534 42.126L230.534 42.1261ZM240.687 82.2774C235.991 94.5868 230.379 109.366 224.693 124.371C216.324 146.459 207.78 169.069 201.778 184.956C198.169 194.507 195.478 201.628 194.296 204.744C196.433 204.762 198.584 204.78 200.747 204.799C218.533 204.951 237.075 205.109 254.784 205.26C252.883 204.637 250.758 203.51 248.874 201.47C246.73 199.15 245.389 196.385 244.571 194.439C243.657 192.267 242.91 189.916 242.312 187.665C241.131 183.219 240.29 178.226 240.062 174.141C239.862 170.537 240.964 164.724 246.397 161.064C251.602 157.558 257.328 157.698 260.816 158.104C264.479 158.53 268.31 159.608 271.296 160.461C274.295 161.318 275.827 161.424 276.942 161.211C277.706 161.066 279.533 160.55 282.357 157.228C282.608 156.932 282.731 156.737 282.788 156.629C282.768 156.451 282.679 155.955 282.272 155.034C281.678 153.687 280.7 152.076 279.23 149.944C278.845 149.386 278.353 148.692 277.814 147.931C276.708 146.371 275.404 144.532 274.425 143.019C267.749 132.701 261.092 112.478 273.149 95.1467C275.199 92.1997 277.546 89.8546 280.051 87.991C272.841 88.9655 267.302 89.721 266.197 89.8789C263.903 90.2066 258.011 90.8853 251.619 88.8941C247.771 87.6957 243.931 85.5745 240.687 82.2774ZM282.83 156.526C282.833 156.525 282.828 156.545 282.809 156.586C282.818 156.547 282.828 156.526 282.83 156.526ZM368.855 202.781C370.176 201.796 371.208 200.467 372.05 198.591C372.965 196.55 372.935 195.482 372.9 195.146C372.868 194.835 372.769 194.515 372.409 194.044C372.01 193.523 371.312 192.867 370.237 192.19C370.61 194.089 370.918 196.99 369.994 200.073C369.717 200.996 369.339 201.906 368.855 202.781ZM364.153 190.186C364.152 190.186 364.161 190.184 364.178 190.181C364.162 190.185 364.153 190.187 364.153 190.186ZM256.686 62.938C256.686 62.9381 256.687 62.947 256.688 62.9643C256.686 62.9465 256.685 62.9378 256.686 62.938ZM346.682 196.807C346.682 196.808 346.681 196.802 346.678 196.79C346.681 196.801 346.682 196.807 346.682 196.807Z" fill="white"/>
<path fill-rule="evenodd" clip-rule="evenodd" d="M248.8 43.9315C246.112 45.0542 244.423 46.5794 243.785 48.0151L243.777 48.0313L243.77 48.0474C242.319 51.1913 228.248 88.1689 214.15 125.385C206.322 146.051 198.51 166.727 192.907 181.556C188.448 193.356 185.389 201.454 184.833 202.897V202.897C184.609 203.479 184.176 203.957 183.618 204.236V204.236C183.091 204.499 182.458 204.638 181.998 204.726C181.46 204.828 180.814 204.918 180.096 205.001C178.655 205.167 176.788 205.314 174.64 205.448C170.335 205.716 164.773 205.936 158.956 206.123C153.478 206.3 147.79 206.448 142.673 206.581C136.864 206.732 131.793 206.865 128.604 206.997C125.859 207.112 123.31 207.565 120.972 208.246C117.292 209.318 118.446 213.604 122.278 213.635C140.143 213.781 169.042 214.028 200.313 214.295C208.174 214.363 216.185 214.431 224.209 214.5C282.783 215 342.014 215.5 348.5 215.5C355.079 215.5 361.704 215.481 367.485 213.788C373.108 212.141 377.822 208.939 380.719 202.477C383.613 196.02 382.428 191.503 379.952 188.269C377.324 184.836 372.991 182.554 369.254 181.386C365.664 180.264 362.174 180.499 360.152 181.622C359.202 182.15 358.643 182.824 358.392 183.62C358.132 184.441 358.099 185.715 358.83 187.593C359.713 189.864 360.354 191.703 360.722 193.174C361.067 194.555 361.289 196.03 360.895 197.343C360.675 198.076 360.271 198.736 359.669 199.258C359.092 199.756 358.446 200.029 357.875 200.189C356.821 200.483 355.572 200.5 354.5 200.5C352.352 200.5 332.873 199.64 312.069 198.723C310.369 198.648 308.661 198.572 306.952 198.497C284.205 197.494 261.427 196.5 258.5 196.5V196.5C258.065 196.5 257.637 196.386 257.26 196.17V196.17C256.394 195.676 255.718 194.937 255.194 194.217C254.655 193.476 254.174 192.609 253.745 191.694C252.886 189.865 252.138 187.634 251.522 185.333C250.297 180.755 249.5 175.53 249.5 172V172C249.5 171.403 249.713 170.826 250.102 170.373V170.373C252.357 167.742 255.595 167.233 258.67 167.443C261.728 167.651 265.233 168.609 268.687 169.596C272.082 170.566 275.37 171.182 278.72 170.544C281.996 169.92 285.642 168.031 289.595 163.38C291.408 161.248 292.14 159.244 292.272 157.35C292.406 155.41 291.925 153.375 290.963 151.197C289.998 149.011 288.607 146.808 287.051 144.551C286.507 143.762 285.926 142.944 285.341 142.12C284.321 140.683 283.286 139.225 282.401 137.858C276.656 128.979 272.103 113.287 280.948 100.572C285.514 94.0083 292.326 91.5615 299.083 90.7667C304.29 90.1541 309.789 90.4993 314.46 90.7925C315.749 90.8734 316.974 90.9503 318.114 91.0021C319.657 91.0723 321.4 91.17 323.293 91.2762C328.27 91.5552 334.279 91.8922 340.393 91.9371C348.881 91.9995 357.138 91.4851 362.709 89.6278C365.572 88.6736 367.165 87.7675 367.987 87.0666C368.059 87.005 368.123 86.9469 368.18 86.8923C368.535 86.5534 368.534 86.0377 368.167 85.7118V85.7118C367.74 85.3322 367.169 85.0244 366.709 84.8713C363.933 83.9457 330.632 75.1489 321.486 73.1562C321.074 73.0665 320.678 73.0481 320.259 73.0973C311.842 74.0861 268.204 79.9958 264.854 80.4744C262.99 80.7406 258.794 81.1789 254.444 79.8239C249.949 78.4239 245.41 75.1345 243.128 68.2901C242.011 64.9382 241.907 62.007 242.738 59.5976C243.585 57.1473 245.318 55.4877 247.34 54.6339C251.102 53.0454 256.341 54.2074 258.276 58.465C258.609 59.1973 259.7 60.4034 261.47 61.5152C263.183 62.5909 265.134 63.3242 266.803 63.4434C268.416 63.5586 269.474 63.1115 270.146 62.1826C270.924 61.1074 271.613 58.8213 271.021 54.3256C270.476 50.1772 268.717 47.3983 266.443 45.5746C264.124 43.7142 261.1 42.717 257.889 42.4936C254.676 42.2701 251.425 42.8346 248.8 43.9315ZM368.635 86.2562V86.2562C368.64 86.2569 368.629 86.2556 368.635 86.2562V86.2562ZM269.572 41.6745C272.908 44.3507 275.274 48.3218 275.979 53.6733C276.637 58.6776 276.076 62.5166 274.197 65.1132C272.213 67.8563 269.209 68.628 266.447 68.4307C263.741 68.2374 261.004 67.127 258.811 65.7495C256.675 64.4082 254.641 62.5518 253.724 60.534C253.159 59.2916 251.148 58.4537 249.285 59.2401C248.495 59.5738 247.822 60.1955 247.465 61.2295C247.093 62.3046 246.989 64.0608 247.872 66.709C249.59 71.8646 252.801 74.0752 255.931 75.0501C259.206 76.0702 262.51 75.7585 264.146 75.5247C267.628 75.0273 315.687 68.5184 320.751 68.0119V68.0119C320.998 67.9873 321.247 67.9994 321.49 68.0481V68.0481C329.076 69.5653 365.178 79.0903 368.291 80.1278C369.331 80.4747 370.51 81.1044 371.489 81.9748C372.442 82.822 373.491 84.161 373.619 85.9464C373.755 87.8574 372.795 89.5368 371.232 90.87C369.71 92.1691 367.428 93.3255 364.291 94.3713C357.862 96.514 348.869 96.9996 340.357 96.937C334.11 96.891 327.891 96.5424 322.888 96.2619C321.033 96.1579 319.346 96.0633 317.886 95.997C316.577 95.9375 315.234 95.8539 313.868 95.7688C309.254 95.4816 304.379 95.1781 299.667 95.7324C293.674 96.4375 288.486 98.4908 285.052 103.427C277.897 113.712 281.344 127.02 286.599 135.141C287.437 136.437 288.348 137.718 289.313 139.076C289.912 139.919 290.531 140.79 291.168 141.713C292.768 144.035 294.377 146.55 295.537 149.177C296.7 151.812 297.469 154.683 297.26 157.696C297.047 160.755 295.842 163.752 293.405 166.619C288.858 171.968 284.254 174.579 279.655 175.455C275.13 176.317 270.918 175.433 267.313 174.403C263.767 173.39 260.772 172.598 258.33 172.431C257.711 172.389 257.169 172.39 256.691 172.428C255.281 172.542 254.556 173.942 254.709 175.348C254.998 177.99 255.572 181.126 256.353 184.041C256.924 186.178 257.583 188.103 258.271 189.57C258.615 190.304 258.943 190.871 259.238 191.276V191.276C259.35 191.431 259.52 191.516 259.712 191.521C265.498 191.671 286.479 192.59 307.173 193.502C308.714 193.57 310.254 193.638 311.786 193.705C332.867 194.635 352.471 195.5 354.5 195.5C354.68 195.5 354.847 195.498 354.999 195.496C355.593 195.488 356.015 194.963 355.872 194.387V194.387C355.583 193.234 355.037 191.635 354.17 189.406C353.151 186.784 352.93 184.308 353.624 182.113C354.326 179.894 355.86 178.287 357.723 177.252C361.326 175.25 366.336 175.235 370.746 176.613C375.009 177.946 380.426 180.663 383.923 185.23C387.572 189.997 388.887 196.479 385.281 204.522C381.678 212.561 375.642 216.608 368.89 218.586C362.357 220.5 355.058 220.5 348.679 220.5H348.5C341.986 220.5 282.717 219.999 224.166 219.499C216.185 219.431 208.216 219.363 200.397 219.296C150.828 218.872 107.227 218.5 104 218.5V218.5C101.843 218.5 100.698 215.951 102.131 214.339V214.339C106.437 209.495 115.528 202.538 128.396 202.002C131.599 201.868 136.751 201.734 142.616 201.581C147.739 201.447 153.407 201.3 158.794 201.126C164.602 200.939 170.102 200.721 174.329 200.458C176.446 200.326 178.212 200.185 179.525 200.034V200.034C180.209 199.955 180.78 199.493 181.024 198.849C182.319 195.431 184.869 188.682 188.208 179.846C193.809 165.023 201.63 144.323 209.475 123.614C223.48 86.6397 237.636 49.4273 239.223 45.9684C240.588 42.9123 243.581 40.6929 246.872 39.3179C250.231 37.9148 254.262 37.2292 258.236 37.5056C262.212 37.7822 266.282 39.0349 269.572 41.6745Z" fill="black"/>
</svg>
