<svg width="522" height="252" viewBox="0 0 522 252" fill="none" xmlns="http://www.w3.org/2000/svg">
<path fill-rule="evenodd" clip-rule="evenodd" d="M521 1.5H1V0.5H521V1.5Z" fill="#20202E"/>
<path fill-rule="evenodd" clip-rule="evenodd" d="M521 11.5H1V10.5H521V11.5Z" fill="#20202E"/>
<path fill-rule="evenodd" clip-rule="evenodd" d="M521 21.5H1V20.5H521V21.5Z" fill="#20202E"/>
<path fill-rule="evenodd" clip-rule="evenodd" d="M521 31.5H1V30.5H521V31.5Z" fill="#20202E"/>
<path fill-rule="evenodd" clip-rule="evenodd" d="M521 41.5H1V40.5H521V41.5Z" fill="#20202E"/>
<path fill-rule="evenodd" clip-rule="evenodd" d="M521 51.5H1V50.5H521V51.5Z" fill="#20202E"/>
<path fill-rule="evenodd" clip-rule="evenodd" d="M521 61.5H1V60.5H521V61.5Z" fill="#20202E"/>
<path fill-rule="evenodd" clip-rule="evenodd" d="M521 71.5H1V70.5H521V71.5Z" fill="#20202E"/>
<path fill-rule="evenodd" clip-rule="evenodd" d="M521 81.5H1V80.5H521V81.5Z" fill="#20202E"/>
<path fill-rule="evenodd" clip-rule="evenodd" d="M521 91.5H1V90.5H521V91.5Z" fill="#20202E"/>
<path fill-rule="evenodd" clip-rule="evenodd" d="M521 101.5H1V100.5H521V101.5Z" fill="#20202E"/>
<path fill-rule="evenodd" clip-rule="evenodd" d="M521 111.5H1V110.5H521V111.5Z" fill="#20202E"/>
<path fill-rule="evenodd" clip-rule="evenodd" d="M521 121.5H1V120.5H521V121.5Z" fill="#20202E"/>
<path fill-rule="evenodd" clip-rule="evenodd" d="M521 131.5H1V130.5H521V131.5Z" fill="#20202E"/>
<path fill-rule="evenodd" clip-rule="evenodd" d="M521 141.5H1V140.5H521V141.5Z" fill="#20202E"/>
<path fill-rule="evenodd" clip-rule="evenodd" d="M521 151.5H1V150.5H521V151.5Z" fill="#20202E"/>
<path fill-rule="evenodd" clip-rule="evenodd" d="M521 161.5H1V160.5H521V161.5Z" fill="#20202E"/>
<path fill-rule="evenodd" clip-rule="evenodd" d="M521 171.5H1V170.5H521V171.5Z" fill="#20202E"/>
<path fill-rule="evenodd" clip-rule="evenodd" d="M521 181.5H1V180.5H521V181.5Z" fill="#20202E"/>
<path fill-rule="evenodd" clip-rule="evenodd" d="M521 191.5H1V190.5H521V191.5Z" fill="#20202E"/>
<path fill-rule="evenodd" clip-rule="evenodd" d="M521 201.5H1V200.5H521V201.5Z" fill="#20202E"/>
<path fill-rule="evenodd" clip-rule="evenodd" d="M521 211.5H1V210.5H521V211.5Z" fill="#20202E"/>
<path fill-rule="evenodd" clip-rule="evenodd" d="M521 221.5H1V220.5H521V221.5Z" fill="#20202E"/>
<path fill-rule="evenodd" clip-rule="evenodd" d="M521 231.5H1V230.5H521V231.5Z" fill="#20202E"/>
<path fill-rule="evenodd" clip-rule="evenodd" d="M521 241.5H1V240.5H521V241.5Z" fill="#20202E"/>
<path fill-rule="evenodd" clip-rule="evenodd" d="M521 251.5H1V250.5H521V251.5Z" fill="#20202E"/>
<path fill-rule="evenodd" clip-rule="evenodd" d="M0.5 251L0.5 1L1.5 1L1.5 251L0.5 251Z" fill="#20202E"/>
<path fill-rule="evenodd" clip-rule="evenodd" d="M10.5 251L10.5 1L11.5 1L11.5 251L10.5 251Z" fill="#20202E"/>
<path fill-rule="evenodd" clip-rule="evenodd" d="M20.5 251L20.5 1L21.5 1L21.5 251L20.5 251Z" fill="#20202E"/>
<path fill-rule="evenodd" clip-rule="evenodd" d="M30.5 251L30.5 1L31.5 1L31.5 251L30.5 251Z" fill="#20202E"/>
<path fill-rule="evenodd" clip-rule="evenodd" d="M40.5 251L40.5 1L41.5 1L41.5 251L40.5 251Z" fill="#20202E"/>
<path fill-rule="evenodd" clip-rule="evenodd" d="M50.5 251L50.5 1L51.5 1L51.5 251L50.5 251Z" fill="#20202E"/>
<path fill-rule="evenodd" clip-rule="evenodd" d="M60.5 251L60.5 1L61.5 1L61.5 251L60.5 251Z" fill="#20202E"/>
<path fill-rule="evenodd" clip-rule="evenodd" d="M70.5 251L70.5 1L71.5 1L71.5 251L70.5 251Z" fill="#20202E"/>
<path fill-rule="evenodd" clip-rule="evenodd" d="M80.5 251L80.5 1L81.5 1L81.5 251L80.5 251Z" fill="#20202E"/>
<path fill-rule="evenodd" clip-rule="evenodd" d="M90.5 251L90.5 1L91.5 1L91.5 251L90.5 251Z" fill="#20202E"/>
<path fill-rule="evenodd" clip-rule="evenodd" d="M100.5 251L100.5 1L101.5 1L101.5 251L100.5 251Z" fill="#20202E"/>
<path fill-rule="evenodd" clip-rule="evenodd" d="M110.5 251L110.5 1L111.5 1L111.5 251L110.5 251Z" fill="#20202E"/>
<path fill-rule="evenodd" clip-rule="evenodd" d="M120.5 251L120.5 1L121.5 1L121.5 251L120.5 251Z" fill="#20202E"/>
<path fill-rule="evenodd" clip-rule="evenodd" d="M130.5 251L130.5 1L131.5 1L131.5 251L130.5 251Z" fill="#20202E"/>
<path fill-rule="evenodd" clip-rule="evenodd" d="M140.5 251L140.5 1L141.5 1L141.5 251L140.5 251Z" fill="#20202E"/>
<path fill-rule="evenodd" clip-rule="evenodd" d="M150.5 251L150.5 1L151.5 1L151.5 251L150.5 251Z" fill="#20202E"/>
<path fill-rule="evenodd" clip-rule="evenodd" d="M160.5 251L160.5 1L161.5 1L161.5 251L160.5 251Z" fill="#20202E"/>
<path fill-rule="evenodd" clip-rule="evenodd" d="M170.5 251L170.5 1L171.5 1L171.5 251L170.5 251Z" fill="#20202E"/>
<path fill-rule="evenodd" clip-rule="evenodd" d="M180.5 251L180.5 1L181.5 1L181.5 251L180.5 251Z" fill="#20202E"/>
<path fill-rule="evenodd" clip-rule="evenodd" d="M190.5 251L190.5 1L191.5 1L191.5 251L190.5 251Z" fill="#20202E"/>
<path fill-rule="evenodd" clip-rule="evenodd" d="M200.5 251L200.5 1L201.5 1L201.5 251L200.5 251Z" fill="#20202E"/>
<path fill-rule="evenodd" clip-rule="evenodd" d="M210.5 251L210.5 1L211.5 1L211.5 251L210.5 251Z" fill="#20202E"/>
<path fill-rule="evenodd" clip-rule="evenodd" d="M220.5 251L220.5 1L221.5 1L221.5 251L220.5 251Z" fill="#20202E"/>
<path fill-rule="evenodd" clip-rule="evenodd" d="M230.5 251L230.5 1L231.5 1L231.5 251L230.5 251Z" fill="#20202E"/>
<path fill-rule="evenodd" clip-rule="evenodd" d="M240.5 251L240.5 1L241.5 1L241.5 251L240.5 251Z" fill="#20202E"/>
<path fill-rule="evenodd" clip-rule="evenodd" d="M250.5 251L250.5 1L251.5 1L251.5 251L250.5 251Z" fill="#20202E"/>
<path fill-rule="evenodd" clip-rule="evenodd" d="M260.5 251L260.5 1L261.5 1L261.5 251L260.5 251Z" fill="#20202E"/>
<path fill-rule="evenodd" clip-rule="evenodd" d="M270.5 251L270.5 1L271.5 1L271.5 251L270.5 251Z" fill="#20202E"/>
<path fill-rule="evenodd" clip-rule="evenodd" d="M280.5 251L280.5 1L281.5 1L281.5 251L280.5 251Z" fill="#20202E"/>
<path fill-rule="evenodd" clip-rule="evenodd" d="M290.5 251L290.5 1L291.5 1L291.5 251L290.5 251Z" fill="#20202E"/>
<path fill-rule="evenodd" clip-rule="evenodd" d="M300.5 251L300.5 1L301.5 1L301.5 251L300.5 251Z" fill="#20202E"/>
<path fill-rule="evenodd" clip-rule="evenodd" d="M310.5 251L310.5 1L311.5 1L311.5 251L310.5 251Z" fill="#20202E"/>
<path fill-rule="evenodd" clip-rule="evenodd" d="M320.5 251L320.5 1L321.5 1L321.5 251L320.5 251Z" fill="#20202E"/>
<path fill-rule="evenodd" clip-rule="evenodd" d="M330.5 251L330.5 1L331.5 1L331.5 251L330.5 251Z" fill="#20202E"/>
<path fill-rule="evenodd" clip-rule="evenodd" d="M340.5 251L340.5 1L341.5 1L341.5 251L340.5 251Z" fill="#20202E"/>
<path fill-rule="evenodd" clip-rule="evenodd" d="M350.5 251L350.5 1L351.5 1L351.5 251L350.5 251Z" fill="#20202E"/>
<path fill-rule="evenodd" clip-rule="evenodd" d="M360.5 251L360.5 1L361.5 1L361.5 251L360.5 251Z" fill="#20202E"/>
<path fill-rule="evenodd" clip-rule="evenodd" d="M370.5 251L370.5 1L371.5 1L371.5 251L370.5 251Z" fill="#20202E"/>
<path fill-rule="evenodd" clip-rule="evenodd" d="M380.5 251L380.5 1L381.5 1L381.5 251L380.5 251Z" fill="#20202E"/>
<path fill-rule="evenodd" clip-rule="evenodd" d="M390.5 251L390.5 1L391.5 1L391.5 251L390.5 251Z" fill="#20202E"/>
<path fill-rule="evenodd" clip-rule="evenodd" d="M400.5 251L400.5 1L401.5 1L401.5 251L400.5 251Z" fill="#20202E"/>
<path fill-rule="evenodd" clip-rule="evenodd" d="M410.5 251L410.5 1L411.5 1L411.5 251L410.5 251Z" fill="#20202E"/>
<path fill-rule="evenodd" clip-rule="evenodd" d="M420.5 251L420.5 1L421.5 1L421.5 251L420.5 251Z" fill="#20202E"/>
<path fill-rule="evenodd" clip-rule="evenodd" d="M430.5 251L430.5 1L431.5 1L431.5 251L430.5 251Z" fill="#20202E"/>
<path fill-rule="evenodd" clip-rule="evenodd" d="M440.5 251L440.5 1L441.5 1L441.5 251L440.5 251Z" fill="#20202E"/>
<path fill-rule="evenodd" clip-rule="evenodd" d="M450.5 251L450.5 1L451.5 1L451.5 251L450.5 251Z" fill="#20202E"/>
<path fill-rule="evenodd" clip-rule="evenodd" d="M460.5 251L460.5 1L461.5 1L461.5 251L460.5 251Z" fill="#20202E"/>
<path fill-rule="evenodd" clip-rule="evenodd" d="M470.5 251L470.5 1L471.5 1L471.5 251L470.5 251Z" fill="#20202E"/>
<path fill-rule="evenodd" clip-rule="evenodd" d="M480.5 251L480.5 1L481.5 1L481.5 251L480.5 251Z" fill="#20202E"/>
<path fill-rule="evenodd" clip-rule="evenodd" d="M490.5 251L490.5 1L491.5 1L491.5 251L490.5 251Z" fill="#20202E"/>
<path fill-rule="evenodd" clip-rule="evenodd" d="M500.5 251L500.5 1L501.5 1L501.5 251L500.5 251Z" fill="#20202E"/>
<path fill-rule="evenodd" clip-rule="evenodd" d="M510.5 251L510.5 1L511.5 1L511.5 251L510.5 251Z" fill="#20202E"/>
<path fill-rule="evenodd" clip-rule="evenodd" d="M520.5 251L520.5 1L521.5 1L521.5 251L520.5 251Z" fill="#20202E"/>
<path fill-rule="evenodd" clip-rule="evenodd" d="M189.704 55.0382C177.301 51.4948 166.315 50.5699 151.62 51.9475C147.816 52.3042 146.031 52.7882 145.306 53.048C145.202 53.3251 145.056 53.7636 144.885 54.4211C144.414 56.2237 144.021 58.5035 143.396 62.1284C143.373 62.2633 143.35 62.4001 143.326 62.5388C143.224 63.1285 143.115 63.7622 142.998 64.4357C141.672 72.1075 139.452 84.9505 137.757 96.9315C136.832 103.466 136.093 109.544 135.731 114.287C135.549 116.673 135.48 118.515 135.501 119.806C135.503 119.946 135.506 120.071 135.51 120.183C135.647 120.398 135.835 120.683 136.083 121.04C136.126 120.968 136.168 120.896 136.21 120.826C138.793 116.522 143.13 112.441 146.79 109.286C150.75 105.872 155.285 102.411 159.3 99.3999C163.125 96.5314 174.025 88.8121 184.965 81.0643C185.958 80.3611 186.951 79.6577 187.939 78.9577C200.206 70.2688 211.365 62.3411 213.504 60.6297C213.632 60.5276 213.851 60.3462 214.129 60.1158C214.222 60.0388 214.322 59.9563 214.427 59.8695C206.844 59.8477 198.981 57.6889 189.704 55.0382ZM257.933 67.4986C257.938 67.497 257.943 67.4955 257.948 67.4939C259.479 67.0346 261.161 66.3849 262.354 65.9244C262.563 65.8435 262.757 65.7685 262.933 65.7014C264.369 65.1524 265.386 64.7947 266.251 64.5723C266.291 64.6588 266.336 64.7693 266.387 64.9111C266.549 65.3642 266.736 66.0622 266.949 67.2401C267.134 68.2683 267.288 69.3513 267.491 70.7826C267.532 71.0724 267.575 71.3765 267.621 71.6972C268.416 77.2636 270.331 81.5924 273.913 85.3174C275.274 86.7327 276.753 87.9197 277.736 88.7094L277.963 88.8912C279.016 89.7366 279.914 90.4574 280.928 91.3793C281.488 91.8884 282.615 92.9063 284.2 94.3374C290.615 100.131 304.53 112.699 318.694 125.712C327.518 133.819 336.377 142.042 343.509 148.841C350.949 155.935 355.751 160.773 357.13 162.496C357.334 162.752 357.51 162.987 357.66 163.201C356.356 163.485 354.584 163.762 352.085 164.125C351.931 164.147 351.772 164.17 351.607 164.194C348.594 164.629 343.933 165.302 340.044 166.858C336.953 168.095 329.465 171.727 322.434 175.305C315.466 178.849 307.543 183.049 303.844 185.515C302.005 186.741 298.274 189.424 296.653 194.135C295.119 198.594 296.153 202.366 297.432 204.899C296.582 204.652 295.939 204.375 295.354 204.052C294.072 203.346 292.192 201.928 289.263 198.371C283.488 191.359 261.228 166.111 250.983 154.544L250.569 154.077L250.109 153.655C249.905 153.468 249.707 153.288 249.516 153.115C249.559 153.047 249.602 152.978 249.646 152.908C252.759 147.98 256.156 142.163 258.469 136.073C260.757 130.047 262.429 122.613 260.714 114.897C259.253 108.322 255.511 102.001 252.409 97.3792C255.406 96.7332 258.623 95.3484 261.485 92.4854C266.301 87.67 266.027 81.5849 264.888 77.8968C263.853 74.5456 261.86 71.8205 260.207 69.9067C259.512 69.102 258.751 68.2983 257.933 67.4986ZM243.581 85.2302C243.582 85.2304 243.59 85.2445 243.604 85.2721C243.588 85.2438 243.58 85.2299 243.581 85.2302ZM267.271 64.3793C267.27 64.3801 267.252 64.3816 267.218 64.3814C267.255 64.3784 267.272 64.3785 267.271 64.3793ZM144.885 53.2306C144.883 53.2301 144.901 53.2186 144.942 53.1981C144.907 53.2209 144.887 53.2312 144.885 53.2306ZM149.38 28.0523C166.685 26.43 180.699 27.5051 196.297 31.9617C210.968 36.1534 214.558 36.3604 217.704 35.4617C218.771 35.1566 219.631 34.861 220.677 34.5013C220.983 34.3962 221.304 34.2857 221.651 34.1679C222.894 33.7463 225.081 33.0047 227.494 32.7122C230.291 32.3731 233.501 32.5999 236.805 34.08C239.855 35.4463 242.161 37.5179 243.92 39.4724C244.814 40.4665 246.966 42.0903 249.556 43.2758C250.6 43.7536 251.447 44.0341 252.025 44.1744C252.406 44.0344 252.864 43.8585 253.46 43.6295C253.731 43.5255 254.031 43.4105 254.365 43.283C255.898 42.6968 258.031 41.9 260.349 41.3093C264.804 40.1737 272.487 39.1527 279.558 44.2951C289.085 51.2237 290.374 60.8301 291.198 66.9756C291.26 67.4386 291.319 67.882 291.38 68.3031C291.419 68.5794 291.458 68.7895 291.49 68.9434C291.724 69.1491 292.119 69.4788 292.849 70.0648C292.918 70.1203 292.99 70.1775 293.063 70.2364C294.079 71.0515 295.495 72.1868 297.072 73.6207C297.59 74.0911 298.662 75.0594 300.183 76.4335C306.52 82.1564 320.649 94.9162 334.931 108.038C343.795 116.181 352.78 124.521 360.07 131.471C367.052 138.128 373.249 144.227 375.871 147.504C381.608 154.676 384.136 163.069 381.469 171.229C379.01 178.748 372.983 183.32 367.601 185.277C363.693 186.699 359.149 187.354 356.099 187.794C355.907 187.822 355.72 187.849 355.54 187.875C351.646 188.441 349.855 188.783 348.957 189.142C347.048 189.905 340.536 193.023 333.317 196.695C329.943 198.412 326.72 200.095 324.004 201.56C326.857 210.426 321.973 218.248 318.048 222.173C313.595 226.626 306.31 230.514 297.914 229.395C293.461 228.801 288.68 227.777 283.771 225.073C278.928 222.404 274.808 218.572 270.737 213.628C265.386 207.131 244.031 182.895 233.449 170.944C233.309 170.818 233.161 170.685 233.005 170.545C231.962 169.607 230.608 168.39 229.618 167.368C228.144 165.847 225.866 163.223 224.738 159.386C223.528 155.273 224.104 151.46 225.155 148.37C226.13 145.505 227.699 142.714 229.354 140.093C232.242 135.521 234.594 131.338 236.032 127.553C237.494 123.703 237.571 121.387 237.286 120.104C236.815 117.983 235.09 114.584 232.142 110.252C230.779 108.249 229.342 106.311 227.958 104.476C227.701 104.134 227.435 103.784 227.167 103.429C226.104 102.026 224.997 100.565 224.169 99.382C222.918 97.5941 221.438 95.1165 220.692 92.1603C220.218 90.2769 219.974 87.8266 220.523 85.2347C215.369 88.9365 208.532 93.7823 201.811 98.5424C200.909 99.1816 200.006 99.8209 199.107 100.458C187.925 108.378 177.243 115.943 173.7 118.6C169.743 121.568 165.806 124.585 162.529 127.405C165.165 128.764 167.832 130.496 170.1 132.694C173.962 136.435 177.998 143.103 175.494 151.448C171.548 164.603 154.762 171.071 141.684 161.012C137.717 157.96 131.597 152.198 126.268 146.543C123.552 143.662 120.853 140.61 118.602 137.738C116.586 135.166 114.12 131.74 112.8 128.308C111.653 125.325 111.534 122.041 111.504 120.194C111.466 117.861 111.592 115.202 111.801 112.463C112.22 106.956 113.043 100.284 113.994 93.5688C115.744 81.2009 118.025 68.0065 119.346 60.3633C119.464 59.6839 119.573 59.0483 119.675 58.4611C119.724 58.1741 119.774 57.8854 119.823 57.5956C120.361 54.4665 120.922 51.1963 121.663 48.36C122.493 45.1773 123.812 41.4099 126.476 37.9946C132.258 30.5815 141.096 28.8289 149.38 28.0523ZM154.429 123.823C154.43 123.822 154.444 123.831 154.471 123.849C154.442 123.832 154.428 123.823 154.429 123.823ZM156.795 133.166C156.773 133.206 156.769 133.209 156.79 133.174C156.792 133.171 156.793 133.169 156.795 133.166ZM242.407 86.0502C242.426 86.0778 242.434 86.0915 242.434 86.0915C242.433 86.0915 242.424 86.0777 242.407 86.0502ZM316.987 205.604C316.985 205.605 316.989 205.601 317 205.594C316.992 205.6 316.988 205.603 316.987 205.604ZM252.605 44.2786C252.605 44.2799 252.579 44.279 252.523 44.2718C252.576 44.2737 252.604 44.2773 252.605 44.2786Z" fill="white"/>
<path fill-rule="evenodd" clip-rule="evenodd" d="M192.313 45.9037C178.646 41.9988 166.462 41.0145 150.734 42.489C142.793 43.2334 139.65 44.6808 137.909 46.9125C136.991 48.089 136.303 49.683 135.693 52.0219C135.117 54.2285 134.659 56.8868 134.083 60.2336C134.044 60.4608 134.004 60.6911 133.964 60.9247C133.862 61.5135 133.753 62.1481 133.636 62.824C132.312 70.4843 130.068 83.4663 128.351 95.6004C127.416 102.207 126.643 108.52 126.259 113.565C126.066 116.091 125.974 118.256 126.002 119.96C126.031 121.765 126.195 122.742 126.334 123.102C126.814 124.351 128.075 126.318 130.015 128.794C131.906 131.207 134.289 133.913 136.82 136.598C141.902 141.99 147.424 147.133 150.524 149.518C155.654 153.464 160.615 150.583 161.606 147.282C161.99 145.999 161.623 144.67 160.011 143.108C158.357 141.506 155.711 140.029 152.603 138.833C150.961 138.202 149.418 137.568 148.095 136.885C146.791 136.212 145.538 135.409 144.592 134.373C143.592 133.278 142.928 131.909 142.914 130.263C142.901 128.702 143.476 127.18 144.357 125.714C146.082 122.838 149.361 119.613 152.993 116.481C156.688 113.296 160.997 110.002 165 107C168.713 104.215 179.523 96.5595 190.553 88.7475C191.512 88.0685 192.473 87.3883 193.43 86.7099C205.486 78.1706 217.014 69.9878 219.438 68.0479C219.811 67.7501 220.209 67.4204 220.618 67.0808C221.417 66.4185 222.262 65.7185 223.052 65.1429C224.332 64.2116 225.797 63.3437 227.568 62.8906C231.229 61.9541 235.339 62.9841 240.816 66.3744C246.182 69.6962 250.414 73.1015 253.017 76.1161C254.302 77.6033 255.335 79.1606 255.811 80.6999C256.308 82.3094 256.266 84.2699 254.768 85.7679C252.934 87.6015 250.755 88.2248 248.272 88.3709C246.341 88.4846 243.954 88.3171 241.135 88.1191C240.553 88.0783 239.953 88.0361 239.334 87.9949C237.573 87.8774 236.328 87.9505 235.504 88.1256C235.061 88.2196 234.823 88.3243 234.708 88.3884C234.714 88.4422 234.727 88.5166 234.752 88.6159C234.88 89.1234 235.252 89.9288 236.048 91.0668C236.704 92.0039 237.58 93.1611 238.618 94.5321C238.911 94.9194 239.218 95.3238 239.535 95.7451C240.956 97.6284 242.563 99.7924 244.129 102.094C247.216 106.629 250.331 111.962 251.441 116.958C252.59 122.128 251.548 127.536 249.587 132.7C247.621 137.878 244.637 143.048 241.614 147.835C240.146 150.159 239.303 151.805 238.883 153.04C238.479 154.228 238.523 154.868 238.649 155.295C238.791 155.78 239.147 156.366 240.03 157.276C240.649 157.914 241.37 158.563 242.266 159.368C242.698 159.756 243.169 160.181 243.69 160.658L243.785 160.745L243.872 160.843C254.187 172.489 276.294 197.566 281.93 204.411C285.311 208.516 288.078 210.89 290.769 212.373C293.447 213.848 296.227 214.541 299.831 215.022C302.613 215.393 305.626 214.088 307.795 211.92C310.013 209.701 310.645 207.359 310.177 205.931C309.847 205.225 309.339 204.587 308.688 203.902C308.458 203.66 308.248 203.45 308.022 203.224C307.897 203.099 307.767 202.969 307.626 202.826C307.272 202.467 306.864 202.04 306.512 201.578C305.795 200.637 304.989 199.107 305.636 197.226C306.172 195.669 307.543 194.467 309.113 193.42C312.259 191.323 319.649 187.38 326.742 183.772C333.847 180.157 340.949 176.728 343.572 175.679C346.383 174.554 350.052 174.021 353.373 173.538L353.453 173.526C356.975 173.014 360.189 172.544 362.646 171.65C364.848 170.85 366.915 169.084 367.687 166.723C368.415 164.496 368.186 161.109 364.548 156.562C362.678 154.224 357.323 148.886 350.064 141.966C342.87 135.106 333.961 126.837 325.121 118.716C310.91 105.659 296.91 93.0158 290.526 87.2497C288.967 85.8414 287.862 84.8434 287.319 84.3498C286.083 83.2264 284.981 82.3421 283.953 81.5176L283.771 81.3712C282.719 80.5266 281.671 79.6796 280.761 78.7327C278.778 76.6703 277.587 74.2841 277.025 70.3537C277.002 70.1907 276.979 70.0295 276.956 69.87C275.973 62.9741 275.439 59.2287 271.03 56.0218C269.18 54.6765 266.854 54.6148 263.93 55.36C262.487 55.7278 261.025 56.2604 259.541 56.8274C259.31 56.9158 259.076 57.006 258.84 57.0968C257.622 57.5659 256.362 58.0515 255.219 58.3945C253.425 58.9327 251.409 58.8366 249.495 58.4609C247.546 58.0782 245.497 57.3643 243.522 56.4607C239.606 54.6686 235.674 51.9861 233.142 49.1724C232.149 48.0691 231.421 47.5567 230.877 47.3127C230.385 47.0924 229.902 47.0264 229.239 47.1068C228.495 47.1969 227.61 47.4577 226.312 47.8986C226.071 47.9802 225.818 48.0672 225.554 48.1583C224.458 48.5359 223.159 48.9832 221.687 49.4038C213.884 51.6332 206.174 49.8638 192.313 45.9037ZM234.706 88.2715C234.706 88.2719 234.706 88.2795 234.703 88.2927C234.703 88.2777 234.705 88.2711 234.706 88.2715ZM150.267 37.5108C166.539 35.9853 179.354 37.001 193.687 41.0961C207.827 45.136 214.116 46.3667 220.313 44.5961C221.644 44.2159 222.789 43.822 223.876 43.4478C224.155 43.3516 224.431 43.2568 224.705 43.1638C225.984 42.7296 227.318 42.303 228.637 42.1431C230.036 41.9735 231.459 42.095 232.921 42.7497C234.329 43.3807 235.601 44.4308 236.858 45.8275C238.826 48.0138 242.144 50.3312 245.603 51.9142C247.316 52.6981 248.986 53.2654 250.458 53.5546C251.967 53.8507 253.076 53.8172 253.782 53.6054C254.725 53.3223 255.769 52.9207 256.989 52.4514C257.237 52.3559 257.493 52.2576 257.756 52.1569C259.257 51.5833 260.951 50.9596 262.695 50.5149C266.147 49.6351 270.32 49.3234 273.971 51.9781C280.123 56.4526 280.932 62.2191 281.827 68.5962C281.876 68.9445 281.925 69.2947 281.975 69.6466C282.414 72.716 283.223 74.0797 284.365 75.2672C285.017 75.9453 285.813 76.5983 286.901 77.4724L287.098 77.6303C288.119 78.4496 289.329 79.4201 290.682 80.6501C291.216 81.1358 292.311 82.1241 293.858 83.5214C300.227 89.2735 314.269 101.956 328.504 115.034C337.352 123.163 346.287 131.456 353.514 138.347C360.678 145.176 366.323 150.776 368.452 153.438C372.814 158.891 373.836 164.004 372.439 168.277C371.086 172.416 367.653 175.15 364.355 176.349C361.4 177.424 357.744 177.955 354.464 178.432L354.173 178.474C350.64 178.988 347.595 179.455 345.429 180.321C343.052 181.272 336.153 184.593 329.009 188.228C321.851 191.87 314.741 195.677 311.887 197.58C311.149 198.072 310.757 198.423 310.556 198.633C310.701 198.811 310.901 199.026 311.187 199.316C311.277 199.408 311.382 199.513 311.495 199.626C311.747 199.878 312.041 200.172 312.312 200.457C313.136 201.324 314.113 202.474 314.785 203.985L314.82 204.064L314.85 204.146C316.334 208.226 314.197 212.589 311.331 215.455C308.374 218.412 303.888 220.607 299.17 219.978C295.273 219.458 291.803 218.651 288.356 216.752C284.923 214.86 281.689 211.984 278.07 207.589C272.522 200.852 250.603 175.984 240.216 164.256C239.835 163.908 239.454 163.565 239.079 163.229C238.107 162.354 237.182 161.522 236.439 160.756C235.353 159.635 234.334 158.346 233.852 156.706C233.352 155.008 233.522 153.273 234.149 151.43C234.76 149.633 235.854 147.592 237.387 145.165C240.363 140.453 243.129 135.623 244.913 130.925C246.702 126.215 247.411 121.873 246.56 118.043C245.67 114.038 243.035 109.372 239.996 104.907C238.5 102.708 236.951 100.622 235.543 98.7557C235.248 98.3637 234.956 97.9786 234.671 97.6027C233.622 96.2164 232.667 94.9552 231.952 93.9341C230.999 92.572 230.245 91.19 229.904 89.8381C229.552 88.4396 229.596 86.8343 230.613 85.4549C231.567 84.1599 233.04 83.5373 234.465 83.2346C235.922 82.9253 237.678 82.8734 239.667 83.0059C240.355 83.0518 241 83.0967 241.606 83.1389C244.421 83.3349 246.399 83.4726 247.978 83.3796C249.617 83.2831 250.443 82.9517 251.085 82.3721C251.075 82.3237 251.059 82.2591 251.033 82.1753C250.853 81.5896 250.324 80.6469 249.233 79.3842C247.087 76.8987 243.318 73.804 238.184 70.6258C233.161 67.5161 230.522 67.2961 228.807 67.7346C227.891 67.969 227.012 68.4449 225.995 69.1854C225.316 69.6797 224.702 70.1904 224.002 70.7724C223.567 71.1338 223.099 71.5227 222.562 71.9523C219.987 74.0124 208.265 82.3295 196.32 90.7901C195.38 91.4561 194.438 92.1233 193.498 92.7888C182.418 100.636 171.654 108.259 168 111C164.003 113.998 159.813 117.204 156.258 120.268C152.64 123.387 149.918 126.162 148.644 128.286C148.024 129.319 147.912 129.922 147.914 130.221C147.916 130.435 147.971 130.659 148.284 131.002C148.65 131.403 149.303 131.882 150.389 132.443C151.458 132.994 152.79 133.548 154.398 134.167C157.789 135.471 161.144 137.244 163.49 139.517C165.878 141.83 167.51 145.001 166.395 148.718C164.385 155.417 155.346 159.535 147.476 153.482C144.077 150.867 138.349 145.51 133.181 140.027C130.587 137.274 128.095 134.449 126.079 131.878C124.113 129.369 122.437 126.899 121.667 124.897C121.18 123.633 121.032 121.86 121.003 120.04C120.971 118.119 121.075 115.784 121.273 113.185C121.67 107.98 122.46 101.544 123.4 94.8998C125.128 82.6852 127.385 69.63 128.708 61.9757C128.825 61.2984 128.935 60.6635 129.037 60.0751C129.081 59.8148 129.126 59.5568 129.17 59.3012C129.73 56.0472 130.223 53.1813 130.855 50.7592C131.541 48.1293 132.447 45.7858 133.966 43.8373C137.101 39.819 142.208 38.2664 150.267 37.5108ZM251.1 82.4929C251.1 82.4924 251.099 82.4851 251.101 82.4723C251.101 82.487 251.101 82.4934 251.1 82.4929Z" fill="black"/>
</svg>
