<svg width="522" height="252" viewBox="0 0 522 252" fill="none" xmlns="http://www.w3.org/2000/svg">
<path fill-rule="evenodd" clip-rule="evenodd" d="M521 1.5H1V0.5H521V1.5Z" fill="#20202E"/>
<path fill-rule="evenodd" clip-rule="evenodd" d="M521 11.5H1V10.5H521V11.5Z" fill="#20202E"/>
<path fill-rule="evenodd" clip-rule="evenodd" d="M521 21.5H1V20.5H521V21.5Z" fill="#20202E"/>
<path fill-rule="evenodd" clip-rule="evenodd" d="M521 31.5H1V30.5H521V31.5Z" fill="#20202E"/>
<path fill-rule="evenodd" clip-rule="evenodd" d="M521 41.5H1V40.5H521V41.5Z" fill="#20202E"/>
<path fill-rule="evenodd" clip-rule="evenodd" d="M521 51.5H1V50.5H521V51.5Z" fill="#20202E"/>
<path fill-rule="evenodd" clip-rule="evenodd" d="M521 61.5H1V60.5H521V61.5Z" fill="#20202E"/>
<path fill-rule="evenodd" clip-rule="evenodd" d="M521 71.5H1V70.5H521V71.5Z" fill="#20202E"/>
<path fill-rule="evenodd" clip-rule="evenodd" d="M521 81.5H1V80.5H521V81.5Z" fill="#20202E"/>
<path fill-rule="evenodd" clip-rule="evenodd" d="M521 91.5H1V90.5H521V91.5Z" fill="#20202E"/>
<path fill-rule="evenodd" clip-rule="evenodd" d="M521 101.5H1V100.5H521V101.5Z" fill="#20202E"/>
<path fill-rule="evenodd" clip-rule="evenodd" d="M521 111.5H1V110.5H521V111.5Z" fill="#20202E"/>
<path fill-rule="evenodd" clip-rule="evenodd" d="M521 121.5H1V120.5H521V121.5Z" fill="#20202E"/>
<path fill-rule="evenodd" clip-rule="evenodd" d="M521 131.5H1V130.5H521V131.5Z" fill="#20202E"/>
<path fill-rule="evenodd" clip-rule="evenodd" d="M521 141.5H1V140.5H521V141.5Z" fill="#20202E"/>
<path fill-rule="evenodd" clip-rule="evenodd" d="M521 151.5H1V150.5H521V151.5Z" fill="#20202E"/>
<path fill-rule="evenodd" clip-rule="evenodd" d="M521 161.5H1V160.5H521V161.5Z" fill="#20202E"/>
<path fill-rule="evenodd" clip-rule="evenodd" d="M521 171.5H1V170.5H521V171.5Z" fill="#20202E"/>
<path fill-rule="evenodd" clip-rule="evenodd" d="M521 181.5H1V180.5H521V181.5Z" fill="#20202E"/>
<path fill-rule="evenodd" clip-rule="evenodd" d="M521 191.5H1V190.5H521V191.5Z" fill="#20202E"/>
<path fill-rule="evenodd" clip-rule="evenodd" d="M521 201.5H1V200.5H521V201.5Z" fill="#20202E"/>
<path fill-rule="evenodd" clip-rule="evenodd" d="M521 211.5H1V210.5H521V211.5Z" fill="#20202E"/>
<path fill-rule="evenodd" clip-rule="evenodd" d="M521 221.5H1V220.5H521V221.5Z" fill="#20202E"/>
<path fill-rule="evenodd" clip-rule="evenodd" d="M521 231.5H1V230.5H521V231.5Z" fill="#20202E"/>
<path fill-rule="evenodd" clip-rule="evenodd" d="M521 241.5H1V240.5H521V241.5Z" fill="#20202E"/>
<path fill-rule="evenodd" clip-rule="evenodd" d="M521 251.5H1V250.5H521V251.5Z" fill="#20202E"/>
<path fill-rule="evenodd" clip-rule="evenodd" d="M0.5 251L0.5 1L1.5 1L1.5 251L0.5 251Z" fill="#20202E"/>
<path fill-rule="evenodd" clip-rule="evenodd" d="M10.5 251L10.5 1L11.5 1L11.5 251L10.5 251Z" fill="#20202E"/>
<path fill-rule="evenodd" clip-rule="evenodd" d="M20.5 251L20.5 1L21.5 1L21.5 251L20.5 251Z" fill="#20202E"/>
<path fill-rule="evenodd" clip-rule="evenodd" d="M30.5 251L30.5 1L31.5 1L31.5 251L30.5 251Z" fill="#20202E"/>
<path fill-rule="evenodd" clip-rule="evenodd" d="M40.5 251L40.5 1L41.5 1L41.5 251L40.5 251Z" fill="#20202E"/>
<path fill-rule="evenodd" clip-rule="evenodd" d="M50.5 251L50.5 1L51.5 1L51.5 251L50.5 251Z" fill="#20202E"/>
<path fill-rule="evenodd" clip-rule="evenodd" d="M60.5 251L60.5 1L61.5 1L61.5 251L60.5 251Z" fill="#20202E"/>
<path fill-rule="evenodd" clip-rule="evenodd" d="M70.5 251L70.5 1L71.5 1L71.5 251L70.5 251Z" fill="#20202E"/>
<path fill-rule="evenodd" clip-rule="evenodd" d="M80.5 251L80.5 1L81.5 1L81.5 251L80.5 251Z" fill="#20202E"/>
<path fill-rule="evenodd" clip-rule="evenodd" d="M90.5 251L90.5 1L91.5 1L91.5 251L90.5 251Z" fill="#20202E"/>
<path fill-rule="evenodd" clip-rule="evenodd" d="M100.5 251L100.5 1L101.5 1L101.5 251L100.5 251Z" fill="#20202E"/>
<path fill-rule="evenodd" clip-rule="evenodd" d="M110.5 251L110.5 1L111.5 1L111.5 251L110.5 251Z" fill="#20202E"/>
<path fill-rule="evenodd" clip-rule="evenodd" d="M120.5 251L120.5 1L121.5 1L121.5 251L120.5 251Z" fill="#20202E"/>
<path fill-rule="evenodd" clip-rule="evenodd" d="M130.5 251L130.5 1L131.5 1L131.5 251L130.5 251Z" fill="#20202E"/>
<path fill-rule="evenodd" clip-rule="evenodd" d="M140.5 251L140.5 1L141.5 1L141.5 251L140.5 251Z" fill="#20202E"/>
<path fill-rule="evenodd" clip-rule="evenodd" d="M150.5 251L150.5 1L151.5 1L151.5 251L150.5 251Z" fill="#20202E"/>
<path fill-rule="evenodd" clip-rule="evenodd" d="M160.5 251L160.5 1L161.5 1L161.5 251L160.5 251Z" fill="#20202E"/>
<path fill-rule="evenodd" clip-rule="evenodd" d="M170.5 251L170.5 1L171.5 1L171.5 251L170.5 251Z" fill="#20202E"/>
<path fill-rule="evenodd" clip-rule="evenodd" d="M180.5 251L180.5 1L181.5 1L181.5 251L180.5 251Z" fill="#20202E"/>
<path fill-rule="evenodd" clip-rule="evenodd" d="M190.5 251L190.5 1L191.5 1L191.5 251L190.5 251Z" fill="#20202E"/>
<path fill-rule="evenodd" clip-rule="evenodd" d="M200.5 251L200.5 1L201.5 1L201.5 251L200.5 251Z" fill="#20202E"/>
<path fill-rule="evenodd" clip-rule="evenodd" d="M210.5 251L210.5 1L211.5 1L211.5 251L210.5 251Z" fill="#20202E"/>
<path fill-rule="evenodd" clip-rule="evenodd" d="M220.5 251L220.5 1L221.5 1L221.5 251L220.5 251Z" fill="#20202E"/>
<path fill-rule="evenodd" clip-rule="evenodd" d="M230.5 251L230.5 1L231.5 1L231.5 251L230.5 251Z" fill="#20202E"/>
<path fill-rule="evenodd" clip-rule="evenodd" d="M240.5 251L240.5 1L241.5 1L241.5 251L240.5 251Z" fill="#20202E"/>
<path fill-rule="evenodd" clip-rule="evenodd" d="M250.5 251L250.5 1L251.5 1L251.5 251L250.5 251Z" fill="#20202E"/>
<path fill-rule="evenodd" clip-rule="evenodd" d="M260.5 251L260.5 1L261.5 1L261.5 251L260.5 251Z" fill="#20202E"/>
<path fill-rule="evenodd" clip-rule="evenodd" d="M270.5 251L270.5 1L271.5 1L271.5 251L270.5 251Z" fill="#20202E"/>
<path fill-rule="evenodd" clip-rule="evenodd" d="M280.5 251L280.5 1L281.5 1L281.5 251L280.5 251Z" fill="#20202E"/>
<path fill-rule="evenodd" clip-rule="evenodd" d="M290.5 251L290.5 1L291.5 1L291.5 251L290.5 251Z" fill="#20202E"/>
<path fill-rule="evenodd" clip-rule="evenodd" d="M300.5 251L300.5 1L301.5 1L301.5 251L300.5 251Z" fill="#20202E"/>
<path fill-rule="evenodd" clip-rule="evenodd" d="M310.5 251L310.5 1L311.5 1L311.5 251L310.5 251Z" fill="#20202E"/>
<path fill-rule="evenodd" clip-rule="evenodd" d="M320.5 251L320.5 1L321.5 1L321.5 251L320.5 251Z" fill="#20202E"/>
<path fill-rule="evenodd" clip-rule="evenodd" d="M330.5 251L330.5 1L331.5 1L331.5 251L330.5 251Z" fill="#20202E"/>
<path fill-rule="evenodd" clip-rule="evenodd" d="M340.5 251L340.5 1L341.5 1L341.5 251L340.5 251Z" fill="#20202E"/>
<path fill-rule="evenodd" clip-rule="evenodd" d="M350.5 251L350.5 1L351.5 1L351.5 251L350.5 251Z" fill="#20202E"/>
<path fill-rule="evenodd" clip-rule="evenodd" d="M360.5 251L360.5 1L361.5 1L361.5 251L360.5 251Z" fill="#20202E"/>
<path fill-rule="evenodd" clip-rule="evenodd" d="M370.5 251L370.5 1L371.5 1L371.5 251L370.5 251Z" fill="#20202E"/>
<path fill-rule="evenodd" clip-rule="evenodd" d="M380.5 251L380.5 1L381.5 1L381.5 251L380.5 251Z" fill="#20202E"/>
<path fill-rule="evenodd" clip-rule="evenodd" d="M390.5 251L390.5 1L391.5 1L391.5 251L390.5 251Z" fill="#20202E"/>
<path fill-rule="evenodd" clip-rule="evenodd" d="M400.5 251L400.5 1L401.5 1L401.5 251L400.5 251Z" fill="#20202E"/>
<path fill-rule="evenodd" clip-rule="evenodd" d="M410.5 251L410.5 1L411.5 1L411.5 251L410.5 251Z" fill="#20202E"/>
<path fill-rule="evenodd" clip-rule="evenodd" d="M420.5 251L420.5 1L421.5 1L421.5 251L420.5 251Z" fill="#20202E"/>
<path fill-rule="evenodd" clip-rule="evenodd" d="M430.5 251L430.5 1L431.5 1L431.5 251L430.5 251Z" fill="#20202E"/>
<path fill-rule="evenodd" clip-rule="evenodd" d="M440.5 251L440.5 1L441.5 1L441.5 251L440.5 251Z" fill="#20202E"/>
<path fill-rule="evenodd" clip-rule="evenodd" d="M450.5 251L450.5 1L451.5 1L451.5 251L450.5 251Z" fill="#20202E"/>
<path fill-rule="evenodd" clip-rule="evenodd" d="M460.5 251L460.5 1L461.5 1L461.5 251L460.5 251Z" fill="#20202E"/>
<path fill-rule="evenodd" clip-rule="evenodd" d="M470.5 251L470.5 1L471.5 1L471.5 251L470.5 251Z" fill="#20202E"/>
<path fill-rule="evenodd" clip-rule="evenodd" d="M480.5 251L480.5 1L481.5 1L481.5 251L480.5 251Z" fill="#20202E"/>
<path fill-rule="evenodd" clip-rule="evenodd" d="M490.5 251L490.5 1L491.5 1L491.5 251L490.5 251Z" fill="#20202E"/>
<path fill-rule="evenodd" clip-rule="evenodd" d="M500.5 251L500.5 1L501.5 1L501.5 251L500.5 251Z" fill="#20202E"/>
<path fill-rule="evenodd" clip-rule="evenodd" d="M510.5 251L510.5 1L511.5 1L511.5 251L510.5 251Z" fill="#20202E"/>
<path fill-rule="evenodd" clip-rule="evenodd" d="M520.5 251L520.5 1L521.5 1L521.5 251L520.5 251Z" fill="#20202E"/>
<path opacity="0.2" fill-rule="evenodd" clip-rule="evenodd" d="M184.206 48.7001C171.804 45.1566 160.818 44.2318 146.123 45.6094C142.319 45.9661 140.533 46.4501 139.809 46.7098C139.705 46.987 139.559 47.4255 139.388 48.083C138.917 49.8856 138.524 52.1653 137.899 55.7903C137.876 55.9252 137.853 56.062 137.829 56.2007C137.727 56.7904 137.617 57.4241 137.501 58.0976C136.175 65.7694 133.955 78.6124 132.26 90.5933C131.335 97.1278 130.596 103.206 130.234 107.949C130.052 110.335 129.983 112.176 130.004 113.468C130.006 113.608 130.009 113.733 130.013 113.845C130.15 114.06 130.337 114.345 130.586 114.702C130.629 114.63 130.671 114.558 130.713 114.488C133.296 110.184 137.633 106.103 141.293 102.948C145.253 99.534 149.788 96.0732 153.803 93.0618C157.628 90.1933 168.528 82.474 179.468 74.7261C180.461 74.023 181.454 73.3196 182.442 72.6196C194.709 63.9307 205.868 56.003 208.007 54.2916C208.134 54.1894 208.354 54.0081 208.632 53.7777C208.725 53.7007 208.825 53.6182 208.93 53.5314C201.347 53.5096 193.484 51.3508 184.206 48.7001ZM252.436 61.1605C252.441 61.1589 252.446 61.1573 252.451 61.1558C253.982 60.6964 255.664 60.0467 256.857 59.5863C257.066 59.5054 257.26 59.4304 257.436 59.3632C258.872 58.8143 259.889 58.4565 260.754 58.2342C260.793 58.3207 260.839 58.4312 260.89 58.5729C261.052 59.0261 261.239 59.724 261.452 60.902C261.637 61.9302 261.791 63.0131 261.994 64.4445C262.035 64.7343 262.078 65.0383 262.124 65.3591C262.919 70.9254 264.834 75.2543 268.416 78.9792C269.777 80.3946 271.256 81.5816 272.239 82.3712L272.466 82.5531C273.519 83.3984 274.417 84.1192 275.431 85.0411C275.991 85.5503 277.118 86.5681 278.703 87.9993C285.118 93.7931 299.033 106.36 313.197 119.374C322.021 127.48 330.88 135.704 338.012 142.503C345.452 149.597 350.254 154.435 351.633 156.158C351.837 156.414 352.013 156.649 352.163 156.863C350.859 157.146 349.087 157.423 346.588 157.787C346.434 157.809 346.275 157.832 346.11 157.856C343.096 158.291 338.436 158.964 334.546 160.52C331.456 161.756 323.968 165.389 316.937 168.966C309.969 172.511 302.046 176.711 298.347 179.177C296.508 180.403 292.777 183.086 291.156 187.797C289.622 192.256 290.656 196.028 291.935 198.561C291.085 198.314 290.442 198.037 289.857 197.714C288.575 197.008 286.695 195.59 283.766 192.033C277.991 185.021 255.731 159.773 245.486 148.206L245.072 147.738L244.612 147.316C244.408 147.13 244.21 146.95 244.019 146.777C244.062 146.709 244.105 146.64 244.149 146.57C247.262 141.642 250.659 135.824 252.971 129.735C255.26 123.709 256.932 116.275 255.217 108.559C253.756 101.984 250.014 95.6631 246.912 91.041C249.909 90.395 253.125 89.0102 255.988 86.1473C260.804 81.3319 260.53 75.2467 259.391 71.5587C258.356 68.2074 256.363 65.4823 254.71 63.5686C254.015 62.7639 253.254 61.9602 252.436 61.1605ZM238.084 78.892C238.085 78.8922 238.093 78.9063 238.107 78.934C238.09 78.9057 238.083 78.8918 238.084 78.892ZM261.774 58.0412C261.773 58.042 261.755 58.0435 261.721 58.0433C261.758 58.0402 261.775 58.0403 261.774 58.0412ZM139.388 46.8925C139.386 46.8919 139.404 46.8805 139.445 46.86C139.41 46.8828 139.39 46.8931 139.388 46.8925ZM143.883 21.7142C161.188 20.0918 175.202 21.167 190.8 25.6235C205.471 29.8152 209.061 30.0222 212.206 29.1236C213.274 28.8185 214.134 28.5229 215.18 28.1632C215.486 28.0581 215.807 27.9476 216.154 27.8297C217.397 27.4081 219.584 26.6665 221.997 26.374C224.794 26.035 228.004 26.2617 231.308 27.7419C234.358 29.1082 236.664 31.1798 238.423 33.1343C239.317 34.1284 241.469 35.7521 244.059 36.9376C245.103 37.4155 245.95 37.6959 246.528 37.8363C246.908 37.6962 247.367 37.5203 247.963 37.2913C248.234 37.1873 248.534 37.0724 248.867 36.9448C250.401 36.3587 252.534 35.5618 254.852 34.9712C259.306 33.8356 266.99 32.8146 274.061 37.957C283.588 44.8856 284.877 54.4919 285.701 60.6375C285.763 61.1005 285.822 61.5438 285.883 61.9649C285.922 62.2413 285.961 62.4514 285.993 62.6053C286.226 62.8109 286.622 63.1407 287.352 63.7266C287.421 63.7822 287.493 63.8394 287.566 63.8983C288.582 64.7133 289.998 65.8486 291.575 67.2826C292.093 67.7529 293.165 68.7213 294.686 70.0953C301.023 75.8182 315.151 88.5781 329.434 101.7C338.298 109.843 347.283 118.182 354.573 125.133C361.555 131.789 367.752 137.889 370.374 141.166C376.111 148.337 378.639 156.731 375.972 164.891C373.513 172.41 367.486 176.982 362.104 178.939C358.196 180.361 353.652 181.016 350.602 181.456C350.41 181.484 350.223 181.511 350.043 181.537C346.149 182.103 344.358 182.444 343.46 182.804C341.551 183.567 335.038 186.684 327.82 190.357C324.446 192.074 321.223 193.757 318.507 195.222C321.36 204.087 316.476 211.91 312.551 215.835C308.098 220.288 300.813 224.176 292.417 223.057C287.964 222.463 283.183 221.439 278.274 218.734C273.431 216.066 269.311 212.234 265.24 207.29C259.889 200.793 238.534 176.557 227.952 164.606C227.812 164.48 227.664 164.347 227.508 164.207C226.465 163.269 225.111 162.051 224.121 161.03C222.647 159.509 220.369 156.884 219.241 153.048C218.031 148.935 218.607 145.121 219.658 142.032C220.633 139.167 222.202 136.376 223.857 133.754C226.745 129.183 229.097 125 230.535 121.215C231.997 117.365 232.074 115.049 231.789 113.765C231.318 111.644 229.593 108.246 226.645 103.914C225.282 101.911 223.845 99.9727 222.461 98.1378C222.204 97.7962 221.938 97.4456 221.67 97.0913C220.607 95.6874 219.5 94.2264 218.672 93.0439C217.421 91.2559 215.941 88.7784 215.195 85.8222C214.72 83.9387 214.477 81.4884 215.026 78.8966C209.872 82.5984 203.034 87.4442 196.314 92.2042C195.412 92.8434 194.509 93.4827 193.61 94.1197C182.428 102.039 171.746 109.604 168.203 112.262C164.246 115.23 160.309 118.247 157.032 121.066C159.667 122.426 162.335 124.158 164.603 126.355C168.465 130.097 172.501 136.765 169.997 145.11C166.051 158.264 149.265 164.732 136.187 154.674C132.22 151.622 126.1 145.86 120.771 140.205C118.055 137.324 115.356 134.272 113.105 131.4C111.089 128.828 108.623 125.402 107.303 121.97C106.156 118.987 106.037 115.703 106.007 113.856C105.969 111.523 106.095 108.864 106.303 106.125C106.723 100.618 107.546 93.9462 108.497 87.2306C110.247 74.8627 112.528 61.6683 113.849 54.0252C113.966 53.3457 114.076 52.7101 114.178 52.1229C114.227 51.8359 114.277 51.5473 114.326 51.2575C114.864 48.1284 115.425 44.8582 116.166 42.0219C116.996 38.8392 118.315 35.0718 120.979 31.6564C126.761 24.2434 135.599 22.4908 143.883 21.7142ZM148.932 117.484C148.933 117.484 148.947 117.493 148.974 117.511C148.945 117.494 148.931 117.485 148.932 117.484ZM151.298 126.828C151.276 126.868 151.272 126.871 151.293 126.836C151.295 126.833 151.296 126.831 151.298 126.828ZM236.91 79.7121C236.929 79.7396 236.937 79.7534 236.937 79.7533C236.936 79.7533 236.927 79.7396 236.91 79.7121ZM311.49 199.266C311.488 199.267 311.492 199.263 311.503 199.256C311.495 199.261 311.491 199.265 311.49 199.266ZM247.108 37.9405C247.108 37.9418 247.082 37.9408 247.026 37.9337C247.079 37.9356 247.107 37.9391 247.108 37.9405Z" fill="white"/>
<path fill-rule="evenodd" clip-rule="evenodd" d="M186.816 39.5658C173.149 35.6609 160.965 34.6766 145.237 36.1511C137.296 36.8956 134.153 38.3429 132.412 40.5746C131.494 41.7511 130.806 43.3451 130.196 45.684C129.62 47.8906 129.162 50.5489 128.586 53.8957C128.547 54.1229 128.507 54.3532 128.467 54.5868C128.365 55.1756 128.256 55.8102 128.139 56.4861C126.815 64.1464 124.571 77.1285 122.853 89.2625C121.919 95.8686 121.146 102.182 120.762 107.227C120.569 109.753 120.477 111.918 120.505 113.622C120.534 115.427 120.698 116.404 120.836 116.765C121.317 118.013 122.578 119.98 124.518 122.456C126.409 124.869 128.792 127.575 131.322 130.26C136.405 135.652 141.927 140.796 145.027 143.18C150.157 147.126 155.118 144.245 156.109 140.944C156.493 139.661 156.126 138.332 154.514 136.77C152.86 135.168 150.214 133.691 147.106 132.495C145.464 131.864 143.921 131.23 142.598 130.547C141.294 129.874 140.041 129.072 139.094 128.035C138.095 126.94 137.431 125.571 137.417 123.925C137.404 122.365 137.979 120.842 138.859 119.376C140.585 116.5 143.864 113.275 147.496 110.143C151.191 106.958 155.5 103.664 159.503 100.662C163.216 97.8772 174.026 90.2217 185.056 82.4096C186.015 81.7306 186.976 81.0504 187.933 80.3721C199.989 71.8327 211.517 63.6499 213.941 61.7101C214.314 61.4122 214.711 61.0825 215.121 60.7429C215.92 60.0806 216.765 59.3806 217.555 58.805C218.835 57.8737 220.3 57.0058 222.071 56.5527C225.732 55.6163 229.842 56.6463 235.319 60.0366C240.685 63.3583 244.917 66.7636 247.52 69.7782C248.805 71.2654 249.838 72.8227 250.314 74.362C250.811 75.9715 250.769 77.932 249.271 79.43C247.437 81.2636 245.258 81.8869 242.775 82.0331C240.844 82.1467 238.457 81.9792 235.638 81.7812C235.056 81.7404 234.455 81.6982 233.837 81.657C232.076 81.5396 230.831 81.6126 230.007 81.7877C229.564 81.8817 229.326 81.9864 229.211 82.0505C229.217 82.1043 229.23 82.1787 229.255 82.278C229.383 82.7855 229.755 83.5909 230.551 84.7289C231.207 85.666 232.083 86.8232 233.121 88.1942C233.414 88.5815 233.72 88.9859 234.038 89.4072C235.459 91.2906 237.066 93.4545 238.632 95.756C241.719 100.291 244.833 105.625 245.944 110.62C247.092 115.79 246.051 121.198 244.09 126.363C242.124 131.54 239.14 136.71 236.117 141.497C234.649 143.821 233.806 145.468 233.386 146.702C232.982 147.89 233.026 148.53 233.152 148.957C233.294 149.442 233.65 150.028 234.533 150.938C235.151 151.577 235.873 152.226 236.769 153.031C237.2 153.419 237.672 153.843 238.192 154.32L238.288 154.408L238.375 154.505C248.69 166.151 270.797 191.228 276.433 198.073C279.814 202.178 282.581 204.552 285.272 206.035C287.95 207.511 290.73 208.204 294.334 208.684C297.116 209.055 300.129 207.75 302.298 205.582C304.516 203.363 305.148 201.021 304.68 199.593C304.35 198.887 303.842 198.249 303.191 197.564C302.961 197.322 302.751 197.112 302.525 196.887C302.4 196.761 302.27 196.631 302.129 196.489C301.775 196.129 301.367 195.702 301.015 195.24C300.298 194.299 299.492 192.769 300.139 190.888C300.675 189.331 302.046 188.129 303.616 187.082C306.762 184.985 314.152 181.042 321.245 177.434C328.35 173.819 335.452 170.39 338.075 169.341C340.886 168.216 344.555 167.683 347.876 167.2L347.956 167.188C351.478 166.676 354.692 166.206 357.149 165.313C359.35 164.512 361.418 162.746 362.189 160.385C362.918 158.158 362.689 154.771 359.051 150.224C357.18 147.886 351.826 142.548 344.567 135.628C337.373 128.768 328.464 120.499 319.624 112.378C305.413 99.3215 291.413 86.6779 285.029 80.9118C283.47 79.5035 282.364 78.5055 281.821 78.0119C280.586 76.8885 279.484 76.0043 278.456 75.1797L278.274 75.0333C277.222 74.1887 276.174 73.3417 275.264 72.3949C273.28 70.3324 272.09 67.9462 271.528 64.0158C271.505 63.8528 271.482 63.6916 271.459 63.5321C270.476 56.6362 269.942 52.8908 265.533 49.6839C263.683 48.3386 261.357 48.2769 258.433 49.0221C256.99 49.3899 255.528 49.9225 254.044 50.4895C253.813 50.5779 253.579 50.6681 253.343 50.759C252.125 51.228 250.865 51.7137 249.722 52.0566C247.928 52.5948 245.912 52.4988 243.998 52.123C242.049 51.7403 240 51.0264 238.025 50.1228C234.109 48.3307 230.177 45.6482 227.645 42.8345C226.652 41.7312 225.924 41.2188 225.379 40.9748C224.888 40.7545 224.405 40.6885 223.741 40.7689C222.998 40.859 222.113 41.1199 220.814 41.5607C220.574 41.6423 220.321 41.7293 220.057 41.8204C218.96 42.198 217.662 42.6453 216.19 43.0659C208.387 45.2953 200.677 43.5259 186.816 39.5658ZM229.208 81.9336C229.209 81.934 229.209 81.9416 229.206 81.9548C229.206 81.9398 229.208 81.9332 229.208 81.9336ZM144.77 31.1729C161.042 29.6474 173.857 30.6631 188.19 34.7582C202.33 38.7981 208.619 40.0288 214.816 38.2582C216.147 37.878 217.291 37.4841 218.379 37.1099C218.658 37.0138 218.934 36.9189 219.208 36.8259C220.487 36.3917 221.821 35.9651 223.14 35.8052C224.539 35.6356 225.962 35.7571 227.424 36.4118C228.832 37.0428 230.104 38.0929 231.361 39.4896C233.329 41.6759 236.647 43.9934 240.106 45.5763C241.819 46.3602 243.489 46.9275 244.961 47.2167C246.47 47.5128 247.579 47.4793 248.285 47.2675C249.228 46.9844 250.272 46.5828 251.492 46.1135C251.74 46.018 251.996 45.9197 252.259 45.819C253.76 45.2454 255.454 44.6217 257.198 44.177C260.65 43.2972 264.823 42.9855 268.474 45.6402C274.626 50.1147 275.435 55.8812 276.33 62.2583C276.379 62.6067 276.428 62.9568 276.478 63.3087C276.917 66.3781 277.726 67.7418 278.868 68.9293C279.52 69.6074 280.316 70.2604 281.404 71.1345L281.601 71.2924C282.622 72.1117 283.832 73.0823 285.185 74.3122C285.719 74.7979 286.813 75.7862 288.361 77.1835C294.73 82.9356 308.772 95.6181 323.007 108.696C331.855 116.825 340.79 125.118 348.017 132.009C355.181 138.838 360.826 144.438 362.955 147.1C367.317 152.553 368.339 157.666 366.942 161.939C365.589 166.078 362.156 168.812 358.858 170.012C355.903 171.086 352.247 171.617 348.967 172.094L348.676 172.136C345.143 172.65 342.098 173.117 339.932 173.983C337.555 174.934 330.656 178.255 323.512 181.89C316.354 185.532 309.244 189.339 306.39 191.242C305.652 191.734 305.26 192.085 305.059 192.295C305.204 192.473 305.404 192.688 305.69 192.978C305.78 193.07 305.885 193.175 305.998 193.288C306.25 193.54 306.544 193.834 306.815 194.119C307.639 194.986 308.616 196.136 309.288 197.647L309.323 197.726L309.353 197.808C310.836 201.888 308.7 206.251 305.833 209.117C302.877 212.074 298.391 214.269 293.673 213.64C289.776 213.121 286.306 212.314 282.859 210.414C279.426 208.522 276.192 205.646 272.573 201.251C267.025 194.514 245.106 169.646 234.719 157.918C234.338 157.57 233.957 157.227 233.582 156.891C232.61 156.016 231.685 155.184 230.942 154.418C229.856 153.297 228.837 152.008 228.355 150.368C227.855 148.67 228.025 146.935 228.652 145.092C229.263 143.295 230.357 141.254 231.889 138.828C234.866 134.115 237.632 129.285 239.416 124.587C241.205 119.877 241.914 115.535 241.063 111.705C240.173 107.7 237.537 103.034 234.499 98.5691C233.003 96.3706 231.454 94.2845 230.046 92.4178C229.751 92.0258 229.459 91.6407 229.174 91.2648C228.125 89.8786 227.17 88.6174 226.455 87.5962C225.502 86.2341 224.748 84.8521 224.407 83.5002C224.055 82.1017 224.099 80.4964 225.116 79.117C226.07 77.822 227.543 77.1994 228.968 76.8967C230.425 76.5874 232.181 76.5355 234.169 76.6681C234.858 76.7139 235.503 76.7588 236.109 76.801C238.924 76.997 240.902 77.1347 242.481 77.0417C244.12 76.9452 244.946 76.6138 245.588 76.0342C245.578 75.9858 245.562 75.9212 245.536 75.8374C245.355 75.2517 244.827 74.309 243.736 73.0463C241.59 70.5608 237.821 67.4662 232.687 64.2879C227.664 61.1782 225.025 60.9582 223.31 61.3967C222.394 61.6311 221.515 62.107 220.498 62.8475C219.819 63.3418 219.205 63.8525 218.504 64.4345C218.07 64.7959 217.602 65.1849 217.065 65.6144C214.49 67.6745 202.768 75.9916 190.823 84.4522C189.883 85.1182 188.941 85.7854 188.001 86.451C176.921 94.2984 166.157 101.921 162.503 104.662C158.506 107.66 154.316 110.866 150.761 113.931C147.143 117.049 144.421 119.824 143.147 121.948C142.527 122.982 142.415 123.585 142.417 123.883C142.419 124.097 142.474 124.321 142.787 124.664C143.153 125.065 143.806 125.544 144.892 126.105C145.961 126.656 147.293 127.21 148.901 127.829C152.292 129.133 155.646 130.906 157.993 133.179C160.381 135.492 162.013 138.663 160.898 142.38C158.888 149.079 149.849 153.197 141.979 147.144C138.58 144.529 132.852 139.172 127.684 133.689C125.089 130.937 122.597 128.111 120.582 125.54C118.616 123.031 116.94 120.561 116.17 118.56C115.683 117.295 115.535 115.522 115.505 113.703C115.474 111.782 115.578 109.446 115.776 106.847C116.173 101.643 116.963 95.2058 117.903 88.5619C119.631 76.3473 121.888 63.2921 123.211 55.6378C123.328 54.9605 123.438 54.3256 123.54 53.7372C123.584 53.4769 123.629 53.2189 123.673 52.9633C124.232 49.7093 124.725 46.8434 125.358 44.4213C126.044 41.7914 126.95 39.448 128.469 37.4994C131.604 33.4811 136.711 31.9285 144.77 31.1729ZM245.603 76.155C245.602 76.1546 245.602 76.1472 245.603 76.1344C245.604 76.1491 245.604 76.1555 245.603 76.155Z" fill="black"/>
<path fill-rule="evenodd" clip-rule="evenodd" d="M288.045 63.7219C289.506 65.2887 290.437 66.2871 291.383 67.1111L291.48 67.1956L291.576 67.2822C292.093 67.7525 293.165 68.7209 294.687 70.095C301.023 75.8178 315.152 88.5777 329.435 101.7C338.298 109.843 347.283 118.182 354.573 125.133C361.555 131.789 367.753 137.888 370.374 141.165C376.112 148.337 378.64 156.73 375.972 164.89C373.514 172.41 367.487 176.982 362.104 178.939C358.196 180.36 353.652 181.016 350.603 181.456C350.41 181.483 350.223 181.51 350.043 181.536C346.149 182.103 344.358 182.444 343.46 182.803C341.551 183.567 335.039 186.684 327.82 190.357C324.446 192.073 321.224 193.757 318.508 195.222C321.361 204.087 316.476 211.91 312.551 215.834C308.098 220.287 300.813 224.176 292.418 223.056C287.964 222.462 283.183 221.439 278.275 218.734C273.432 216.065 269.312 212.234 265.24 207.29C259.889 200.792 238.534 176.556 227.952 164.606C227.813 164.48 227.664 164.346 227.508 164.206C226.465 163.268 225.111 162.051 224.121 161.029C222.648 159.509 220.369 156.884 219.241 153.048C218.031 148.935 218.607 145.121 219.659 142.031C220.633 139.166 222.202 136.375 223.858 133.754C226.745 129.182 229.098 125 230.535 121.214C231.997 117.365 232.075 115.049 231.789 113.765C231.318 111.644 229.593 108.245 226.645 103.913C225.282 101.911 223.846 99.9723 222.462 98.1374C222.204 97.7958 221.939 97.4452 221.67 97.091C220.607 95.687 219.5 94.226 218.673 93.0435C217.421 91.2555 215.941 88.778 215.196 85.8218C214.394 82.6418 214.252 77.8458 217.468 73.4809C220.386 69.5213 224.487 68.1359 226.996 67.6033C229.653 67.039 232.381 67.0271 234.802 67.1885C238.325 67.4234 239.9 67.3605 240.738 67.2552C241.273 67.1881 241.664 67.101 242.84 66.605C244.297 65.9902 249.992 63.0788 255.872 58.2362C259.546 55.2101 264.168 52.9793 269.58 53.1068C274.795 53.2296 278.809 55.5103 281.429 57.4655C283.972 59.3642 286.153 61.6941 287.602 63.2471C287.755 63.411 287.903 63.5692 288.045 63.7219ZM311.49 199.265C311.49 199.265 311.494 199.262 311.503 199.255C311.494 199.262 311.49 199.265 311.49 199.265ZM266.919 76.5917C266.919 76.5913 266.928 76.5964 266.945 76.6081C266.928 76.5979 266.919 76.5921 266.919 76.5917ZM268.975 78.4805C269.291 78.8074 269.649 79.185 270.057 79.6227C270.204 79.7803 270.361 79.9487 270.525 80.1261C271.805 81.5042 273.594 83.4311 275.519 85.1199C276.104 85.6514 277.197 86.6383 278.703 87.9986C285.118 93.7922 299.033 106.36 313.197 119.373C322.021 127.48 330.88 135.703 338.012 142.503C345.452 149.596 350.255 154.435 351.633 156.158C351.838 156.413 352.013 156.648 352.164 156.862C350.859 157.146 349.087 157.423 346.589 157.786C346.434 157.809 346.275 157.832 346.11 157.856C343.097 158.291 338.437 158.964 334.547 160.52C331.456 161.756 323.968 165.389 316.937 168.966C309.97 172.511 302.047 176.71 298.347 179.177C296.508 180.403 292.777 183.086 291.156 187.796C289.622 192.256 290.656 196.027 291.935 198.56C291.086 198.314 290.442 198.036 289.857 197.714C288.575 197.008 286.695 195.589 283.767 192.033C277.992 185.02 255.732 159.772 245.487 148.205L245.073 147.738L244.612 147.316C244.409 147.129 244.21 146.949 244.02 146.776C244.062 146.709 244.105 146.64 244.149 146.57C247.262 141.642 250.659 135.824 252.972 129.735C255.26 123.709 256.932 116.275 255.218 108.559C253.706 101.756 249.752 95.2249 246.592 90.5663C248.706 90.0856 250.493 89.4245 252.167 88.7182C255.378 87.364 262.01 83.8621 268.975 78.4805ZM238.084 78.8916C238.085 78.8917 238.093 78.9059 238.107 78.9336C238.091 78.9054 238.084 78.8915 238.084 78.8916ZM296.485 204.307C296.485 204.307 296.482 204.303 296.476 204.296C296.482 204.303 296.485 204.307 296.485 204.307ZM295.725 198.697C295.725 198.697 295.723 198.701 295.717 198.71C295.722 198.701 295.725 198.697 295.725 198.697Z" fill="white"/>
<path fill-rule="evenodd" clip-rule="evenodd" d="M281.151 70.2588C282.52 71.7302 283.801 73.1062 285.145 74.2759L285.165 74.2935L285.185 74.3115C285.719 74.7972 286.813 75.7852 288.36 77.1821C294.728 82.9339 308.772 95.6169 323.007 108.695C331.855 116.824 340.79 125.117 348.017 132.008C355.181 138.838 360.826 144.438 362.955 147.1C367.317 152.552 368.339 157.665 366.942 161.938C365.589 166.078 362.156 168.811 358.858 170.011C355.903 171.085 352.246 171.617 348.967 172.093L348.676 172.135C345.143 172.649 342.098 173.116 339.932 173.983C337.555 174.933 330.656 178.255 323.512 181.89C316.354 185.531 309.244 189.339 306.39 191.241C305.652 191.734 305.26 192.085 305.059 192.294C305.204 192.472 305.404 192.688 305.69 192.977C305.78 193.069 305.885 193.174 305.998 193.287C306.25 193.54 306.544 193.834 306.815 194.119C307.639 194.985 308.616 196.136 309.288 197.646L309.323 197.725L309.353 197.807C310.837 201.887 308.7 206.25 305.833 209.117C302.877 212.073 298.391 214.268 293.673 213.639C289.776 213.12 286.306 212.313 282.859 210.413C279.426 208.522 276.192 205.645 272.573 201.251C267.025 194.514 245.106 169.646 234.719 157.917C234.338 157.57 233.957 157.227 233.582 156.89C232.61 156.015 231.685 155.183 230.942 154.417C229.856 153.297 228.837 152.008 228.355 150.367C227.855 148.669 228.025 146.935 228.652 145.091C229.263 143.294 230.357 141.253 231.889 138.827C234.866 134.114 237.632 129.284 239.416 124.587C241.205 119.876 241.914 115.534 241.063 111.704C240.173 107.7 237.538 103.033 234.499 98.5684C233.003 96.3699 231.454 94.2838 230.046 92.4172C229.751 92.0251 229.459 91.64 229.174 91.264C228.125 89.8778 227.17 88.6167 226.455 87.5955C225.502 86.2334 224.748 84.8514 224.407 83.4995C224.055 82.101 224.099 80.4957 225.116 79.1163C226.07 77.8214 227.543 77.1987 228.968 76.896C230.425 76.5867 232.181 76.5348 234.17 76.6674C237.872 76.9142 240.168 76.9011 241.921 76.6812C243.61 76.4693 244.879 76.0553 246.532 75.3581C248.814 74.3955 255.302 71.0116 261.911 65.5694C264.359 63.5536 266.83 62.5446 269.356 62.604C271.84 62.6626 273.963 63.7479 275.746 65.0786C277.513 66.3975 279.155 68.1196 280.657 69.729C280.823 69.9069 280.988 70.0835 281.151 70.2588ZM269.238 67.6027C268.232 67.579 266.891 67.9449 265.089 69.4291C258.098 75.1869 251.191 78.8194 248.475 79.965C246.571 80.7681 244.84 81.3542 242.543 81.6424C240.31 81.9226 237.634 81.9094 233.837 81.6563C232.076 81.5389 230.831 81.6119 230.007 81.787C229.564 81.8811 229.326 81.9857 229.211 82.0498C229.217 82.1036 229.23 82.1781 229.255 82.2773C229.383 82.7848 229.755 83.5902 230.551 84.7282C231.207 85.6653 232.083 86.8226 233.121 88.1935C233.414 88.5808 233.72 88.9852 234.038 89.4065C235.459 91.2899 237.066 93.4538 238.632 95.7553C241.719 100.29 244.833 105.624 245.944 110.62C247.093 115.79 246.051 121.198 244.09 126.362C242.124 131.539 239.14 136.71 236.117 141.497C234.649 143.821 233.806 145.467 233.386 146.701C232.982 147.889 233.026 148.529 233.152 148.956C233.294 149.441 233.65 150.027 234.533 150.938C235.151 151.576 235.873 152.225 236.769 153.03C237.201 153.418 237.672 153.842 238.193 154.319L238.288 154.407L238.375 154.504C248.69 166.15 270.797 191.228 276.433 198.072C279.814 202.178 282.581 204.551 285.272 206.034C287.95 207.51 290.73 208.203 294.334 208.683C297.116 209.054 300.129 207.75 302.298 205.581C304.516 203.363 305.148 201.02 304.68 199.592C304.35 198.887 303.842 198.248 303.191 197.563C302.961 197.321 302.751 197.111 302.525 196.886C302.4 196.761 302.27 196.631 302.129 196.488C301.775 196.128 301.367 195.702 301.015 195.239C300.298 194.299 299.492 192.769 300.139 190.887C300.675 189.33 302.046 188.128 303.616 187.081C306.762 184.984 314.152 181.041 321.245 177.433C328.35 173.818 335.452 170.389 338.075 169.34C340.886 168.216 344.555 167.682 347.876 167.199L347.956 167.187C351.478 166.675 354.692 166.205 357.149 165.312C359.35 164.511 361.418 162.745 362.189 160.385C362.918 158.157 362.689 154.771 359.051 150.223C357.18 147.885 351.826 142.548 344.567 135.627C337.373 128.768 328.464 120.499 319.624 112.377C305.413 99.3214 291.414 86.6783 285.03 80.9118C283.488 79.5198 282.391 78.5285 281.841 78.0289C280.293 76.6786 278.831 75.107 277.495 73.6698C277.328 73.4911 277.164 73.3145 277.002 73.1406C275.472 71.5014 274.113 70.0993 272.755 69.0855C271.413 68.0834 270.285 67.6273 269.238 67.6027ZM229.209 81.9329C229.209 81.9334 229.209 81.941 229.206 81.9541C229.206 81.939 229.208 81.9324 229.209 81.9329Z" fill="black"/>
</svg>
