<svg width="522" height="252" viewBox="0 0 522 252" fill="none" xmlns="http://www.w3.org/2000/svg">
<path fill-rule="evenodd" clip-rule="evenodd" d="M521 1.5H1V0.5H521V1.5Z" fill="#20202E"/>
<path fill-rule="evenodd" clip-rule="evenodd" d="M521 11.5H1V10.5H521V11.5Z" fill="#20202E"/>
<path fill-rule="evenodd" clip-rule="evenodd" d="M521 21.5H1V20.5H521V21.5Z" fill="#20202E"/>
<path fill-rule="evenodd" clip-rule="evenodd" d="M521 31.5H1V30.5H521V31.5Z" fill="#20202E"/>
<path fill-rule="evenodd" clip-rule="evenodd" d="M521 41.5H1V40.5H521V41.5Z" fill="#20202E"/>
<path fill-rule="evenodd" clip-rule="evenodd" d="M521 51.5H1V50.5H521V51.5Z" fill="#20202E"/>
<path fill-rule="evenodd" clip-rule="evenodd" d="M521 61.5H1V60.5H521V61.5Z" fill="#20202E"/>
<path fill-rule="evenodd" clip-rule="evenodd" d="M521 71.5H1V70.5H521V71.5Z" fill="#20202E"/>
<path fill-rule="evenodd" clip-rule="evenodd" d="M521 81.5H1V80.5H521V81.5Z" fill="#20202E"/>
<path fill-rule="evenodd" clip-rule="evenodd" d="M521 91.5H1V90.5H521V91.5Z" fill="#20202E"/>
<path fill-rule="evenodd" clip-rule="evenodd" d="M521 101.5H1V100.5H521V101.5Z" fill="#20202E"/>
<path fill-rule="evenodd" clip-rule="evenodd" d="M521 111.5H1V110.5H521V111.5Z" fill="#20202E"/>
<path fill-rule="evenodd" clip-rule="evenodd" d="M521 121.5H1V120.5H521V121.5Z" fill="#20202E"/>
<path fill-rule="evenodd" clip-rule="evenodd" d="M521 131.5H1V130.5H521V131.5Z" fill="#20202E"/>
<path fill-rule="evenodd" clip-rule="evenodd" d="M521 141.5H1V140.5H521V141.5Z" fill="#20202E"/>
<path fill-rule="evenodd" clip-rule="evenodd" d="M521 151.5H1V150.5H521V151.5Z" fill="#20202E"/>
<path fill-rule="evenodd" clip-rule="evenodd" d="M521 161.5H1V160.5H521V161.5Z" fill="#20202E"/>
<path fill-rule="evenodd" clip-rule="evenodd" d="M521 171.5H1V170.5H521V171.5Z" fill="#20202E"/>
<path fill-rule="evenodd" clip-rule="evenodd" d="M521 181.5H1V180.5H521V181.5Z" fill="#20202E"/>
<path fill-rule="evenodd" clip-rule="evenodd" d="M521 191.5H1V190.5H521V191.5Z" fill="#20202E"/>
<path fill-rule="evenodd" clip-rule="evenodd" d="M521 201.5H1V200.5H521V201.5Z" fill="#20202E"/>
<path fill-rule="evenodd" clip-rule="evenodd" d="M521 211.5H1V210.5H521V211.5Z" fill="#20202E"/>
<path fill-rule="evenodd" clip-rule="evenodd" d="M521 221.5H1V220.5H521V221.5Z" fill="#20202E"/>
<path fill-rule="evenodd" clip-rule="evenodd" d="M521 231.5H1V230.5H521V231.5Z" fill="#20202E"/>
<path fill-rule="evenodd" clip-rule="evenodd" d="M521 241.5H1V240.5H521V241.5Z" fill="#20202E"/>
<path fill-rule="evenodd" clip-rule="evenodd" d="M521 251.5H1V250.5H521V251.5Z" fill="#20202E"/>
<path fill-rule="evenodd" clip-rule="evenodd" d="M0.5 251L0.5 1L1.5 1L1.5 251L0.5 251Z" fill="#20202E"/>
<path fill-rule="evenodd" clip-rule="evenodd" d="M10.5 251L10.5 1L11.5 1L11.5 251L10.5 251Z" fill="#20202E"/>
<path fill-rule="evenodd" clip-rule="evenodd" d="M20.5 251L20.5 1L21.5 1L21.5 251L20.5 251Z" fill="#20202E"/>
<path fill-rule="evenodd" clip-rule="evenodd" d="M30.5 251L30.5 1L31.5 1L31.5 251L30.5 251Z" fill="#20202E"/>
<path fill-rule="evenodd" clip-rule="evenodd" d="M40.5 251L40.5 1L41.5 1L41.5 251L40.5 251Z" fill="#20202E"/>
<path fill-rule="evenodd" clip-rule="evenodd" d="M50.5 251L50.5 1L51.5 1L51.5 251L50.5 251Z" fill="#20202E"/>
<path fill-rule="evenodd" clip-rule="evenodd" d="M60.5 251L60.5 1L61.5 1L61.5 251L60.5 251Z" fill="#20202E"/>
<path fill-rule="evenodd" clip-rule="evenodd" d="M70.5 251L70.5 1L71.5 1L71.5 251L70.5 251Z" fill="#20202E"/>
<path fill-rule="evenodd" clip-rule="evenodd" d="M80.5 251L80.5 1L81.5 1L81.5 251L80.5 251Z" fill="#20202E"/>
<path fill-rule="evenodd" clip-rule="evenodd" d="M90.5 251L90.5 1L91.5 1L91.5 251L90.5 251Z" fill="#20202E"/>
<path fill-rule="evenodd" clip-rule="evenodd" d="M100.5 251L100.5 1L101.5 1L101.5 251L100.5 251Z" fill="#20202E"/>
<path fill-rule="evenodd" clip-rule="evenodd" d="M110.5 251L110.5 1L111.5 1L111.5 251L110.5 251Z" fill="#20202E"/>
<path fill-rule="evenodd" clip-rule="evenodd" d="M120.5 251L120.5 1L121.5 1L121.5 251L120.5 251Z" fill="#20202E"/>
<path fill-rule="evenodd" clip-rule="evenodd" d="M130.5 251L130.5 1L131.5 1L131.5 251L130.5 251Z" fill="#20202E"/>
<path fill-rule="evenodd" clip-rule="evenodd" d="M140.5 251L140.5 1L141.5 1L141.5 251L140.5 251Z" fill="#20202E"/>
<path fill-rule="evenodd" clip-rule="evenodd" d="M150.5 251L150.5 1L151.5 1L151.5 251L150.5 251Z" fill="#20202E"/>
<path fill-rule="evenodd" clip-rule="evenodd" d="M160.5 251L160.5 1L161.5 1L161.5 251L160.5 251Z" fill="#20202E"/>
<path fill-rule="evenodd" clip-rule="evenodd" d="M170.5 251L170.5 1L171.5 1L171.5 251L170.5 251Z" fill="#20202E"/>
<path fill-rule="evenodd" clip-rule="evenodd" d="M180.5 251L180.5 1L181.5 1L181.5 251L180.5 251Z" fill="#20202E"/>
<path fill-rule="evenodd" clip-rule="evenodd" d="M190.5 251L190.5 1L191.5 1L191.5 251L190.5 251Z" fill="#20202E"/>
<path fill-rule="evenodd" clip-rule="evenodd" d="M200.5 251L200.5 1L201.5 1L201.5 251L200.5 251Z" fill="#20202E"/>
<path fill-rule="evenodd" clip-rule="evenodd" d="M210.5 251L210.5 1L211.5 1L211.5 251L210.5 251Z" fill="#20202E"/>
<path fill-rule="evenodd" clip-rule="evenodd" d="M220.5 251L220.5 1L221.5 1L221.5 251L220.5 251Z" fill="#20202E"/>
<path fill-rule="evenodd" clip-rule="evenodd" d="M230.5 251L230.5 1L231.5 1L231.5 251L230.5 251Z" fill="#20202E"/>
<path fill-rule="evenodd" clip-rule="evenodd" d="M240.5 251L240.5 1L241.5 1L241.5 251L240.5 251Z" fill="#20202E"/>
<path fill-rule="evenodd" clip-rule="evenodd" d="M250.5 251L250.5 1L251.5 1L251.5 251L250.5 251Z" fill="#20202E"/>
<path fill-rule="evenodd" clip-rule="evenodd" d="M260.5 251L260.5 1L261.5 1L261.5 251L260.5 251Z" fill="#20202E"/>
<path fill-rule="evenodd" clip-rule="evenodd" d="M270.5 251L270.5 1L271.5 1L271.5 251L270.5 251Z" fill="#20202E"/>
<path fill-rule="evenodd" clip-rule="evenodd" d="M280.5 251L280.5 1L281.5 1L281.5 251L280.5 251Z" fill="#20202E"/>
<path fill-rule="evenodd" clip-rule="evenodd" d="M290.5 251L290.5 1L291.5 1L291.5 251L290.5 251Z" fill="#20202E"/>
<path fill-rule="evenodd" clip-rule="evenodd" d="M300.5 251L300.5 1L301.5 1L301.5 251L300.5 251Z" fill="#20202E"/>
<path fill-rule="evenodd" clip-rule="evenodd" d="M310.5 251L310.5 1L311.5 1L311.5 251L310.5 251Z" fill="#20202E"/>
<path fill-rule="evenodd" clip-rule="evenodd" d="M320.5 251L320.5 1L321.5 1L321.5 251L320.5 251Z" fill="#20202E"/>
<path fill-rule="evenodd" clip-rule="evenodd" d="M330.5 251L330.5 1L331.5 1L331.5 251L330.5 251Z" fill="#20202E"/>
<path fill-rule="evenodd" clip-rule="evenodd" d="M340.5 251L340.5 1L341.5 1L341.5 251L340.5 251Z" fill="#20202E"/>
<path fill-rule="evenodd" clip-rule="evenodd" d="M350.5 251L350.5 1L351.5 1L351.5 251L350.5 251Z" fill="#20202E"/>
<path fill-rule="evenodd" clip-rule="evenodd" d="M360.5 251L360.5 1L361.5 1L361.5 251L360.5 251Z" fill="#20202E"/>
<path fill-rule="evenodd" clip-rule="evenodd" d="M370.5 251L370.5 1L371.5 1L371.5 251L370.5 251Z" fill="#20202E"/>
<path fill-rule="evenodd" clip-rule="evenodd" d="M380.5 251L380.5 1L381.5 1L381.5 251L380.5 251Z" fill="#20202E"/>
<path fill-rule="evenodd" clip-rule="evenodd" d="M390.5 251L390.5 1L391.5 1L391.5 251L390.5 251Z" fill="#20202E"/>
<path fill-rule="evenodd" clip-rule="evenodd" d="M400.5 251L400.5 1L401.5 1L401.5 251L400.5 251Z" fill="#20202E"/>
<path fill-rule="evenodd" clip-rule="evenodd" d="M410.5 251L410.5 1L411.5 1L411.5 251L410.5 251Z" fill="#20202E"/>
<path fill-rule="evenodd" clip-rule="evenodd" d="M420.5 251L420.5 1L421.5 1L421.5 251L420.5 251Z" fill="#20202E"/>
<path fill-rule="evenodd" clip-rule="evenodd" d="M430.5 251L430.5 1L431.5 1L431.5 251L430.5 251Z" fill="#20202E"/>
<path fill-rule="evenodd" clip-rule="evenodd" d="M440.5 251L440.5 1L441.5 1L441.5 251L440.5 251Z" fill="#20202E"/>
<path fill-rule="evenodd" clip-rule="evenodd" d="M450.5 251L450.5 1L451.5 1L451.5 251L450.5 251Z" fill="#20202E"/>
<path fill-rule="evenodd" clip-rule="evenodd" d="M460.5 251L460.5 1L461.5 1L461.5 251L460.5 251Z" fill="#20202E"/>
<path fill-rule="evenodd" clip-rule="evenodd" d="M470.5 251L470.5 1L471.5 1L471.5 251L470.5 251Z" fill="#20202E"/>
<path fill-rule="evenodd" clip-rule="evenodd" d="M480.5 251L480.5 1L481.5 1L481.5 251L480.5 251Z" fill="#20202E"/>
<path fill-rule="evenodd" clip-rule="evenodd" d="M490.5 251L490.5 1L491.5 1L491.5 251L490.5 251Z" fill="#20202E"/>
<path fill-rule="evenodd" clip-rule="evenodd" d="M500.5 251L500.5 1L501.5 1L501.5 251L500.5 251Z" fill="#20202E"/>
<path fill-rule="evenodd" clip-rule="evenodd" d="M510.5 251L510.5 1L511.5 1L511.5 251L510.5 251Z" fill="#20202E"/>
<path fill-rule="evenodd" clip-rule="evenodd" d="M520.5 251L520.5 1L521.5 1L521.5 251L520.5 251Z" fill="#20202E"/>
<path fill-rule="evenodd" clip-rule="evenodd" d="M365.172 35.5263C365.664 36.147 365.918 36.4656 366.111 36.6904C367.168 37.9237 368.025 39.1707 368.569 39.9852C369.29 39.9654 369.953 39.928 370.669 39.8876C370.819 39.8791 370.972 39.8705 371.128 39.8619C371.178 39.8591 371.236 39.8557 371.301 39.8518C372.2 39.7985 374.464 39.6641 376.683 40.0869C380.17 40.7511 383.945 42.779 386.295 46.9056C387.963 49.8339 388.3 52.8974 388.441 54.3059C388.936 59.258 394.957 121.458 396.472 143.684L396.5 144.091V162.52C396.5 166.375 395.12 169.835 393.066 172.491C392.043 173.814 390.239 176.335 388.365 179.546C386.708 182.387 383.866 187.09 378.594 189.31C375.848 190.466 373.382 190.562 372.023 190.562C371.453 190.562 370.87 190.54 370.527 190.527L370.421 190.523C370.021 190.508 369.759 190.5 369.5 190.5C366.739 190.5 354.633 189.399 343.582 188.318C332.309 187.215 320.035 185.921 316.527 185.337C311.937 184.572 306.061 182.508 302.523 176.611C300.647 173.485 300.038 170.186 299.91 167.408C299.808 167.397 299.705 167.387 299.601 167.376L298.703 167.285C296.356 167.047 293.783 166.787 291.281 166.515C290.799 169.881 289.655 173.759 286.906 177.057C283.343 181.333 278.484 183 274 183C271.776 183 263.391 182.288 255.809 181.572C248.1 180.843 239.233 179.921 235.853 179.306C225.666 177.454 222.548 168.677 221.671 164.291C221.288 162.38 221.113 160.325 221.037 158.461C217.079 157.76 212.705 156.669 208.885 155.077C205.504 153.668 201.71 150.7 199.019 148.51C195.835 145.919 192.245 142.752 188.811 139.637C185.357 136.503 181.953 133.32 179.13 130.67C178.723 130.288 178.331 129.92 177.955 129.567C177.385 130.882 176.792 132.273 176.188 133.711C173.119 141.016 169.937 149.097 168.26 153.648C166.825 157.543 164.003 168.691 161.121 180.988C158.329 192.899 155.724 204.811 154.743 209.472C154.105 212.503 153.08 215.819 151.192 218.662C149.278 221.543 145.116 225.712 138.541 225.426C132.712 225.173 129.112 221.495 127.571 219.526C125.799 217.26 124.685 214.711 124.006 212.448L123.992 212.402C123.642 211.231 123.347 210.245 116.191 204.111C113.887 202.137 112.065 200.858 110.248 199.582C109.709 199.204 109.171 198.827 108.621 198.432C107.639 197.726 105.902 196.465 104.423 194.834C102.796 193.04 100.588 189.819 100.503 185.273C100.5 185.255 100.496 185.236 100.493 185.215C100.431 184.848 100.272 183.906 100.174 182.836C100.032 181.265 100.012 179.505 100.146 177.303C99.5005 176.991 98.9204 176.67 98.4174 176.373C96.3519 175.15 94.3958 173.601 92.7816 172.207C89.4897 169.364 86.2286 165.944 84.0311 163.472C83.9242 163.352 83.8041 163.218 83.6745 163.073C82.9688 162.285 81.9804 161.182 81.2906 160.262L81.2783 160.246C80.5589 159.287 77.6087 155.354 78.5383 149.777C78.9433 147.347 79.9477 145.591 80.5146 144.703C81.0289 143.898 81.5855 143.209 81.7985 142.945L81.8268 142.909C81.8794 142.844 81.9295 142.782 81.9774 142.723C82.3993 142.2 82.6577 141.88 83.0154 141.344C83.7061 140.307 86.0003 136.739 89.209 131.749C92.7175 126.293 97.3194 119.136 102.114 111.729C111.01 97.9863 120.851 82.9399 124.468 78.2105C125.654 76.6592 126.576 75.3835 127.43 74.2017C127.661 73.8813 127.888 73.5679 128.113 73.2577C128.136 73.2258 128.16 73.1932 128.184 73.1601C129.02 72.0092 130.363 70.1599 131.912 68.6853C133.842 66.8464 137.456 64.2688 142.65 64.5132C146.666 64.7022 149.722 66.6125 150.839 67.311L150.86 67.3239C154.155 69.3832 158.395 73.2998 161.985 76.8896C164.635 79.5398 167.434 82.5237 170.004 85.479C170.172 85.2417 170.341 85.0025 170.512 84.7618C171.107 83.9199 171.716 83.0588 172.333 82.1887C176.337 76.5353 181.196 69.6951 183.469 67.0979C183.943 66.5567 184.242 66.1825 184.621 65.708C184.789 65.4978 184.973 65.268 185.194 64.9953C185.213 64.9719 185.237 64.9429 185.264 64.9088C185.711 64.3511 187.252 62.4276 189.523 61.03C193.021 58.8778 196.725 58.671 199.78 59.3407C201.978 59.8223 203.912 60.7895 204.854 61.2606L204.867 61.2668C206.696 62.1814 210.842 64.9097 215.001 67.665C218.434 69.9394 222.594 72.7229 227.037 75.6954C228.578 76.7262 230.152 77.7796 231.742 78.8425C243.467 86.6798 255.806 94.8734 262.626 98.9972C269.501 99.9892 287.662 102.208 305.602 104.224C315.309 105.315 324.813 106.331 332.229 107.042C335.945 107.398 339.074 107.671 341.419 107.84C341.831 107.87 342.197 107.894 342.52 107.915C342.586 107.44 342.65 106.948 342.71 106.445C343.061 103.522 343.181 101.041 343.049 99.5863C343.049 99.5873 343.049 99.5875 343.049 99.5863C343.048 99.5762 343.038 99.485 343.008 99.299C342.975 99.0981 342.925 98.832 342.854 98.4963C342.711 97.8183 342.504 96.9734 342.234 95.9788C341.692 93.987 340.96 91.6429 340.144 89.2526C338.406 84.1639 336.694 80.0589 336.01 78.8276C334.347 75.8332 332.998 72.6983 332.319 68.959C331.667 65.3746 331.758 61.9101 332.041 58.5034C332.326 55.0939 332.516 53.9374 332.961 51.8883L332.996 51.7299C333.27 50.4737 333.728 48.3682 334.651 42.604C335.187 39.252 336.31 34.0855 340 30.3272C342.288 27.9963 345.515 26.2713 349.365 26.0963C352.854 25.9377 355.606 27.1117 357.258 28.041C360.294 29.7486 362.513 32.31 363.521 33.4974C364.151 34.2393 364.736 34.9764 365.165 35.5173L365.172 35.5263ZM177.594 94.8062C177.593 94.8063 177.584 94.7964 177.565 94.7753C177.584 94.7953 177.594 94.8061 177.594 94.8062ZM170.064 122.385C170.063 122.383 170.093 122.404 170.157 122.452C170.096 122.412 170.064 122.387 170.064 122.385ZM285.795 165.888C285.795 165.888 285.807 165.888 285.834 165.889C285.808 165.889 285.795 165.888 285.795 165.888ZM300.26 159.887C300.26 159.885 300.261 159.903 300.261 159.944C300.26 159.909 300.26 159.889 300.26 159.887ZM344.624 48.3676C344.625 48.3686 344.626 48.3695 344.627 48.3705C344.591 48.3398 344.59 48.336 344.624 48.3676ZM355.92 60.9798C358.627 62.6501 361.745 63.6255 365.262 63.9111C366.986 81.7979 371.237 126.639 372.5 144.911V159.935C371.25 161.678 369.769 163.883 368.243 166.426C367.973 166.408 367.656 166.386 367.285 166.358C365.845 166.253 363.951 166.097 361.725 165.904C357.282 165.519 351.64 164.992 345.918 164.432C337.326 163.591 329.002 162.719 324.186 162.15C324.211 161.754 324.23 161.363 324.243 160.985C324.284 159.776 324.299 157.841 323.839 155.772C323.317 153.421 322.078 150.443 319.281 148.027C316.715 145.811 313.947 145.052 312.353 144.733C310.454 144.353 306.28 143.93 302.54 143.551L301.201 143.415C297.052 142.995 292.578 142.541 288.988 142.093C285.669 141.678 281.737 141.783 277.927 143.537C273.817 145.429 271.264 148.579 269.822 151.657C268.584 154.298 268.152 156.899 267.946 158.559C265.081 158.322 261.611 158.013 258.066 157.678C253.153 157.214 248.433 156.729 244.99 156.333C244.985 155.759 244.989 155.201 244.993 154.577C244.996 154.101 245 153.588 245 153C245 152.006 245.043 151.275 245.087 150.546L245.092 150.473C245.111 150.153 245.144 149.615 245.155 149.104C245.166 148.623 245.184 147.432 244.931 146.041C244.658 144.534 243.933 142.031 241.831 139.718C239.696 137.37 237.216 136.396 235.618 135.977C234.178 135.6 232.932 135.541 232.443 135.521C231.924 135.499 231.379 135.5 231.071 135.5L231 135.5C230.408 135.5 228.257 135.354 225.422 134.863C222.611 134.377 219.959 133.691 218.115 132.923C218.247 132.978 218.196 132.943 217.942 132.766C217.461 132.431 216.251 131.591 214.168 129.896C211.478 127.706 208.256 124.873 204.939 121.863C201.643 118.872 198.36 115.805 195.558 113.173C195.041 112.689 194.535 112.213 194.044 111.752C191.952 109.785 190.141 108.082 189.028 107.08C188.921 106.984 188.813 106.887 188.703 106.788C187.829 106.001 186.885 105.15 186.001 104.406C187.298 102.593 188.734 100.562 190.157 98.5499C190.75 97.7113 191.34 96.8759 191.917 96.0611C194.742 92.0733 197.328 88.4554 199.164 85.969C199.96 86.4915 200.822 87.061 201.746 87.6727C205.129 89.914 209.22 92.6508 213.645 95.6118C215.196 96.6493 216.788 97.7143 218.405 98.7952C230.666 106.991 244.644 116.285 251.84 120.508C253.457 121.457 255.248 122.137 257.263 122.459C263.107 123.394 283.528 125.895 302.922 128.074C312.689 129.172 322.338 130.203 329.939 130.932C333.732 131.296 337.076 131.59 339.696 131.778C341.862 131.934 344.633 132.114 346.497 131.958C350.442 131.63 354.901 130.696 358.681 127.911C363.017 124.715 364.642 120.479 365.267 117.353C365.736 115.006 367.63 104.884 366.951 97.4135C366.552 93.0261 364.556 86.4765 362.856 81.4972C361.094 76.3359 358.806 70.441 356.99 67.1722C356.154 65.6667 356.002 65.0515 355.931 64.6658C355.84 64.1602 355.754 63.2214 355.92 60.9798ZM160.013 111.143C159.236 110.314 158.614 109.536 158.209 109.031C158.187 109.003 158.165 108.976 158.144 108.95C157.707 108.404 157.221 107.785 156.731 107.158C156.667 107.076 156.603 106.994 156.539 106.913C155.965 106.18 155.34 105.384 154.63 104.496C151.961 101.161 148.396 97.2411 145.015 93.8602C144.568 93.4134 144.13 92.9814 143.703 92.5663C143.646 92.6402 143.589 92.7146 143.532 92.7893C140.649 96.5599 131.49 110.514 122.261 124.771C117.726 131.777 113.234 138.761 109.705 144.249C107.972 146.944 106.471 149.278 105.311 151.076C106.359 152.129 107.444 153.158 108.468 154.043C108.753 154.289 109.013 154.506 109.247 154.695C111.154 154.62 115.03 154.772 118.7 157.525C122.549 160.412 123.911 164.427 124.39 167.222C124.858 169.955 124.725 172.791 124.418 175.402C124.132 177.836 124.063 179.212 124.056 179.947C125.922 181.254 128.736 183.255 131.81 185.889C132.824 186.759 133.817 187.612 134.782 188.465C135.7 184.386 136.714 179.949 137.754 175.512C140.497 163.809 143.675 150.957 145.74 145.351C147.563 140.403 150.881 131.984 154.062 124.414C155.652 120.629 157.253 116.95 158.645 113.972C159.107 112.984 159.567 112.029 160.013 111.143ZM147.019 205.625C147.019 205.625 147.012 205.61 147.002 205.578C147.015 205.608 147.02 205.624 147.019 205.625ZM110.689 155.746C110.689 155.746 110.68 155.742 110.662 155.731C110.68 155.74 110.689 155.746 110.689 155.746ZM100.397 158.117C100.396 158.118 100.402 158.11 100.414 158.095C100.403 158.109 100.397 158.117 100.397 158.117ZM245.246 159.756C245.245 159.756 245.239 159.737 245.229 159.696C245.241 159.734 245.246 159.755 245.246 159.756ZM267.459 163.454C267.458 163.453 267.463 163.427 267.478 163.381C267.467 163.432 267.46 163.455 267.459 163.454Z" fill="white"/>
<path fill-rule="evenodd" clip-rule="evenodd" d="M357.755 41.4619C358.195 42.0175 358.568 42.4874 358.898 42.8731C359.709 43.819 360.356 44.7904 360.892 45.5965C360.929 45.6524 360.966 45.7075 361.002 45.7617C361.591 46.645 362.042 47.2963 362.557 47.8345C363.4 48.7165 364.591 49.5 367.5 49.5C368.962 49.5 370.164 49.4318 371.218 49.372C371.365 49.3636 371.51 49.3554 371.652 49.3476C372.703 49.2896 373.89 49.2258 374.905 49.4192C376.152 49.6565 377.297 50.3017 378.04 51.6067C378.641 52.6621 378.859 53.9683 378.988 55.2513C379.487 60.2413 385.491 122.283 386.994 144.33L387 144.415V162.52C387 164.079 386.441 165.529 385.55 166.68C384.303 168.293 382.262 171.155 380.16 174.76C378.429 177.727 376.946 179.696 374.908 180.554C373.866 180.993 372.869 181.063 372.024 181.063C371.648 181.063 371.253 181.048 370.887 181.034L370.777 181.03C370.363 181.014 369.95 181 369.5 181C367.342 181 355.913 179.979 344.507 178.863C333.054 177.743 321.195 176.484 318.089 175.966C314.758 175.411 312.148 174.189 310.669 171.724C309.287 169.421 309.256 166.577 309.51 163.774C309.636 162.392 309.723 161.334 309.752 160.493C309.778 159.714 309.747 159.259 309.7 158.995C309.65 158.982 309.587 158.967 309.51 158.951C308.414 158.732 304.966 158.372 300.56 157.925L299.689 157.836C295.592 157.421 290.956 156.951 287.19 156.481C285.465 156.265 284.51 156.47 283.991 156.708C283.535 156.918 283.217 157.244 282.951 157.811C282.654 158.445 282.457 159.315 282.319 160.482C282.233 161.202 282.187 161.813 282.138 162.47C282.098 163.004 282.056 163.569 281.988 164.249C281.714 166.986 281 169.306 279.608 170.975C278.124 172.757 276.122 173.5 274 173.5C272.349 173.5 264.566 172.857 256.703 172.114C248.813 171.368 240.434 170.484 237.553 169.96C233.254 169.178 231.614 165.568 230.986 162.428C230.453 159.761 230.476 156.658 230.494 154.203C230.497 153.781 230.5 153.378 230.5 153C230.5 151.737 230.55 150.747 230.595 149.995C227.075 149.917 218.67 148.862 212.539 146.308C210.647 145.52 207.902 143.491 205.016 141.142C202.027 138.71 198.582 135.675 195.195 132.601C191.804 129.524 188.447 126.387 185.633 123.744C185.079 123.224 184.547 122.725 184.041 122.249C181.96 120.293 180.312 118.744 179.328 117.858L179.075 117.63C177.927 116.597 177.059 115.816 176.337 115.229C175.723 114.73 175.343 114.481 175.117 114.361C175.099 114.376 175.08 114.393 175.059 114.412C174.898 114.558 174.691 114.777 174.421 115.101C174.29 115.257 173.973 115.744 173.466 116.695C172.989 117.589 172.42 118.747 171.78 120.114C170.504 122.844 168.987 126.326 167.43 130.031C164.317 137.441 161.081 145.656 159.346 150.364C157.662 154.936 154.699 166.759 151.872 178.821C149.064 190.802 146.443 202.783 145.447 207.515C144.918 210.027 144.21 212.004 143.278 213.407C142.341 214.817 140.893 216.019 138.954 215.935C137.171 215.858 135.864 214.708 135.054 213.673C134.197 212.576 133.544 211.179 133.106 209.718C131.844 205.512 129.425 202.943 122.373 196.898C119.688 194.597 117.419 193.006 115.556 191.699C115.064 191.355 114.601 191.03 114.166 190.718C113.17 190.001 112.189 189.256 111.461 188.453C110.695 187.608 110 186.472 110 185C110 184.646 109.943 184.298 109.871 183.856C109.643 182.462 109.262 180.129 110.017 173.708C110.255 171.684 110.228 170.425 110.099 169.672C110.058 169.437 110.014 169.281 109.978 169.183C109.931 169.181 109.873 169.182 109.801 169.185C109.436 169.202 109.065 169.266 108.524 169.361C108.342 169.393 108.139 169.428 107.911 169.466C106.98 169.621 106.095 169.44 105.392 169.207C104.666 168.966 103.943 168.604 103.258 168.198C101.887 167.387 100.416 166.248 98.9911 165.017C96.1282 162.545 93.1728 159.457 91.1316 157.161C90.9656 156.974 90.8037 156.793 90.647 156.617C89.9211 155.805 89.3053 155.115 88.8908 154.563C88.4115 153.924 87.6649 152.805 87.9092 151.339C88.0183 150.684 88.2956 150.17 88.5204 149.818C88.7394 149.475 89.0067 149.14 89.2251 148.869C89.2728 148.81 89.3214 148.75 89.371 148.689C89.8055 148.151 90.3125 147.525 90.92 146.613C91.6404 145.533 94.024 141.826 97.322 136.697C100.84 131.226 105.399 124.137 110.089 116.892C119.117 102.945 128.688 88.3313 132.014 83.9814C133.287 82.3174 134.3 80.9154 135.161 79.7237C135.383 79.4164 135.594 79.123 135.798 78.8428C136.744 77.5411 137.612 76.3755 138.464 75.5647C139.385 74.6868 140.596 73.9271 142.204 74.0028C143.571 74.0672 144.804 74.742 145.825 75.38C148.095 76.7986 151.65 79.9896 155.268 83.6073C158.944 87.2831 162.883 91.602 165.952 95.4383C166.711 96.3862 167.373 97.2303 167.954 97.971L168.146 98.2162C168.646 98.8556 169.076 99.4048 169.459 99.8819C169.873 100.398 170.193 100.781 170.443 101.062C170.486 101.011 170.532 100.957 170.58 100.9C171.582 99.697 174.695 95.297 178.285 90.2229C178.875 89.3897 179.477 88.5383 180.085 87.68C184.284 81.7522 188.76 75.4782 190.619 73.3538C191.238 72.646 191.707 72.0596 192.133 71.5266C192.282 71.3409 192.425 71.1617 192.568 70.9861C193.039 70.4064 193.679 69.6277 194.502 69.1209C195.553 68.4746 196.658 68.382 197.746 68.6205C198.658 68.8203 199.631 69.2705 200.618 69.764C201.779 70.3446 205.249 72.6003 209.754 75.5848C213.167 77.8457 217.299 80.6101 221.734 83.5774C223.279 84.6114 224.861 85.67 226.463 86.7405C238.9 95.0543 252.443 104.05 259.179 108.002C259.327 108.09 259.416 108.119 259.553 108.141C264.994 109.011 285.05 111.475 304.541 113.665C314.272 114.758 323.833 115.78 331.323 116.498C335.069 116.857 338.284 117.139 340.737 117.316C343.285 117.499 344.795 117.55 345.293 117.509C348.096 117.275 349.432 116.714 350.08 116.237C350.611 115.846 350.877 115.369 351.049 114.51C351.555 111.978 352.973 103.816 352.51 98.7264C352.291 96.3175 350.895 91.3382 349.134 86.1829C347.387 81.0654 345.447 76.2519 344.315 74.2141C342.979 71.809 342.104 69.6716 341.665 67.2597C341.233 64.8802 341.252 62.3772 341.509 59.2924C341.766 56.2071 341.905 55.4714 342.245 53.9065L342.273 53.7748C342.579 52.3703 343.07 50.1144 344.032 44.1051C344.539 40.9328 345.342 38.4462 346.779 36.9829C347.59 36.1572 348.621 35.6401 349.797 35.5866C350.898 35.5366 351.861 35.9048 352.601 36.3211C354.025 37.1222 355.304 38.4969 356.281 39.6473C356.796 40.2542 357.29 40.8756 357.729 41.4291L357.755 41.4619ZM171.113 101.724C171.113 101.725 171.111 101.723 171.105 101.719C171.11 101.722 171.113 101.724 171.113 101.724ZM109.91 169.037C109.91 169.036 109.913 169.04 109.918 169.049C109.912 169.042 109.909 169.037 109.91 169.037ZM350.184 40.6989C349.88 41.1746 349.376 42.3509 348.969 44.895C347.987 51.0341 347.478 53.3705 347.156 54.8541L347.131 54.9686C346.846 56.2787 346.734 56.7929 346.492 59.7076C346.249 62.6229 346.268 64.6199 346.585 66.3653C346.896 68.0785 347.522 69.691 348.686 71.7859C350.053 74.2482 352.113 79.4346 353.866 84.5672C355.606 89.6618 357.209 95.1826 357.49 98.2737C358.027 104.184 356.445 113.022 355.952 115.49C355.623 117.131 354.889 118.904 353.046 120.263C351.318 121.536 348.905 122.225 345.708 122.491C344.739 122.572 342.795 122.477 340.378 122.303C337.867 122.122 334.608 121.836 330.845 121.476C323.318 120.754 313.726 119.728 303.983 118.634C284.525 116.447 264.344 113.971 258.763 113.079C257.979 112.953 257.303 112.699 256.648 112.315C249.754 108.269 236.061 99.1704 223.684 90.8973C222.078 89.8237 220.493 88.7634 218.947 87.7286C214.514 84.7629 210.396 82.0076 206.993 79.7531C202.305 76.6479 199.192 74.6409 198.382 74.2361C197.648 73.8691 197.202 73.6763 196.925 73.5788C196.82 73.6933 196.667 73.8699 196.448 74.139C196.34 74.2729 196.218 74.4244 196.085 74.5916C195.649 75.1363 195.082 75.8461 194.382 76.6463C192.74 78.5219 188.466 84.4979 184.165 90.5701C183.564 91.4189 182.962 92.2699 182.368 93.1096C178.824 98.1203 175.563 102.73 174.421 104.1C174.098 104.488 173.757 104.882 173.41 105.221C173.072 105.551 172.614 105.944 172.031 106.22C171.386 106.526 170.63 106.667 169.82 106.51C169.075 106.366 168.481 106.008 168.044 105.673C167.23 105.051 166.407 104.069 165.557 103.009C165.156 102.508 164.707 101.935 164.21 101.3C164.147 101.219 164.082 101.137 164.017 101.054C163.44 100.317 162.79 99.4889 162.048 98.5618C159.117 94.8981 155.307 90.7169 151.732 87.1428C148.1 83.5105 144.905 80.7014 143.175 79.62C142.572 79.243 142.239 79.0934 142.082 79.0346C142.039 79.0693 141.983 79.118 141.912 79.1854C141.451 79.6245 140.85 80.3964 139.843 81.7823C139.65 82.0476 139.446 82.3306 139.229 82.631C138.366 83.8257 137.304 85.2951 135.986 87.0187C132.812 91.1688 123.384 105.555 114.286 119.609C109.65 126.77 105.115 133.823 101.592 139.301C98.2475 144.502 95.8164 148.283 95.0803 149.387C94.3397 150.498 93.7006 151.287 93.2592 151.832C93.2328 151.865 93.2071 151.897 93.1822 151.927C93.447 152.244 93.8067 152.648 94.3079 153.21C94.4779 153.4 94.6643 153.609 94.8687 153.839C96.8275 156.043 99.6221 158.955 102.259 161.233C103.584 162.377 104.801 163.301 105.805 163.896C106.307 164.193 106.694 164.37 106.968 164.461C107.074 164.497 107.143 164.512 107.179 164.519C107.267 164.504 107.362 164.487 107.463 164.469C108.057 164.364 108.854 164.223 109.574 164.19C110.507 164.148 111.826 164.244 113 165.125C114.198 166.023 114.778 167.379 115.027 168.828C115.273 170.263 115.245 172.066 114.983 174.292C114.313 179.986 114.544 181.277 114.773 182.553C114.883 183.17 114.993 183.783 115 184.89C115.027 184.931 115.077 184.998 115.165 185.094C115.499 185.462 116.081 185.936 117.084 186.657C117.465 186.931 117.89 187.229 118.354 187.554C120.224 188.864 122.737 190.625 125.627 193.102C132.575 199.057 136.157 202.489 137.895 208.282C138.206 209.321 138.616 210.111 138.993 210.593C139.022 210.63 139.05 210.664 139.076 210.695C139.088 210.678 139.1 210.659 139.113 210.64C139.541 209.996 140.083 208.723 140.554 206.485C141.558 201.717 144.187 189.698 147.004 177.68C149.802 165.742 152.839 153.564 154.654 148.636C156.42 143.844 159.684 135.559 162.82 128.094C164.389 124.362 165.934 120.812 167.251 117.996C167.909 116.589 168.519 115.344 169.054 114.342C169.559 113.396 170.085 112.493 170.58 111.9C171.25 111.096 172.058 110.25 173.075 109.749C174.276 109.158 175.509 109.161 176.677 109.592C177.683 109.962 178.624 110.644 179.491 111.349C180.317 112.02 181.278 112.886 182.381 113.879C182.477 113.966 182.574 114.053 182.673 114.142C183.702 115.068 185.406 116.67 187.493 118.631C187.993 119.101 188.515 119.592 189.055 120.099C191.866 122.738 195.197 125.851 198.555 128.899C201.918 131.95 205.286 134.915 208.172 137.264C211.161 139.697 213.353 141.231 214.462 141.692C220.081 144.034 228.236 145 231 145C231.051 145 231.105 145 231.161 145C231.735 144.998 232.554 144.995 233.212 145.168C233.674 145.289 234.287 145.543 234.801 146.108C235.309 146.667 235.503 147.29 235.585 147.74C235.704 148.397 235.653 149.208 235.615 149.807C235.612 149.864 235.608 149.919 235.605 149.972C235.559 150.736 235.5 151.704 235.5 153C235.5 153.449 235.498 153.9 235.495 154.352C235.481 156.839 235.466 159.332 235.889 161.447C236.386 163.932 237.247 164.822 238.447 165.04C241.066 165.517 249.188 166.382 257.173 167.136C265.184 167.893 272.651 168.5 274 168.5C274.879 168.5 275.377 168.243 275.767 167.775C276.251 167.194 276.786 166.014 277.013 163.751C277.052 163.359 277.091 162.856 277.134 162.318C277.198 161.505 277.268 160.611 277.354 159.893C277.512 158.561 277.784 157.055 278.424 155.689C279.096 154.256 280.184 152.957 281.9 152.167C283.553 151.405 285.535 151.235 287.81 151.519C291.515 151.982 296.095 152.447 300.209 152.864L301.065 152.95C305.284 153.378 309.087 153.768 310.49 154.049C311.317 154.214 312.265 154.521 313.072 155.217C313.927 155.956 314.358 156.898 314.566 157.833C314.76 158.709 314.782 159.681 314.749 160.663C314.715 161.666 314.614 162.858 314.49 164.226C314.245 166.923 314.463 168.329 314.956 169.151C315.352 169.811 316.242 170.589 318.911 171.034C321.805 171.516 333.446 172.757 344.994 173.887C356.587 175.021 367.659 176 369.5 176C370.05 176 370.543 176.017 370.964 176.033L371.059 176.037C371.449 176.051 371.748 176.063 372.024 176.063C372.6 176.063 372.822 176.007 372.968 175.946C373.304 175.804 374.071 175.274 375.841 172.24C378.064 168.429 380.23 165.387 381.595 163.622C381.873 163.262 382 162.871 382 162.52V144.585C380.494 122.558 374.513 60.7523 374.013 55.7488C373.956 55.1814 373.891 54.776 373.823 54.4846C373.807 54.4151 373.791 54.3557 373.776 54.3051C373.451 54.2762 372.914 54.2855 371.927 54.34C371.793 54.3474 371.654 54.3553 371.509 54.3636C370.455 54.4236 369.113 54.5 367.5 54.5C363.409 54.5 360.85 53.2836 358.944 51.2906C358.083 50.3913 357.409 49.3863 356.842 48.5352L356.769 48.4254C356.201 47.5741 355.709 46.8353 355.102 46.127C354.708 45.6668 354.282 45.1296 353.869 44.6089L353.811 44.5358C353.367 43.976 352.923 43.4177 352.47 42.884C351.528 41.7757 350.757 41.033 350.184 40.6989ZM138.795 211.021C138.795 211.02 138.803 211.013 138.819 211.005C138.804 211.018 138.796 211.022 138.795 211.021ZM114.971 184.84C114.971 184.84 114.973 184.844 114.976 184.851C114.972 184.844 114.971 184.84 114.971 184.84ZM92.7418 151.342C92.7422 151.342 92.746 151.349 92.7521 151.361C92.7444 151.348 92.7414 151.342 92.7418 151.342ZM142.192 78.9567C142.191 78.9571 142.187 78.9595 142.18 78.963C142.188 78.9582 142.192 78.9564 142.192 78.9567Z" fill="black"/>
</svg>
