<svg width="522" height="252" viewBox="0 0 522 252" fill="none" xmlns="http://www.w3.org/2000/svg">
<path fill-rule="evenodd" clip-rule="evenodd" d="M521 1.5H1V0.5H521V1.5Z" fill="#20202E"/>
<path fill-rule="evenodd" clip-rule="evenodd" d="M521 11.5H1V10.5H521V11.5Z" fill="#20202E"/>
<path fill-rule="evenodd" clip-rule="evenodd" d="M521 21.5H1V20.5H521V21.5Z" fill="#20202E"/>
<path fill-rule="evenodd" clip-rule="evenodd" d="M521 31.5H1V30.5H521V31.5Z" fill="#20202E"/>
<path fill-rule="evenodd" clip-rule="evenodd" d="M521 41.5H1V40.5H521V41.5Z" fill="#20202E"/>
<path fill-rule="evenodd" clip-rule="evenodd" d="M521 51.5H1V50.5H521V51.5Z" fill="#20202E"/>
<path fill-rule="evenodd" clip-rule="evenodd" d="M521 61.5H1V60.5H521V61.5Z" fill="#20202E"/>
<path fill-rule="evenodd" clip-rule="evenodd" d="M521 71.5H1V70.5H521V71.5Z" fill="#20202E"/>
<path fill-rule="evenodd" clip-rule="evenodd" d="M521 81.5H1V80.5H521V81.5Z" fill="#20202E"/>
<path fill-rule="evenodd" clip-rule="evenodd" d="M521 91.5H1V90.5H521V91.5Z" fill="#20202E"/>
<path fill-rule="evenodd" clip-rule="evenodd" d="M521 101.5H1V100.5H521V101.5Z" fill="#20202E"/>
<path fill-rule="evenodd" clip-rule="evenodd" d="M521 111.5H1V110.5H521V111.5Z" fill="#20202E"/>
<path fill-rule="evenodd" clip-rule="evenodd" d="M521 121.5H1V120.5H521V121.5Z" fill="#20202E"/>
<path fill-rule="evenodd" clip-rule="evenodd" d="M521 131.5H1V130.5H521V131.5Z" fill="#20202E"/>
<path fill-rule="evenodd" clip-rule="evenodd" d="M521 141.5H1V140.5H521V141.5Z" fill="#20202E"/>
<path fill-rule="evenodd" clip-rule="evenodd" d="M521 151.5H1V150.5H521V151.5Z" fill="#20202E"/>
<path fill-rule="evenodd" clip-rule="evenodd" d="M521 161.5H1V160.5H521V161.5Z" fill="#20202E"/>
<path fill-rule="evenodd" clip-rule="evenodd" d="M521 171.5H1V170.5H521V171.5Z" fill="#20202E"/>
<path fill-rule="evenodd" clip-rule="evenodd" d="M521 181.5H1V180.5H521V181.5Z" fill="#20202E"/>
<path fill-rule="evenodd" clip-rule="evenodd" d="M521 191.5H1V190.5H521V191.5Z" fill="#20202E"/>
<path fill-rule="evenodd" clip-rule="evenodd" d="M521 201.5H1V200.5H521V201.5Z" fill="#20202E"/>
<path fill-rule="evenodd" clip-rule="evenodd" d="M521 211.5H1V210.5H521V211.5Z" fill="#20202E"/>
<path fill-rule="evenodd" clip-rule="evenodd" d="M521 221.5H1V220.5H521V221.5Z" fill="#20202E"/>
<path fill-rule="evenodd" clip-rule="evenodd" d="M521 231.5H1V230.5H521V231.5Z" fill="#20202E"/>
<path fill-rule="evenodd" clip-rule="evenodd" d="M521 241.5H1V240.5H521V241.5Z" fill="#20202E"/>
<path fill-rule="evenodd" clip-rule="evenodd" d="M521 251.5H1V250.5H521V251.5Z" fill="#20202E"/>
<path fill-rule="evenodd" clip-rule="evenodd" d="M0.5 251L0.5 1L1.5 1L1.5 251L0.5 251Z" fill="#20202E"/>
<path fill-rule="evenodd" clip-rule="evenodd" d="M10.5 251L10.5 1L11.5 1L11.5 251L10.5 251Z" fill="#20202E"/>
<path fill-rule="evenodd" clip-rule="evenodd" d="M20.5 251L20.5 1L21.5 1L21.5 251L20.5 251Z" fill="#20202E"/>
<path fill-rule="evenodd" clip-rule="evenodd" d="M30.5 251L30.5 1L31.5 1L31.5 251L30.5 251Z" fill="#20202E"/>
<path fill-rule="evenodd" clip-rule="evenodd" d="M40.5 251L40.5 1L41.5 1L41.5 251L40.5 251Z" fill="#20202E"/>
<path fill-rule="evenodd" clip-rule="evenodd" d="M50.5 251L50.5 1L51.5 1L51.5 251L50.5 251Z" fill="#20202E"/>
<path fill-rule="evenodd" clip-rule="evenodd" d="M60.5 251L60.5 1L61.5 1L61.5 251L60.5 251Z" fill="#20202E"/>
<path fill-rule="evenodd" clip-rule="evenodd" d="M70.5 251L70.5 1L71.5 1L71.5 251L70.5 251Z" fill="#20202E"/>
<path fill-rule="evenodd" clip-rule="evenodd" d="M80.5 251L80.5 1L81.5 1L81.5 251L80.5 251Z" fill="#20202E"/>
<path fill-rule="evenodd" clip-rule="evenodd" d="M90.5 251L90.5 1L91.5 1L91.5 251L90.5 251Z" fill="#20202E"/>
<path fill-rule="evenodd" clip-rule="evenodd" d="M100.5 251L100.5 1L101.5 1L101.5 251L100.5 251Z" fill="#20202E"/>
<path fill-rule="evenodd" clip-rule="evenodd" d="M110.5 251L110.5 1L111.5 1L111.5 251L110.5 251Z" fill="#20202E"/>
<path fill-rule="evenodd" clip-rule="evenodd" d="M120.5 251L120.5 1L121.5 1L121.5 251L120.5 251Z" fill="#20202E"/>
<path fill-rule="evenodd" clip-rule="evenodd" d="M130.5 251L130.5 1L131.5 1L131.5 251L130.5 251Z" fill="#20202E"/>
<path fill-rule="evenodd" clip-rule="evenodd" d="M140.5 251L140.5 1L141.5 1L141.5 251L140.5 251Z" fill="#20202E"/>
<path fill-rule="evenodd" clip-rule="evenodd" d="M150.5 251L150.5 1L151.5 1L151.5 251L150.5 251Z" fill="#20202E"/>
<path fill-rule="evenodd" clip-rule="evenodd" d="M160.5 251L160.5 1L161.5 1L161.5 251L160.5 251Z" fill="#20202E"/>
<path fill-rule="evenodd" clip-rule="evenodd" d="M170.5 251L170.5 1L171.5 1L171.5 251L170.5 251Z" fill="#20202E"/>
<path fill-rule="evenodd" clip-rule="evenodd" d="M180.5 251L180.5 1L181.5 1L181.5 251L180.5 251Z" fill="#20202E"/>
<path fill-rule="evenodd" clip-rule="evenodd" d="M190.5 251L190.5 1L191.5 1L191.5 251L190.5 251Z" fill="#20202E"/>
<path fill-rule="evenodd" clip-rule="evenodd" d="M200.5 251L200.5 1L201.5 1L201.5 251L200.5 251Z" fill="#20202E"/>
<path fill-rule="evenodd" clip-rule="evenodd" d="M210.5 251L210.5 1L211.5 1L211.5 251L210.5 251Z" fill="#20202E"/>
<path fill-rule="evenodd" clip-rule="evenodd" d="M220.5 251L220.5 1L221.5 1L221.5 251L220.5 251Z" fill="#20202E"/>
<path fill-rule="evenodd" clip-rule="evenodd" d="M230.5 251L230.5 1L231.5 1L231.5 251L230.5 251Z" fill="#20202E"/>
<path fill-rule="evenodd" clip-rule="evenodd" d="M240.5 251L240.5 1L241.5 1L241.5 251L240.5 251Z" fill="#20202E"/>
<path fill-rule="evenodd" clip-rule="evenodd" d="M250.5 251L250.5 1L251.5 1L251.5 251L250.5 251Z" fill="#20202E"/>
<path fill-rule="evenodd" clip-rule="evenodd" d="M260.5 251L260.5 1L261.5 1L261.5 251L260.5 251Z" fill="#20202E"/>
<path fill-rule="evenodd" clip-rule="evenodd" d="M270.5 251L270.5 1L271.5 1L271.5 251L270.5 251Z" fill="#20202E"/>
<path fill-rule="evenodd" clip-rule="evenodd" d="M280.5 251L280.5 1L281.5 1L281.5 251L280.5 251Z" fill="#20202E"/>
<path fill-rule="evenodd" clip-rule="evenodd" d="M290.5 251L290.5 1L291.5 1L291.5 251L290.5 251Z" fill="#20202E"/>
<path fill-rule="evenodd" clip-rule="evenodd" d="M300.5 251L300.5 1L301.5 1L301.5 251L300.5 251Z" fill="#20202E"/>
<path fill-rule="evenodd" clip-rule="evenodd" d="M310.5 251L310.5 1L311.5 1L311.5 251L310.5 251Z" fill="#20202E"/>
<path fill-rule="evenodd" clip-rule="evenodd" d="M320.5 251L320.5 1L321.5 1L321.5 251L320.5 251Z" fill="#20202E"/>
<path fill-rule="evenodd" clip-rule="evenodd" d="M330.5 251L330.5 1L331.5 1L331.5 251L330.5 251Z" fill="#20202E"/>
<path fill-rule="evenodd" clip-rule="evenodd" d="M340.5 251L340.5 1L341.5 1L341.5 251L340.5 251Z" fill="#20202E"/>
<path fill-rule="evenodd" clip-rule="evenodd" d="M350.5 251L350.5 1L351.5 1L351.5 251L350.5 251Z" fill="#20202E"/>
<path fill-rule="evenodd" clip-rule="evenodd" d="M360.5 251L360.5 1L361.5 1L361.5 251L360.5 251Z" fill="#20202E"/>
<path fill-rule="evenodd" clip-rule="evenodd" d="M370.5 251L370.5 1L371.5 1L371.5 251L370.5 251Z" fill="#20202E"/>
<path fill-rule="evenodd" clip-rule="evenodd" d="M380.5 251L380.5 1L381.5 1L381.5 251L380.5 251Z" fill="#20202E"/>
<path fill-rule="evenodd" clip-rule="evenodd" d="M390.5 251L390.5 1L391.5 1L391.5 251L390.5 251Z" fill="#20202E"/>
<path fill-rule="evenodd" clip-rule="evenodd" d="M400.5 251L400.5 1L401.5 1L401.5 251L400.5 251Z" fill="#20202E"/>
<path fill-rule="evenodd" clip-rule="evenodd" d="M410.5 251L410.5 1L411.5 1L411.5 251L410.5 251Z" fill="#20202E"/>
<path fill-rule="evenodd" clip-rule="evenodd" d="M420.5 251L420.5 1L421.5 1L421.5 251L420.5 251Z" fill="#20202E"/>
<path fill-rule="evenodd" clip-rule="evenodd" d="M430.5 251L430.5 1L431.5 1L431.5 251L430.5 251Z" fill="#20202E"/>
<path fill-rule="evenodd" clip-rule="evenodd" d="M440.5 251L440.5 1L441.5 1L441.5 251L440.5 251Z" fill="#20202E"/>
<path fill-rule="evenodd" clip-rule="evenodd" d="M450.5 251L450.5 1L451.5 1L451.5 251L450.5 251Z" fill="#20202E"/>
<path fill-rule="evenodd" clip-rule="evenodd" d="M460.5 251L460.5 1L461.5 1L461.5 251L460.5 251Z" fill="#20202E"/>
<path fill-rule="evenodd" clip-rule="evenodd" d="M470.5 251L470.5 1L471.5 1L471.5 251L470.5 251Z" fill="#20202E"/>
<path fill-rule="evenodd" clip-rule="evenodd" d="M480.5 251L480.5 1L481.5 1L481.5 251L480.5 251Z" fill="#20202E"/>
<path fill-rule="evenodd" clip-rule="evenodd" d="M490.5 251L490.5 1L491.5 1L491.5 251L490.5 251Z" fill="#20202E"/>
<path fill-rule="evenodd" clip-rule="evenodd" d="M500.5 251L500.5 1L501.5 1L501.5 251L500.5 251Z" fill="#20202E"/>
<path fill-rule="evenodd" clip-rule="evenodd" d="M510.5 251L510.5 1L511.5 1L511.5 251L510.5 251Z" fill="#20202E"/>
<path fill-rule="evenodd" clip-rule="evenodd" d="M520.5 251L520.5 1L521.5 1L521.5 251L520.5 251Z" fill="#20202E"/>
<path fill-rule="evenodd" clip-rule="evenodd" d="M391.495 53.0209C391.108 53.5776 390.694 54.1779 390.254 54.8169C387.998 58.0983 385.163 62.2803 382.264 66.5823C377.541 73.5903 372.691 80.851 369.976 84.9209C370.338 85.136 370.701 85.368 371.054 85.617C371.369 85.8382 371.741 86.1161 372.144 86.4566C374.155 83.4823 376.186 80.4639 378.184 77.4949C380.195 74.5069 382.172 71.569 384.061 68.7765L384.3 68.4224L384.564 68.0863C386.896 65.1187 389.753 60.7692 392.533 56.3921C393.022 55.6213 393.528 54.818 394.037 54.0092C393.257 53.7108 392.413 53.3838 391.495 53.0209ZM399.593 45.5263C399.593 45.5261 399.585 45.5406 399.565 45.5702C399.582 45.5413 399.592 45.5265 399.593 45.5263ZM330.341 119.502C330.341 119.503 330.319 119.52 330.273 119.547C330.319 119.515 330.341 119.501 330.341 119.502ZM311.446 125.473C309.66 125.653 307.778 125.77 305.811 125.811C294.994 126.035 281.326 123.937 266.718 116.776C242.879 105.09 211.354 98.8364 198.675 97.4276C194.106 96.9199 187.428 97.8551 180.279 99.5973C176.316 100.563 172.638 101.664 169.638 102.622C170.373 104.666 171.21 106.963 172.064 109.267C174.225 115.094 176.095 119.858 176.733 121.134C176.825 121.319 176.926 121.519 177.034 121.731C177.982 120.814 178.991 119.93 180.064 119.082C187.715 113.043 197.02 111.361 204.87 111.439C212.806 111.518 220.591 113.388 226.657 115.941C233.499 118.822 240.17 124.326 244.985 129.141C247.508 131.664 249.837 134.313 251.719 136.829C252.413 137.757 253.194 138.858 253.941 140.076C264.259 137.605 291.186 130.774 311.446 125.473ZM246.839 141.628C246.839 141.627 246.856 141.625 246.888 141.622C246.855 141.626 246.839 141.628 246.839 141.628ZM257.384 149.222C257.406 149.306 257.408 149.327 257.395 149.268C257.392 149.257 257.389 149.243 257.384 149.222ZM166.529 161.572C164.728 162.146 163.324 162.299 163.028 162.331C162.998 162.335 162.98 162.337 162.973 162.338C160.611 162.731 134.529 167.023 124.004 168.213C123.973 168.338 123.942 168.465 123.91 168.592C123.389 170.695 122.79 173.113 122.193 175.699C121.944 176.779 121.712 177.662 121.511 178.381C121.659 178.889 121.838 179.503 122.038 180.204C123.494 185.3 127.463 194.646 130.065 200.207C135.485 197.598 143.632 193.645 151.901 189.631L152.367 189.406C160.54 185.439 168.844 181.41 174.301 178.79C173.954 178.219 173.603 177.634 173.273 177.07C170.999 173.192 168.208 167.904 166.529 161.572ZM123.877 203.142C123.877 203.14 123.907 203.128 123.963 203.108C123.904 203.133 123.876 203.143 123.877 203.142ZM121.02 176.639C121.021 176.64 121.028 176.67 121.039 176.725C121.024 176.665 121.019 176.638 121.02 176.639ZM125.482 161.679C125.482 161.679 125.48 161.691 125.476 161.713C125.48 161.689 125.482 161.678 125.482 161.679ZM119.081 168.71C119.014 168.727 118.999 168.727 119.045 168.718C119.054 168.716 119.066 168.713 119.081 168.71ZM363.196 81.8725C363.197 81.8723 363.21 81.8799 363.236 81.8956C363.208 81.8805 363.196 81.8727 363.196 81.8725ZM398.962 30.1592C399.141 30.2319 399.306 30.2991 399.457 30.3593C400.633 30.8298 402.001 31.3484 403.436 31.8923C406.736 33.1436 410.389 34.5283 412.867 35.7671L412.905 35.786C413.611 36.139 415.032 36.8496 416.383 37.8113C417.78 38.8067 420.238 40.8466 421.642 44.356C423.168 48.1712 422.705 51.789 421.798 54.4199C420.976 56.8022 419.673 58.769 418.6 60.2002C418.02 60.9734 416.915 62.7278 415.242 65.3824C414.529 66.5131 413.714 67.8072 412.792 69.2583C410.127 73.4562 406.803 78.576 403.711 82.5612C401.959 85.1522 400.1 87.9148 398.193 90.7491C393.968 97.0279 389.506 103.659 385.447 109.555C382.452 113.906 379.603 117.965 377.155 121.289C374.866 124.396 372.464 127.507 370.485 129.486C366.351 133.621 361.989 135.922 356.619 137.817C352.964 139.107 348.225 140.404 342.363 142.008C340.583 142.496 338.7 143.011 336.712 143.563C318.604 148.593 265.384 162.153 256.103 164.215L255.866 164.268C253.898 164.706 251.884 165.153 250.271 165.382C250.236 165.387 250.195 165.393 250.147 165.4C249.032 165.567 244.461 166.25 240.148 163.596C235.183 160.54 234.149 155.371 234.01 154.674C234.004 154.644 233.999 154.622 233.996 154.609C233.838 153.913 233.768 153.559 233.72 153.314C233.684 153.133 233.66 153.012 233.621 152.857C233.522 152.69 233.208 152.15 232.5 151.205C231.414 149.752 229.867 147.964 228.015 146.111C224.08 142.176 220.002 139.18 217.343 138.061C213.909 136.614 209.195 135.484 204.63 135.438C199.981 135.391 196.786 136.459 194.936 137.92C189.822 141.957 188.06 148.764 189.642 155.091C190.486 158.466 192.079 161.694 193.978 164.932C194.613 166.016 195.143 166.876 195.704 167.784C196.062 168.364 196.431 168.964 196.848 169.653C197.667 171.009 198.919 173.109 199.736 175.288L199.756 175.341C200.501 177.327 202.606 182.935 199.966 188.875C197.424 194.594 192.05 197 189.874 197.967C187.868 198.858 175.552 204.831 162.614 211.109L161.362 211.717C149.146 217.646 136.801 223.637 133.966 224.925C131.791 225.914 128.626 227.032 124.941 226.797C120.631 226.523 117.247 224.53 114.914 222.066C112.996 220.042 111.865 217.768 111.326 216.664C111.059 216.118 110.789 215.533 110.573 215.065C110.536 214.986 110.502 214.911 110.469 214.84C110.214 214.289 109.995 213.823 109.767 213.368C107.146 208.125 101.263 194.854 98.9618 186.798C98.8232 186.312 98.6767 185.809 98.534 185.319C98.2613 184.382 98.0023 183.492 97.8376 182.864C97.5561 181.79 97.0484 179.752 97.2142 177.265C97.3466 175.279 97.9248 173.472 98.0792 172.99C98.0923 172.949 98.1024 172.917 98.1089 172.896C98.2994 172.272 98.522 171.539 98.8074 170.303C99.7223 166.338 100.352 163.847 100.815 162.016C101.225 160.398 101.504 159.295 101.733 158.148C101.749 158.067 101.754 158.039 101.767 157.962C101.78 157.888 101.8 157.77 101.845 157.519C101.904 157.187 102.045 156.403 102.305 155.516C102.939 153.354 104.297 150.508 107.246 148.239C109.717 146.339 112.35 145.608 114.003 145.253C115.769 144.874 117.705 144.67 119.645 144.532C124.934 144.154 146.883 140.645 155.677 139.214C156.171 137.397 156.452 136.105 156.727 134.842C156.731 134.822 156.736 134.803 156.74 134.783C156.711 134.725 156.681 134.664 156.65 134.602C156.471 134.245 156.278 133.865 156.051 133.419L156.028 133.373C155.797 132.919 155.537 132.409 155.267 131.868C153.905 129.144 151.525 122.908 149.561 117.61C147.483 112.006 145.429 106.235 144.616 103.796C144.599 103.746 144.582 103.693 144.563 103.638C144.251 102.707 143.672 100.975 143.386 99.2418C143.038 97.1253 142.809 93.2878 145.148 89.3896C147.242 85.8998 150.32 84.2361 151.812 83.5116C153.425 82.7282 155.244 82.104 156.705 81.6168C156.968 81.5294 157.264 81.43 157.591 81.32C160.872 80.2179 167.313 78.0547 174.596 76.2797C182.322 74.397 192.395 72.5821 201.325 73.5744C215.646 75.1656 250.121 81.9119 277.282 95.226C288.174 100.565 298.006 101.967 305.314 101.816C308.99 101.74 311.956 101.272 314.027 100.756C315.445 100.402 316.129 100.108 316.281 100.049C319.15 98.005 326.303 93.872 334.105 98.4824C337.463 100.467 339.401 103.354 340.516 105.479C341.008 106.417 341.437 107.392 341.814 108.382C342.246 108.236 342.596 108.117 342.916 108.004C342.948 107.993 342.979 107.982 343.008 107.971C343.343 107.521 343.834 106.825 344.634 105.67C345.781 104.014 347.06 102.26 348.267 100.626C347.845 100.276 347.425 99.8969 347.015 99.4863C345.645 98.116 343.331 95.4885 342.48 91.5334C341.556 87.2396 342.838 83.7651 343.737 81.8861C344.413 80.4723 345.364 79.0102 345.877 78.2219C345.941 78.1243 345.997 78.0371 346.046 77.9615C346.676 76.9842 347.286 76.0166 347.934 74.8117L348.202 74.3145L348.515 73.8446L348.519 73.8386C350.523 70.8326 356.534 61.8165 362.361 53.1698C365.275 48.8468 368.159 44.5912 370.48 41.2163C372.594 38.1436 374.707 35.108 375.781 33.8188C377.24 32.069 379.258 30.2325 382.017 28.999C384.854 27.7307 387.636 27.4736 390.02 27.6642C393.504 27.9429 397.031 29.375 398.962 30.1592ZM344.022 115.724C344.021 115.721 344.019 115.718 344.018 115.714C344.028 115.739 344.029 115.743 344.022 115.724ZM157.372 136.152C157.372 136.152 157.369 136.143 157.363 136.127C157.37 136.144 157.373 136.152 157.372 136.152Z" fill="white"/>
<path fill-rule="evenodd" clip-rule="evenodd" d="M387.934 42.2362C387.707 42.3379 387.372 42.5595 386.921 43.1012C386.389 43.7389 384.753 46.0518 382.427 49.4331C380.145 52.7515 377.291 56.9626 374.386 61.2729C368.638 69.8015 362.706 78.6982 360.645 81.7908C359.744 83.4536 358.91 84.7671 358.234 85.8159L358.09 86.0393C357.448 87.0358 357.058 87.6408 356.818 88.1419C356.727 88.332 356.688 88.4483 356.671 88.51C356.718 88.5987 356.863 88.828 357.268 89.233C357.722 89.6874 358.425 90.135 359.392 90.5936C360.168 90.9616 360.973 91.2751 361.827 91.6074C362.041 91.6908 362.258 91.7753 362.479 91.8622C363.467 92.2515 364.671 92.741 365.587 93.3859C366.513 94.0375 367.87 95.3987 367.452 97.491C367.229 98.6019 366.563 99.817 365.908 100.877C365.2 102.023 364.279 103.336 363.272 104.721C362.563 105.696 361.811 106.708 361.038 107.747C359.566 109.728 358.02 111.808 356.556 113.924L356.532 113.958C354.392 117.049 353.097 118.92 351.075 120.183C350.079 120.806 348.986 121.239 347.738 121.679C347.197 121.869 346.593 122.073 345.929 122.296L345.591 122.41C344.786 122.681 343.878 122.989 342.832 123.358C340.714 124.106 338.938 124.674 337.479 124.926C336.024 125.176 334.423 125.197 332.997 124.314C331.612 123.457 330.913 122.059 330.449 120.826C330.034 119.72 329.661 118.316 329.249 116.762C329.195 116.559 329.14 116.353 329.085 116.145C328.609 114.361 328.135 113.089 327.677 112.217C327.211 111.329 326.859 111.043 326.728 110.966C326.726 110.964 326.723 110.962 326.72 110.961C326.68 110.936 326.615 110.895 326.352 110.962C325.981 111.057 325.381 111.34 324.5 112.001C323.096 113.054 320.611 114.058 317.535 114.825C314.369 115.614 310.324 116.215 305.614 116.313C296.186 116.508 284.037 114.685 270.9 108.246C245.746 95.9152 213.053 89.4665 199.724 87.9855C193.428 87.2859 185.407 88.5693 178.03 90.3672C171.378 91.9882 165.487 93.9651 162.199 95.0684C161.869 95.1789 161.566 95.2807 161.291 95.3725C159.783 95.8751 158.802 96.236 158.147 96.5542C157.925 96.6622 157.777 96.7483 157.682 96.8097C157.685 96.832 157.689 96.8565 157.693 96.8832C157.772 97.3597 157.98 98.0347 158.372 99.2102C159.109 101.421 161.097 107.015 163.157 112.569C165.24 118.187 167.312 123.534 168.236 125.383C168.472 125.854 168.709 126.32 168.941 126.777C169.638 128.147 170.294 129.436 170.751 130.554C171.359 132.039 171.878 133.798 171.425 135.607C171.306 136.086 171.177 136.671 171.024 137.37C170.606 139.276 170.004 142.022 168.895 145.719C168.15 148.2 167.364 150.131 165.927 151.347C164.609 152.463 162.978 152.719 161.779 152.908C161.651 152.928 161.528 152.947 161.411 152.967C158.495 153.453 127.83 158.484 120.678 158.994C118.968 159.117 117.823 159.263 117.049 159.429C116.583 159.529 116.326 159.622 116.196 159.678C116.161 159.814 116.142 159.93 116.112 160.112C116.08 160.302 116.037 160.563 115.952 160.991C115.697 162.263 115.3 163.857 114.78 165.938C114.274 167.965 113.653 170.456 112.936 173.563C112.542 175.269 112.211 176.362 111.977 177.129C111.721 177.97 111.69 178.112 111.682 178.23L111.682 178.23C111.679 178.279 111.668 178.441 111.864 179.187C111.983 179.643 112.143 180.19 112.36 180.936C112.512 181.454 112.691 182.068 112.904 182.814C114.841 189.594 120.261 201.933 122.736 206.883C123.066 207.543 123.361 208.173 123.626 208.746C123.667 208.835 123.708 208.922 123.747 209.008C123.967 209.484 124.163 209.907 124.356 210.302C124.829 211.271 125.16 211.798 125.44 212.094C125.634 212.298 125.722 212.317 125.862 212.326C126.133 212.343 126.757 212.274 127.966 211.725C130.629 210.514 143.048 204.487 155.596 198.398L156.284 198.064C168.994 191.896 181.684 185.739 183.985 184.716C186.25 183.709 186.641 183.153 186.716 182.985C186.765 182.875 186.914 182.392 186.159 180.379C185.876 179.624 185.306 178.589 184.439 177.153C184.154 176.682 183.836 176.166 183.497 175.616C182.866 174.591 182.163 173.45 181.468 172.265C179.296 168.559 176.909 163.946 175.575 158.607C172.884 147.842 175.537 134.76 185.951 126.539C191.305 122.312 198.192 120.873 204.775 120.938C211.376 121.004 217.946 122.581 222.97 124.697C228.156 126.88 233.801 131.391 238.268 135.858C240.525 138.115 242.544 140.424 244.111 142.519C245.628 144.546 246.887 146.589 247.395 148.282C247.705 149.315 247.9 150.263 248.03 150.894C248.041 150.948 248.051 150.999 248.061 151.049C248.115 151.042 248.173 151.034 248.235 151.026C249.217 150.886 250.665 150.57 252.958 150.06C261.899 148.073 314.854 134.586 332.831 129.592C335.082 128.967 337.126 128.407 338.991 127.896C344.663 126.343 348.675 125.244 351.793 124.143C355.81 122.726 358.073 121.392 360.232 119.233C361.331 118.135 363.133 115.875 365.479 112.69C367.792 109.55 370.54 105.637 373.503 101.333C377.52 95.4984 381.903 88.9846 386.105 82.7405C388.107 79.7645 390.069 76.8498 391.929 74.0992L391.979 74.0254L392.034 73.9554C394.697 70.5663 397.786 65.8404 400.552 61.4847C401.221 60.4312 401.877 59.3905 402.504 58.395C404.402 55.3802 406.04 52.7807 407 51.4999C407.673 50.6028 407.969 50.0342 408.085 49.7069C408.054 49.6821 408.016 49.6539 407.972 49.6223C407.635 49.3826 407.144 49.117 406.382 48.736C404.554 47.8218 402.199 46.9331 399.388 45.8717C397.764 45.2588 395.987 44.5882 394.072 43.8219C391.42 42.7612 389.958 42.2054 388.863 42.1178C388.416 42.082 388.146 42.1417 387.934 42.2362ZM248.247 151.788C248.247 151.788 248.246 151.785 248.243 151.779C248.246 151.785 248.247 151.788 248.247 151.788ZM157.667 96.6159C157.667 96.6159 157.667 96.617 157.667 96.6191ZM356.661 88.5665C356.66 88.5669 356.66 88.5617 356.662 88.55C356.662 88.5603 356.661 88.5662 356.661 88.5665ZM395.641 39.0645L395.929 39.1796C397.566 39.8345 399.208 40.4555 400.784 41.0518C403.798 42.1917 406.573 43.2411 408.618 44.2639C409.356 44.6328 410.177 45.0547 410.872 45.5495C411.572 46.0475 412.38 46.7817 412.821 47.884C413.288 49.0499 413.191 50.2365 412.817 51.3227C412.46 52.3571 411.817 53.4101 411 54.4999C410.172 55.6035 408.718 57.9129 406.876 60.8367C406.22 61.8773 405.516 62.9956 404.773 64.1652C402.032 68.4812 398.845 73.3693 396.021 76.9736C394.19 79.6817 392.253 82.5595 390.272 85.5032C386.063 91.759 381.653 98.3126 377.622 104.168C374.648 108.489 371.865 112.451 369.505 115.655C367.179 118.813 365.17 121.367 363.768 122.769C360.927 125.609 357.94 127.276 353.457 128.858C350.155 130.024 345.893 131.191 340.148 132.764C338.312 133.267 336.325 133.811 334.169 134.41C316.147 139.416 263.101 152.928 254.043 154.941C251.836 155.432 250.159 155.803 248.937 155.976C247.889 156.125 246.386 156.28 245.127 155.505C243.751 154.658 243.414 153.18 243.266 152.528L243.258 152.495C243.196 152.224 243.144 151.969 243.091 151.712C242.969 151.119 242.846 150.52 242.606 149.719C242.364 148.912 241.56 147.455 240.108 145.514C238.706 143.64 236.85 141.511 234.732 139.394C230.449 135.11 225.344 131.121 221.03 129.305C216.554 127.42 210.624 125.997 204.725 125.938C198.809 125.879 193.195 127.19 189.049 130.463C180.463 137.242 178.117 148.16 180.426 157.394C181.591 162.056 183.704 166.192 185.782 169.736C186.455 170.885 187.094 171.922 187.703 172.91C188.051 173.475 188.389 174.023 188.718 174.567C189.569 175.975 190.374 177.378 190.841 178.623C191.586 180.61 192.235 182.877 191.285 185.016C190.359 187.098 188.25 188.292 186.015 189.285C183.816 190.263 171.256 196.356 158.467 202.562L157.565 203C145.14 209.03 132.757 215.039 130.035 216.277C128.493 216.977 126.992 217.408 125.544 217.316C123.966 217.216 122.742 216.516 121.81 215.533C120.965 214.641 120.359 213.512 119.863 212.496C119.645 212.049 119.423 211.57 119.204 211.096C119.166 211.013 119.127 210.93 119.089 210.847C118.827 210.282 118.559 209.709 118.264 209.119C115.739 204.068 110.159 191.408 108.096 184.188C107.911 183.539 107.742 182.96 107.592 182.445C107.353 181.626 107.162 180.969 107.027 180.455C106.802 179.594 106.634 178.786 106.693 177.897C106.744 177.138 106.962 176.428 107.15 175.816C107.165 175.766 107.18 175.717 107.195 175.669C107.414 174.952 107.708 173.983 108.064 172.439C108.848 169.044 109.475 166.538 109.969 164.569C110.45 162.649 110.803 161.239 111.049 160.01C111.066 159.925 111.087 159.802 111.113 159.656C111.187 159.232 111.295 158.618 111.421 158.188C111.659 157.379 112.102 156.489 113.038 155.769C113.875 155.126 114.906 154.776 115.998 154.541C117.115 154.301 118.532 154.135 120.322 154.007C127.171 153.518 157.505 148.549 160.589 148.035C162.373 147.737 162.532 147.67 162.698 147.53C162.886 147.371 163.35 146.801 164.106 144.282C165.156 140.782 165.678 138.395 166.09 136.514C166.261 135.735 166.413 135.043 166.575 134.394C166.622 134.204 166.641 133.713 166.124 132.447C165.75 131.535 165.233 130.517 164.574 129.222C164.324 128.731 164.054 128.199 163.764 127.619C162.689 125.468 160.511 119.815 158.469 114.307C156.403 108.736 154.392 103.081 153.628 100.791C153.27 99.7168 152.916 98.6418 152.76 97.6964C152.594 96.6927 152.584 95.4602 153.294 94.277C153.953 93.1789 155.002 92.523 155.963 92.0567C156.948 91.578 158.218 91.1264 159.71 90.629C159.98 90.5387 160.281 90.4377 160.61 90.3273C163.896 89.2244 169.976 87.1834 176.846 85.5093C184.343 83.6822 193.072 82.2156 200.276 83.016C213.947 84.535 247.255 91.0864 273.1 103.756C285.463 109.816 296.814 111.494 305.511 111.314C309.864 111.224 313.537 110.669 316.325 109.973C319.202 109.256 320.905 108.447 321.5 108.001C323.598 106.427 326.458 104.998 329.272 106.661C330.516 107.396 331.414 108.579 332.104 109.894C332.803 111.225 333.391 112.891 333.916 114.857C333.97 115.06 334.022 115.256 334.072 115.445C334.506 117.077 334.808 118.213 335.129 119.066C335.391 119.762 335.571 119.995 335.626 120.055C335.713 120.075 335.991 120.108 336.631 119.998C337.624 119.827 339.036 119.396 341.168 118.643C342.248 118.262 343.183 117.945 343.995 117.672L344.341 117.555C345.007 117.331 345.572 117.141 346.075 116.963C347.264 116.544 347.921 116.258 348.425 115.943C349.396 115.337 350.098 114.467 352.445 111.078C353.953 108.899 355.599 106.684 357.103 104.66C357.859 103.642 358.579 102.672 359.228 101.78C360.221 100.416 361.05 99.2282 361.654 98.2495C361.904 97.8453 362.102 97.4985 362.251 97.207C361.879 97.0172 361.358 96.7946 360.646 96.5143C360.469 96.4445 360.282 96.3717 360.087 96.2958C359.221 95.9596 358.204 95.5642 357.249 95.111C356.075 94.554 354.778 93.8141 353.732 92.7685C352.853 91.8893 352.049 90.8471 351.767 89.5345C351.469 88.1514 351.848 86.9451 352.307 85.9846C352.693 85.178 353.266 84.2915 353.835 83.4122C353.9 83.3105 353.966 83.2088 354.031 83.1074C354.701 82.0689 355.471 80.8529 356.299 79.3155L356.355 79.2119L356.42 79.114C358.42 76.114 364.423 67.1093 370.239 58.4786C373.147 54.1639 376.012 49.9375 378.307 46.5996C380.56 43.3247 382.361 40.7626 383.08 39.9003C383.878 38.942 384.793 38.1636 385.894 37.6716C387.011 37.1723 388.147 37.0445 389.262 37.1337C391.209 37.2895 393.394 38.1645 395.641 39.0645ZM335.593 120.045C335.593 120.045 335.598 120.046 335.605 120.05C335.597 120.047 335.593 120.046 335.593 120.045Z" fill="black"/>
</svg>
