<svg width="522" height="252" viewBox="0 0 522 252" fill="none" xmlns="http://www.w3.org/2000/svg">
<path fill-rule="evenodd" clip-rule="evenodd" d="M521 1.5H1V0.5H521V1.5Z" fill="#20202E"/>
<path fill-rule="evenodd" clip-rule="evenodd" d="M521 11.5H1V10.5H521V11.5Z" fill="#20202E"/>
<path fill-rule="evenodd" clip-rule="evenodd" d="M521 21.5H1V20.5H521V21.5Z" fill="#20202E"/>
<path fill-rule="evenodd" clip-rule="evenodd" d="M521 31.5H1V30.5H521V31.5Z" fill="#20202E"/>
<path fill-rule="evenodd" clip-rule="evenodd" d="M521 41.5H1V40.5H521V41.5Z" fill="#20202E"/>
<path fill-rule="evenodd" clip-rule="evenodd" d="M521 51.5H1V50.5H521V51.5Z" fill="#20202E"/>
<path fill-rule="evenodd" clip-rule="evenodd" d="M521 61.5H1V60.5H521V61.5Z" fill="#20202E"/>
<path fill-rule="evenodd" clip-rule="evenodd" d="M521 71.5H1V70.5H521V71.5Z" fill="#20202E"/>
<path fill-rule="evenodd" clip-rule="evenodd" d="M521 81.5H1V80.5H521V81.5Z" fill="#20202E"/>
<path fill-rule="evenodd" clip-rule="evenodd" d="M521 91.5H1V90.5H521V91.5Z" fill="#20202E"/>
<path fill-rule="evenodd" clip-rule="evenodd" d="M521 101.5H1V100.5H521V101.5Z" fill="#20202E"/>
<path fill-rule="evenodd" clip-rule="evenodd" d="M521 111.5H1V110.5H521V111.5Z" fill="#20202E"/>
<path fill-rule="evenodd" clip-rule="evenodd" d="M521 121.5H1V120.5H521V121.5Z" fill="#20202E"/>
<path fill-rule="evenodd" clip-rule="evenodd" d="M521 131.5H1V130.5H521V131.5Z" fill="#20202E"/>
<path fill-rule="evenodd" clip-rule="evenodd" d="M521 141.5H1V140.5H521V141.5Z" fill="#20202E"/>
<path fill-rule="evenodd" clip-rule="evenodd" d="M521 151.5H1V150.5H521V151.5Z" fill="#20202E"/>
<path fill-rule="evenodd" clip-rule="evenodd" d="M521 161.5H1V160.5H521V161.5Z" fill="#20202E"/>
<path fill-rule="evenodd" clip-rule="evenodd" d="M521 171.5H1V170.5H521V171.5Z" fill="#20202E"/>
<path fill-rule="evenodd" clip-rule="evenodd" d="M521 181.5H1V180.5H521V181.5Z" fill="#20202E"/>
<path fill-rule="evenodd" clip-rule="evenodd" d="M521 191.5H1V190.5H521V191.5Z" fill="#20202E"/>
<path fill-rule="evenodd" clip-rule="evenodd" d="M521 201.5H1V200.5H521V201.5Z" fill="#20202E"/>
<path fill-rule="evenodd" clip-rule="evenodd" d="M521 211.5H1V210.5H521V211.5Z" fill="#20202E"/>
<path fill-rule="evenodd" clip-rule="evenodd" d="M521 221.5H1V220.5H521V221.5Z" fill="#20202E"/>
<path fill-rule="evenodd" clip-rule="evenodd" d="M521 231.5H1V230.5H521V231.5Z" fill="#20202E"/>
<path fill-rule="evenodd" clip-rule="evenodd" d="M521 241.5H1V240.5H521V241.5Z" fill="#20202E"/>
<path fill-rule="evenodd" clip-rule="evenodd" d="M521 251.5H1V250.5H521V251.5Z" fill="#20202E"/>
<path fill-rule="evenodd" clip-rule="evenodd" d="M0.5 251L0.5 1L1.5 1L1.5 251L0.5 251Z" fill="#20202E"/>
<path fill-rule="evenodd" clip-rule="evenodd" d="M10.5 251L10.5 1L11.5 1L11.5 251L10.5 251Z" fill="#20202E"/>
<path fill-rule="evenodd" clip-rule="evenodd" d="M20.5 251L20.5 1L21.5 1L21.5 251L20.5 251Z" fill="#20202E"/>
<path fill-rule="evenodd" clip-rule="evenodd" d="M30.5 251L30.5 1L31.5 1L31.5 251L30.5 251Z" fill="#20202E"/>
<path fill-rule="evenodd" clip-rule="evenodd" d="M40.5 251L40.5 1L41.5 1L41.5 251L40.5 251Z" fill="#20202E"/>
<path fill-rule="evenodd" clip-rule="evenodd" d="M50.5 251L50.5 1L51.5 1L51.5 251L50.5 251Z" fill="#20202E"/>
<path fill-rule="evenodd" clip-rule="evenodd" d="M60.5 251L60.5 1L61.5 1L61.5 251L60.5 251Z" fill="#20202E"/>
<path fill-rule="evenodd" clip-rule="evenodd" d="M70.5 251L70.5 1L71.5 1L71.5 251L70.5 251Z" fill="#20202E"/>
<path fill-rule="evenodd" clip-rule="evenodd" d="M80.5 251L80.5 1L81.5 1L81.5 251L80.5 251Z" fill="#20202E"/>
<path fill-rule="evenodd" clip-rule="evenodd" d="M90.5 251L90.5 1L91.5 1L91.5 251L90.5 251Z" fill="#20202E"/>
<path fill-rule="evenodd" clip-rule="evenodd" d="M100.5 251L100.5 1L101.5 1L101.5 251L100.5 251Z" fill="#20202E"/>
<path fill-rule="evenodd" clip-rule="evenodd" d="M110.5 251L110.5 1L111.5 1L111.5 251L110.5 251Z" fill="#20202E"/>
<path fill-rule="evenodd" clip-rule="evenodd" d="M120.5 251L120.5 1L121.5 1L121.5 251L120.5 251Z" fill="#20202E"/>
<path fill-rule="evenodd" clip-rule="evenodd" d="M130.5 251L130.5 1L131.5 1L131.5 251L130.5 251Z" fill="#20202E"/>
<path fill-rule="evenodd" clip-rule="evenodd" d="M140.5 251L140.5 1L141.5 1L141.5 251L140.5 251Z" fill="#20202E"/>
<path fill-rule="evenodd" clip-rule="evenodd" d="M150.5 251L150.5 1L151.5 1L151.5 251L150.5 251Z" fill="#20202E"/>
<path fill-rule="evenodd" clip-rule="evenodd" d="M160.5 251L160.5 1L161.5 1L161.5 251L160.5 251Z" fill="#20202E"/>
<path fill-rule="evenodd" clip-rule="evenodd" d="M170.5 251L170.5 1L171.5 1L171.5 251L170.5 251Z" fill="#20202E"/>
<path fill-rule="evenodd" clip-rule="evenodd" d="M180.5 251L180.5 1L181.5 1L181.5 251L180.5 251Z" fill="#20202E"/>
<path fill-rule="evenodd" clip-rule="evenodd" d="M190.5 251L190.5 1L191.5 1L191.5 251L190.5 251Z" fill="#20202E"/>
<path fill-rule="evenodd" clip-rule="evenodd" d="M200.5 251L200.5 1L201.5 1L201.5 251L200.5 251Z" fill="#20202E"/>
<path fill-rule="evenodd" clip-rule="evenodd" d="M210.5 251L210.5 1L211.5 1L211.5 251L210.5 251Z" fill="#20202E"/>
<path fill-rule="evenodd" clip-rule="evenodd" d="M220.5 251L220.5 1L221.5 1L221.5 251L220.5 251Z" fill="#20202E"/>
<path fill-rule="evenodd" clip-rule="evenodd" d="M230.5 251L230.5 1L231.5 1L231.5 251L230.5 251Z" fill="#20202E"/>
<path fill-rule="evenodd" clip-rule="evenodd" d="M240.5 251L240.5 1L241.5 1L241.5 251L240.5 251Z" fill="#20202E"/>
<path fill-rule="evenodd" clip-rule="evenodd" d="M250.5 251L250.5 1L251.5 1L251.5 251L250.5 251Z" fill="#20202E"/>
<path fill-rule="evenodd" clip-rule="evenodd" d="M260.5 251L260.5 1L261.5 1L261.5 251L260.5 251Z" fill="#20202E"/>
<path fill-rule="evenodd" clip-rule="evenodd" d="M270.5 251L270.5 1L271.5 1L271.5 251L270.5 251Z" fill="#20202E"/>
<path fill-rule="evenodd" clip-rule="evenodd" d="M280.5 251L280.5 1L281.5 1L281.5 251L280.5 251Z" fill="#20202E"/>
<path fill-rule="evenodd" clip-rule="evenodd" d="M290.5 251L290.5 1L291.5 1L291.5 251L290.5 251Z" fill="#20202E"/>
<path fill-rule="evenodd" clip-rule="evenodd" d="M300.5 251L300.5 1L301.5 1L301.5 251L300.5 251Z" fill="#20202E"/>
<path fill-rule="evenodd" clip-rule="evenodd" d="M310.5 251L310.5 1L311.5 1L311.5 251L310.5 251Z" fill="#20202E"/>
<path fill-rule="evenodd" clip-rule="evenodd" d="M320.5 251L320.5 1L321.5 1L321.5 251L320.5 251Z" fill="#20202E"/>
<path fill-rule="evenodd" clip-rule="evenodd" d="M330.5 251L330.5 1L331.5 1L331.5 251L330.5 251Z" fill="#20202E"/>
<path fill-rule="evenodd" clip-rule="evenodd" d="M340.5 251L340.5 1L341.5 1L341.5 251L340.5 251Z" fill="#20202E"/>
<path fill-rule="evenodd" clip-rule="evenodd" d="M350.5 251L350.5 1L351.5 1L351.5 251L350.5 251Z" fill="#20202E"/>
<path fill-rule="evenodd" clip-rule="evenodd" d="M360.5 251L360.5 1L361.5 1L361.5 251L360.5 251Z" fill="#20202E"/>
<path fill-rule="evenodd" clip-rule="evenodd" d="M370.5 251L370.5 1L371.5 1L371.5 251L370.5 251Z" fill="#20202E"/>
<path fill-rule="evenodd" clip-rule="evenodd" d="M380.5 251L380.5 1L381.5 1L381.5 251L380.5 251Z" fill="#20202E"/>
<path fill-rule="evenodd" clip-rule="evenodd" d="M390.5 251L390.5 1L391.5 1L391.5 251L390.5 251Z" fill="#20202E"/>
<path fill-rule="evenodd" clip-rule="evenodd" d="M400.5 251L400.5 1L401.5 1L401.5 251L400.5 251Z" fill="#20202E"/>
<path fill-rule="evenodd" clip-rule="evenodd" d="M410.5 251L410.5 1L411.5 1L411.5 251L410.5 251Z" fill="#20202E"/>
<path fill-rule="evenodd" clip-rule="evenodd" d="M420.5 251L420.5 1L421.5 1L421.5 251L420.5 251Z" fill="#20202E"/>
<path fill-rule="evenodd" clip-rule="evenodd" d="M430.5 251L430.5 1L431.5 1L431.5 251L430.5 251Z" fill="#20202E"/>
<path fill-rule="evenodd" clip-rule="evenodd" d="M440.5 251L440.5 1L441.5 1L441.5 251L440.5 251Z" fill="#20202E"/>
<path fill-rule="evenodd" clip-rule="evenodd" d="M450.5 251L450.5 1L451.5 1L451.5 251L450.5 251Z" fill="#20202E"/>
<path fill-rule="evenodd" clip-rule="evenodd" d="M460.5 251L460.5 1L461.5 1L461.5 251L460.5 251Z" fill="#20202E"/>
<path fill-rule="evenodd" clip-rule="evenodd" d="M470.5 251L470.5 1L471.5 1L471.5 251L470.5 251Z" fill="#20202E"/>
<path fill-rule="evenodd" clip-rule="evenodd" d="M480.5 251L480.5 1L481.5 1L481.5 251L480.5 251Z" fill="#20202E"/>
<path fill-rule="evenodd" clip-rule="evenodd" d="M490.5 251L490.5 1L491.5 1L491.5 251L490.5 251Z" fill="#20202E"/>
<path fill-rule="evenodd" clip-rule="evenodd" d="M500.5 251L500.5 1L501.5 1L501.5 251L500.5 251Z" fill="#20202E"/>
<path fill-rule="evenodd" clip-rule="evenodd" d="M510.5 251L510.5 1L511.5 1L511.5 251L510.5 251Z" fill="#20202E"/>
<path fill-rule="evenodd" clip-rule="evenodd" d="M520.5 251L520.5 1L521.5 1L521.5 251L520.5 251Z" fill="#20202E"/>
<path fill-rule="evenodd" clip-rule="evenodd" d="M325.762 65.7736C324.218 66.3418 321.848 67.2074 318.858 68.2996C315.78 69.4237 312.046 70.7877 307.878 72.3146C297.953 75.9507 285.422 80.5639 272.963 85.2361C260.488 89.9143 248.154 94.6256 238.597 98.4637C233.806 100.388 229.815 102.052 226.889 103.36C225.418 104.017 224.328 104.535 223.59 104.915C223.419 105.003 223.287 105.073 223.187 105.128C216.319 110.754 198.584 123.533 190.019 129.075C184.044 132.941 179.144 133.593 176.399 133.958C176.023 134.008 175.688 134.053 175.396 134.099C175.353 134.106 175.309 134.113 175.264 134.12C174.183 134.288 172.34 134.574 167.761 138.054L167.66 138.131L167.558 138.205C167.445 138.287 167.354 138.357 167.284 138.413C167.279 138.427 167.273 138.442 167.267 138.457C167.2 138.624 167.123 138.826 167.035 139.061C166.389 140.774 165.095 144.206 162.1 148.2C159.1 152.2 152.307 158.638 146.333 164.216C144.391 166.03 142.445 167.832 140.559 169.58C136.595 173.253 132.894 176.683 130.039 179.456C129.207 181.301 128.218 183.441 127.134 185.744C139.429 177.714 152.902 168.871 160.24 163.937C160.956 162.989 161.945 161.87 163.244 160.859C164.982 159.504 169.106 156.988 174.568 158.256C179.879 159.489 182.557 163.403 183.678 165.563C184.26 165.4 184.907 165.221 185.639 165.024C188.856 164.156 192.84 163.195 197.464 162.599C209.036 161.106 215.825 157.136 224.391 152.128C225.237 151.633 226.1 151.129 226.988 150.615C231.984 147.722 238.455 144.14 247.543 143.413C256.395 142.705 266.378 144.773 278.997 149.875C291.905 155.093 300.077 160.606 306.292 167.401C310.353 171.841 313.673 177.147 316.562 181.764C317.586 183.4 318.555 184.95 319.485 186.344C327.459 198.305 342.455 212.112 358.114 217.057C361.232 218.042 362.884 217.857 363.592 217.691C364.275 217.531 364.941 217.19 365.771 216.385C366.704 215.48 367.659 214.167 368.775 212.275C369.229 211.507 369.634 210.776 370.096 209.944C370.208 209.743 370.323 209.535 370.443 209.32C370.656 208.936 370.899 208.502 371.163 208.043C364.046 204.262 352.629 198.175 347.844 194.985C344.626 192.84 341.975 189.889 340.434 186.106C338.934 182.424 338.848 178.846 339.226 175.948C339.648 172.712 340.781 169.586 341.896 167.046C339.146 166.115 335.96 164.995 332.743 163.865C330.853 163.201 328.952 162.533 327.123 161.898C322.74 160.374 318.433 158.91 314.799 157.773C310.855 156.539 308.617 155.988 307.914 155.895C302.16 155.128 296.49 152.785 291.915 150.056C287.522 147.436 282.647 143.569 279.71 138.674C277.567 135.103 276.894 130.962 276.597 128.298C276.254 125.22 276.213 121.941 276.32 118.947C276.428 115.92 276.697 112.916 277.06 110.313C277.382 108.002 277.894 105.105 278.764 102.787C280.858 97.2028 285.725 94.5793 287.694 93.6C290.303 92.3016 293.228 91.372 295.767 90.6765C299.249 89.7224 303.506 88.8377 307.034 88.1043C308.478 87.8043 309.8 87.5295 310.897 87.2858C314.564 86.4709 322.789 83.8421 331.606 80.653C340.452 77.4533 348.468 74.2037 351.885 72.3946C353.71 71.4287 355.602 70.7465 357.522 70.3585C356.698 69.464 355.934 68.6256 355.252 67.8626C355.027 67.9777 354.788 68.0992 354.543 68.2223C353.721 68.6342 352.726 69.1142 351.615 69.577C351.513 69.6197 351.407 69.6638 351.299 69.7089C348.798 70.7542 344.854 72.4027 340.757 72.5544C334.905 72.7711 330.677 70.1707 327.69 67.6112C326.928 66.9574 326.283 66.3192 325.762 65.7736ZM353.439 65.8364C353.439 65.8363 353.443 65.839 353.449 65.8449C353.443 65.8395 353.439 65.8365 353.439 65.8364ZM348.801 169.203C348.801 169.203 348.783 169.198 348.751 169.186C348.785 169.196 348.801 169.202 348.801 169.203ZM344.565 161.297C344.574 161.261 344.576 161.256 344.569 161.284C344.568 161.288 344.566 161.292 344.565 161.297ZM373.911 203.433C373.912 203.432 373.908 203.445 373.897 203.473C373.905 203.448 373.911 203.434 373.911 203.433ZM159.483 165.013C159.475 165.026 159.469 165.035 159.466 165.04L159.464 165.042C159.471 165.032 159.477 165.023 159.483 165.013ZM167.077 138.592C167.077 138.592 167.08 138.589 167.086 138.583C167.08 138.589 167.077 138.592 167.077 138.592ZM341.757 47.6831C340.932 46.7742 339.497 45.2842 337.594 44.0155C335.027 42.3044 331.912 41.1576 328.277 41.0239C324.906 40.8998 321.704 41.67 318.786 42.7642C317.686 43.1768 314.905 44.1927 310.881 45.6623C307.793 46.79 303.974 48.1848 299.622 49.7793C289.672 53.4245 277.077 58.0613 264.536 62.7642C252.012 67.4609 239.471 72.2496 229.653 76.1927C224.756 78.1593 220.435 79.956 217.095 81.4491C215.433 82.1919 213.902 82.9094 212.615 83.5713C211.634 84.0758 209.825 85.025 208.318 86.2814C202.787 90.8903 185.201 103.606 176.981 108.925C175.621 109.805 175.442 109.831 173.491 110.115C172.994 110.187 172.381 110.277 171.604 110.401C166.438 111.227 161.013 113.057 153.333 118.875C151.223 120.423 149.404 122.14 147.902 124.179C146.373 126.253 145.521 128.198 144.983 129.543C144.803 129.994 144.656 130.374 144.527 130.705C143.983 132.111 143.785 132.62 142.9 133.8C141.491 135.679 136.675 140.399 129.954 146.674C128.225 148.288 126.413 149.967 124.601 151.647C119.978 155.93 115.351 160.217 112.091 163.442C110.615 164.902 109.503 166.572 108.725 168.328C105.177 176.34 97.1436 192.859 92.8945 200.885C91.5837 203.361 90.371 206.04 89.695 208.681C89.3568 210.002 89.02 211.813 89.1128 213.863C89.2051 215.902 89.7743 219.05 92.1241 221.942C97.4491 228.496 105.098 226.736 106.986 226.201C109.779 225.409 112.387 223.946 114.489 222.594C120.432 218.774 151.22 198.751 168.158 187.507C169.032 188.21 170.028 188.849 171.162 189.394C176.322 191.874 181.561 190.826 183.74 190.364C185.503 189.99 187.764 189.352 189.729 188.797C190.514 188.576 191.252 188.368 191.892 188.195C194.582 187.469 197.41 186.805 200.536 186.401C217.122 184.261 227.763 177.998 236.414 172.906C237.3 172.385 238.164 171.876 239.012 171.385C243.516 168.778 246.045 167.61 249.457 167.337C253.105 167.045 259.122 167.727 270.002 172.125C280.595 176.407 285.422 180.144 288.583 183.599C291.104 186.355 292.665 188.862 294.949 192.527C296.176 194.496 297.611 196.8 299.515 199.656C309.541 214.695 328.545 232.888 350.886 239.943C357.268 241.958 363.366 242.393 369.064 241.059C374.788 239.719 379.184 236.81 382.479 233.615C385.671 230.52 387.904 227.083 389.443 224.475C390.076 223.403 390.669 222.333 391.138 221.488C391.235 221.313 391.327 221.147 391.413 220.993C391.983 219.967 392.285 219.455 392.484 219.157C394.534 216.083 397.499 211.208 397.681 205.574C397.788 202.257 396.938 198.873 394.899 195.86C392.993 193.044 390.5 191.217 388.328 190.01C386.703 189.107 384.127 187.739 381.164 186.166C375.494 183.154 368.408 179.39 363.872 176.703C364.232 175.89 364.678 174.976 365.233 173.867C366.151 172.03 367.091 169.9 367.712 167.638C368.323 165.415 368.837 162.316 368.126 158.881C366.358 150.337 359.155 147.044 354.41 145.858C352.724 145.437 348.18 143.842 342.161 141.731C339.951 140.955 337.541 140.11 335.002 139.227C330.572 137.688 325.973 136.122 321.966 134.868C318.27 133.711 314.133 132.512 311.086 132.105C309.339 131.872 306.759 130.965 304.21 129.444C302.998 128.722 301.991 127.976 301.249 127.313C300.963 127.058 300.751 126.846 300.6 126.684C300.555 126.445 300.501 126.103 300.449 125.639C300.277 124.093 300.224 122.059 300.305 119.803C300.376 117.822 300.542 115.872 300.752 114.216C301.153 114.093 301.604 113.962 302.108 113.824C304.864 113.068 307.765 112.468 310.901 111.819C312.564 111.474 314.294 111.116 316.103 110.714C321.436 109.529 330.961 106.408 339.769 103.222C347.13 100.56 354.986 97.493 360.328 94.9855C360.681 95.4825 361.068 96.0765 361.487 96.7744C362.146 97.8696 362.683 98.8685 363.279 99.9775C363.497 100.382 363.723 100.802 363.965 101.246C366.464 105.828 370.211 109.822 375.431 111.971C380.643 114.117 385.929 113.85 390.448 112.494C394.787 111.192 400.23 108.249 403.171 102.367C406.47 95.7684 404.999 88.8618 401.624 83.5576C400.153 81.2457 397.663 78.3363 395.384 75.7714C392.898 72.9735 389.911 69.7614 386.928 66.5908C385.341 64.9032 383.774 63.246 382.274 61.6604C377.935 57.0722 374.162 53.0832 372.111 50.6906C369.828 48.0272 366.951 45.5221 363.258 44.0492C359.321 42.4792 355.551 42.5136 352.366 43.2303C349.536 43.867 347.129 45.0657 345.77 45.7535C345.28 46.0012 344.874 46.2102 344.521 46.3915C343.623 46.8536 343.073 47.1363 342.384 47.4232C342.163 47.5154 341.955 47.6019 341.757 47.6831ZM358.933 93.3509C358.934 93.3505 358.942 93.3566 358.96 93.3708C358.942 93.3584 358.933 93.3513 358.933 93.3509ZM298.287 115.139C298.287 115.139 298.295 115.134 298.312 115.125C298.296 115.134 298.287 115.139 298.287 115.139ZM179.543 178.189C179.553 178.174 179.56 178.163 179.566 178.155L179.57 178.149C179.561 178.162 179.552 178.175 179.543 178.189ZM343.469 49.5204C343.48 49.5279 343.485 49.5319 343.485 49.5321C343.485 49.5323 343.48 49.5285 343.469 49.5204Z" fill="white"/>
<path fill-rule="evenodd" clip-rule="evenodd" d="M327.744 55.514C326.908 55.4832 325.687 55.6626 323.878 56.3409C322.726 56.7728 319.828 57.8312 315.7 59.3392C312.618 60.4649 308.85 61.8412 304.61 63.3944C294.675 67.0341 282.119 71.6566 269.628 76.3409C257.133 81.0265 244.717 85.7684 235.057 89.6481C230.224 91.589 226.102 93.3057 223.012 94.6867C221.466 95.3781 220.201 95.9749 219.246 96.4663C218.227 96.9904 217.739 97.3048 217.6 97.4206C211.503 102.502 193.416 115.561 184.858 121.099C180.745 123.761 177.799 124.169 175.158 124.535C174.73 124.594 174.31 124.652 173.895 124.719C171.2 125.15 167.954 125.975 162.013 130.49L161.992 130.506L161.97 130.522C160.758 131.404 160.05 132.136 159.575 132.78C159.101 133.424 158.787 134.076 158.446 134.929C158.347 135.177 158.247 135.439 158.141 135.716C157.494 137.413 156.642 139.644 154.5 142.5C152.13 145.66 146.119 151.419 139.85 157.273C137.994 159.005 136.102 160.758 134.244 162.48C129.703 166.688 125.369 170.704 122.287 173.752C122.166 173.871 122.065 174.015 121.983 174.201C118.292 182.533 110.111 199.356 105.709 207.67C104.73 209.521 104.132 210.938 103.83 211.958C104.543 211.651 105.478 211.149 106.648 210.397C113.495 205.996 153.357 180.062 166.754 171.003C166.925 170.887 167.131 170.677 167.423 170.23C167.826 169.611 168.381 168.899 169.084 168.352C169.762 167.823 170.955 167.17 172.421 167.51C173.874 167.847 174.753 168.969 175.27 169.985C175.803 171.034 176.186 172.409 176.466 174.089C176.783 175.992 177.308 176.26 177.442 176.325C177.821 176.507 178.693 176.612 180.731 176.179C182.017 175.907 183.44 175.504 185.13 175.026C186.041 174.768 187.029 174.489 188.114 174.196C191.122 173.384 194.649 172.541 198.68 172.021C212.229 170.272 220.543 165.399 229.128 160.366C229.996 159.857 230.868 159.346 231.747 158.836C236.549 156.057 241.459 153.43 248.301 152.883C255.093 152.34 263.506 153.859 275.437 158.682C287.428 163.53 294.277 168.34 299.282 173.813C302.713 177.564 305.287 181.678 308.019 186.045C309.154 187.86 310.317 189.719 311.58 191.613C320.366 204.793 336.949 220.336 355.253 226.116C359.663 227.509 363.075 227.569 365.758 226.941C368.436 226.314 370.579 224.956 372.385 223.205C374.212 221.433 375.672 219.28 376.956 217.104C377.48 216.217 377.959 215.354 378.426 214.512C378.532 214.32 378.638 214.13 378.743 213.94C379.297 212.946 379.857 211.957 380.42 211.113C382.41 208.129 383.151 206.274 383.189 205.107C383.204 204.627 383.098 204.294 382.891 203.987C382.655 203.639 382.193 203.189 381.286 202.685C380.159 202.059 378.107 200.969 375.582 199.628C368.474 195.851 357.619 190.084 353.113 187.08C351.256 185.842 349.961 184.311 349.232 182.521C348.511 180.752 348.419 178.919 348.646 177.177C349.085 173.811 350.801 170.307 352.264 167.382C352.979 165.952 353.463 164.772 353.73 163.799C353.999 162.818 354.005 162.198 353.927 161.819C353.842 161.409 353.53 160.585 350.894 159.925C348.498 159.327 342.806 157.328 336.394 155.077C334.388 154.372 332.31 153.643 330.242 152.924C325.84 151.394 321.418 149.889 317.636 148.706C313.79 147.503 310.8 146.696 309.17 146.478C305.002 145.922 300.555 144.148 296.782 141.897C293.046 139.669 289.656 136.785 287.856 133.786C286.816 132.053 286.305 129.631 286.039 127.246C285.763 124.774 285.718 121.988 285.814 119.286C285.911 116.577 286.152 113.898 286.469 111.624C286.777 109.411 287.181 107.397 287.659 106.122C288.392 104.167 290.272 102.928 291.925 102.105C293.712 101.216 295.942 100.479 298.277 99.8389C301.463 98.9659 305.152 98.2 308.56 97.4925C310.108 97.171 311.599 96.8615 312.958 96.5595C317.284 95.5981 326.024 92.7744 334.837 89.5866C343.657 86.3965 352.254 82.9487 356.33 80.7905C359 79.3772 361.616 79.1544 364.044 79.8882C366.38 80.5944 368.318 82.117 369.886 83.7902C372.612 86.6973 374.725 90.6366 376.159 93.3098C376.35 93.665 376.528 93.9979 376.695 94.303C377.987 96.6713 379.472 97.9539 380.952 98.5634C382.434 99.1735 384.202 99.2292 386.282 98.6054C388.399 97.9704 389.681 96.9222 390.201 95.882C390.647 94.991 390.802 93.5601 389.391 91.3422C388.64 90.1623 386.931 88.0875 384.545 85.4027C382.203 82.7665 379.332 79.6786 376.366 76.5253C374.925 74.9926 373.457 73.4404 372.017 71.9181C367.577 67.2244 363.405 62.814 361.102 60.1271C359.765 58.5674 358.703 57.8432 357.886 57.5176C357.121 57.2122 356.396 57.1861 355.549 57.3766C354.628 57.5838 353.619 58.0326 352.316 58.6917C352.057 58.8227 351.785 58.9628 351.502 59.1087C350.446 59.653 349.233 60.2779 347.962 60.8078C345.071 62.0124 342.631 62.9785 340.405 63.0609C337.85 63.1555 335.881 62.119 333.873 60.3982C332.966 59.6207 332.199 58.7543 331.581 58.0564C331.494 57.9587 331.41 57.8642 331.33 57.7738C330.618 56.9757 330.101 56.447 329.551 56.0802C329.066 55.757 328.526 55.5428 327.744 55.514ZM103.601 213.241C103.601 213.241 103.6 213.239 103.6 213.235C103.601 213.239 103.601 213.241 103.601 213.241ZM335.334 54.7523C335.971 55.4695 336.499 56.0634 337.127 56.602C338.619 57.8812 339.4 58.0947 340.22 58.0643C341.369 58.0218 342.929 57.4879 346.038 56.1924C347.105 55.7482 348.079 55.2465 349.109 54.7163C349.419 54.5566 349.735 54.3943 350.059 54.2303C351.381 53.5613 352.872 52.8539 354.451 52.4986C356.104 52.1266 357.879 52.1318 359.739 52.8733C361.547 53.5945 363.235 54.9328 364.898 56.8731C367.114 59.4581 371.148 63.7227 375.556 68.3832C377.016 69.9274 378.518 71.5152 380.009 73.0996C382.98 76.2589 385.891 79.3896 388.283 82.0816C390.632 84.725 392.61 87.0876 393.609 88.6578C395.698 91.94 396.103 95.2591 394.674 98.1181C393.319 100.828 390.601 102.53 387.718 103.395C384.798 104.271 381.816 104.327 379.048 103.187C376.278 102.046 374.013 99.8289 372.305 96.6972C372.119 96.3564 371.928 96.002 371.732 95.6376C370.258 92.9018 368.478 89.5983 366.239 87.2099C364.995 85.8831 363.776 85.0306 362.597 84.6744C361.509 84.3456 360.25 84.3728 358.67 85.2095C354.246 87.5513 345.343 91.1035 336.538 94.2884C327.726 97.4756 318.716 100.402 314.042 101.44C312.535 101.775 310.959 102.102 309.365 102.433C306.04 103.123 302.633 103.83 299.598 104.661C297.37 105.271 295.506 105.909 294.153 106.582C293.479 106.917 293.005 107.226 292.695 107.491C292.401 107.742 292.34 107.88 292.34 107.88L292.341 107.878C292.069 108.603 291.722 110.152 291.421 112.314C291.129 114.415 290.902 116.923 290.811 119.464C290.72 122.012 290.768 124.539 291.008 126.692C291.258 128.931 291.684 130.447 292.144 131.214C293.344 133.215 295.954 135.581 299.343 137.603C302.695 139.602 306.498 141.078 309.83 141.522C311.95 141.804 315.335 142.747 319.129 143.934C322.989 145.142 327.472 146.668 331.883 148.201C334.096 148.97 336.278 149.736 338.35 150.463C344.656 152.677 349.957 154.537 352.106 155.075C355.47 155.915 358.158 157.591 358.823 160.806C359.12 162.239 358.938 163.713 358.551 165.123C358.162 166.54 357.521 168.048 356.736 169.618C355.199 172.693 353.915 175.439 353.604 177.823C353.456 178.956 353.552 179.873 353.862 180.635C354.164 181.376 354.744 182.158 355.887 182.92C360.163 185.771 370.411 191.215 377.508 194.986C380.191 196.412 382.424 197.598 383.714 198.315C385.057 199.061 386.22 199.986 387.031 201.185C387.871 202.425 388.233 203.81 388.186 205.268C388.099 207.976 386.59 210.872 384.58 213.887C384.143 214.543 383.672 215.367 383.112 216.372C383.014 216.549 382.913 216.73 382.81 216.916C382.342 217.761 381.824 218.695 381.262 219.646C379.89 221.971 378.163 224.567 375.865 226.795C373.546 229.044 370.626 230.936 366.898 231.809C363.175 232.681 358.837 232.491 353.747 230.884C334.051 224.664 316.633 208.207 307.42 194.387C305.956 192.191 304.695 190.174 303.516 188.287C300.91 184.118 298.703 180.588 295.593 177.187C291.223 172.41 285.072 167.97 273.563 163.318C261.994 158.641 254.407 157.41 248.699 157.867C243.041 158.32 238.951 160.443 234.253 163.164C233.382 163.668 232.511 164.179 231.634 164.694C223.029 169.745 213.914 175.096 199.32 176.979C195.601 177.459 192.315 178.241 189.417 179.023C188.5 179.27 187.595 179.526 186.717 179.774C184.908 180.285 183.214 180.764 181.769 181.071C179.682 181.513 177.304 181.806 175.277 180.831C173.004 179.74 171.967 177.508 171.534 174.911C171.44 174.345 171.34 173.877 171.242 173.493C170.824 174.057 170.281 174.653 169.555 175.144C156.107 184.239 116.204 210.198 109.352 214.603C107.528 215.775 105.847 216.649 104.393 217.061C103.128 217.42 100.928 217.713 99.4972 215.952C98.8468 215.151 98.6386 214.217 98.6031 213.433C98.5675 212.648 98.6949 211.831 98.8984 211.036C99.3051 209.447 100.127 207.528 101.29 205.33C105.639 197.116 113.77 180.397 117.411 172.176C117.733 171.449 118.183 170.778 118.771 170.197C121.914 167.088 126.349 162.979 130.919 158.744C132.762 157.037 134.626 155.309 136.438 153.618C142.863 147.619 148.461 142.218 150.5 139.5C152.202 137.23 152.824 135.611 153.455 133.966C153.569 133.67 153.683 133.373 153.804 133.072C154.213 132.049 154.712 130.951 155.55 129.814C156.384 128.682 157.481 127.607 159.008 126.494C165.554 121.523 169.554 120.35 173.105 119.781C173.605 119.702 174.076 119.635 174.528 119.571C177.04 119.216 178.99 118.941 182.142 116.901C190.584 111.439 208.497 98.4981 214.4 93.5795C215.01 93.0704 215.953 92.5371 216.959 92.0197C218.029 91.4696 219.386 90.8311 220.972 90.122C224.148 88.7023 228.339 86.9581 233.193 85.0083C242.908 81.1067 255.367 76.3487 267.872 71.6593C280.381 66.9686 292.95 62.3411 302.89 58.6995C307.168 57.1322 310.954 55.7495 314.038 54.623C318.131 53.1282 320.988 52.0845 322.122 51.6593C324.313 50.8376 326.217 50.4544 327.928 50.5174C329.693 50.5824 331.122 51.1182 332.324 51.92C333.462 52.6782 334.351 53.6495 335.061 54.4452C335.154 54.55 335.245 54.6523 335.334 54.7523ZM172.181 172.278C172.181 172.278 172.179 172.28 172.174 172.283C172.179 172.279 172.181 172.278 172.181 172.278ZM170.713 172.077C170.704 172.068 170.7 172.062 170.701 172.062C170.701 172.062 170.705 172.066 170.713 172.077Z" fill="black"/>
</svg>
