<svg width="522" height="252" viewBox="0 0 522 252" fill="none" xmlns="http://www.w3.org/2000/svg">
<path fill-rule="evenodd" clip-rule="evenodd" d="M521 1.5H1V0.5H521V1.5Z" fill="#20202E"/>
<path fill-rule="evenodd" clip-rule="evenodd" d="M521 11.5H1V10.5H521V11.5Z" fill="#20202E"/>
<path fill-rule="evenodd" clip-rule="evenodd" d="M521 21.5H1V20.5H521V21.5Z" fill="#20202E"/>
<path fill-rule="evenodd" clip-rule="evenodd" d="M521 31.5H1V30.5H521V31.5Z" fill="#20202E"/>
<path fill-rule="evenodd" clip-rule="evenodd" d="M521 41.5H1V40.5H521V41.5Z" fill="#20202E"/>
<path fill-rule="evenodd" clip-rule="evenodd" d="M521 51.5H1V50.5H521V51.5Z" fill="#20202E"/>
<path fill-rule="evenodd" clip-rule="evenodd" d="M521 61.5H1V60.5H521V61.5Z" fill="#20202E"/>
<path fill-rule="evenodd" clip-rule="evenodd" d="M521 71.5H1V70.5H521V71.5Z" fill="#20202E"/>
<path fill-rule="evenodd" clip-rule="evenodd" d="M521 81.5H1V80.5H521V81.5Z" fill="#20202E"/>
<path fill-rule="evenodd" clip-rule="evenodd" d="M521 91.5H1V90.5H521V91.5Z" fill="#20202E"/>
<path fill-rule="evenodd" clip-rule="evenodd" d="M521 101.5H1V100.5H521V101.5Z" fill="#20202E"/>
<path fill-rule="evenodd" clip-rule="evenodd" d="M521 111.5H1V110.5H521V111.5Z" fill="#20202E"/>
<path fill-rule="evenodd" clip-rule="evenodd" d="M521 121.5H1V120.5H521V121.5Z" fill="#20202E"/>
<path fill-rule="evenodd" clip-rule="evenodd" d="M521 131.5H1V130.5H521V131.5Z" fill="#20202E"/>
<path fill-rule="evenodd" clip-rule="evenodd" d="M521 141.5H1V140.5H521V141.5Z" fill="#20202E"/>
<path fill-rule="evenodd" clip-rule="evenodd" d="M521 151.5H1V150.5H521V151.5Z" fill="#20202E"/>
<path fill-rule="evenodd" clip-rule="evenodd" d="M521 161.5H1V160.5H521V161.5Z" fill="#20202E"/>
<path fill-rule="evenodd" clip-rule="evenodd" d="M521 171.5H1V170.5H521V171.5Z" fill="#20202E"/>
<path fill-rule="evenodd" clip-rule="evenodd" d="M521 181.5H1V180.5H521V181.5Z" fill="#20202E"/>
<path fill-rule="evenodd" clip-rule="evenodd" d="M521 191.5H1V190.5H521V191.5Z" fill="#20202E"/>
<path fill-rule="evenodd" clip-rule="evenodd" d="M521 201.5H1V200.5H521V201.5Z" fill="#20202E"/>
<path fill-rule="evenodd" clip-rule="evenodd" d="M521 211.5H1V210.5H521V211.5Z" fill="#20202E"/>
<path fill-rule="evenodd" clip-rule="evenodd" d="M521 221.5H1V220.5H521V221.5Z" fill="#20202E"/>
<path fill-rule="evenodd" clip-rule="evenodd" d="M521 231.5H1V230.5H521V231.5Z" fill="#20202E"/>
<path fill-rule="evenodd" clip-rule="evenodd" d="M521 241.5H1V240.5H521V241.5Z" fill="#20202E"/>
<path fill-rule="evenodd" clip-rule="evenodd" d="M521 251.5H1V250.5H521V251.5Z" fill="#20202E"/>
<path fill-rule="evenodd" clip-rule="evenodd" d="M0.5 251L0.5 1L1.5 1L1.5 251L0.5 251Z" fill="#20202E"/>
<path fill-rule="evenodd" clip-rule="evenodd" d="M10.5 251L10.5 1L11.5 1L11.5 251L10.5 251Z" fill="#20202E"/>
<path fill-rule="evenodd" clip-rule="evenodd" d="M20.5 251L20.5 1L21.5 1L21.5 251L20.5 251Z" fill="#20202E"/>
<path fill-rule="evenodd" clip-rule="evenodd" d="M30.5 251L30.5 1L31.5 1L31.5 251L30.5 251Z" fill="#20202E"/>
<path fill-rule="evenodd" clip-rule="evenodd" d="M40.5 251L40.5 1L41.5 1L41.5 251L40.5 251Z" fill="#20202E"/>
<path fill-rule="evenodd" clip-rule="evenodd" d="M50.5 251L50.5 1L51.5 1L51.5 251L50.5 251Z" fill="#20202E"/>
<path fill-rule="evenodd" clip-rule="evenodd" d="M60.5 251L60.5 1L61.5 1L61.5 251L60.5 251Z" fill="#20202E"/>
<path fill-rule="evenodd" clip-rule="evenodd" d="M70.5 251L70.5 1L71.5 1L71.5 251L70.5 251Z" fill="#20202E"/>
<path fill-rule="evenodd" clip-rule="evenodd" d="M80.5 251L80.5 1L81.5 1L81.5 251L80.5 251Z" fill="#20202E"/>
<path fill-rule="evenodd" clip-rule="evenodd" d="M90.5 251L90.5 1L91.5 1L91.5 251L90.5 251Z" fill="#20202E"/>
<path fill-rule="evenodd" clip-rule="evenodd" d="M100.5 251L100.5 1L101.5 1L101.5 251L100.5 251Z" fill="#20202E"/>
<path fill-rule="evenodd" clip-rule="evenodd" d="M110.5 251L110.5 1L111.5 1L111.5 251L110.5 251Z" fill="#20202E"/>
<path fill-rule="evenodd" clip-rule="evenodd" d="M120.5 251L120.5 1L121.5 1L121.5 251L120.5 251Z" fill="#20202E"/>
<path fill-rule="evenodd" clip-rule="evenodd" d="M130.5 251L130.5 1L131.5 1L131.5 251L130.5 251Z" fill="#20202E"/>
<path fill-rule="evenodd" clip-rule="evenodd" d="M140.5 251L140.5 1L141.5 1L141.5 251L140.5 251Z" fill="#20202E"/>
<path fill-rule="evenodd" clip-rule="evenodd" d="M150.5 251L150.5 1L151.5 1L151.5 251L150.5 251Z" fill="#20202E"/>
<path fill-rule="evenodd" clip-rule="evenodd" d="M160.5 251L160.5 1L161.5 1L161.5 251L160.5 251Z" fill="#20202E"/>
<path fill-rule="evenodd" clip-rule="evenodd" d="M170.5 251L170.5 1L171.5 1L171.5 251L170.5 251Z" fill="#20202E"/>
<path fill-rule="evenodd" clip-rule="evenodd" d="M180.5 251L180.5 1L181.5 1L181.5 251L180.5 251Z" fill="#20202E"/>
<path fill-rule="evenodd" clip-rule="evenodd" d="M190.5 251L190.5 1L191.5 1L191.5 251L190.5 251Z" fill="#20202E"/>
<path fill-rule="evenodd" clip-rule="evenodd" d="M200.5 251L200.5 1L201.5 1L201.5 251L200.5 251Z" fill="#20202E"/>
<path fill-rule="evenodd" clip-rule="evenodd" d="M210.5 251L210.5 1L211.5 1L211.5 251L210.5 251Z" fill="#20202E"/>
<path fill-rule="evenodd" clip-rule="evenodd" d="M220.5 251L220.5 1L221.5 1L221.5 251L220.5 251Z" fill="#20202E"/>
<path fill-rule="evenodd" clip-rule="evenodd" d="M230.5 251L230.5 1L231.5 1L231.5 251L230.5 251Z" fill="#20202E"/>
<path fill-rule="evenodd" clip-rule="evenodd" d="M240.5 251L240.5 1L241.5 1L241.5 251L240.5 251Z" fill="#20202E"/>
<path fill-rule="evenodd" clip-rule="evenodd" d="M250.5 251L250.5 1L251.5 1L251.5 251L250.5 251Z" fill="#20202E"/>
<path fill-rule="evenodd" clip-rule="evenodd" d="M260.5 251L260.5 1L261.5 1L261.5 251L260.5 251Z" fill="#20202E"/>
<path fill-rule="evenodd" clip-rule="evenodd" d="M270.5 251L270.5 1L271.5 1L271.5 251L270.5 251Z" fill="#20202E"/>
<path fill-rule="evenodd" clip-rule="evenodd" d="M280.5 251L280.5 1L281.5 1L281.5 251L280.5 251Z" fill="#20202E"/>
<path fill-rule="evenodd" clip-rule="evenodd" d="M290.5 251L290.5 1L291.5 1L291.5 251L290.5 251Z" fill="#20202E"/>
<path fill-rule="evenodd" clip-rule="evenodd" d="M300.5 251L300.5 1L301.5 1L301.5 251L300.5 251Z" fill="#20202E"/>
<path fill-rule="evenodd" clip-rule="evenodd" d="M310.5 251L310.5 1L311.5 1L311.5 251L310.5 251Z" fill="#20202E"/>
<path fill-rule="evenodd" clip-rule="evenodd" d="M320.5 251L320.5 1L321.5 1L321.5 251L320.5 251Z" fill="#20202E"/>
<path fill-rule="evenodd" clip-rule="evenodd" d="M330.5 251L330.5 1L331.5 1L331.5 251L330.5 251Z" fill="#20202E"/>
<path fill-rule="evenodd" clip-rule="evenodd" d="M340.5 251L340.5 1L341.5 1L341.5 251L340.5 251Z" fill="#20202E"/>
<path fill-rule="evenodd" clip-rule="evenodd" d="M350.5 251L350.5 1L351.5 1L351.5 251L350.5 251Z" fill="#20202E"/>
<path fill-rule="evenodd" clip-rule="evenodd" d="M360.5 251L360.5 1L361.5 1L361.5 251L360.5 251Z" fill="#20202E"/>
<path fill-rule="evenodd" clip-rule="evenodd" d="M370.5 251L370.5 1L371.5 1L371.5 251L370.5 251Z" fill="#20202E"/>
<path fill-rule="evenodd" clip-rule="evenodd" d="M380.5 251L380.5 1L381.5 1L381.5 251L380.5 251Z" fill="#20202E"/>
<path fill-rule="evenodd" clip-rule="evenodd" d="M390.5 251L390.5 1L391.5 1L391.5 251L390.5 251Z" fill="#20202E"/>
<path fill-rule="evenodd" clip-rule="evenodd" d="M400.5 251L400.5 1L401.5 1L401.5 251L400.5 251Z" fill="#20202E"/>
<path fill-rule="evenodd" clip-rule="evenodd" d="M410.5 251L410.5 1L411.5 1L411.5 251L410.5 251Z" fill="#20202E"/>
<path fill-rule="evenodd" clip-rule="evenodd" d="M420.5 251L420.5 1L421.5 1L421.5 251L420.5 251Z" fill="#20202E"/>
<path fill-rule="evenodd" clip-rule="evenodd" d="M430.5 251L430.5 1L431.5 1L431.5 251L430.5 251Z" fill="#20202E"/>
<path fill-rule="evenodd" clip-rule="evenodd" d="M440.5 251L440.5 1L441.5 1L441.5 251L440.5 251Z" fill="#20202E"/>
<path fill-rule="evenodd" clip-rule="evenodd" d="M450.5 251L450.5 1L451.5 1L451.5 251L450.5 251Z" fill="#20202E"/>
<path fill-rule="evenodd" clip-rule="evenodd" d="M460.5 251L460.5 1L461.5 1L461.5 251L460.5 251Z" fill="#20202E"/>
<path fill-rule="evenodd" clip-rule="evenodd" d="M470.5 251L470.5 1L471.5 1L471.5 251L470.5 251Z" fill="#20202E"/>
<path fill-rule="evenodd" clip-rule="evenodd" d="M480.5 251L480.5 1L481.5 1L481.5 251L480.5 251Z" fill="#20202E"/>
<path fill-rule="evenodd" clip-rule="evenodd" d="M490.5 251L490.5 1L491.5 1L491.5 251L490.5 251Z" fill="#20202E"/>
<path fill-rule="evenodd" clip-rule="evenodd" d="M500.5 251L500.5 1L501.5 1L501.5 251L500.5 251Z" fill="#20202E"/>
<path fill-rule="evenodd" clip-rule="evenodd" d="M510.5 251L510.5 1L511.5 1L511.5 251L510.5 251Z" fill="#20202E"/>
<path fill-rule="evenodd" clip-rule="evenodd" d="M520.5 251L520.5 1L521.5 1L521.5 251L520.5 251Z" fill="#20202E"/>
<path fill-rule="evenodd" clip-rule="evenodd" d="M414.297 55.2847C414.008 58.5505 413.173 61.9864 411.733 64.8661C410.215 67.9027 407.082 73.3958 401.794 77.3886C395.706 81.986 387.086 84.223 377.576 79.9434C373.653 78.178 367.87 76.4223 361.772 75.3033C355.553 74.1622 350.122 73.8905 346.697 74.3798C346.199 74.4509 344.642 74.8966 341.964 76.4063C339.446 77.8261 336.573 79.8234 333.58 82.2287C327.533 87.0889 321.872 92.907 318.545 97.2729C318.057 97.9135 317.219 99.957 318.713 105.506C319.738 109.315 321.128 112.451 322.568 115.699C323.26 117.26 323.963 118.845 324.642 120.544C325.109 121.712 325.484 122.568 325.874 123.458C326.052 123.865 326.233 124.28 326.428 124.734C326.444 124.771 326.461 124.81 326.478 124.851C326.913 125.862 327.884 128.119 328.212 130.636C328.695 134.341 327.818 138.117 325.374 141.332C323.598 143.669 321.317 145.211 320.157 145.985C316.017 148.745 311.251 148.87 307.352 147.335C304.204 146.095 302.091 143.99 300.977 142.752C298.669 140.186 296.783 136.855 295.533 134.569C294.809 133.244 294.248 132.178 293.745 131.221C293.112 130.018 292.57 128.988 291.909 127.834C291.716 127.497 291.55 127.219 291.411 126.992C291.181 126.867 290.925 126.731 290.645 126.582C289.446 125.945 287.896 125.141 286.09 124.219C282.482 122.377 277.972 120.122 273.443 117.888C271.994 117.173 270.547 116.463 269.131 115.771C268.595 116.719 268.19 117.647 267.822 118.989C267.274 120.984 266.72 124.248 266.491 129.98C266.281 135.223 266.921 142.364 267.685 149.692C267.769 150.491 267.854 151.295 267.938 152.096C268.222 154.781 268.503 157.435 268.705 159.747C268.946 162.515 269.181 165.833 268.959 168.497C268.64 172.319 267.437 179.075 261.133 182.927C260.354 183.403 259.576 183.781 258.817 184.081C258.497 187.364 257.633 191.481 255.354 195.671C251.817 202.176 245.69 207.412 236.668 210.753C229.639 213.356 221.231 214.449 214.243 214.911C207.309 215.37 200.805 215.264 196.609 215C185.406 215.005 166.366 215.251 148.92 215.498C144.775 215.557 140.713 215.616 136.868 215.672C124.466 215.852 114.331 216 111 216C98.8592 216 87.2095 210.102 82.4232 198.615C80.5675 194.161 79.0067 187.247 80.7591 180.488C81.7071 176.832 83.7632 172.798 87.6944 169.75C91.6395 166.692 96.3455 165.5 101 165.5C107.336 165.5 113.057 166.405 117.494 167.177C118.135 167.288 118.731 167.393 119.288 167.491C123.109 168.16 125.05 168.5 126.5 168.5C126.77 168.5 126.96 168.481 127.081 168.464C127.13 168.388 127.193 168.28 127.267 168.133C129.762 163.144 134.501 158.855 141.201 157.398C147.621 156.003 154.356 157.511 160.867 160.766C163.021 161.843 164.481 162.451 165.493 162.777C165.655 162.592 165.846 162.364 166.064 162.086C168.808 158.594 172.466 154.186 177.464 151.396C183.304 148.137 189.538 147.765 195.911 149.358C204.456 151.494 209.12 157.617 211.637 161.677C212.614 163.253 213.534 164.979 214.175 166.181C214.33 166.472 214.469 166.733 214.589 166.953C215.23 168.135 215.509 168.548 215.551 168.615C215.587 168.648 215.669 168.715 215.803 168.792C215.996 168.902 216.256 169.009 216.585 169.069C217.092 169.161 218.415 169.264 220.672 168.01C224.517 165.874 228.041 163.322 230.442 160.514C232.724 157.846 233.608 155.444 233.51 152.98C233.077 142.17 230.531 131.156 228.969 124.398C228.914 124.16 228.86 123.926 228.807 123.698C228.747 123.436 228.671 123.117 228.587 122.768C228.346 121.76 228.045 120.501 227.889 119.629C227.584 117.917 227.257 115.028 228.434 111.694C229.237 109.419 230.608 107.537 231.07 106.903C231.107 106.852 231.139 106.809 231.163 106.774C231.227 106.686 231.291 106.597 231.355 106.507C231.934 105.7 232.562 104.824 233.406 103.511C236.451 98.775 238.871 95.3373 240.469 93.0685C241.13 92.1299 241.65 91.3913 242.016 90.8436C242.679 89.8487 244.183 87.6608 246.687 86.0081C250.106 83.7518 253.851 83.4009 257.014 84.0789C258.973 84.4986 260.753 85.3731 261.163 85.5748C261.194 85.5901 261.217 85.6015 261.232 85.6085C261.89 85.9212 262.249 86.09 262.714 86.264C263.51 86.5627 264.919 87.182 266.734 88.0171C266.935 87.8866 267.137 87.7552 267.341 87.6229C270.797 85.379 274.862 82.7888 279.483 79.8438C280.534 79.1744 281.613 78.4867 282.72 77.7806C288.724 73.9519 295.626 69.5375 303.455 64.4425C336.173 43.1494 367.771 32.4277 386.202 29.635C392.059 28.7476 397.912 29.2266 403.04 31.9922C408.306 34.832 411.37 39.3067 412.922 43.6403C414.409 47.7921 414.592 51.9512 414.297 55.2847ZM292.013 100.318C292.123 100.248 292.233 100.178 292.344 100.107C292.85 99.7848 293.363 99.4575 293.885 99.125C293.865 99.8455 293.868 100.559 293.89 101.263C293.274 100.952 292.647 100.636 292.013 100.318ZM207.151 191.2C203.292 189.652 199.976 187.267 197.47 184.403C195.611 182.278 194.272 179.835 193.49 178.391C193.219 177.891 192.982 177.449 192.767 177.046C192.19 175.967 191.766 175.173 191.239 174.323C190.556 173.221 190.131 172.768 189.947 172.607C189.489 172.499 189.187 172.46 189.015 172.448C188.83 172.577 188.48 172.854 187.941 173.396C187.157 174.185 186.212 175.289 184.936 176.913C181.29 181.554 176.061 186.315 168.164 186.96C161.458 187.507 155.15 184.741 150.134 182.233C148.984 181.658 148.102 181.327 147.462 181.138C145.795 183.808 143.512 186.414 140.407 188.484C138.141 189.995 135.661 191.07 133.025 191.725C134.08 191.71 135.158 191.694 136.256 191.678C140.158 191.622 144.31 191.561 148.58 191.501C166.18 191.251 185.647 191 197 191H197.409L197.817 191.027C199.985 191.175 203.319 191.279 207.151 191.2ZM119.772 191.911C118.066 191.659 116.409 191.362 114.928 191.097C114.387 191 113.869 190.907 113.382 190.822C110.449 190.312 107.595 189.868 104.717 189.647C105.188 190.395 106.755 192 111 192C112.52 192 115.602 191.966 119.772 191.911ZM189.841 172.53C189.841 172.526 189.865 172.538 189.914 172.578C189.865 172.554 189.841 172.534 189.841 172.53ZM259.056 176.955C259.057 176.957 259.054 176.994 259.045 177.062C259.051 176.987 259.056 176.953 259.056 176.955ZM290.934 126.266C290.934 126.264 290.933 126.263 290.932 126.262C290.875 126.185 290.846 126.152 290.846 126.154C290.845 126.156 290.875 126.196 290.934 126.266ZM390.379 53.2881C390.201 53.3074 390.008 53.3323 389.798 53.3641C387.105 53.7722 383.939 54.4218 380.376 55.3344C382.879 56.1683 385.256 57.0816 387.424 58.0573C387.453 58.0702 387.481 58.0823 387.507 58.0934C387.819 57.823 388.247 57.3706 388.745 56.6837C389.291 55.9298 389.779 55.091 390.187 54.2906C390.197 54.2579 390.211 54.213 390.225 54.1559C390.283 53.9357 390.342 53.6348 390.379 53.2881ZM387.905 58.2312C387.905 58.2314 387.901 58.2308 387.893 58.2291C387.901 58.2302 387.905 58.2311 387.905 58.2312Z" fill="white"/>
<path fill-rule="evenodd" clip-rule="evenodd" d="M404.834 54.4467C404.625 56.8032 404.031 59.0281 403.236 60.6176C401.93 63.2294 399.595 67.1448 396.069 69.8075C392.376 72.5962 387.414 73.953 381.474 71.2802C376.698 69.1312 370.15 67.1821 363.486 65.9594C356.797 64.732 350.223 64.2796 345.354 64.9753C343.172 65.287 340.423 66.3694 337.298 68.1312C334.207 69.8743 330.899 72.1953 327.629 74.824C321.075 80.0918 314.848 86.4497 310.989 91.5155C307.72 95.8052 307.842 101.674 309.539 107.975C310.759 112.507 312.624 116.729 314.181 120.251C314.795 121.642 315.362 122.923 315.821 124.072C316.347 125.387 316.814 126.454 317.227 127.398C317.392 127.774 317.548 128.131 317.696 128.477C318.17 129.583 318.646 130.75 318.791 131.865C318.966 133.205 318.672 134.45 317.811 135.583C317.088 136.534 316.019 137.326 314.887 138.081C313.579 138.952 312.122 139.003 310.833 138.495C309.7 138.049 308.77 137.21 308.04 136.399C306.563 134.757 305.144 132.344 303.869 130.012C303.309 128.989 302.782 127.989 302.271 127.021C301.544 125.645 300.852 124.333 300.151 123.111C299.573 122.101 299.048 121.261 298.575 120.621C298.07 119.935 297.765 119.677 297.675 119.62C295.812 118.456 286.842 113.903 277.644 109.367C274.27 107.703 270.927 106.072 267.954 104.639C267.048 105.268 266.232 105.851 265.505 106.391C263.07 108.197 261.958 109.284 261.62 109.825C260.459 111.683 259.454 113.584 258.661 116.475C257.854 119.414 257.244 123.458 256.998 129.6C256.756 135.64 257.483 143.461 258.236 150.678C258.324 151.515 258.412 152.345 258.498 153.161C258.78 155.826 259.047 158.356 259.241 160.572C259.489 163.419 259.637 165.965 259.491 167.708C259.227 170.879 258.383 173.474 256.179 174.821C255.122 175.467 253.994 175.663 253.002 175.694C252.031 175.725 251.03 175.601 250.146 175.475C249.954 175.448 249.804 175.435 249.691 175.429C249.638 175.675 249.585 176.063 249.551 176.659C249.501 177.525 249.5 178.6 249.5 180C249.5 182.888 249.246 187.018 247.009 191.132C244.738 195.308 240.592 199.169 233.368 201.845C227.629 203.97 220.303 204.989 213.615 205.432C206.94 205.874 200.697 205.753 196.916 205.5C185.675 205.501 166.372 205.75 148.785 205.999C144.592 206.059 140.495 206.118 136.628 206.175C124.263 206.354 114.255 206.5 111 206.5C101.741 206.5 94.1686 202.104 91.1923 194.961C89.8161 191.658 88.8972 186.952 89.955 182.872C90.4988 180.775 91.5951 178.747 93.5151 177.258C95.4378 175.767 97.9521 175 101 175C106.476 175 111.527 175.782 115.866 176.537C116.484 176.644 117.083 176.75 117.663 176.852C121.271 177.49 124.156 178 126.5 178C129.063 178 130.943 177.366 132.363 176.419C133.799 175.462 134.912 174.085 135.764 172.382C137.075 169.759 139.547 167.48 143.219 166.682C146.832 165.896 151.303 166.606 156.618 169.264C161.615 171.762 164.681 172.696 166.984 172.508C169.039 172.34 170.971 171.217 173.534 167.955C176.283 164.457 178.925 161.46 182.094 159.692C185.438 157.825 189.112 157.451 193.606 158.574C198.553 159.811 201.504 163.363 203.562 166.683C204.356 167.963 205.071 169.303 205.71 170.499C205.892 170.839 206.067 171.168 206.237 171.481C207.046 172.973 207.711 174.088 208.381 174.854C211.127 177.991 217.344 180.727 225.286 176.315C234.232 171.344 243.439 163.518 243.002 152.6C242.533 140.874 239.809 129.105 238.256 122.394C238.19 122.108 238.126 121.83 238.064 121.562C237.95 121.066 237.838 120.6 237.734 120.166C237.524 119.288 237.346 118.544 237.242 117.962C237.067 116.981 236.999 115.971 237.393 114.855C237.714 113.944 238.31 113.111 238.852 112.355L238.889 112.303C238.95 112.218 239.012 112.131 239.077 112.041C239.665 111.22 240.418 110.171 241.397 108.648C244.372 104.02 246.351 101.219 247.885 99.0455C248.651 97.9613 249.306 97.0335 249.92 96.1133C250.454 95.3123 251.089 94.4854 251.92 93.937C252.941 93.2628 254.018 93.1526 255.024 93.368C255.767 93.5272 256.515 93.8841 257.06 94.1441C257.092 94.159 257.122 94.1735 257.152 94.1877L257.198 94.2096C257.829 94.5098 258.511 94.834 259.378 95.1592C260.499 95.5797 263.561 96.9931 267.518 98.8828C269.019 97.8736 270.685 96.7781 272.514 95.5909C275.933 93.3711 279.954 90.8087 284.573 87.865C285.627 87.1936 286.712 86.5023 287.828 85.7907C293.841 81.9563 300.771 77.5236 308.636 72.4049C340.39 51.7396 370.723 41.5888 387.625 39.0278C392.111 38.3481 395.73 38.8438 398.53 40.3539C401.359 41.8794 403.061 44.2836 403.979 46.844C404.882 49.3665 405.044 52.0761 404.834 54.4467ZM272.754 101.406C273.54 100.889 274.368 100.349 275.236 99.7845C278.636 97.5773 282.635 95.0291 287.254 92.0858C288.309 91.4135 289.396 90.7207 290.516 90.0066C296.534 86.1691 303.479 81.7268 311.364 76.5956C342.61 56.2608 372.277 46.4104 388.374 43.9714C392.139 43.401 394.582 43.9054 396.157 44.7547C397.703 45.5885 398.689 46.903 399.271 48.5301C399.868 50.1951 400.019 52.1418 399.853 54.0056C399.687 55.8835 399.219 57.4711 398.764 58.3815C397.57 60.7698 395.655 63.8548 393.056 65.8175C390.624 67.6542 387.586 68.5478 383.526 66.7206C378.302 64.3696 371.35 62.3188 364.389 61.0415C357.453 59.7688 350.277 59.2212 344.646 60.0255C341.578 60.4638 338.202 61.8814 334.842 63.7759C331.449 65.6891 327.913 68.1805 324.496 70.9268C317.675 76.4091 311.152 83.0511 307.011 88.4853C302.28 94.6956 302.908 102.577 304.711 109.275C306.04 114.212 308.185 119.068 309.77 122.655C310.33 123.922 310.82 125.031 311.179 125.929C311.737 127.324 312.256 128.51 312.677 129.472C312.833 129.828 312.975 130.153 313.101 130.446C313.611 131.637 313.791 132.188 313.833 132.511C313.836 132.529 313.838 132.541 313.84 132.548C313.838 132.549 313.834 132.552 313.83 132.558C313.679 132.756 313.317 133.095 312.437 133.701C312.282 133.585 312.055 133.386 311.757 133.055C310.718 131.9 309.544 129.97 308.256 127.614C307.778 126.739 307.276 125.79 306.769 124.831C305.996 123.369 305.213 121.887 304.489 120.625C303.873 119.548 303.237 118.518 302.598 117.652C301.993 116.831 301.235 115.949 300.325 115.38C298.188 114.045 288.908 109.347 279.856 104.883C277.459 103.701 275.046 102.52 272.754 101.406ZM262.796 102.176C260.23 100.967 258.36 100.118 257.622 99.8409C256.552 99.4397 255.707 99.0375 255.077 98.7378L255.004 98.703C254.759 98.5863 254.569 98.4966 254.408 98.425C254.321 98.5386 254.212 98.6892 254.08 98.8868C253.325 100.019 252.617 101.02 251.82 102.146C250.34 104.238 248.555 106.76 245.603 111.352C244.553 112.985 243.734 114.126 243.14 114.954C243.076 115.044 243.014 115.13 242.955 115.213C242.287 116.145 242.153 116.39 242.107 116.52C242.107 116.52 242.107 116.521 242.107 116.522C242.105 116.525 242.104 116.528 242.103 116.559C242.102 116.624 242.108 116.771 242.164 117.085C242.243 117.525 242.366 118.036 242.544 118.78C242.653 119.234 242.783 119.774 242.936 120.438C243.002 120.722 243.07 121.018 243.141 121.326C244.691 128.02 247.51 140.189 247.998 152.4C248.561 166.482 236.768 175.655 227.714 180.685C217.656 186.274 208.873 183.008 204.619 178.146C203.539 176.912 202.641 175.339 201.841 173.863C201.641 173.494 201.445 173.128 201.251 172.764C200.625 171.592 200.013 170.447 199.313 169.317C197.496 166.387 195.447 164.188 192.394 163.425C188.888 162.548 186.562 162.924 184.531 164.058C182.325 165.289 180.217 167.542 177.466 171.044C174.529 174.782 171.461 177.159 167.391 177.491C163.569 177.803 159.385 176.237 154.382 173.736C149.697 171.393 146.418 171.103 144.281 171.568C142.203 172.019 140.925 173.24 140.236 174.618C139.088 176.914 137.451 179.037 135.137 180.58C132.807 182.133 129.937 183 126.5 183C123.677 183 120.282 182.397 116.736 181.767C116.164 181.666 115.588 181.563 115.009 181.463C110.723 180.717 106.024 180 101 180C98.7978 180 97.4371 180.544 96.5786 181.21C95.7173 181.878 95.1261 182.85 94.795 184.127C94.1027 186.797 94.6838 190.341 95.8077 193.038C97.8313 197.895 103.258 201.5 111 201.5C114.216 201.5 124.156 201.355 136.499 201.176C140.378 201.119 144.495 201.06 148.715 201C166.334 200.75 185.729 200.5 197 200.5H197.085L197.17 200.505C200.731 200.748 206.794 200.873 213.285 200.443C219.814 200.011 226.571 199.03 231.632 197.156C237.908 194.831 241.012 191.693 242.616 188.743C244.254 185.732 244.5 182.612 244.5 180V179.941C244.5 178.614 244.5 177.398 244.559 176.373C244.617 175.363 244.74 174.288 245.107 173.344C245.517 172.291 246.268 171.317 247.523 170.799C248.629 170.342 249.816 170.377 250.854 170.525C251.72 170.649 252.344 170.713 252.842 170.697C253.319 170.682 253.503 170.596 253.571 170.555C253.617 170.526 254.273 170.121 254.509 167.293C254.613 166.035 254.511 163.894 254.259 161.006C254.071 158.84 253.81 156.375 253.529 153.721C253.442 152.897 253.353 152.055 253.263 151.197C252.517 144.039 251.744 135.86 252.002 129.4C252.256 123.042 252.896 118.587 253.839 115.151C254.796 111.667 256.041 109.317 257.38 107.175C258.292 105.716 260.18 104.115 262.526 102.375C262.615 102.309 262.705 102.243 262.796 102.176Z" fill="black"/>
</svg>
