<svg width="522" height="252" viewBox="0 0 522 252" fill="none" xmlns="http://www.w3.org/2000/svg">
<path fill-rule="evenodd" clip-rule="evenodd" d="M521 1.5H1V0.5H521V1.5Z" fill="#20202E"/>
<path fill-rule="evenodd" clip-rule="evenodd" d="M521 11.5H1V10.5H521V11.5Z" fill="#20202E"/>
<path fill-rule="evenodd" clip-rule="evenodd" d="M521 21.5H1V20.5H521V21.5Z" fill="#20202E"/>
<path fill-rule="evenodd" clip-rule="evenodd" d="M521 31.5H1V30.5H521V31.5Z" fill="#20202E"/>
<path fill-rule="evenodd" clip-rule="evenodd" d="M521 41.5H1V40.5H521V41.5Z" fill="#20202E"/>
<path fill-rule="evenodd" clip-rule="evenodd" d="M521 51.5H1V50.5H521V51.5Z" fill="#20202E"/>
<path fill-rule="evenodd" clip-rule="evenodd" d="M521 61.5H1V60.5H521V61.5Z" fill="#20202E"/>
<path fill-rule="evenodd" clip-rule="evenodd" d="M521 71.5H1V70.5H521V71.5Z" fill="#20202E"/>
<path fill-rule="evenodd" clip-rule="evenodd" d="M521 81.5H1V80.5H521V81.5Z" fill="#20202E"/>
<path fill-rule="evenodd" clip-rule="evenodd" d="M521 91.5H1V90.5H521V91.5Z" fill="#20202E"/>
<path fill-rule="evenodd" clip-rule="evenodd" d="M521 101.5H1V100.5H521V101.5Z" fill="#20202E"/>
<path fill-rule="evenodd" clip-rule="evenodd" d="M521 111.5H1V110.5H521V111.5Z" fill="#20202E"/>
<path fill-rule="evenodd" clip-rule="evenodd" d="M521 121.5H1V120.5H521V121.5Z" fill="#20202E"/>
<path fill-rule="evenodd" clip-rule="evenodd" d="M521 131.5H1V130.5H521V131.5Z" fill="#20202E"/>
<path fill-rule="evenodd" clip-rule="evenodd" d="M521 141.5H1V140.5H521V141.5Z" fill="#20202E"/>
<path fill-rule="evenodd" clip-rule="evenodd" d="M521 151.5H1V150.5H521V151.5Z" fill="#20202E"/>
<path fill-rule="evenodd" clip-rule="evenodd" d="M521 161.5H1V160.5H521V161.5Z" fill="#20202E"/>
<path fill-rule="evenodd" clip-rule="evenodd" d="M521 171.5H1V170.5H521V171.5Z" fill="#20202E"/>
<path fill-rule="evenodd" clip-rule="evenodd" d="M521 181.5H1V180.5H521V181.5Z" fill="#20202E"/>
<path fill-rule="evenodd" clip-rule="evenodd" d="M521 191.5H1V190.5H521V191.5Z" fill="#20202E"/>
<path fill-rule="evenodd" clip-rule="evenodd" d="M521 201.5H1V200.5H521V201.5Z" fill="#20202E"/>
<path fill-rule="evenodd" clip-rule="evenodd" d="M521 211.5H1V210.5H521V211.5Z" fill="#20202E"/>
<path fill-rule="evenodd" clip-rule="evenodd" d="M521 221.5H1V220.5H521V221.5Z" fill="#20202E"/>
<path fill-rule="evenodd" clip-rule="evenodd" d="M521 231.5H1V230.5H521V231.5Z" fill="#20202E"/>
<path fill-rule="evenodd" clip-rule="evenodd" d="M521 241.5H1V240.5H521V241.5Z" fill="#20202E"/>
<path fill-rule="evenodd" clip-rule="evenodd" d="M521 251.5H1V250.5H521V251.5Z" fill="#20202E"/>
<path fill-rule="evenodd" clip-rule="evenodd" d="M0.5 251L0.5 1L1.5 1L1.5 251L0.5 251Z" fill="#20202E"/>
<path fill-rule="evenodd" clip-rule="evenodd" d="M10.5 251L10.5 1L11.5 1L11.5 251L10.5 251Z" fill="#20202E"/>
<path fill-rule="evenodd" clip-rule="evenodd" d="M20.5 251L20.5 1L21.5 1L21.5 251L20.5 251Z" fill="#20202E"/>
<path fill-rule="evenodd" clip-rule="evenodd" d="M30.5 251L30.5 1L31.5 1L31.5 251L30.5 251Z" fill="#20202E"/>
<path fill-rule="evenodd" clip-rule="evenodd" d="M40.5 251L40.5 1L41.5 1L41.5 251L40.5 251Z" fill="#20202E"/>
<path fill-rule="evenodd" clip-rule="evenodd" d="M50.5 251L50.5 1L51.5 1L51.5 251L50.5 251Z" fill="#20202E"/>
<path fill-rule="evenodd" clip-rule="evenodd" d="M60.5 251L60.5 1L61.5 1L61.5 251L60.5 251Z" fill="#20202E"/>
<path fill-rule="evenodd" clip-rule="evenodd" d="M70.5 251L70.5 1L71.5 1L71.5 251L70.5 251Z" fill="#20202E"/>
<path fill-rule="evenodd" clip-rule="evenodd" d="M80.5 251L80.5 1L81.5 1L81.5 251L80.5 251Z" fill="#20202E"/>
<path fill-rule="evenodd" clip-rule="evenodd" d="M90.5 251L90.5 1L91.5 1L91.5 251L90.5 251Z" fill="#20202E"/>
<path fill-rule="evenodd" clip-rule="evenodd" d="M100.5 251L100.5 1L101.5 1L101.5 251L100.5 251Z" fill="#20202E"/>
<path fill-rule="evenodd" clip-rule="evenodd" d="M110.5 251L110.5 1L111.5 1L111.5 251L110.5 251Z" fill="#20202E"/>
<path fill-rule="evenodd" clip-rule="evenodd" d="M120.5 251L120.5 1L121.5 1L121.5 251L120.5 251Z" fill="#20202E"/>
<path fill-rule="evenodd" clip-rule="evenodd" d="M130.5 251L130.5 1L131.5 1L131.5 251L130.5 251Z" fill="#20202E"/>
<path fill-rule="evenodd" clip-rule="evenodd" d="M140.5 251L140.5 1L141.5 1L141.5 251L140.5 251Z" fill="#20202E"/>
<path fill-rule="evenodd" clip-rule="evenodd" d="M150.5 251L150.5 1L151.5 1L151.5 251L150.5 251Z" fill="#20202E"/>
<path fill-rule="evenodd" clip-rule="evenodd" d="M160.5 251L160.5 1L161.5 1L161.5 251L160.5 251Z" fill="#20202E"/>
<path fill-rule="evenodd" clip-rule="evenodd" d="M170.5 251L170.5 1L171.5 1L171.5 251L170.5 251Z" fill="#20202E"/>
<path fill-rule="evenodd" clip-rule="evenodd" d="M180.5 251L180.5 1L181.5 1L181.5 251L180.5 251Z" fill="#20202E"/>
<path fill-rule="evenodd" clip-rule="evenodd" d="M190.5 251L190.5 1L191.5 1L191.5 251L190.5 251Z" fill="#20202E"/>
<path fill-rule="evenodd" clip-rule="evenodd" d="M200.5 251L200.5 1L201.5 1L201.5 251L200.5 251Z" fill="#20202E"/>
<path fill-rule="evenodd" clip-rule="evenodd" d="M210.5 251L210.5 1L211.5 1L211.5 251L210.5 251Z" fill="#20202E"/>
<path fill-rule="evenodd" clip-rule="evenodd" d="M220.5 251L220.5 1L221.5 1L221.5 251L220.5 251Z" fill="#20202E"/>
<path fill-rule="evenodd" clip-rule="evenodd" d="M230.5 251L230.5 1L231.5 1L231.5 251L230.5 251Z" fill="#20202E"/>
<path fill-rule="evenodd" clip-rule="evenodd" d="M240.5 251L240.5 1L241.5 1L241.5 251L240.5 251Z" fill="#20202E"/>
<path fill-rule="evenodd" clip-rule="evenodd" d="M250.5 251L250.5 1L251.5 1L251.5 251L250.5 251Z" fill="#20202E"/>
<path fill-rule="evenodd" clip-rule="evenodd" d="M260.5 251L260.5 1L261.5 1L261.5 251L260.5 251Z" fill="#20202E"/>
<path fill-rule="evenodd" clip-rule="evenodd" d="M270.5 251L270.5 1L271.5 1L271.5 251L270.5 251Z" fill="#20202E"/>
<path fill-rule="evenodd" clip-rule="evenodd" d="M280.5 251L280.5 1L281.5 1L281.5 251L280.5 251Z" fill="#20202E"/>
<path fill-rule="evenodd" clip-rule="evenodd" d="M290.5 251L290.5 1L291.5 1L291.5 251L290.5 251Z" fill="#20202E"/>
<path fill-rule="evenodd" clip-rule="evenodd" d="M300.5 251L300.5 1L301.5 1L301.5 251L300.5 251Z" fill="#20202E"/>
<path fill-rule="evenodd" clip-rule="evenodd" d="M310.5 251L310.5 1L311.5 1L311.5 251L310.5 251Z" fill="#20202E"/>
<path fill-rule="evenodd" clip-rule="evenodd" d="M320.5 251L320.5 1L321.5 1L321.5 251L320.5 251Z" fill="#20202E"/>
<path fill-rule="evenodd" clip-rule="evenodd" d="M330.5 251L330.5 1L331.5 1L331.5 251L330.5 251Z" fill="#20202E"/>
<path fill-rule="evenodd" clip-rule="evenodd" d="M340.5 251L340.5 1L341.5 1L341.5 251L340.5 251Z" fill="#20202E"/>
<path fill-rule="evenodd" clip-rule="evenodd" d="M350.5 251L350.5 1L351.5 1L351.5 251L350.5 251Z" fill="#20202E"/>
<path fill-rule="evenodd" clip-rule="evenodd" d="M360.5 251L360.5 1L361.5 1L361.5 251L360.5 251Z" fill="#20202E"/>
<path fill-rule="evenodd" clip-rule="evenodd" d="M370.5 251L370.5 1L371.5 1L371.5 251L370.5 251Z" fill="#20202E"/>
<path fill-rule="evenodd" clip-rule="evenodd" d="M380.5 251L380.5 1L381.5 1L381.5 251L380.5 251Z" fill="#20202E"/>
<path fill-rule="evenodd" clip-rule="evenodd" d="M390.5 251L390.5 1L391.5 1L391.5 251L390.5 251Z" fill="#20202E"/>
<path fill-rule="evenodd" clip-rule="evenodd" d="M400.5 251L400.5 1L401.5 1L401.5 251L400.5 251Z" fill="#20202E"/>
<path fill-rule="evenodd" clip-rule="evenodd" d="M410.5 251L410.5 1L411.5 1L411.5 251L410.5 251Z" fill="#20202E"/>
<path fill-rule="evenodd" clip-rule="evenodd" d="M420.5 251L420.5 1L421.5 1L421.5 251L420.5 251Z" fill="#20202E"/>
<path fill-rule="evenodd" clip-rule="evenodd" d="M430.5 251L430.5 1L431.5 1L431.5 251L430.5 251Z" fill="#20202E"/>
<path fill-rule="evenodd" clip-rule="evenodd" d="M440.5 251L440.5 1L441.5 1L441.5 251L440.5 251Z" fill="#20202E"/>
<path fill-rule="evenodd" clip-rule="evenodd" d="M450.5 251L450.5 1L451.5 1L451.5 251L450.5 251Z" fill="#20202E"/>
<path fill-rule="evenodd" clip-rule="evenodd" d="M460.5 251L460.5 1L461.5 1L461.5 251L460.5 251Z" fill="#20202E"/>
<path fill-rule="evenodd" clip-rule="evenodd" d="M470.5 251L470.5 1L471.5 1L471.5 251L470.5 251Z" fill="#20202E"/>
<path fill-rule="evenodd" clip-rule="evenodd" d="M480.5 251L480.5 1L481.5 1L481.5 251L480.5 251Z" fill="#20202E"/>
<path fill-rule="evenodd" clip-rule="evenodd" d="M490.5 251L490.5 1L491.5 1L491.5 251L490.5 251Z" fill="#20202E"/>
<path fill-rule="evenodd" clip-rule="evenodd" d="M500.5 251L500.5 1L501.5 1L501.5 251L500.5 251Z" fill="#20202E"/>
<path fill-rule="evenodd" clip-rule="evenodd" d="M510.5 251L510.5 1L511.5 1L511.5 251L510.5 251Z" fill="#20202E"/>
<path fill-rule="evenodd" clip-rule="evenodd" d="M520.5 251L520.5 1L521.5 1L521.5 251L520.5 251Z" fill="#20202E"/>
<path fill-rule="evenodd" clip-rule="evenodd" d="M384.49 46.6125C384.323 48.8236 383.734 50.7477 383.384 51.7956C382.911 53.2151 381.954 55.0828 381.409 56.1446L381.375 56.2108C380.602 57.7198 379.582 59.6441 378.409 61.8145C376.058 66.1665 372.999 71.6812 369.868 77.1852C366.743 82.677 363.498 88.242 360.783 92.6671C359.433 94.868 358.152 96.8878 357.048 98.5117C356.499 99.3183 355.926 100.128 355.363 100.857C354.941 101.402 354.022 102.573 352.81 103.612C350.59 105.515 347.809 106.901 345.947 107.771C343.797 108.776 341.396 109.748 339.185 110.613C337.701 111.194 336.351 111.712 335.137 112.178C332.271 113.277 330.167 114.084 328.867 114.734C325.006 116.664 320.629 117.894 315.998 117.359C312.755 116.984 310.051 115.823 307.867 114.345C307.469 114.9 307.058 115.487 306.613 116.122C306.522 116.252 306.43 116.384 306.336 116.518L306.326 116.532C305.484 117.734 304.307 119.415 303.111 120.81C302.664 121.331 302.449 121.596 302.195 121.908C301.982 122.17 301.742 122.466 301.316 122.973C300.698 123.71 299.625 124.962 298.192 126.126C294.42 129.191 290.311 130 286.5 130C283.071 130 280.125 128.896 278.509 128.232C277.023 127.621 275.43 126.836 274.238 126.249C274.034 126.149 273.842 126.054 273.663 125.967C271.521 124.919 270.239 124.394 269.436 124.15C269.243 124.306 269.004 124.526 268.738 124.827C267.584 126.131 266.6 128.183 266.487 130.572C266.198 136.621 265.133 142.433 260.846 147.109C259.274 148.824 257.484 150.081 256.725 150.613C256.653 150.664 256.59 150.708 256.537 150.746C255.728 151.322 255.372 151.599 254.985 151.986C254.346 152.625 253.776 153.177 253.307 153.63C252.815 154.105 252.499 154.41 252.222 154.687C252.14 155.076 252.02 155.716 251.879 156.698C251.144 161.848 248.256 165.825 246.189 168.276C243.942 170.94 241.187 173.477 238.701 175.676C237.496 176.742 236.323 177.761 235.185 178.749C231.152 182.25 227.566 185.363 224.611 188.81C224.084 189.425 223.858 189.831 223.767 190.022C223.721 190.119 223.702 190.179 223.694 190.205C223.686 190.231 223.684 190.245 223.682 190.255C223.681 190.262 223.666 190.366 223.705 190.628C223.747 190.909 223.85 191.362 224.094 192.036C224.628 193.508 225.535 195.271 227.014 197.899C227.231 198.286 227.464 198.695 227.707 199.124C228.954 201.322 230.489 204.029 231.826 206.823C233.286 209.877 234.487 212.682 235.246 215.136C235.624 216.36 236.008 217.859 236.173 219.48C236.321 220.933 236.425 223.65 235.185 226.595C233.671 230.189 230.658 232.908 226.884 234.017C223.798 234.924 221.124 234.486 219.792 234.189C217.125 233.594 214.679 232.313 213.254 231.536C207.839 228.582 136.814 189.57 121.988 180.886C119.941 179.715 117.99 178.552 116.329 177.412C114.825 176.38 112.672 174.785 110.966 172.591C109.045 170.122 106.737 165.527 108.413 159.895C109.771 155.333 113.079 152.768 114.525 151.735C116.493 150.33 120.336 148.133 124.123 145.969C124.93 145.508 125.735 145.048 126.518 144.597C131.519 141.722 136.902 138.554 141.224 135.596C141.51 135.401 141.804 135.198 142.105 134.991C143.859 133.784 145.82 132.434 147.462 131.544C149.704 130.328 154.082 128.398 159.472 129.995C162.998 131.039 165.737 133.445 166.672 134.266C166.745 134.33 166.807 134.385 166.858 134.428C167.043 134.588 167.229 134.748 167.416 134.909C168.611 135.94 169.872 137.029 171.7 138.4C174.165 140.249 176.641 142.278 178.889 144.12C179.153 144.337 179.414 144.55 179.671 144.761C182.223 146.85 184.496 148.684 186.674 150.244C188.866 151.813 190.61 152.845 192.001 153.451C193.314 154.023 193.865 154.016 193.873 154.017C195.085 153.952 196.54 153.365 198.015 151.89C199.344 150.561 200.201 148.975 200.582 147.737C200.424 147.37 200.051 146.633 199.196 145.445C198.286 144.18 197.136 142.819 195.72 141.223C195.389 140.85 195.023 140.441 194.636 140.011C193.555 138.805 192.318 137.427 191.281 136.182C190.334 135.045 189.407 134.036 188.394 132.934C188.309 132.842 188.224 132.75 188.138 132.656L188.038 132.547C187.119 131.547 185.714 130.018 184.624 128.469C184.611 128.451 184.597 128.431 184.583 128.41C183.851 127.374 180.614 122.79 181.977 116.777C183.598 109.625 189.815 107.246 191.705 106.616L191.705 106.616C193.001 106.184 194.282 105.852 195.545 105.618C195.411 103.266 195.889 100.746 197.231 98.3747C198.851 95.5122 201.149 93.8968 202.698 93.0397C205.537 91.4686 208.695 90.9044 210.844 90.6148C233.425 87.3429 268.111 74.8083 299.167 61.9729C329.961 49.2457 355.586 36.9068 359.385 34.8954C361.918 33.5547 364.733 32.3122 367.624 31.774C370.282 31.2789 375.992 30.8972 380.548 35.4531C384.75 39.6552 384.623 44.8456 384.49 46.6125ZM224.141 142.888C224.749 145.623 224.91 148.638 224.267 151.854C223.854 153.917 223.171 156.063 222.232 158.2C222.426 158.03 222.615 157.863 222.799 157.7C225.188 155.587 226.808 154.03 227.843 152.803C228.029 152.582 228.171 152.401 228.276 152.26C228.809 148.829 229.643 145.198 231.886 141.758C232.021 141.551 232.157 141.351 232.295 141.156C231.368 141.504 230.587 141.711 230.082 141.841C228.274 142.306 226.219 142.626 224.141 142.888ZM240.997 132.391C241.511 131.991 241.973 131.655 242.362 131.377C242.417 130.912 242.473 130.276 242.514 129.43C242.9 121.318 246.166 114.121 250.762 108.925C252.569 106.882 254.85 104.876 257.505 103.283C248.617 106.216 239.939 108.8 231.824 110.818C235.025 114.397 237.364 117.662 238.485 119.344C238.502 119.37 238.521 119.399 238.542 119.43C239.005 120.12 240.332 122.102 241.044 124.52C241.481 126.006 241.884 128.262 241.373 130.911C241.274 131.421 241.148 131.915 240.997 132.391ZM217.186 98.4138C217.186 98.4139 217.193 98.4199 217.205 98.4317C217.192 98.4196 217.185 98.4136 217.186 98.4138ZM266.947 100.069C268.075 99.9607 269.234 99.9449 270.42 100.036C276.185 100.48 281.318 102.993 284.074 104.342L284.212 104.409C284.5 104.55 284.765 104.68 285.011 104.801C285.058 104.824 285.104 104.846 285.149 104.869C285.464 104.463 285.935 103.811 286.68 102.747C286.77 102.619 286.864 102.484 286.961 102.346C287.776 101.18 288.82 99.6871 289.918 98.2567C291.133 96.6735 292.725 94.7493 294.617 93.0446C296.383 91.4542 299.351 89.1849 303.397 88.2858C305.629 87.7897 308.122 87.5716 310.742 88.0038C313.473 88.4542 315.756 89.5146 317.608 90.8214C318.42 91.3945 319.117 91.9951 319.687 92.5377C322.044 91.4846 325.083 90.3212 327.757 89.2975C328.714 88.9311 329.624 88.5826 330.44 88.2635C332.541 87.4412 334.359 86.695 335.787 86.0276C336.262 85.806 336.617 85.6275 336.872 85.4936C336.97 85.3541 337.079 85.1958 337.201 85.0174C338.001 83.8406 339.06 82.1807 340.327 80.1159C342.614 76.3878 345.379 71.6672 348.161 66.8006C337.257 71.7911 323.355 77.9447 308.334 84.1532C295.231 89.5683 280.986 95.1499 266.947 100.069ZM336.27 86.3081C336.27 86.3066 336.293 86.2774 336.338 86.2262C336.292 86.2842 336.27 86.3097 336.27 86.3081ZM317.461 93.5557C317.461 93.5555 317.467 93.5539 317.477 93.5513C317.466 93.5545 317.461 93.5558 317.461 93.5557ZM287.987 106.17C288.041 106.184 288.07 106.194 288.07 106.195C288.071 106.196 288.044 106.189 287.987 106.17ZM228.536 151.876C228.536 151.876 228.532 151.884 228.522 151.902C228.531 151.885 228.536 151.876 228.536 151.876ZM204.21 176.035C201.43 177.121 198.398 177.812 195.131 177.984C185.916 178.469 177.93 173.5 172.701 169.757C169.817 167.691 166.996 165.4 164.47 163.333C164.211 163.122 163.956 162.912 163.703 162.705C161.389 160.809 159.325 159.119 157.3 157.6C156.304 156.853 155.412 156.151 154.622 155.51C150.273 158.475 145.282 161.461 140.853 164.034C154.645 171.835 181.009 186.404 200.587 197.188C199.807 194.187 199.398 190.768 199.896 187.059C200.432 183.07 201.93 179.393 204.21 176.035ZM212.378 222.441C212.378 222.441 212.377 222.435 212.374 222.423C212.377 222.435 212.378 222.44 212.378 222.441ZM158.897 152.644C158.92 152.632 158.914 152.636 158.88 152.654C158.887 152.65 158.892 152.647 158.897 152.644ZM224.147 118.586C224.147 118.586 224.14 118.588 224.125 118.592C224.14 118.587 224.147 118.585 224.147 118.586ZM269.921 123.825C269.921 123.825 269.917 123.826 269.911 123.829C269.918 123.826 269.921 123.825 269.921 123.825ZM310.804 110.774C310.804 110.776 310.777 110.8 310.721 110.84C310.777 110.792 310.804 110.772 310.804 110.774ZM303.06 109.844C303.043 109.827 303.035 109.818 303.035 109.818C303.034 109.818 303.043 109.826 303.06 109.844Z" fill="white"/>
<path fill-rule="evenodd" clip-rule="evenodd" d="M375.016 45.8994C374.938 46.9353 374.642 47.9794 374.371 48.7914C374.172 49.3903 373.601 50.5503 372.921 51.8775C372.191 53.3005 371.207 55.158 370.051 57.2986C367.736 61.5822 364.712 67.0358 361.61 72.4872C358.51 77.936 355.323 83.4 352.685 87.6989C351.368 89.8459 350.175 91.7232 349.191 93.1702C348.7 93.8926 348.247 94.5286 347.847 95.0463C347.476 95.5257 347.053 96.0341 346.627 96.399C345.472 97.3891 343.729 98.3212 341.925 99.1642C340.061 100.035 337.891 100.918 335.723 101.766C334.552 102.225 333.392 102.67 332.276 103.098C329.148 104.297 326.361 105.366 324.618 106.237C321.834 107.629 319.339 108.181 317.088 107.921C314.793 107.656 313.045 106.581 311.732 105.268C311.306 104.841 310.887 104.36 310.552 103.976C310.441 103.849 310.34 103.732 310.25 103.631C309.834 103.165 309.535 102.872 309.246 102.667C308.858 102.394 308.232 102.065 306.542 102.44C306.026 102.555 305.285 102.951 304.321 103.819C303.385 104.662 302.413 105.791 301.421 107.085C300.531 108.243 299.677 109.465 298.84 110.661C298.745 110.797 298.65 110.932 298.555 111.067C297.656 112.351 296.742 113.643 295.898 114.627C295.44 115.161 295.085 115.595 294.742 116.015C294.511 116.296 294.286 116.571 294.039 116.865C293.49 117.52 292.895 118.189 292.201 118.753C290.624 120.035 288.877 120.5 286.5 120.5C284.994 120.5 283.465 119.998 282.12 119.445C280.962 118.969 279.715 118.356 278.503 117.76C278.28 117.65 278.058 117.541 277.838 117.433C274.856 115.974 272.014 114.702 269.308 114.493C267.12 114.325 264.198 115.62 261.622 118.532C259.106 121.377 257.219 125.466 256.997 130.12C256.739 135.536 255.824 138.528 253.843 140.69C253.006 141.603 252.038 142.29 251.219 142.87C251.154 142.916 251.091 142.961 251.028 143.006C250.129 143.646 249.239 144.297 248.268 145.269C247.689 145.847 247.168 146.352 246.706 146.798L246.567 146.933C246.159 147.326 245.81 147.663 245.494 147.979C244.791 148.682 244.358 149.178 244.031 149.679C243.414 150.626 242.968 151.903 242.475 155.354C242.123 157.813 240.656 160.101 238.926 162.152C237.16 164.247 234.854 166.396 232.406 168.561C231.377 169.471 230.32 170.388 229.252 171.314C225.133 174.886 220.854 178.596 217.398 182.628C215.41 184.947 214.528 187.041 214.267 188.99C214.001 190.964 214.343 193.012 215.163 195.274C215.991 197.56 217.256 199.931 218.733 202.556C218.98 202.995 219.233 203.441 219.489 203.893C220.737 206.095 222.076 208.457 223.255 210.922C224.648 213.834 225.616 216.151 226.169 217.942C226.446 218.837 226.644 219.677 226.721 220.44C226.795 221.169 226.786 222.06 226.429 222.908C226.015 223.892 225.22 224.604 224.205 224.902C223.333 225.158 222.485 225.056 221.861 224.917C220.613 224.639 219.188 223.951 217.803 223.195C212.321 220.205 141.318 181.205 126.748 172.665C124.739 171.516 123.045 170.499 121.703 169.578C120.394 168.68 119.24 167.756 118.464 166.758C117.643 165.703 117.026 164.256 117.518 162.605C117.943 161.177 119.053 160.176 120.047 159.466C121.581 158.37 124.812 156.521 128.6 154.354C129.46 153.862 130.349 153.353 131.254 152.833C136.254 149.958 141.927 146.626 146.588 143.437C146.931 143.202 147.262 142.975 147.582 142.755C149.393 141.511 150.833 140.522 151.988 139.896C153.414 139.123 154.982 138.573 156.772 139.103C158.219 139.532 159.491 140.624 160.636 141.608L160.668 141.635C160.837 141.78 161.011 141.931 161.192 142.087C162.398 143.128 163.896 144.422 166 146C168.29 147.718 170.602 149.612 172.873 151.473C173.133 151.687 173.394 151.9 173.653 152.112C176.195 154.193 178.685 156.208 181.143 157.968C186.171 161.568 190.548 163.705 194.368 163.504C202.437 163.079 208.71 155.703 210.048 149.01C210.583 146.336 209.385 143.341 206.908 139.897C205.704 138.224 204.289 136.567 202.825 134.917C202.417 134.458 202.002 133.994 201.586 133.53C200.541 132.366 199.496 131.201 198.579 130.101C197.477 128.778 196.4 127.607 195.407 126.527C195.316 126.427 195.225 126.328 195.135 126.23C194.11 125.114 193.098 124.004 192.393 123.001C191.789 122.144 190.846 120.619 191.241 118.877C191.684 116.923 193.425 116.056 194.709 115.628C199.893 113.9 203.882 114.703 206.983 116.987C209.727 119.01 211.563 122.075 212.974 124.432C213.031 124.527 213.088 124.621 213.143 124.714L213.188 124.788C213.944 126.048 214.446 126.885 214.928 127.519C215.383 128.117 215.7 128.368 215.993 128.514C216.711 128.873 218.065 129.035 222.19 128.519C224.163 128.273 225.535 128.038 226.471 127.798C226.536 127.781 226.598 127.764 226.656 127.748C226.587 127.64 226.508 127.52 226.42 127.387C224.47 124.463 218.702 116.817 212.148 112.603C210.364 111.456 208.836 110.378 207.688 109.373C206.655 108.468 205.484 107.253 205.13 105.767C204.922 104.891 205 103.934 205.499 103.053C205.959 102.24 206.656 101.707 207.297 101.352C208.529 100.67 210.229 100.282 212.156 100.024C236.057 96.5713 271.783 83.5697 302.795 70.7526C333.752 57.958 359.674 45.4917 363.83 43.2914C366.04 42.1214 367.863 41.3925 369.362 41.1134C370.813 40.8433 372.559 40.8998 373.83 42.1706C375.027 43.3676 375.087 44.9561 375.016 45.8994ZM369.94 46.1041C369.149 46.3057 367.936 46.775 366.169 47.7103C361.826 50.01 335.748 62.5434 304.705 75.3734C273.722 88.1787 237.455 101.424 212.857 104.975L212.844 104.976L212.83 104.978C211.911 105.101 211.221 105.238 210.715 105.37C210.797 105.447 210.886 105.527 210.983 105.612C211.851 106.373 213.136 107.294 214.852 108.397C222.297 113.184 228.529 121.538 230.58 124.613C231.059 125.331 231.651 126.254 231.929 127.201C232.082 127.721 232.185 128.383 232.044 129.111C231.897 129.874 231.52 130.515 231.018 131.018C230.134 131.901 228.869 132.344 227.716 132.64C226.464 132.962 224.837 133.227 222.81 133.481C218.934 133.965 216.039 134.127 213.757 132.986C212.549 132.383 211.679 131.508 210.947 130.544C210.294 129.685 209.66 128.627 208.991 127.511C208.946 127.436 208.901 127.362 208.856 127.286C207.289 124.675 205.911 122.409 204.017 121.013C202.411 119.829 200.226 119.137 196.59 120.275C197.076 120.934 197.812 121.753 198.818 122.848C198.908 122.947 199 123.047 199.094 123.149C200.08 124.221 201.236 125.479 202.42 126.9C203.276 127.926 204.224 128.984 205.241 130.117C205.671 130.596 206.113 131.089 206.565 131.599C208.054 133.277 209.608 135.089 210.967 136.978C213.615 140.659 215.917 145.164 214.951 149.99C213.29 158.297 205.563 167.921 194.631 168.497C188.951 168.796 183.329 165.682 178.232 162.033C175.627 160.168 173.023 158.057 170.487 155.982C170.227 155.769 169.967 155.557 169.709 155.345C167.424 153.473 165.198 151.649 163 150C160.75 148.313 159.127 146.91 157.917 145.865C157.739 145.712 157.571 145.566 157.41 145.428C156.017 144.231 155.58 143.965 155.352 143.897C155.349 143.896 155.353 143.887 155.274 143.904C155.143 143.931 154.874 144.019 154.371 144.292C153.467 144.782 152.294 145.587 150.447 146.854C150.123 147.076 149.779 147.312 149.411 147.563C144.572 150.874 138.746 154.292 133.746 157.167C132.77 157.728 131.833 158.265 130.943 158.774C127.171 160.934 124.261 162.6 122.953 163.534C122.778 163.659 122.646 163.765 122.548 163.85C122.879 164.217 123.489 164.74 124.531 165.455C125.702 166.258 127.255 167.195 129.24 168.33L129.252 168.337L129.264 168.344C143.722 176.82 214.681 215.797 220.197 218.806C220.647 219.051 221.045 219.257 221.395 219.426C221.394 219.423 221.393 219.421 221.393 219.419C220.946 217.976 220.102 215.917 218.744 213.079C217.648 210.786 216.411 208.604 215.165 206.405C214.902 205.941 214.638 205.475 214.375 205.008C212.899 202.383 211.446 199.692 210.462 196.978C209.469 194.24 208.905 191.35 209.311 188.324C209.721 185.273 211.089 182.305 213.602 179.374C217.325 175.03 221.975 171.001 226.119 167.41C227.149 166.517 228.148 165.652 229.093 164.816C231.521 162.668 233.59 160.724 235.104 158.928C236.656 157.088 237.376 155.689 237.525 154.647C238.032 151.099 238.586 148.875 239.843 146.948C240.454 146.011 241.177 145.226 241.959 144.444C242.308 144.095 242.69 143.726 243.09 143.339L243.233 143.202C243.691 142.759 244.185 142.279 244.732 141.733C246.011 140.454 247.183 139.606 248.128 138.933L248.157 138.912C249.127 138.221 249.689 137.821 250.157 137.311C250.925 136.473 251.761 134.965 252.003 129.882C252.281 124.036 254.644 118.875 257.877 115.219C261.051 111.631 265.38 109.176 269.691 109.508C273.486 109.8 277.144 111.527 280.036 112.942C280.279 113.061 280.516 113.177 280.747 113.291C281.965 113.89 283.032 114.414 284.02 114.821C285.222 115.315 286.006 115.5 286.5 115.5C288.122 115.5 288.626 115.215 289.048 114.872C289.354 114.624 289.697 114.262 290.21 113.65C290.372 113.457 290.569 113.217 290.79 112.948C291.176 112.477 291.634 111.919 292.102 111.373C292.758 110.607 293.531 109.524 294.46 108.198C294.554 108.064 294.649 107.929 294.745 107.791C295.574 106.607 296.493 105.292 297.454 104.04C298.524 102.647 299.709 101.244 300.975 100.103C302.215 98.9865 303.724 97.9448 305.457 97.5595C308.268 96.935 310.392 97.3565 312.129 98.5826C312.902 99.1282 313.509 99.7728 313.984 100.306C314.151 100.494 314.298 100.663 314.434 100.819C314.728 101.156 314.972 101.436 315.268 101.732C315.955 102.419 316.707 102.844 317.662 102.954C318.66 103.07 320.165 102.873 322.382 101.765C324.363 100.774 327.517 99.5653 330.734 98.3326C331.796 97.9254 332.865 97.5156 333.901 97.1103C336.046 96.271 338.095 95.4352 339.809 94.6343C341.583 93.8055 342.778 93.1126 343.373 92.6027C343.359 92.6146 343.401 92.5792 343.507 92.4585C343.607 92.3458 343.734 92.191 343.891 91.9881C344.205 91.5815 344.595 91.0369 345.056 90.3589C345.977 89.0051 347.124 87.2027 348.424 85.0841C351.02 80.8517 354.177 75.4407 357.264 70.0145C360.35 64.5909 363.357 59.1695 365.652 54.9219C366.8 52.7969 367.765 50.9746 368.471 49.5969C368.825 48.9069 369.108 48.3398 369.314 47.9077C369.417 47.6913 369.496 47.5191 369.554 47.3882C369.601 47.2797 369.622 47.2253 369.627 47.2115C369.629 47.207 369.629 47.2067 369.628 47.2103C369.765 46.7993 369.871 46.4266 369.94 46.1041ZM370.771 45.9827C370.771 45.9832 370.762 45.9827 370.746 45.9796C370.763 45.9806 370.771 45.9822 370.771 45.9827ZM370.034 45.2854C370.03 45.2672 370.029 45.2569 370.029 45.2563C370.03 45.2557 370.032 45.2648 370.034 45.2854ZM223.089 220.061C223.088 220.061 223.085 220.061 223.078 220.06C223.086 220.06 223.09 220.061 223.089 220.061ZM195.761 120.6C195.76 120.6 195.769 120.592 195.791 120.579C195.773 120.594 195.762 120.6 195.761 120.6ZM209.646 105.771C209.646 105.771 209.648 105.769 209.653 105.766C209.649 105.769 209.646 105.771 209.646 105.771Z" fill="black"/>
</svg>
