<svg width="522" height="252" viewBox="0 0 522 252" fill="none" xmlns="http://www.w3.org/2000/svg">
<path fill-rule="evenodd" clip-rule="evenodd" d="M521 1.5H1V0.5H521V1.5Z" fill="#20202E"/>
<path fill-rule="evenodd" clip-rule="evenodd" d="M521 11.5H1V10.5H521V11.5Z" fill="#20202E"/>
<path fill-rule="evenodd" clip-rule="evenodd" d="M521 21.5H1V20.5H521V21.5Z" fill="#20202E"/>
<path fill-rule="evenodd" clip-rule="evenodd" d="M521 31.5H1V30.5H521V31.5Z" fill="#20202E"/>
<path fill-rule="evenodd" clip-rule="evenodd" d="M521 41.5H1V40.5H521V41.5Z" fill="#20202E"/>
<path fill-rule="evenodd" clip-rule="evenodd" d="M521 51.5H1V50.5H521V51.5Z" fill="#20202E"/>
<path fill-rule="evenodd" clip-rule="evenodd" d="M521 61.5H1V60.5H521V61.5Z" fill="#20202E"/>
<path fill-rule="evenodd" clip-rule="evenodd" d="M521 71.5H1V70.5H521V71.5Z" fill="#20202E"/>
<path fill-rule="evenodd" clip-rule="evenodd" d="M521 81.5H1V80.5H521V81.5Z" fill="#20202E"/>
<path fill-rule="evenodd" clip-rule="evenodd" d="M521 91.5H1V90.5H521V91.5Z" fill="#20202E"/>
<path fill-rule="evenodd" clip-rule="evenodd" d="M521 101.5H1V100.5H521V101.5Z" fill="#20202E"/>
<path fill-rule="evenodd" clip-rule="evenodd" d="M521 111.5H1V110.5H521V111.5Z" fill="#20202E"/>
<path fill-rule="evenodd" clip-rule="evenodd" d="M521 121.5H1V120.5H521V121.5Z" fill="#20202E"/>
<path fill-rule="evenodd" clip-rule="evenodd" d="M521 131.5H1V130.5H521V131.5Z" fill="#20202E"/>
<path fill-rule="evenodd" clip-rule="evenodd" d="M521 141.5H1V140.5H521V141.5Z" fill="#20202E"/>
<path fill-rule="evenodd" clip-rule="evenodd" d="M521 151.5H1V150.5H521V151.5Z" fill="#20202E"/>
<path fill-rule="evenodd" clip-rule="evenodd" d="M521 161.5H1V160.5H521V161.5Z" fill="#20202E"/>
<path fill-rule="evenodd" clip-rule="evenodd" d="M521 171.5H1V170.5H521V171.5Z" fill="#20202E"/>
<path fill-rule="evenodd" clip-rule="evenodd" d="M521 181.5H1V180.5H521V181.5Z" fill="#20202E"/>
<path fill-rule="evenodd" clip-rule="evenodd" d="M521 191.5H1V190.5H521V191.5Z" fill="#20202E"/>
<path fill-rule="evenodd" clip-rule="evenodd" d="M521 201.5H1V200.5H521V201.5Z" fill="#20202E"/>
<path fill-rule="evenodd" clip-rule="evenodd" d="M521 211.5H1V210.5H521V211.5Z" fill="#20202E"/>
<path fill-rule="evenodd" clip-rule="evenodd" d="M521 221.5H1V220.5H521V221.5Z" fill="#20202E"/>
<path fill-rule="evenodd" clip-rule="evenodd" d="M521 231.5H1V230.5H521V231.5Z" fill="#20202E"/>
<path fill-rule="evenodd" clip-rule="evenodd" d="M521 241.5H1V240.5H521V241.5Z" fill="#20202E"/>
<path fill-rule="evenodd" clip-rule="evenodd" d="M521 251.5H1V250.5H521V251.5Z" fill="#20202E"/>
<path fill-rule="evenodd" clip-rule="evenodd" d="M0.5 251L0.5 1L1.5 1L1.5 251L0.5 251Z" fill="#20202E"/>
<path fill-rule="evenodd" clip-rule="evenodd" d="M10.5 251L10.5 1L11.5 1L11.5 251L10.5 251Z" fill="#20202E"/>
<path fill-rule="evenodd" clip-rule="evenodd" d="M20.5 251L20.5 1L21.5 1L21.5 251L20.5 251Z" fill="#20202E"/>
<path fill-rule="evenodd" clip-rule="evenodd" d="M30.5 251L30.5 1L31.5 1L31.5 251L30.5 251Z" fill="#20202E"/>
<path fill-rule="evenodd" clip-rule="evenodd" d="M40.5 251L40.5 1L41.5 1L41.5 251L40.5 251Z" fill="#20202E"/>
<path fill-rule="evenodd" clip-rule="evenodd" d="M50.5 251L50.5 1L51.5 1L51.5 251L50.5 251Z" fill="#20202E"/>
<path fill-rule="evenodd" clip-rule="evenodd" d="M60.5 251L60.5 1L61.5 1L61.5 251L60.5 251Z" fill="#20202E"/>
<path fill-rule="evenodd" clip-rule="evenodd" d="M70.5 251L70.5 1L71.5 1L71.5 251L70.5 251Z" fill="#20202E"/>
<path fill-rule="evenodd" clip-rule="evenodd" d="M80.5 251L80.5 1L81.5 1L81.5 251L80.5 251Z" fill="#20202E"/>
<path fill-rule="evenodd" clip-rule="evenodd" d="M90.5 251L90.5 1L91.5 1L91.5 251L90.5 251Z" fill="#20202E"/>
<path fill-rule="evenodd" clip-rule="evenodd" d="M100.5 251L100.5 1L101.5 1L101.5 251L100.5 251Z" fill="#20202E"/>
<path fill-rule="evenodd" clip-rule="evenodd" d="M110.5 251L110.5 1L111.5 1L111.5 251L110.5 251Z" fill="#20202E"/>
<path fill-rule="evenodd" clip-rule="evenodd" d="M120.5 251L120.5 1L121.5 1L121.5 251L120.5 251Z" fill="#20202E"/>
<path fill-rule="evenodd" clip-rule="evenodd" d="M130.5 251L130.5 1L131.5 1L131.5 251L130.5 251Z" fill="#20202E"/>
<path fill-rule="evenodd" clip-rule="evenodd" d="M140.5 251L140.5 1L141.5 1L141.5 251L140.5 251Z" fill="#20202E"/>
<path fill-rule="evenodd" clip-rule="evenodd" d="M150.5 251L150.5 1L151.5 1L151.5 251L150.5 251Z" fill="#20202E"/>
<path fill-rule="evenodd" clip-rule="evenodd" d="M160.5 251L160.5 1L161.5 1L161.5 251L160.5 251Z" fill="#20202E"/>
<path fill-rule="evenodd" clip-rule="evenodd" d="M170.5 251L170.5 1L171.5 1L171.5 251L170.5 251Z" fill="#20202E"/>
<path fill-rule="evenodd" clip-rule="evenodd" d="M180.5 251L180.5 1L181.5 1L181.5 251L180.5 251Z" fill="#20202E"/>
<path fill-rule="evenodd" clip-rule="evenodd" d="M190.5 251L190.5 1L191.5 1L191.5 251L190.5 251Z" fill="#20202E"/>
<path fill-rule="evenodd" clip-rule="evenodd" d="M200.5 251L200.5 1L201.5 1L201.5 251L200.5 251Z" fill="#20202E"/>
<path fill-rule="evenodd" clip-rule="evenodd" d="M210.5 251L210.5 1L211.5 1L211.5 251L210.5 251Z" fill="#20202E"/>
<path fill-rule="evenodd" clip-rule="evenodd" d="M220.5 251L220.5 1L221.5 1L221.5 251L220.5 251Z" fill="#20202E"/>
<path fill-rule="evenodd" clip-rule="evenodd" d="M230.5 251L230.5 1L231.5 1L231.5 251L230.5 251Z" fill="#20202E"/>
<path fill-rule="evenodd" clip-rule="evenodd" d="M240.5 251L240.5 1L241.5 1L241.5 251L240.5 251Z" fill="#20202E"/>
<path fill-rule="evenodd" clip-rule="evenodd" d="M250.5 251L250.5 1L251.5 1L251.5 251L250.5 251Z" fill="#20202E"/>
<path fill-rule="evenodd" clip-rule="evenodd" d="M260.5 251L260.5 1L261.5 1L261.5 251L260.5 251Z" fill="#20202E"/>
<path fill-rule="evenodd" clip-rule="evenodd" d="M270.5 251L270.5 1L271.5 1L271.5 251L270.5 251Z" fill="#20202E"/>
<path fill-rule="evenodd" clip-rule="evenodd" d="M280.5 251L280.5 1L281.5 1L281.5 251L280.5 251Z" fill="#20202E"/>
<path fill-rule="evenodd" clip-rule="evenodd" d="M290.5 251L290.5 1L291.5 1L291.5 251L290.5 251Z" fill="#20202E"/>
<path fill-rule="evenodd" clip-rule="evenodd" d="M300.5 251L300.5 1L301.5 1L301.5 251L300.5 251Z" fill="#20202E"/>
<path fill-rule="evenodd" clip-rule="evenodd" d="M310.5 251L310.5 1L311.5 1L311.5 251L310.5 251Z" fill="#20202E"/>
<path fill-rule="evenodd" clip-rule="evenodd" d="M320.5 251L320.5 1L321.5 1L321.5 251L320.5 251Z" fill="#20202E"/>
<path fill-rule="evenodd" clip-rule="evenodd" d="M330.5 251L330.5 1L331.5 1L331.5 251L330.5 251Z" fill="#20202E"/>
<path fill-rule="evenodd" clip-rule="evenodd" d="M340.5 251L340.5 1L341.5 1L341.5 251L340.5 251Z" fill="#20202E"/>
<path fill-rule="evenodd" clip-rule="evenodd" d="M350.5 251L350.5 1L351.5 1L351.5 251L350.5 251Z" fill="#20202E"/>
<path fill-rule="evenodd" clip-rule="evenodd" d="M360.5 251L360.5 1L361.5 1L361.5 251L360.5 251Z" fill="#20202E"/>
<path fill-rule="evenodd" clip-rule="evenodd" d="M370.5 251L370.5 1L371.5 1L371.5 251L370.5 251Z" fill="#20202E"/>
<path fill-rule="evenodd" clip-rule="evenodd" d="M380.5 251L380.5 1L381.5 1L381.5 251L380.5 251Z" fill="#20202E"/>
<path fill-rule="evenodd" clip-rule="evenodd" d="M390.5 251L390.5 1L391.5 1L391.5 251L390.5 251Z" fill="#20202E"/>
<path fill-rule="evenodd" clip-rule="evenodd" d="M400.5 251L400.5 1L401.5 1L401.5 251L400.5 251Z" fill="#20202E"/>
<path fill-rule="evenodd" clip-rule="evenodd" d="M410.5 251L410.5 1L411.5 1L411.5 251L410.5 251Z" fill="#20202E"/>
<path fill-rule="evenodd" clip-rule="evenodd" d="M420.5 251L420.5 1L421.5 1L421.5 251L420.5 251Z" fill="#20202E"/>
<path fill-rule="evenodd" clip-rule="evenodd" d="M430.5 251L430.5 1L431.5 1L431.5 251L430.5 251Z" fill="#20202E"/>
<path fill-rule="evenodd" clip-rule="evenodd" d="M440.5 251L440.5 1L441.5 1L441.5 251L440.5 251Z" fill="#20202E"/>
<path fill-rule="evenodd" clip-rule="evenodd" d="M450.5 251L450.5 1L451.5 1L451.5 251L450.5 251Z" fill="#20202E"/>
<path fill-rule="evenodd" clip-rule="evenodd" d="M460.5 251L460.5 1L461.5 1L461.5 251L460.5 251Z" fill="#20202E"/>
<path fill-rule="evenodd" clip-rule="evenodd" d="M470.5 251L470.5 1L471.5 1L471.5 251L470.5 251Z" fill="#20202E"/>
<path fill-rule="evenodd" clip-rule="evenodd" d="M480.5 251L480.5 1L481.5 1L481.5 251L480.5 251Z" fill="#20202E"/>
<path fill-rule="evenodd" clip-rule="evenodd" d="M490.5 251L490.5 1L491.5 1L491.5 251L490.5 251Z" fill="#20202E"/>
<path fill-rule="evenodd" clip-rule="evenodd" d="M500.5 251L500.5 1L501.5 1L501.5 251L500.5 251Z" fill="#20202E"/>
<path fill-rule="evenodd" clip-rule="evenodd" d="M510.5 251L510.5 1L511.5 1L511.5 251L510.5 251Z" fill="#20202E"/>
<path fill-rule="evenodd" clip-rule="evenodd" d="M520.5 251L520.5 1L521.5 1L521.5 251L520.5 251Z" fill="#20202E"/>
<path opacity="0.2" fill-rule="evenodd" clip-rule="evenodd" d="M387.644 36.132C387.478 38.3432 386.888 40.2672 386.539 41.3152C386.066 42.7347 385.108 44.6023 384.564 45.6641L384.53 45.7303C383.757 47.2393 382.737 49.1636 381.564 51.334C379.213 55.686 376.154 61.2007 373.022 66.7047C369.898 72.1966 366.653 77.7615 363.938 82.1866C362.587 84.3875 361.307 86.4073 360.202 88.0313C359.654 88.8379 359.081 89.6475 358.518 90.3764C358.096 90.9215 357.177 92.0923 355.964 93.1315C353.745 95.034 350.964 96.4207 349.102 97.2906C346.952 98.2951 344.551 99.2676 342.34 100.133C340.856 100.714 339.506 101.232 338.292 101.697C335.426 102.796 333.322 103.603 332.021 104.254C328.161 106.184 323.784 107.413 319.153 106.878C315.91 106.504 313.206 105.342 311.022 103.864C310.624 104.419 310.213 105.007 309.768 105.642C309.677 105.772 309.585 105.904 309.491 106.038L309.481 106.052C308.639 107.253 307.462 108.934 306.266 110.329C305.819 110.85 305.604 111.115 305.35 111.428C305.137 111.69 304.897 111.985 304.471 112.493C303.852 113.229 302.779 114.482 301.347 115.645C297.575 118.711 293.466 119.52 289.655 119.52C286.225 119.52 283.28 118.416 281.664 117.752C280.178 117.141 278.584 116.356 277.393 115.769C277.189 115.668 276.996 115.573 276.818 115.486C274.676 114.438 273.394 113.913 272.591 113.669C272.398 113.826 272.159 114.046 271.893 114.346C270.739 115.65 269.755 117.703 269.641 120.091C269.353 126.14 268.288 131.952 264.001 136.629C262.429 138.344 260.639 139.6 259.88 140.133C259.807 140.184 259.745 140.228 259.692 140.265C258.883 140.841 258.527 141.119 258.14 141.506C257.501 142.145 256.931 142.697 256.462 143.15C255.97 143.625 255.654 143.93 255.377 144.206C255.294 144.596 255.175 145.236 255.034 146.217C254.299 151.367 251.411 155.345 249.344 157.796C247.097 160.46 244.341 162.997 241.856 165.196C240.651 166.262 239.477 167.28 238.339 168.268C234.307 171.769 230.72 174.883 227.766 178.33C227.239 178.944 227.013 179.35 226.922 179.541C226.876 179.638 226.856 179.698 226.849 179.724C226.841 179.75 226.838 179.765 226.837 179.775C226.836 179.782 226.821 179.885 226.86 180.147C226.901 180.429 227.005 180.882 227.249 181.556C227.782 183.027 228.69 184.79 230.168 187.418C230.386 187.805 230.618 188.215 230.862 188.644C232.108 190.841 233.644 193.548 234.98 196.343C236.441 199.396 237.642 202.202 238.401 204.655C238.779 205.879 239.163 207.378 239.328 208.999C239.475 210.452 239.579 213.17 238.339 216.114C236.826 219.708 233.813 222.427 230.039 223.536C226.953 224.443 224.278 224.006 222.947 223.709C220.28 223.113 217.834 221.832 216.409 221.055C210.994 218.102 139.968 179.09 125.143 170.406C123.096 169.235 121.145 168.071 119.484 166.932C117.98 165.9 115.827 164.304 114.12 162.11C112.2 159.641 109.891 155.046 111.568 149.414C112.925 144.853 116.234 142.288 117.68 141.255C119.648 139.849 123.491 137.653 127.278 135.489C128.085 135.027 128.89 134.567 129.673 134.117C134.674 131.242 140.057 128.073 144.379 125.116C144.665 124.92 144.959 124.718 145.26 124.511C147.014 123.303 148.974 121.953 150.617 121.063C152.859 119.848 157.237 117.917 162.626 119.514C166.153 120.559 168.892 122.964 169.827 123.786C169.9 123.85 169.962 123.904 170.013 123.948C170.198 124.107 170.383 124.267 170.57 124.428C171.765 125.46 173.027 126.548 174.855 127.92C177.319 129.768 179.796 131.798 182.044 133.64C182.308 133.856 182.568 134.07 182.826 134.28C185.378 136.369 187.651 138.203 189.829 139.763C192.021 141.333 193.765 142.365 195.156 142.97C196.469 143.542 197.02 143.536 197.027 143.536C198.24 143.471 199.695 142.884 201.17 141.409C202.499 140.08 203.356 138.494 203.737 137.256C203.579 136.889 203.205 136.153 202.351 134.964C201.441 133.7 200.291 132.339 198.874 130.742C198.544 130.369 198.177 129.961 197.791 129.531C196.709 128.325 195.473 126.946 194.436 125.702C193.489 124.565 192.561 123.556 191.549 122.454C191.464 122.362 191.379 122.269 191.293 122.176L191.192 122.066C190.274 121.067 188.869 119.537 187.779 117.988C187.766 117.97 187.752 117.951 187.737 117.93C187.006 116.894 183.768 112.31 185.131 106.297C186.753 99.1441 192.97 96.7655 194.86 96.1355L194.86 96.1354C196.155 95.7036 197.437 95.3714 198.7 95.1376C198.566 92.7854 199.044 90.2659 200.386 87.8943C202.005 85.0318 204.303 83.4163 205.852 82.5592C208.691 80.9881 211.849 80.4239 213.999 80.1344C236.579 76.8624 271.265 64.3279 302.321 51.4924C333.115 38.7653 358.741 26.4263 362.54 24.415C365.073 23.0742 367.888 21.8317 370.778 21.2935C373.437 20.7984 379.147 20.4167 383.703 24.9726C387.905 29.1747 387.777 34.3651 387.644 36.132ZM227.296 132.408C227.904 135.142 228.065 138.157 227.422 141.373C227.009 143.436 226.326 145.583 225.387 147.719C225.58 147.549 225.77 147.383 225.954 147.22C228.343 145.106 229.963 143.55 230.997 142.323C231.184 142.101 231.326 141.921 231.431 141.78C231.964 138.349 232.797 134.718 235.041 131.278C235.176 131.071 235.312 130.87 235.45 130.675C234.523 131.023 233.741 131.231 233.237 131.36C231.428 131.825 229.374 132.145 227.296 132.408ZM244.151 121.911C244.666 121.511 245.128 121.175 245.516 120.897C245.572 120.432 245.628 119.796 245.668 118.95C246.055 110.838 249.321 103.64 253.917 98.4444C255.724 96.4014 258.005 94.3959 260.66 92.803C251.772 95.7353 243.094 98.3192 234.979 100.337C238.18 103.917 240.519 107.182 241.639 108.863C241.657 108.889 241.676 108.918 241.697 108.949C242.16 109.64 243.487 111.621 244.199 114.04C244.635 115.525 245.038 117.782 244.527 120.43C244.429 120.941 244.302 121.434 244.151 121.911ZM220.341 87.9333C220.341 87.9335 220.348 87.9394 220.36 87.9512C220.346 87.9391 220.34 87.9332 220.341 87.9333ZM270.102 89.5886C271.23 89.4802 272.389 89.4644 273.575 89.5556C279.34 89.9991 284.473 92.5122 287.229 93.8612L287.366 93.9286C287.655 94.0697 287.92 94.1999 288.166 94.3203C288.212 94.3433 288.259 94.366 288.304 94.3883C288.619 93.9824 289.089 93.3306 289.835 92.2669C289.925 92.1381 290.019 92.004 290.116 91.8652C290.931 90.6994 291.975 89.2066 293.073 87.7762C294.288 86.193 295.88 84.2688 297.772 82.5641C299.538 80.9737 302.506 78.7044 306.552 77.8053C308.784 77.3093 311.277 77.0912 313.897 77.5233C316.627 77.9737 318.911 79.0341 320.763 80.341C321.574 80.9141 322.271 81.5147 322.842 82.0573C325.199 81.0041 328.238 79.8407 330.911 78.8171C331.869 78.4507 332.779 78.1022 333.595 77.783C335.696 76.9607 337.514 76.2145 338.942 75.5471C339.416 75.3256 339.771 75.147 340.027 75.0131C340.125 74.8737 340.234 74.7154 340.355 74.5369C341.156 73.3601 342.214 71.7002 343.481 69.6355C345.769 65.9073 348.534 61.1868 351.316 56.3201C340.412 61.3106 326.51 67.4642 311.488 73.6727C298.386 79.0879 284.141 84.6694 270.102 89.5886ZM339.425 75.8277C339.425 75.8261 339.448 75.797 339.492 75.7458C339.447 75.8037 339.425 75.8292 339.425 75.8277ZM320.616 83.0752C320.616 83.0751 320.621 83.0735 320.632 83.0708C320.621 83.074 320.616 83.0753 320.616 83.0752ZM291.142 95.6893C291.196 95.7039 291.224 95.7137 291.225 95.7149C291.225 95.716 291.199 95.7087 291.142 95.6893ZM231.691 141.396C231.691 141.395 231.687 141.404 231.677 141.421C231.685 141.404 231.691 141.396 231.691 141.396ZM207.365 165.554C204.585 166.64 201.552 167.331 198.286 167.503C189.071 167.988 181.084 163.02 175.856 159.276C172.972 157.211 170.15 154.92 167.625 152.853C167.366 152.641 167.111 152.432 166.858 152.225C164.544 150.329 162.48 148.639 160.455 147.12C159.459 146.373 158.567 145.67 157.776 145.029C153.428 147.994 148.437 150.981 144.008 153.553C157.8 161.355 184.164 175.924 203.741 186.708C202.962 183.706 202.552 180.287 203.051 176.578C203.587 172.589 205.085 168.912 207.365 165.554ZM215.533 211.96C215.533 211.961 215.531 211.955 215.529 211.943C215.532 211.954 215.533 211.96 215.533 211.96ZM162.052 142.164C162.075 142.151 162.069 142.156 162.035 142.173C162.041 142.17 162.047 142.167 162.052 142.164ZM227.302 108.105C227.302 108.105 227.295 108.107 227.28 108.111C227.294 108.107 227.302 108.105 227.302 108.105ZM273.076 113.344C273.076 113.344 273.072 113.346 273.066 113.349C273.072 113.345 273.076 113.344 273.076 113.344ZM313.959 100.294C313.959 100.296 313.931 100.32 313.876 100.36C313.932 100.312 313.959 100.292 313.959 100.294ZM306.214 99.3633C306.198 99.3469 306.189 99.3378 306.189 99.3375C306.189 99.3372 306.197 99.3453 306.214 99.3633Z" fill="white"/>
<path fill-rule="evenodd" clip-rule="evenodd" d="M378.171 35.419C378.093 36.4548 377.797 37.4989 377.526 38.311C377.327 38.9098 376.756 40.0699 376.076 41.397C375.346 42.8201 374.362 44.6775 373.206 46.8181C370.891 51.1018 367.867 56.5553 364.765 62.0067C361.665 67.4555 358.478 72.9196 355.84 77.2184C354.523 79.3654 353.33 81.2428 352.346 82.6897C351.855 83.4121 351.402 84.0481 351.001 84.5658C350.631 85.0453 350.207 85.5536 349.782 85.9185C348.626 86.9086 346.884 87.8408 345.08 88.6838C343.216 89.5548 341.046 90.4378 338.878 91.286C337.707 91.7443 336.547 92.189 335.43 92.6171C332.302 93.8165 329.515 94.8851 327.773 95.7565C324.989 97.1482 322.494 97.701 320.243 97.4409C317.948 97.1758 316.2 96.1002 314.887 94.7873C314.46 94.361 314.042 93.88 313.707 93.4954C313.596 93.3682 313.494 93.2516 313.405 93.151C312.989 92.6843 312.69 92.3914 312.4 92.187C312.012 91.9131 311.387 91.5845 309.697 91.96C309.18 92.0748 308.439 92.4705 307.476 93.3381C306.539 94.1818 305.568 95.3102 304.575 96.6041C303.686 97.7627 302.831 98.9843 301.994 100.18C301.899 100.316 301.805 100.452 301.71 100.587C300.811 101.87 299.896 103.162 299.053 104.147C298.595 104.681 298.24 105.115 297.896 105.534C297.666 105.816 297.441 106.091 297.194 106.385C296.645 107.039 296.05 107.708 295.356 108.272C293.778 109.554 292.032 110.02 289.655 110.02C288.148 110.02 286.619 109.518 285.275 108.965C284.116 108.489 282.87 107.876 281.657 107.279C281.435 107.17 281.213 107.061 280.993 106.953C278.01 105.493 275.169 104.221 272.463 104.013C270.274 103.845 267.353 105.14 264.777 108.052C262.261 110.896 260.373 114.985 260.152 119.639C259.894 125.056 258.979 128.048 256.997 130.21C256.161 131.122 255.192 131.809 254.374 132.39C254.309 132.436 254.245 132.481 254.182 132.526C253.284 133.165 252.394 133.817 251.422 134.788C250.844 135.367 250.323 135.871 249.861 136.317L249.721 136.452C249.314 136.846 248.965 137.183 248.649 137.499C247.946 138.202 247.513 138.698 247.186 139.198C246.568 140.146 246.123 141.422 245.629 144.874C245.278 147.332 243.811 149.62 242.081 151.671C240.314 153.766 238.009 155.915 235.561 158.08C234.532 158.991 233.475 159.907 232.407 160.833C228.288 164.405 224.009 168.115 220.553 172.147C218.565 174.466 217.683 176.561 217.421 178.509C217.156 180.484 217.497 182.531 218.317 184.793C219.146 187.079 220.411 189.45 221.888 192.076C222.135 192.514 222.388 192.96 222.644 193.413C223.892 195.614 225.231 197.977 226.41 200.442C227.803 203.354 228.77 205.67 229.324 207.462C229.601 208.357 229.798 209.196 229.876 209.96C229.95 210.689 229.941 211.579 229.584 212.428C229.169 213.412 228.375 214.123 227.36 214.422C226.488 214.678 225.64 214.576 225.016 214.437C223.768 214.158 222.343 213.471 220.957 212.715C215.475 209.725 144.473 170.724 129.903 162.184C127.894 161.036 126.2 160.019 124.857 159.098C123.548 158.2 122.395 157.275 121.619 156.277C120.798 155.222 120.181 153.776 120.672 152.124C121.098 150.696 122.207 149.695 123.201 148.985C124.736 147.889 127.967 146.041 131.755 143.873C132.615 143.381 133.504 142.872 134.408 142.352C139.408 139.477 145.082 136.145 149.743 132.956C150.086 132.722 150.417 132.494 150.737 132.275C152.547 131.031 153.988 130.042 155.143 129.415C156.569 128.643 158.137 128.092 159.927 128.623C161.374 129.051 162.646 130.144 163.791 131.128L163.822 131.154C163.991 131.3 164.166 131.45 164.347 131.607C165.553 132.648 167.051 133.942 169.155 135.52C171.444 137.237 173.757 139.132 176.027 140.992C176.288 141.206 176.549 141.419 176.808 141.632C179.35 143.712 181.84 145.727 184.298 147.487C189.325 151.087 193.703 153.224 197.523 153.023C205.591 152.598 211.864 145.222 213.203 138.529C213.738 135.856 212.54 132.861 210.063 129.417C208.859 127.743 207.444 126.087 205.98 124.437C205.572 123.977 205.156 123.514 204.74 123.05C203.696 121.886 202.651 120.721 201.734 119.62C200.632 118.298 199.555 117.126 198.562 116.046C198.471 115.947 198.38 115.848 198.29 115.75C197.264 114.633 196.253 113.524 195.548 112.521C194.944 111.663 194.001 110.139 194.396 108.397C194.839 106.443 196.58 105.576 197.864 105.148C203.047 103.42 207.037 104.222 210.138 106.507C212.882 108.529 214.718 111.595 216.129 113.951C216.186 114.046 216.243 114.141 216.298 114.233L216.343 114.307C217.099 115.567 217.601 116.405 218.082 117.038C218.537 117.637 218.855 117.887 219.148 118.034C219.866 118.393 221.22 118.555 225.344 118.039C227.317 117.792 228.69 117.558 229.626 117.317C229.691 117.3 229.752 117.284 229.811 117.268C229.742 117.16 229.663 117.04 229.574 116.906C227.625 113.982 221.857 106.336 215.303 102.123C213.519 100.976 211.99 99.8973 210.843 98.8924C209.81 97.9875 208.639 96.7724 208.285 95.2862C208.077 94.4108 208.155 93.4535 208.654 92.5726C209.114 91.759 209.811 91.2261 210.452 90.8713C211.684 90.1895 213.384 89.8011 215.31 89.5434C239.212 86.0908 274.938 73.0892 305.95 60.2721C336.907 47.4775 362.829 35.0112 366.985 32.8109C369.195 31.641 371.018 30.9121 372.517 30.6329C373.968 30.3628 375.714 30.4194 376.985 31.6901C378.182 32.8872 378.242 34.4757 378.171 35.419ZM373.095 35.6236C372.304 35.8253 371.091 36.2945 369.324 37.2299C364.98 39.5296 338.902 52.0629 307.859 64.893C276.877 77.6982 240.61 90.9438 216.012 94.494L215.998 94.496L215.985 94.4978C215.066 94.6203 214.376 94.7573 213.87 94.8896C213.952 94.9661 214.041 95.0466 214.138 95.1313C215.006 95.8921 216.29 96.8136 218.006 97.9167C225.452 102.703 231.684 111.057 233.735 114.133C234.213 114.851 234.806 115.773 235.084 116.721C235.237 117.24 235.34 117.902 235.199 118.63C235.052 119.393 234.675 120.035 234.172 120.537C233.289 121.421 232.024 121.863 230.871 122.16C229.619 122.482 227.992 122.747 225.965 123C222.089 123.485 219.194 123.647 216.911 122.506C215.704 121.902 214.834 121.027 214.102 120.064C213.449 119.204 212.815 118.147 212.146 117.031C212.101 116.956 212.056 116.881 212.011 116.806C210.444 114.195 209.066 111.928 207.172 110.532C205.566 109.349 203.381 108.656 199.745 109.794C200.231 110.454 200.966 111.272 201.972 112.368C202.063 112.466 202.155 112.567 202.249 112.669C203.235 113.741 204.391 114.999 205.575 116.419C206.431 117.446 207.379 118.503 208.396 119.637C208.826 120.116 209.268 120.608 209.72 121.118C211.209 122.796 212.763 124.608 214.122 126.497C216.769 130.179 219.071 134.683 218.106 139.51C216.445 147.817 208.718 157.441 197.786 158.016C192.106 158.315 186.484 155.202 181.387 151.552C178.782 149.687 176.178 147.577 173.641 145.501C173.381 145.288 173.122 145.076 172.864 144.864C170.579 142.993 168.353 141.168 166.155 139.52C163.905 137.833 162.282 136.43 161.072 135.385C160.894 135.231 160.725 135.085 160.565 134.947C159.171 133.751 158.734 133.484 158.507 133.417C158.503 133.416 158.507 133.406 158.428 133.423C158.298 133.45 158.029 133.538 157.525 133.811C156.621 134.301 155.448 135.106 153.601 136.373C153.278 136.595 152.933 136.832 152.566 137.083C147.727 140.394 141.901 143.812 136.901 146.687C135.925 147.248 134.987 147.785 134.098 148.294C130.326 150.453 127.416 152.119 126.108 153.054C125.933 153.179 125.801 153.284 125.702 153.37C126.034 153.737 126.644 154.26 127.686 154.975C128.857 155.778 130.409 156.715 132.395 157.85L132.407 157.857L132.419 157.864C146.877 166.339 217.835 205.317 223.352 208.326C223.802 208.571 224.2 208.776 224.549 208.945C224.549 208.943 224.548 208.941 224.547 208.938C224.101 207.495 223.256 205.437 221.899 202.599C220.802 200.306 219.566 198.123 218.32 195.925C218.057 195.46 217.793 194.995 217.53 194.527C216.054 191.903 214.601 189.212 213.617 186.497C212.624 183.759 212.059 180.869 212.466 177.844C212.876 174.792 214.244 171.824 216.756 168.893C220.48 164.55 225.13 160.52 229.274 156.929C230.304 156.037 231.303 155.172 232.248 154.335C234.676 152.188 236.745 150.243 238.259 148.448C239.811 146.608 240.531 145.208 240.68 144.167C241.187 140.618 241.741 138.395 242.998 136.467C243.609 135.53 244.332 134.745 245.113 133.963C245.462 133.614 245.845 133.245 246.245 132.859L246.387 132.721C246.845 132.279 247.34 131.799 247.887 131.252C249.166 129.974 250.338 129.125 251.283 128.452L251.312 128.431C252.282 127.741 252.844 127.341 253.312 126.831C254.08 125.993 254.915 124.485 255.157 119.401C255.436 113.555 257.798 108.394 261.032 104.739C264.206 101.151 268.535 98.696 272.846 99.0276C276.64 99.3195 280.299 101.047 283.191 102.462C283.434 102.581 283.67 102.697 283.902 102.811C285.12 103.41 286.187 103.934 287.175 104.34C288.377 104.834 289.161 105.02 289.655 105.02C291.277 105.02 291.781 104.735 292.203 104.392C292.509 104.143 292.852 103.781 293.365 103.17C293.527 102.976 293.724 102.736 293.945 102.467C294.331 101.997 294.788 101.439 295.256 100.893C295.913 100.127 296.686 99.0439 297.615 97.7179C297.709 97.584 297.804 97.4481 297.9 97.3104C298.729 96.1262 299.648 94.8117 300.609 93.56C301.678 92.1663 302.863 90.7635 304.13 89.6229C305.37 88.5061 306.879 87.4643 308.612 87.0791C311.423 86.4546 313.547 86.876 315.284 88.1021C316.057 88.6477 316.664 89.2923 317.139 89.8256C317.306 90.0137 317.453 90.1821 317.589 90.3382C317.883 90.676 318.126 90.9558 318.422 91.2518C319.109 91.9389 319.861 92.3637 320.816 92.474C321.815 92.5893 323.32 92.3926 325.537 91.2843C327.517 90.2939 330.672 89.0848 333.889 87.8521C334.951 87.4449 336.02 87.0351 337.056 86.6298C339.201 85.7905 341.25 84.9547 342.963 84.1539C344.737 83.325 345.933 82.6321 346.528 82.1222C346.514 82.1341 346.556 82.0987 346.662 81.978C346.761 81.8653 346.889 81.7105 347.046 81.5077C347.36 81.1011 347.75 80.5564 348.211 79.8784C349.132 78.5246 350.278 76.7222 351.578 74.6036C354.175 70.3712 357.332 64.9603 360.419 59.5341C363.505 54.1104 366.512 48.689 368.807 44.4414C369.955 42.3164 370.92 40.4942 371.626 39.1164C371.98 38.4264 372.263 37.8594 372.469 37.4272C372.572 37.2109 372.651 37.0386 372.708 36.9078C372.756 36.7992 372.777 36.7449 372.782 36.731C372.784 36.7265 372.784 36.7263 372.783 36.7298C372.92 36.3189 373.025 35.9461 373.095 35.6236ZM373.926 35.5022C373.925 35.5028 373.916 35.5023 373.9 35.4991C373.918 35.5001 373.926 35.5017 373.926 35.5022ZM373.189 34.8049C373.184 34.7867 373.183 34.7765 373.184 34.7759C373.185 34.7753 373.187 34.7843 373.189 34.8049ZM226.244 209.58C226.243 209.58 226.24 209.58 226.233 209.579C226.241 209.58 226.245 209.58 226.244 209.58ZM198.916 110.119C198.915 110.119 198.924 110.112 198.946 110.098C198.928 110.113 198.917 110.12 198.916 110.119ZM212.801 95.2905C212.801 95.2905 212.803 95.2888 212.808 95.2856C212.803 95.289 212.801 95.2906 212.801 95.2905Z" fill="black"/>
<path fill-rule="evenodd" clip-rule="evenodd" d="M198.7 95.13C198.566 92.7778 199.044 90.2583 200.386 87.8867C202.005 85.0242 204.303 83.4087 205.852 82.5516C208.515 81.0783 211.458 80.4904 213.586 80.1842C215.263 79.8212 217.481 79.2405 220.175 78.5351C222.684 77.8781 225.606 77.113 228.889 76.315C232.068 75.5424 235.445 74.7836 238.411 74.3059C239.886 74.0684 241.491 73.8617 243.048 73.7888C244.293 73.7306 246.795 73.6717 249.403 74.4954C252.449 75.4574 254.413 77.2671 255.463 78.4346C256.411 79.489 257.065 80.5429 257.252 80.8459C257.262 80.8614 257.27 80.875 257.278 80.8865C257.345 80.994 257.409 81.1009 257.472 81.2072C257.836 81.3623 258.173 81.5082 258.403 81.6143C259.642 82.1868 261.462 83.1622 263.202 85.0477C263.846 85.7454 264.321 86.3989 264.544 86.7105C264.638 86.8409 264.885 87.1925 265.037 87.4086C265.098 87.4949 265.144 87.5596 265.158 87.58C265.49 88.0484 266.012 88.7645 266.942 89.9016C267.729 90.8634 268.475 91.6431 269.381 92.5875C269.43 92.6385 269.485 92.6949 269.544 92.7562C270.264 93.5021 271.696 94.9856 272.798 96.6319C274.242 98.7879 275.993 102.455 275.305 107.173C274.701 111.305 272.473 114.247 271.031 115.895C270.568 116.424 270.286 116.773 270.125 116.982C270.103 117.096 270.076 117.247 270.044 117.44C269.933 118.128 269.829 118.937 269.665 120.204C269.649 120.329 269.632 120.459 269.615 120.593C269.291 126.459 268.167 132.076 264.001 136.621C262.429 138.336 260.638 139.593 259.88 140.125C259.807 140.176 259.745 140.22 259.692 140.257C258.883 140.834 258.527 141.111 258.14 141.498C257.501 142.137 256.931 142.689 256.462 143.142L256.333 143.267C255.913 143.672 255.629 143.947 255.377 144.199C255.294 144.588 255.175 145.228 255.034 146.21C254.299 151.36 251.411 155.337 249.344 157.788C247.097 160.452 244.341 162.989 241.856 165.188C240.651 166.254 239.477 167.273 238.339 168.261C234.307 171.762 230.72 174.875 227.766 178.322C227.239 178.937 227.013 179.343 226.922 179.534C226.876 179.631 226.856 179.69 226.849 179.717C226.841 179.743 226.838 179.757 226.837 179.767L226.837 179.768C226.836 179.778 226.821 179.882 226.86 180.14C226.901 180.421 227.005 180.874 227.249 181.548C227.782 183.02 228.69 184.783 230.168 187.411C230.386 187.798 230.618 188.207 230.862 188.636C232.108 190.834 233.644 193.541 234.98 196.335C236.441 199.388 237.642 202.194 238.401 204.648C238.779 205.872 239.163 207.371 239.328 208.992C239.475 210.445 239.579 213.162 238.339 216.107C236.826 219.701 233.813 222.419 230.039 223.529C226.953 224.436 224.278 223.998 222.947 223.701C220.28 223.106 217.834 221.825 216.409 221.047C210.994 218.094 139.967 179.081 125.142 170.398C123.096 169.227 121.145 168.063 119.484 166.924C117.98 165.892 115.827 164.297 114.12 162.102C112.2 159.634 109.891 155.039 111.568 149.407C112.925 144.845 116.234 142.28 117.68 141.247C119.648 139.842 123.491 137.645 127.278 135.481C128.085 135.02 128.89 134.56 129.673 134.109C134.674 131.234 140.057 128.066 144.379 125.108C144.664 124.913 144.959 124.71 145.26 124.503C147.014 123.296 148.974 121.946 150.617 121.056C152.859 119.84 157.237 117.91 162.626 119.507C166.153 120.551 168.892 122.957 169.827 123.778C169.9 123.842 169.962 123.897 170.013 123.94C170.198 124.1 170.383 124.259 170.57 124.421C171.765 125.452 173.027 126.541 174.855 127.912C177.32 129.761 179.796 131.79 182.044 133.632C182.308 133.849 182.568 134.062 182.826 134.273C185.378 136.362 187.651 138.196 189.829 139.755C192.021 141.325 193.765 142.357 195.156 142.963C196.478 143.538 197.028 143.528 197.028 143.529C197.028 143.529 197.026 143.529 197.024 143.529C198.237 143.465 199.693 142.878 201.17 141.402C202.499 140.073 203.356 138.487 203.737 137.249C203.579 136.882 203.205 136.145 202.351 134.957C201.441 133.692 200.291 132.331 198.874 130.734C198.544 130.362 198.177 129.953 197.791 129.523C196.71 128.317 195.473 126.939 194.436 125.694C193.489 124.557 192.561 123.548 191.549 122.446C191.464 122.354 191.379 122.262 191.293 122.168L191.193 122.059C190.274 121.059 188.869 119.53 187.779 117.98C187.766 117.962 187.752 117.943 187.737 117.922C187.006 116.886 183.768 112.302 185.131 106.289C186.753 99.1365 192.97 96.7579 194.86 96.1279L194.86 96.1278C196.155 95.696 197.437 95.3638 198.7 95.13ZM259.154 85.2792L259.154 85.2787C259.154 85.2808 259.154 85.281 259.154 85.2792ZM227.296 132.4C227.904 135.135 228.065 138.15 227.422 141.366C227.009 143.429 226.326 145.575 225.387 147.712C225.58 147.542 225.77 147.375 225.954 147.212C228.343 145.099 229.963 143.542 230.997 142.315C231.184 142.094 231.326 141.913 231.431 141.772C231.964 138.341 232.797 134.71 235.041 131.27C235.176 131.063 235.312 130.863 235.45 130.668C234.523 131.016 233.741 131.223 233.237 131.353C231.428 131.818 229.374 132.138 227.296 132.4ZM244.151 121.903C244.666 121.503 245.128 121.167 245.516 120.889C245.572 120.424 245.628 119.788 245.668 118.942L245.692 118.454L245.754 117.97C245.792 117.682 245.829 117.382 245.868 117.072C246.174 114.637 246.557 111.576 247.495 108.873C247.893 107.726 248.365 106.683 248.885 105.722C248.714 105.52 248.542 105.312 248.367 105.099C247.548 104.098 246.908 103.271 246.395 102.582C246.351 102.564 246.307 102.545 246.263 102.526C244.376 101.715 241.969 100.498 239.895 98.4298C238.32 98.7485 236.516 99.1599 234.558 99.6359C234.502 99.6496 234.445 99.6633 234.389 99.6772C237.892 103.508 240.451 107.073 241.639 108.856C241.657 108.882 241.676 108.91 241.697 108.942C242.16 109.632 243.487 111.614 244.199 114.032C244.635 115.517 245.038 117.774 244.527 120.423C244.429 120.933 244.302 121.427 244.151 121.903ZM220.341 87.9257C220.341 87.9257 220.347 87.9317 220.36 87.9436C220.347 87.9317 220.34 87.9257 220.341 87.9257ZM244.352 97.7605C244.35 97.7624 244.296 97.7646 244.198 97.7613C244.306 97.7569 244.355 97.7586 244.352 97.7605ZM245.054 100.714C245.055 100.716 245.056 100.718 245.058 100.72C245.029 100.682 245.027 100.677 245.054 100.714ZM252.969 100.091C252.962 100.099 252.954 100.108 252.946 100.117C253.023 100.017 253.042 100.007 252.969 100.091ZM231.691 141.388C231.691 141.388 231.687 141.396 231.677 141.414C231.685 141.397 231.691 141.388 231.691 141.388ZM207.365 165.546C204.585 166.633 201.552 167.324 198.286 167.496C189.071 167.98 181.084 163.012 175.856 159.269C172.972 157.203 170.15 154.912 167.625 152.845C167.366 152.633 167.11 152.424 166.858 152.217C164.543 150.321 162.48 148.631 160.455 147.112C159.459 146.365 158.567 145.663 157.776 145.022C153.428 147.987 148.437 150.973 144.008 153.545C157.8 161.347 184.164 175.916 203.741 186.7C202.962 183.699 202.552 180.279 203.051 176.571C203.587 172.581 205.085 168.905 207.365 165.546ZM215.533 211.953C215.533 211.953 215.531 211.947 215.529 211.935C215.532 211.947 215.533 211.953 215.533 211.953ZM162.052 142.156C162.075 142.144 162.069 142.148 162.035 142.166C162.041 142.162 162.047 142.159 162.052 142.156ZM227.302 108.098C227.302 108.098 227.295 108.1 227.28 108.104C227.294 108.1 227.302 108.098 227.302 108.098Z" fill="white"/>
<path fill-rule="evenodd" clip-rule="evenodd" d="M224.48 92.3986C221.121 93.2726 218.094 94.0603 216.161 94.4601L216.073 94.4782L215.985 94.49C215.066 94.6125 214.376 94.7496 213.87 94.8819C213.952 94.9583 214.041 95.0388 214.138 95.1235C215.006 95.8843 216.29 96.8058 218.006 97.909C225.452 102.695 231.684 111.05 233.735 114.125C234.213 114.843 234.806 115.765 235.084 116.713C235.237 117.232 235.34 117.894 235.199 118.622C235.052 119.385 234.675 120.027 234.172 120.53C233.289 121.413 232.024 121.855 230.871 122.152C229.619 122.474 227.992 122.739 225.965 122.993C222.089 123.477 219.194 123.639 216.911 122.498C215.704 121.894 214.834 121.02 214.102 120.056C213.449 119.197 212.815 118.139 212.146 117.023C212.101 116.948 212.056 116.873 212.011 116.798C210.444 114.187 209.066 111.921 207.172 110.524C205.566 109.341 203.381 108.649 199.745 109.786C200.231 110.446 200.966 111.265 201.972 112.36C202.063 112.459 202.155 112.559 202.249 112.661C203.235 113.733 204.391 114.991 205.575 116.411C206.431 117.438 207.379 118.495 208.396 119.629C208.826 120.108 209.268 120.601 209.72 121.11C211.209 122.789 212.763 124.601 214.122 126.49C216.769 130.171 219.071 134.676 218.106 139.502C216.445 147.809 208.718 157.433 197.786 158.008C192.106 158.307 186.484 155.194 181.387 151.545C178.782 149.679 176.178 147.569 173.641 145.493C173.381 145.281 173.122 145.068 172.863 144.856C170.579 142.985 168.353 141.161 166.155 139.512C163.905 137.825 162.282 136.422 161.072 135.377C160.894 135.224 160.725 135.078 160.565 134.94C159.171 133.743 158.734 133.476 158.507 133.409C158.506 133.409 158.506 133.408 158.506 133.408C158.503 133.406 158.497 133.401 158.428 133.415C158.298 133.443 158.029 133.531 157.525 133.804C156.621 134.293 155.448 135.098 153.602 136.365C153.278 136.588 152.934 136.824 152.566 137.075C147.727 140.386 141.901 143.804 136.901 146.679C135.925 147.24 134.988 147.777 134.098 148.286C130.326 150.446 127.416 152.112 126.108 153.046C125.933 153.171 125.801 153.277 125.702 153.362C126.034 153.729 126.644 154.252 127.686 154.967C128.857 155.77 130.409 156.707 132.395 157.842L132.407 157.849L132.419 157.856C146.877 166.331 217.835 205.309 223.352 208.318C223.802 208.563 224.2 208.769 224.549 208.938C224.549 208.935 224.548 208.933 224.547 208.931C224.101 207.488 223.256 205.429 221.899 202.591C220.802 200.298 219.566 198.115 218.32 195.917C218.057 195.452 217.793 194.987 217.53 194.519C216.054 191.895 214.601 189.204 213.617 186.489C212.624 183.752 212.059 180.861 212.466 177.836C212.876 174.784 214.244 171.816 216.756 168.885C220.48 164.542 225.13 160.513 229.274 156.921C230.304 156.029 231.303 155.164 232.248 154.327C234.676 152.18 236.745 150.235 238.259 148.44C239.811 146.6 240.531 145.201 240.68 144.159C241.187 140.611 241.741 138.387 242.998 136.459C243.609 135.523 244.332 134.737 245.113 133.956C245.462 133.606 245.845 133.237 246.245 132.851L246.387 132.713C246.845 132.271 247.34 131.791 247.887 131.245C249.166 129.966 250.338 129.118 251.283 128.445L251.312 128.424C252.282 127.733 252.844 127.333 253.312 126.823C254.08 125.985 254.915 124.477 255.157 119.394L255.162 119.292L255.175 119.191C255.214 118.893 255.251 118.603 255.287 118.321C255.629 115.658 255.882 113.682 256.47 111.988C257.176 109.953 258.316 108.406 260.118 106.346C260.841 105.521 260.943 105.147 260.955 105.085C260.955 105.083 260.954 105.081 260.953 105.078C260.941 105.038 260.897 104.92 260.75 104.7C260.418 104.204 259.864 103.611 258.921 102.629L258.863 102.569C257.984 101.653 256.889 100.513 255.72 99.0834C254.554 97.6588 253.832 96.6752 253.332 95.9704C253.149 95.7129 253.015 95.5217 252.913 95.3768C252.708 95.0836 252.634 94.9794 252.561 94.8972C252.531 94.8798 252.462 94.8423 252.322 94.7777C252.08 94.6656 251.808 94.5524 251.419 94.3905C251.067 94.2442 250.62 94.0582 250.013 93.7972C247.834 92.8608 246.442 91.8923 245.683 90.4699C245.386 89.9142 245.233 89.3486 245.158 89.0725C245.149 89.039 245.141 89.0098 245.134 88.9854C245.058 88.7165 245.023 88.6377 244.971 88.5554C244.9 88.4418 244.846 88.3567 244.797 88.2843C244.762 88.2807 244.723 88.2773 244.68 88.2743C244.439 88.2571 244.124 88.2541 243.726 88.2727C242.926 88.3102 241.914 88.4285 240.716 88.6213C238.325 89.0063 235.391 89.6565 232.314 90.4045C229.732 91.032 227.012 91.7398 224.48 92.3986ZM226.244 209.572C226.244 209.573 226.241 209.572 226.233 209.572C226.24 209.572 226.244 209.572 226.244 209.572ZM198.916 110.112C198.915 110.111 198.924 110.104 198.946 110.091C198.928 110.105 198.917 110.112 198.916 110.112ZM243.492 83.2782C244.487 83.2316 245.599 83.2562 246.542 83.5542C247.411 83.8286 248.013 84.3576 248.399 84.7865C248.774 85.2031 249.054 85.6533 249.215 85.9109C249.644 86.6004 249.832 87.2233 249.946 87.6273C250.072 88.0743 250.076 88.0827 250.094 88.116C250.095 88.1171 250.1 88.1246 250.111 88.1374C250.134 88.1626 250.192 88.2235 250.317 88.317C250.58 88.5145 251.074 88.8109 251.987 89.2033C252.429 89.3931 252.838 89.5643 253.203 89.7167C253.703 89.9258 254.119 90.0998 254.419 90.2385C255.065 90.5371 255.654 90.8764 256.222 91.4919C256.548 91.8448 256.88 92.32 257.19 92.7638C257.265 92.8707 257.338 92.9759 257.41 93.077C257.852 93.7004 258.505 94.5917 259.589 95.9172C260.633 97.1921 261.611 98.2117 262.498 99.1358L262.599 99.2402C263.419 100.094 264.293 101.005 264.904 101.918C265.586 102.935 266.133 104.23 265.904 105.8C265.693 107.248 264.874 108.504 263.881 109.639C262.184 111.579 261.574 112.532 261.193 113.627C260.784 114.807 260.599 116.24 260.211 119.236C260.19 119.397 260.169 119.563 260.147 119.734C259.882 125.086 258.967 128.054 256.997 130.202C256.161 131.114 255.192 131.801 254.374 132.382C254.309 132.428 254.245 132.473 254.182 132.518C253.284 133.157 252.394 133.809 251.422 134.78C250.844 135.359 250.323 135.863 249.861 136.31L249.721 136.445C249.314 136.838 248.965 137.175 248.649 137.491C247.946 138.194 247.513 138.69 247.186 139.191C246.568 140.138 246.123 141.414 245.629 144.866C245.278 147.324 243.811 149.613 242.081 151.663C240.314 153.758 238.009 155.907 235.561 158.072C234.532 158.983 233.475 159.899 232.407 160.825C228.288 164.397 224.009 168.108 220.553 172.139C218.565 174.459 217.683 176.553 217.421 178.502C217.156 180.476 217.497 182.523 218.317 184.785C219.146 187.071 220.411 189.442 221.888 192.068C222.135 192.507 222.388 192.952 222.644 193.405C223.892 195.607 225.231 197.969 226.41 200.434C227.803 203.346 228.77 205.662 229.324 207.454C229.601 208.349 229.798 209.188 229.876 209.952C229.95 210.681 229.941 211.572 229.584 212.42C229.169 213.404 228.375 214.116 227.36 214.414C226.488 214.67 225.64 214.568 225.016 214.429C223.768 214.15 222.343 213.463 220.957 212.707C215.475 209.717 144.47 170.714 129.902 162.176C127.893 161.027 126.2 160.011 124.857 159.09C123.548 158.192 122.395 157.267 121.619 156.27C120.798 155.215 120.181 153.768 120.672 152.117C121.098 150.688 122.207 149.688 123.201 148.978C124.736 147.882 127.966 146.033 131.755 143.866C132.615 143.373 133.504 142.865 134.408 142.345C139.408 139.47 145.082 136.138 149.743 132.949C150.086 132.714 150.417 132.486 150.737 132.267C152.547 131.023 153.988 130.034 155.143 129.408C156.569 128.635 158.137 128.084 159.927 128.615C161.374 129.044 162.646 130.136 163.791 131.12L163.822 131.147C163.991 131.292 164.166 131.442 164.347 131.599C165.553 132.64 167.051 133.934 169.155 135.512C171.444 137.229 173.757 139.124 176.028 140.985C176.288 141.198 176.549 141.412 176.808 141.624C179.35 143.705 181.84 145.719 184.298 147.479C189.325 151.08 193.703 153.216 197.523 153.015C205.592 152.591 211.864 145.215 213.203 138.522C213.738 135.848 212.54 132.853 210.063 129.409C208.859 127.736 207.444 126.079 205.98 124.429C205.572 123.97 205.156 123.506 204.74 123.042C203.696 121.878 202.651 120.713 201.734 119.612C200.632 118.29 199.555 117.118 198.562 116.038C198.471 115.939 198.38 115.84 198.29 115.742C197.264 114.625 196.253 113.516 195.548 112.513C194.944 111.656 194.001 110.131 194.396 108.389C194.839 106.435 196.58 105.568 197.864 105.14C203.047 103.412 207.037 104.214 210.138 106.499C212.882 108.521 214.718 111.587 216.129 113.943C216.186 114.039 216.243 114.133 216.298 114.226L216.343 114.3C217.099 115.56 217.601 116.397 218.082 117.03C218.537 117.629 218.855 117.879 219.148 118.026C219.866 118.385 221.22 118.547 225.344 118.031C227.317 117.785 228.69 117.55 229.626 117.309C229.691 117.293 229.752 117.276 229.811 117.26C229.742 117.152 229.663 117.032 229.574 116.899C227.625 113.974 221.857 106.328 215.303 102.115C213.519 100.968 211.99 99.8895 210.843 98.8846C209.81 97.9797 208.639 96.7646 208.285 95.2784C208.077 94.403 208.155 93.4457 208.654 92.5649C209.114 91.7513 209.811 91.2183 210.452 90.8635C211.667 90.1909 213.338 89.8038 215.233 89.5462C217.087 89.158 219.83 88.443 222.983 87.6211C225.518 86.9603 228.317 86.2305 231.133 85.546C234.245 84.7895 237.332 84.1019 239.921 83.6849C241.214 83.4766 242.431 83.3278 243.492 83.2782Z" fill="black"/>
</svg>
