<svg width="18" height="16" viewBox="0 0 18 16" fill="none" xmlns="http://www.w3.org/2000/svg">
<path opacity="0.9" d="M4.405 11H5.458L6.412 5.285C6.421 5.195 6.448 5.132 6.484 5.096C6.52 5.06 6.556 5.042 6.61 5.042C6.664 5.042 6.7 5.06 6.736 5.096C6.763 5.132 6.79 5.204 6.817 5.303L7.906 9.956C7.978 10.28 8.104 10.559 8.275 10.784C8.437 11.009 8.716 11.117 9.103 11.117C9.472 11.117 9.742 11.018 9.922 10.811C10.102 10.604 10.237 10.307 10.327 9.92L11.425 5.294C11.443 5.204 11.479 5.132 11.515 5.096C11.551 5.06 11.596 5.042 11.65 5.042C11.695 5.042 11.731 5.06 11.767 5.096C11.794 5.132 11.812 5.195 11.83 5.285L12.766 11H13.864L12.847 5.33C12.775 4.934 12.64 4.637 12.46 4.439C12.28 4.241 12.001 4.133 11.632 4.133C11.272 4.133 11.002 4.259 10.804 4.502C10.606 4.745 10.462 5.042 10.381 5.402L9.265 10.046C9.247 10.127 9.229 10.19 9.211 10.226C9.193 10.271 9.157 10.289 9.103 10.289C9.049 10.289 9.013 10.271 8.995 10.226C8.977 10.181 8.959 10.118 8.941 10.037L7.843 5.402C7.753 5.042 7.618 4.745 7.438 4.502C7.258 4.259 6.979 4.133 6.601 4.133C6.259 4.133 5.998 4.241 5.818 4.439C5.638 4.637 5.512 4.934 5.44 5.33L4.405 11Z" fill="white"/>
<path d="M14 2C15.8289 3.40852 17 5.57287 17 8C17 10.4271 15.8289 12.5915 14 14" stroke="#FFDC61"/>
<path d="M4 2C2.17107 3.40852 1 5.57287 1 8C1 10.4271 2.17107 12.5915 4 14" stroke="#FFDC61"/>
</svg>
