<svg width="17" height="17" viewBox="0 0 17 17" fill="none" xmlns="http://www.w3.org/2000/svg">
<path opacity="0.9" d="M8.96 8.228C9.383 8.345 9.671 8.471 9.824 8.615C9.977 8.759 10.058 8.966 10.058 9.236C10.058 9.506 9.959 9.713 9.779 9.866C9.599 10.028 9.311 10.1 8.915 10.1H5.585V11H8.816C9.581 11 10.148 10.838 10.526 10.496C10.904 10.154 11.093 9.704 11.093 9.146C11.093 8.651 10.931 8.264 10.607 7.985C10.283 7.706 9.833 7.481 9.239 7.31L7.529 6.824C7.115 6.716 6.836 6.59 6.683 6.455C6.53 6.329 6.458 6.14 6.458 5.906C6.458 5.708 6.539 5.528 6.701 5.375C6.863 5.231 7.169 5.15 7.601 5.15H10.868V4.25H7.718C6.935 4.25 6.35 4.412 5.972 4.727C5.594 5.042 5.405 5.447 5.405 5.951C5.405 6.455 5.558 6.842 5.882 7.112C6.206 7.382 6.656 7.598 7.25 7.76L8.96 8.228Z" fill="white"/>
<path d="M13 1.75464C14.8289 3.22076 16 5.47363 16 8.00001C16 10.5264 14.8289 12.7793 13 14.2454" stroke="#FF3F3F"/>
<path d="M4 2C2.17107 3.40852 1 5.57287 1 8C1 10.4271 2.17107 12.5915 4 14" stroke="#FF3F3F"/>
</svg>
