<svg width="17" height="16" viewBox="0 0 17 16" fill="none" xmlns="http://www.w3.org/2000/svg">
<path opacity="0.9" d="M4.81031 5H3.85031L5.26631 10.04C5.36231 10.384 5.48231 10.648 5.64231 10.832C5.80231 11.016 6.04231 11.104 6.37031 11.104C6.71431 11.104 6.96231 11.008 7.11431 10.808C7.26631 10.616 7.37831 10.352 7.45031 10.032L8.36231 6.04C8.37831 5.976 8.39431 5.92 8.41031 5.88C8.42631 5.848 8.45831 5.824 8.50631 5.824C8.54631 5.824 8.57831 5.848 8.59431 5.888C8.61031 5.928 8.63431 5.984 8.65031 6.048L9.54631 10.032C9.61031 10.352 9.72231 10.616 9.88231 10.808C10.0343 11.008 10.2903 11.104 10.6423 11.104C10.9623 11.104 11.1943 11.016 11.3543 10.824C11.5063 10.64 11.6343 10.376 11.7303 10.04L13.1463 5H12.1943L10.8183 9.976C10.7943 10.056 10.7703 10.112 10.7463 10.144C10.7223 10.176 10.6903 10.192 10.6503 10.192C10.5943 10.192 10.5543 10.184 10.5303 10.152C10.5063 10.12 10.4823 10.064 10.4663 9.968L9.56231 6.056C9.48231 5.728 9.37831 5.456 9.23431 5.232C9.09031 5.008 8.84231 4.896 8.50631 4.896C8.17031 4.896 7.93831 5.008 7.79431 5.216C7.65031 5.424 7.53831 5.704 7.45831 6.04L6.53831 9.984C6.51431 10.072 6.49031 10.128 6.47431 10.152C6.45031 10.184 6.41831 10.192 6.37031 10.192C6.32231 10.192 6.28231 10.176 6.25831 10.144C6.22631 10.112 6.20231 10.056 6.18631 9.976L4.81031 5Z" fill="white"/>
<path d="M13 1.75464C14.8289 3.22076 16 5.47363 16 8.00001C16 10.5264 14.8289 12.7793 13 14.2454" stroke="#088CD0"/>
<path d="M4 2C2.17107 3.40852 1 5.57287 1 8C1 10.4271 2.17107 12.5915 4 14" stroke="#088CD0"/>
</svg>
