<svg width="55" height="51" viewBox="0 0 55 51" fill="none" xmlns="http://www.w3.org/2000/svg">
<path fill-rule="evenodd" clip-rule="evenodd" d="M25.1537 8.9579C26.7677 5.99971 29.9018 4 33.5 4C37.205 4 40.4182 6.12053 41.9857 9.22332L42.4053 10.0538L43.3108 10.2679C47.7203 11.3101 51 15.2745 51 20C51 25.5228 46.5229 30 41 30H34H27H9C6.23858 30 4 27.7614 4 25C4 22.2386 6.23858 20 9 20H12.6736H15.8379L14.4802 17.1418C14.1729 16.495 14 15.7705 14 15C14 12.2386 16.2386 10 19 10H23.398H24.5851L25.1537 8.9579ZM33.5 0C28.8168 0 24.6931 2.3853 22.2737 6H19C14.0294 6 10 10.0294 10 15C10 15.3377 10.0187 15.6714 10.0551 16H9C4.02944 16 0 20.0294 0 25C0 29.9706 4.02944 34 9 34H27H34H41C48.732 34 55 27.732 55 20C55 13.698 50.8378 8.37253 45.1143 6.61489C42.7637 2.65778 38.4438 0 33.5 0ZM29.9845 40.2486L30.4912 36.203L26.9819 38.2785C26.3971 38.6244 25.5019 39.2531 24.8642 40.0345C24.5545 40.4138 24.1451 41.0211 24.0306 41.7999C23.8927 42.7378 24.224 43.6542 24.9642 44.311C25.2831 44.5938 25.7504 44.8915 26.3627 44.9767C27.0093 45.0668 27.5819 44.8873 28.0139 44.615C28.7441 44.1548 29.1112 43.4133 29.2826 43.0224C29.6818 42.1116 29.8943 40.9686 29.9845 40.2486ZM27.9114 42.6335C27.9094 42.6369 27.9085 42.6385 27.9087 42.6385C27.909 42.6385 27.9118 42.6343 27.9162 42.626L27.9114 42.6335ZM16.4912 39.203L15.9845 43.2486C15.8943 43.9686 15.6818 45.1116 15.2826 46.0224C15.1112 46.4133 14.7441 47.1548 14.0139 47.615C13.5819 47.8873 13.0093 48.0668 12.3627 47.9767C11.7504 47.8915 11.2831 47.5938 10.9642 47.311C10.224 46.6542 9.89267 45.7378 10.0306 44.7999C10.1451 44.0211 10.5545 43.4138 10.8642 43.0345C11.5019 42.2531 12.3971 41.6244 12.9819 41.2785L16.4912 39.203ZM13.9087 45.6385C13.9084 45.6385 13.9106 45.6344 13.9162 45.626C13.9118 45.6343 13.909 45.6385 13.9087 45.6385ZM40.9845 46.2486L41.4912 42.203L37.9819 44.2785C37.3971 44.6244 36.5019 45.2531 35.8642 46.0345C35.5545 46.4138 35.1451 47.0211 35.0306 47.7999C34.8927 48.7378 35.224 49.6542 35.9642 50.311C36.2831 50.5938 36.7504 50.8915 37.3627 50.9767C38.0093 51.0668 38.5819 50.8873 39.0139 50.615C39.7441 50.1548 40.1112 49.4133 40.2826 49.0224C40.6818 48.1116 40.8943 46.9686 40.9845 46.2486ZM38.9087 48.6385C38.9084 48.6385 38.9106 48.6344 38.9162 48.626C38.9118 48.6343 38.909 48.6385 38.9087 48.6385Z" fill="white"/>
</svg>
