<svg width="84" height="11" viewBox="0 0 84 11" fill="none" xmlns="http://www.w3.org/2000/svg">
<path d="M4.10887 9.99999H5.49382V2.19999H9.10672V0.999994H0.495972V2.19999H4.10887V9.99999Z" fill="white"/>
<path d="M10.3727 9.99999H17.6105V8.79999H11.7576V6.02799H17.6105V4.82799H11.7576V2.19999H17.6105V0.999994H10.3727V9.99999Z" fill="white"/>
<path d="M19.499 9.99999H26.2551V8.79999H20.8839V0.999994H19.499V9.99999Z" fill="white"/>
<path d="M27.5786 9.99999H34.8165V8.79999H28.9636V6.02799H34.8165V4.82799H28.9636V2.19999H34.8165V0.999994H27.5786V9.99999Z" fill="white"/>
<path d="M36.163 9.99999H37.5721L38.8486 2.37999C38.8607 2.25999 38.8968 2.17599 38.945 2.12799C38.9931 2.07999 39.0413 2.05599 39.1136 2.05599C39.1858 2.05599 39.234 2.07999 39.2822 2.12799C39.3183 2.17599 39.3544 2.27199 39.3906 2.40399L40.8478 8.60799C40.9441 9.03999 41.1127 9.41199 41.3415 9.71199C41.5583 10.012 41.9316 10.156 42.4495 10.156C42.9433 10.156 43.3045 10.024 43.5454 9.74799C43.7863 9.47199 43.9669 9.07599 44.0873 8.55999L45.5566 2.39199C45.5807 2.27199 45.6288 2.17599 45.677 2.12799C45.7252 2.07999 45.7854 2.05599 45.8577 2.05599C45.9179 2.05599 45.966 2.07999 46.0142 2.12799C46.0504 2.17599 46.0744 2.25999 46.0985 2.37999L47.351 9.99999H48.8202L47.4594 2.43999C47.363 1.91199 47.1824 1.51599 46.9415 1.25199C46.7007 0.987994 46.3273 0.843994 45.8336 0.843994C45.3519 0.843994 44.9906 1.01199 44.7256 1.33599C44.4607 1.65999 44.268 2.05599 44.1596 2.53599L42.6663 8.72799C42.6422 8.83599 42.6181 8.91999 42.594 8.96799C42.5699 9.028 42.5217 9.05199 42.4495 9.05199C42.3772 9.05199 42.3291 9.028 42.305 8.96799C42.2809 8.90799 42.2568 8.82399 42.2327 8.71599L40.7635 2.53599C40.643 2.05599 40.4624 1.65999 40.2215 1.33599C39.9807 1.01199 39.6073 0.843994 39.1015 0.843994C38.6439 0.843994 38.2947 0.987994 38.0538 1.25199C37.8129 1.51599 37.6443 1.91199 37.548 2.43999L36.163 9.99999Z" fill="white"/>
<path d="M50.4415 9.99999H57.6794V8.79999H51.8265V6.02799H57.6794V4.82799H51.8265V2.19999H57.6794V0.999994H50.4415V9.99999Z" fill="white"/>
<path d="M62.2775 9.99999H63.6625V2.19999H67.2754V0.999994H58.6646V2.19999H62.2775V9.99999Z" fill="white"/>
<path d="M68.1569 9.99999V5.97999H68.7109L72.6489 9.99999H74.4674L70.5535 5.97999H71.3001C72.2997 5.97999 73.0825 5.82399 73.6365 5.49999C74.1904 5.18799 74.4795 4.56399 74.4795 3.65199V3.32799C74.4795 2.87199 74.3952 2.49999 74.2386 2.19999C74.0821 1.89999 73.8653 1.65999 73.5883 1.47999C73.2993 1.31199 72.9741 1.17999 72.5887 1.10799C72.2033 1.03599 71.7939 0.999994 71.3603 0.999994H64.3272V2.19999H71.6614C72.1793 2.19999 72.5406 2.28399 72.7453 2.42799C72.95 2.58399 73.0584 2.87199 73.0584 3.30399V3.67599C73.0584 4.10799 72.95 4.40799 72.7453 4.56399C72.5406 4.73199 72.1793 4.80399 71.6614 4.80399H67.5307C67.3259 4.80399 67.1453 4.87599 67.0008 4.99599C66.8442 5.12799 66.7719 5.29599 66.7719 5.51199V9.99999H68.1569Z" fill="white"/>
<path d="M78.7242 9.99999H80.1091V6.77199L83.987 0.999994H82.4214L79.6394 5.24799C79.5913 5.33199 79.507 5.36799 79.4106 5.36799C79.3143 5.36799 79.242 5.33199 79.1938 5.24799L76.4842 0.999994H74.8343L78.7242 6.78399V9.99999Z" fill="white"/>
</svg>
